<svg width="1600" height="900" viewBox="0 0 1600 900" fill="none" xmlns="http://www.w3.org/2000/svg">
<g clip-path="url(#clip0_785_2366)">
<rect width="1600" height="900" rx="32" fill="#16B2D4"/>
<g style="mix-blend-mode:color-burn">
<rect x="1599" y="900" width="1599" height="900" transform="rotate(180 1599 900)" fill="url(#paint0_linear_785_2366)" fill-opacity="0.2"/>
</g>
<rect x="398" y="378" width="181" height="216" fill="#16B2D4"/>
<rect x="653" y="241" width="280" height="236" fill="#16B2D4"/>
<rect x="1001" y="558" width="171" height="163" fill="#16B2D4"/>
<path d="M979.075 748C930.7 748 892 709.286 892 660.893C892 623.388 916.188 590.723 950.05 579.23C950.05 577.415 950.05 575.6 950.05 573.786C950.05 520.554 992.983 477 1046.8 477C1082.48 477 1113.92 496.962 1130.25 525.998C1139.32 519.344 1150.81 515.714 1162.9 515.714C1194.95 515.714 1220.95 541.725 1220.95 573.786C1220.95 581.65 1219.14 588.304 1216.72 594.958C1252.39 602.217 1279 633.672 1279 670.571C1279 713.52 1243.93 748 1201.6 748H979.075ZM1026.85 616.734C1020.8 622.783 1020.8 631.857 1026.85 637.301C1032.29 643.35 1041.36 643.35 1046.8 637.301L1070.38 613.71L1070.99 694.768C1070.99 703.237 1077.03 709.286 1085.5 709.286C1093.36 709.286 1100.01 703.237 1100.01 694.768V613.71L1123.6 637.301C1129.04 643.35 1138.11 643.35 1143.55 637.301C1149.6 631.857 1149.6 622.783 1143.55 616.734L1095.17 568.342C1089.73 562.897 1080.66 562.897 1075.22 568.342L1026.85 616.734Z" fill="white" fill-opacity="0.8"/>
<path d="M655.925 493C594.3 493 545 443.714 545 382.107C545 334.362 575.812 292.777 618.95 278.145C618.95 275.835 618.95 273.525 618.95 271.214C618.95 203.446 673.642 148 742.2 148C787.648 148 827.705 173.413 848.503 210.377C860.058 201.906 874.694 197.286 890.1 197.286C930.927 197.286 964.05 230.4 964.05 271.214C964.05 281.225 961.739 289.696 958.658 298.167C1004.11 307.408 1038 347.453 1038 394.429C1038 449.105 993.322 493 939.4 493H655.925ZM668.25 277.375V302.018C668.25 319.73 681.345 332.821 699.062 332.821H711.387C728.334 332.821 742.2 319.73 742.2 302.018V277.375C742.2 260.433 728.334 246.571 711.387 246.571H699.062C681.345 246.571 668.25 260.433 668.25 277.375ZM699.062 271.214H711.387C714.469 271.214 717.55 274.295 717.55 277.375V302.018C717.55 305.868 714.469 308.179 711.387 308.179H699.062C695.211 308.179 692.9 305.868 692.9 302.018V277.375C692.9 274.295 695.211 271.214 699.062 271.214ZM766.85 258.893C766.85 265.824 772.242 271.214 779.175 271.214V320.5C779.175 327.431 784.567 332.821 791.5 332.821C797.663 332.821 803.825 327.431 803.825 320.5V258.893C803.825 252.732 797.663 246.571 791.5 246.571H779.175C772.242 246.571 766.85 252.732 766.85 258.893ZM871.612 246.571C853.895 246.571 840.8 260.433 840.8 277.375V302.018C840.8 319.73 853.895 332.821 871.612 332.821H883.938C900.884 332.821 914.75 319.73 914.75 302.018V277.375C914.75 260.433 900.884 246.571 883.938 246.571H871.612ZM865.45 277.375C865.45 274.295 867.761 271.214 871.612 271.214H883.938C887.019 271.214 890.1 274.295 890.1 277.375V302.018C890.1 305.868 887.019 308.179 883.938 308.179H871.612C867.761 308.179 865.45 305.868 865.45 302.018V277.375ZM680.575 369.786C680.575 376.717 685.967 382.107 692.9 382.107V431.393C692.9 438.324 698.292 443.714 705.225 443.714C711.387 443.714 717.55 438.324 717.55 431.393V369.786C717.55 363.625 711.387 357.464 705.225 357.464H692.9C685.967 357.464 680.575 363.625 680.575 369.786ZM754.525 388.268V412.911C754.525 430.623 767.62 443.714 785.337 443.714H797.662C814.609 443.714 828.475 430.623 828.475 412.911V388.268C828.475 371.326 814.609 357.464 797.662 357.464H785.337C767.62 357.464 754.525 371.326 754.525 388.268ZM785.337 382.107H797.662C800.744 382.107 803.825 385.188 803.825 388.268V412.911C803.825 416.761 800.744 419.071 797.662 419.071H785.337C781.486 419.071 779.175 416.761 779.175 412.911V388.268C779.175 385.188 781.486 382.107 785.337 382.107ZM865.45 357.464C858.517 357.464 853.125 363.625 853.125 369.786C853.125 376.717 858.517 382.107 865.45 382.107V431.393C865.45 438.324 870.842 443.714 877.775 443.714C883.938 443.714 890.1 438.324 890.1 431.393V369.786C890.1 363.625 883.938 357.464 877.775 357.464H865.45Z" fill="white" fill-opacity="0.8"/>
<path d="M447.4 304C489.899 304 527.354 327.793 546.803 362.399C557.607 354.469 571.294 350.143 585.7 350.143C623.877 350.143 654.85 381.145 654.85 419.357C654.85 428.73 652.689 436.661 649.808 444.592C692.306 453.244 724 490.734 724 534.714C724 585.904 682.222 627 631.8 627H366.725C309.1 627 263 580.857 263 523.179C263 478.478 291.813 439.544 332.15 425.846V419.357C332.15 355.911 383.293 304 447.4 304ZM480.5 411C475.859 411 472.25 414.867 472.25 419.25V435.75H441.312C431 435.75 422.75 444.258 422.75 454.312V524.438C422.75 534.75 431 543 441.312 543H519.688C529.742 543 538.25 534.75 538.25 524.438V454.312C538.25 444.258 529.742 435.75 519.688 435.75H488.75V419.25C488.75 414.867 484.883 411 480.5 411ZM410.375 468.75C403.414 468.75 398 474.422 398 481.125V505.875C398 512.836 403.414 518.25 410.375 518.25H414.5V468.75H410.375ZM459.875 510C461.938 510 464 512.062 464 514.125C464 516.445 461.938 518.25 459.875 518.25H451.625C449.305 518.25 447.5 516.445 447.5 514.125C447.5 512.062 449.305 510 451.625 510H459.875ZM484.625 510C486.688 510 488.75 512.062 488.75 514.125C488.75 516.445 486.688 518.25 484.625 518.25H476.375C474.055 518.25 472.25 516.445 472.25 514.125C472.25 512.062 474.055 510 476.375 510H484.625ZM509.375 510C511.438 510 513.5 512.062 513.5 514.125C513.5 516.445 511.438 518.25 509.375 518.25H501.125C498.805 518.25 497 516.445 497 514.125C497 512.062 498.805 510 501.125 510H509.375ZM546.5 468.75V518.25H550.625C557.328 518.25 563 512.836 563 505.875V481.125C563 474.422 557.328 468.75 550.625 468.75H546.5ZM450.594 468.234C453.688 466.43 457.555 466.43 460.906 468.234C464 470.039 466.062 473.391 466.062 477C466.062 480.867 464 484.219 460.906 486.023C457.555 487.828 453.688 487.828 450.594 486.023C447.242 484.219 445.438 480.867 445.438 477C445.438 473.391 447.242 470.039 450.594 468.234ZM505.25 466.688C508.859 466.688 512.211 468.75 514.016 471.844C515.82 475.195 515.82 479.062 514.016 482.156C512.211 485.508 508.859 487.312 505.25 487.312C501.383 487.312 498.031 485.508 496.227 482.156C494.422 479.062 494.422 475.195 496.227 471.844C498.031 468.75 501.383 466.688 505.25 466.688Z" fill="white" fill-opacity="0.8"/>
</g>
<defs>
<linearGradient id="paint0_linear_785_2366" x1="2526.99" y1="1009.64" x2="2526.99" y2="1760.03" gradientUnits="userSpaceOnUse">
<stop stop-color="white"/>
<stop offset="1" stop-color="#A0A0A0"/>
</linearGradient>
<clipPath id="clip0_785_2366">
<rect width="1600" height="900" rx="32" fill="white"/>
</clipPath>
</defs>
</svg>
