<svg width="1600" height="900" viewBox="0 0 1600 900" fill="none" xmlns="http://www.w3.org/2000/svg">
<g clip-path="url(#clip0_785_2294)">
<rect width="1600" height="900" rx="32" fill="#16B2D4"/>
<g style="mix-blend-mode:color-burn">
<rect x="1599" y="628" width="1599" height="628" transform="rotate(180 1599 628)" fill="url(#paint0_linear_785_2294)" fill-opacity="0.2"/>
</g>
<rect opacity="0.62" y="628" width="1600" height="272" fill="#095C6F"/>
<g style="mix-blend-mode:color-burn">
<rect x="-1" y="628" width="1599" height="272" fill="url(#paint1_linear_785_2294)" fill-opacity="0.2"/>
</g>
<path d="M430 289.75C430 253.906 453.125 222.688 485.5 211.703C485.5 209.969 485.5 208.234 485.5 206.5C485.5 155.625 526.547 114 578 114C612.109 114 642.172 133.078 657.781 160.828C666.453 154.469 677.438 151 689 151C719.641 151 744.5 175.859 744.5 206.5C744.5 214.016 742.766 220.375 740.453 226.734C774.562 233.672 800 263.734 800 299C800 340.047 766.469 373 726 373H513.25C467 373 430 336 430 289.75Z" fill="white" fill-opacity="0.8"/>
<path d="M1230 427.786C1230 403.152 1245.88 381.696 1268.1 374.147C1268.1 372.955 1268.1 371.763 1268.1 370.571C1268.1 335.607 1296.28 307 1331.6 307C1355.02 307 1375.65 320.112 1386.37 339.183C1392.32 334.812 1399.86 332.429 1407.8 332.429C1428.83 332.429 1445.9 349.513 1445.9 370.571C1445.9 375.737 1444.71 380.107 1443.12 384.478C1466.54 389.246 1484 409.906 1484 434.143C1484 462.353 1460.98 485 1433.2 485H1287.15C1255.4 485 1230 459.571 1230 427.786Z" fill="white" fill-opacity="0.8"/>
<path d="M652 422.607C652 392.299 671.5 365.902 698.8 356.614C698.8 355.147 698.8 353.681 698.8 352.214C698.8 309.196 733.412 274 776.8 274C805.562 274 830.912 290.132 844.075 313.596C851.387 308.219 860.65 305.286 870.4 305.286C896.237 305.286 917.2 326.306 917.2 352.214C917.2 358.569 915.737 363.946 913.787 369.324C942.55 375.19 964 400.609 964 430.429C964 465.136 935.725 493 901.6 493H722.2C683.2 493 652 461.714 652 422.607Z" fill="white" fill-opacity="0.8"/>
<rect x="227.592" y="292.464" width="266.987" height="250.112" fill="#D6D6D6"/>
<g style="mix-blend-mode:overlay">
<path d="M227.592 443.044C227.592 440.153 229.152 437.487 231.672 436.07L482.66 294.996C487.992 291.998 494.579 295.852 494.579 301.97V484.554C494.579 488.973 490.998 492.554 486.579 492.554H235.592C231.174 492.554 227.592 488.973 227.592 484.554V443.044Z" fill="#333333"/>
</g>
<path d="M197 282.781C197 263.941 212.188 248 231.714 248H486.286C505.089 248 521 263.941 521 282.781V514.656C521 534.221 505.089 549.438 486.286 549.438H231.714C212.188 549.438 197 534.221 197 514.656V282.781ZM220.143 595.812V572.625H497.857V595.812C497.857 608.855 487.009 619 474.714 619H243.286C230.268 619 220.143 608.855 220.143 595.812ZM266.429 294.375C253.411 294.375 243.286 305.244 243.286 317.562V410.312C243.286 423.355 253.411 433.5 266.429 433.5H451.571C463.866 433.5 474.714 423.355 474.714 410.312V317.562C474.714 305.244 463.866 294.375 451.571 294.375H266.429ZM254.857 508.859C264.259 508.859 272.214 501.613 272.214 491.469C272.214 482.049 264.259 474.078 254.857 474.078C244.732 474.078 237.5 482.049 237.5 491.469C237.5 501.613 244.732 508.859 254.857 508.859ZM359 491.469C359 497.99 364.062 503.062 370.571 503.062H463.143C468.929 503.062 474.714 497.99 474.714 491.469C474.714 485.672 468.929 479.875 463.143 479.875H370.571C364.062 479.875 359 485.672 359 491.469Z" fill="#F5F5F5"/>
<mask id="mask0_785_2294" style="mask-type:alpha" maskUnits="userSpaceOnUse" x="1114" y="410" width="182" height="208">
<path d="M1140 410H1270C1284.22 410 1296 421.781 1296 436V592C1296 606.625 1284.22 618 1270 618H1140C1125.38 618 1114 606.625 1114 592V436C1114 421.781 1125.38 410 1140 410ZM1185.5 585.5C1181.84 585.5 1179 588.75 1179 592C1179 595.656 1181.84 598.5 1185.5 598.5H1224.5C1227.75 598.5 1231 595.656 1231 592C1231 588.75 1227.75 585.5 1224.5 585.5H1185.5Z" fill="black"/>
</mask>
<g mask="url(#mask0_785_2294)">
<rect x="1114" y="410" width="182" height="152" fill="#ADADAD"/>
<g style="mix-blend-mode:overlay">
<path d="M1296 562V410L1114 562H1296Z" fill="#333333"/>
</g>
<rect x="1091" y="565" width="225" height="53" fill="#D6D6D6"/>
</g>
<mask id="mask1_785_2294" style="mask-type:alpha" maskUnits="userSpaceOnUse" x="1316" y="436" width="125" height="183">
<path d="M1338.73 436H1418.27C1430.7 436 1441 446.365 1441 458.875V596.125C1441 608.992 1430.7 619 1418.27 619H1338.73C1325.94 619 1316 608.992 1316 596.125V458.875C1316 446.365 1325.94 436 1338.73 436ZM1378.5 578.969C1372.11 578.969 1367.14 584.33 1367.14 590.406C1367.14 596.84 1372.11 601.844 1378.5 601.844C1384.54 601.844 1389.86 596.84 1389.86 590.406C1389.86 584.33 1384.54 578.969 1378.5 578.969Z" fill="black"/>
</mask>
<g mask="url(#mask1_785_2294)">
<rect x="1316" y="566" width="125" height="55" fill="#D6D6D6"/>
<rect x="1316" y="436" width="125" height="128" fill="#ADADAD"/>
<g style="mix-blend-mode:overlay">
<path d="M1441 564V436L1316 564H1441Z" fill="#333333"/>
</g>
</g>
<rect x="753" y="420" width="207" height="134" fill="#ADADAD"/>
<g style="mix-blend-mode:overlay">
<path d="M758 509L959 418L955.229 545.736C955.102 550.061 951.559 553.5 947.233 553.5H758V509Z" fill="#333333"/>
</g>
<path d="M725.7 422.714C725.7 404.824 740.006 390 758.4 390H954.6C972.483 390 987.3 404.824 987.3 422.714V553.571H954.6V422.714H758.4V553.571H725.7V422.714ZM693 580.152C693 574.529 697.088 569.929 702.708 569.929H1009.78C1015.4 569.929 1020 574.529 1020 580.152C1020 601.621 1002.12 619 980.658 619H731.831C710.372 619 693 601.621 693 580.152ZM795.188 439.071H803.362C814.603 439.071 823.8 448.272 823.8 459.518V475.875C823.8 487.632 814.603 496.321 803.362 496.321H795.188C783.436 496.321 774.75 487.632 774.75 475.875V459.518C774.75 448.272 783.436 439.071 795.188 439.071ZM791.1 459.518V475.875C791.1 478.431 792.633 479.964 795.188 479.964H803.362C805.406 479.964 807.45 478.431 807.45 475.875V459.518C807.45 457.473 805.406 455.429 803.362 455.429H795.188C792.633 455.429 791.1 457.473 791.1 459.518ZM848.325 439.071H856.5C860.587 439.071 864.675 443.161 864.675 447.25V488.143C864.675 492.743 860.587 496.321 856.5 496.321C851.902 496.321 848.325 492.743 848.325 488.143V455.429C843.727 455.429 840.15 451.85 840.15 447.25C840.15 443.161 843.727 439.071 848.325 439.071ZM889.2 459.518C889.2 448.272 897.886 439.071 909.637 439.071H917.812C929.053 439.071 938.25 448.272 938.25 459.518V475.875C938.25 487.632 929.053 496.321 917.812 496.321H909.637C897.886 496.321 889.2 487.632 889.2 475.875V459.518ZM909.637 455.429C907.083 455.429 905.55 457.473 905.55 459.518V475.875C905.55 478.431 907.083 479.964 909.637 479.964H917.812C919.856 479.964 921.9 478.431 921.9 475.875V459.518C921.9 457.473 919.856 455.429 917.812 455.429H909.637ZM791.1 512.679H799.275C803.362 512.679 807.45 516.768 807.45 520.857V553.571H791.1V529.036C786.502 529.036 782.925 525.458 782.925 520.857C782.925 516.768 786.502 512.679 791.1 512.679ZM921.9 520.857V553.571H905.55V529.036C900.952 529.036 897.375 525.458 897.375 520.857C897.375 516.768 900.952 512.679 905.55 512.679H913.725C917.812 512.679 921.9 516.768 921.9 520.857ZM881.025 533.125V553.571H864.675V533.125C864.675 531.08 862.631 529.036 860.587 529.036H852.412C849.858 529.036 848.325 531.08 848.325 533.125V553.571H831.975V533.125C831.975 521.879 840.661 512.679 852.412 512.679H860.587C871.828 512.679 881.025 521.879 881.025 533.125Z" fill="#EBEBEB"/>
</g>
<defs>
<linearGradient id="paint0_linear_785_2294" x1="2526.99" y1="704.508" x2="2526.99" y2="1228.11" gradientUnits="userSpaceOnUse">
<stop stop-color="#D9D9D9"/>
<stop offset="1" stop-color="#737373"/>
</linearGradient>
<linearGradient id="paint1_linear_785_2294" x1="926.991" y1="661.137" x2="926.991" y2="887.919" gradientUnits="userSpaceOnUse">
<stop stop-color="#D9D9D9"/>
<stop offset="1" stop-color="#737373"/>
</linearGradient>
<clipPath id="clip0_785_2294">
<rect width="1600" height="900" rx="32" fill="white"/>
</clipPath>
</defs>
</svg>
