<svg xmlns="http://www.w3.org/2000/svg" width="1674" height="975" fill="none"><g filter="url(#a)"><g clip-path="url(#b)"><rect width="1600" height="900" x="42" y="35" fill="#16B2D4" rx="32"/><path fill="url(#c)" fill-opacity=".2" d="M1641 663h1599v628H1641z" style="mix-blend-mode:color-burn" transform="rotate(180 1641 663)"/><path fill="#095C6F" d="M42 663h1600v272H42z" opacity=".62"/><path fill="url(#d)" fill-opacity=".2" d="M41 663h1599v272H41z" style="mix-blend-mode:color-burn"/><path fill="#fff" fill-opacity=".8" d="M472 324.75c0-35.844 23.125-67.062 55.5-78.047V241.5c0-50.875 41.047-92.5 92.5-92.5 34.109 0 64.172 19.078 79.781 46.828C708.453 189.469 719.438 186 731 186c30.641 0 55.5 24.859 55.5 55.5 0 7.516-1.734 13.875-4.047 20.234C816.562 268.672 842 298.734 842 334c0 41.047-33.531 74-74 74H555.25C509 408 472 371 472 324.75m800 138.036c0-24.634 15.88-46.09 38.1-53.639v-3.576c0-34.964 28.18-63.571 63.5-63.571 23.42 0 44.05 13.112 54.77 32.183 5.95-4.371 13.49-6.754 21.43-6.754 21.03 0 38.1 17.084 38.1 38.142 0 5.166-1.19 9.536-2.78 13.907 23.42 4.768 40.88 25.428 40.88 49.665 0 28.21-23.02 50.857-50.8 50.857h-146.05c-31.75 0-57.15-25.429-57.15-57.214"/><path fill="#fff" fill-opacity=".8" d="M694 457.607c0-30.308 19.5-56.705 46.8-65.993v-4.4c0-43.018 34.612-78.214 78-78.214 28.762 0 54.112 16.132 67.275 39.596 7.312-5.377 16.575-8.31 26.325-8.31 25.837 0 46.8 21.02 46.8 46.928 0 6.355-1.463 11.732-3.413 17.11C984.55 410.19 1006 435.609 1006 465.429c0 34.707-28.275 62.571-62.4 62.571H764.2c-39 0-70.2-31.286-70.2-70.393"/><path fill="#D6D6D6" d="M269.592 327.464h266.987v250.112H269.592z"/><path fill="#333" d="M269.592 478.044a8 8 0 0 1 4.08-6.974L524.66 329.996c5.332-2.998 11.919.856 11.919 6.974v182.584a8 8 0 0 1-8 8H277.592a8 8 0 0 1-8-8z" style="mix-blend-mode:overlay"/><path fill="#F5F5F5" d="M239 317.781c0-18.84 15.188-34.781 34.714-34.781h254.572C547.089 283 563 298.941 563 317.781v231.875c0 19.565-15.911 34.782-34.714 34.782H273.714c-19.526 0-34.714-15.217-34.714-34.782zm23.143 313.031v-23.187h277.714v23.187c0 13.043-10.848 23.188-23.143 23.188H285.286c-13.018 0-23.143-10.145-23.143-23.188m46.286-301.437c-13.018 0-23.143 10.869-23.143 23.187v92.75c0 13.043 10.125 23.188 23.143 23.188h185.142c12.295 0 23.143-10.145 23.143-23.188v-92.75c0-12.318-10.848-23.187-23.143-23.187zm-11.572 214.484c9.402 0 17.357-7.246 17.357-17.39 0-9.42-7.955-17.391-17.357-17.391-10.125 0-17.357 7.971-17.357 17.391 0 10.144 7.232 17.39 17.357 17.39M401 526.469c0 6.521 5.062 11.593 11.571 11.593h92.572c5.786 0 11.571-5.072 11.571-11.593 0-5.797-5.785-11.594-11.571-11.594h-92.572c-6.509 0-11.571 5.797-11.571 11.594"/><mask id="e" width="182" height="208" x="1156" y="445" maskUnits="userSpaceOnUse" style="mask-type:alpha"><path fill="#000" d="M1182 445h130c14.22 0 26 11.781 26 26v156c0 14.625-11.78 26-26 26h-130c-14.62 0-26-11.375-26-26V471c0-14.219 11.38-26 26-26m45.5 175.5c-3.66 0-6.5 3.25-6.5 6.5 0 3.656 2.84 6.5 6.5 6.5h39c3.25 0 6.5-2.844 6.5-6.5 0-3.25-3.25-6.5-6.5-6.5z"/></mask><g mask="url(#e)"><path fill="#ADADAD" d="M1156 445h182v152h-182z"/><path fill="#333" d="M1338 597V445l-182 152z" style="mix-blend-mode:overlay"/><path fill="#D6D6D6" d="M1133 600h225v53h-225z"/></g><mask id="f" width="125" height="183" x="1358" y="471" maskUnits="userSpaceOnUse" style="mask-type:alpha"><path fill="#000" d="M1380.73 471h79.54c12.43 0 22.73 10.365 22.73 22.875v137.25c0 12.867-10.3 22.875-22.73 22.875h-79.54c-12.79 0-22.73-10.008-22.73-22.875v-137.25c0-12.51 9.94-22.875 22.73-22.875m39.77 142.969c-6.39 0-11.36 5.361-11.36 11.437 0 6.434 4.97 11.438 11.36 11.438 6.04 0 11.36-5.004 11.36-11.438 0-6.076-5.32-11.437-11.36-11.437"/></mask><g mask="url(#f)"><path fill="#D6D6D6" d="M1358 601h125v55h-125z"/><path fill="#ADADAD" d="M1358 471h125v128h-125z"/><path fill="#333" d="M1483 599V471l-125 128z" style="mix-blend-mode:overlay"/></g><path fill="#ADADAD" d="M795 455h207v134H795z"/><path fill="#333" d="m800 544 201-91-3.771 127.736a8 8 0 0 1-7.996 7.764H800z" style="mix-blend-mode:overlay"/><path fill="#EBEBEB" d="M767.7 457.714c0-17.89 14.306-32.714 32.7-32.714h196.2c17.88 0 32.7 14.824 32.7 32.714v130.857h-32.7V457.714H800.4v130.857h-32.7zM735 615.152c0-5.623 4.088-10.223 9.708-10.223h307.072c5.62 0 10.22 4.6 10.22 10.223 0 21.469-17.88 38.848-39.34 38.848H773.831C752.372 654 735 636.621 735 615.152m102.188-141.081h8.174c11.241 0 20.438 9.201 20.438 20.447v16.357c0 11.757-9.197 20.446-20.438 20.446h-8.174c-11.752 0-20.438-8.689-20.438-20.446v-16.357c0-11.246 8.686-20.447 20.438-20.447m-4.088 20.447v16.357c0 2.556 1.533 4.089 4.088 4.089h8.174c2.044 0 4.088-1.533 4.088-4.089v-16.357c0-2.045-2.044-4.089-4.088-4.089h-8.174c-2.555 0-4.088 2.044-4.088 4.089m57.225-20.447h8.175c4.087 0 8.175 4.09 8.175 8.179v40.893c0 4.6-4.088 8.178-8.175 8.178-4.598 0-8.175-3.578-8.175-8.178v-32.714c-4.598 0-8.175-3.579-8.175-8.179 0-4.089 3.577-8.179 8.175-8.179m40.875 20.447c0-11.246 8.686-20.447 20.437-20.447h8.175c11.241 0 20.438 9.201 20.438 20.447v16.357c0 11.757-9.197 20.446-20.438 20.446h-8.175c-11.751 0-20.437-8.689-20.437-20.446zm20.437-4.089c-2.554 0-4.087 2.044-4.087 4.089v16.357c0 2.556 1.533 4.089 4.087 4.089h8.175c2.044 0 4.088-1.533 4.088-4.089v-16.357c0-2.045-2.044-4.089-4.088-4.089zM833.1 547.679h8.175c4.087 0 8.175 4.089 8.175 8.178v32.714H833.1v-24.535c-4.598 0-8.175-3.578-8.175-8.179 0-4.089 3.577-8.178 8.175-8.178m130.8 8.178v32.714h-16.35v-24.535c-4.598 0-8.175-3.578-8.175-8.179 0-4.089 3.577-8.178 8.175-8.178h8.175c4.087 0 8.175 4.089 8.175 8.178m-40.875 12.268v20.446h-16.35v-20.446c0-2.045-2.044-4.089-4.088-4.089h-8.175c-2.554 0-4.087 2.044-4.087 4.089v20.446h-16.35v-20.446c0-11.246 8.686-20.446 20.437-20.446h8.175c11.241 0 20.438 9.2 20.438 20.446"/></g></g><defs><linearGradient id="c" x1="2568.99" x2="2568.99" y1="739.508" y2="1263.11" gradientUnits="userSpaceOnUse"><stop stop-color="#D9D9D9"/><stop offset="1" stop-color="#737373"/></linearGradient><linearGradient id="d" x1="968.991" x2="968.991" y1="696.137" y2="922.919" gradientUnits="userSpaceOnUse"><stop stop-color="#D9D9D9"/><stop offset="1" stop-color="#737373"/></linearGradient><clipPath id="b"><rect width="1600" height="900" x="42" y="35" fill="#fff" rx="32"/></clipPath><filter id="a" width="1673.44" height="973.44" x=".333" y=".753" color-interpolation-filters="sRGB" filterUnits="userSpaceOnUse"><feFlood flood-opacity="0" result="BackgroundImageFix"/><feColorMatrix in="SourceAlpha" result="hardAlpha" values="0 0 0 0 0 0 0 0 0 0 0 0 0 0 0 0 0 0 127 0"/><feOffset dx="-4.947" dy="2.473"/><feGaussianBlur stdDeviation="18.36"/><feComposite in2="hardAlpha" operator="out"/><feColorMatrix values="0 0 0 0 0 0 0 0 0 0 0 0 0 0 0 0 0 0 0.1 0"/><feBlend in2="BackgroundImageFix" result="effect1_dropShadow_785_2294"/><feBlend in="SourceGraphic" in2="effect1_dropShadow_785_2294" result="shape"/></filter></defs></svg>