<svg width="1600" height="900" viewBox="0 0 1600 900" fill="none" xmlns="http://www.w3.org/2000/svg">
<g clip-path="url(#clip0_813_6153)">
<rect width="1600" height="900" rx="32" fill="#16B2D4"/>
<path d="M295 205.75C295 169.906 318.125 138.688 350.5 127.703C350.5 125.969 350.5 124.234 350.5 122.5C350.5 71.625 391.547 30 443 30C477.109 30 507.172 49.0781 522.781 76.8281C531.453 70.4688 542.438 67 554 67C584.641 67 609.5 91.8594 609.5 122.5C609.5 130.016 607.766 136.375 605.453 142.734C639.562 149.672 665 179.734 665 215C665 256.047 631.469 289 591 289H378.25C332 289 295 252 295 205.75Z" fill="white" fill-opacity="0.8"/>
<path d="M1008 346.786C1008 322.152 1023.88 300.696 1046.1 293.147C1046.1 291.955 1046.1 290.763 1046.1 289.571C1046.1 254.607 1074.28 226 1109.6 226C1133.02 226 1153.65 239.112 1164.37 258.183C1170.32 253.812 1177.86 251.429 1185.8 251.429C1206.83 251.429 1223.9 268.513 1223.9 289.571C1223.9 294.737 1222.71 299.107 1221.12 303.478C1244.54 308.246 1262 328.906 1262 353.143C1262 381.353 1238.98 404 1211.2 404H1065.15C1033.4 404 1008 378.571 1008 346.786Z" fill="white" fill-opacity="0.8"/>
<path d="M517 338.607C517 308.299 536.5 281.902 563.8 272.614C563.8 271.147 563.8 269.681 563.8 268.214C563.8 225.196 598.412 190 641.8 190C670.562 190 695.912 206.132 709.075 229.596C716.387 224.219 725.65 221.286 735.4 221.286C761.237 221.286 782.2 242.306 782.2 268.214C782.2 274.569 780.737 279.946 778.787 285.324C807.55 291.19 829 316.609 829 346.429C829 381.136 800.725 409 766.6 409H587.2C548.2 409 517 377.714 517 338.607Z" fill="white" fill-opacity="0.8"/>
<path d="M168 598.669V378.932C168 362.352 177.562 347.047 193.5 340.67L364.35 272.435C368.812 270.522 374.55 270.522 379.012 272.435L549.862 340.67C565.8 347.047 576 362.352 576 378.932V598.669C576 607.597 568.987 595.753 560.7 595.753H530.1C521.175 595.753 514.8 607.597 514.8 598.669V412.093C514.8 401.252 505.237 391.686 494.4 391.686H249.6C238.125 391.686 229.2 401.252 229.2 412.093V598.669C229.2 607.597 222.187 595.753 213.9 595.753H183.3C174.375 595.753 168 607.597 168 598.669Z" fill="#28A656"/>
<path d="M576 379.061C576 362.49 565.831 347.194 549.941 340.82L428 292V391.808H494.645C505.45 391.808 514.984 401.368 514.984 412.202V598.671C514.984 607.593 521.34 595.757 530.238 595.757H560.746C569.009 595.757 576 607.593 576 598.671V379.061Z" fill="black" fill-opacity="0.08"/>
<rect x="154" y="586" width="437" height="37" rx="10" fill="#228C49"/>
<path d="M164 353L372.455 266L580 353" stroke="#228C49" stroke-width="15" stroke-linecap="round"/>
<rect x="217" y="364" width="308" height="40" fill="#76E49E"/>
<rect x="217" y="375" width="308" height="18" fill="#39C76D"/>
<rect x="275.685" y="515.286" width="71.0761" height="71.0761" fill="#F1D33D"/>
<rect x="303.022" y="515.286" width="16.4022" height="20.0471" fill="#C8A802"/>
<rect x="315.779" y="515.286" width="30.9819" height="71.0761" fill="black" fill-opacity="0.08"/>
<rect x="406.902" y="515.286" width="71.0761" height="71.0761" fill="#F1D33D"/>
<rect x="434.239" y="515.286" width="16.4022" height="20.0471" fill="#C8A802"/>
<rect x="446.997" y="515.286" width="30.9819" height="71.0761" fill="black" fill-opacity="0.08"/>
<rect x="406.902" y="444.21" width="71.0761" height="71.0761" fill="#F1D33D"/>
<rect x="434.239" y="444.21" width="16.4022" height="20.0471" fill="#C8A802"/>
<rect x="446.997" y="444.21" width="30.9819" height="71.0761" fill="black" fill-opacity="0.08"/>
<path d="M537.107 581.021C537.107 583.971 534.715 586.362 531.765 586.362H461.45C458.5 586.362 456.108 583.971 456.108 581.021V566.503H537.107V581.021ZM531.765 540.801C534.715 540.801 537.107 543.192 537.107 546.143V561.051H456.108V546.143C456.108 543.192 458.5 540.801 461.45 540.801H531.765Z" fill="#76E49E"/>
<path d="M537.106 581.021V546.143C537.106 543.192 534.714 540.801 531.764 540.801H505.953V586.362H531.764C534.714 586.362 537.106 583.971 537.106 581.021Z" fill="black" fill-opacity="0.08"/>
<rect x="529.708" y="561.051" width="7.39889" height="5.45181" fill="#28A656"/>
<rect x="463.509" y="561.051" width="66.2006" height="5.45181" fill="#228C49"/>
<rect x="456.109" y="561.051" width="7.39889" height="5.45181" fill="#28A656"/>
<path d="M465.943 586.362H527.47C529.886 586.362 532.096 585.482 533.798 584.025H459.615C461.317 585.482 463.527 586.362 465.943 586.362Z" fill="#39C76D"/>
<rect x="456.109" y="558.714" width="80.9984" height="2.33649" fill="#39C76D"/>
<circle cx="466.427" cy="551.121" r="2.92061" fill="#39C76D"/>
<path d="M466.426 554.041C468.039 554.041 469.347 552.734 469.347 551.121C469.347 550.165 468.888 549.317 468.179 548.784L464.674 553.457C465.162 553.824 465.769 554.041 466.426 554.041Z" fill="black" fill-opacity="0.08"/>
<circle cx="526.786" cy="551.121" r="2.92061" fill="#39C76D"/>
<path d="M526.786 554.041C528.399 554.041 529.706 552.734 529.706 551.121C529.706 550.165 529.247 549.317 528.538 548.784L525.033 553.457C525.521 553.824 526.128 554.041 526.786 554.041Z" fill="black" fill-opacity="0.08"/>
<circle cx="466.427" cy="576.044" r="2.92061" fill="#39C76D"/>
<path d="M466.426 578.964C468.039 578.964 469.347 577.657 469.347 576.044C469.347 575.088 468.888 574.24 468.179 573.707L464.674 578.38C465.162 578.747 465.769 578.964 466.426 578.964Z" fill="black" fill-opacity="0.08"/>
<circle cx="526.786" cy="576.044" r="2.92061" fill="#39C76D"/>
<path d="M526.786 578.964C528.399 578.964 529.706 577.657 529.706 576.044C529.706 575.088 529.247 574.24 528.538 573.707L525.033 578.38C525.521 578.747 526.128 578.964 526.786 578.964Z" fill="black" fill-opacity="0.08"/>
<path d="M537.107 535.459C537.107 538.409 534.715 540.801 531.765 540.801H461.45C458.5 540.801 456.108 538.409 456.108 535.459V520.941H537.107V535.459ZM531.765 495.239C534.715 495.239 537.107 497.631 537.107 500.581V515.489H456.108V500.581C456.108 497.631 458.5 495.239 461.45 495.239H531.765Z" fill="#76E49E"/>
<path d="M537.106 535.459V500.581C537.106 497.631 534.714 495.239 531.764 495.239H505.953V540.801H531.764C534.714 540.801 537.106 538.409 537.106 535.459Z" fill="black" fill-opacity="0.08"/>
<rect x="529.708" y="515.489" width="7.39889" height="5.45181" fill="#28A656"/>
<rect x="463.509" y="515.489" width="66.2006" height="5.45181" fill="#228C49"/>
<rect x="456.109" y="515.489" width="7.39889" height="5.45181" fill="#28A656"/>
<path d="M465.943 540.8H527.47C529.886 540.8 532.096 539.921 533.798 538.464H459.615C461.317 539.921 463.527 540.8 465.943 540.8Z" fill="#39C76D"/>
<rect x="456.109" y="513.152" width="80.9984" height="2.33649" fill="#39C76D"/>
<circle cx="466.427" cy="505.558" r="2.92061" fill="#39C76D"/>
<path d="M466.426 508.479C468.039 508.479 469.347 507.171 469.347 505.558C469.347 504.603 468.888 503.755 468.179 503.222L464.674 507.895C465.162 508.262 465.769 508.479 466.426 508.479Z" fill="black" fill-opacity="0.08"/>
<circle cx="526.786" cy="505.558" r="2.92061" fill="#39C76D"/>
<path d="M526.786 508.479C528.399 508.479 529.706 507.171 529.706 505.558C529.706 504.603 529.247 503.755 528.538 503.222L525.033 507.895C525.521 508.262 526.128 508.479 526.786 508.479Z" fill="black" fill-opacity="0.08"/>
<circle cx="466.427" cy="530.482" r="2.92061" fill="#39C76D"/>
<path d="M466.426 533.403C468.039 533.403 469.347 532.095 469.347 530.482C469.347 529.527 468.888 528.678 468.179 528.146L464.674 532.819C465.162 533.185 465.769 533.403 466.426 533.403Z" fill="black" fill-opacity="0.08"/>
<circle cx="526.786" cy="530.482" r="2.92061" fill="#39C76D"/>
<path d="M526.786 533.403C528.399 533.403 529.706 532.095 529.706 530.482C529.706 529.527 529.247 528.678 528.538 528.146L525.033 532.819C525.521 533.185 526.128 533.403 526.786 533.403Z" fill="black" fill-opacity="0.08"/>
<path d="M269.508 522.776C269.835 520.065 270.539 514.21 264.25 513.453" stroke="#186635" stroke-width="5.66406" stroke-linecap="round"/>
<path d="M248.591 531.148C249.397 524.453 253.371 517.424 260.154 518.24C262.533 518.526 265.235 519.835 267.166 520.871C268.766 521.689 270.616 521.912 272.364 521.497C274.486 520.948 277.421 520.318 279.888 520.615C286.583 521.42 288.864 529.202 288.059 535.897C286.702 547.174 278.636 554.783 271.589 553.935C270.091 553.755 268.305 553.003 267.124 552.414C266.451 552.065 265.658 551.97 264.922 552.149C263.724 552.452 261.722 552.747 260.312 552.578C253.265 551.73 247.235 542.424 248.591 531.148Z" fill="#F20B0B"/>
<path d="M279.888 520.614C277.421 520.318 274.485 520.947 272.364 521.496C271.468 521.709 270.546 521.755 269.645 521.638L265.982 552.076C266.379 552.116 266.768 552.23 267.124 552.414C268.304 553.003 270.091 553.754 271.588 553.935C278.636 554.783 286.702 547.173 288.058 535.897C288.864 529.202 286.583 521.42 279.888 520.614Z" fill="black" fill-opacity="0.08"/>
<path d="M270.19 518.018C269.398 517.922 268.855 517.232 268.951 516.439L269.12 515.029C269.587 511.153 273.052 508.352 277.016 508.83L278.426 508.999C279.13 509.084 279.75 509.874 279.665 510.578L279.496 511.988C279.019 515.952 275.476 518.654 271.6 518.187L270.19 518.018Z" fill="#28A656"/>
<path d="M279.496 511.987L279.665 510.578C279.708 510.222 279.572 509.845 279.335 509.548L269.26 517.518C269.483 517.786 269.807 517.971 270.19 518.017L271.6 518.187C275.476 518.653 279.019 515.952 279.496 511.987Z" fill="black" fill-opacity="0.08"/>
<path d="M232.019 525.623C231.75 522.906 231.169 517.037 224.866 517.661" stroke="#186635" stroke-width="5.66406" stroke-linecap="round"/>
<path d="M213.412 538.327C212.749 531.617 215.106 523.894 221.905 523.221C224.289 522.985 227.211 523.677 229.32 524.271C231.059 524.723 232.913 524.54 234.53 523.756C236.482 522.76 239.212 521.509 241.684 521.265C248.395 520.601 252.308 527.704 252.971 534.415C254.089 545.717 247.863 554.893 240.799 555.592C239.298 555.74 237.392 555.394 236.112 555.074C235.379 554.879 234.584 554.958 233.904 555.293C232.8 555.848 230.91 556.57 229.497 556.709C222.433 557.408 214.53 549.63 213.412 538.327Z" fill="#F20B0B"/>
<path d="M241.684 521.265C239.212 521.51 236.482 522.76 234.53 523.756C233.702 524.157 232.812 524.401 231.907 524.483L234.924 554.992C235.32 554.945 235.725 554.972 236.112 555.075C237.392 555.394 239.298 555.74 240.8 555.592C247.864 554.893 254.089 545.718 252.971 534.415C252.308 527.704 248.395 520.601 241.684 521.265Z" fill="black" fill-opacity="0.08"/>
<path d="M231.655 520.83C230.86 520.909 230.181 520.352 230.102 519.557L229.962 518.144C229.578 514.259 232.354 510.774 236.328 510.381L237.741 510.242C238.447 510.172 239.223 510.808 239.293 511.515L239.433 512.928C239.826 516.901 236.953 520.306 233.067 520.69L231.655 520.83Z" fill="#28A656"/>
<path d="M239.433 512.927L239.293 511.515C239.258 511.158 239.043 510.82 238.748 510.581L230.638 520.544C230.914 520.758 231.271 520.868 231.654 520.83L233.067 520.69C236.953 520.306 239.826 516.901 239.433 512.927Z" fill="black" fill-opacity="0.08"/>
<path d="M290.886 566.82C289.479 577.915 280.012 586.499 268.533 586.512L233.442 586.551C221.963 586.564 212.477 578 211.045 566.909L290.886 566.82ZM268.483 541.394C280.094 541.381 289.666 550.144 290.925 561.422L210.994 561.511C212.229 550.23 221.78 541.446 233.392 541.433L268.483 541.394Z" fill="#76E49E"/>
<path d="M268.483 541.394L260.192 541.403L260.243 586.521L268.533 586.511C280.992 586.498 291.081 576.386 291.067 563.928C291.053 551.469 280.942 541.38 268.483 541.394Z" fill="black" fill-opacity="0.08"/>
<rect x="283.737" y="561.43" width="7.32675" height="5.39866" transform="rotate(-0.0637727 283.737 561.43)" fill="#28A656"/>
<rect x="218.182" y="561.502" width="65.5552" height="5.39866" transform="rotate(-0.0637727 218.182 561.502)" fill="#228C49"/>
<rect x="210.855" y="561.511" width="7.32675" height="5.39866" transform="rotate(-0.0637727 210.855 561.511)" fill="#28A656"/>
<path d="M220.62 586.565L281.548 586.497C283.94 586.494 286.127 585.62 287.811 584.176L214.352 584.258C216.038 585.698 218.228 586.567 220.62 586.565Z" fill="#39C76D"/>
<rect x="210.853" y="559.197" width="80.2087" height="2.31371" transform="rotate(-0.0637727 210.853 559.197)" fill="#39C76D"/>
<circle cx="221.064" cy="551.666" r="2.89214" transform="rotate(-0.0637727 221.064 551.666)" fill="#39C76D"/>
<path d="M221.067 554.558C222.664 554.557 223.957 553.26 223.956 551.663C223.955 550.717 223.499 549.878 222.797 549.351L219.331 553.982C219.815 554.345 220.416 554.559 221.067 554.558Z" fill="black" fill-opacity="0.08"/>
<circle cx="280.834" cy="551.6" r="2.89214" transform="rotate(-0.0637727 280.834 551.6)" fill="#39C76D"/>
<path d="M280.838 554.492C282.435 554.49 283.728 553.194 283.727 551.597C283.726 550.651 283.27 549.811 282.568 549.284L279.102 553.916C279.586 554.278 280.187 554.493 280.838 554.492Z" fill="black" fill-opacity="0.08"/>
<circle cx="221.091" cy="576.346" r="2.89214" transform="rotate(-0.0637727 221.091 576.346)" fill="#39C76D"/>
<path d="M221.095 579.238C222.692 579.236 223.985 577.94 223.984 576.343C223.982 575.397 223.527 574.557 222.824 574.03L219.359 578.662C219.842 579.024 220.444 579.239 221.095 579.238Z" fill="black" fill-opacity="0.08"/>
<circle cx="280.862" cy="576.28" r="2.89214" transform="rotate(-0.0637727 280.862 576.28)" fill="#39C76D"/>
<path d="M280.865 579.172C282.462 579.17 283.756 577.874 283.754 576.276C283.753 575.33 283.298 574.491 282.595 573.964L279.129 578.595C279.613 578.958 280.214 579.172 280.865 579.172Z" fill="black" fill-opacity="0.08"/>
<path d="M312.837 475.242C309.98 475.242 307.758 473.02 307.758 470.163V465.084C307.758 451.116 318.869 439.688 333.154 439.688H338.233C340.773 439.688 343.312 442.227 343.312 444.767V449.846C343.312 464.131 331.884 475.242 317.916 475.242H312.837Z" fill="#28A656"/>
<path d="M343.313 449.846V444.766C343.313 443.486 342.667 442.205 341.701 441.25L309.321 473.866C310.226 474.724 311.457 475.242 312.837 475.242H317.916C331.884 475.242 343.313 464.131 343.313 449.846Z" fill="black" fill-opacity="0.08"/>
<path d="M303.801 502.148C303.801 506.014 306.935 509.148 310.801 509.148C314.667 509.148 317.801 506.014 317.801 502.148H310.801H303.801ZM302.793 467.234L297.07 471.265L301.247 477.197L306.971 473.166L312.694 469.136L308.516 463.204L302.793 467.234ZM310.801 485.258H303.801V502.148H310.801H317.801V485.258H310.801ZM306.971 473.166L301.247 477.197C302.909 479.556 303.801 482.372 303.801 485.258H310.801H317.801C317.801 479.486 316.017 473.855 312.694 469.136L306.971 473.166Z" fill="#228C49"/>
<path d="M281.767 446.414C278.91 446.414 276.688 448.636 276.688 451.493V456.573C276.688 470.54 287.798 481.969 302.084 481.969H307.163C309.703 481.969 312.242 479.429 312.242 476.89V471.81C312.242 457.525 300.814 446.414 286.846 446.414H281.767Z" fill="#28A656"/>
<path d="M312.242 471.811V476.89C312.242 478.171 311.596 479.451 310.631 480.406L278.25 447.79C279.155 446.933 280.387 446.414 281.767 446.414H286.846C300.814 446.414 312.242 457.525 312.242 471.811Z" fill="black" fill-opacity="0.08"/>
<path d="M344.965 498.562C343.718 508.397 335.326 516.006 325.15 516.017L294.043 516.052C283.867 516.063 275.458 508.473 274.188 498.64L344.965 498.562ZM274.023 496.15C274.023 496.126 274.022 496.102 274.022 496.077C274.022 496.052 274.023 496.028 274.023 496.003L274.023 496.15ZM325.105 476.022C335.398 476.011 343.881 483.779 344.998 493.775L274.144 493.854C275.238 483.855 283.705 476.068 293.998 476.057L325.105 476.022Z" fill="#76E49E"/>
<path d="M325.106 476.022L317.757 476.03L317.801 516.025L325.151 516.017C336.195 516.005 345.139 507.042 345.126 495.997C345.114 484.953 336.151 476.01 325.106 476.022Z" fill="black" fill-opacity="0.08"/>
<rect x="338.628" y="493.783" width="6.49446" height="4.78539" transform="rotate(-0.0637727 338.628 493.783)" fill="#28A656"/>
<rect x="280.517" y="493.848" width="58.1127" height="4.78575" transform="rotate(-0.0637727 280.517 493.848)" fill="#228C49"/>
<rect x="274.022" y="493.854" width="6.49446" height="4.78539" transform="rotate(-0.0637727 274.022 493.854)" fill="#28A656"/>
<path d="M282.678 516.065L336.688 516.005C338.809 516.003 340.748 515.228 342.241 513.948L277.121 514.021C278.616 515.298 280.557 516.068 282.678 516.065Z" fill="#39C76D"/>
<rect x="274.019" y="491.804" width="71.1026" height="2.05104" transform="rotate(-0.0637727 274.019 491.804)" fill="#39C76D"/>
<circle cx="283.07" cy="485.127" r="2.5636" transform="rotate(-0.0637727 283.07 485.127)" fill="#39C76D"/>
<path d="M283.071 487.691C284.486 487.689 285.633 486.54 285.631 485.124C285.63 484.286 285.227 483.542 284.604 483.075L281.532 487.18C281.961 487.501 282.494 487.692 283.071 487.691Z" fill="black" fill-opacity="0.08"/>
<circle cx="336.052" cy="485.069" r="2.5636" transform="rotate(-0.0637727 336.052 485.069)" fill="#39C76D"/>
<path d="M336.055 487.632C337.471 487.631 338.617 486.482 338.616 485.066C338.615 484.227 338.211 483.483 337.588 483.016L334.516 487.121C334.945 487.443 335.478 487.633 336.055 487.632Z" fill="black" fill-opacity="0.08"/>
<circle cx="283.094" cy="507.006" r="2.5636" transform="rotate(-0.0637727 283.094 507.006)" fill="#39C76D"/>
<path d="M283.097 509.57C284.512 509.568 285.659 508.419 285.657 507.003C285.656 506.165 285.253 505.421 284.63 504.954L281.558 509.059C281.987 509.38 282.519 509.57 283.097 509.57Z" fill="black" fill-opacity="0.08"/>
<circle cx="336.08" cy="506.947" r="2.5636" transform="rotate(-0.0637727 336.08 506.947)" fill="#39C76D"/>
<path d="M336.083 509.51C337.499 509.509 338.645 508.36 338.644 506.944C338.643 506.105 338.239 505.361 337.616 504.894L334.544 508.999C334.973 509.321 335.506 509.511 336.083 509.51Z" fill="black" fill-opacity="0.08"/>
<path d="M950.508 448.776C950.835 446.065 951.539 440.21 945.25 439.453" stroke="#186635" stroke-width="5.66406" stroke-linecap="round"/>
<path d="M929.591 457.148C930.397 450.453 934.371 443.424 941.154 444.24C943.533 444.526 946.235 445.835 948.166 446.871C949.766 447.689 951.616 447.912 953.364 447.497C955.486 446.948 958.421 446.318 960.888 446.615C967.583 447.42 969.864 455.202 969.059 461.897C967.702 473.174 959.636 480.783 952.589 479.935C951.091 479.755 949.305 479.003 948.124 478.414C947.451 478.065 946.658 477.97 945.922 478.149C944.724 478.452 942.722 478.747 941.312 478.578C934.265 477.73 928.235 468.424 929.591 457.148Z" fill="#F20B0B"/>
<path d="M960.888 446.614C958.421 446.318 955.485 446.947 953.364 447.496C952.468 447.709 951.546 447.755 950.645 447.638L946.982 478.076C947.379 478.116 947.768 478.23 948.124 478.414C949.304 479.003 951.091 479.754 952.588 479.935C959.636 480.783 967.702 473.173 969.058 461.897C969.864 455.202 967.583 447.42 960.888 446.614Z" fill="black" fill-opacity="0.08"/>
<path d="M951.19 444.018C950.398 443.922 949.855 443.232 949.951 442.439L950.12 441.029C950.587 437.153 954.052 434.352 958.016 434.83L959.426 434.999C960.13 435.084 960.75 435.874 960.665 436.578L960.496 437.988C960.019 441.952 956.476 444.654 952.6 444.187L951.19 444.018Z" fill="#28A656"/>
<path d="M960.496 437.987L960.665 436.578C960.708 436.222 960.572 435.845 960.335 435.548L950.26 443.518C950.483 443.786 950.807 443.971 951.19 444.017L952.6 444.187C956.476 444.653 960.019 441.952 960.496 437.987Z" fill="black" fill-opacity="0.08"/>
<path d="M913.019 451.623C912.75 448.906 912.169 443.037 905.866 443.661" stroke="#186635" stroke-width="5.66406" stroke-linecap="round"/>
<path d="M894.412 464.327C893.749 457.617 896.106 449.894 902.905 449.221C905.289 448.985 908.211 449.677 910.32 450.271C912.059 450.723 913.913 450.54 915.53 449.756C917.482 448.76 920.212 447.509 922.684 447.265C929.395 446.601 933.308 453.704 933.971 460.415C935.089 471.717 928.863 480.893 921.799 481.592C920.298 481.74 918.392 481.394 917.112 481.074C916.379 480.879 915.584 480.958 914.904 481.293C913.8 481.848 911.91 482.57 910.497 482.709C903.433 483.408 895.53 475.63 894.412 464.327Z" fill="#F20B0B"/>
<path d="M922.684 447.265C920.212 447.51 917.482 448.76 915.53 449.756C914.702 450.157 913.812 450.401 912.907 450.483L915.924 480.992C916.32 480.945 916.725 480.972 917.112 481.075C918.392 481.394 920.298 481.74 921.8 481.592C928.864 480.893 935.089 471.718 933.971 460.415C933.308 453.704 929.395 446.601 922.684 447.265Z" fill="black" fill-opacity="0.08"/>
<path d="M912.655 446.83C911.86 446.909 911.181 446.352 911.102 445.557L910.962 444.144C910.578 440.259 913.354 436.774 917.328 436.381L918.741 436.242C919.447 436.172 920.223 436.808 920.293 437.515L920.433 438.928C920.826 442.901 917.953 446.306 914.067 446.69L912.655 446.83Z" fill="#28A656"/>
<path d="M920.433 438.927L920.293 437.515C920.258 437.158 920.043 436.82 919.748 436.581L911.638 446.544C911.914 446.758 912.271 446.868 912.654 446.83L914.067 446.69C917.953 446.306 920.826 442.901 920.433 438.927Z" fill="black" fill-opacity="0.08"/>
<path d="M971.886 492.82C970.479 503.915 961.012 512.499 949.533 512.512L914.442 512.551C902.963 512.564 893.477 504 892.045 492.909L971.886 492.82ZM949.483 467.394C961.094 467.381 970.666 476.144 971.925 487.422L891.994 487.511C893.229 476.23 902.78 467.446 914.392 467.433L949.483 467.394Z" fill="#76E49E"/>
<path d="M949.483 467.394L941.192 467.403L941.243 512.521L949.533 512.511C961.992 512.498 972.081 502.386 972.067 489.928C972.053 477.469 961.942 467.38 949.483 467.394Z" fill="black" fill-opacity="0.08"/>
<rect x="964.737" y="487.43" width="7.32675" height="5.39866" transform="rotate(-0.0637727 964.737 487.43)" fill="#28A656"/>
<rect x="899.182" y="487.502" width="65.5552" height="5.39866" transform="rotate(-0.0637727 899.182 487.502)" fill="#228C49"/>
<rect x="891.855" y="487.511" width="7.32675" height="5.39866" transform="rotate(-0.0637727 891.855 487.511)" fill="#28A656"/>
<path d="M901.619 512.565L962.547 512.497C964.939 512.494 967.127 511.62 968.81 510.176L895.351 510.258C897.038 511.698 899.227 512.567 901.619 512.565Z" fill="#39C76D"/>
<rect x="891.853" y="485.197" width="80.2087" height="2.31371" transform="rotate(-0.0637727 891.853 485.197)" fill="#39C76D"/>
<circle cx="902.063" cy="477.666" r="2.89214" transform="rotate(-0.0637727 902.063 477.666)" fill="#39C76D"/>
<path d="M902.066 480.558C903.664 480.557 904.957 479.26 904.955 477.663C904.954 476.717 904.499 475.878 903.796 475.351L900.33 479.982C900.814 480.345 901.415 480.559 902.066 480.558Z" fill="black" fill-opacity="0.08"/>
<circle cx="961.834" cy="477.6" r="2.89214" transform="rotate(-0.0637727 961.834 477.6)" fill="#39C76D"/>
<path d="M961.837 480.492C963.435 480.49 964.728 479.194 964.726 477.597C964.725 476.651 964.27 475.811 963.567 475.284L960.101 479.916C960.585 480.278 961.186 480.493 961.837 480.492Z" fill="black" fill-opacity="0.08"/>
<circle cx="902.091" cy="502.346" r="2.89214" transform="rotate(-0.0637727 902.091 502.346)" fill="#39C76D"/>
<path d="M902.094 505.238C903.691 505.236 904.985 503.94 904.983 502.343C904.982 501.397 904.527 500.557 903.824 500.03L900.358 504.662C900.842 505.024 901.443 505.239 902.094 505.238Z" fill="black" fill-opacity="0.08"/>
<circle cx="961.861" cy="502.28" r="2.89214" transform="rotate(-0.0637727 961.861 502.28)" fill="#39C76D"/>
<path d="M961.865 505.172C963.462 505.17 964.755 503.874 964.754 502.276C964.752 501.33 964.297 500.491 963.594 499.964L960.129 504.595C960.612 504.958 961.214 505.172 961.865 505.172Z" fill="black" fill-opacity="0.08"/>
<path d="M850.508 448.776C850.835 446.065 851.539 440.21 845.25 439.453" stroke="#186635" stroke-width="5.66406" stroke-linecap="round"/>
<path d="M829.591 457.148C830.397 450.453 834.371 443.424 841.154 444.24C843.533 444.526 846.235 445.835 848.166 446.871C849.766 447.689 851.616 447.912 853.364 447.497C855.486 446.948 858.421 446.318 860.888 446.615C867.583 447.42 869.864 455.202 869.059 461.897C867.702 473.174 859.636 480.783 852.589 479.935C851.091 479.755 849.305 479.003 848.124 478.414C847.451 478.065 846.658 477.97 845.922 478.149C844.724 478.452 842.722 478.747 841.312 478.578C834.265 477.73 828.235 468.424 829.591 457.148Z" fill="#F20B0B"/>
<path d="M860.888 446.614C858.421 446.318 855.485 446.947 853.364 447.496C852.468 447.709 851.546 447.755 850.645 447.638L846.982 478.076C847.379 478.116 847.768 478.23 848.124 478.414C849.304 479.003 851.091 479.754 852.588 479.935C859.636 480.783 867.702 473.173 869.058 461.897C869.864 455.202 867.583 447.42 860.888 446.614Z" fill="black" fill-opacity="0.08"/>
<path d="M851.19 444.018C850.398 443.922 849.855 443.232 849.951 442.439L850.12 441.029C850.587 437.153 854.052 434.352 858.016 434.83L859.426 434.999C860.13 435.084 860.75 435.874 860.665 436.578L860.496 437.988C860.019 441.952 856.476 444.654 852.6 444.187L851.19 444.018Z" fill="#28A656"/>
<path d="M860.496 437.987L860.665 436.578C860.708 436.222 860.572 435.845 860.335 435.548L850.26 443.518C850.483 443.786 850.807 443.971 851.19 444.017L852.6 444.187C856.476 444.653 860.019 441.952 860.496 437.987Z" fill="black" fill-opacity="0.08"/>
<path d="M813.019 451.623C812.75 448.906 812.169 443.037 805.866 443.661" stroke="#186635" stroke-width="5.66406" stroke-linecap="round"/>
<path d="M794.412 464.327C793.749 457.617 796.106 449.894 802.905 449.221C805.289 448.985 808.211 449.677 810.32 450.271C812.059 450.723 813.913 450.54 815.53 449.756C817.482 448.76 820.212 447.509 822.684 447.265C829.395 446.601 833.308 453.704 833.971 460.415C835.089 471.717 828.863 480.893 821.799 481.592C820.298 481.74 818.392 481.394 817.112 481.074C816.379 480.879 815.584 480.958 814.904 481.293C813.8 481.848 811.91 482.57 810.497 482.709C803.433 483.408 795.53 475.63 794.412 464.327Z" fill="#F20B0B"/>
<path d="M822.684 447.265C820.212 447.51 817.482 448.76 815.53 449.756C814.702 450.157 813.812 450.401 812.907 450.483L815.924 480.992C816.32 480.945 816.725 480.972 817.112 481.075C818.392 481.394 820.298 481.74 821.8 481.592C828.864 480.893 835.089 471.718 833.971 460.415C833.308 453.704 829.395 446.601 822.684 447.265Z" fill="black" fill-opacity="0.08"/>
<path d="M812.655 446.83C811.86 446.909 811.181 446.352 811.102 445.557L810.962 444.144C810.578 440.259 813.354 436.774 817.328 436.381L818.741 436.242C819.447 436.172 820.223 436.808 820.293 437.515L820.433 438.928C820.826 442.901 817.953 446.306 814.067 446.69L812.655 446.83Z" fill="#28A656"/>
<path d="M820.433 438.927L820.293 437.515C820.258 437.158 820.043 436.82 819.748 436.581L811.638 446.544C811.914 446.758 812.271 446.868 812.654 446.83L814.067 446.69C817.953 446.306 820.826 442.901 820.433 438.927Z" fill="black" fill-opacity="0.08"/>
<path d="M871.886 492.82C870.479 503.915 861.012 512.499 849.533 512.512L814.442 512.551C802.963 512.564 793.477 504 792.045 492.909L871.886 492.82ZM849.483 467.394C861.094 467.381 870.666 476.144 871.925 487.422L791.994 487.511C793.229 476.23 802.78 467.446 814.392 467.433L849.483 467.394Z" fill="#76E49E"/>
<path d="M849.483 467.394L841.192 467.403L841.243 512.521L849.533 512.511C861.992 512.498 872.081 502.386 872.067 489.928C872.053 477.469 861.942 467.38 849.483 467.394Z" fill="black" fill-opacity="0.08"/>
<rect x="864.738" y="487.43" width="7.32675" height="5.39866" transform="rotate(-0.0637727 864.738 487.43)" fill="#28A656"/>
<rect x="799.183" y="487.502" width="65.5552" height="5.39866" transform="rotate(-0.0637727 799.183 487.502)" fill="#228C49"/>
<rect x="791.855" y="487.511" width="7.32675" height="5.39866" transform="rotate(-0.0637727 791.855 487.511)" fill="#28A656"/>
<path d="M801.62 512.565L862.548 512.497C864.94 512.494 867.127 511.62 868.811 510.176L795.352 510.258C797.038 511.698 799.228 512.567 801.62 512.565Z" fill="#39C76D"/>
<rect x="791.853" y="485.197" width="80.2087" height="2.31371" transform="rotate(-0.0637727 791.853 485.197)" fill="#39C76D"/>
<circle cx="802.064" cy="477.666" r="2.89214" transform="rotate(-0.0637727 802.064 477.666)" fill="#39C76D"/>
<path d="M802.067 480.558C803.664 480.557 804.957 479.26 804.956 477.663C804.955 476.717 804.499 475.878 803.797 475.351L800.331 479.982C800.815 480.345 801.416 480.559 802.067 480.558Z" fill="black" fill-opacity="0.08"/>
<circle cx="861.834" cy="477.6" r="2.89214" transform="rotate(-0.0637727 861.834 477.6)" fill="#39C76D"/>
<path d="M861.838 480.492C863.435 480.49 864.728 479.194 864.727 477.597C864.726 476.651 864.27 475.811 863.568 475.284L860.102 479.916C860.586 480.278 861.187 480.493 861.838 480.492Z" fill="black" fill-opacity="0.08"/>
<circle cx="802.091" cy="502.346" r="2.89214" transform="rotate(-0.0637727 802.091 502.346)" fill="#39C76D"/>
<path d="M802.095 505.239C803.692 505.237 804.985 503.941 804.984 502.344C804.982 501.398 804.527 500.558 803.824 500.031L800.359 504.663C800.842 505.025 801.444 505.24 802.095 505.239Z" fill="black" fill-opacity="0.08"/>
<circle cx="861.862" cy="502.28" r="2.89214" transform="rotate(-0.0637727 861.862 502.28)" fill="#39C76D"/>
<path d="M861.865 505.171C863.462 505.169 864.756 503.873 864.754 502.275C864.753 501.329 864.298 500.49 863.595 499.963L860.129 504.594C860.613 504.957 861.214 505.171 861.865 505.171Z" fill="black" fill-opacity="0.08"/>
<g clip-path="url(#clip1_813_6153)">
<path d="M571.619 521.253C571.017 518.59 569.717 512.838 563.539 514.234" stroke="#186635" stroke-width="5.66406" stroke-linecap="round"/>
<path d="M554.723 536.156C553.236 529.579 554.622 521.624 561.286 520.118C563.623 519.589 566.608 519.915 568.774 520.244C570.556 520.478 572.373 520.068 573.881 519.09C575.695 517.861 578.25 516.283 580.673 515.735C587.251 514.249 592.01 520.814 593.497 527.392C596.001 538.47 590.955 548.344 584.031 549.909C582.56 550.242 580.625 550.133 579.315 549.974C578.564 549.871 577.785 550.047 577.152 550.463C576.124 551.15 574.338 552.1 572.953 552.413C566.029 553.978 557.227 547.235 554.723 536.156Z" fill="#F20B0B"/>
<path d="M580.673 515.736C578.25 516.284 575.695 517.862 573.881 519.091C573.109 519.591 572.255 519.943 571.367 520.136L578.126 550.04C578.513 549.944 578.918 549.92 579.315 549.975C580.625 550.134 582.56 550.242 584.031 549.91C590.955 548.345 596.001 538.471 593.497 527.393C592.01 520.815 587.251 514.249 580.673 515.736Z" fill="black" fill-opacity="0.08"/>
<path d="M570.667 516.543C569.888 516.719 569.145 516.25 568.969 515.471L568.656 514.086C567.795 510.278 570.12 506.477 574.015 505.597L575.399 505.284C576.092 505.128 576.941 505.663 577.097 506.356L577.41 507.741C578.291 511.635 575.86 515.369 572.051 516.23L570.667 516.543Z" fill="#28A656"/>
<path d="M577.41 507.741L577.097 506.356C577.018 506.007 576.763 505.698 576.441 505.497L569.623 516.384C569.922 516.562 570.29 516.628 570.666 516.543L572.051 516.23C575.859 515.369 578.29 511.636 577.41 507.741Z" fill="black" fill-opacity="0.08"/>
<g clip-path="url(#clip2_813_6153)">
<path d="M537.257 536.509C536.092 534.04 533.577 528.706 527.848 531.408" stroke="#186635" stroke-width="5.66406" stroke-linecap="round"/>
<path d="M523.989 554.719C521.113 548.619 520.743 540.553 526.923 537.639C529.09 536.617 532.074 536.289 534.261 536.141C536.05 535.984 537.736 535.189 538.996 533.908C540.501 532.315 542.653 530.221 544.9 529.162C551 526.285 557.068 531.664 559.944 537.764C564.788 548.037 562.001 558.769 555.581 561.797C554.216 562.44 552.304 562.753 550.991 562.882C550.235 562.944 549.513 563.284 548.985 563.828C548.131 564.721 546.592 566.035 545.308 566.641C538.887 569.669 528.834 564.992 523.989 554.719Z" fill="#F20B0B"/>
<path d="M544.9 529.162C542.653 530.222 540.501 532.316 538.996 533.908C538.351 534.564 537.594 535.093 536.768 535.473L549.845 563.203C550.202 563.025 550.592 562.915 550.991 562.882C552.304 562.753 554.217 562.44 555.581 561.797C562.001 558.769 564.789 548.037 559.944 537.764C557.068 531.665 551 526.286 544.9 529.162Z" fill="black" fill-opacity="0.08"/>
<path d="M535.307 532.118C534.584 532.458 533.758 532.161 533.417 531.439L532.811 530.155C531.146 526.624 532.593 522.41 536.204 520.707L537.488 520.101C538.13 519.798 539.075 520.138 539.378 520.78L539.983 522.064C541.686 525.675 540.122 529.847 536.591 531.512L535.307 532.118Z" fill="#28A656"/>
<path d="M539.983 522.064L539.378 520.78C539.225 520.456 538.909 520.209 538.551 520.083L534.253 532.189C534.584 532.298 534.957 532.282 535.306 532.118L536.59 531.512C540.122 529.847 541.686 525.676 539.983 522.064Z" fill="black" fill-opacity="0.08"/>
</g>
<path d="M606.533 555.574C608.928 566.498 602.889 577.76 592.08 581.623L559.035 593.43C548.225 597.292 536.417 592.407 531.347 582.438L606.533 555.574ZM576.899 539.135C587.833 535.228 599.789 540.273 604.759 550.475L529.488 577.37C526.867 566.329 532.919 554.85 543.854 550.943L576.899 539.135Z" fill="#76E49E"/>
<path d="M576.899 539.136L569.091 541.926L584.272 584.412L592.08 581.623C603.812 577.431 609.925 564.521 605.732 552.789C601.54 541.057 588.631 534.944 576.899 539.136Z" fill="black" fill-opacity="0.08"/>
<rect x="597.99" y="552.894" width="7.32675" height="5.39866" transform="rotate(-19.6624 597.99 552.894)" fill="#28A656"/>
<rect x="536.257" y="574.951" width="65.5552" height="5.39866" transform="rotate(-19.6624 536.257 574.951)" fill="#228C49"/>
<rect x="529.357" y="577.416" width="7.32675" height="5.39866" transform="rotate(-19.6624 529.357 577.416)" fill="#28A656"/>
<path d="M546.96 597.744L604.335 577.244C606.588 576.439 608.355 574.882 609.457 572.956L540.281 597.674C542.353 598.465 544.707 598.549 546.96 597.744Z" fill="#39C76D"/>
<rect x="528.579" y="575.237" width="80.2087" height="2.31371" transform="rotate(-19.6624 528.579 575.237)" fill="#39C76D"/>
<circle cx="535.672" cy="564.718" r="2.89214" transform="rotate(-19.6624 535.672 564.718)" fill="#39C76D"/>
<path d="M536.645 567.441C538.149 566.904 538.932 565.249 538.395 563.745C538.077 562.854 537.366 562.216 536.527 561.955L534.816 567.481C535.393 567.66 536.031 567.661 536.645 567.441Z" fill="black" fill-opacity="0.08"/>
<circle cx="591.957" cy="544.607" r="2.89214" transform="rotate(-19.6624 591.957 544.607)" fill="#39C76D"/>
<path d="M592.931 547.33C594.435 546.793 595.218 545.138 594.681 543.634C594.363 542.743 593.652 542.104 592.813 541.844L591.102 547.37C591.679 547.549 592.318 547.549 592.931 547.33Z" fill="black" fill-opacity="0.08"/>
<circle cx="543.975" cy="587.958" r="2.89214" transform="rotate(-19.6624 543.975 587.958)" fill="#39C76D"/>
<path d="M544.949 590.682C546.453 590.144 547.237 588.489 546.699 586.985C546.381 586.094 545.67 585.456 544.831 585.195L543.12 590.721C543.697 590.9 544.336 590.901 544.949 590.682Z" fill="black" fill-opacity="0.08"/>
<circle cx="600.262" cy="567.847" r="2.89214" transform="rotate(-19.6624 600.262 567.847)" fill="#39C76D"/>
<path d="M601.234 570.57C602.739 570.033 603.522 568.378 602.985 566.874C602.666 565.983 601.956 565.345 601.117 565.084L599.406 570.61C599.983 570.789 600.621 570.789 601.234 570.57Z" fill="black" fill-opacity="0.08"/>
</g>
<path d="M519.672 614.086L641.489 571.858" stroke="#858585" stroke-width="18" stroke-linecap="round"/>
<rect x="998" y="551.119" width="98" height="11.4398" transform="rotate(-21.6273 998 551.119)" fill="#676767"/>
<g clip-path="url(#clip3_813_6153)">
<rect x="690" y="535" width="88" height="88" rx="44" fill="#858585"/>
<circle cx="734" cy="579" r="22" fill="#39C76D"/>
<g style="mix-blend-mode:overlay">
<path d="M778 623V535L690 623H778Z" fill="url(#paint0_linear_813_6153)"/>
<path d="M778 623V535L690 623H778Z" fill="#676767"/>
</g>
</g>
<g clip-path="url(#clip4_813_6153)">
<rect x="873" y="535" width="88" height="88" rx="44" fill="#858585"/>
<circle cx="917" cy="579" r="22" fill="#39C76D"/>
<g style="mix-blend-mode:overlay">
<path d="M961 623V535L873 623H961Z" fill="url(#paint1_linear_813_6153)"/>
<path d="M961 623V535L873 623H961Z" fill="#676767"/>
</g>
</g>
<path d="M1008 546H968.994C960.009 531.805 939.885 521.917 916.5 521.917C893.115 521.917 872.991 531.805 864.006 546H785.994C777.009 531.805 756.885 521.917 733.5 521.917C710.115 521.917 689.991 531.805 681.006 546H633V495H1008V546Z" fill="#858585"/>
<path d="M1008 587H973.515C973.834 584.545 974 582.042 974 579.5C974 547.744 948.256 522 916.5 522C884.744 522 859 547.744 859 579.5C859 582.042 859.166 584.545 859.485 587H790.515C790.834 584.545 791 582.042 791 579.5C791 547.744 765.256 522 733.5 522C701.744 522 676 547.744 676 579.5C676 582.042 676.166 584.545 676.485 587H633V515H1008V587Z" fill="#ADADAD"/>
<ellipse cx="14.3958" cy="9.85794" rx="14.3958" ry="9.85794" transform="matrix(0.915999 0.40118 -0.232277 0.97265 1367.63 355)" fill="#858585"/>
<path d="M1365.42 364.328L1391.79 375.879L1382.81 413.474L1356.44 401.967L1365.42 364.328Z" fill="#858585"/>
<path d="M1356.44 401.967L1384.1 401.967L1384.1 437.752L1356.44 437.751L1356.44 401.967Z" fill="#858585"/>
<path d="M1433.56 431.776C1433.7 431.777 1466.12 431.856 1466.12 468.091V507.377L1443.98 523.762C1429.62 508.207 1409.06 498.463 1386.23 498.463C1385.43 498.463 1384.64 498.476 1383.85 498.499C1383.15 498.475 1382.45 498.463 1381.75 498.463C1371.1 498.463 1361.02 501.269 1352.02 506.28C1330.94 516.493 1315.11 535.854 1309.69 559.207H1221.57C1226.78 549.586 1229.74 538.566 1229.74 526.854C1229.74 489.295 1199.3 458.848 1161.74 458.848C1152.62 458.848 1143.93 460.639 1135.99 463.891V431.776H1433.56Z" fill="#28A656"/>
<rect x="1453.81" y="463.119" width="12.545" height="27.7311" fill="#F4DE70"/>
<g style="mix-blend-mode:overlay">
<path d="M1278.01 432.593V558.093H1250.46C1240.66 555.28 1230.41 553.524 1219.84 552.957L1190 432.593H1278.01Z" fill="url(#paint2_linear_813_6153)"/>
<path d="M1278.01 432.593V558.093H1250.46C1240.66 555.28 1230.41 553.524 1219.84 552.957L1190 432.593H1278.01Z" fill="#676767"/>
</g>
<path d="M1196.28 443.165L1207.16 438.011L1249.65 480.497L1244.3 492.013L1256.82 496.482V556.566L1244.6 561.037L1250.35 573.172L1207.86 615.658L1196.19 610.241L1191.78 622.593H1131.7L1127.06 609.923L1114.95 615.657L1072.47 573.172L1078.03 561.191L1066 556.896V496.812L1078.7 492.164L1073.17 480.497L1115.65 438.011L1127.79 443.641L1132.03 431.776H1192.11L1196.28 443.165ZM1161.41 456.866C1122.57 456.866 1091.09 488.349 1091.09 527.185C1091.09 566.02 1122.57 597.503 1161.41 597.503C1200.24 597.503 1231.73 566.02 1231.73 527.185C1231.73 488.349 1200.24 456.866 1161.41 456.866Z" fill="#858585"/>
<path d="M1161.74 455.546C1201.12 455.546 1233.05 487.472 1233.05 526.854C1233.05 566.237 1201.12 598.163 1161.74 598.163C1122.36 598.163 1090.43 566.237 1090.43 526.854C1090.43 487.472 1122.36 455.546 1161.74 455.546ZM1161.74 476.675C1134.02 476.675 1111.56 499.141 1111.56 526.854C1111.56 554.568 1134.02 577.034 1161.74 577.034C1189.45 577.034 1211.92 554.568 1211.92 526.854C1211.92 499.141 1189.45 476.675 1161.74 476.675Z" fill="#39C76D"/>
<g style="mix-blend-mode:overlay">
<path d="M1229.09 460.168L1249.88 480.636L1243.94 492.521L1256.82 496.813V556.593L1244.5 561.093L1250.5 573.093L1208 615.593L1196 610.093L1192 622.593H1131.5L1127 610.093L1115 615.593L1092.5 593.593L1229.09 460.168Z" fill="url(#paint3_linear_813_6153)"/>
<path d="M1229.09 460.168L1249.88 480.636L1243.94 492.521L1256.82 496.813V556.593L1244.5 561.093L1250.5 573.093L1208 615.593L1196 610.093L1192 622.593H1131.5L1127 610.093L1115 615.593L1092.5 593.593L1229.09 460.168Z" fill="#676767"/>
</g>
<path d="M1246.59 340C1255.57 340 1263.99 346.455 1267.36 355.256L1295.11 431.776H1265.82L1242.35 362.887C1241.8 361.266 1240.28 360.177 1238.56 360.177H1169.5C1167.29 360.177 1165.5 361.968 1165.5 364.177V420.228C1165.5 421.256 1165.9 422.245 1166.61 422.989L1174.99 431.776H1135.99V363.47C1135.99 350.561 1145.53 340 1158.44 340H1246.59Z" fill="#39C76D"/>
<g clip-path="url(#clip5_813_6153)">
<rect x="1332.75" y="515.63" width="106.963" height="106.963" rx="53.4814" fill="#858585"/>
<circle cx="1386.23" cy="569.111" r="26.7407" fill="#39C76D"/>
<g style="mix-blend-mode:overlay">
<path d="M1439.71 622.593V515.63L1332.75 622.593H1439.71Z" fill="url(#paint4_linear_813_6153)"/>
<path d="M1439.71 622.593V515.63L1332.75 622.593H1439.71Z" fill="#676767"/>
</g>
</g>
<rect width="88.4754" height="26.4106" transform="matrix(-1 0 0 1 1421.22 446.963)" fill="#D6D6D6"/>
<rect opacity="0.8" x="-16" y="623" width="1646" height="275" fill="#28A656"/>
<g style="mix-blend-mode:color-burn">
<rect x="-16" y="626" width="1645" height="274" fill="url(#paint5_linear_813_6153)" fill-opacity="0.2"/>
</g>
<g style="mix-blend-mode:color-burn">
<rect x="-15" y="708" width="1645" height="274" fill="url(#paint6_linear_813_6153)" fill-opacity="0.5"/>
</g>
</g>
<defs>
<linearGradient id="paint0_linear_813_6153" x1="739.271" y1="515.135" x2="739.271" y2="650.566" gradientUnits="userSpaceOnUse">
<stop stop-color="#D9D9D9"/>
<stop offset="1" stop-color="#737373"/>
</linearGradient>
<linearGradient id="paint1_linear_813_6153" x1="922.271" y1="515.135" x2="922.271" y2="650.566" gradientUnits="userSpaceOnUse">
<stop stop-color="#D9D9D9"/>
<stop offset="1" stop-color="#737373"/>
</linearGradient>
<linearGradient id="paint2_linear_813_6153" x1="1239.27" y1="394.219" x2="1239.27" y2="655.837" gradientUnits="userSpaceOnUse">
<stop stop-color="#D9D9D9"/>
<stop offset="1" stop-color="#737373"/>
</linearGradient>
<linearGradient id="paint3_linear_813_6153" x1="1172.84" y1="388.702" x2="1172.84" y2="682.366" gradientUnits="userSpaceOnUse">
<stop stop-color="#D9D9D9"/>
<stop offset="1" stop-color="#737373"/>
</linearGradient>
<linearGradient id="paint4_linear_813_6153" x1="1392.63" y1="491.484" x2="1392.63" y2="656.099" gradientUnits="userSpaceOnUse">
<stop stop-color="#D9D9D9"/>
<stop offset="1" stop-color="#737373"/>
</linearGradient>
<linearGradient id="paint5_linear_813_6153" x1="938.688" y1="659.381" x2="938.688" y2="887.83" gradientUnits="userSpaceOnUse">
<stop stop-color="#D9D9D9"/>
<stop offset="1" stop-color="#737373"/>
</linearGradient>
<linearGradient id="paint6_linear_813_6153" x1="939.688" y1="741.381" x2="939.688" y2="969.83" gradientUnits="userSpaceOnUse">
<stop stop-color="#D9D9D9"/>
<stop offset="1" stop-color="#737373"/>
</linearGradient>
<clipPath id="clip0_813_6153">
<rect width="1600" height="900" rx="32" fill="white"/>
</clipPath>
<clipPath id="clip1_813_6153">
<rect width="119.156" height="119.156" fill="white" transform="translate(490 523.094) rotate(-19.6624)"/>
</clipPath>
<clipPath id="clip2_813_6153">
<rect width="55.9147" height="55.9147" fill="white" transform="translate(503.545 530.312) rotate(-25.247)"/>
</clipPath>
<clipPath id="clip3_813_6153">
<rect x="690" y="535" width="88" height="88" rx="44" fill="white"/>
</clipPath>
<clipPath id="clip4_813_6153">
<rect x="873" y="535" width="88" height="88" rx="44" fill="white"/>
</clipPath>
<clipPath id="clip5_813_6153">
<rect x="1332.75" y="515.63" width="106.963" height="106.963" rx="53.4814" fill="white"/>
</clipPath>
</defs>
</svg>
