<svg xmlns="http://www.w3.org/2000/svg" width="1674" height="975" fill="none"><g filter="url(#a)"><g clip-path="url(#b)"><rect width="1600" height="900" x="42" y="35" fill="#16B2D4" rx="32"/><path fill="#fff" fill-opacity=".8" d="M337 240.75c0-35.844 23.125-67.062 55.5-78.047V157.5c0-50.875 41.047-92.5 92.5-92.5 34.109 0 64.172 19.078 79.781 46.828C573.453 105.469 584.438 102 596 102c30.641 0 55.5 24.859 55.5 55.5 0 7.516-1.734 13.875-4.047 20.234C681.562 184.672 707 214.734 707 250c0 41.047-33.531 74-74 74H420.25C374 324 337 287 337 240.75m713 141.036c0-24.634 15.88-46.09 38.1-53.639v-3.576c0-34.964 28.18-63.571 63.5-63.571 23.42 0 44.05 13.112 54.77 32.183 5.95-4.371 13.49-6.754 21.43-6.754 21.03 0 38.1 17.084 38.1 38.142 0 5.166-1.19 9.536-2.78 13.907 23.42 4.768 40.88 25.428 40.88 49.665 0 28.21-23.02 50.857-50.8 50.857h-146.05c-31.75 0-57.15-25.429-57.15-57.214"/><path fill="#fff" fill-opacity=".8" d="M559 373.607c0-30.308 19.5-56.705 46.8-65.993v-4.4c0-43.018 34.612-78.214 78-78.214 28.762 0 54.112 16.132 67.275 39.596 7.312-5.377 16.575-8.31 26.325-8.31 25.837 0 46.8 21.02 46.8 46.928 0 6.355-1.463 11.732-3.413 17.11C849.55 326.19 871 351.609 871 381.429 871 416.136 842.725 444 808.6 444H629.2c-39 0-70.2-31.286-70.2-70.393"/><path fill="#28A656" d="M210 633.669V413.932c0-16.58 9.562-31.885 25.5-38.262l170.85-68.235c4.462-1.913 10.2-1.913 14.662 0l170.85 68.235C607.8 382.047 618 397.352 618 413.932v219.737c0 8.928-7.013-2.916-15.3-2.916h-30.6c-8.925 0-15.3 11.844-15.3 2.916V447.093c0-10.841-9.563-20.407-20.4-20.407H291.6c-11.475 0-20.4 9.566-20.4 20.407v186.576c0 8.928-7.013-2.916-15.3-2.916h-30.6c-8.925 0-15.3 11.844-15.3 2.916"/><path fill="#000" fill-opacity=".08" d="M618 414.061c0-16.571-10.169-31.867-26.059-38.241L470 327v99.808h66.645c10.805 0 20.339 9.56 20.339 20.394v186.469c0 8.922 6.356-2.914 15.254-2.914h30.508c8.263 0 15.254 11.836 15.254 2.914z"/><rect width="437" height="37" x="196" y="621" fill="#228C49" rx="10"/><path stroke="#228C49" stroke-linecap="round" stroke-width="15" d="m206 388 208.455-87L622 388"/><path fill="#76E49E" d="M259 399h308v40H259z"/><path fill="#39C76D" d="M259 410h308v18H259z"/><path fill="#F1D33D" d="M317.685 550.286h71.076v71.076h-71.076z"/><path fill="#C8A802" d="M345.022 550.286h16.402v20.047h-16.402z"/><path fill="#000" fill-opacity=".08" d="M357.779 550.286h30.982v71.076h-30.982z"/><path fill="#F1D33D" d="M448.902 550.286h71.076v71.076h-71.076z"/><path fill="#C8A802" d="M476.239 550.286h16.402v20.047h-16.402z"/><path fill="#000" fill-opacity=".08" d="M488.997 550.286h30.982v71.076h-30.982z"/><path fill="#F1D33D" d="M448.902 479.21h71.076v71.076h-71.076z"/><path fill="#C8A802" d="M476.239 479.21h16.402v20.047h-16.402z"/><path fill="#000" fill-opacity=".08" d="M488.997 479.21h30.982v71.076h-30.982z"/><path fill="#76E49E" d="M579.107 616.021a5.34 5.34 0 0 1-5.342 5.341H503.45a5.34 5.34 0 0 1-5.342-5.341v-14.518h80.999zm-5.342-40.22a5.34 5.34 0 0 1 5.342 5.342v14.908h-80.999v-14.908a5.34 5.34 0 0 1 5.342-5.342z"/><path fill="#000" fill-opacity=".08" d="M579.106 616.021v-34.878a5.34 5.34 0 0 0-5.342-5.342h-25.811v45.561h25.811a5.34 5.34 0 0 0 5.342-5.341"/><path fill="#28A656" d="M571.708 596.051h7.399v5.452h-7.399z"/><path fill="#228C49" d="M505.509 596.051h66.201v5.452h-66.201z"/><path fill="#28A656" d="M498.109 596.051h7.399v5.452h-7.399z"/><path fill="#39C76D" d="M507.943 621.362h61.527c2.416 0 4.626-.88 6.328-2.337h-74.183a9.7 9.7 0 0 0 6.328 2.337m-9.834-27.648h80.998v2.336h-80.998z"/><circle cx="508.427" cy="586.121" r="2.921" fill="#39C76D"/><path fill="#000" fill-opacity=".08" d="M508.426 589.041a2.92 2.92 0 0 0 1.753-5.257l-3.505 4.673a2.9 2.9 0 0 0 1.752.584"/><circle cx="568.786" cy="586.121" r="2.921" fill="#39C76D"/><path fill="#000" fill-opacity=".08" d="M568.786 589.041a2.92 2.92 0 0 0 1.752-5.257l-3.505 4.673a2.9 2.9 0 0 0 1.753.584"/><circle cx="508.427" cy="611.044" r="2.921" fill="#39C76D"/><path fill="#000" fill-opacity=".08" d="M508.426 613.964a2.92 2.92 0 0 0 1.753-5.257l-3.505 4.673a2.9 2.9 0 0 0 1.752.584"/><circle cx="568.786" cy="611.044" r="2.921" fill="#39C76D"/><path fill="#000" fill-opacity=".08" d="M568.786 613.964a2.92 2.92 0 0 0 1.752-5.257l-3.505 4.673a2.9 2.9 0 0 0 1.753.584"/><path fill="#76E49E" d="M579.107 570.459a5.34 5.34 0 0 1-5.342 5.342H503.45a5.34 5.34 0 0 1-5.342-5.342v-14.518h80.999zm-5.342-40.22a5.34 5.34 0 0 1 5.342 5.342v14.908h-80.999v-14.908a5.34 5.34 0 0 1 5.342-5.342z"/><path fill="#000" fill-opacity=".08" d="M579.106 570.459v-34.878a5.34 5.34 0 0 0-5.342-5.342h-25.811v45.562h25.811a5.34 5.34 0 0 0 5.342-5.342"/><path fill="#28A656" d="M571.708 550.489h7.399v5.452h-7.399z"/><path fill="#228C49" d="M505.509 550.489h66.201v5.452h-66.201z"/><path fill="#28A656" d="M498.109 550.489h7.399v5.452h-7.399z"/><path fill="#39C76D" d="M507.943 575.8h61.527a9.7 9.7 0 0 0 6.328-2.336h-74.183a9.7 9.7 0 0 0 6.328 2.336m-9.834-27.648h80.998v2.336h-80.998z"/><circle cx="508.427" cy="540.558" r="2.921" fill="#39C76D"/><path fill="#000" fill-opacity=".08" d="M508.426 543.479a2.921 2.921 0 0 0 1.753-5.257l-3.505 4.673a2.9 2.9 0 0 0 1.752.584"/><circle cx="568.786" cy="540.558" r="2.921" fill="#39C76D"/><path fill="#000" fill-opacity=".08" d="M568.786 543.479a2.92 2.92 0 0 0 1.752-5.257l-3.505 4.673a2.9 2.9 0 0 0 1.753.584"/><circle cx="508.427" cy="565.482" r="2.921" fill="#39C76D"/><path fill="#000" fill-opacity=".08" d="M508.426 568.403a2.921 2.921 0 0 0 1.753-5.257l-3.505 4.673a2.9 2.9 0 0 0 1.752.584"/><circle cx="568.786" cy="565.482" r="2.921" fill="#39C76D"/><path fill="#000" fill-opacity=".08" d="M568.786 568.403a2.92 2.92 0 0 0 1.752-5.257l-3.505 4.673a2.9 2.9 0 0 0 1.753.584"/><path stroke="#186635" stroke-linecap="round" stroke-width="5.664" d="M311.508 557.776c.327-2.711 1.031-8.566-5.258-9.323"/><path fill="#F20B0B" d="M290.591 566.148c.806-6.695 4.78-13.724 11.563-12.908 2.379.286 5.081 1.595 7.012 2.631a7.6 7.6 0 0 0 5.198.626c2.122-.549 5.057-1.179 7.524-.882 6.695.805 8.976 8.587 8.171 15.282-1.357 11.277-9.423 18.886-16.47 18.038-1.498-.18-3.284-.932-4.465-1.521a3.18 3.18 0 0 0-2.202-.265c-1.198.303-3.2.598-4.61.429-7.047-.848-13.077-10.154-11.721-21.43"/><path fill="#000" fill-opacity=".08" d="M321.888 555.614c-2.467-.296-5.403.333-7.524.882a7.6 7.6 0 0 1-2.719.142l-3.663 30.438c.397.04.786.154 1.142.338 1.18.589 2.967 1.34 4.464 1.521 7.048.848 15.114-6.762 16.47-18.038.806-6.695-1.475-14.477-8.17-15.283"/><path fill="#28A656" d="M312.19 553.018a1.4 1.4 0 0 1-1.239-1.579l.169-1.41c.467-3.876 3.932-6.677 7.896-6.199l1.41.169c.704.085 1.324.875 1.239 1.579l-.169 1.41c-.477 3.964-4.02 6.666-7.896 6.199z"/><path fill="#000" fill-opacity=".08" d="m321.496 546.987.169-1.409c.043-.356-.093-.733-.33-1.03l-10.075 7.97c.223.268.547.453.93.499l1.41.17c3.876.466 7.419-2.235 7.896-6.2"/><path stroke="#186635" stroke-linecap="round" stroke-width="5.664" d="M274.019 560.623c-.269-2.717-.85-8.586-7.153-7.962"/><path fill="#F20B0B" d="M255.412 573.327c-.663-6.71 1.694-14.433 8.493-15.106 2.384-.236 5.306.456 7.415 1.05a7.6 7.6 0 0 0 5.21-.515c1.952-.996 4.682-2.247 7.154-2.491 6.711-.664 10.624 6.439 11.287 13.15 1.118 11.302-5.108 20.478-12.172 21.177-1.501.148-3.407-.198-4.687-.518a3.18 3.18 0 0 0-2.208.219c-1.104.555-2.994 1.277-4.407 1.416-7.064.699-14.967-7.079-16.085-18.382"/><path fill="#000" fill-opacity=".08" d="M283.684 556.265c-2.472.245-5.202 1.495-7.154 2.491a7.6 7.6 0 0 1-2.623.727l3.017 30.509c.396-.047.801-.02 1.188.083 1.28.319 3.186.665 4.688.517 7.064-.699 13.289-9.874 12.171-21.177-.663-6.711-4.576-13.814-11.287-13.15"/><path fill="#28A656" d="M273.655 555.83a1.4 1.4 0 0 1-1.553-1.273l-.14-1.413c-.384-3.885 2.392-7.37 6.366-7.763l1.413-.139c.706-.07 1.482.566 1.552 1.273l.14 1.413c.393 3.973-2.48 7.378-6.366 7.762z"/><path fill="#000" fill-opacity=".08" d="m281.433 547.927-.14-1.412c-.035-.357-.25-.695-.545-.934l-8.11 9.963c.276.214.633.324 1.016.286l1.413-.14c3.886-.384 6.759-3.789 6.366-7.763"/><path fill="#76E49E" d="M332.886 601.82c-1.407 11.095-10.874 19.679-22.353 19.692l-35.091.039c-11.479.013-20.965-8.551-22.397-19.642zm-22.403-25.426c11.611-.013 21.183 8.75 22.442 20.028l-79.931.089c1.235-11.281 10.786-20.065 22.398-20.078z"/><path fill="#000" fill-opacity=".08" d="m310.483 576.394-8.291.009.051 45.118 8.29-.01c12.459-.013 22.548-10.125 22.534-22.583-.014-12.459-10.125-22.548-22.584-22.534"/><path fill="#28A656" d="m325.737 596.43 7.327-.008.006 5.399-7.327.008z"/><path fill="#228C49" d="m260.182 596.502 65.555-.073.006 5.399-65.555.073z"/><path fill="#28A656" d="m252.855 596.511 7.327-.008.006 5.399-7.327.008z"/><path fill="#39C76D" d="m262.62 621.565 60.928-.068a9.6 9.6 0 0 0 6.263-2.321l-73.459.082a9.6 9.6 0 0 0 6.268 2.307m-9.767-27.368 80.209-.09.003 2.315-80.21.089z"/><circle cx="263.064" cy="586.666" r="2.892" fill="#39C76D" transform="rotate(-.064 263.064 586.666)"/><path fill="#000" fill-opacity=".08" d="M263.067 589.558a2.892 2.892 0 0 0 1.73-5.207l-3.466 4.631a2.88 2.88 0 0 0 1.736.576"/><circle cx="322.834" cy="586.6" r="2.892" fill="#39C76D" transform="rotate(-.064 322.834 586.6)"/><path fill="#000" fill-opacity=".08" d="M322.838 589.492a2.893 2.893 0 0 0 1.73-5.208l-3.466 4.632a2.9 2.9 0 0 0 1.736.576"/><circle cx="263.091" cy="611.346" r="2.892" fill="#39C76D" transform="rotate(-.064 263.091 611.346)"/><path fill="#000" fill-opacity=".08" d="M263.095 614.238a2.893 2.893 0 0 0 1.729-5.208l-3.465 4.632a2.88 2.88 0 0 0 1.736.576"/><circle cx="322.862" cy="611.28" r="2.892" fill="#39C76D" transform="rotate(-.064 322.862 611.28)"/><path fill="#000" fill-opacity=".08" d="M322.865 614.172a2.892 2.892 0 0 0 1.73-5.208l-3.466 4.631a2.9 2.9 0 0 0 1.736.577"/><path fill="#28A656" d="M354.837 510.242c-2.857 0-5.079-2.222-5.079-5.079v-5.079c0-13.968 11.111-25.396 25.396-25.396h5.079c2.54 0 5.079 2.539 5.079 5.079v5.079c0 14.285-11.428 25.396-25.396 25.396z"/><path fill="#000" fill-opacity=".08" d="M385.313 484.846v-5.08c0-1.28-.646-2.561-1.612-3.516l-32.38 32.616c.905.858 2.136 1.376 3.516 1.376h5.079c13.968 0 25.397-11.111 25.397-25.396"/><path fill="#228C49" d="M345.801 537.148a7 7 0 1 0 14 0zm-1.008-34.914-5.723 4.031 4.177 5.932 5.724-4.031 5.723-4.03-4.178-5.932zm8.008 18.024h-7v16.89h14v-16.89zm-3.83-12.092-5.724 4.031a14 14 0 0 1 2.554 8.061h14a28 28 0 0 0-5.107-16.122z"/><path fill="#28A656" d="M323.767 481.414c-2.857 0-5.079 2.222-5.079 5.079v5.08c0 13.967 11.11 25.396 25.396 25.396h5.079c2.54 0 5.079-2.54 5.079-5.079v-5.08c0-14.285-11.428-25.396-25.396-25.396z"/><path fill="#000" fill-opacity=".08" d="M354.242 506.811v5.079c0 1.281-.646 2.561-1.611 3.516L320.25 482.79c.905-.857 2.137-1.376 3.517-1.376h5.079c13.968 0 25.396 11.111 25.396 25.397"/><path fill="#76E49E" d="M386.965 533.562c-1.247 9.835-9.639 17.444-19.815 17.455l-31.107.035c-10.176.011-18.585-7.579-19.855-17.412zm-70.942-2.412-.001-.073.001-.074zm51.082-20.128c10.293-.011 18.776 7.757 19.893 17.753l-70.854.079c1.094-9.999 9.561-17.786 19.854-17.797z"/><path fill="#000" fill-opacity=".08" d="m367.106 511.022-7.349.008.044 39.995 7.35-.008c11.044-.012 19.988-8.975 19.975-20.02s-8.975-19.987-20.02-19.975"/><path fill="#28A656" d="m380.628 528.783 6.494-.007.005 4.785-6.494.007z"/><path fill="#228C49" d="m322.517 528.848 58.113-.065.005 4.786-58.113.065z"/><path fill="#28A656" d="m316.022 528.854 6.494-.007.005 4.785-6.494.007z"/><path fill="#39C76D" d="m324.678 551.065 54.01-.06a8.52 8.52 0 0 0 5.553-2.057l-65.12.073a8.5 8.5 0 0 0 5.557 2.044m-8.659-24.261 71.103-.08.002 2.052-71.103.079z"/><circle cx="325.07" cy="520.127" r="2.564" fill="#39C76D" transform="rotate(-.064 325.07 520.127)"/><path fill="#000" fill-opacity=".08" d="M325.071 522.691a2.564 2.564 0 0 0 1.533-4.616l-3.072 4.105c.429.321.962.512 1.539.511"/><circle cx="378.052" cy="520.069" r="2.564" fill="#39C76D" transform="rotate(-.064 378.052 520.069)"/><path fill="#000" fill-opacity=".08" d="M378.055 522.632a2.563 2.563 0 0 0 1.533-4.616l-3.072 4.105c.429.322.962.512 1.539.511"/><circle cx="325.094" cy="542.006" r="2.564" fill="#39C76D" transform="rotate(-.064 325.094 542.006)"/><path fill="#000" fill-opacity=".08" d="M325.097 544.57a2.564 2.564 0 0 0 1.533-4.616l-3.072 4.105c.429.321.961.511 1.539.511"/><circle cx="378.08" cy="541.946" r="2.564" fill="#39C76D" transform="rotate(-.064 378.08 541.946)"/><path fill="#000" fill-opacity=".08" d="M378.083 544.51a2.563 2.563 0 0 0 1.533-4.616l-3.072 4.105c.429.322.962.512 1.539.511"/><path stroke="#186635" stroke-linecap="round" stroke-width="5.664" d="M992.508 483.776c.327-2.711 1.031-8.566-5.258-9.323"/><path fill="#F20B0B" d="M971.591 492.148c.806-6.695 4.78-13.724 11.563-12.908 2.379.286 5.081 1.595 7.012 2.631a7.6 7.6 0 0 0 5.198.626c2.122-.549 5.056-1.179 7.526-.882 6.69.805 8.97 8.587 8.17 15.282-1.36 11.277-9.42 18.886-16.471 18.038-1.498-.18-3.284-.932-4.465-1.521a3.18 3.18 0 0 0-2.202-.265c-1.198.303-3.2.598-4.61.429-7.047-.848-13.077-10.154-11.721-21.43"/><path fill="#000" fill-opacity=".08" d="M1002.89 481.614c-2.47-.296-5.405.333-7.526.882a7.6 7.6 0 0 1-2.719.142l-3.663 30.438c.397.04.786.154 1.142.338 1.18.589 2.967 1.34 4.464 1.521 7.052.848 15.112-6.762 16.472-18.038.8-6.695-1.48-14.477-8.17-15.283"/><path fill="#28A656" d="M993.19 479.018a1.4 1.4 0 0 1-1.239-1.579l.169-1.41c.467-3.876 3.932-6.677 7.9-6.199l1.41.169c.7.085 1.32.875 1.24 1.579l-.17 1.41a7.07 7.07 0 0 1-7.9 6.199z"/><path fill="#000" fill-opacity=".08" d="m1002.5 472.987.17-1.409c.04-.356-.1-.733-.33-1.03l-10.08 7.97c.223.268.547.453.93.499l1.41.17a7.07 7.07 0 0 0 7.9-6.2"/><path stroke="#186635" stroke-linecap="round" stroke-width="5.664" d="M955.019 486.623c-.269-2.717-.85-8.586-7.153-7.962"/><path fill="#F20B0B" d="M936.412 499.327c-.663-6.71 1.694-14.433 8.493-15.106 2.384-.236 5.306.456 7.415 1.05a7.6 7.6 0 0 0 5.21-.515c1.952-.996 4.682-2.247 7.154-2.491 6.711-.664 10.624 6.439 11.287 13.15 1.118 11.302-5.108 20.478-12.172 21.177-1.501.148-3.407-.198-4.687-.518a3.18 3.18 0 0 0-2.208.219c-1.104.555-2.994 1.277-4.407 1.416-7.064.699-14.967-7.079-16.085-18.382"/><path fill="#000" fill-opacity=".08" d="M964.684 482.265c-2.472.245-5.202 1.495-7.154 2.491a7.6 7.6 0 0 1-2.623.727l3.017 30.509c.396-.047.801-.02 1.188.083 1.28.319 3.186.665 4.688.517 7.064-.699 13.289-9.874 12.171-21.177-.663-6.711-4.576-13.814-11.287-13.15"/><path fill="#28A656" d="M954.655 481.83a1.4 1.4 0 0 1-1.553-1.273l-.14-1.413c-.384-3.885 2.392-7.37 6.366-7.763l1.413-.139c.706-.07 1.482.566 1.552 1.273l.14 1.413c.393 3.973-2.48 7.378-6.366 7.762z"/><path fill="#000" fill-opacity=".08" d="m962.433 473.927-.14-1.412c-.035-.357-.25-.695-.545-.934l-8.11 9.963c.276.214.633.324 1.016.286l1.413-.14c3.886-.384 6.759-3.789 6.366-7.763"/><path fill="#76E49E" d="M1013.89 527.82c-1.41 11.095-10.88 19.679-22.357 19.692l-35.091.039c-11.479.013-20.965-8.551-22.397-19.642zm-22.407-25.426c11.607-.013 21.187 8.75 22.447 20.028l-79.936.089c1.235-11.281 10.786-20.065 22.398-20.078z"/><path fill="#000" fill-opacity=".08" d="m991.483 502.394-8.291.009.051 45.118 8.29-.01c12.457-.013 22.547-10.125 22.537-22.583-.02-12.459-10.13-22.548-22.587-22.534"/><path fill="#28A656" d="m1006.74 522.43 7.327-.008.006 5.399-7.327.008z"/><path fill="#228C49" d="m941.182 522.502 65.555-.073.006 5.399-65.555.073z"/><path fill="#28A656" d="m933.855 522.511 7.327-.008.006 5.399-7.327.008z"/><path fill="#39C76D" d="m943.619 547.565 60.931-.068a9.6 9.6 0 0 0 6.26-2.321l-73.459.082a9.6 9.6 0 0 0 6.268 2.307m-9.766-27.368 80.209-.09.003 2.315-80.21.089z"/><circle cx="944.063" cy="512.666" r="2.892" fill="#39C76D" transform="rotate(-.064 944.063 512.666)"/><path fill="#000" fill-opacity=".08" d="M944.066 515.558a2.891 2.891 0 0 0 1.73-5.207l-3.466 4.631a2.88 2.88 0 0 0 1.736.576"/><circle cx="1003.83" cy="512.6" r="2.892" fill="#39C76D" transform="rotate(-.064 1003.83 512.6)"/><path fill="#000" fill-opacity=".08" d="M1003.84 515.492a2.9 2.9 0 0 0 2.89-2.895c0-.946-.46-1.786-1.16-2.313l-3.47 4.632a2.9 2.9 0 0 0 1.74.576"/><circle cx="944.091" cy="537.346" r="2.892" fill="#39C76D" transform="rotate(-.064 944.091 537.346)"/><path fill="#000" fill-opacity=".08" d="M944.094 540.238a2.892 2.892 0 0 0 1.73-5.208l-3.466 4.632a2.9 2.9 0 0 0 1.736.576"/><circle cx="1003.86" cy="537.28" r="2.892" fill="#39C76D" transform="rotate(-.064 1003.86 537.28)"/><path fill="#000" fill-opacity=".08" d="M1003.86 540.172a2.886 2.886 0 0 0 2.89-2.896c0-.946-.45-1.785-1.16-2.312l-3.46 4.631c.48.363 1.08.577 1.73.577"/><path stroke="#186635" stroke-linecap="round" stroke-width="5.664" d="M892.508 483.776c.327-2.711 1.031-8.566-5.258-9.323"/><path fill="#F20B0B" d="M871.591 492.148c.806-6.695 4.78-13.724 11.563-12.908 2.379.286 5.081 1.595 7.012 2.631a7.6 7.6 0 0 0 5.198.626c2.122-.549 5.057-1.179 7.524-.882 6.695.805 8.976 8.587 8.171 15.282-1.357 11.277-9.423 18.886-16.47 18.038-1.498-.18-3.284-.932-4.465-1.521a3.18 3.18 0 0 0-2.202-.265c-1.198.303-3.2.598-4.61.429-7.047-.848-13.077-10.154-11.721-21.43"/><path fill="#000" fill-opacity=".08" d="M902.888 481.614c-2.467-.296-5.403.333-7.524.882a7.6 7.6 0 0 1-2.719.142l-3.663 30.438c.397.04.786.154 1.142.338 1.18.589 2.967 1.34 4.464 1.521 7.048.848 15.114-6.762 16.47-18.038.806-6.695-1.475-14.477-8.17-15.283"/><path fill="#28A656" d="M893.19 479.018a1.4 1.4 0 0 1-1.239-1.579l.169-1.41c.467-3.876 3.932-6.677 7.896-6.199l1.41.169c.704.085 1.324.875 1.239 1.579l-.169 1.41c-.477 3.964-4.02 6.666-7.896 6.199z"/><path fill="#000" fill-opacity=".08" d="m902.496 472.987.169-1.409c.043-.356-.093-.733-.33-1.03l-10.075 7.97c.223.268.547.453.93.499l1.41.17c3.876.466 7.419-2.235 7.896-6.2"/><path stroke="#186635" stroke-linecap="round" stroke-width="5.664" d="M855.019 486.623c-.269-2.717-.85-8.586-7.153-7.962"/><path fill="#F20B0B" d="M836.412 499.327c-.663-6.71 1.694-14.433 8.493-15.106 2.384-.236 5.306.456 7.415 1.05a7.6 7.6 0 0 0 5.21-.515c1.952-.996 4.682-2.247 7.154-2.491 6.711-.664 10.624 6.439 11.287 13.15 1.118 11.302-5.108 20.478-12.172 21.177-1.501.148-3.407-.198-4.687-.518a3.18 3.18 0 0 0-2.208.219c-1.104.555-2.994 1.277-4.407 1.416-7.064.699-14.967-7.079-16.085-18.382"/><path fill="#000" fill-opacity=".08" d="M864.684 482.265c-2.472.245-5.202 1.495-7.154 2.491a7.6 7.6 0 0 1-2.623.727l3.017 30.509c.396-.047.801-.02 1.188.083 1.28.319 3.186.665 4.688.517 7.064-.699 13.289-9.874 12.171-21.177-.663-6.711-4.576-13.814-11.287-13.15"/><path fill="#28A656" d="M854.655 481.83a1.4 1.4 0 0 1-1.553-1.273l-.14-1.413c-.384-3.885 2.392-7.37 6.366-7.763l1.413-.139c.706-.07 1.482.566 1.552 1.273l.14 1.413c.393 3.973-2.48 7.378-6.366 7.762z"/><path fill="#000" fill-opacity=".08" d="m862.433 473.927-.14-1.412c-.035-.357-.25-.695-.545-.934l-8.11 9.963c.276.214.633.324 1.016.286l1.413-.14c3.886-.384 6.759-3.789 6.366-7.763"/><path fill="#76E49E" d="M913.886 527.82c-1.407 11.095-10.874 19.679-22.353 19.692l-35.091.039c-11.479.013-20.965-8.551-22.397-19.642zm-22.403-25.426c11.611-.013 21.183 8.75 22.442 20.028l-79.931.089c1.235-11.281 10.786-20.065 22.398-20.078z"/><path fill="#000" fill-opacity=".08" d="m891.483 502.394-8.291.009.051 45.118 8.29-.01c12.459-.013 22.548-10.125 22.534-22.583-.014-12.459-10.125-22.548-22.584-22.534"/><path fill="#28A656" d="m906.738 522.43 7.327-.008.006 5.399-7.327.008z"/><path fill="#228C49" d="m841.183 522.502 65.555-.073.006 5.399-65.555.073z"/><path fill="#28A656" d="m833.855 522.511 7.327-.008.006 5.399-7.327.008z"/><path fill="#39C76D" d="m843.62 547.565 60.928-.068a9.6 9.6 0 0 0 6.263-2.321l-73.459.082a9.6 9.6 0 0 0 6.268 2.307m-9.767-27.368 80.209-.09.003 2.315-80.21.089z"/><circle cx="844.064" cy="512.666" r="2.892" fill="#39C76D" transform="rotate(-.064 844.064 512.666)"/><path fill="#000" fill-opacity=".08" d="M844.067 515.558a2.892 2.892 0 0 0 1.73-5.207l-3.466 4.631a2.88 2.88 0 0 0 1.736.576"/><circle cx="903.834" cy="512.6" r="2.892" fill="#39C76D" transform="rotate(-.064 903.834 512.6)"/><path fill="#000" fill-opacity=".08" d="M903.838 515.492a2.893 2.893 0 0 0 1.73-5.208l-3.466 4.632a2.9 2.9 0 0 0 1.736.576"/><circle cx="844.091" cy="537.346" r="2.892" fill="#39C76D" transform="rotate(-.064 844.091 537.346)"/><path fill="#000" fill-opacity=".08" d="M844.095 540.239a2.893 2.893 0 0 0 1.729-5.208l-3.465 4.632a2.88 2.88 0 0 0 1.736.576"/><circle cx="903.862" cy="537.28" r="2.892" fill="#39C76D" transform="rotate(-.064 903.862 537.28)"/><path fill="#000" fill-opacity=".08" d="M903.865 540.171a2.892 2.892 0 0 0 1.73-5.208l-3.466 4.631a2.9 2.9 0 0 0 1.736.577"/><g clip-path="url(#c)"><path stroke="#186635" stroke-linecap="round" stroke-width="5.664" d="M613.619 556.253c-.602-2.663-1.902-8.415-8.08-7.019"/><path fill="#F20B0B" d="M596.723 571.156c-1.487-6.577-.101-14.532 6.563-16.038 2.337-.529 5.322-.203 7.488.126a7.6 7.6 0 0 0 5.107-1.154c1.814-1.229 4.369-2.807 6.792-3.355 6.578-1.486 11.337 5.079 12.824 11.657 2.504 11.078-2.542 20.952-9.466 22.517-1.471.333-3.406.224-4.716.065a3.18 3.18 0 0 0-2.163.489c-1.028.687-2.814 1.637-4.199 1.95-6.924 1.565-15.726-5.178-18.23-16.257"/><path fill="#000" fill-opacity=".08" d="M622.673 550.736c-2.423.548-4.978 2.126-6.792 3.355-.772.5-1.626.852-2.514 1.045l6.759 29.904c.387-.096.792-.12 1.189-.065 1.31.159 3.245.267 4.716-.065 6.924-1.565 11.97-11.439 9.466-22.517-1.487-6.578-6.246-13.144-12.824-11.657"/><path fill="#28A656" d="M612.667 551.543a1.4 1.4 0 0 1-1.698-1.072l-.313-1.385c-.861-3.808 1.464-7.609 5.359-8.489l1.384-.313c.693-.156 1.542.379 1.698 1.072l.313 1.385c.881 3.894-1.55 7.628-5.359 8.489z"/><path fill="#000" fill-opacity=".08" d="m619.41 542.741-.313-1.385c-.079-.349-.334-.658-.656-.859l-6.818 10.887c.299.178.667.244 1.043.159l1.385-.313c3.808-.861 6.239-4.594 5.359-8.489"/><g clip-path="url(#d)"><path stroke="#186635" stroke-linecap="round" stroke-width="5.664" d="M579.257 571.509c-1.165-2.469-3.68-7.803-9.409-5.101"/><path fill="#F20B0B" d="M565.989 589.719c-2.876-6.1-3.246-14.166 2.934-17.08 2.167-1.022 5.151-1.35 7.338-1.498a7.6 7.6 0 0 0 4.735-2.233c1.505-1.593 3.657-3.687 5.904-4.746 6.1-2.877 12.168 2.502 15.044 8.602 4.844 10.273 2.057 21.005-4.363 24.033-1.365.643-3.277.956-4.59 1.085a3.18 3.18 0 0 0-2.006.946c-.854.893-2.393 2.207-3.677 2.813-6.421 3.028-16.474-1.649-21.319-11.922"/><path fill="#000" fill-opacity=".08" d="M586.9 564.162c-2.247 1.06-4.399 3.154-5.904 4.746a7.6 7.6 0 0 1-2.228 1.565l13.077 27.73a3.2 3.2 0 0 1 1.146-.321c1.313-.129 3.226-.442 4.59-1.085 6.42-3.028 9.208-13.76 4.363-24.033-2.876-6.099-8.944-11.478-15.044-8.602"/><path fill="#28A656" d="M577.307 567.118a1.403 1.403 0 0 1-1.89-.679l-.606-1.284c-1.665-3.531-.218-7.745 3.393-9.448l1.284-.606c.642-.303 1.587.037 1.89.679l.605 1.284a7.063 7.063 0 0 1-3.392 9.448z"/><path fill="#000" fill-opacity=".08" d="m581.983 557.064-.605-1.284c-.153-.324-.469-.571-.827-.697l-4.298 12.106a1.42 1.42 0 0 0 1.053-.071l1.284-.606c3.532-1.665 5.096-5.836 3.393-9.448"/></g><path fill="#76E49E" d="M648.533 590.574c2.395 10.924-3.644 22.186-14.453 26.049l-33.045 11.807c-10.81 3.862-22.618-1.023-27.688-10.992zm-29.634-16.439c10.934-3.907 22.89 1.138 27.86 11.34l-75.271 26.895c-2.621-11.041 3.431-22.52 14.366-26.427z"/><path fill="#000" fill-opacity=".08" d="m618.899 574.136-7.808 2.79 15.181 42.486 7.808-2.789c11.732-4.192 17.845-17.102 13.652-28.834s-17.101-17.845-28.833-13.653"/><path fill="#28A656" d="m639.99 587.894 6.9-2.465 1.816 5.084-6.9 2.465z"/><path fill="#228C49" d="m578.257 609.951 61.733-22.058 1.816 5.084-61.732 22.058z"/><path fill="#28A656" d="m571.357 612.416 6.9-2.465 1.816 5.084-6.9 2.465z"/><path fill="#39C76D" d="m588.96 632.744 57.375-20.5a9.6 9.6 0 0 0 5.122-4.288l-69.176 24.718a9.6 9.6 0 0 0 6.679.07m-18.381-22.507 75.532-26.989.779 2.18-75.532 26.988z"/><circle cx="577.672" cy="599.718" r="2.892" fill="#39C76D" transform="rotate(-19.662 577.672 599.718)"/><path fill="#000" fill-opacity=".08" d="M578.645 602.441a2.892 2.892 0 0 0-.118-5.486l-1.711 5.526c.577.179 1.215.18 1.829-.04"/><circle cx="633.957" cy="579.607" r="2.892" fill="#39C76D" transform="rotate(-19.662 633.957 579.607)"/><path fill="#000" fill-opacity=".08" d="M634.931 582.33a2.892 2.892 0 0 0-.118-5.486l-1.711 5.526a2.9 2.9 0 0 0 1.829-.04"/><circle cx="585.975" cy="622.958" r="2.892" fill="#39C76D" transform="rotate(-19.662 585.975 622.958)"/><path fill="#000" fill-opacity=".08" d="M586.949 625.682a2.892 2.892 0 0 0-.118-5.487l-1.711 5.526c.577.179 1.216.18 1.829-.039"/><circle cx="642.262" cy="602.847" r="2.892" fill="#39C76D" transform="rotate(-19.662 642.262 602.847)"/><path fill="#000" fill-opacity=".08" d="M643.234 605.57a2.891 2.891 0 0 0-.117-5.486l-1.711 5.526a2.88 2.88 0 0 0 1.828-.04"/></g><path stroke="#858585" stroke-linecap="round" stroke-width="18" d="m561.672 649.086 121.817-42.228"/><path fill="#676767" d="m1040 586.119 91.1-36.12 4.217 10.635-91.1 36.12z"/><g clip-path="url(#e)"><rect width="88" height="88" x="732" y="570" fill="#858585" rx="44"/><circle cx="776" cy="614" r="22" fill="#39C76D"/><g style="mix-blend-mode:overlay"><path fill="url(#f)" d="M820 658v-88l-88 88z"/><path fill="#676767" d="M820 658v-88l-88 88z"/></g></g><g clip-path="url(#g)"><rect width="88" height="88" x="915" y="570" fill="#858585" rx="44"/><circle cx="959" cy="614" r="22" fill="#39C76D"/><g style="mix-blend-mode:overlay"><path fill="url(#h)" d="M1003 658v-88l-88 88z"/><path fill="#676767" d="M1003 658v-88l-88 88z"/></g></g><path fill="#858585" d="M1050 581h-39.01c-8.98-14.195-29.105-24.083-52.49-24.083s-43.509 9.888-52.494 24.083h-78.012c-8.985-14.195-29.109-24.083-52.494-24.083s-43.509 9.888-52.494 24.083H675v-51h375z"/><path fill="#ADADAD" d="M1050 622h-34.49c.32-2.455.49-4.958.49-7.5 0-31.756-25.744-57.5-57.5-57.5S901 582.744 901 614.5c0 2.542.166 5.045.485 7.5h-68.97a58 58 0 0 0 .485-7.5c0-31.756-25.744-57.5-57.5-57.5S718 582.744 718 614.5c0 2.542.166 5.045.485 7.5H675v-72h375z"/><ellipse cx="14.396" cy="9.858" fill="#858585" rx="14.396" ry="9.858" transform="matrix(.916 .40118 -.23228 .97265 1409.63 390)"/><path fill="#858585" d="m1407.42 399.328 26.37 11.551-8.98 37.595-26.37-11.507z"/><path fill="#858585" d="M1398.44 436.967h27.66v35.785l-27.66-.001z"/><path fill="#28A656" d="M1475.56 466.776c.14.001 32.56.08 32.56 36.315v39.286l-22.14 16.385c-14.36-15.555-34.92-25.299-57.75-25.299-.8 0-1.59.013-2.38.036q-1.05-.036-2.1-.036c-10.65 0-20.73 2.806-29.73 7.817-21.08 10.213-36.91 29.574-42.33 52.927h-88.12c5.21-9.621 8.17-20.641 8.17-32.353 0-37.559-30.44-68.006-68-68.006-9.12 0-17.81 1.791-25.75 5.043v-32.115z"/><path fill="#F4DE70" d="M1495.81 498.119h12.545v27.731h-12.545z"/><g style="mix-blend-mode:overlay"><path fill="url(#i)" d="M1320.01 467.593v125.5h-27.55a137.6 137.6 0 0 0-30.62-5.136L1232 467.593z"/><path fill="#676767" d="M1320.01 467.593v125.5h-27.55a137.6 137.6 0 0 0-30.62-5.136L1232 467.593z"/></g><path fill="#858585" d="m1238.28 478.165 10.88-5.154 42.49 42.486-5.35 11.516 12.52 4.469v60.084l-12.22 4.471 5.75 12.135-42.49 42.486-11.67-5.417-4.41 12.352h-60.08l-4.64-12.67-12.11 5.734-42.48-42.485 5.56-11.981-12.03-4.295v-60.084l12.7-4.648-5.53-11.667 42.48-42.486 12.14 5.63 4.24-11.865h60.08zm-34.87 13.701c-38.84 0-70.32 31.483-70.32 70.319s31.48 70.318 70.32 70.318c38.83 0 70.32-31.483 70.32-70.318 0-38.836-31.49-70.319-70.32-70.319"/><path fill="#39C76D" d="M1203.74 490.546c39.38 0 71.31 31.926 71.31 71.308s-31.93 71.309-71.31 71.309-71.31-31.926-71.31-71.309 31.93-71.308 71.31-71.308m0 21.129c-27.72 0-50.18 22.466-50.18 50.179s22.46 50.18 50.18 50.18c27.71 0 50.18-22.466 50.18-50.18s-22.47-50.179-50.18-50.179"/><g style="mix-blend-mode:overlay"><path fill="url(#j)" d="m1271.09 495.168 20.79 20.468-5.94 11.885 12.88 4.292v59.78l-12.32 4.5 6 12-42.5 42.5-12-5.5-4 12.5h-60.5l-4.5-12.5-12 5.5-22.5-22z"/><path fill="#676767" d="m1271.09 495.168 20.79 20.468-5.94 11.885 12.88 4.292v59.78l-12.32 4.5 6 12-42.5 42.5-12-5.5-4 12.5h-60.5l-4.5-12.5-12 5.5-22.5-22z"/></g><path fill="#39C76D" d="M1288.59 375c8.98 0 17.4 6.455 20.77 15.256l27.75 76.52h-29.29l-23.47-68.889a3.99 3.99 0 0 0-3.79-2.71h-69.06a4 4 0 0 0-4 4v56.051c0 1.028.4 2.017 1.11 2.761l8.38 8.787h-39V398.47c0-12.909 9.54-23.47 22.45-23.47z"/><g clip-path="url(#k)"><rect width="106.963" height="106.963" x="1374.75" y="550.63" fill="#858585" rx="53.481"/><circle cx="1428.23" cy="604.111" r="26.741" fill="#39C76D"/><g style="mix-blend-mode:overlay"><path fill="url(#l)" d="M1481.71 657.593V550.63l-106.96 106.963z"/><path fill="#676767" d="M1481.71 657.593V550.63l-106.96 106.963z"/></g></g><path fill="#D6D6D6" d="M1463.22 481.963h-88.475v26.411h88.475z"/><path fill="#28A656" d="M26 658h1646v275H26z" opacity=".8"/><path fill="url(#m)" fill-opacity=".2" d="M26 661h1645v274H26z" style="mix-blend-mode:color-burn"/><path fill="url(#n)" fill-opacity=".5" d="M27 743h1645v274H27z" style="mix-blend-mode:color-burn"/></g></g><defs><linearGradient id="f" x1="781.271" x2="781.271" y1="550.135" y2="685.566" gradientUnits="userSpaceOnUse"><stop stop-color="#D9D9D9"/><stop offset="1" stop-color="#737373"/></linearGradient><linearGradient id="h" x1="964.271" x2="964.271" y1="550.135" y2="685.566" gradientUnits="userSpaceOnUse"><stop stop-color="#D9D9D9"/><stop offset="1" stop-color="#737373"/></linearGradient><linearGradient id="i" x1="1281.27" x2="1281.27" y1="429.219" y2="690.837" gradientUnits="userSpaceOnUse"><stop stop-color="#D9D9D9"/><stop offset="1" stop-color="#737373"/></linearGradient><linearGradient id="j" x1="1214.84" x2="1214.84" y1="423.702" y2="717.366" gradientUnits="userSpaceOnUse"><stop stop-color="#D9D9D9"/><stop offset="1" stop-color="#737373"/></linearGradient><linearGradient id="l" x1="1434.63" x2="1434.63" y1="526.484" y2="691.099" gradientUnits="userSpaceOnUse"><stop stop-color="#D9D9D9"/><stop offset="1" stop-color="#737373"/></linearGradient><linearGradient id="m" x1="980.688" x2="980.688" y1="694.381" y2="922.83" gradientUnits="userSpaceOnUse"><stop stop-color="#D9D9D9"/><stop offset="1" stop-color="#737373"/></linearGradient><linearGradient id="n" x1="981.688" x2="981.688" y1="776.381" y2="1004.83" gradientUnits="userSpaceOnUse"><stop stop-color="#D9D9D9"/><stop offset="1" stop-color="#737373"/></linearGradient><clipPath id="b"><rect width="1600" height="900" x="42" y="35" fill="#fff" rx="32"/></clipPath><clipPath id="c"><path fill="#fff" d="m532 558.094 112.208-40.093 40.093 112.208-112.208 40.093z"/></clipPath><clipPath id="d"><path fill="#fff" d="m545.545 565.312 50.574-23.849 23.849 50.574-50.574 23.849z"/></clipPath><clipPath id="e"><rect width="88" height="88" x="732" y="570" fill="#fff" rx="44"/></clipPath><clipPath id="g"><rect width="88" height="88" x="915" y="570" fill="#fff" rx="44"/></clipPath><clipPath id="k"><rect width="106.963" height="106.963" x="1374.75" y="550.63" fill="#fff" rx="53.481"/></clipPath><filter id="a" width="1673.44" height="973.44" x=".333" y=".753" color-interpolation-filters="sRGB" filterUnits="userSpaceOnUse"><feFlood flood-opacity="0" result="BackgroundImageFix"/><feColorMatrix in="SourceAlpha" result="hardAlpha" values="0 0 0 0 0 0 0 0 0 0 0 0 0 0 0 0 0 0 127 0"/><feOffset dx="-4.947" dy="2.473"/><feGaussianBlur stdDeviation="18.36"/><feComposite in2="hardAlpha" operator="out"/><feColorMatrix values="0 0 0 0 0 0 0 0 0 0 0 0 0 0 0 0 0 0 0.1 0"/><feBlend in2="BackgroundImageFix" result="effect1_dropShadow_813_6153"/><feBlend in="SourceGraphic" in2="effect1_dropShadow_813_6153" result="shape"/></filter></defs></svg>