<svg xmlns="http://www.w3.org/2000/svg" width="163" height="42" fill="none"><path fill="#28A656" d="M12.533 13.734c0-1.245.267-2.178.845-2.8.578-.578 1.422-.89 2.444-.89a4.7 4.7 0 0 1 1.6.267c.49.178.978.356 1.378.578l2.178-6.222q-1.135-.735-2.8-1.067a17 17 0 0 0-3.334-.355c-3.466.044-6.133.977-8.044 2.888C4.933 8 4 10.533 4 13.69v.889H0V21.2h4.044v19.422H12.8V21.2h6.311v-6.622h-6.578zM32.044 14.8a8.4 8.4 0 0 0-2.577 2.267v-3.378H21.11v26.933h8.756V28.133c0-2.444.622-4.177 1.822-5.333 1.244-1.111 2.889-1.689 4.889-1.689.31 0 .666 0 .933.044.311.045.667.045 1.067.09v-7.956c-2.534 0-4.711.489-6.534 1.511m27.913-1.111v13.156c0 1.51-.267 2.8-.756 3.777s-1.156 1.734-2 2.223a5.95 5.95 0 0 1-2.8.71c-1.511 0-2.711-.488-3.6-1.422-.844-.977-1.289-2.533-1.289-4.666V13.689H40.8V28.8c0 2.8.489 5.111 1.422 6.933.978 1.823 2.356 3.156 4.09 4.045 1.733.844 3.688 1.244 5.91 1.244 2.045 0 3.956-.489 5.69-1.422.932-.489 1.733-1.155 2.444-1.955v2.977h8.355V13.69zm29.2 19.6c-.845.578-1.823.889-2.978.889-.934 0-1.69-.267-2.222-.845-.534-.578-.8-1.422-.8-2.444V21.2h6.31v-6.622h-6.31V7.733h-8.8v6.89h-4v6.621H74.4v9.823c0 3.333.933 5.866 2.755 7.51 1.867 1.645 4.445 2.49 7.823 2.49 1.244 0 2.4-.134 3.555-.4q1.667-.334 2.934-1.2zm8.577-22.844c1.645 0 2.934-.445 3.911-1.378.978-.934 1.511-2.09 1.511-3.556 0-1.333-.488-2.444-1.511-3.289-1.022-.844-2.31-1.289-3.91-1.289-1.645 0-2.934.445-3.912 1.378-.978.89-1.511 2-1.511 3.333 0 1.378.489 2.49 1.511 3.423.978.933 2.267 1.377 3.911 1.377m4.356 3.245h-8.756v26.933h8.756zM123.2 33.111c-.978.578-2.044.845-3.2.845a6.6 6.6 0 0 1-3.2-.8c-.978-.534-1.733-1.29-2.311-2.311q-.8-1.534-.8-3.734c0-1.422.267-2.622.8-3.644.578-1.022 1.333-1.822 2.311-2.356a6.6 6.6 0 0 1 3.2-.8c1.156 0 2.222.311 3.2.89.978.577 1.822 1.466 2.489 2.755l6.755-3.556c-.933-2.311-2.488-4.044-4.666-5.289-2.178-1.244-4.711-1.91-7.734-1.91-2.933 0-5.555.577-7.866 1.777a13.43 13.43 0 0 0-5.422 4.889c-1.289 2.089-1.956 4.489-1.956 7.155 0 2.711.667 5.111 1.956 7.2 1.333 2.09 3.155 3.734 5.422 4.934q3.466 1.733 7.866 1.733c2.978 0 5.556-.622 7.734-1.822 2.178-1.245 3.733-3.023 4.666-5.29l-6.755-3.6c-.667 1.423-1.511 2.356-2.489 2.934"/><path fill="#28A656" fill-rule="evenodd" d="M155.067 15.067c2.266 1.155 4.044 2.8 5.333 4.889 1.333 2.088 1.955 4.488 1.955 7.155 0 2.711-.666 5.111-1.955 7.2q-1.934 3.133-5.333 4.933c-2.267 1.156-4.845 1.734-7.778 1.734-2.934 0-5.511-.578-7.778-1.734q-3.4-1.8-5.333-4.933c-1.289-2.089-1.956-4.489-1.956-7.2 0-2.667.667-5.067 1.956-7.155 1.289-2.09 3.066-3.734 5.333-4.89 2.267-1.2 4.844-1.777 7.778-1.777s5.511.578 7.778 1.778m-5.461 3.932a2.6 2.6 0 0 0-.463-.167c.371-.554.95-1.57.693-2.21q.682.156.905.382c-.131.517-.579 1.277-1.135 1.995m-4.985 14.868c5.728 1.73 8.881-2.052 8.881-5.182s-1.745-9.686-4.888-9.686-8.481 6.555-8.481 9.686c0 2.443 1.544 4.724 4.488 5.182" clip-rule="evenodd"/></svg>