<svg width="1600" height="900" viewBox="0 0 1600 900" fill="none" xmlns="http://www.w3.org/2000/svg">
<g clip-path="url(#clip0_813_5875)">
<rect width="1600" height="900" rx="32" fill="#16B2D4"/>
<path d="M958 214.821C958 189.772 974.188 167.955 996.85 160.279C996.85 159.067 996.85 157.855 996.85 156.643C996.85 121.089 1025.58 92 1061.6 92C1085.48 92 1106.52 105.333 1117.45 124.725C1123.52 120.281 1131.21 117.857 1139.3 117.857C1160.75 117.857 1178.15 135.23 1178.15 156.643C1178.15 161.895 1176.94 166.339 1175.32 170.783C1199.19 175.632 1217 196.641 1217 221.286C1217 249.971 1193.53 273 1165.2 273H1016.28C983.9 273 958 247.143 958 214.821Z" fill="white" fill-opacity="0.8"/>
<path d="M465 300.786C465 276.152 449.125 254.696 426.9 247.147C426.9 245.955 426.9 244.763 426.9 243.571C426.9 208.607 398.722 180 363.4 180C339.984 180 319.347 193.112 308.631 212.183C302.678 207.812 295.137 205.429 287.2 205.429C266.166 205.429 249.1 222.513 249.1 243.571C249.1 248.737 250.291 253.107 251.878 257.478C228.462 262.246 211 282.906 211 307.143C211 335.353 234.019 358 261.8 358H407.85C439.6 358 465 332.571 465 300.786Z" fill="white" fill-opacity="0.8"/>
<path d="M1113 308.5C1113 287.188 1126.69 268.625 1145.85 262.094C1145.85 261.062 1145.85 260.031 1145.85 259C1145.85 228.75 1170.15 204 1200.6 204C1220.79 204 1238.58 215.344 1247.82 231.844C1252.95 228.062 1259.46 226 1266.3 226C1284.44 226 1299.15 240.781 1299.15 259C1299.15 263.469 1298.12 267.25 1296.75 271.031C1316.94 275.156 1332 293.031 1332 314C1332 338.406 1312.15 358 1288.2 358H1162.28C1134.9 358 1113 336 1113 308.5Z" fill="white" fill-opacity="0.8"/>
<rect x="488.922" y="152.711" width="218.156" height="244.727" rx="25" fill="#858585"/>
<path d="M707.078 372.438V177.711C707.078 163.904 695.885 152.711 682.078 152.711H614.082V397.438H682.078C695.885 397.438 707.078 386.245 707.078 372.438Z" fill="black" fill-opacity="0.08"/>
<rect x="511.297" y="176.484" width="173.406" height="198.578" fill="#EBEBEB"/>
<rect x="607.789" y="176.484" width="76.9141" height="198.578" fill="black" fill-opacity="0.08"/>
<path d="M597.301 106.562C616.857 106.562 633.433 118.295 639.186 134.531H647.117C660.924 134.531 672.117 145.724 672.117 159.531V187.461C672.117 192.984 667.64 197.461 662.117 197.461H533.883C528.36 197.461 523.883 192.984 523.883 187.461V159.531C523.883 145.724 535.076 134.531 548.883 134.531H555.416C561.168 118.295 577.745 106.562 597.301 106.562ZM598 138.727C590.277 138.727 584.016 144.988 584.016 152.711C584.016 160.434 590.277 166.695 598 166.695C605.723 166.695 611.984 160.434 611.984 152.711C611.984 144.988 605.723 138.727 598 138.727Z" fill="#D6D6D6"/>
<path d="M672.117 183.477V169.492H523.883V183.477C523.883 191.2 530.144 197.461 537.867 197.461H658.133C665.856 197.461 672.117 191.2 672.117 183.477Z" fill="#ADADAD"/>
<path d="M672.117 183.477V169.492H523.883V183.477H672.117Z" fill="#858585"/>
<path d="M672.117 169.492C672.117 150.872 657.56 135.652 639.206 134.591C636.214 126.1 630.263 118.837 622.473 113.833V197.461H658.133C665.856 197.461 672.117 191.2 672.117 183.476V169.492Z" fill="black" fill-opacity="0.08"/>
<rect x="523.883" y="205.852" width="18.1797" height="9.78906" fill="black"/>
<rect x="586.812" y="205.852" width="41.9531" height="9.78906" fill="black"/>
<rect x="554.648" y="205.852" width="23.7734" height="9.78906" fill="black"/>
<rect x="523.883" y="224.031" width="18.1797" height="9.78906" fill="black"/>
<rect x="554.648" y="224.031" width="74.1172" height="9.78906" fill="black"/>
<rect x="523.883" y="242.211" width="18.1797" height="9.78906" fill="black"/>
<rect x="554.648" y="242.211" width="37.7578" height="9.78906" fill="black"/>
<rect x="600.797" y="242.211" width="27.9688" height="9.78906" fill="black"/>
<rect x="523.883" y="260.391" width="18.1797" height="9.78906" fill="black"/>
<rect x="554.648" y="260.391" width="13.9844" height="9.78906" fill="black"/>
<rect x="582.617" y="260.391" width="46.1484" height="9.78906" fill="black"/>
<rect x="523.883" y="278.57" width="18.1797" height="9.78906" fill="black"/>
<rect x="554.648" y="278.57" width="27.9688" height="9.78906" fill="black"/>
<rect x="592.406" y="278.57" width="27.9688" height="9.78906" fill="black"/>
<path d="M181 598.669V378.932C181 362.352 190.562 347.047 206.5 340.67L377.35 272.435C381.812 270.522 387.55 270.522 392.012 272.435L562.862 340.67C578.8 347.047 589 362.352 589 378.932V598.669C589 607.597 581.987 595.753 573.7 595.753H543.1C534.175 595.753 527.8 607.597 527.8 598.669V412.093C527.8 401.252 518.237 391.686 507.4 391.686H262.6C251.125 391.686 242.2 401.252 242.2 412.093V598.669C242.2 607.597 235.187 595.753 226.9 595.753H196.3C187.375 595.753 181 607.597 181 598.669Z" fill="#28A656"/>
<path d="M589 379.061C589 362.49 578.831 347.194 562.941 340.82L441 292V391.808H507.645C518.45 391.808 527.984 401.368 527.984 412.202V598.671C527.984 607.593 534.34 595.757 543.238 595.757H573.746C582.009 595.757 589 607.593 589 598.671V379.061Z" fill="black" fill-opacity="0.08"/>
<rect x="167" y="586" width="437" height="37" rx="10" fill="#228C49"/>
<path d="M177 363L385.455 276L593 363" stroke="#228C49" stroke-width="10" stroke-linecap="round"/>
<rect x="230" y="364" width="308" height="40" fill="#76E49E"/>
<rect x="230" y="375" width="308" height="18" fill="#39C76D"/>
<rect x="288.685" y="515.286" width="71.0761" height="71.0761" fill="#F1D33D"/>
<rect x="316.022" y="515.286" width="16.4022" height="20.0471" fill="#C8A802"/>
<rect x="328.779" y="515.286" width="30.9819" height="71.0761" fill="black" fill-opacity="0.08"/>
<rect x="288.685" y="444.21" width="71.0761" height="71.0761" fill="#F1D33D"/>
<rect x="316.022" y="444.21" width="16.4022" height="20.0471" fill="#C8A802"/>
<rect x="328.779" y="444.21" width="30.9819" height="71.0761" fill="black" fill-opacity="0.08"/>
<rect x="419.902" y="515.286" width="71.0761" height="71.0761" fill="#F1D33D"/>
<rect x="447.239" y="515.286" width="16.4022" height="20.0471" fill="#C8A802"/>
<rect x="459.996" y="515.286" width="30.9819" height="71.0761" fill="black" fill-opacity="0.08"/>
<rect x="419.902" y="444.21" width="71.0761" height="71.0761" fill="#F1D33D"/>
<rect x="447.239" y="444.21" width="16.4022" height="20.0471" fill="#C8A802"/>
<rect x="459.996" y="444.21" width="30.9819" height="71.0761" fill="black" fill-opacity="0.08"/>
<rect x="217.609" y="515.286" width="71.0761" height="71.0761" fill="#F1D33D"/>
<rect x="244.946" y="515.286" width="16.4022" height="20.0471" fill="#C8A802"/>
<rect x="257.703" y="515.286" width="30.9819" height="71.0761" fill="black" fill-opacity="0.08"/>
<path d="M550.107 581.021C550.107 583.971 547.715 586.362 544.765 586.362H474.449C471.499 586.362 469.108 583.971 469.108 581.021V566.503H550.107V581.021ZM544.765 540.801C547.715 540.801 550.107 543.192 550.107 546.143V561.051H469.108V546.143C469.108 543.192 471.499 540.801 474.449 540.801H544.765Z" fill="#76E49E"/>
<path d="M550.106 581.021V546.143C550.106 543.192 547.714 540.801 544.764 540.801H518.952V586.362H544.764C547.714 586.362 550.106 583.971 550.106 581.021Z" fill="black" fill-opacity="0.08"/>
<rect x="542.708" y="561.051" width="7.39889" height="5.45181" fill="#28A656"/>
<rect x="476.509" y="561.051" width="66.2006" height="5.45181" fill="#228C49"/>
<rect x="469.109" y="561.051" width="7.39889" height="5.45181" fill="#28A656"/>
<path d="M478.942 586.362H540.47C542.886 586.362 545.096 585.482 546.797 584.025H472.615C474.316 585.482 476.527 586.362 478.942 586.362Z" fill="#39C76D"/>
<rect x="469.109" y="558.714" width="80.9984" height="2.33649" fill="#39C76D"/>
<circle cx="479.426" cy="551.121" r="2.92061" fill="#39C76D"/>
<path d="M479.426 554.041C481.039 554.041 482.347 552.734 482.347 551.121C482.347 550.165 481.888 549.317 481.179 548.784L477.674 553.457C478.162 553.824 478.768 554.041 479.426 554.041Z" fill="black" fill-opacity="0.08"/>
<circle cx="539.786" cy="551.121" r="2.92061" fill="#39C76D"/>
<path d="M539.786 554.041C541.399 554.041 542.706 552.734 542.706 551.121C542.706 550.165 542.247 549.317 541.538 548.784L538.033 553.457C538.521 553.824 539.128 554.041 539.786 554.041Z" fill="black" fill-opacity="0.08"/>
<circle cx="479.426" cy="576.044" r="2.92061" fill="#39C76D"/>
<path d="M479.426 578.964C481.039 578.964 482.347 577.657 482.347 576.044C482.347 575.088 481.888 574.24 481.179 573.707L477.674 578.38C478.162 578.747 478.768 578.964 479.426 578.964Z" fill="black" fill-opacity="0.08"/>
<circle cx="539.786" cy="576.044" r="2.92061" fill="#39C76D"/>
<path d="M539.786 578.964C541.399 578.964 542.706 577.657 542.706 576.044C542.706 575.088 542.247 574.24 541.538 573.707L538.033 578.38C538.521 578.747 539.128 578.964 539.786 578.964Z" fill="black" fill-opacity="0.08"/>
<path d="M550.107 535.459C550.107 538.409 547.715 540.801 544.765 540.801H474.449C471.499 540.801 469.108 538.409 469.108 535.459V520.941H550.107V535.459ZM544.765 495.239C547.715 495.239 550.107 497.631 550.107 500.581V515.489H469.108V500.581C469.108 497.631 471.499 495.239 474.449 495.239H544.765Z" fill="#76E49E"/>
<path d="M550.106 535.459V500.581C550.106 497.631 547.714 495.239 544.764 495.239H518.952V540.801H544.764C547.714 540.801 550.106 538.409 550.106 535.459Z" fill="black" fill-opacity="0.08"/>
<rect x="542.708" y="515.489" width="7.39889" height="5.45181" fill="#28A656"/>
<rect x="476.509" y="515.489" width="66.2006" height="5.45181" fill="#228C49"/>
<rect x="469.109" y="515.489" width="7.39889" height="5.45181" fill="#28A656"/>
<path d="M478.942 540.8H540.47C542.886 540.8 545.096 539.921 546.797 538.464H472.615C474.316 539.921 476.527 540.8 478.942 540.8Z" fill="#39C76D"/>
<rect x="469.109" y="513.152" width="80.9984" height="2.33649" fill="#39C76D"/>
<circle cx="479.426" cy="505.558" r="2.92061" fill="#39C76D"/>
<path d="M479.426 508.479C481.039 508.479 482.347 507.171 482.347 505.558C482.347 504.603 481.888 503.755 481.179 503.222L477.674 507.895C478.162 508.262 478.768 508.479 479.426 508.479Z" fill="black" fill-opacity="0.08"/>
<circle cx="539.786" cy="505.558" r="2.92061" fill="#39C76D"/>
<path d="M539.786 508.479C541.399 508.479 542.706 507.171 542.706 505.558C542.706 504.603 542.247 503.755 541.538 503.222L538.033 507.895C538.521 508.262 539.128 508.479 539.786 508.479Z" fill="black" fill-opacity="0.08"/>
<circle cx="479.426" cy="530.482" r="2.92061" fill="#39C76D"/>
<path d="M479.426 533.403C481.039 533.403 482.347 532.095 482.347 530.482C482.347 529.527 481.888 528.678 481.179 528.146L477.674 532.819C478.162 533.185 478.768 533.403 479.426 533.403Z" fill="black" fill-opacity="0.08"/>
<circle cx="539.786" cy="530.482" r="2.92061" fill="#39C76D"/>
<path d="M539.786 533.403C541.399 533.403 542.706 532.095 542.706 530.482C542.706 529.527 542.247 528.678 541.538 528.146L538.033 532.819C538.521 533.185 539.128 533.403 539.786 533.403Z" fill="black" fill-opacity="0.08"/>
<path d="M821.331 417.215C827.847 417.215 833.957 421.679 836.4 427.767L870.204 516.644C871.019 518.673 871.426 520.296 871.426 522.325V555.114C862.81 545.24 850.134 539 836 539C814.584 539 796.515 553.324 790.848 572.913C784.863 553.838 767.049 540 746 540C725.868 540 708.695 552.658 702 570.449V514.614C702 496.758 716.255 482.147 734.582 482.147H741.099V433.448C741.099 424.52 748.022 417.215 757.389 417.215H821.331ZM766.509 431.171C764.3 431.171 762.509 432.962 762.509 435.171V472.156C762.509 473.217 762.931 474.235 763.682 474.985L805.556 516.836C806.306 517.586 807.323 518.006 808.384 518.006H842.941C845.708 518.006 847.639 515.265 846.708 512.66L818.536 433.825C817.967 432.234 816.46 431.171 814.77 431.171H766.509Z" fill="#28A656"/>
<rect x="879.631" y="600.189" width="220.19" height="18.6182" rx="8" transform="rotate(-90 879.631 600.189)" fill="#D6D6D6"/>
<path d="M893.352 535.063C897.77 535.064 901.352 538.645 901.352 543.063V592H990.527C992.736 592 994.527 593.791 994.527 596C994.527 598.209 992.736 600 990.527 600H895.083C894.525 600.123 893.946 600.189 893.352 600.189H884.527C883.933 600.189 883.354 600.123 882.796 600H880.527C878.318 600 876.527 598.209 876.527 596C876.527 595.443 876.641 594.912 876.847 594.43C876.64 593.719 876.527 592.967 876.527 592.189V543.063C876.527 538.645 880.109 535.063 884.527 535.063H893.352Z" fill="#858585"/>
<g clip-path="url(#clip1_813_5875)">
<rect x="800" y="551" width="72" height="72" rx="36" fill="#858585"/>
<circle cx="836" cy="587" r="18" fill="#39C76D"/>
<g style="mix-blend-mode:overlay">
<path d="M872 623V551L800 623H872Z" fill="url(#paint0_linear_813_5875)"/>
<path d="M872 623V551L800 623H872Z" fill="#676767"/>
</g>
</g>
<g clip-path="url(#clip2_813_5875)">
<rect x="710" y="551" width="72" height="72" rx="36" fill="#858585"/>
<circle cx="746" cy="587" r="18" fill="#39C76D"/>
<g style="mix-blend-mode:overlay">
<path d="M782 623V551L710 623H782Z" fill="url(#paint1_linear_813_5875)"/>
<path d="M782 623V551L710 623H782Z" fill="#676767"/>
</g>
</g>
<path d="M821.331 417.215C827.847 417.215 833.957 421.679 836.4 427.767L870.204 516.644C871.019 518.673 871.426 520.296 871.426 522.325V534.288H797.418L741.099 482.147V433.448C741.099 424.52 748.022 417.215 757.39 417.215H821.331ZM766.509 431.171C764.3 431.171 762.509 432.962 762.509 435.171V472.156C762.509 473.217 762.931 474.235 763.682 474.985L805.556 516.836C806.306 517.586 807.323 518.006 808.384 518.006H842.941C845.708 518.006 847.639 515.265 846.708 512.66L818.536 433.825C817.967 432.234 816.46 431.171 814.77 431.171H766.509Z" fill="#186635"/>
<rect x="909" y="480" width="104" height="104" fill="#F1D33D"/>
<rect x="949" y="480" width="24" height="29.3333" fill="#C8A802"/>
<g style="mix-blend-mode:overlay">
<rect x="963" y="480" width="50" height="104" fill="url(#paint2_linear_813_5875)"/>
<rect x="963" y="480" width="50" height="104" fill="#676767"/>
</g>
<path d="M1112.2 439.2C1118.15 439.2 1123.4 444.45 1123.4 450.4V495.2H1302.6V450.4C1302.6 444.45 1307.5 439.2 1313.8 439.2C1319.75 439.2 1325 444.45 1325 450.4V506.4V596V607.2C1325 613.5 1319.75 618.4 1313.8 618.4C1307.5 618.4 1302.6 613.5 1302.6 607.2H1123.4C1123.4 613.5 1118.15 618.4 1112.2 618.4C1105.9 618.4 1101 613.5 1101 607.2V596V506.4V450.4C1101 444.45 1105.9 439.2 1112.2 439.2ZM1123.4 584.8H1302.6V517.6H1123.4V584.8Z" fill="#186635"/>
<rect x="1178.5" y="536" width="49" height="49" fill="#F1D33D"/>
<rect x="1197.35" y="536" width="11.3077" height="13.8205" fill="#C8A802"/>
<rect x="1203.94" y="536" width="23.5577" height="49" fill="black" fill-opacity="0.08"/>
<rect x="1121" y="536" width="49" height="49" fill="#F1D33D"/>
<rect x="1139.85" y="536" width="11.3077" height="13.8205" fill="#C8A802"/>
<rect x="1146.44" y="536" width="23.5577" height="49" fill="black" fill-opacity="0.08"/>
<rect x="1216" y="446" width="49" height="49" fill="#F1D33D"/>
<rect x="1234.85" y="446" width="11.3077" height="13.8205" fill="#C8A802"/>
<rect x="1241.44" y="446" width="23.5577" height="49" fill="black" fill-opacity="0.08"/>
<rect opacity="0.8" x="-23" y="623" width="1646" height="275" fill="#28A656"/>
<g style="mix-blend-mode:color-burn">
<rect x="-23" y="626" width="1645" height="274" fill="url(#paint3_linear_813_5875)" fill-opacity="0.2"/>
</g>
<g style="mix-blend-mode:color-burn">
<rect x="-22" y="708" width="1645" height="274" fill="url(#paint4_linear_813_5875)" fill-opacity="0.5"/>
</g>
<g style="mix-blend-mode:color-burn">
<rect x="-22" y="803" width="1645" height="274" fill="url(#paint5_linear_813_5875)" fill-opacity="0.5"/>
</g>
</g>
<defs>
<linearGradient id="paint0_linear_813_5875" x1="840.313" y1="534.747" x2="840.313" y2="645.554" gradientUnits="userSpaceOnUse">
<stop stop-color="#D9D9D9"/>
<stop offset="1" stop-color="#737373"/>
</linearGradient>
<linearGradient id="paint1_linear_813_5875" x1="750.313" y1="534.747" x2="750.313" y2="645.554" gradientUnits="userSpaceOnUse">
<stop stop-color="#D9D9D9"/>
<stop offset="1" stop-color="#737373"/>
</linearGradient>
<linearGradient id="paint2_linear_813_5875" x1="990.995" y1="456.523" x2="990.995" y2="616.578" gradientUnits="userSpaceOnUse">
<stop stop-color="#D9D9D9"/>
<stop offset="1" stop-color="#737373"/>
</linearGradient>
<linearGradient id="paint3_linear_813_5875" x1="931.688" y1="659.381" x2="931.688" y2="887.83" gradientUnits="userSpaceOnUse">
<stop stop-color="#D9D9D9"/>
<stop offset="1" stop-color="#737373"/>
</linearGradient>
<linearGradient id="paint4_linear_813_5875" x1="932.688" y1="741.381" x2="932.688" y2="969.83" gradientUnits="userSpaceOnUse">
<stop stop-color="#D9D9D9"/>
<stop offset="1" stop-color="#737373"/>
</linearGradient>
<linearGradient id="paint5_linear_813_5875" x1="932.688" y1="836.381" x2="932.688" y2="1064.83" gradientUnits="userSpaceOnUse">
<stop stop-color="#D9D9D9"/>
<stop offset="1" stop-color="#737373"/>
</linearGradient>
<clipPath id="clip0_813_5875">
<rect width="1600" height="900" rx="32" fill="white"/>
</clipPath>
<clipPath id="clip1_813_5875">
<rect x="800" y="551" width="72" height="72" rx="36" fill="white"/>
</clipPath>
<clipPath id="clip2_813_5875">
<rect x="710" y="551" width="72" height="72" rx="36" fill="white"/>
</clipPath>
</defs>
</svg>
