<svg width="1600" height="900" viewBox="0 0 1600 900" fill="none" xmlns="http://www.w3.org/2000/svg">
<g clip-path="url(#clip0_785_2319)">
<rect width="1600" height="900" rx="32" fill="#16B2D4"/>
<path opacity="0.84" d="M401 276.75C401 240.906 424.125 209.688 456.5 198.703C456.5 196.969 456.5 195.234 456.5 193.5C456.5 142.625 497.547 101 549 101C583.109 101 613.172 120.078 628.781 147.828C637.453 141.469 648.438 138 660 138C690.641 138 715.5 162.859 715.5 193.5C715.5 201.016 713.766 207.375 711.453 213.734C745.562 220.672 771 250.734 771 286C771 327.047 737.469 360 697 360H484.25C438 360 401 323 401 276.75Z" fill="white"/>
<path opacity="0.84" d="M843 298.929C843 272.634 860 249.732 883.8 241.674C883.8 240.402 883.8 239.129 883.8 237.857C883.8 200.536 913.975 170 951.8 170C976.875 170 998.975 183.996 1010.45 204.353C1016.83 199.688 1024.9 197.143 1033.4 197.143C1055.93 197.143 1074.2 215.379 1074.2 237.857C1074.2 243.371 1072.93 248.036 1071.23 252.701C1096.3 257.79 1115 279.844 1115 305.714C1115 335.826 1090.35 360 1060.6 360H904.2C870.2 360 843 332.857 843 298.929Z" fill="white"/>
<path d="M864.331 419.215C870.847 419.215 876.957 423.679 879.4 429.767L913.204 518.644C914.019 520.673 914.426 522.296 914.426 524.325V557.114C905.81 547.24 893.134 541 879 541C857.584 541 839.515 555.324 833.848 574.913C827.863 555.838 810.049 542 789 542C768.868 542 751.695 554.658 745 572.449V516.614C745 498.758 759.255 484.147 777.582 484.147H784.099V435.448C784.099 426.52 791.022 419.215 800.389 419.215H864.331ZM809.509 433.171C807.3 433.171 805.509 434.962 805.509 437.171V474.156C805.509 475.217 805.931 476.235 806.682 476.985L848.556 518.836C849.306 519.586 850.323 520.006 851.384 520.006H885.941C888.708 520.006 890.639 517.265 889.708 514.66L861.536 435.825C860.967 434.234 859.46 433.171 857.77 433.171H809.509Z" fill="#28A656"/>
<rect x="922.631" y="602.19" width="220.19" height="18.6182" rx="8" transform="rotate(-90 922.631 602.19)" fill="#D6D6D6"/>
<path d="M936.352 537.063C940.77 537.064 944.352 540.645 944.352 545.063V594H1033.53C1035.74 594 1037.53 595.791 1037.53 598C1037.53 600.209 1035.74 602 1033.53 602H938.083C937.525 602.123 936.946 602.189 936.352 602.189H927.527C926.933 602.189 926.354 602.123 925.796 602H923.527C921.318 602 919.527 600.209 919.527 598C919.527 597.443 919.641 596.912 919.847 596.43C919.64 595.719 919.527 594.967 919.527 594.189V545.063C919.527 540.645 923.109 537.063 927.527 537.063H936.352Z" fill="#858585"/>
<g clip-path="url(#clip1_785_2319)">
<rect x="843" y="553" width="72" height="72" rx="36" fill="#858585"/>
<circle cx="879" cy="589" r="18" fill="#39C76D"/>
<g style="mix-blend-mode:overlay">
<path d="M915 625V553L843 625H915Z" fill="url(#paint0_linear_785_2319)"/>
<path d="M915 625V553L843 625H915Z" fill="#676767"/>
</g>
</g>
<g clip-path="url(#clip2_785_2319)">
<rect x="753" y="553" width="72" height="72" rx="36" fill="#858585"/>
<circle cx="789" cy="589" r="18" fill="#39C76D"/>
<g style="mix-blend-mode:overlay">
<path d="M825 625V553L753 625H825Z" fill="url(#paint1_linear_785_2319)"/>
<path d="M825 625V553L753 625H825Z" fill="#676767"/>
</g>
</g>
<path d="M864.331 419.215C870.847 419.215 876.957 423.679 879.4 429.767L913.204 518.644C914.019 520.673 914.426 522.296 914.426 524.325V536.288H840.418L784.099 484.147V435.448C784.099 426.52 791.022 419.215 800.39 419.215H864.331ZM809.509 433.171C807.3 433.171 805.509 434.962 805.509 437.171V474.156C805.509 475.217 805.931 476.235 806.682 476.985L848.556 518.836C849.306 519.586 850.323 520.006 851.384 520.006H885.941C888.708 520.006 890.639 517.265 889.708 514.66L861.536 435.825C860.967 434.234 859.46 433.171 857.77 433.171H809.509Z" fill="#186635"/>
<rect x="952" y="482" width="104" height="104" fill="#F1D33D"/>
<rect x="992" y="482" width="24" height="29.3333" fill="#C8A802"/>
<g style="mix-blend-mode:overlay">
<rect x="1006" y="482" width="50" height="104" fill="url(#paint2_linear_785_2319)"/>
<rect x="1006" y="482" width="50" height="104" fill="#676767"/>
</g>
<path d="M306 345C306 331.193 317.193 320 331 320H653C666.807 320 678 331.193 678 345V513H306V345Z" fill="#ADADAD"/>
<path d="M307 526.883C317.235 533.636 325.28 543.44 329.838 555H414.162C422.937 532.747 444.629 517 470 517C494.598 517 515.739 531.802 525.001 552.984C534.263 531.802 555.402 517 580 517C605.371 517 627.063 532.747 635.838 555H678V349H307V526.883Z" fill="#ADADAD"/>
<path d="M278.268 396.249C268.569 396.249 258.87 400.243 252.024 407.09L208.096 451.024C201.25 457.871 197.256 467.571 197.256 477.271V542.316C187.557 542.317 179 550.875 179 560.574C179 570.844 187.557 578.833 197.256 578.833H214.028C214.01 578.224 214 577.613 214 577C214 543.863 240.863 517 274 517C286.102 517 297.367 520.584 306.793 526.747V396.249H278.268Z" fill="#39C76D"/>
<path d="M207.519 451.037C200.962 457.348 197.256 466.056 197.256 475.157V497.431H223.377C224.626 495.587 225.986 493.826 227.45 492.157C237.192 480.065 252.119 472.325 268.856 472.325C275.809 472.325 288.537 472.325 288.537 472.325V422.115H237.572L207.519 451.037Z" fill="#89E1F5"/>
<rect width="12.1707" height="19.7799" transform="matrix(-1 0 0 1 209.427 522.536)" fill="#F4DE70"/>
<g clip-path="url(#clip3_785_2319)">
<rect width="96" height="96" rx="48" transform="matrix(0 1 1 0 422 529)" fill="#858585"/>
<circle cx="24" cy="24" r="24" transform="matrix(0 1 1 0 446 553)" fill="#39C76D"/>
<g style="mix-blend-mode:overlay">
<path d="M518 625H422L518 529V625Z" fill="url(#paint3_linear_785_2319)"/>
<path d="M518 625H422L518 529V625Z" fill="#676767"/>
</g>
</g>
<g clip-path="url(#clip4_785_2319)">
<rect width="96" height="96" rx="48" transform="matrix(0 1 1 0 532 529)" fill="#858585"/>
<circle cx="24" cy="24" r="24" transform="matrix(0 1 1 0 556 553)" fill="#39C76D"/>
<g style="mix-blend-mode:overlay">
<path d="M628 625H532L628 529V625Z" fill="url(#paint4_linear_785_2319)"/>
<path d="M628 625H532L628 529V625Z" fill="#676767"/>
</g>
</g>
<g clip-path="url(#clip5_785_2319)">
<rect width="96" height="96" rx="48" transform="matrix(0 1 1 0 230 529)" fill="#858585"/>
<circle cx="24" cy="24" r="24" transform="matrix(0 1 1 0 254 553)" fill="#39C76D"/>
<g style="mix-blend-mode:overlay">
<path d="M326 625H230L326 529V625Z" fill="url(#paint5_linear_785_2319)"/>
<path d="M326 625H230L326 529V625Z" fill="#676767"/>
</g>
</g>
<rect width="200" height="64" transform="matrix(-1 0 0 1 629 378)" fill="#D6D6D6"/>
<g style="mix-blend-mode:overlay">
<path d="M593 518.412C612.427 522.704 628.317 536.411 635.64 554.504L678 556V320H593V518.412Z" fill="url(#paint6_linear_785_2319)"/>
<path d="M593 518.412C612.427 522.704 628.317 536.411 635.64 554.504L678 556V320H593V518.412Z" fill="#676767"/>
</g>
<path d="M635.633 554.488C638.448 561.44 640 569.039 640 577C640 577.613 639.99 578.224 639.972 578.833H666C672.627 578.833 678 573.46 678 566.833V554.488H635.633ZM329.633 554.488C332.448 561.44 334 569.039 334 577C334 577.613 333.99 578.224 333.972 578.833H410.028C410.01 578.224 410 577.613 410 577C410 569.039 411.552 561.44 414.367 554.488H329.633Z" fill="#D6D6D6"/>
<g style="mix-blend-mode:overlay">
<path d="M259.677 437.953C252.302 444.491 248 453.754 248 463.017V522.91C255.866 519.122 264.685 517 274 517C286.191 517 297.533 520.636 307 526.883V396L259.677 437.953Z" fill="url(#paint7_linear_785_2319)"/>
<path d="M259.677 437.953C252.302 444.491 248 453.754 248 463.017V522.91C255.866 519.122 264.685 517 274 517C286.191 517 297.533 520.636 307 526.883V396L259.677 437.953Z" fill="#676767"/>
</g>
<path d="M1391.4 413.465C1400.44 413.465 1409.49 417.195 1415.88 423.588L1456.86 464.612C1463.24 471.006 1466.97 480.063 1466.97 489.12V549.858C1476.02 549.859 1484 557.85 1484 566.907C1484 576.497 1476.02 583.957 1466.97 583.957H1444.92C1444.97 582.978 1445 581.992 1445 581C1445 550.072 1419.93 525 1389 525C1380.33 525 1372.11 526.972 1364.78 530.492V413.465H1391.4Z" fill="#39C76D"/>
<path d="M1115 407C1115 393.193 1126.19 382 1140 382H1340C1353.81 382 1365 393.193 1365 407V481H1115V407Z" fill="#ADADAD"/>
<path d="M1457.4 464.625C1463.51 470.517 1466.97 478.649 1466.97 487.147V507.946H1442.6C1441.44 506.224 1440.17 504.58 1438.8 503.021C1429.71 491.73 1415.79 484.503 1400.18 484.503C1393.69 484.503 1381.82 484.503 1381.82 484.503V437.618H1429.36L1457.4 464.625Z" fill="#89E1F5"/>
<rect x="1455.62" y="531.388" width="11.3538" height="18.4699" fill="#F4DE70"/>
<rect width="134" height="61" transform="matrix(-1 0 0 1 1340 412)" fill="#D6D6D6"/>
<g clip-path="url(#clip6_785_2319)">
<rect x="1162" y="537" width="88" height="88" rx="44" fill="#858585"/>
<circle cx="1206" cy="581" r="22" fill="#39C76D"/>
<g style="mix-blend-mode:overlay">
<path d="M1250 625V537L1162 625H1250Z" fill="url(#paint8_linear_785_2319)"/>
<path d="M1250 625V537L1162 625H1250Z" fill="#676767"/>
</g>
</g>
<g clip-path="url(#clip7_785_2319)">
<rect x="1345" y="537" width="88" height="88" rx="44" fill="#858585"/>
<circle cx="1389" cy="581" r="22" fill="#39C76D"/>
<g style="mix-blend-mode:overlay">
<path d="M1433 625V537L1345 625H1433Z" fill="url(#paint9_linear_785_2319)"/>
<path d="M1433 625V537L1345 625H1433Z" fill="#676767"/>
</g>
</g>
<path d="M1365 530.39C1347.5 538.701 1335 555.817 1333.22 576.012C1326.07 567.484 1313.4 561.816 1298.96 561.816C1282.46 561.816 1268.27 569.222 1261.99 579.838C1261.37 549.446 1236.54 525 1206 525C1175.07 525 1150 550.072 1150 581H1126.74C1124.16 576.577 1120.09 572.753 1115 569.89V477H1365V530.39Z" fill="#ADADAD"/>
<path d="M1153.59 561.224C1151.27 567.373 1150 574.038 1150 581C1150 581.992 1150.03 582.977 1150.08 583.956H1127C1120.37 583.956 1115 578.583 1115 571.956V561.224H1153.59ZM1336.59 561.224C1334.27 567.373 1333 574.038 1333 581C1333 581.992 1333.03 582.977 1333.08 583.956H1261.92C1261.97 582.977 1262 581.992 1262 581C1262 574.038 1260.73 567.373 1258.41 561.224H1336.59Z" fill="#D6D6D6"/>
<g style="mix-blend-mode:overlay">
<path d="M1405.76 454.489C1412.15 460.883 1415.88 469.941 1415.88 478.998V531.859C1407.9 527.487 1398.74 525 1389 525C1380.33 525 1372.11 526.972 1364.78 530.492V413.465L1405.76 454.489Z" fill="url(#paint10_linear_785_2319)"/>
<path d="M1405.76 454.489C1412.15 460.883 1415.88 469.941 1415.88 478.998V531.859C1407.9 527.487 1398.74 525 1389 525C1380.33 525 1372.11 526.972 1364.78 530.492V413.465L1405.76 454.489Z" fill="#676767"/>
</g>
<g style="mix-blend-mode:overlay">
<path d="M1345.03 382C1347.86 383.028 1350.5 384.528 1352.85 386.414C1358.66 390.175 1363.02 395.773 1365 402.316V530.812C1355.93 533.316 1348.15 540.092 1343.07 549.368C1340.7 552.86 1338.82 556.779 1337.55 561H1299V382H1345.03Z" fill="url(#paint11_linear_785_2319)"/>
<path d="M1345.03 382C1347.86 383.028 1350.5 384.528 1352.85 386.414C1358.66 390.175 1363.02 395.773 1365 402.316V530.812C1355.93 533.316 1348.15 540.092 1343.07 549.368C1340.7 552.86 1338.82 556.779 1337.55 561H1299V382H1345.03Z" fill="#676767"/>
</g>
<rect opacity="0.8" x="-34" y="626" width="1646" height="275" fill="#28A656"/>
<g style="mix-blend-mode:color-burn">
<rect x="-34" y="629" width="1645" height="274" fill="url(#paint12_linear_785_2319)" fill-opacity="0.2"/>
</g>
<g style="mix-blend-mode:color-burn">
<rect x="-33" y="711" width="1645" height="274" fill="url(#paint13_linear_785_2319)" fill-opacity="0.5"/>
</g>
<g style="mix-blend-mode:color-burn">
<rect x="-33" y="806" width="1645" height="274" fill="url(#paint14_linear_785_2319)" fill-opacity="0.5"/>
</g>
</g>
<defs>
<linearGradient id="paint0_linear_785_2319" x1="883.313" y1="536.747" x2="883.313" y2="647.554" gradientUnits="userSpaceOnUse">
<stop stop-color="#D9D9D9"/>
<stop offset="1" stop-color="#737373"/>
</linearGradient>
<linearGradient id="paint1_linear_785_2319" x1="793.313" y1="536.747" x2="793.313" y2="647.554" gradientUnits="userSpaceOnUse">
<stop stop-color="#D9D9D9"/>
<stop offset="1" stop-color="#737373"/>
</linearGradient>
<linearGradient id="paint2_linear_785_2319" x1="1033.99" y1="458.523" x2="1033.99" y2="618.578" gradientUnits="userSpaceOnUse">
<stop stop-color="#D9D9D9"/>
<stop offset="1" stop-color="#737373"/>
</linearGradient>
<linearGradient id="paint3_linear_785_2319" x1="400.329" y1="582.75" x2="548.072" y2="582.75" gradientUnits="userSpaceOnUse">
<stop stop-color="#D9D9D9"/>
<stop offset="1" stop-color="#737373"/>
</linearGradient>
<linearGradient id="paint4_linear_785_2319" x1="510.329" y1="582.75" x2="658.072" y2="582.75" gradientUnits="userSpaceOnUse">
<stop stop-color="#D9D9D9"/>
<stop offset="1" stop-color="#737373"/>
</linearGradient>
<linearGradient id="paint5_linear_785_2319" x1="208.329" y1="582.75" x2="356.072" y2="582.75" gradientUnits="userSpaceOnUse">
<stop stop-color="#D9D9D9"/>
<stop offset="1" stop-color="#737373"/>
</linearGradient>
<linearGradient id="paint6_linear_785_2319" x1="640.591" y1="266.726" x2="640.591" y2="629.927" gradientUnits="userSpaceOnUse">
<stop stop-color="#D9D9D9"/>
<stop offset="1" stop-color="#737373"/>
</linearGradient>
<linearGradient id="paint7_linear_785_2319" x1="273.966" y1="358.979" x2="273.966" y2="611.373" gradientUnits="userSpaceOnUse">
<stop stop-color="#D9D9D9"/>
<stop offset="1" stop-color="#737373"/>
</linearGradient>
<linearGradient id="paint8_linear_785_2319" x1="1211.27" y1="517.135" x2="1211.27" y2="652.566" gradientUnits="userSpaceOnUse">
<stop stop-color="#D9D9D9"/>
<stop offset="1" stop-color="#737373"/>
</linearGradient>
<linearGradient id="paint9_linear_785_2319" x1="1394.27" y1="517.135" x2="1394.27" y2="652.566" gradientUnits="userSpaceOnUse">
<stop stop-color="#D9D9D9"/>
<stop offset="1" stop-color="#737373"/>
</linearGradient>
<linearGradient id="paint10_linear_785_2319" x1="1393.39" y1="377.264" x2="1393.39" y2="624.069" gradientUnits="userSpaceOnUse">
<stop stop-color="#D9D9D9"/>
<stop offset="1" stop-color="#737373"/>
</linearGradient>
<linearGradient id="paint11_linear_785_2319" x1="1336.45" y1="342.044" x2="1336.45" y2="614.445" gradientUnits="userSpaceOnUse">
<stop stop-color="#D9D9D9"/>
<stop offset="1" stop-color="#737373"/>
</linearGradient>
<linearGradient id="paint12_linear_785_2319" x1="920.688" y1="662.381" x2="920.688" y2="890.83" gradientUnits="userSpaceOnUse">
<stop stop-color="#D9D9D9"/>
<stop offset="1" stop-color="#737373"/>
</linearGradient>
<linearGradient id="paint13_linear_785_2319" x1="921.688" y1="744.381" x2="921.688" y2="972.83" gradientUnits="userSpaceOnUse">
<stop stop-color="#D9D9D9"/>
<stop offset="1" stop-color="#737373"/>
</linearGradient>
<linearGradient id="paint14_linear_785_2319" x1="921.688" y1="839.381" x2="921.688" y2="1067.83" gradientUnits="userSpaceOnUse">
<stop stop-color="#D9D9D9"/>
<stop offset="1" stop-color="#737373"/>
</linearGradient>
<clipPath id="clip0_785_2319">
<rect width="1600" height="900" rx="32" fill="white"/>
</clipPath>
<clipPath id="clip1_785_2319">
<rect x="843" y="553" width="72" height="72" rx="36" fill="white"/>
</clipPath>
<clipPath id="clip2_785_2319">
<rect x="753" y="553" width="72" height="72" rx="36" fill="white"/>
</clipPath>
<clipPath id="clip3_785_2319">
<rect width="96" height="96" rx="48" transform="matrix(0 1 1 0 422 529)" fill="white"/>
</clipPath>
<clipPath id="clip4_785_2319">
<rect width="96" height="96" rx="48" transform="matrix(0 1 1 0 532 529)" fill="white"/>
</clipPath>
<clipPath id="clip5_785_2319">
<rect width="96" height="96" rx="48" transform="matrix(0 1 1 0 230 529)" fill="white"/>
</clipPath>
<clipPath id="clip6_785_2319">
<rect x="1162" y="537" width="88" height="88" rx="44" fill="white"/>
</clipPath>
<clipPath id="clip7_785_2319">
<rect x="1345" y="537" width="88" height="88" rx="44" fill="white"/>
</clipPath>
</defs>
</svg>
