<svg width="1600" height="900" viewBox="0 0 1600 900" fill="none" xmlns="http://www.w3.org/2000/svg">
<g clip-path="url(#clip0_813_5422)">
<rect width="1600" height="900" rx="32" fill="#16B2D4"/>
<path d="M1495 203.75C1495 167.906 1471.88 136.688 1439.5 125.703C1439.5 123.969 1439.5 122.234 1439.5 120.5C1439.5 69.625 1398.45 28 1347 28C1312.89 28 1282.83 47.0781 1267.22 74.8281C1258.55 68.4688 1247.56 65 1236 65C1205.36 65 1180.5 89.8594 1180.5 120.5C1180.5 128.016 1182.23 134.375 1184.55 140.734C1150.44 147.672 1125 177.734 1125 213C1125 254.047 1158.53 287 1199 287H1411.75C1458 287 1495 250 1495 203.75Z" fill="white" fill-opacity="0.8"/>
<path d="M1273 336.607C1273 306.299 1253.5 279.902 1226.2 270.614C1226.2 269.147 1226.2 267.681 1226.2 266.214C1226.2 223.196 1191.59 188 1148.2 188C1119.44 188 1094.09 204.132 1080.93 227.596C1073.61 222.219 1064.35 219.286 1054.6 219.286C1028.76 219.286 1007.8 240.306 1007.8 266.214C1007.8 272.569 1009.26 277.946 1011.21 283.324C982.45 289.19 961 314.609 961 344.429C961 379.136 989.275 407 1023.4 407H1202.8C1241.8 407 1273 375.714 1273 336.607Z" fill="white" fill-opacity="0.8"/>
<path d="M248 195.179C248 165.978 266.875 140.545 293.3 131.596C293.3 130.183 293.3 128.77 293.3 127.357C293.3 85.9107 326.803 52 368.8 52C396.641 52 421.178 67.5424 433.919 90.1496C440.997 84.9688 449.962 82.1429 459.4 82.1429C484.409 82.1429 504.7 102.395 504.7 127.357C504.7 133.48 503.284 138.661 501.397 143.842C529.237 149.493 550 173.984 550 202.714C550 236.154 522.631 263 489.6 263H315.95C278.2 263 248 232.857 248 195.179Z" fill="white" fill-opacity="0.8"/>
<path d="M1126.69 195.619L1108.89 211C1109.7 216.667 1109.7 222.333 1109.7 228C1109.7 233.667 1109.7 239.333 1108.89 245L1126.69 261.19C1132.36 266.048 1134.79 274.143 1131.55 281.429C1129.93 285.476 1127.5 290.333 1125.07 294.381L1122.65 298.429C1120.22 302.476 1117.79 306.524 1115.36 310.571C1110.51 316.238 1102.41 318.667 1095.13 316.238L1072.46 308.143C1063.56 315.429 1053.85 321.095 1042.52 325.143L1037.66 348.619C1036.04 356.714 1030.38 362.381 1023.09 363.19C1017.43 364 1011.76 364 1006.1 364C1001.24 364 995.573 364 989.908 363.19C982.623 362.381 976.148 356.714 975.339 348.619L969.673 325.143C959.151 321.095 949.438 315.429 940.535 308.143L917.872 316.238C910.588 318.667 902.494 316.238 897.638 310.571C895.21 306.524 891.972 302.476 889.544 298.429L887.116 294.381C885.497 290.333 883.069 285.476 881.45 281.429C878.213 274.143 880.641 266.048 886.306 261.19L904.113 245C903.303 240.143 903.303 234.476 903.303 228C903.303 222.333 903.303 216.667 904.113 211.81L886.306 195.619C880.641 189.952 878.213 182.667 881.45 175.381C883.069 170.524 885.497 166.476 887.116 162.429L889.544 158.381C892.781 154.333 895.21 150.286 897.638 146.238C902.494 140.571 910.588 138.143 917.872 140.571L940.535 147.857C949.438 141.381 959.151 135.714 970.482 131.667L975.339 107.381C976.957 100.095 982.623 94.4286 989.908 93.619C995.573 92.8095 1000.43 92 1006.1 92H1006.9C1012.57 92 1017.43 92.8095 1023.09 93.619C1030.38 94.4286 1036.85 100.095 1038.47 108.19L1043.33 131.667C1053.85 134.905 1063.56 141.381 1072.46 147.857L1095.13 140.571C1102.41 138.143 1110.51 140.571 1115.36 146.238C1117.79 150.286 1121.03 154.333 1123.46 158.381L1125.88 162.429C1127.5 166.476 1129.93 170.524 1131.55 175.381C1134.79 182.667 1132.36 189.952 1126.69 195.619ZM968.054 228C968.054 242.571 975.339 254.714 987.479 262C998.811 269.286 1014.19 269.286 1026.33 262C1037.66 254.714 1045.76 242.571 1045.76 228C1045.76 214.238 1037.66 202.095 1026.33 194.81C1014.19 187.524 998.811 187.524 987.479 194.81C975.339 202.095 968.054 214.238 968.054 228Z" fill="#ADADAD"/>
<path d="M1109.04 210.891L1126.73 195.524C1132.36 189.862 1134.78 182.583 1131.56 175.304C1129.95 170.451 1127.54 166.407 1125.93 162.363L1123.52 158.319C1121.1 154.275 1117.89 150.231 1115.47 146.188C1110.65 140.526 1102.6 138.1 1095.37 140.526L1072.85 147.805C1064 141.335 1054.35 134.864 1043.89 131.629L1039.06 108.174C1038.35 104.559 1036.66 101.429 1034.37 99V200.64C1041.61 207.813 1046.3 217.372 1046.3 227.875C1046.3 238.996 1041.61 248.701 1034.37 255.909V357C1036.24 354.657 1037.6 351.729 1038.26 348.385L1043.09 324.93C1054.35 320.886 1064 315.225 1072.85 307.946L1095.37 316.034C1102.6 318.46 1110.65 316.034 1115.47 310.372L1122.71 298.24L1125.12 294.196C1127.54 290.152 1129.95 285.3 1131.56 281.256C1134.78 273.976 1132.36 265.889 1126.73 261.036L1109.04 244.86C1109.84 239.198 1109.84 233.537 1109.84 227.875C1109.84 222.214 1109.84 216.552 1109.04 210.891Z" fill="black" fill-opacity="0.08"/>
<path d="M1374.02 401.41L1350.89 405.865C1348.78 411.18 1345.96 416.091 1343.15 421.002C1340.33 425.913 1337.51 430.824 1333.99 435.332L1341.42 458.24C1343.93 465.273 1342.02 473.5 1335.59 478.2C1332.17 480.902 1327.64 483.901 1323.52 486.198L1319.4 488.496C1315.28 490.794 1311.15 493.092 1307.03 495.389C1299.99 497.88 1291.75 495.95 1286.63 490.215L1270.95 471.902C1259.6 473.779 1248.34 473.849 1236.48 471.709L1220.59 489.634C1215.16 495.844 1207.42 497.931 1200.68 495.001C1195.36 492.879 1190.43 490.055 1185.51 487.231C1181.29 484.81 1176.36 481.986 1171.84 478.461C1165.91 474.128 1163.1 465.989 1166.42 458.57L1173.17 435.399C1166.03 426.647 1160.41 416.894 1156.29 406.142L1132.57 401.862C1125.03 400.336 1119.2 394.197 1117.8 386.865C1117.7 382.147 1116.9 377.025 1116.8 372.307L1116.7 367.588C1117.31 363.273 1117.61 357.853 1118.22 353.539C1119.02 345.61 1125.16 339.805 1132.5 338.419L1156.02 333.263C1157.73 328.65 1160.55 323.739 1163.77 318.126C1166.58 313.215 1169.4 308.303 1172.52 304.497L1165.09 281.59C1162.98 273.854 1164.49 266.33 1170.93 261.629C1174.75 258.226 1178.87 255.929 1182.29 253.228L1186.41 250.93C1191.24 249.036 1195.36 246.738 1199.48 244.44C1206.52 241.95 1214.76 243.879 1219.88 249.615L1235.96 267.226C1246.92 266.051 1258.17 265.981 1270.04 268.121L1286.33 249.493C1291.36 243.986 1299.1 241.899 1305.83 244.828C1311.16 246.951 1315.78 248.67 1320.7 251.494L1321.41 251.897C1326.33 254.721 1330.15 257.843 1334.67 261.369C1340.6 265.701 1343.41 273.84 1340.79 281.663L1333.35 304.43C1340.88 312.481 1346.1 322.935 1350.62 332.986L1373.94 337.968C1381.48 339.494 1387.31 345.633 1388.71 352.965C1388.81 357.683 1389.61 362.805 1389.71 367.523L1389.81 372.241C1389.2 376.556 1389.3 381.274 1388.3 386.291C1387.49 394.219 1381.76 399.323 1374.02 401.41ZM1220.04 350.401C1212.8 363.03 1213.1 377.184 1220.03 389.55C1226.25 401.513 1239.62 409.178 1253.79 408.915C1267.26 408.249 1280.33 401.759 1287.57 389.131C1294.42 377.203 1293.42 362.645 1287.19 350.683C1280.26 338.317 1266.89 330.651 1253.42 331.318C1239.25 331.58 1226.88 338.474 1220.04 350.401Z" fill="#ADADAD"/>
<circle cx="1253.5" cy="369.5" r="54.8962" stroke="#858585" stroke-width="6.79245"/>
<circle cx="1253" cy="369" r="42.5" stroke="#333333" stroke-width="5"/>
<path d="M1350.57 405.882L1373.69 401.397C1381.43 399.299 1387.16 394.184 1387.98 386.249C1388.99 381.227 1388.9 376.505 1389.5 372.186L1389.41 367.464C1389.32 362.742 1388.52 357.617 1388.43 352.895C1387.03 345.559 1381.22 339.421 1373.68 337.902L1350.38 332.943C1345.88 322.89 1340.67 312.433 1333.15 304.384L1340.62 281.59C1343.24 273.758 1340.44 265.616 1334.52 261.286C1330.01 257.763 1326.19 254.643 1321.28 251.822L1320.57 251.419C1315.65 248.598 1311.04 246.883 1305.71 244.765C1298.99 241.841 1291.25 243.939 1286.22 249.456L1278.06 258.787L1278.06 340.002C1281.6 342.955 1284.64 346.575 1286.96 350.727C1293.17 362.692 1294.15 377.261 1287.3 389.206C1284.83 393.521 1281.68 397.121 1278.06 400.02L1278.42 481.219L1286.24 490.373C1291.36 496.108 1299.59 498.03 1306.63 495.529L1319 488.616L1323.12 486.312C1327.24 484.008 1331.77 481.001 1335.19 478.294C1341.62 473.582 1343.55 465.346 1341.05 458.31L1333.65 435.392C1337.17 430.877 1339.99 425.958 1342.81 421.04C1345.63 416.122 1348.45 411.203 1350.57 405.882Z" fill="black" fill-opacity="0.08"/>
<circle cx="1006.5" cy="225.5" r="54.8962" stroke="#858585" stroke-width="6.79245"/>
<circle cx="1007" cy="226" r="42.5" stroke="#333333" stroke-width="5"/>
<path d="M798 600.669V380.932C798 364.352 807.562 349.047 823.5 342.67L994.35 274.435C998.812 272.522 1004.55 272.522 1009.01 274.435L1179.86 342.67C1195.8 349.047 1206 364.352 1206 380.932V600.669C1206 609.597 1198.99 597.753 1190.7 597.753H1160.1C1151.17 597.753 1144.8 609.597 1144.8 600.669V414.093C1144.8 403.252 1135.24 393.686 1124.4 393.686H879.6C868.125 393.686 859.2 403.252 859.2 414.093V600.669C859.2 609.597 852.187 597.753 843.9 597.753H813.3C804.375 597.753 798 609.597 798 600.669Z" fill="#28A656"/>
<path d="M1206 381.061C1206 364.49 1195.83 349.194 1179.94 342.82L1058 294V393.808H1124.65C1135.45 393.808 1144.98 403.368 1144.98 414.202V600.671C1144.98 609.593 1151.34 597.757 1160.24 597.757H1190.75C1199.01 597.757 1206 609.593 1206 600.671V381.061Z" fill="black" fill-opacity="0.08"/>
<rect x="784" y="588" width="437" height="37" rx="10" fill="#228C49"/>
<path d="M794 365L1002.46 278L1210 365" stroke="#228C49" stroke-width="10" stroke-linecap="round"/>
<rect x="847" y="366" width="308" height="40" fill="#76E49E"/>
<rect x="847" y="377" width="308" height="18" fill="#39C76D"/>
<rect x="905.685" y="517.286" width="71.0761" height="71.0761" fill="#F1D33D"/>
<rect x="933.022" y="517.286" width="16.4022" height="20.0471" fill="#C8A802"/>
<rect x="945.779" y="517.286" width="30.9819" height="71.0761" fill="black" fill-opacity="0.08"/>
<rect x="905.685" y="446.21" width="71.0761" height="71.0761" fill="#F1D33D"/>
<rect x="933.022" y="446.21" width="16.4022" height="20.0471" fill="#C8A802"/>
<rect x="945.779" y="446.21" width="30.9819" height="71.0761" fill="black" fill-opacity="0.08"/>
<rect x="1036.9" y="517.286" width="71.0761" height="71.0761" fill="#F1D33D"/>
<rect x="1064.24" y="517.286" width="16.4022" height="20.0471" fill="#C8A802"/>
<rect x="1077" y="517.286" width="30.9819" height="71.0761" fill="black" fill-opacity="0.08"/>
<rect x="1036.9" y="446.21" width="71.0761" height="71.0761" fill="#F1D33D"/>
<rect x="1064.24" y="446.21" width="16.4022" height="20.0471" fill="#C8A802"/>
<rect x="1077" y="446.21" width="30.9819" height="71.0761" fill="black" fill-opacity="0.08"/>
<rect x="834.609" y="517.286" width="71.0761" height="71.0761" fill="#F1D33D"/>
<rect x="861.946" y="517.286" width="16.4022" height="20.0471" fill="#C8A802"/>
<rect x="874.703" y="517.286" width="30.9819" height="71.0761" fill="black" fill-opacity="0.08"/>
<path d="M1167.11 583.021C1167.11 585.971 1164.71 588.362 1161.76 588.362H1091.45C1088.5 588.362 1086.11 585.971 1086.11 583.021V568.503H1167.11V583.021ZM1161.76 542.801C1164.71 542.801 1167.11 545.192 1167.11 548.143V563.051H1086.11V548.143C1086.11 545.192 1088.5 542.801 1091.45 542.801H1161.76Z" fill="#76E49E"/>
<path d="M1167.11 583.021V548.143C1167.11 545.192 1164.71 542.801 1161.76 542.801H1135.95V588.362H1161.76C1164.71 588.362 1167.11 585.971 1167.11 583.021Z" fill="black" fill-opacity="0.08"/>
<rect x="1159.71" y="563.051" width="7.39889" height="5.45181" fill="#28A656"/>
<rect x="1093.51" y="563.051" width="66.2006" height="5.45181" fill="#228C49"/>
<rect x="1086.11" y="563.051" width="7.39889" height="5.45181" fill="#28A656"/>
<path d="M1095.94 588.362H1157.47C1159.89 588.362 1162.1 587.482 1163.8 586.025H1089.61C1091.32 587.482 1093.53 588.362 1095.94 588.362Z" fill="#39C76D"/>
<rect x="1086.11" y="560.714" width="80.9984" height="2.33649" fill="#39C76D"/>
<circle cx="1096.43" cy="553.121" r="2.92061" fill="#39C76D"/>
<path d="M1096.43 556.041C1098.04 556.041 1099.35 554.734 1099.35 553.121C1099.35 552.165 1098.89 551.317 1098.18 550.784L1094.67 555.457C1095.16 555.824 1095.77 556.041 1096.43 556.041Z" fill="black" fill-opacity="0.08"/>
<circle cx="1156.79" cy="553.121" r="2.92061" fill="#39C76D"/>
<path d="M1156.79 556.041C1158.4 556.041 1159.71 554.734 1159.71 553.121C1159.71 552.165 1159.25 551.317 1158.54 550.784L1155.03 555.457C1155.52 555.824 1156.13 556.041 1156.79 556.041Z" fill="black" fill-opacity="0.08"/>
<circle cx="1096.43" cy="578.044" r="2.92061" fill="#39C76D"/>
<path d="M1096.43 580.964C1098.04 580.964 1099.35 579.657 1099.35 578.044C1099.35 577.088 1098.89 576.24 1098.18 575.707L1094.67 580.38C1095.16 580.747 1095.77 580.964 1096.43 580.964Z" fill="black" fill-opacity="0.08"/>
<circle cx="1156.79" cy="578.044" r="2.92061" fill="#39C76D"/>
<path d="M1156.79 580.964C1158.4 580.964 1159.71 579.657 1159.71 578.044C1159.71 577.088 1159.25 576.24 1158.54 575.707L1155.03 580.38C1155.52 580.747 1156.13 580.964 1156.79 580.964Z" fill="black" fill-opacity="0.08"/>
<path d="M1167.11 537.459C1167.11 540.409 1164.71 542.801 1161.76 542.801H1091.45C1088.5 542.801 1086.11 540.409 1086.11 537.459V522.941H1167.11V537.459ZM1161.76 497.239C1164.71 497.239 1167.11 499.631 1167.11 502.581V517.489H1086.11V502.581C1086.11 499.631 1088.5 497.239 1091.45 497.239H1161.76Z" fill="#76E49E"/>
<path d="M1167.11 537.459V502.581C1167.11 499.631 1164.71 497.239 1161.76 497.239H1135.95V542.801H1161.76C1164.71 542.801 1167.11 540.409 1167.11 537.459Z" fill="black" fill-opacity="0.08"/>
<rect x="1159.71" y="517.489" width="7.39889" height="5.45181" fill="#28A656"/>
<rect x="1093.51" y="517.489" width="66.2006" height="5.45181" fill="#228C49"/>
<rect x="1086.11" y="517.489" width="7.39889" height="5.45181" fill="#28A656"/>
<path d="M1095.94 542.8H1157.47C1159.89 542.8 1162.1 541.921 1163.8 540.464H1089.61C1091.32 541.921 1093.53 542.8 1095.94 542.8Z" fill="#39C76D"/>
<rect x="1086.11" y="515.152" width="80.9984" height="2.33649" fill="#39C76D"/>
<circle cx="1096.43" cy="507.558" r="2.92061" fill="#39C76D"/>
<path d="M1096.43 510.479C1098.04 510.479 1099.35 509.171 1099.35 507.558C1099.35 506.603 1098.89 505.755 1098.18 505.222L1094.67 509.895C1095.16 510.262 1095.77 510.479 1096.43 510.479Z" fill="black" fill-opacity="0.08"/>
<circle cx="1156.79" cy="507.558" r="2.92061" fill="#39C76D"/>
<path d="M1156.79 510.479C1158.4 510.479 1159.71 509.171 1159.71 507.558C1159.71 506.603 1159.25 505.755 1158.54 505.222L1155.03 509.895C1155.52 510.262 1156.13 510.479 1156.79 510.479Z" fill="black" fill-opacity="0.08"/>
<circle cx="1096.43" cy="532.482" r="2.92061" fill="#39C76D"/>
<path d="M1096.43 535.403C1098.04 535.403 1099.35 534.095 1099.35 532.482C1099.35 531.527 1098.89 530.678 1098.18 530.146L1094.67 534.819C1095.16 535.185 1095.77 535.403 1096.43 535.403Z" fill="black" fill-opacity="0.08"/>
<circle cx="1156.79" cy="532.482" r="2.92061" fill="#39C76D"/>
<path d="M1156.79 535.403C1158.4 535.403 1159.71 534.095 1159.71 532.482C1159.71 531.527 1159.25 530.678 1158.54 530.146L1155.03 534.819C1155.52 535.185 1156.13 535.403 1156.79 535.403Z" fill="black" fill-opacity="0.08"/>
<g clip-path="url(#clip1_813_5422)">
<path d="M236 346C236 332.193 247.193 321 261 321H583C596.807 321 608 332.193 608 346V514H236V346Z" fill="#ADADAD"/>
<path d="M237 527.883C247.235 534.636 255.28 544.44 259.838 556H344.162C352.937 533.747 374.629 518 400 518C424.598 518 445.739 532.802 455.001 553.984C464.263 532.802 485.402 518 510 518C535.371 518 557.063 533.747 565.838 556H608V350H237V527.883Z" fill="#ADADAD"/>
<path d="M208.268 397.249C198.569 397.249 188.87 401.243 182.024 408.09L138.096 452.024C131.25 458.871 127.256 468.571 127.256 478.271V543.316C117.557 543.317 109 551.875 109 561.574C109 571.844 117.557 579.833 127.256 579.833H144.028C144.01 579.224 144 578.613 144 578C144 544.863 170.863 518 204 518C216.102 518 227.367 521.584 236.793 527.747V397.249H208.268Z" fill="#39C76D"/>
<path d="M137.519 452.038C130.962 458.348 127.256 467.057 127.256 476.158V498.431H153.377C154.626 496.587 155.986 494.826 157.45 493.158C167.192 481.065 182.119 473.326 198.856 473.326C205.809 473.326 218.537 473.326 218.537 473.326V423.115H167.572L137.519 452.038Z" fill="#89E1F5"/>
<rect width="12.1707" height="19.7799" transform="matrix(-1 0 0 1 139.427 523.536)" fill="#F4DE70"/>
<g clip-path="url(#clip2_813_5422)">
<rect width="96" height="96" rx="48" transform="matrix(0 1 1 0 352 530)" fill="#858585"/>
<circle cx="24" cy="24" r="24" transform="matrix(0 1 1 0 376 554)" fill="#39C76D"/>
<g style="mix-blend-mode:overlay">
<path d="M448 626H352L448 530V626Z" fill="url(#paint0_linear_813_5422)"/>
<path d="M448 626H352L448 530V626Z" fill="#676767"/>
</g>
</g>
<g clip-path="url(#clip3_813_5422)">
<rect width="96" height="96" rx="48" transform="matrix(0 1 1 0 462 530)" fill="#858585"/>
<circle cx="24" cy="24" r="24" transform="matrix(0 1 1 0 486 554)" fill="#39C76D"/>
<g style="mix-blend-mode:overlay">
<path d="M558 626H462L558 530V626Z" fill="url(#paint1_linear_813_5422)"/>
<path d="M558 626H462L558 530V626Z" fill="#676767"/>
</g>
</g>
<g clip-path="url(#clip4_813_5422)">
<rect width="96" height="96" rx="48" transform="matrix(0 1 1 0 160 530)" fill="#858585"/>
<circle cx="24" cy="24" r="24" transform="matrix(0 1 1 0 184 554)" fill="#39C76D"/>
<g style="mix-blend-mode:overlay">
<path d="M256 626H160L256 530V626Z" fill="url(#paint2_linear_813_5422)"/>
<path d="M256 626H160L256 530V626Z" fill="#676767"/>
</g>
</g>
<rect width="200" height="64" transform="matrix(-1 0 0 1 559 379)" fill="#D6D6D6"/>
<g style="mix-blend-mode:overlay">
<path d="M604 332.5C597.018 317.039 569.139 320.98 569 321H523V519.412C543.178 523.869 559.54 538.485 566.45 557.62L721 570.5C721 570.5 611.003 348.005 604 332.5Z" fill="url(#paint3_linear_813_5422)"/>
<path d="M604 332.5C597.018 317.039 569.139 320.98 569 321H523V519.412C543.178 523.869 559.54 538.485 566.45 557.62L721 570.5C721 570.5 611.003 348.005 604 332.5Z" fill="#676767"/>
</g>
<path d="M565.633 555.488C568.448 562.44 570 570.039 570 578C570 578.613 569.99 579.224 569.972 579.833H596C602.627 579.833 608 574.46 608 567.833V555.488H565.633ZM259.633 555.488C262.448 562.44 264 570.039 264 578C264 578.613 263.99 579.224 263.972 579.833H340.028C340.01 579.224 340 578.613 340 578C340 570.039 341.552 562.44 344.367 555.488H259.633Z" fill="#D6D6D6"/>
<g style="mix-blend-mode:overlay">
<path d="M189.677 438.953C182.302 445.491 178 454.754 178 464.017V523.91C185.866 520.122 194.685 518 204 518C216.191 518 227.533 521.636 237 527.883V397L189.677 438.953Z" fill="url(#paint4_linear_813_5422)"/>
<path d="M189.677 438.953C182.302 445.491 178 454.754 178 464.017V523.91C185.866 520.122 194.685 518 204 518C216.191 518 227.533 521.636 237 527.883V397L189.677 438.953Z" fill="#676767"/>
</g>
</g>
<rect width="85.4144" height="85.4144" transform="matrix(-0.917357 -0.398065 -0.398065 0.917357 749.706 524.533)" fill="#F1D33D"/>
<rect width="19.711" height="24.0912" transform="matrix(-0.917357 -0.398065 -0.398065 0.917357 719.57 511.456)" fill="#C8A802"/>
<rect width="41.0646" height="85.4144" transform="matrix(-0.917357 -0.398065 -0.398065 0.917357 709.022 506.879)" fill="black" fill-opacity="0.08"/>
<path d="M726.326 617.184L608.107 565.737" stroke="#858585" stroke-width="18" stroke-linecap="round"/>
<rect opacity="0.8" x="-23" y="626" width="1646" height="275" fill="#28A656"/>
<g style="mix-blend-mode:color-burn">
<rect x="-23" y="629" width="1645" height="274" fill="url(#paint5_linear_813_5422)" fill-opacity="0.2"/>
</g>
<g style="mix-blend-mode:color-burn">
<rect x="-22" y="711" width="1645" height="274" fill="url(#paint6_linear_813_5422)" fill-opacity="0.5"/>
</g>
<g style="mix-blend-mode:color-burn">
<rect x="-22" y="806" width="1645" height="274" fill="url(#paint7_linear_813_5422)" fill-opacity="0.5"/>
</g>
</g>
<defs>
<linearGradient id="paint0_linear_813_5422" x1="330.329" y1="583.75" x2="478.072" y2="583.75" gradientUnits="userSpaceOnUse">
<stop stop-color="#D9D9D9"/>
<stop offset="1" stop-color="#737373"/>
</linearGradient>
<linearGradient id="paint1_linear_813_5422" x1="440.329" y1="583.75" x2="588.072" y2="583.75" gradientUnits="userSpaceOnUse">
<stop stop-color="#D9D9D9"/>
<stop offset="1" stop-color="#737373"/>
</linearGradient>
<linearGradient id="paint2_linear_813_5422" x1="138.329" y1="583.75" x2="286.072" y2="583.75" gradientUnits="userSpaceOnUse">
<stop stop-color="#D9D9D9"/>
<stop offset="1" stop-color="#737373"/>
</linearGradient>
<linearGradient id="paint3_linear_813_5422" x1="633.86" y1="264.11" x2="633.86" y2="648.801" gradientUnits="userSpaceOnUse">
<stop stop-color="#D9D9D9"/>
<stop offset="1" stop-color="#737373"/>
</linearGradient>
<linearGradient id="paint4_linear_813_5422" x1="203.966" y1="359.979" x2="203.966" y2="612.373" gradientUnits="userSpaceOnUse">
<stop stop-color="#D9D9D9"/>
<stop offset="1" stop-color="#737373"/>
</linearGradient>
<linearGradient id="paint5_linear_813_5422" x1="931.688" y1="662.381" x2="931.688" y2="890.83" gradientUnits="userSpaceOnUse">
<stop stop-color="#D9D9D9"/>
<stop offset="1" stop-color="#737373"/>
</linearGradient>
<linearGradient id="paint6_linear_813_5422" x1="932.688" y1="744.381" x2="932.688" y2="972.83" gradientUnits="userSpaceOnUse">
<stop stop-color="#D9D9D9"/>
<stop offset="1" stop-color="#737373"/>
</linearGradient>
<linearGradient id="paint7_linear_813_5422" x1="932.688" y1="839.381" x2="932.688" y2="1067.83" gradientUnits="userSpaceOnUse">
<stop stop-color="#D9D9D9"/>
<stop offset="1" stop-color="#737373"/>
</linearGradient>
<clipPath id="clip0_813_5422">
<rect width="1600" height="900" rx="32" fill="white"/>
</clipPath>
<clipPath id="clip1_813_5422">
<rect width="499" height="318" fill="white" transform="matrix(-1 0 0 1 608 309)"/>
</clipPath>
<clipPath id="clip2_813_5422">
<rect width="96" height="96" rx="48" transform="matrix(0 1 1 0 352 530)" fill="white"/>
</clipPath>
<clipPath id="clip3_813_5422">
<rect width="96" height="96" rx="48" transform="matrix(0 1 1 0 462 530)" fill="white"/>
</clipPath>
<clipPath id="clip4_813_5422">
<rect width="96" height="96" rx="48" transform="matrix(0 1 1 0 160 530)" fill="white"/>
</clipPath>
</defs>
</svg>
