<svg xmlns="http://www.w3.org/2000/svg" width="1674" height="975" fill="none"><g filter="url(#a)"><g clip-path="url(#b)"><rect width="1600" height="900" x="42" y="35" fill="#16B2D4" rx="32"/><path fill="#fff" fill-opacity=".8" d="M1537 238.75c0-35.844-23.12-67.062-55.5-78.047V155.5c0-50.875-41.05-92.5-92.5-92.5-34.11 0-64.17 19.078-79.78 46.828-8.67-6.359-19.66-9.828-31.22-9.828-30.64 0-55.5 24.859-55.5 55.5 0 7.516 1.73 13.875 4.05 20.234-34.11 6.938-59.55 37-59.55 72.266 0 41.047 33.53 74 74 74h212.75c46.25 0 83.25-37 83.25-83.25"/><path fill="#fff" fill-opacity=".8" d="M1315 371.607c0-30.308-19.5-56.705-46.8-65.993v-4.4c0-43.018-34.61-78.214-78-78.214-28.76 0-54.11 16.132-67.27 39.596-7.32-5.377-16.58-8.31-26.33-8.31-25.84 0-46.8 21.02-46.8 46.928 0 6.355 1.46 11.732 3.41 17.11-28.76 5.866-50.21 31.285-50.21 61.105 0 34.707 28.28 62.571 62.4 62.571h179.4c39 0 70.2-31.286 70.2-70.393M290 230.179c0-29.201 18.875-54.634 45.3-63.583v-4.239C335.3 120.911 368.803 87 410.8 87c27.841 0 52.378 15.542 65.119 38.15 7.078-5.181 16.043-8.007 25.481-8.007 25.009 0 45.3 20.252 45.3 45.214 0 6.123-1.416 11.304-3.303 16.485 27.84 5.651 48.603 30.142 48.603 58.872 0 33.44-27.369 60.286-60.4 60.286H357.95C320.2 298 290 267.857 290 230.179"/><path fill="#ADADAD" d="M1168.69 230.619 1150.89 246c.81 5.667.81 11.333.81 17s0 11.333-.81 17l17.8 16.19c5.67 4.858 8.1 12.953 4.86 20.239-1.62 4.047-4.05 8.904-6.48 12.952l-2.42 4.048-7.29 12.142c-4.85 5.667-12.95 8.096-20.23 5.667l-22.67-8.095c-8.9 7.286-18.61 12.952-29.94 17l-4.86 23.476c-1.62 8.095-7.28 13.762-14.57 14.571-5.66.81-11.33.81-16.99.81-4.86 0-10.53 0-16.19-.81-7.29-.809-13.76-6.476-14.57-14.571l-5.67-23.476q-15.78-6.072-29.135-17l-22.663 8.095c-7.284 2.429-15.378 0-20.234-5.667-2.428-4.047-5.666-8.095-8.094-12.142l-2.428-4.048c-1.619-4.048-4.047-8.905-5.666-12.952-3.237-7.286-.809-15.381 4.856-20.239L946.113 280c-.81-4.857-.81-10.524-.81-17 0-5.667 0-11.333.81-16.19l-17.807-16.191c-5.665-5.667-8.093-12.952-4.856-20.238 1.619-4.857 4.047-8.905 5.666-12.952l2.428-4.048c3.237-4.048 5.666-8.095 8.094-12.143 4.856-5.667 12.95-8.095 20.234-5.667l22.663 7.286c8.903-6.476 18.615-12.143 29.945-16.19l4.86-24.286c1.62-7.286 7.28-12.952 14.57-13.762 5.66-.809 10.52-1.619 16.19-1.619h.8c5.67 0 10.53.81 16.19 1.619 7.29.81 13.76 6.476 15.38 14.571l4.86 23.477c10.52 3.238 20.23 9.714 29.13 16.19l22.67-7.286c7.28-2.428 15.38 0 20.23 5.667 2.43 4.048 5.67 8.095 8.1 12.143l2.42 4.048c1.62 4.047 4.05 8.095 5.67 12.952 3.24 7.286.81 14.571-4.86 20.238M1010.05 263c0 14.571 7.29 26.714 19.43 34 11.33 7.286 26.71 7.286 38.85 0 11.33-7.286 19.43-19.429 19.43-34 0-13.762-8.1-25.905-19.43-33.19-12.14-7.286-27.52-7.286-38.85 0-12.14 7.285-19.43 19.428-19.43 33.19"/><path fill="#000" fill-opacity=".08" d="m1151.04 245.891 17.69-15.367c5.63-5.662 8.05-12.941 4.83-20.22-1.61-4.853-4.02-8.897-5.63-12.941l-2.41-4.044c-2.42-4.044-5.63-8.088-8.05-12.131-4.82-5.662-12.87-8.088-20.1-5.662l-22.52 7.279c-8.85-6.47-18.5-12.941-28.96-16.176l-4.83-23.455a18.53 18.53 0 0 0-4.69-9.174v101.64c7.24 7.173 11.93 16.732 11.93 27.235 0 11.121-4.69 20.826-11.93 28.034V392c1.87-2.343 3.23-5.271 3.89-8.615l4.83-23.455c11.26-4.044 20.91-9.705 29.76-16.984l22.52 8.088c7.23 2.426 15.28 0 20.1-5.662l7.24-12.132 2.41-4.044c2.42-4.044 4.83-8.896 6.44-12.94 3.22-7.28.8-15.367-4.83-20.22l-17.69-16.176c.8-5.662.8-11.323.8-16.985s0-11.323-.8-16.984"/><path fill="#ADADAD" d="m1416.02 436.41-23.13 4.455c-2.11 5.315-4.93 10.226-7.74 15.137-2.82 4.911-5.64 9.822-9.16 14.33l7.43 22.908c2.51 7.033.6 15.26-5.83 19.96-3.42 2.702-7.95 5.701-12.07 7.998l-4.12 2.298c-4.12 2.298-8.25 4.596-12.37 6.893-7.04 2.491-15.28.561-20.4-5.174l-15.68-18.313c-11.35 1.877-22.61 1.947-34.47-.193l-15.89 17.925c-5.43 6.21-13.17 8.297-19.91 5.367-5.32-2.122-10.25-4.946-15.17-7.77-4.22-2.421-9.15-5.245-13.67-8.77-5.93-4.333-8.74-12.472-5.42-19.891l6.75-23.171c-7.14-8.752-12.76-18.505-16.88-29.257l-23.72-4.28c-7.54-1.526-13.37-7.665-14.77-14.997-.1-4.718-.9-9.84-1-14.558l-.1-4.719c.61-4.315.91-9.735 1.52-14.049.8-7.929 6.94-13.734 14.28-15.12l23.52-5.156c1.71-4.613 4.53-9.524 7.75-15.137 2.81-4.911 5.63-9.823 8.75-13.629l-7.43-22.907c-2.11-7.736-.6-15.26 5.84-19.961 3.82-3.403 7.94-5.7 11.36-8.401l4.12-2.298c4.83-1.894 8.95-4.192 13.07-6.49 7.04-2.49 15.28-.561 20.4 5.175l16.08 17.611c10.96-1.175 22.21-1.245 34.08.895l16.29-18.628c5.03-5.507 12.77-7.594 19.5-4.665 5.33 2.123 9.95 3.842 14.87 6.666l.71.403c4.92 2.824 8.74 5.946 13.26 9.472 5.93 4.332 8.74 12.471 6.12 20.294l-7.44 22.767c7.53 8.051 12.75 18.505 17.27 28.556l23.32 4.982c7.54 1.526 13.37 7.665 14.77 14.997.1 4.718.9 9.84 1 14.558l.1 4.718c-.61 4.315-.51 9.033-1.51 14.05-.81 7.928-6.54 13.032-14.28 15.119m-153.98-51.009c-7.24 12.629-6.94 26.783-.01 39.149 6.22 11.963 19.59 19.628 33.76 19.365 13.47-.666 26.54-7.156 33.78-19.784 6.85-11.928 5.85-26.486-.38-38.448-6.93-12.366-20.3-20.032-33.77-19.365-14.17.262-26.54 7.156-33.38 19.083"/><circle cx="1295.5" cy="404.5" r="54.896" stroke="#858585" stroke-width="6.792"/><circle cx="1295" cy="404" r="42.5" stroke="#333" stroke-width="5"/><path fill="#000" fill-opacity=".08" d="m1392.57 440.882 23.12-4.485c7.74-2.098 13.47-7.213 14.29-15.148 1.01-5.022.92-9.744 1.52-14.063l-.09-4.722c-.09-4.722-.89-9.847-.98-14.569-1.4-7.336-7.21-13.474-14.75-14.993l-23.3-4.959c-4.5-10.053-9.71-20.51-17.23-28.559l7.47-22.794c2.62-7.832-.18-15.974-6.1-20.304-4.51-3.523-8.33-6.643-13.24-9.464l-.71-.403c-4.92-2.821-9.53-4.536-14.86-6.654-6.72-2.924-14.46-.826-19.49 4.691l-8.16 9.331v81.215a38.3 38.3 0 0 1 8.9 10.725c6.21 11.965 7.19 26.534.34 38.479a37.9 37.9 0 0 1-9.24 10.814l.36 81.199 7.82 9.154c5.12 5.735 13.35 7.657 20.39 5.156l12.37-6.913 4.12-2.304c4.12-2.304 8.65-5.311 12.07-8.018 6.43-4.712 8.36-12.948 5.86-19.984l-7.4-22.918c3.52-4.515 6.34-9.434 9.16-14.352s5.64-9.837 7.76-15.158"/><circle cx="1048.5" cy="260.5" r="54.896" stroke="#858585" stroke-width="6.792"/><circle cx="1049" cy="261" r="42.5" stroke="#333" stroke-width="5"/><path fill="#28A656" d="M840 635.669V415.932c0-16.58 9.562-31.885 25.5-38.262l170.85-68.235c4.46-1.913 10.2-1.913 14.66 0l170.85 68.235c15.94 6.377 26.14 21.682 26.14 38.262v219.737c0 8.928-7.01-2.916-15.3-2.916h-30.6c-8.93 0-15.3 11.844-15.3 2.916V449.093c0-10.841-9.56-20.407-20.4-20.407H921.6c-11.475 0-20.4 9.566-20.4 20.407v186.576c0 8.928-7.013-2.916-15.3-2.916h-30.6c-8.925 0-15.3 11.844-15.3 2.916"/><path fill="#000" fill-opacity=".08" d="M1248 416.061c0-16.571-10.17-31.867-26.06-38.241L1100 329v99.808h66.65c10.8 0 20.33 9.56 20.33 20.394v186.469c0 8.922 6.36-2.914 15.26-2.914h30.51c8.26 0 15.25 11.836 15.25 2.914z"/><rect width="437" height="37" x="826" y="623" fill="#228C49" rx="10"/><path stroke="#228C49" stroke-linecap="round" stroke-width="10" d="m836 400 208.46-87L1252 400"/><path fill="#76E49E" d="M889 401h308v40H889z"/><path fill="#39C76D" d="M889 412h308v18H889z"/><path fill="#F1D33D" d="M947.685 552.286h71.076v71.076h-71.076z"/><path fill="#C8A802" d="M975.022 552.286h16.402v20.047h-16.402z"/><path fill="#000" fill-opacity=".08" d="M987.779 552.286h30.982v71.076h-30.982z"/><path fill="#F1D33D" d="M947.685 481.21h71.076v71.076h-71.076z"/><path fill="#C8A802" d="M975.022 481.21h16.402v20.047h-16.402z"/><path fill="#000" fill-opacity=".08" d="M987.779 481.21h30.982v71.076h-30.982z"/><path fill="#F1D33D" d="M1078.9 552.286h71.076v71.076H1078.9z"/><path fill="#C8A802" d="M1106.24 552.286h16.402v20.047h-16.402z"/><path fill="#000" fill-opacity=".08" d="M1119 552.286h30.982v71.076H1119z"/><path fill="#F1D33D" d="M1078.9 481.21h71.076v71.076H1078.9z"/><path fill="#C8A802" d="M1106.24 481.21h16.402v20.047h-16.402z"/><path fill="#000" fill-opacity=".08" d="M1119 481.21h30.982v71.076H1119z"/><path fill="#F1D33D" d="M876.609 552.286h71.076v71.076h-71.076z"/><path fill="#C8A802" d="M903.946 552.286h16.402v20.047h-16.402z"/><path fill="#000" fill-opacity=".08" d="M916.703 552.286h30.982v71.076h-30.982z"/><path fill="#76E49E" d="M1209.11 618.021c0 2.95-2.4 5.341-5.35 5.341h-70.31a5.34 5.34 0 0 1-5.34-5.341v-14.518h81zm-5.35-40.22c2.95 0 5.35 2.391 5.35 5.342v14.908h-81v-14.908a5.34 5.34 0 0 1 5.34-5.342z"/><path fill="#000" fill-opacity=".08" d="M1209.11 618.021v-34.878c0-2.951-2.4-5.342-5.35-5.342h-25.81v45.561h25.81c2.95 0 5.35-2.391 5.35-5.341"/><path fill="#28A656" d="M1201.71 598.051h7.399v5.452h-7.399z"/><path fill="#228C49" d="M1135.51 598.051h66.201v5.452h-66.201z"/><path fill="#28A656" d="M1128.11 598.051h7.399v5.452h-7.399z"/><path fill="#39C76D" d="M1137.94 623.362h61.53c2.42 0 4.63-.88 6.33-2.337h-74.19a9.73 9.73 0 0 0 6.33 2.337m-9.83-27.648h80.998v2.336h-80.998z"/><circle cx="1138.43" cy="588.121" r="2.921" fill="#39C76D"/><path fill="#000" fill-opacity=".08" d="M1138.43 591.041a2.922 2.922 0 0 0 1.75-5.257l-3.51 4.673c.49.367 1.1.584 1.76.584"/><circle cx="1198.79" cy="588.121" r="2.921" fill="#39C76D"/><path fill="#000" fill-opacity=".08" d="M1198.79 591.041a2.922 2.922 0 0 0 1.75-5.257l-3.51 4.673c.49.367 1.1.584 1.76.584"/><circle cx="1138.43" cy="613.044" r="2.921" fill="#39C76D"/><path fill="#000" fill-opacity=".08" d="M1138.43 615.964a2.922 2.922 0 0 0 1.75-5.257l-3.51 4.673c.49.367 1.1.584 1.76.584"/><circle cx="1198.79" cy="613.044" r="2.921" fill="#39C76D"/><path fill="#000" fill-opacity=".08" d="M1198.79 615.964a2.922 2.922 0 0 0 1.75-5.257l-3.51 4.673c.49.367 1.1.584 1.76.584"/><path fill="#76E49E" d="M1209.11 572.459a5.35 5.35 0 0 1-5.35 5.342h-70.31a5.34 5.34 0 0 1-5.34-5.342v-14.518h81zm-5.35-40.22a5.35 5.35 0 0 1 5.35 5.342v14.908h-81v-14.908a5.34 5.34 0 0 1 5.34-5.342z"/><path fill="#000" fill-opacity=".08" d="M1209.11 572.459v-34.878a5.35 5.35 0 0 0-5.35-5.342h-25.81v45.562h25.81a5.35 5.35 0 0 0 5.35-5.342"/><path fill="#28A656" d="M1201.71 552.489h7.399v5.452h-7.399z"/><path fill="#228C49" d="M1135.51 552.489h66.201v5.452h-66.201z"/><path fill="#28A656" d="M1128.11 552.489h7.399v5.452h-7.399z"/><path fill="#39C76D" d="M1137.94 577.8h61.53a9.7 9.7 0 0 0 6.33-2.336h-74.19a9.73 9.73 0 0 0 6.33 2.336m-9.83-27.648h80.998v2.336h-80.998z"/><circle cx="1138.43" cy="542.558" r="2.921" fill="#39C76D"/><path fill="#000" fill-opacity=".08" d="M1138.43 545.479c1.61 0 2.92-1.308 2.92-2.921 0-.955-.46-1.803-1.17-2.336l-3.51 4.673c.49.367 1.1.584 1.76.584"/><circle cx="1198.79" cy="542.558" r="2.921" fill="#39C76D"/><path fill="#000" fill-opacity=".08" d="M1198.79 545.479c1.61 0 2.92-1.308 2.92-2.921 0-.955-.46-1.803-1.17-2.336l-3.51 4.673c.49.367 1.1.584 1.76.584"/><circle cx="1138.43" cy="567.482" r="2.921" fill="#39C76D"/><path fill="#000" fill-opacity=".08" d="M1138.43 570.403c1.61 0 2.92-1.308 2.92-2.921 0-.955-.46-1.804-1.17-2.336l-3.51 4.673c.49.366 1.1.584 1.76.584"/><circle cx="1198.79" cy="567.482" r="2.921" fill="#39C76D"/><path fill="#000" fill-opacity=".08" d="M1198.79 570.403c1.61 0 2.92-1.308 2.92-2.921 0-.955-.46-1.804-1.17-2.336l-3.51 4.673c.49.366 1.1.584 1.76.584"/><g clip-path="url(#c)"><path fill="#ADADAD" d="M278 381c0-13.807 11.193-25 25-25h322c13.807 0 25 11.193 25 25v168H278z"/><path fill="#ADADAD" d="M279 562.883c10.235 6.753 18.28 16.557 22.838 28.117h84.324c8.775-22.253 30.467-38 55.838-38 24.598 0 45.739 14.802 55.001 35.984C506.263 567.802 527.402 553 552 553c25.371 0 47.063 15.747 55.838 38H650V385H279z"/><path fill="#39C76D" d="M250.268 432.249c-9.699 0-19.398 3.994-26.244 10.841l-43.928 43.934c-6.846 6.847-10.84 16.547-10.84 26.247v65.045c-9.699.001-18.256 8.559-18.256 18.258 0 10.27 8.557 18.259 18.256 18.259h16.772A62 62 0 0 1 186 613c0-33.137 26.863-60 60-60 12.102 0 23.367 3.584 32.793 9.747V432.249z"/><path fill="#89E1F5" d="M179.519 487.038a33.48 33.48 0 0 0-10.263 24.12v22.273h26.121a53 53 0 0 1 4.073-5.273c9.742-12.093 24.669-19.832 41.406-19.832h19.681v-50.211h-50.965z"/><path fill="#F4DE70" d="M181.427 558.536h-12.171v19.78h12.171z"/><g clip-path="url(#d)"><rect width="96" height="96" fill="#858585" rx="48" transform="matrix(0 1 1 0 394 565)"/><circle cx="24" cy="24" r="24" fill="#39C76D" transform="matrix(0 1 1 0 418 589)"/><g style="mix-blend-mode:overlay"><path fill="url(#e)" d="M490 661h-96l96-96z"/><path fill="#676767" d="M490 661h-96l96-96z"/></g></g><g clip-path="url(#f)"><rect width="96" height="96" fill="#858585" rx="48" transform="matrix(0 1 1 0 504 565)"/><circle cx="24" cy="24" r="24" fill="#39C76D" transform="matrix(0 1 1 0 528 589)"/><g style="mix-blend-mode:overlay"><path fill="url(#g)" d="M600 661h-96l96-96z"/><path fill="#676767" d="M600 661h-96l96-96z"/></g></g><g clip-path="url(#h)"><rect width="96" height="96" fill="#858585" rx="48" transform="matrix(0 1 1 0 202 565)"/><circle cx="24" cy="24" r="24" fill="#39C76D" transform="matrix(0 1 1 0 226 589)"/><g style="mix-blend-mode:overlay"><path fill="url(#i)" d="M298 661h-96l96-96z"/><path fill="#676767" d="M298 661h-96l96-96z"/></g></g><path fill="#D6D6D6" d="M601 414H401v64h200z"/><g style="mix-blend-mode:overlay"><path fill="url(#j)" d="M646 367.5c-6.982-15.461-34.861-11.52-35-11.5h-46v198.412c20.178 4.457 36.54 19.073 43.45 38.208L763 605.5s-109.997-222.495-117-238"/><path fill="#676767" d="M646 367.5c-6.982-15.461-34.861-11.52-35-11.5h-46v198.412c20.178 4.457 36.54 19.073 43.45 38.208L763 605.5s-109.997-222.495-117-238"/></g><path fill="#D6D6D6" d="M607.633 590.488a59.85 59.85 0 0 1 4.339 24.345H638c6.627 0 12-5.373 12-12v-12.345zm-306 0a59.85 59.85 0 0 1 4.339 24.345h76.056a59.85 59.85 0 0 1 4.339-24.345z"/><g style="mix-blend-mode:overlay"><path fill="url(#k)" d="M231.677 473.953C224.302 480.491 220 489.754 220 499.017v59.893c7.866-3.788 16.685-5.91 26-5.91 12.191 0 23.533 3.636 33 9.883V432z"/><path fill="#676767" d="M231.677 473.953C224.302 480.491 220 489.754 220 499.017v59.893c7.866-3.788 16.685-5.91 26-5.91 12.191 0 23.533 3.636 33 9.883V432z"/></g></g><path fill="#F1D33D" d="m791.706 559.533-78.355-34-34 78.355 78.355 34z"/><path fill="#C8A802" d="m761.57 546.456-18.082-7.846-9.59 22.1 18.082 7.846z"/><path fill="#000" fill-opacity=".08" d="m751.022 541.879-37.671-16.347-34 78.356 37.67 16.346z"/><path stroke="#858585" stroke-linecap="round" stroke-width="18" d="m768.326 652.184-118.219-51.447"/><path fill="#28A656" d="M19 661h1646v275H19z" opacity=".8"/><path fill="url(#l)" fill-opacity=".2" d="M19 664h1645v274H19z" style="mix-blend-mode:color-burn"/><path fill="url(#m)" fill-opacity=".5" d="M20 746h1645v274H20z" style="mix-blend-mode:color-burn"/><path fill="url(#n)" fill-opacity=".5" d="M20 841h1645v274H20z" style="mix-blend-mode:color-burn"/></g></g><defs><linearGradient id="e" x1="372.329" x2="520.072" y1="618.75" y2="618.75" gradientUnits="userSpaceOnUse"><stop stop-color="#D9D9D9"/><stop offset="1" stop-color="#737373"/></linearGradient><linearGradient id="g" x1="482.329" x2="630.072" y1="618.75" y2="618.75" gradientUnits="userSpaceOnUse"><stop stop-color="#D9D9D9"/><stop offset="1" stop-color="#737373"/></linearGradient><linearGradient id="i" x1="180.329" x2="328.072" y1="618.75" y2="618.75" gradientUnits="userSpaceOnUse"><stop stop-color="#D9D9D9"/><stop offset="1" stop-color="#737373"/></linearGradient><linearGradient id="j" x1="675.86" x2="675.86" y1="299.11" y2="683.801" gradientUnits="userSpaceOnUse"><stop stop-color="#D9D9D9"/><stop offset="1" stop-color="#737373"/></linearGradient><linearGradient id="k" x1="245.966" x2="245.966" y1="394.979" y2="647.373" gradientUnits="userSpaceOnUse"><stop stop-color="#D9D9D9"/><stop offset="1" stop-color="#737373"/></linearGradient><linearGradient id="l" x1="973.688" x2="973.688" y1="697.381" y2="925.83" gradientUnits="userSpaceOnUse"><stop stop-color="#D9D9D9"/><stop offset="1" stop-color="#737373"/></linearGradient><linearGradient id="m" x1="974.688" x2="974.688" y1="779.381" y2="1007.83" gradientUnits="userSpaceOnUse"><stop stop-color="#D9D9D9"/><stop offset="1" stop-color="#737373"/></linearGradient><linearGradient id="n" x1="974.688" x2="974.688" y1="874.381" y2="1102.83" gradientUnits="userSpaceOnUse"><stop stop-color="#D9D9D9"/><stop offset="1" stop-color="#737373"/></linearGradient><clipPath id="b"><rect width="1600" height="900" x="42" y="35" fill="#fff" rx="32"/></clipPath><clipPath id="c"><path fill="#fff" d="M650 344H151v318h499z"/></clipPath><clipPath id="d"><rect width="96" height="96" fill="#fff" rx="48" transform="matrix(0 1 1 0 394 565)"/></clipPath><clipPath id="f"><rect width="96" height="96" fill="#fff" rx="48" transform="matrix(0 1 1 0 504 565)"/></clipPath><clipPath id="h"><rect width="96" height="96" fill="#fff" rx="48" transform="matrix(0 1 1 0 202 565)"/></clipPath><filter id="a" width="1673.44" height="973.44" x=".333" y=".753" color-interpolation-filters="sRGB" filterUnits="userSpaceOnUse"><feFlood flood-opacity="0" result="BackgroundImageFix"/><feColorMatrix in="SourceAlpha" result="hardAlpha" values="0 0 0 0 0 0 0 0 0 0 0 0 0 0 0 0 0 0 127 0"/><feOffset dx="-4.947" dy="2.473"/><feGaussianBlur stdDeviation="18.36"/><feComposite in2="hardAlpha" operator="out"/><feColorMatrix values="0 0 0 0 0 0 0 0 0 0 0 0 0 0 0 0 0 0 0.1 0"/><feBlend in2="BackgroundImageFix" result="effect1_dropShadow_813_5422"/><feBlend in="SourceGraphic" in2="effect1_dropShadow_813_5422" result="shape"/></filter></defs></svg>