<svg width="1600" height="900" viewBox="0 0 1600 900" fill="none" xmlns="http://www.w3.org/2000/svg">
<g clip-path="url(#clip0_813_6043)">
<rect width="1600" height="900" rx="32" fill="#16B2D4"/>
<path d="M308 290.75C308 254.906 331.125 223.688 363.5 212.703C363.5 210.969 363.5 209.234 363.5 207.5C363.5 156.625 404.547 115 456 115C490.109 115 520.172 134.078 535.781 161.828C544.453 155.469 555.438 152 567 152C597.641 152 622.5 176.859 622.5 207.5C622.5 215.016 620.766 221.375 618.453 227.734C652.562 234.672 678 264.734 678 300C678 341.047 644.469 374 604 374H391.25C345 374 308 337 308 290.75Z" fill="white" fill-opacity="0.8"/>
<path d="M1108 428.786C1108 404.152 1123.88 382.696 1146.1 375.147C1146.1 373.955 1146.1 372.763 1146.1 371.571C1146.1 336.607 1174.28 308 1209.6 308C1233.02 308 1253.65 321.112 1264.37 340.183C1270.32 335.812 1277.86 333.429 1285.8 333.429C1306.83 333.429 1323.9 350.513 1323.9 371.571C1323.9 376.737 1322.71 381.107 1321.12 385.478C1344.54 390.246 1362 410.906 1362 435.143C1362 463.353 1338.98 486 1311.2 486H1165.15C1133.4 486 1108 460.571 1108 428.786Z" fill="white" fill-opacity="0.8"/>
<path d="M530 423.607C530 393.299 549.5 366.902 576.8 357.614C576.8 356.147 576.8 354.681 576.8 353.214C576.8 310.196 611.412 275 654.8 275C683.562 275 708.912 291.132 722.075 314.596C729.387 309.219 738.65 306.286 748.4 306.286C774.237 306.286 795.2 327.306 795.2 353.214C795.2 359.569 793.737 364.946 791.787 370.324C820.55 376.19 842 401.609 842 431.429C842 466.136 813.725 494 779.6 494H600.2C561.2 494 530 462.714 530 423.607Z" fill="white" fill-opacity="0.8"/>
<rect x="691.922" y="350.711" width="218.156" height="244.727" rx="25" fill="#858585"/>
<path d="M910.078 570.438V375.711C910.078 361.904 898.885 350.711 885.078 350.711H817.082V595.438H885.078C898.885 595.438 910.078 584.245 910.078 570.438Z" fill="black" fill-opacity="0.08"/>
<rect x="714.297" y="374.484" width="173.406" height="198.578" fill="#EBEBEB"/>
<rect x="810.789" y="374.484" width="76.9141" height="198.578" fill="black" fill-opacity="0.08"/>
<path d="M800.301 304.562C819.857 304.562 836.433 316.295 842.186 332.531H850.117C863.924 332.531 875.117 343.724 875.117 357.531V385.461C875.117 390.984 870.64 395.461 865.117 395.461H736.883C731.36 395.461 726.883 390.984 726.883 385.461V357.531C726.883 343.724 738.076 332.531 751.883 332.531H758.416C764.168 316.295 780.745 304.562 800.301 304.562ZM801 336.727C793.277 336.727 787.016 342.988 787.016 350.711C787.016 358.434 793.277 364.695 801 364.695C808.723 364.695 814.984 358.434 814.984 350.711C814.984 342.988 808.723 336.727 801 336.727Z" fill="#D6D6D6"/>
<path d="M875.117 381.477V367.492H726.883V381.477C726.883 389.2 733.144 395.461 740.867 395.461H861.133C868.856 395.461 875.117 389.2 875.117 381.477Z" fill="#ADADAD"/>
<path d="M875.117 381.477V367.492H726.883V381.477H875.117Z" fill="#858585"/>
<path d="M875.117 367.492C875.117 348.872 860.56 333.652 842.206 332.591C839.214 324.1 833.263 316.837 825.473 311.833V395.461H861.133C868.856 395.461 875.117 389.2 875.117 381.476V367.492Z" fill="black" fill-opacity="0.08"/>
<rect x="726.883" y="403.852" width="18.1797" height="9.78906" fill="black"/>
<rect x="789.812" y="403.852" width="41.9531" height="9.78906" fill="black"/>
<rect x="757.648" y="403.852" width="23.7734" height="9.78906" fill="black"/>
<rect x="726.883" y="422.031" width="18.1797" height="9.78906" fill="black"/>
<rect x="757.648" y="422.031" width="74.1172" height="9.78906" fill="black"/>
<rect x="726.883" y="440.211" width="18.1797" height="9.78906" fill="black"/>
<rect x="757.648" y="440.211" width="37.7578" height="9.78906" fill="black"/>
<rect x="803.797" y="440.211" width="27.9688" height="9.78906" fill="black"/>
<rect x="726.883" y="458.391" width="18.1797" height="9.78906" fill="black"/>
<rect x="757.648" y="458.391" width="13.9844" height="9.78906" fill="black"/>
<rect x="785.617" y="458.391" width="46.1484" height="9.78906" fill="black"/>
<rect x="726.883" y="476.57" width="18.1797" height="9.78906" fill="black"/>
<rect x="757.648" y="476.57" width="27.9688" height="9.78906" fill="black"/>
<rect x="795.406" y="476.57" width="27.9688" height="9.78906" fill="black"/>
<path d="M801 531.027L822.914 550L870 472" stroke="#228C49" stroke-width="12"/>
<rect x="220.898" y="380.078" width="36.3594" height="138.445" rx="18.1797" fill="black"/>
<rect x="359.344" y="380.078" width="36.3594" height="138.445" rx="18.1797" fill="black"/>
<rect x="274.039" y="380.078" width="18.1797" height="138.445" rx="9.08984" fill="black"/>
<rect x="309" y="380.078" width="36.3594" height="138.445" rx="18.1797" fill="black"/>
<path d="M453.389 389.518V331.148C453.389 323.416 447.121 317.148 439.389 317.148H374.727" stroke="#0068A1" stroke-width="18" stroke-linecap="round"/>
<path d="M164.961 389.518V331.148C164.961 323.416 171.229 317.148 178.961 317.148H243.623" stroke="#0068A1" stroke-width="18" stroke-linecap="round"/>
<path d="M453.389 510.133V568.502C453.389 576.234 447.121 582.502 439.389 582.502H374.727" stroke="#0068A1" stroke-width="18" stroke-linecap="round"/>
<path d="M164.961 510.133V568.502C164.961 576.234 171.229 582.502 178.961 582.502H243.623" stroke="#0068A1" stroke-width="18" stroke-linecap="round"/>
<path d="M1306.07 588.62C1299.25 597.142 1286.18 597.142 1279.37 588.62C1250.39 551.693 1183.92 463.635 1183.92 413.641C1183.92 353.42 1232.78 304.562 1293 304.562C1353.22 304.562 1402.08 353.42 1402.08 413.641C1402.08 463.635 1335.61 551.693 1306.07 588.62ZM1293 377.281C1279.93 377.281 1268 384.667 1261.19 395.461C1254.94 406.823 1254.94 421.026 1261.19 431.82C1268 443.183 1279.93 450 1293 450C1305.5 450 1317.43 443.183 1324.25 431.82C1330.5 421.026 1330.5 406.823 1324.25 395.461C1317.43 384.667 1305.5 377.281 1293 377.281Z" fill="#B31950"/>
<path d="M1324.25 395.461C1330.5 406.823 1330.5 421.026 1324.25 431.82C1322.35 434.979 1320.06 437.787 1317.47 440.194V574.109C1349.92 532.086 1402.08 457.928 1402.08 413.641C1402.08 361.834 1365.92 318.436 1317.47 307.321V387.334C1320.06 389.723 1322.35 392.46 1324.25 395.461Z" fill="#870332"/>
</g>
<defs>
<clipPath id="clip0_813_6043">
<rect width="1600" height="900" rx="32" fill="white"/>
</clipPath>
</defs>
</svg>
