<svg width="1600" height="900" viewBox="0 0 1600 900" fill="none" xmlns="http://www.w3.org/2000/svg">
<g clip-path="url(#clip0_813_7096)">
<rect width="1600" height="900" rx="32" fill="#16B2D4"/>
<rect x="953.638" y="273" width="291.594" height="333.922" transform="rotate(3.02779 953.638 273)" fill="#EBEBEB"/>
<rect x="953.638" y="273" width="291.594" height="333.922" transform="rotate(3.02779 953.638 273)" fill="black" fill-opacity="0.15"/>
<rect x="1115.67" y="281.57" width="129.336" height="333.922" transform="rotate(3.02779 1115.67 281.57)" fill="black" fill-opacity="0.08"/>
<rect x="1115.67" y="281.57" width="129.336" height="333.922" transform="rotate(3.02779 1115.67 281.57)" fill="black" fill-opacity="0.15"/>
<rect x="928.203" y="298.016" width="291.594" height="333.922" fill="#EBEBEB"/>
<rect x="949.367" y="347.398" width="30.5703" height="16.4609" fill="black"/>
<rect x="1055.19" y="347.398" width="70.5469" height="16.4609" fill="black"/>
<rect x="1001.1" y="347.398" width="39.9766" height="16.4609" fill="black"/>
<rect x="949.367" y="377.969" width="30.5703" height="16.4609" fill="black"/>
<rect x="1001.1" y="377.969" width="124.633" height="16.4609" fill="black"/>
<rect x="949.367" y="408.539" width="30.5703" height="16.4609" fill="black"/>
<rect x="1001.1" y="408.539" width="63.4922" height="16.4609" fill="black"/>
<rect x="949.367" y="439.109" width="30.5703" height="16.4609" fill="black"/>
<rect x="1001.1" y="439.109" width="23.5156" height="16.4609" fill="black"/>
<rect x="949.367" y="469.68" width="30.5703" height="16.4609" fill="black"/>
<circle cx="1107.5" cy="521.499" r="59.5" fill="#DB699B"/>
<path d="M1167 521.499C1167 509.24 1163.21 497.279 1156.16 487.254C1149.1 477.229 1139.12 469.627 1127.58 465.49C1116.04 461.353 1103.5 460.881 1091.69 464.139C1079.87 467.398 1069.34 474.227 1061.55 483.694L1107.5 521.499H1167Z" fill="#F20B0B"/>
<path d="M1164.47 539.778C1166.32 533.963 1167.27 527.899 1167.28 521.796L1107.67 521.668L1164.47 539.778Z" fill="#16B2D4"/>
<path d="M1164.47 539.778C1166.32 533.963 1167.27 527.899 1167.28 521.796L1107.67 521.668L1164.47 539.778Z" fill="#16B2D4"/>
<path d="M1164.47 539.778C1166.32 533.963 1167.27 527.899 1167.28 521.796L1107.67 521.668L1164.47 539.778Z" fill="#16B2D4"/>
<path d="M1164.47 539.778C1166.32 533.963 1167.27 527.899 1167.28 521.796L1107.67 521.668L1164.47 539.778Z" fill="#E696B9"/>
<path d="M1061.42 484.056C1056.03 490.674 1052.14 498.37 1049.98 506.624C1047.83 514.878 1047.47 523.498 1048.94 531.901L1107.67 521.668L1061.42 484.056Z" fill="#16B2D4"/>
<path d="M1061.42 484.056C1056.03 490.674 1052.14 498.37 1049.98 506.624C1047.83 514.878 1047.47 523.498 1048.94 531.901L1107.67 521.668L1061.42 484.056Z" fill="#16B2D4"/>
<path d="M1061.42 484.056C1056.03 490.674 1052.14 498.37 1049.98 506.624C1047.83 514.878 1047.47 523.498 1048.94 531.901L1107.67 521.668L1061.42 484.056Z" fill="#16B2D4"/>
<path d="M1061.42 484.056C1056.03 490.674 1052.14 498.37 1049.98 506.624C1047.83 514.878 1047.47 523.498 1048.94 531.901L1107.67 521.668L1061.42 484.056Z" fill="#16B2D4"/>
<path d="M1048.93 531.839C1050.38 540.244 1053.63 548.238 1058.44 555.283C1063.25 562.328 1069.51 568.258 1076.81 572.674L1107.67 521.668L1048.93 531.839Z" fill="#16B2D4"/>
<path d="M1048.93 531.839C1050.38 540.244 1053.63 548.238 1058.44 555.283C1063.25 562.328 1069.51 568.258 1076.81 572.674L1107.67 521.668L1048.93 531.839Z" fill="#16B2D4"/>
<path d="M1048.93 531.839C1050.38 540.244 1053.63 548.238 1058.44 555.283C1063.25 562.328 1069.51 568.258 1076.81 572.674L1107.67 521.668L1048.93 531.839Z" fill="#16B2D4"/>
<path d="M1048.93 531.839C1050.38 540.244 1053.63 548.238 1058.44 555.283C1063.25 562.328 1069.51 568.258 1076.81 572.674L1107.67 521.668L1048.93 531.839Z" fill="#0068A1"/>
<path d="M1073.25 570.346C1079.14 574.512 1085.74 577.573 1092.73 579.381L1107.67 521.669L1073.25 570.346Z" fill="#16B2D4"/>
<path d="M1073.25 570.346C1079.14 574.512 1085.74 577.573 1092.73 579.381L1107.67 521.669L1073.25 570.346Z" fill="#16B2D4"/>
<path d="M1073.25 570.346C1079.14 574.512 1085.74 577.573 1092.73 579.381L1107.67 521.669L1073.25 570.346Z" fill="#16B2D4"/>
<path d="M1073.25 570.346C1079.14 574.512 1085.74 577.573 1092.73 579.381L1107.67 521.669L1073.25 570.346Z" fill="#333333"/>
<path d="M1094.28 463.577C1081.36 466.555 1069.79 473.76 1061.42 484.049L1107.67 521.669L1094.28 463.577Z" fill="#B2B2B2"/>
<rect x="1090.46" y="298.016" width="129.336" height="333.922" fill="black" fill-opacity="0.08"/>
<path d="M1018.5 209.863C1018.5 209.863 951.964 116.07 817 115C682.036 113.929 612.574 209.863 612.574 209.863" stroke="white" stroke-width="28"/>
<path d="M624.82 114.318L607.102 212.658L704.814 210.459" stroke="white" stroke-width="27"/>
<path d="M616.74 734.536C616.74 734.536 683.277 828.329 818.24 829.4C953.204 830.471 1022.67 734.536 1022.67 734.536" stroke="white" stroke-width="28"/>
<path d="M1010.42 830.083L1028.14 731.742L930.426 733.941" stroke="white" stroke-width="27"/>
<rect x="434.592" y="329.465" width="266.987" height="250.112" fill="#D6D6D6"/>
<g style="mix-blend-mode:overlay">
<path d="M434.592 480.044C434.592 477.153 436.152 474.487 438.672 473.07L689.66 331.996C694.992 328.998 701.579 332.852 701.579 338.97V521.554C701.579 525.973 697.998 529.554 693.579 529.554H442.592C438.174 529.554 434.592 525.973 434.592 521.554V480.044Z" fill="#333333"/>
</g>
<path d="M404 319.781C404 300.941 419.188 285 438.714 285H693.286C712.089 285 728 300.941 728 319.781V551.656C728 571.221 712.089 586.438 693.286 586.438H438.714C419.188 586.438 404 571.221 404 551.656V319.781ZM427.143 632.812V609.625H704.857V632.812C704.857 645.855 694.009 656 681.714 656H450.286C437.268 656 427.143 645.855 427.143 632.812ZM473.429 331.375C460.411 331.375 450.286 342.244 450.286 354.562V447.312C450.286 460.355 460.411 470.5 473.429 470.5H658.571C670.866 470.5 681.714 460.355 681.714 447.312V354.562C681.714 342.244 670.866 331.375 658.571 331.375H473.429ZM461.857 545.859C471.259 545.859 479.214 538.613 479.214 528.469C479.214 519.049 471.259 511.078 461.857 511.078C451.732 511.078 444.5 519.049 444.5 528.469C444.5 538.613 451.732 545.859 461.857 545.859ZM566 528.469C566 534.99 571.062 540.062 577.571 540.062H670.143C675.929 540.062 681.714 534.99 681.714 528.469C681.714 522.672 675.929 516.875 670.143 516.875H577.571C571.062 516.875 566 522.672 566 528.469Z" fill="#F5F5F5"/>
</g>
<defs>
<clipPath id="clip0_813_7096">
<rect width="1600" height="900" rx="32" fill="white"/>
</clipPath>
</defs>
</svg>
