<svg xmlns="http://www.w3.org/2000/svg" width="1674" height="975" fill="none"><g filter="url(#a)"><g clip-path="url(#b)"><rect width="1600" height="900" x="42" y="35" fill="#16B2D4" rx="32"/><path fill="#EBEBEB" d="m995.638 308 291.187 15.402-17.638 333.456L978 641.456z"/><path fill="#000" fill-opacity=".15" d="m995.638 308 291.187 15.402-17.638 333.456L978 641.456z"/><path fill="#000" fill-opacity=".08" d="m1157.67 316.57 129.155 6.832-17.637 333.455-129.156-6.831z"/><path fill="#000" fill-opacity=".15" d="m1157.67 316.57 129.155 6.832-17.637 333.455-129.156-6.831z"/><path fill="#EBEBEB" d="M970.203 333.016h291.594v333.922H970.203z"/><path fill="#000" d="M991.367 382.398h30.57v16.461h-30.57zm105.823 0h70.547v16.461h-70.547zm-54.09 0h39.977v16.461H1043.1zm-51.733 30.571h30.57v16.461h-30.57zm51.733 0h124.633v16.461H1043.1zm-51.733 30.57h30.57V460h-30.57zm51.733 0h63.492V460H1043.1zm-51.733 30.57h30.57v16.461h-30.57zm51.733 0h23.516v16.461H1043.1zm-51.733 30.571h30.57v16.461h-30.57z"/><circle cx="1149.5" cy="556.499" r="59.5" fill="#DB699B"/><path fill="#F20B0B" d="M1209 556.499a59.54 59.54 0 0 0-10.84-34.245 59.53 59.53 0 0 0-28.58-21.764 59.5 59.5 0 0 0-35.89-1.351 59.5 59.5 0 0 0-30.14 19.555l45.95 37.805z"/><path fill="#16B2D4" d="M1206.47 574.778a59.6 59.6 0 0 0 2.81-17.982l-59.61-.128z"/><path fill="#16B2D4" d="M1206.47 574.778a59.6 59.6 0 0 0 2.81-17.982l-59.61-.128z"/><path fill="#16B2D4" d="M1206.47 574.778a59.6 59.6 0 0 0 2.81-17.982l-59.61-.128z"/><path fill="#E696B9" d="M1206.47 574.778a59.6 59.6 0 0 0 2.81-17.982l-59.61-.128z"/><path fill="#16B2D4" d="M1103.42 519.056a59.56 59.56 0 0 0-12.48 47.845l58.73-10.233z"/><path fill="#16B2D4" d="M1103.42 519.056a59.56 59.56 0 0 0-12.48 47.845l58.73-10.233z"/><path fill="#16B2D4" d="M1103.42 519.056a59.56 59.56 0 0 0-12.48 47.845l58.73-10.233z"/><path fill="#16B2D4" d="M1103.42 519.056a59.56 59.56 0 0 0-12.48 47.845l58.73-10.233z"/><path fill="#16B2D4" d="M1090.93 566.839a59.5 59.5 0 0 0 9.51 23.444 59.6 59.6 0 0 0 18.37 17.391l30.86-51.006z"/><path fill="#16B2D4" d="M1090.93 566.839a59.5 59.5 0 0 0 9.51 23.444 59.6 59.6 0 0 0 18.37 17.391l30.86-51.006z"/><path fill="#16B2D4" d="M1090.93 566.839a59.5 59.5 0 0 0 9.51 23.444 59.6 59.6 0 0 0 18.37 17.391l30.86-51.006z"/><path fill="#0068A1" d="M1090.93 566.839a59.5 59.5 0 0 0 9.51 23.444 59.6 59.6 0 0 0 18.37 17.391l30.86-51.006z"/><path fill="#16B2D4" d="M1115.25 605.346a59.6 59.6 0 0 0 19.48 9.035l14.94-57.712z"/><path fill="#16B2D4" d="M1115.25 605.346a59.6 59.6 0 0 0 19.48 9.035l14.94-57.712z"/><path fill="#16B2D4" d="M1115.25 605.346a59.6 59.6 0 0 0 19.48 9.035l14.94-57.712z"/><path fill="#333" d="M1115.25 605.346a59.6 59.6 0 0 0 19.48 9.035l14.94-57.712z"/><path fill="#B2B2B2" d="M1136.28 498.577a59.64 59.64 0 0 0-32.86 20.472l46.25 37.62z"/><path fill="#000" fill-opacity=".08" d="M1132.46 333.016h129.336v333.922H1132.46z"/><path stroke="#fff" stroke-width="28" d="M1060.5 244.863S993.964 151.07 859 150c-134.964-1.071-204.426 94.863-204.426 94.863"/><path stroke="#fff" stroke-width="27" d="m666.82 149.318-17.718 98.34 97.712-2.199"/><path stroke="#fff" stroke-width="28" d="M658.74 769.536s66.537 93.793 201.5 94.864c134.964 1.071 204.43-94.864 204.43-94.864"/><path stroke="#fff" stroke-width="27" d="m1052.42 865.083 17.72-98.341-97.714 2.199"/><path fill="#D6D6D6" d="M476.592 364.465h266.987v250.112H476.592z"/><path fill="#333" d="M476.592 515.044a8 8 0 0 1 4.08-6.974L731.66 366.996c5.332-2.998 11.919.856 11.919 6.974v182.584a8 8 0 0 1-8 8H484.592a8 8 0 0 1-8-8z" style="mix-blend-mode:overlay"/><path fill="#F5F5F5" d="M446 354.781c0-18.84 15.188-34.781 34.714-34.781h254.572C754.089 320 770 335.941 770 354.781v231.875c0 19.565-15.911 34.782-34.714 34.782H480.714c-19.526 0-34.714-15.217-34.714-34.782zm23.143 313.031v-23.187h277.714v23.187c0 13.043-10.848 23.188-23.143 23.188H492.286c-13.018 0-23.143-10.145-23.143-23.188m46.286-301.437c-13.018 0-23.143 10.869-23.143 23.187v92.75c0 13.043 10.125 23.188 23.143 23.188h185.142c12.295 0 23.143-10.145 23.143-23.188v-92.75c0-12.318-10.848-23.187-23.143-23.187zm-11.572 214.484c9.402 0 17.357-7.246 17.357-17.39 0-9.42-7.955-17.391-17.357-17.391-10.125 0-17.357 7.971-17.357 17.391 0 10.144 7.232 17.39 17.357 17.39M608 563.469c0 6.521 5.062 11.593 11.571 11.593h92.572c5.786 0 11.571-5.072 11.571-11.593 0-5.797-5.785-11.594-11.571-11.594h-92.572c-6.509 0-11.571 5.797-11.571 11.594"/></g></g><defs><clipPath id="b"><rect width="1600" height="900" x="42" y="35" fill="#fff" rx="32"/></clipPath><filter id="a" width="1673.44" height="973.44" x=".333" y=".753" color-interpolation-filters="sRGB" filterUnits="userSpaceOnUse"><feFlood flood-opacity="0" result="BackgroundImageFix"/><feColorMatrix in="SourceAlpha" result="hardAlpha" values="0 0 0 0 0 0 0 0 0 0 0 0 0 0 0 0 0 0 127 0"/><feOffset dx="-4.947" dy="2.473"/><feGaussianBlur stdDeviation="18.36"/><feComposite in2="hardAlpha" operator="out"/><feColorMatrix values="0 0 0 0 0 0 0 0 0 0 0 0 0 0 0 0 0 0 0.1 0"/><feBlend in2="BackgroundImageFix" result="effect1_dropShadow_813_7096"/><feBlend in="SourceGraphic" in2="effect1_dropShadow_813_7096" result="shape"/></filter></defs></svg>