<svg width="1600" height="900" viewBox="0 0 1600 900" fill="none" xmlns="http://www.w3.org/2000/svg">
<g clip-path="url(#clip0_813_5589)">
<rect width="1600" height="900" rx="32" fill="#16B2D4"/>
<path d="M195 204.75C195 168.906 218.125 137.688 250.5 126.703C250.5 124.969 250.5 123.234 250.5 121.5C250.5 70.625 291.547 29 343 29C377.109 29 407.172 48.0781 422.781 75.8281C431.453 69.4688 442.438 66 454 66C484.641 66 509.5 90.8594 509.5 121.5C509.5 129.016 507.766 135.375 505.453 141.734C539.562 148.672 565 178.734 565 214C565 255.047 531.469 288 491 288H278.25C232 288 195 251 195 204.75Z" fill="white" fill-opacity="0.8"/>
<path d="M1157 234.786C1157 210.152 1172.88 188.696 1195.1 181.147C1195.1 179.955 1195.1 178.763 1195.1 177.571C1195.1 142.607 1223.28 114 1258.6 114C1282.02 114 1302.65 127.112 1313.37 146.183C1319.32 141.812 1326.86 139.429 1334.8 139.429C1355.83 139.429 1372.9 156.513 1372.9 177.571C1372.9 182.737 1371.71 187.107 1370.12 191.478C1393.54 196.246 1411 216.906 1411 241.143C1411 269.353 1387.98 292 1360.2 292H1214.15C1182.4 292 1157 266.571 1157 234.786Z" fill="white" fill-opacity="0.8"/>
<path d="M412 292.607C412 262.299 431.5 235.902 458.8 226.614C458.8 225.147 458.8 223.681 458.8 222.214C458.8 179.196 493.412 144 536.8 144C565.562 144 590.912 160.132 604.075 183.596C611.387 178.219 620.65 175.286 630.4 175.286C656.237 175.286 677.2 196.306 677.2 222.214C677.2 228.569 675.737 233.946 673.787 239.324C702.55 245.19 724 270.609 724 300.429C724 335.136 695.725 363 661.6 363H482.2C443.2 363 412 331.714 412 292.607Z" fill="white" fill-opacity="0.8"/>
<path d="M181 598.669V378.932C181 362.352 190.562 347.047 206.5 340.67L377.35 272.435C381.812 270.522 387.55 270.522 392.012 272.435L562.862 340.67C578.8 347.047 589 362.352 589 378.932V598.669C589 607.597 581.987 595.753 573.7 595.753H543.1C534.175 595.753 527.8 607.597 527.8 598.669V412.093C527.8 401.252 518.237 391.686 507.4 391.686H262.6C251.125 391.686 242.2 401.252 242.2 412.093V598.669C242.2 607.597 235.187 595.753 226.9 595.753H196.3C187.375 595.753 181 607.597 181 598.669Z" fill="#28A656"/>
<path d="M589 379.061C589 362.49 578.831 347.194 562.941 340.82L441 292V391.808H507.645C518.45 391.808 527.984 401.368 527.984 412.202V598.671C527.984 607.593 534.34 595.757 543.238 595.757H573.746C582.009 595.757 589 607.593 589 598.671V379.061Z" fill="black" fill-opacity="0.08"/>
<rect x="167" y="586" width="437" height="37" rx="10" fill="#228C49"/>
<path d="M177 363L385.455 276L593 363" stroke="#228C49" stroke-width="10" stroke-linecap="round"/>
<rect x="230" y="364" width="308" height="40" fill="#76E49E"/>
<rect x="230" y="375" width="308" height="18" fill="#39C76D"/>
<rect x="288.685" y="515.286" width="71.0761" height="71.0761" fill="#F1D33D"/>
<rect x="316.022" y="515.286" width="16.4022" height="20.0471" fill="#C8A802"/>
<rect x="328.779" y="515.286" width="30.9819" height="71.0761" fill="black" fill-opacity="0.08"/>
<rect x="288.685" y="444.21" width="71.0761" height="71.0761" fill="#F1D33D"/>
<rect x="316.022" y="444.21" width="16.4022" height="20.0471" fill="#C8A802"/>
<rect x="328.779" y="444.21" width="30.9819" height="71.0761" fill="black" fill-opacity="0.08"/>
<rect x="419.902" y="515.286" width="71.0761" height="71.0761" fill="#F1D33D"/>
<rect x="447.239" y="515.286" width="16.4022" height="20.0471" fill="#C8A802"/>
<rect x="459.996" y="515.286" width="30.9819" height="71.0761" fill="black" fill-opacity="0.08"/>
<rect x="419.902" y="444.21" width="71.0761" height="71.0761" fill="#F1D33D"/>
<rect x="447.239" y="444.21" width="16.4022" height="20.0471" fill="#C8A802"/>
<rect x="459.996" y="444.21" width="30.9819" height="71.0761" fill="black" fill-opacity="0.08"/>
<rect x="217.609" y="515.286" width="71.0761" height="71.0761" fill="#F1D33D"/>
<rect x="244.946" y="515.286" width="16.4022" height="20.0471" fill="#C8A802"/>
<rect x="257.703" y="515.286" width="30.9819" height="71.0761" fill="black" fill-opacity="0.08"/>
<path d="M550.107 581.021C550.107 583.971 547.715 586.362 544.765 586.362H474.449C471.499 586.362 469.108 583.971 469.108 581.021V566.503H550.107V581.021ZM544.765 540.801C547.715 540.801 550.107 543.192 550.107 546.143V561.051H469.108V546.143C469.108 543.192 471.499 540.801 474.449 540.801H544.765Z" fill="#76E49E"/>
<path d="M550.105 581.021V546.143C550.105 543.192 547.714 540.801 544.764 540.801H518.952V586.362H544.764C547.714 586.362 550.105 583.971 550.105 581.021Z" fill="black" fill-opacity="0.08"/>
<rect x="542.708" y="561.051" width="7.39889" height="5.45181" fill="#28A656"/>
<rect x="476.509" y="561.051" width="66.2006" height="5.45181" fill="#228C49"/>
<rect x="469.109" y="561.051" width="7.39889" height="5.45181" fill="#28A656"/>
<path d="M478.942 586.362H540.47C542.886 586.362 545.096 585.482 546.797 584.025H472.615C474.316 585.482 476.527 586.362 478.942 586.362Z" fill="#39C76D"/>
<rect x="469.109" y="558.714" width="80.9984" height="2.33649" fill="#39C76D"/>
<circle cx="479.427" cy="551.121" r="2.92061" fill="#39C76D"/>
<path d="M479.426 554.041C481.039 554.041 482.347 552.734 482.347 551.121C482.347 550.165 481.888 549.317 481.179 548.784L477.674 553.457C478.162 553.824 478.769 554.041 479.426 554.041Z" fill="black" fill-opacity="0.08"/>
<circle cx="539.786" cy="551.121" r="2.92061" fill="#39C76D"/>
<path d="M539.785 554.041C541.398 554.041 542.706 552.734 542.706 551.121C542.706 550.165 542.247 549.317 541.538 548.784L538.033 553.457C538.521 553.824 539.128 554.041 539.785 554.041Z" fill="black" fill-opacity="0.08"/>
<circle cx="479.427" cy="576.044" r="2.92061" fill="#39C76D"/>
<path d="M479.426 578.964C481.039 578.964 482.347 577.657 482.347 576.044C482.347 575.088 481.888 574.24 481.179 573.707L477.674 578.38C478.162 578.747 478.769 578.964 479.426 578.964Z" fill="black" fill-opacity="0.08"/>
<circle cx="539.786" cy="576.044" r="2.92061" fill="#39C76D"/>
<path d="M539.785 578.964C541.398 578.964 542.706 577.657 542.706 576.044C542.706 575.088 542.247 574.24 541.538 573.707L538.033 578.38C538.521 578.747 539.128 578.964 539.785 578.964Z" fill="black" fill-opacity="0.08"/>
<path d="M550.107 535.459C550.107 538.409 547.715 540.801 544.765 540.801H474.449C471.499 540.801 469.108 538.409 469.108 535.459V520.941H550.107V535.459ZM544.765 495.239C547.715 495.239 550.107 497.631 550.107 500.581V515.489H469.108V500.581C469.108 497.631 471.499 495.239 474.449 495.239H544.765Z" fill="#76E49E"/>
<path d="M550.105 535.459V500.581C550.105 497.631 547.714 495.239 544.764 495.239H518.952V540.801H544.764C547.714 540.801 550.105 538.409 550.105 535.459Z" fill="black" fill-opacity="0.08"/>
<rect x="542.708" y="515.489" width="7.39889" height="5.45181" fill="#28A656"/>
<rect x="476.509" y="515.489" width="66.2006" height="5.45181" fill="#228C49"/>
<rect x="469.109" y="515.489" width="7.39889" height="5.45181" fill="#28A656"/>
<path d="M478.942 540.8H540.47C542.886 540.8 545.096 539.921 546.797 538.464H472.615C474.316 539.921 476.527 540.8 478.942 540.8Z" fill="#39C76D"/>
<rect x="469.109" y="513.152" width="80.9984" height="2.33649" fill="#39C76D"/>
<circle cx="479.427" cy="505.559" r="2.92061" fill="#39C76D"/>
<path d="M479.426 508.48C481.039 508.48 482.347 507.172 482.347 505.559C482.347 504.604 481.888 503.756 481.179 503.223L477.674 507.896C478.162 508.263 478.769 508.48 479.426 508.48Z" fill="black" fill-opacity="0.08"/>
<circle cx="539.786" cy="505.559" r="2.92061" fill="#39C76D"/>
<path d="M539.785 508.48C541.398 508.48 542.706 507.172 542.706 505.559C542.706 504.604 542.247 503.756 541.538 503.223L538.033 507.896C538.521 508.263 539.128 508.48 539.785 508.48Z" fill="black" fill-opacity="0.08"/>
<circle cx="479.427" cy="530.482" r="2.92061" fill="#39C76D"/>
<path d="M479.426 533.403C481.039 533.403 482.347 532.095 482.347 530.482C482.347 529.527 481.888 528.678 481.179 528.146L477.674 532.819C478.162 533.185 478.769 533.403 479.426 533.403Z" fill="black" fill-opacity="0.08"/>
<circle cx="539.786" cy="530.482" r="2.92061" fill="#39C76D"/>
<path d="M539.785 533.403C541.398 533.403 542.706 532.095 542.706 530.482C542.706 529.527 542.247 528.678 541.538 528.146L538.033 532.819C538.521 533.185 539.128 533.403 539.785 533.403Z" fill="black" fill-opacity="0.08"/>
<g clip-path="url(#clip1_813_5589)">
<path d="M253.289 498.279C252.815 499.277 253.24 500.47 254.237 500.944C255.235 501.418 256.428 500.993 256.902 499.995L255.096 499.137L253.289 498.279ZM274.402 463.155L275.26 461.348L271.647 459.632L270.789 461.438L272.596 462.297L274.402 463.155ZM255.096 499.137L256.902 499.995L274.402 463.155L272.596 462.297L270.789 461.438L253.289 498.279L255.096 499.137Z" fill="#E4C837"/>
<path d="M273.393 462.776C272.699 463.023 271.967 462.675 271.72 461.981L271.282 460.748C270.074 457.356 271.785 453.621 275.253 452.386L276.487 451.947C277.104 451.728 277.94 452.125 278.159 452.742L278.598 453.975C279.833 457.444 278.018 461.13 274.626 462.337L273.393 462.776Z" fill="#E4C837"/>
<path d="M270.098 471.81C269.432 471.494 269.161 470.731 269.477 470.066L270.038 468.883C271.583 465.631 275.434 464.199 278.76 465.779L279.942 466.341C280.533 466.622 280.844 467.494 280.563 468.085L280.001 469.268C278.421 472.594 274.532 473.917 271.28 472.372L270.098 471.81Z" fill="#E4C837"/>
<path d="M280.001 469.268L280.563 468.086C280.705 467.788 280.696 467.418 280.577 467.089L269.431 471.101C269.547 471.401 269.776 471.658 270.098 471.81L271.28 472.372C274.532 473.917 278.421 472.594 280.001 469.268Z" fill="black" fill-opacity="0.08"/>
<path d="M268.573 469.636C268.257 470.301 267.494 470.573 266.829 470.257L265.646 469.695C262.394 468.151 260.962 464.3 262.542 460.974L263.104 459.792C263.385 459.2 264.257 458.89 264.848 459.171L266.031 459.733C269.356 461.312 270.679 465.202 269.135 468.454L268.573 469.636Z" fill="#E4C837"/>
<path d="M266.031 459.732L264.848 459.17C264.55 459.029 264.18 459.038 263.851 459.157L267.864 470.302C268.163 470.187 268.42 469.957 268.573 469.636L269.135 468.453C270.679 465.201 269.356 461.312 266.031 459.732Z" fill="black" fill-opacity="0.08"/>
<path d="M265.736 480.991C265.071 480.675 264.799 479.912 265.115 479.246L265.677 478.064C267.222 474.812 271.072 473.38 274.398 474.96L275.581 475.522C276.172 475.803 276.482 476.675 276.202 477.266L275.64 478.448C274.06 481.774 270.171 483.097 266.919 481.552L265.736 480.991Z" fill="#E4C837"/>
<path d="M275.64 478.449L276.202 477.266C276.343 476.968 276.335 476.599 276.215 476.269L265.07 480.282C265.186 480.582 265.415 480.839 265.736 480.991L266.919 481.553C270.171 483.098 274.06 481.775 275.64 478.449Z" fill="black" fill-opacity="0.08"/>
<path d="M264.212 478.817C263.896 479.482 263.132 479.754 262.467 479.438L261.285 478.876C258.033 477.331 256.601 473.481 258.181 470.155L258.743 468.972C259.023 468.381 259.896 468.071 260.487 468.351L261.669 468.913C264.995 470.493 266.318 474.382 264.773 477.634L264.212 478.817Z" fill="#E4C837"/>
<path d="M261.669 468.913L260.487 468.351C260.189 468.209 259.819 468.218 259.49 468.337L263.502 479.483C263.802 479.367 264.059 479.138 264.212 478.817L264.773 477.634C266.318 474.382 264.995 470.493 261.669 468.913Z" fill="black" fill-opacity="0.08"/>
<path d="M261.157 490.631C260.492 490.315 260.22 489.552 260.536 488.887L261.098 487.705C262.642 484.453 266.493 483.021 269.819 484.601L271.001 485.162C271.593 485.443 271.903 486.315 271.622 486.907L271.061 488.089C269.481 491.415 265.591 492.738 262.339 491.193L261.157 490.631Z" fill="#E4C837"/>
<path d="M271.061 488.09L271.622 486.907C271.764 486.609 271.755 486.239 271.636 485.91L260.49 489.922C260.606 490.222 260.836 490.479 261.157 490.632L262.339 491.193C265.591 492.738 269.481 491.415 271.061 488.09Z" fill="black" fill-opacity="0.08"/>
<path d="M259.632 488.458C259.316 489.123 258.553 489.394 257.888 489.078L256.705 488.517C253.454 486.972 252.022 483.121 253.601 479.795L254.163 478.613C254.444 478.022 255.316 477.711 255.907 477.992L257.09 478.554C260.416 480.134 261.739 484.023 260.194 487.275L259.632 488.458Z" fill="#E4C837"/>
<path d="M257.09 478.553L255.907 477.992C255.609 477.85 255.24 477.859 254.911 477.978L258.923 489.124C259.223 489.008 259.48 488.778 259.632 488.457L260.194 487.275C261.739 484.023 260.416 480.133 257.09 478.553Z" fill="black" fill-opacity="0.08"/>
<path d="M277.464 452.027C277.781 452.175 278.049 452.431 278.159 452.742L278.598 453.975C279.833 457.444 278.018 461.13 274.626 462.337L273.852 462.612L256.298 499.568C256.189 499.797 256.012 500.105 255.686 500.262C255.28 500.459 254.864 500.364 254.864 500.364L255.385 499.416L272.467 462.764C272.452 462.758 272.435 462.753 272.42 462.746L277.464 452.027Z" fill="black" fill-opacity="0.08"/>
</g>
<g clip-path="url(#clip2_813_5589)">
<path d="M249.832 500.847C249.845 501.951 250.751 502.836 251.855 502.823C252.96 502.81 253.845 501.904 253.832 500.8L251.832 500.823L249.832 500.847ZM253.355 460.017L253.332 458.017L249.332 458.064L249.356 460.064L251.356 460.04L253.355 460.017ZM251.832 500.823L253.832 500.8L253.355 460.017L251.356 460.04L249.356 460.064L249.832 500.847L251.832 500.823Z" fill="#E4C837"/>
<path d="M252.282 460.121C251.768 460.647 250.958 460.657 250.431 460.142L249.494 459.227C246.919 456.712 246.813 452.605 249.386 449.971L250.301 449.035C250.759 448.566 251.684 448.556 252.152 449.013L253.089 449.928C255.723 452.501 255.713 456.609 253.197 459.184L252.282 460.121Z" fill="#E4C837"/>
<path d="M253.294 469.683C252.557 469.692 251.978 469.126 251.969 468.39L251.954 467.08C251.912 463.481 254.741 460.502 258.423 460.459L259.732 460.443C260.386 460.436 261.049 461.083 261.056 461.737L261.072 463.046C261.115 466.728 258.203 469.626 254.603 469.668L253.294 469.683Z" fill="#E4C837"/>
<path d="M261.072 463.046L261.056 461.737C261.052 461.406 260.882 461.078 260.63 460.835L252.383 469.339C252.619 469.557 252.938 469.687 253.294 469.683L254.603 469.667C258.203 469.625 261.115 466.727 261.072 463.046Z" fill="black" fill-opacity="0.08"/>
<path d="M250.969 468.401C250.977 469.138 250.411 469.717 249.675 469.726L248.366 469.741C244.766 469.783 241.787 466.954 241.744 463.272L241.729 461.963C241.721 461.308 242.368 460.646 243.023 460.639L244.332 460.623C248.013 460.58 250.911 463.492 250.953 467.092L250.969 468.401Z" fill="#E4C837"/>
<path d="M244.332 460.624L243.023 460.639C242.692 460.643 242.364 460.813 242.121 461.065L250.625 469.312C250.843 469.076 250.973 468.757 250.969 468.402L250.953 467.092C250.911 463.493 248.013 460.581 244.332 460.624Z" fill="black" fill-opacity="0.08"/>
<path d="M253.412 479.846C252.676 479.855 252.097 479.289 252.088 478.553L252.073 477.244C252.031 473.644 254.86 470.665 258.542 470.622L259.851 470.606C260.505 470.599 261.167 471.246 261.175 471.9L261.19 473.209C261.233 476.891 258.321 479.789 254.722 479.831L253.412 479.846Z" fill="#E4C837"/>
<path d="M261.19 473.21L261.175 471.901C261.171 471.571 261.001 471.242 260.749 470.999L252.502 479.503C252.738 479.721 253.057 479.851 253.412 479.847L254.721 479.831C258.321 479.789 261.233 476.891 261.19 473.21Z" fill="black" fill-opacity="0.08"/>
<path d="M251.087 478.565C251.096 479.302 250.53 479.881 249.794 479.89L248.485 479.905C244.885 479.947 241.906 477.118 241.863 473.436L241.848 472.127C241.84 471.473 242.487 470.81 243.141 470.803L244.45 470.787C248.132 470.744 251.03 473.656 251.072 477.256L251.087 478.565Z" fill="#E4C837"/>
<path d="M244.45 470.788L243.141 470.803C242.811 470.807 242.483 470.977 242.24 471.229L250.743 479.476C250.962 479.24 251.092 478.921 251.087 478.566L251.072 477.257C251.03 473.657 248.132 470.745 244.45 470.788Z" fill="black" fill-opacity="0.08"/>
<path d="M253.537 490.518C252.801 490.527 252.221 489.961 252.213 489.224L252.197 487.915C252.155 484.316 254.985 481.337 258.666 481.294L259.975 481.278C260.63 481.271 261.292 481.918 261.3 482.572L261.315 483.881C261.358 487.563 258.446 490.461 254.846 490.503L253.537 490.518Z" fill="#E4C837"/>
<path d="M261.315 483.882L261.3 482.572C261.296 482.242 261.126 481.914 260.874 481.671L252.627 490.175C252.862 490.393 253.181 490.523 253.537 490.519L254.846 490.503C258.446 490.461 261.358 487.563 261.315 483.882Z" fill="black" fill-opacity="0.08"/>
<path d="M251.212 489.237C251.221 489.974 250.655 490.553 249.918 490.562L248.609 490.577C245.009 490.619 242.031 487.79 241.988 484.108L241.972 482.799C241.965 482.144 242.611 481.482 243.266 481.475L244.575 481.459C248.257 481.416 251.155 484.328 251.197 487.928L251.212 489.237Z" fill="#E4C837"/>
<path d="M244.575 481.46L243.266 481.475C242.936 481.479 242.608 481.649 242.365 481.901L250.868 490.148C251.086 489.912 251.216 489.593 251.212 489.237L251.197 487.928C251.155 484.329 248.257 481.417 244.575 481.46Z" fill="black" fill-opacity="0.08"/>
<path d="M251.214 448.676C251.564 448.67 251.917 448.783 252.153 449.013L253.089 449.928C255.723 452.501 255.713 456.609 253.197 459.184L252.623 459.772L253.101 500.682C253.104 500.936 253.08 501.29 252.857 501.574C252.578 501.93 252.164 502.027 252.164 502.027L252.215 500.946L251.446 460.517C251.429 460.518 251.412 460.521 251.395 460.522L251.214 448.676Z" fill="black" fill-opacity="0.08"/>
</g>
<g clip-path="url(#clip3_813_5589)">
<path d="M250.306 500.867C250.825 501.842 252.036 502.211 253.011 501.692C253.986 501.173 254.356 499.962 253.837 498.987L252.071 499.927L250.306 500.867ZM234.67 462.986L233.73 461.22L230.199 463.1L231.139 464.865L232.904 463.926L234.67 462.986ZM252.071 499.927L253.837 498.987L234.67 462.986L232.904 463.926L231.139 464.865L250.306 500.867L252.071 499.927Z" fill="#E4C837"/>
<path d="M233.764 463.571C233.549 464.275 232.834 464.656 232.13 464.441L230.878 464.059C227.434 463.008 225.453 459.409 226.527 455.888L226.909 454.636C227.1 454.009 227.917 453.574 228.544 453.765L229.796 454.148C233.317 455.222 235.197 458.875 234.146 462.319L233.764 463.571Z" fill="#E4C837"/>
<path d="M239.057 471.599C238.407 471.945 237.633 471.708 237.286 471.058L236.671 469.903C234.979 466.725 236.123 462.779 239.373 461.049L240.529 460.434C241.106 460.126 241.992 460.396 242.299 460.974L242.915 462.13C244.645 465.38 243.391 469.292 240.213 470.984L239.057 471.599Z" fill="#E4C837"/>
<path d="M242.915 462.129L242.299 460.974C242.144 460.682 241.842 460.469 241.507 460.369L238.091 471.711C238.4 471.797 238.743 471.766 239.057 471.599L240.213 470.983C243.391 469.291 244.645 465.379 242.915 462.129Z" fill="black" fill-opacity="0.08"/>
<path d="M236.403 471.528C236.749 472.178 236.513 472.953 235.863 473.299L234.707 473.914C231.529 475.606 227.583 474.462 225.853 471.212L225.238 470.057C224.93 469.479 225.2 468.594 225.778 468.286L226.934 467.671C230.184 465.94 234.096 467.195 235.788 470.372L236.403 471.528Z" fill="#E4C837"/>
<path d="M226.934 467.671L225.778 468.286C225.487 468.441 225.274 468.743 225.173 469.079L236.516 472.495C236.602 472.185 236.57 471.842 236.403 471.528L235.788 470.372C234.096 467.195 230.184 465.94 226.934 467.671Z" fill="black" fill-opacity="0.08"/>
<path d="M243.834 480.571C243.184 480.918 242.409 480.681 242.063 480.031L241.448 478.876C239.756 475.698 240.9 471.752 244.15 470.021L245.305 469.406C245.883 469.099 246.769 469.369 247.076 469.947L247.691 471.102C249.422 474.352 248.168 478.264 244.99 479.956L243.834 480.571Z" fill="#E4C837"/>
<path d="M247.691 471.102L247.076 469.946C246.921 469.655 246.619 469.442 246.284 469.342L242.867 480.684C243.177 480.77 243.52 480.738 243.834 480.571L244.99 479.956C248.168 478.264 249.422 474.352 247.691 471.102Z" fill="black" fill-opacity="0.08"/>
<path d="M241.18 480.501C241.526 481.151 241.29 481.925 240.64 482.271L239.484 482.887C236.306 484.579 232.36 483.435 230.63 480.185L230.015 479.029C229.707 478.452 229.977 477.566 230.555 477.259L231.711 476.643C234.961 474.913 238.873 476.167 240.565 479.345L241.18 480.501Z" fill="#E4C837"/>
<path d="M231.711 476.643L230.555 477.259C230.264 477.414 230.051 477.716 229.95 478.051L241.293 481.467C241.378 481.158 241.347 480.815 241.18 480.501L240.565 479.345C238.873 476.167 234.961 474.913 231.711 476.643Z" fill="black" fill-opacity="0.08"/>
<path d="M248.85 489.992C248.2 490.338 247.425 490.102 247.079 489.452L246.464 488.296C244.772 485.119 245.915 481.173 249.165 479.442L250.321 478.827C250.899 478.52 251.784 478.79 252.092 479.367L252.707 480.523C254.437 483.773 253.183 487.685 250.005 489.377L248.85 489.992Z" fill="#E4C837"/>
<path d="M252.707 480.523L252.092 479.367C251.937 479.076 251.635 478.863 251.299 478.762L247.883 490.105C248.193 490.191 248.536 490.159 248.85 489.992L250.005 489.377C253.183 487.685 254.437 483.773 252.707 480.523Z" fill="black" fill-opacity="0.08"/>
<path d="M246.196 489.922C246.542 490.572 246.305 491.346 245.655 491.692L244.5 492.308C241.322 494 237.376 492.856 235.646 489.606L235.03 488.45C234.723 487.873 234.993 486.987 235.571 486.679L236.726 486.064C239.976 484.334 243.888 485.588 245.58 488.766L246.196 489.922Z" fill="#E4C837"/>
<path d="M236.726 486.064L235.571 486.679C235.279 486.835 235.066 487.137 234.966 487.472L246.308 490.888C246.394 490.578 246.363 490.235 246.196 489.922L245.58 488.766C243.888 485.588 239.976 484.334 236.726 486.064Z" fill="black" fill-opacity="0.08"/>
<path d="M227.555 453.897C227.863 453.731 228.228 453.669 228.544 453.765L229.796 454.147C233.317 455.222 235.197 458.875 234.146 462.318L233.906 463.104L253.133 499.217C253.253 499.442 253.394 499.767 253.327 500.122C253.243 500.566 252.919 500.843 252.919 500.843L252.468 499.86L233.203 464.307C233.189 464.316 233.175 464.326 233.16 464.334L227.555 453.897Z" fill="black" fill-opacity="0.08"/>
</g>
<path d="M287.965 497.562C286.718 507.397 278.326 515.006 268.15 515.017L237.043 515.052C226.867 515.063 218.458 507.473 217.188 497.64L287.965 497.562ZM217.023 495.15C217.023 495.126 217.022 495.102 217.022 495.077C217.022 495.052 217.023 495.028 217.023 495.003L217.023 495.15ZM268.105 475.022C278.398 475.011 286.881 482.779 287.998 492.775L217.144 492.854C218.238 482.855 226.705 475.068 236.998 475.057L268.105 475.022Z" fill="#76E49E"/>
<path d="M268.107 475.022L260.757 475.03L260.801 515.025L268.151 515.017C279.195 515.005 288.139 506.042 288.126 494.997C288.114 483.953 279.151 475.01 268.107 475.022Z" fill="black" fill-opacity="0.08"/>
<rect x="281.628" y="492.783" width="6.49446" height="4.78539" transform="rotate(-0.0637727 281.628 492.783)" fill="#28A656"/>
<rect x="223.517" y="492.848" width="58.1127" height="4.78575" transform="rotate(-0.0637727 223.517 492.848)" fill="#228C49"/>
<rect x="217.022" y="492.854" width="6.49446" height="4.78539" transform="rotate(-0.0637727 217.022 492.854)" fill="#28A656"/>
<path d="M225.678 515.065L279.688 515.005C281.809 515.003 283.748 514.228 285.241 512.948L220.121 513.021C221.616 514.298 223.557 515.068 225.678 515.065Z" fill="#39C76D"/>
<rect x="217.018" y="490.804" width="71.1026" height="2.05104" transform="rotate(-0.0637727 217.018 490.804)" fill="#39C76D"/>
<circle cx="226.07" cy="484.127" r="2.5636" transform="rotate(-0.0637727 226.07 484.127)" fill="#39C76D"/>
<path d="M226.071 486.691C227.487 486.689 228.633 485.54 228.632 484.124C228.631 483.286 228.227 482.542 227.604 482.075L224.532 486.18C224.961 486.501 225.494 486.692 226.071 486.691Z" fill="black" fill-opacity="0.08"/>
<circle cx="279.052" cy="484.069" r="2.5636" transform="rotate(-0.0637727 279.052 484.069)" fill="#39C76D"/>
<path d="M279.055 486.632C280.471 486.631 281.618 485.482 281.616 484.066C281.615 483.227 281.212 482.483 280.589 482.016L277.517 486.121C277.945 486.443 278.478 486.633 279.055 486.632Z" fill="black" fill-opacity="0.08"/>
<circle cx="226.094" cy="506.006" r="2.5636" transform="rotate(-0.0637727 226.094 506.006)" fill="#39C76D"/>
<path d="M226.096 508.57C227.512 508.568 228.659 507.419 228.657 506.003C228.656 505.165 228.253 504.421 227.63 503.954L224.558 508.059C224.986 508.38 225.519 508.57 226.096 508.57Z" fill="black" fill-opacity="0.08"/>
<circle cx="279.08" cy="505.947" r="2.5636" transform="rotate(-0.0637727 279.08 505.947)" fill="#39C76D"/>
<path d="M279.083 508.51C280.498 508.509 281.645 507.36 281.643 505.944C281.642 505.105 281.239 504.361 280.616 503.894L277.544 507.999C277.973 508.321 278.505 508.511 279.083 508.51Z" fill="black" fill-opacity="0.08"/>
<path d="M805.331 418.215C811.847 418.215 817.957 422.679 820.4 428.767L854.204 517.644C855.019 519.673 855.426 521.296 855.426 523.325V556.114C846.81 546.24 834.134 540 820 540C798.584 540 780.515 554.324 774.848 573.913C768.863 554.838 751.049 541 730 541C709.868 541 692.695 553.658 686 571.449V515.614C686 497.758 700.255 483.147 718.582 483.147H725.099V434.448C725.099 425.52 732.022 418.215 741.389 418.215H805.331ZM750.509 432.171C748.3 432.171 746.509 433.962 746.509 436.171V473.156C746.509 474.217 746.931 475.235 747.682 475.985L789.556 517.836C790.306 518.586 791.323 519.006 792.384 519.006H826.941C829.708 519.006 831.639 516.265 830.708 513.66L802.536 434.825C801.967 433.234 800.46 432.171 798.77 432.171H750.509Z" fill="#28A656"/>
<rect x="863.631" y="601.189" width="220.19" height="18.6182" rx="8" transform="rotate(-90 863.631 601.189)" fill="#D6D6D6"/>
<path d="M877.352 536.063C881.77 536.064 885.352 539.645 885.352 544.063V593H974.527C976.736 593 978.527 594.791 978.527 597C978.527 599.209 976.736 601 974.527 601H879.083C878.525 601.123 877.946 601.189 877.352 601.189H868.527C867.933 601.189 867.354 601.123 866.796 601H864.527C862.318 601 860.527 599.209 860.527 597C860.527 596.443 860.641 595.912 860.847 595.43C860.64 594.719 860.527 593.967 860.527 593.189V544.063C860.527 539.645 864.109 536.063 868.527 536.063H877.352Z" fill="#858585"/>
<g clip-path="url(#clip4_813_5589)">
<rect x="784" y="552" width="72" height="72" rx="36" fill="#858585"/>
<circle cx="820" cy="588" r="18" fill="#39C76D"/>
<g style="mix-blend-mode:overlay">
<path d="M856 624V552L784 624H856Z" fill="url(#paint0_linear_813_5589)"/>
<path d="M856 624V552L784 624H856Z" fill="#676767"/>
</g>
</g>
<g clip-path="url(#clip5_813_5589)">
<rect x="694" y="552" width="72" height="72" rx="36" fill="#858585"/>
<circle cx="730" cy="588" r="18" fill="#39C76D"/>
<g style="mix-blend-mode:overlay">
<path d="M766 624V552L694 624H766Z" fill="url(#paint1_linear_813_5589)"/>
<path d="M766 624V552L694 624H766Z" fill="#676767"/>
</g>
</g>
<path d="M805.331 418.215C811.847 418.215 817.957 422.679 820.4 428.767L854.204 517.644C855.019 519.673 855.426 521.296 855.426 523.325V535.288H781.418L725.099 483.147V434.448C725.099 425.52 732.022 418.215 741.39 418.215H805.331ZM750.509 432.171C748.3 432.171 746.509 433.962 746.509 436.171V473.156C746.509 474.217 746.931 475.235 747.682 475.985L789.556 517.836C790.306 518.586 791.323 519.006 792.384 519.006H826.941C829.708 519.006 831.639 516.265 830.708 513.66L802.536 434.825C801.967 433.234 800.46 432.171 798.77 432.171H750.509Z" fill="#186635"/>
<rect x="893" y="481" width="104" height="104" fill="#F1D33D"/>
<rect x="933" y="481" width="24" height="29.3333" fill="#C8A802"/>
<g style="mix-blend-mode:overlay">
<rect x="947" y="481" width="50" height="104" fill="url(#paint2_linear_813_5589)"/>
<rect x="947" y="481" width="50" height="104" fill="#676767"/>
</g>
<path d="M1343.4 411.465C1352.44 411.465 1361.49 415.195 1367.88 421.588L1408.86 462.612C1415.24 469.006 1418.97 478.063 1418.97 487.12V547.858C1428.02 547.859 1436 555.85 1436 564.907C1436 574.497 1428.02 581.957 1418.97 581.957H1396.92C1396.97 580.978 1397 579.992 1397 579C1397 548.072 1371.93 523 1341 523C1332.33 523 1324.11 524.972 1316.78 528.492V411.465H1343.4Z" fill="#39C76D"/>
<path d="M1067 405C1067 391.193 1078.19 380 1092 380H1292C1305.81 380 1317 391.193 1317 405V479H1067V405Z" fill="#ADADAD"/>
<path d="M1409.4 462.624C1415.51 468.517 1418.97 476.649 1418.97 485.147V505.945H1394.6C1393.44 504.224 1392.17 502.579 1390.8 501.021C1381.71 489.729 1367.79 482.502 1352.18 482.502C1345.69 482.503 1333.82 482.502 1333.82 482.502V435.617H1381.36L1409.4 462.624Z" fill="#89E1F5"/>
<rect x="1407.62" y="529.388" width="11.3538" height="18.4699" fill="#F4DE70"/>
<rect width="134" height="61" transform="matrix(-1 0 0 1 1292 410)" fill="#D6D6D6"/>
<g clip-path="url(#clip6_813_5589)">
<rect x="1114" y="535" width="88" height="88" rx="44" fill="#858585"/>
<circle cx="1158" cy="579" r="22" fill="#39C76D"/>
<g style="mix-blend-mode:overlay">
<path d="M1202 623V535L1114 623H1202Z" fill="url(#paint3_linear_813_5589)"/>
<path d="M1202 623V535L1114 623H1202Z" fill="#676767"/>
</g>
</g>
<g clip-path="url(#clip7_813_5589)">
<rect x="1297" y="535" width="88" height="88" rx="44" fill="#858585"/>
<circle cx="1341" cy="579" r="22" fill="#39C76D"/>
<g style="mix-blend-mode:overlay">
<path d="M1385 623V535L1297 623H1385Z" fill="url(#paint4_linear_813_5589)"/>
<path d="M1385 623V535L1297 623H1385Z" fill="#676767"/>
</g>
</g>
<path d="M1317 528.39C1299.5 536.701 1287 553.817 1285.22 574.012C1278.07 565.484 1265.4 559.816 1250.96 559.816C1234.46 559.816 1220.27 567.222 1213.99 577.838C1213.37 547.446 1188.54 523 1158 523C1127.07 523 1102 548.072 1102 579H1078.74C1076.16 574.577 1072.09 570.753 1067 567.89V475H1317V528.39Z" fill="#ADADAD"/>
<path d="M1105.59 559.224C1103.27 565.373 1102 572.038 1102 579C1102 579.992 1102.03 580.977 1102.08 581.956H1079C1072.37 581.956 1067 576.583 1067 569.956V559.224H1105.59ZM1288.59 559.224C1286.27 565.373 1285 572.038 1285 579C1285 579.992 1285.03 580.977 1285.08 581.956H1213.92C1213.97 580.977 1214 579.992 1214 579C1214 572.038 1212.73 565.373 1210.41 559.224H1288.59Z" fill="#D6D6D6"/>
<g style="mix-blend-mode:overlay">
<path d="M1357.76 452.489C1364.15 458.883 1367.88 467.941 1367.88 476.998V529.859C1359.9 525.487 1350.74 523 1341 523C1332.33 523 1324.11 524.972 1316.78 528.492V411.465L1357.76 452.489Z" fill="url(#paint5_linear_813_5589)"/>
<path d="M1357.76 452.489C1364.15 458.883 1367.88 467.941 1367.88 476.998V529.859C1359.9 525.487 1350.74 523 1341 523C1332.33 523 1324.11 524.972 1316.78 528.492V411.465L1357.76 452.489Z" fill="#676767"/>
</g>
<g style="mix-blend-mode:overlay">
<path d="M1297.03 380C1299.86 381.028 1302.5 382.528 1304.85 384.414C1310.66 388.175 1315.02 393.773 1317 400.316V528.812C1307.93 531.316 1300.15 538.092 1295.07 547.368C1292.7 550.86 1290.82 554.779 1289.55 559H1251V380H1297.03Z" fill="url(#paint6_linear_813_5589)"/>
<path d="M1297.03 380C1299.86 381.028 1302.5 382.528 1304.85 384.414C1310.66 388.175 1315.02 393.773 1317 400.316V528.812C1307.93 531.316 1300.15 538.092 1295.07 547.368C1292.7 550.86 1290.82 554.779 1289.55 559H1251V380H1297.03Z" fill="#676767"/>
</g>
<rect opacity="0.8" x="-39" y="623" width="1646" height="275" fill="#28A656"/>
<g style="mix-blend-mode:color-burn">
<rect x="-39" y="626" width="1645" height="274" fill="url(#paint7_linear_813_5589)" fill-opacity="0.2"/>
</g>
<g style="mix-blend-mode:color-burn">
<rect x="-38" y="708" width="1645" height="274" fill="url(#paint8_linear_813_5589)" fill-opacity="0.5"/>
</g>
<g style="mix-blend-mode:color-burn">
<rect x="-38" y="803" width="1645" height="274" fill="url(#paint9_linear_813_5589)" fill-opacity="0.5"/>
</g>
</g>
<defs>
<linearGradient id="paint0_linear_813_5589" x1="824.313" y1="535.747" x2="824.313" y2="646.554" gradientUnits="userSpaceOnUse">
<stop stop-color="#D9D9D9"/>
<stop offset="1" stop-color="#737373"/>
</linearGradient>
<linearGradient id="paint1_linear_813_5589" x1="734.313" y1="535.747" x2="734.313" y2="646.554" gradientUnits="userSpaceOnUse">
<stop stop-color="#D9D9D9"/>
<stop offset="1" stop-color="#737373"/>
</linearGradient>
<linearGradient id="paint2_linear_813_5589" x1="974.995" y1="457.523" x2="974.995" y2="617.578" gradientUnits="userSpaceOnUse">
<stop stop-color="#D9D9D9"/>
<stop offset="1" stop-color="#737373"/>
</linearGradient>
<linearGradient id="paint3_linear_813_5589" x1="1163.27" y1="515.135" x2="1163.27" y2="650.566" gradientUnits="userSpaceOnUse">
<stop stop-color="#D9D9D9"/>
<stop offset="1" stop-color="#737373"/>
</linearGradient>
<linearGradient id="paint4_linear_813_5589" x1="1346.27" y1="515.135" x2="1346.27" y2="650.566" gradientUnits="userSpaceOnUse">
<stop stop-color="#D9D9D9"/>
<stop offset="1" stop-color="#737373"/>
</linearGradient>
<linearGradient id="paint5_linear_813_5589" x1="1345.39" y1="375.264" x2="1345.39" y2="622.069" gradientUnits="userSpaceOnUse">
<stop stop-color="#D9D9D9"/>
<stop offset="1" stop-color="#737373"/>
</linearGradient>
<linearGradient id="paint6_linear_813_5589" x1="1288.45" y1="340.044" x2="1288.45" y2="612.445" gradientUnits="userSpaceOnUse">
<stop stop-color="#D9D9D9"/>
<stop offset="1" stop-color="#737373"/>
</linearGradient>
<linearGradient id="paint7_linear_813_5589" x1="915.688" y1="659.381" x2="915.688" y2="887.83" gradientUnits="userSpaceOnUse">
<stop stop-color="#D9D9D9"/>
<stop offset="1" stop-color="#737373"/>
</linearGradient>
<linearGradient id="paint8_linear_813_5589" x1="916.688" y1="741.381" x2="916.688" y2="969.83" gradientUnits="userSpaceOnUse">
<stop stop-color="#D9D9D9"/>
<stop offset="1" stop-color="#737373"/>
</linearGradient>
<linearGradient id="paint9_linear_813_5589" x1="916.688" y1="836.381" x2="916.688" y2="1064.83" gradientUnits="userSpaceOnUse">
<stop stop-color="#D9D9D9"/>
<stop offset="1" stop-color="#737373"/>
</linearGradient>
<clipPath id="clip0_813_5589">
<rect width="1600" height="900" rx="32" fill="white"/>
</clipPath>
<clipPath id="clip1_813_5589">
<rect width="46" height="46" fill="white" transform="translate(237 461.424) rotate(-19.5912)"/>
</clipPath>
<clipPath id="clip2_813_5589">
<rect width="46" height="46" fill="white" transform="translate(219 474.904) rotate(-45.6693)"/>
</clipPath>
<clipPath id="clip3_813_5589">
<rect width="46" height="46" fill="white" transform="translate(211 491.997) rotate(-73.031)"/>
</clipPath>
<clipPath id="clip4_813_5589">
<rect x="784" y="552" width="72" height="72" rx="36" fill="white"/>
</clipPath>
<clipPath id="clip5_813_5589">
<rect x="694" y="552" width="72" height="72" rx="36" fill="white"/>
</clipPath>
<clipPath id="clip6_813_5589">
<rect x="1114" y="535" width="88" height="88" rx="44" fill="white"/>
</clipPath>
<clipPath id="clip7_813_5589">
<rect x="1297" y="535" width="88" height="88" rx="44" fill="white"/>
</clipPath>
</defs>
</svg>
