<svg width="1600" height="900" viewBox="0 0 1600 900" fill="none" xmlns="http://www.w3.org/2000/svg">
<g clip-path="url(#clip0_813_6572)">
<rect width="1600" height="900" rx="32" fill="#16B2D4"/>
<g clip-path="url(#clip1_813_6572)">
<rect x="468" y="221" width="439" height="403" rx="25" fill="#28A656"/>
<path d="M907 599V301C907 287.193 895.807 276 882 276H777C763.193 276 752 287.193 752 301V624H882C895.807 624 907 612.807 907 599Z" fill="black" fill-opacity="0.08"/>
<rect x="529.778" y="423.536" width="140.802" height="200.464" fill="#76E49E"/>
<rect x="610.918" y="423.536" width="59.6618" height="200.464" fill="black" fill-opacity="0.08"/>
<rect x="632.396" y="509.449" width="14.3188" height="26.2512" rx="7.15942" fill="#186635"/>
<path d="M862.623 130C872.446 130 881.286 134.913 886.197 143.753L942.188 232.157C971.656 278.324 946.116 342.172 891.11 350.031H879.322C853.783 350.031 831.188 339.226 815.472 321.545C799.755 339.225 777.163 350.031 751.624 350.031C726.085 350.031 702.51 339.226 686.793 321.545C672.059 339.225 648.485 350.031 622.946 350.031C597.407 350.031 574.815 339.225 559.098 321.545C543.382 339.226 520.788 350.031 495.249 350.031H483.463C428.456 342.172 402.915 278.324 432.382 232.157L488.374 143.753C493.285 134.912 502.127 130 511.949 130H862.623Z" fill="#228C49"/>
<path d="M622.943 350.031C648.482 350.031 672.057 339.225 686.791 321.545L687.284 130H585.857L559.096 321.545C574.812 339.225 597.405 350.031 622.943 350.031Z" fill="#228C49"/>
<path d="M622.943 350.031C648.482 350.031 672.057 339.225 686.791 321.545L686.971 251.71H568.853L559.096 321.545C574.812 339.225 597.405 350.031 622.943 350.031Z" fill="#186635"/>
<path d="M750.433 350.031C724.894 350.031 701.32 339.225 686.586 321.545L686.093 130H787.519L814.281 321.545C798.564 339.225 775.972 350.031 750.433 350.031Z" fill="#228C49"/>
<path d="M495.249 350.031C520.788 350.031 543.382 339.226 559.098 321.545L585.86 130H511.949C502.127 130 493.285 134.912 488.374 143.753L432.382 232.157C402.915 278.324 428.456 342.172 483.463 350.031H495.249Z" fill="#28A656"/>
<path d="M495.249 350.031C520.788 350.031 543.382 339.226 559.098 321.545L568.855 251.71H423.371C410.376 294.596 435.908 343.237 483.463 350.031H495.249Z" fill="#228C49"/>
<path d="M878.128 350.031C852.589 350.031 829.995 339.226 814.279 321.545L787.517 130H861.428C871.25 130 880.092 134.912 885.003 143.753L940.995 232.157C970.462 278.324 944.921 342.172 889.914 350.031H878.128Z" fill="#28A656"/>
<path d="M750.131 350.031C724.592 350.031 701.017 339.225 686.283 321.545L686.103 251.71H804.221L813.978 321.545C798.262 339.225 775.669 350.031 750.131 350.031Z" fill="#186635"/>
<path d="M877.918 350.031C852.379 350.031 829.785 339.225 814.069 321.545L804.312 251.71H949.796C962.791 294.595 937.259 343.237 889.704 350.031H877.918Z" fill="#228C49"/>
<path d="M727.981 577.12C728.236 575 728.787 570.421 723.868 569.829" stroke="#186635" stroke-width="5.66406" stroke-linecap="round"/>
<path d="M711.622 583.667C712.252 578.431 715.36 572.934 720.665 573.572C722.525 573.796 724.639 574.819 726.149 575.63C727.4 576.27 728.847 576.444 730.214 576.119C731.873 575.69 734.169 575.197 736.098 575.429C741.334 576.059 743.118 582.145 742.488 587.381C741.427 596.2 735.119 602.151 729.607 601.488C728.436 601.347 727.039 600.759 726.116 600.299C725.59 600.026 724.969 599.951 724.393 600.092C723.456 600.328 721.891 600.559 720.788 600.427C715.277 599.763 710.561 592.486 711.622 583.667Z" fill="#F20B0B"/>
<path d="M736.098 575.429C734.169 575.197 731.873 575.689 730.214 576.119C729.514 576.285 728.793 576.321 728.088 576.23L725.223 600.034C725.533 600.065 725.838 600.154 726.116 600.299C727.039 600.759 728.436 601.347 729.607 601.488C735.119 602.151 741.427 596.2 742.488 587.381C743.118 582.145 741.334 576.059 736.098 575.429Z" fill="black" fill-opacity="0.08"/>
<path d="M728.514 573.399C727.894 573.324 727.47 572.784 727.544 572.164L727.677 571.062C728.042 568.03 730.752 565.84 733.852 566.213L734.954 566.346C735.506 566.412 735.991 567.03 735.924 567.581L735.792 568.683C735.418 571.783 732.648 573.896 729.616 573.532L728.514 573.399Z" fill="#28A656"/>
<path d="M735.792 568.683L735.924 567.581C735.958 567.303 735.851 567.008 735.666 566.775L727.787 573.008C727.961 573.218 728.215 573.363 728.514 573.399L729.617 573.531C732.648 573.896 735.419 571.783 735.792 568.683Z" fill="black" fill-opacity="0.08"/>
<path d="M701.212 576.714C701.002 574.589 700.548 569.999 695.618 570.487" stroke="#186635" stroke-width="5.66406" stroke-linecap="round"/>
<path d="M686.66 586.65C686.141 581.401 687.984 575.362 693.302 574.836C695.166 574.651 697.451 575.192 699.101 575.657C700.461 576.01 701.911 575.867 703.176 575.254C704.702 574.475 706.837 573.497 708.771 573.306C714.019 572.787 717.079 578.342 717.598 583.59C718.472 592.429 713.603 599.605 708.079 600.152C706.905 600.268 705.413 599.997 704.413 599.747C703.84 599.595 703.218 599.656 702.686 599.918C701.822 600.352 700.344 600.917 699.239 601.026C693.715 601.572 687.534 595.489 686.66 586.65Z" fill="#F20B0B"/>
<path d="M708.771 573.306C706.837 573.497 704.702 574.475 703.175 575.254C702.528 575.568 701.832 575.759 701.124 575.823L703.483 599.683C703.793 599.646 704.11 599.667 704.412 599.747C705.413 599.997 706.905 600.268 708.079 600.152C713.603 599.605 718.472 592.429 717.598 583.59C717.079 578.342 714.019 572.787 708.771 573.306Z" fill="black" fill-opacity="0.08"/>
<path d="M700.927 572.966C700.305 573.027 699.774 572.592 699.713 571.97L699.603 570.865C699.303 567.827 701.474 565.102 704.581 564.794L705.686 564.685C706.239 564.631 706.846 565.128 706.901 565.681L707.01 566.786C707.317 569.893 705.07 572.556 702.032 572.857L700.927 572.966Z" fill="#28A656"/>
<path d="M707.01 566.786L706.901 565.681C706.873 565.402 706.705 565.138 706.474 564.951L700.132 572.743C700.347 572.91 700.627 572.996 700.927 572.966L702.032 572.857C705.07 572.556 707.317 569.894 707.01 566.786Z" fill="black" fill-opacity="0.08"/>
<path d="M746.336 608.603C745.235 617.28 737.831 623.994 728.854 624.004L701.41 624.034C692.433 624.044 685.014 617.347 683.894 608.673L746.336 608.603ZM728.814 588.718C737.896 588.708 745.381 595.561 746.366 604.382L683.854 604.451C684.82 595.629 692.29 588.759 701.371 588.749L728.814 588.718Z" fill="#76E49E"/>
<path d="M728.815 588.718L722.331 588.726L722.37 624.01L728.854 624.003C738.597 623.992 746.487 616.085 746.477 606.341C746.466 596.598 738.558 588.708 728.815 588.718Z" fill="black" fill-opacity="0.08"/>
<rect x="740.744" y="604.388" width="5.73002" height="4.22212" transform="rotate(-0.0637727 740.744 604.388)" fill="#28A656"/>
<rect x="689.476" y="604.444" width="51.2686" height="4.22212" transform="rotate(-0.0637727 689.476 604.444)" fill="#228C49"/>
<rect x="683.746" y="604.451" width="5.73002" height="4.22212" transform="rotate(-0.0637727 683.746 604.451)" fill="#28A656"/>
<path d="M691.382 624.045L739.032 623.992C740.902 623.99 742.613 623.307 743.93 622.177L686.48 622.241C687.799 623.368 689.511 624.047 691.382 624.045Z" fill="#39C76D"/>
<rect x="683.744" y="602.642" width="62.7287" height="1.80948" transform="rotate(-0.0637727 683.744 602.642)" fill="#39C76D"/>
<circle cx="691.729" cy="596.752" r="2.26185" transform="rotate(-0.0637727 691.729 596.752)" fill="#39C76D"/>
<path d="M691.732 599.013C692.981 599.012 693.992 597.998 693.991 596.749C693.99 596.009 693.634 595.352 693.084 594.94L690.374 598.562C690.752 598.846 691.222 599.014 691.732 599.013Z" fill="black" fill-opacity="0.08"/>
<circle cx="738.474" cy="596.7" r="2.26185" transform="rotate(-0.0637727 738.474 596.7)" fill="#39C76D"/>
<path d="M738.476 598.961C739.726 598.96 740.737 597.946 740.736 596.697C740.735 595.957 740.379 595.301 739.829 594.889L737.119 598.511C737.497 598.794 737.967 598.962 738.476 598.961Z" fill="black" fill-opacity="0.08"/>
<circle cx="691.75" cy="616.053" r="2.26185" transform="rotate(-0.0637727 691.75 616.053)" fill="#39C76D"/>
<path d="M691.753 618.315C693.002 618.314 694.014 617.3 694.012 616.051C694.012 615.311 693.656 614.654 693.106 614.242L690.395 617.864C690.774 618.148 691.244 618.316 691.753 618.315Z" fill="black" fill-opacity="0.08"/>
<circle cx="738.495" cy="616.002" r="2.26185" transform="rotate(-0.0637727 738.495 616.002)" fill="#39C76D"/>
<path d="M738.498 618.263C739.747 618.262 740.759 617.248 740.757 615.999C740.756 615.259 740.4 614.602 739.851 614.19L737.14 617.812C737.519 618.096 737.989 618.264 738.498 618.263Z" fill="black" fill-opacity="0.08"/>
<path d="M764.2 447.2C770.15 447.2 775.4 452.45 775.4 458.4V503.2H954.6V458.4C954.6 452.45 959.5 447.2 965.8 447.2C971.75 447.2 977 452.45 977 458.4V514.4V604V615.2C977 621.5 971.75 626.4 965.8 626.4C959.5 626.4 954.6 621.5 954.6 615.2H775.4C775.4 621.5 770.15 626.4 764.2 626.4C757.9 626.4 753 621.5 753 615.2V604V514.4V458.4C753 452.45 757.9 447.2 764.2 447.2ZM775.4 592.8H954.6V525.6H775.4V592.8Z" fill="#186635"/>
<g clip-path="url(#clip2_813_6572)">
<path d="M822.289 486.279C821.815 487.277 822.24 488.47 823.237 488.944C824.235 489.418 825.428 488.993 825.902 487.995L824.096 487.137L822.289 486.279ZM843.402 451.155L844.26 449.348L840.647 447.632L839.789 449.438L841.596 450.297L843.402 451.155ZM824.096 487.137L825.902 487.995L843.402 451.155L841.596 450.297L839.789 449.438L822.289 486.279L824.096 487.137Z" fill="#E4C837"/>
<path d="M842.393 450.776C841.699 451.023 840.967 450.675 840.72 449.981L840.281 448.748C839.074 445.356 840.784 441.621 844.253 440.386L845.487 439.947C846.103 439.728 846.939 440.125 847.159 440.742L847.598 441.975C848.833 445.444 847.018 449.13 843.626 450.337L842.393 450.776Z" fill="#E4C837"/>
<path d="M839.098 459.81C838.432 459.494 838.161 458.731 838.477 458.066L839.039 456.883C840.583 453.631 844.434 452.199 847.76 453.779L848.942 454.341C849.534 454.622 849.844 455.494 849.563 456.085L849.001 457.268C847.421 460.594 843.532 461.917 840.28 460.372L839.098 459.81Z" fill="#E4C837"/>
<path d="M849.001 457.268L849.563 456.086C849.705 455.788 849.696 455.418 849.577 455.089L838.431 459.101C838.547 459.401 838.776 459.658 839.098 459.81L840.28 460.372C843.532 461.917 847.421 460.594 849.001 457.268Z" fill="black" fill-opacity="0.08"/>
<path d="M837.573 457.636C837.257 458.301 836.494 458.573 835.829 458.257L834.646 457.695C831.395 456.151 829.963 452.3 831.542 448.974L832.104 447.792C832.385 447.2 833.257 446.89 833.848 447.171L835.031 447.733C838.357 449.312 839.68 453.202 838.135 456.454L837.573 457.636Z" fill="#E4C837"/>
<path d="M835.031 447.732L833.848 447.17C833.55 447.029 833.181 447.038 832.851 447.157L836.864 458.302C837.164 458.187 837.421 457.957 837.573 457.636L838.135 456.453C839.68 453.201 838.357 449.312 835.031 447.732Z" fill="black" fill-opacity="0.08"/>
<path d="M834.736 468.991C834.071 468.675 833.8 467.912 834.116 467.246L834.677 466.064C836.222 462.812 840.073 461.38 843.398 462.96L844.581 463.522C845.172 463.803 845.483 464.675 845.202 465.266L844.64 466.448C843.06 469.774 839.171 471.097 835.919 469.552L834.736 468.991Z" fill="#E4C837"/>
<path d="M844.64 466.449L845.202 465.266C845.343 464.968 845.335 464.599 845.215 464.269L834.07 468.282C834.186 468.582 834.415 468.839 834.736 468.991L835.919 469.553C839.171 471.098 843.06 469.775 844.64 466.449Z" fill="black" fill-opacity="0.08"/>
<path d="M833.212 466.817C832.896 467.482 832.133 467.754 831.468 467.438L830.285 466.876C827.033 465.331 825.601 461.481 827.181 458.155L827.743 456.972C828.024 456.381 828.896 456.071 829.487 456.351L830.67 456.913C833.995 458.493 835.318 462.382 833.774 465.634L833.212 466.817Z" fill="#E4C837"/>
<path d="M830.67 456.913L829.487 456.351C829.189 456.209 828.819 456.218 828.49 456.337L832.503 467.483C832.802 467.367 833.059 467.138 833.212 466.817L833.774 465.634C835.318 462.382 833.995 458.493 830.67 456.913Z" fill="black" fill-opacity="0.08"/>
<path d="M830.157 478.631C829.492 478.315 829.22 477.552 829.536 476.887L830.098 475.705C831.642 472.453 835.493 471.021 838.819 472.601L840.001 473.162C840.593 473.443 840.903 474.315 840.622 474.907L840.06 476.089C838.481 479.415 834.591 480.738 831.339 479.193L830.157 478.631Z" fill="#E4C837"/>
<path d="M840.06 476.09L840.622 474.907C840.764 474.609 840.755 474.239 840.636 473.91L829.49 477.922C829.606 478.222 829.835 478.479 830.157 478.632L831.339 479.193C834.591 480.738 838.48 479.415 840.06 476.09Z" fill="black" fill-opacity="0.08"/>
<path d="M828.632 476.458C828.316 477.123 827.553 477.394 826.888 477.078L825.706 476.517C822.454 474.972 821.022 471.121 822.602 467.795L823.163 466.613C823.444 466.022 824.316 465.711 824.908 465.992L826.09 466.554C829.416 468.134 830.739 472.023 829.194 475.275L828.632 476.458Z" fill="#E4C837"/>
<path d="M826.09 466.553L824.907 465.992C824.609 465.85 824.24 465.859 823.911 465.978L827.923 477.124C828.223 477.008 828.48 476.778 828.632 476.457L829.194 475.275C830.739 472.023 829.416 468.133 826.09 466.553Z" fill="black" fill-opacity="0.08"/>
<path d="M846.464 440.027C846.781 440.175 847.048 440.431 847.159 440.742L847.598 441.975C848.832 445.444 847.018 449.13 843.626 450.337L842.852 450.612L825.298 487.568C825.188 487.797 825.012 488.105 824.686 488.262C824.28 488.459 823.864 488.364 823.864 488.364L824.385 487.416L841.467 450.764C841.452 450.758 841.435 450.753 841.419 450.746L846.464 440.027Z" fill="black" fill-opacity="0.08"/>
</g>
<g clip-path="url(#clip3_813_6572)">
<path d="M818.832 488.847C818.845 489.951 819.751 490.836 820.855 490.823C821.96 490.81 822.845 489.904 822.832 488.8L820.832 488.823L818.832 488.847ZM822.355 448.017L822.332 446.017L818.332 446.064L818.356 448.064L820.355 448.04L822.355 448.017ZM820.832 488.823L822.832 488.8L822.355 448.017L820.355 448.04L818.356 448.064L818.832 488.847L820.832 488.823Z" fill="#E4C837"/>
<path d="M821.282 448.121C820.767 448.647 819.958 448.657 819.431 448.142L818.494 447.227C815.919 444.712 815.813 440.605 818.386 437.971L819.301 437.035C819.758 436.566 820.684 436.556 821.152 437.013L822.089 437.928C824.723 440.501 824.713 444.609 822.197 447.184L821.282 448.121Z" fill="#E4C837"/>
<path d="M822.294 457.683C821.557 457.692 820.978 457.126 820.969 456.39L820.954 455.08C820.912 451.481 823.741 448.502 827.423 448.459L828.732 448.443C829.386 448.436 830.049 449.083 830.056 449.737L830.071 451.046C830.114 454.728 827.203 457.626 823.603 457.668L822.294 457.683Z" fill="#E4C837"/>
<path d="M830.072 451.046L830.056 449.737C830.053 449.406 829.882 449.078 829.63 448.835L821.383 457.339C821.619 457.557 821.938 457.687 822.294 457.683L823.603 457.667C827.203 457.625 830.115 454.727 830.072 451.046Z" fill="black" fill-opacity="0.08"/>
<path d="M819.969 456.401C819.978 457.138 819.412 457.717 818.675 457.726L817.366 457.741C813.766 457.783 810.787 454.954 810.744 451.272L810.729 449.963C810.721 449.308 811.368 448.646 812.023 448.639L813.332 448.623C817.014 448.58 819.912 451.492 819.954 455.092L819.969 456.401Z" fill="#E4C837"/>
<path d="M813.332 448.624L812.023 448.639C811.693 448.643 811.364 448.813 811.121 449.065L819.625 457.312C819.843 457.076 819.973 456.757 819.969 456.402L819.954 455.092C819.911 451.493 817.013 448.581 813.332 448.624Z" fill="black" fill-opacity="0.08"/>
<path d="M822.412 467.847C821.676 467.856 821.096 467.29 821.088 466.554L821.073 465.245C821.03 461.645 823.86 458.666 827.541 458.623L828.85 458.607C829.505 458.6 830.167 459.247 830.175 459.901L830.19 461.21C830.233 464.892 827.321 467.79 823.721 467.832L822.412 467.847Z" fill="#E4C837"/>
<path d="M830.19 461.21L830.175 459.901C830.171 459.571 830.001 459.242 829.749 458.999L821.502 467.503C821.738 467.721 822.057 467.851 822.412 467.847L823.721 467.831C827.321 467.789 830.233 464.891 830.19 461.21Z" fill="black" fill-opacity="0.08"/>
<path d="M820.088 466.565C820.096 467.302 819.53 467.881 818.794 467.89L817.485 467.905C813.885 467.947 810.906 465.118 810.863 461.436L810.848 460.127C810.84 459.473 811.487 458.81 812.141 458.803L813.451 458.787C817.132 458.744 820.03 461.656 820.072 465.256L820.088 466.565Z" fill="#E4C837"/>
<path d="M813.45 458.788L812.141 458.803C811.811 458.807 811.483 458.977 811.24 459.229L819.743 467.476C819.962 467.24 820.092 466.921 820.087 466.566L820.072 465.257C820.03 461.657 817.132 458.745 813.45 458.788Z" fill="black" fill-opacity="0.08"/>
<path d="M822.537 478.519C821.8 478.528 821.221 477.962 821.212 477.225L821.197 475.916C821.155 472.316 823.984 469.338 827.666 469.295L828.975 469.279C829.63 469.272 830.292 469.919 830.299 470.573L830.315 471.882C830.358 475.564 827.446 478.462 823.846 478.504L822.537 478.519Z" fill="#E4C837"/>
<path d="M830.315 471.882L830.3 470.572C830.296 470.242 830.125 469.914 829.874 469.671L821.627 478.175C821.862 478.393 822.181 478.523 822.537 478.519L823.846 478.503C827.446 478.461 830.358 475.563 830.315 471.882Z" fill="black" fill-opacity="0.08"/>
<path d="M820.212 477.237C820.221 477.974 819.655 478.553 818.918 478.562L817.609 478.577C814.009 478.619 811.031 475.79 810.988 472.108L810.972 470.799C810.965 470.144 811.611 469.482 812.266 469.475L813.575 469.459C817.257 469.416 820.155 472.328 820.197 475.928L820.212 477.237Z" fill="#E4C837"/>
<path d="M813.575 469.46L812.266 469.475C811.936 469.479 811.608 469.649 811.364 469.901L819.868 478.148C820.086 477.912 820.216 477.593 820.212 477.237L820.197 475.928C820.155 472.329 817.257 469.417 813.575 469.46Z" fill="black" fill-opacity="0.08"/>
<path d="M820.214 436.676C820.564 436.67 820.916 436.783 821.153 437.013L822.089 437.928C824.722 440.501 824.713 444.609 822.197 447.184L821.623 447.772L822.101 488.682C822.104 488.936 822.08 489.29 821.857 489.574C821.578 489.93 821.163 490.027 821.163 490.027L821.214 488.946L820.446 448.517C820.429 448.518 820.412 448.521 820.395 448.522L820.214 436.676Z" fill="black" fill-opacity="0.08"/>
</g>
<g clip-path="url(#clip4_813_6572)">
<path d="M819.306 488.867C819.825 489.842 821.036 490.211 822.011 489.692C822.986 489.173 823.356 487.962 822.837 486.987L821.072 487.927L819.306 488.867ZM803.67 450.986L802.73 449.22L799.199 451.1L800.139 452.865L801.904 451.926L803.67 450.986ZM821.072 487.927L822.837 486.987L803.67 450.986L801.904 451.926L800.139 452.865L819.306 488.867L821.072 487.927Z" fill="#E4C837"/>
<path d="M802.764 451.571C802.549 452.275 801.834 452.656 801.13 452.441L799.877 452.059C796.434 451.008 794.453 447.409 795.527 443.888L795.909 442.636C796.1 442.009 796.917 441.574 797.543 441.765L798.796 442.148C802.317 443.222 804.197 446.875 803.146 450.319L802.764 451.571Z" fill="#E4C837"/>
<path d="M808.057 459.599C807.407 459.945 806.632 459.708 806.286 459.058L805.671 457.903C803.979 454.725 805.123 450.779 808.373 449.049L809.528 448.434C810.106 448.126 810.991 448.396 811.299 448.974L811.914 450.13C813.645 453.38 812.39 457.292 809.213 458.984L808.057 459.599Z" fill="#E4C837"/>
<path d="M811.914 450.129L811.299 448.974C811.144 448.682 810.842 448.469 810.506 448.369L807.09 459.711C807.4 459.797 807.743 459.766 808.057 459.599L809.213 458.983C812.39 457.291 813.645 453.379 811.914 450.129Z" fill="black" fill-opacity="0.08"/>
<path d="M805.403 459.528C805.749 460.178 805.513 460.953 804.863 461.299L803.707 461.914C800.529 463.606 796.583 462.462 794.853 459.212L794.238 458.057C793.93 457.479 794.2 456.594 794.778 456.286L795.934 455.671C799.184 453.94 803.096 455.195 804.788 458.372L805.403 459.528Z" fill="#E4C837"/>
<path d="M795.934 455.671L794.778 456.286C794.487 456.441 794.274 456.743 794.174 457.079L805.516 460.495C805.602 460.185 805.57 459.842 805.403 459.528L804.788 458.372C803.096 455.195 799.184 453.94 795.934 455.671Z" fill="black" fill-opacity="0.08"/>
<path d="M812.834 468.571C812.184 468.918 811.409 468.681 811.063 468.031L810.448 466.876C808.756 463.698 809.899 459.752 813.149 458.021L814.305 457.406C814.883 457.099 815.768 457.369 816.076 457.947L816.691 459.102C818.421 462.352 817.167 466.264 813.989 467.956L812.834 468.571Z" fill="#E4C837"/>
<path d="M816.691 459.102L816.076 457.946C815.921 457.655 815.619 457.442 815.283 457.342L811.867 468.684C812.177 468.77 812.52 468.738 812.834 468.571L813.989 467.956C817.167 466.264 818.422 462.352 816.691 459.102Z" fill="black" fill-opacity="0.08"/>
<path d="M810.18 468.501C810.526 469.151 810.29 469.925 809.64 470.271L808.484 470.887C805.306 472.579 801.36 471.435 799.63 468.185L799.015 467.029C798.707 466.452 798.977 465.566 799.555 465.259L800.711 464.643C803.961 462.913 807.873 464.167 809.565 467.345L810.18 468.501Z" fill="#E4C837"/>
<path d="M800.711 464.643L799.555 465.259C799.264 465.414 799.051 465.716 798.95 466.051L810.293 469.467C810.379 469.158 810.347 468.815 810.18 468.501L809.565 467.345C807.873 464.167 803.961 462.913 800.711 464.643Z" fill="black" fill-opacity="0.08"/>
<path d="M817.849 477.992C817.199 478.338 816.425 478.102 816.079 477.452L815.463 476.296C813.771 473.119 814.915 469.173 818.165 467.442L819.321 466.827C819.898 466.52 820.784 466.79 821.092 467.367L821.707 468.523C823.437 471.773 822.183 475.685 819.005 477.377L817.849 477.992Z" fill="#E4C837"/>
<path d="M821.707 468.523L821.092 467.367C820.936 467.076 820.634 466.863 820.299 466.762L816.883 478.105C817.193 478.191 817.536 478.159 817.849 477.992L819.005 477.377C822.183 475.685 823.437 471.773 821.707 468.523Z" fill="black" fill-opacity="0.08"/>
<path d="M815.196 477.922C815.542 478.572 815.305 479.346 814.655 479.692L813.5 480.308C810.322 482 806.376 480.856 804.646 477.606L804.03 476.45C803.723 475.873 803.993 474.987 804.571 474.679L805.726 474.064C808.976 472.334 812.888 473.588 814.58 476.766L815.196 477.922Z" fill="#E4C837"/>
<path d="M805.726 474.064L804.571 474.679C804.279 474.835 804.066 475.137 803.966 475.472L815.309 478.888C815.394 478.578 815.363 478.235 815.196 477.922L814.581 476.766C812.889 473.588 808.977 472.334 805.726 474.064Z" fill="black" fill-opacity="0.08"/>
<path d="M796.555 441.897C796.863 441.731 797.228 441.669 797.544 441.765L798.796 442.147C802.317 443.222 804.197 446.875 803.146 450.318L802.906 451.104L822.133 487.217C822.253 487.442 822.394 487.767 822.327 488.122C822.243 488.566 821.919 488.843 821.919 488.843L821.468 487.86L802.203 452.307C802.189 452.316 802.175 452.326 802.16 452.334L796.555 441.897Z" fill="black" fill-opacity="0.08"/>
</g>
<path d="M856.965 485.562C855.718 495.397 847.326 503.006 837.15 503.017L806.043 503.052C795.867 503.063 787.458 495.473 786.188 485.64L856.965 485.562ZM786.023 483.15C786.023 483.126 786.022 483.102 786.022 483.077C786.022 483.052 786.023 483.028 786.023 483.003L786.023 483.15ZM837.105 463.022C847.398 463.011 855.881 470.779 856.998 480.775L786.144 480.854C787.238 470.855 795.705 463.068 805.998 463.057L837.105 463.022Z" fill="#76E49E"/>
<path d="M837.106 463.022L829.757 463.03L829.801 503.025L837.151 503.017C848.195 503.005 857.139 494.042 857.126 482.997C857.114 471.953 848.151 463.01 837.106 463.022Z" fill="black" fill-opacity="0.08"/>
<rect x="850.628" y="480.783" width="6.49446" height="4.78539" transform="rotate(-0.0637727 850.628 480.783)" fill="#28A656"/>
<rect x="792.517" y="480.848" width="58.1127" height="4.78575" transform="rotate(-0.0637727 792.517 480.848)" fill="#228C49"/>
<rect x="786.022" y="480.854" width="6.49446" height="4.78539" transform="rotate(-0.0637727 786.022 480.854)" fill="#28A656"/>
<path d="M794.678 503.065L848.688 503.005C850.809 503.003 852.748 502.228 854.241 500.948L789.121 501.021C790.616 502.298 792.557 503.068 794.678 503.065Z" fill="#39C76D"/>
<rect x="786.019" y="478.804" width="71.1026" height="2.05104" transform="rotate(-0.0637727 786.019 478.804)" fill="#39C76D"/>
<circle cx="795.07" cy="472.127" r="2.5636" transform="rotate(-0.0637727 795.07 472.127)" fill="#39C76D"/>
<path d="M795.071 474.691C796.486 474.689 797.633 473.54 797.631 472.124C797.63 471.286 797.227 470.542 796.604 470.075L793.532 474.18C793.961 474.501 794.494 474.692 795.071 474.691Z" fill="black" fill-opacity="0.08"/>
<circle cx="848.052" cy="472.069" r="2.5636" transform="rotate(-0.0637727 848.052 472.069)" fill="#39C76D"/>
<path d="M848.055 474.632C849.471 474.631 850.617 473.482 850.616 472.066C850.615 471.227 850.211 470.483 849.588 470.016L846.516 474.121C846.945 474.443 847.478 474.633 848.055 474.632Z" fill="black" fill-opacity="0.08"/>
<circle cx="795.094" cy="494.006" r="2.5636" transform="rotate(-0.0637727 795.094 494.006)" fill="#39C76D"/>
<path d="M795.097 496.57C796.512 496.568 797.659 495.419 797.657 494.003C797.656 493.165 797.253 492.421 796.63 491.954L793.558 496.059C793.987 496.38 794.519 496.57 795.097 496.57Z" fill="black" fill-opacity="0.08"/>
<circle cx="848.08" cy="493.947" r="2.5636" transform="rotate(-0.0637727 848.08 493.947)" fill="#39C76D"/>
<path d="M848.083 496.51C849.499 496.509 850.645 495.36 850.644 493.944C850.643 493.105 850.239 492.361 849.616 491.894L846.544 495.999C846.973 496.321 847.506 496.511 848.083 496.51Z" fill="black" fill-opacity="0.08"/>
<path d="M833.981 545.12C834.236 543 834.787 538.421 829.868 537.829" stroke="#186635" stroke-width="5.66406" stroke-linecap="round"/>
<path d="M817.622 551.667C818.252 546.431 821.36 540.934 826.665 541.572C828.525 541.796 830.639 542.819 832.149 543.63C833.4 544.27 834.847 544.444 836.214 544.119C837.873 543.69 840.169 543.197 842.098 543.429C847.334 544.059 849.118 550.145 848.488 555.381C847.427 564.2 841.119 570.151 835.608 569.488C834.436 569.347 833.039 568.759 832.116 568.299C831.59 568.026 830.97 567.951 830.394 568.092C829.457 568.328 827.891 568.559 826.789 568.427C821.277 567.763 816.561 560.486 817.622 551.667Z" fill="#39C76D"/>
<path d="M842.098 543.429C840.169 543.197 837.873 543.689 836.214 544.119C835.514 544.285 834.793 544.321 834.088 544.23L831.223 568.034C831.533 568.065 831.838 568.154 832.116 568.299C833.039 568.759 834.436 569.347 835.607 569.488C841.119 570.151 847.427 564.2 848.488 555.381C849.118 550.145 847.334 544.059 842.098 543.429Z" fill="black" fill-opacity="0.08"/>
<path d="M834.514 541.399C833.894 541.324 833.47 540.784 833.544 540.164L833.677 539.062C834.042 536.03 836.752 533.84 839.852 534.213L840.954 534.346C841.506 534.412 841.991 535.03 841.924 535.581L841.792 536.683C841.418 539.783 838.648 541.896 835.616 541.532L834.514 541.399Z" fill="#28A656"/>
<path d="M841.792 536.683L841.924 535.581C841.958 535.303 841.851 535.008 841.666 534.775L833.787 541.008C833.961 541.218 834.215 541.363 834.514 541.399L835.616 541.531C838.648 541.896 841.418 539.783 841.792 536.683Z" fill="black" fill-opacity="0.08"/>
<path d="M807.212 544.714C807.002 542.589 806.548 537.999 801.618 538.487" stroke="#186635" stroke-width="5.66406" stroke-linecap="round"/>
<path d="M792.66 554.65C792.141 549.401 793.984 543.362 799.301 542.836C801.166 542.651 803.451 543.192 805.101 543.657C806.461 544.01 807.911 543.867 809.175 543.254C810.702 542.475 812.837 541.497 814.77 541.306C820.019 540.787 823.078 546.342 823.597 551.59C824.472 560.429 819.603 567.605 814.078 568.152C812.904 568.268 811.413 567.997 810.412 567.747C809.839 567.595 809.218 567.656 808.686 567.918C807.822 568.352 806.344 568.917 805.239 569.026C799.714 569.572 793.534 563.489 792.66 554.65Z" fill="#39C76D"/>
<path d="M814.77 541.306C812.837 541.497 810.702 542.475 809.175 543.254C808.527 543.568 807.831 543.759 807.123 543.823L809.483 567.683C809.793 567.646 810.109 567.667 810.412 567.747C811.413 567.997 812.904 568.268 814.078 568.152C819.603 567.605 824.472 560.429 823.597 551.59C823.078 546.342 820.018 540.787 814.77 541.306Z" fill="black" fill-opacity="0.08"/>
<path d="M806.927 540.966C806.305 541.027 805.774 540.592 805.713 539.97L805.604 538.865C805.303 535.827 807.474 533.102 810.582 532.794L811.687 532.685C812.239 532.631 812.846 533.128 812.901 533.681L813.01 534.786C813.317 537.893 811.07 540.556 808.032 540.857L806.927 540.966Z" fill="#28A656"/>
<path d="M813.01 534.786L812.901 533.681C812.873 533.402 812.705 533.138 812.474 532.951L806.132 540.743C806.348 540.91 806.627 540.996 806.927 540.966L808.032 540.857C811.07 540.556 813.317 537.894 813.01 534.786Z" fill="black" fill-opacity="0.08"/>
<path d="M852.336 576.603C851.235 585.28 843.831 591.994 834.854 592.004L807.41 592.034C798.433 592.044 791.014 585.347 789.894 576.673L852.336 576.603ZM834.814 556.718C843.896 556.708 851.381 563.561 852.366 572.382L789.854 572.451C790.82 563.629 798.29 556.759 807.371 556.749L834.814 556.718Z" fill="#76E49E"/>
<path d="M834.815 556.718L828.331 556.726L828.37 592.01L834.854 592.003C844.597 591.992 852.487 584.085 852.477 574.341C852.466 564.598 844.558 556.708 834.815 556.718Z" fill="black" fill-opacity="0.08"/>
<rect x="846.744" y="572.388" width="5.73002" height="4.22212" transform="rotate(-0.0637727 846.744 572.388)" fill="#28A656"/>
<rect x="795.476" y="572.444" width="51.2686" height="4.22212" transform="rotate(-0.0637727 795.476 572.444)" fill="#228C49"/>
<rect x="789.746" y="572.451" width="5.73002" height="4.22212" transform="rotate(-0.0637727 789.746 572.451)" fill="#28A656"/>
<path d="M797.382 592.045L845.031 591.992C846.902 591.99 848.613 591.307 849.93 590.177L792.479 590.241C793.799 591.368 795.511 592.047 797.382 592.045Z" fill="#39C76D"/>
<rect x="789.744" y="570.642" width="62.7287" height="1.80948" transform="rotate(-0.0637727 789.744 570.642)" fill="#39C76D"/>
<circle cx="797.729" cy="564.752" r="2.26185" transform="rotate(-0.0637727 797.729 564.752)" fill="#39C76D"/>
<path d="M797.732 567.013C798.981 567.012 799.992 565.998 799.991 564.749C799.99 564.009 799.634 563.352 799.085 562.94L796.374 566.562C796.752 566.846 797.223 567.014 797.732 567.013Z" fill="black" fill-opacity="0.08"/>
<circle cx="844.474" cy="564.7" r="2.26185" transform="rotate(-0.0637727 844.474 564.7)" fill="#39C76D"/>
<path d="M844.477 566.961C845.726 566.96 846.738 565.946 846.736 564.697C846.735 563.957 846.379 563.301 845.83 562.889L843.119 566.511C843.498 566.794 843.968 566.962 844.477 566.961Z" fill="black" fill-opacity="0.08"/>
<circle cx="797.751" cy="584.053" r="2.26185" transform="rotate(-0.0637727 797.751 584.053)" fill="#39C76D"/>
<path d="M797.753 586.315C799.002 586.314 800.014 585.3 800.013 584.051C800.012 583.311 799.656 582.654 799.106 582.242L796.396 585.864C796.774 586.148 797.244 586.316 797.753 586.315Z" fill="black" fill-opacity="0.08"/>
<circle cx="844.496" cy="584.002" r="2.26185" transform="rotate(-0.0637727 844.496 584.002)" fill="#39C76D"/>
<path d="M844.498 586.263C845.748 586.262 846.759 585.248 846.758 583.999C846.757 583.259 846.401 582.602 845.851 582.19L843.141 585.812C843.519 586.096 843.989 586.264 844.498 586.263Z" fill="black" fill-opacity="0.08"/>
<path d="M911.837 462.242C908.98 462.242 906.758 460.02 906.758 457.163V452.084C906.758 438.116 917.869 426.688 932.154 426.688H937.233C939.773 426.688 942.312 429.227 942.312 431.767V436.846C942.312 451.131 930.884 462.242 916.916 462.242H911.837Z" fill="#28A656"/>
<path d="M942.313 436.846V431.766C942.313 430.486 941.667 429.205 940.701 428.25L908.321 460.866C909.226 461.724 910.457 462.242 911.837 462.242H916.916C930.884 462.242 942.313 451.131 942.313 436.846Z" fill="black" fill-opacity="0.08"/>
<path d="M902.801 489.148C902.801 493.014 905.935 496.148 909.801 496.148C913.667 496.148 916.801 493.014 916.801 489.148H909.801H902.801ZM901.793 454.234L896.07 458.265L900.247 464.197L905.971 460.166L911.694 456.136L907.516 450.204L901.793 454.234ZM909.801 472.258H902.801V489.148H909.801H916.801V472.258H909.801ZM905.971 460.166L900.247 464.197C901.909 466.556 902.801 469.372 902.801 472.258H909.801H916.801C916.801 466.486 915.017 460.855 911.694 456.136L905.971 460.166Z" fill="#228C49"/>
<path d="M880.767 433.414C877.91 433.414 875.688 435.636 875.688 438.493V443.573C875.688 457.54 886.798 468.969 901.084 468.969H906.163C908.703 468.969 911.242 466.429 911.242 463.89V458.81C911.242 444.525 899.814 433.414 885.846 433.414H880.767Z" fill="#28A656"/>
<path d="M911.242 458.811V463.89C911.242 465.171 910.596 466.451 909.631 467.406L877.25 434.79C878.155 433.933 879.387 433.414 880.767 433.414H885.846C899.814 433.414 911.242 444.525 911.242 458.811Z" fill="black" fill-opacity="0.08"/>
<path d="M943.965 485.562C942.718 495.397 934.326 503.006 924.15 503.017L893.043 503.052C882.867 503.063 874.458 495.473 873.188 485.64L943.965 485.562ZM873.023 483.15C873.023 483.126 873.022 483.102 873.022 483.077C873.022 483.052 873.023 483.028 873.023 483.003L873.023 483.15ZM924.105 463.022C934.398 463.011 942.881 470.779 943.998 480.775L873.144 480.854C874.238 470.855 882.705 463.068 892.998 463.057L924.105 463.022Z" fill="#76E49E"/>
<path d="M924.106 463.022L916.757 463.03L916.801 503.025L924.151 503.017C935.195 503.005 944.139 494.042 944.126 482.997C944.114 471.953 935.151 463.01 924.106 463.022Z" fill="black" fill-opacity="0.08"/>
<rect x="937.628" y="480.783" width="6.49446" height="4.78539" transform="rotate(-0.0637727 937.628 480.783)" fill="#28A656"/>
<rect x="879.517" y="480.848" width="58.1127" height="4.78575" transform="rotate(-0.0637727 879.517 480.848)" fill="#228C49"/>
<rect x="873.022" y="480.854" width="6.49446" height="4.78539" transform="rotate(-0.0637727 873.022 480.854)" fill="#28A656"/>
<path d="M881.678 503.065L935.688 503.005C937.809 503.003 939.748 502.228 941.241 500.948L876.121 501.021C877.616 502.298 879.557 503.068 881.678 503.065Z" fill="#39C76D"/>
<rect x="873.019" y="478.804" width="71.1026" height="2.05104" transform="rotate(-0.0637727 873.019 478.804)" fill="#39C76D"/>
<circle cx="882.07" cy="472.127" r="2.5636" transform="rotate(-0.0637727 882.07 472.127)" fill="#39C76D"/>
<path d="M882.071 474.691C883.486 474.689 884.633 473.54 884.631 472.124C884.63 471.286 884.227 470.542 883.604 470.075L880.532 474.18C880.961 474.501 881.494 474.692 882.071 474.691Z" fill="black" fill-opacity="0.08"/>
<circle cx="935.052" cy="472.069" r="2.5636" transform="rotate(-0.0637727 935.052 472.069)" fill="#39C76D"/>
<path d="M935.055 474.632C936.471 474.631 937.617 473.482 937.616 472.066C937.615 471.227 937.211 470.483 936.588 470.016L933.516 474.121C933.945 474.443 934.478 474.633 935.055 474.632Z" fill="black" fill-opacity="0.08"/>
<circle cx="882.094" cy="494.006" r="2.5636" transform="rotate(-0.0637727 882.094 494.006)" fill="#39C76D"/>
<path d="M882.097 496.57C883.512 496.568 884.659 495.419 884.657 494.003C884.656 493.165 884.253 492.421 883.63 491.954L880.558 496.059C880.987 496.38 881.519 496.57 882.097 496.57Z" fill="black" fill-opacity="0.08"/>
<circle cx="935.08" cy="493.947" r="2.5636" transform="rotate(-0.0637727 935.08 493.947)" fill="#39C76D"/>
<path d="M935.083 496.51C936.499 496.509 937.645 495.36 937.644 493.944C937.643 493.105 937.239 492.361 936.616 491.894L933.544 495.999C933.973 496.321 934.506 496.511 935.083 496.51Z" fill="black" fill-opacity="0.08"/>
</g>
<path d="M497.671 615.439L507.656 575.5H409.344L419.137 615.439C420.673 620.816 425.473 624.656 431.234 624.656H485.766C491.335 624.656 496.327 620.816 497.671 615.439Z" fill="#C8A802"/>
<path d="M497.671 615.439L507.656 575.5H469.371V624.656H485.766C491.335 624.656 496.327 620.816 497.671 615.439Z" fill="black" fill-opacity="0.08"/>
<rect x="403.199" y="563.211" width="110.602" height="12.2891" rx="6.14453" fill="#AB8F00"/>
<path d="M507.656 563.211H463.699V575.5H507.656C511.05 575.5 513.801 572.749 513.801 569.355C513.801 565.962 511.05 563.211 507.656 563.211Z" fill="black" fill-opacity="0.08"/>
<path d="M436.034 563.211L451.779 533.256C452.931 530.952 451.971 528.072 449.859 526.92C447.555 525.768 444.675 526.728 443.523 528.84L425.665 563.211H436.034Z" fill="#ADADAD"/>
<path d="M480.661 563.211L464.916 533.256C463.764 530.952 464.724 528.072 466.836 526.92C469.14 525.768 472.02 526.728 473.172 528.84L491.03 563.211H480.661Z" fill="#ADADAD"/>
<rect x="434.867" y="581.645" width="4.72656" height="24.5781" rx="2.36328" fill="#AB8F00"/>
<rect x="456.137" y="581.645" width="4.72656" height="24.5781" rx="2.36328" fill="#AB8F00"/>
<rect x="477.406" y="581.645" width="4.72656" height="24.5781" rx="2.36328" fill="#AB8F00"/>
<path d="M988 208.893C988 179.138 1007.25 153.223 1034.2 144.105C1034.2 142.665 1034.2 141.225 1034.2 139.786C1034.2 97.5536 1068.37 63 1111.2 63C1139.59 63 1164.62 78.8371 1177.61 101.873C1184.83 96.5938 1193.97 93.7143 1203.6 93.7143C1229.11 93.7143 1249.8 114.35 1249.8 139.786C1249.8 146.025 1248.36 151.304 1246.43 156.583C1274.82 162.342 1296 187.297 1296 216.571C1296 250.645 1268.09 278 1234.4 278H1057.3C1018.8 278 988 247.286 988 208.893Z" fill="white" fill-opacity="0.8"/>
<path d="M403 311.179C403 281.978 384.125 256.545 357.7 247.596C357.7 246.183 357.7 244.77 357.7 243.357C357.7 201.911 324.197 168 282.2 168C254.359 168 229.822 183.542 217.081 206.15C210.003 200.969 201.038 198.143 191.6 198.143C166.591 198.143 146.3 218.395 146.3 243.357C146.3 249.48 147.716 254.661 149.603 259.842C121.763 265.493 101 289.984 101 318.714C101 352.154 128.369 379 161.4 379H335.05C372.8 379 403 348.857 403 311.179Z" fill="white" fill-opacity="0.8"/>
<path d="M1173 320.179C1173 294.853 1189.25 272.795 1212 265.033C1212 263.808 1212 262.583 1212 261.357C1212 225.411 1240.84 196 1277 196C1300.97 196 1322.09 209.48 1333.06 229.087C1339.16 224.594 1346.88 222.143 1355 222.143C1376.53 222.143 1394 239.708 1394 261.357C1394 266.667 1392.78 271.161 1391.16 275.654C1415.12 280.556 1433 301.797 1433 326.714C1433 355.717 1409.44 379 1381 379H1231.5C1199 379 1173 352.857 1173 320.179Z" fill="white" fill-opacity="0.8"/>
<g clip-path="url(#clip5_813_6572)">
<path d="M1102.84 502.242C1099.98 502.242 1097.76 500.02 1097.76 497.163V492.084C1097.76 478.116 1108.87 466.688 1123.15 466.688H1128.23C1130.77 466.688 1133.31 469.227 1133.31 471.767V476.846C1133.31 491.131 1121.88 502.242 1107.92 502.242H1102.84Z" fill="#28A656"/>
<path d="M1133.31 476.846V471.766C1133.31 470.486 1132.67 469.205 1131.7 468.25L1099.32 500.866C1100.23 501.724 1101.46 502.242 1102.84 502.242H1107.92C1121.88 502.242 1133.31 491.131 1133.31 476.846Z" fill="black" fill-opacity="0.08"/>
<path d="M1093.8 529.148C1093.8 533.014 1096.93 536.148 1100.8 536.148C1104.67 536.148 1107.8 533.014 1107.8 529.148H1100.8H1093.8ZM1092.79 494.234L1087.07 498.265L1091.25 504.197L1096.97 500.166L1102.69 496.136L1098.52 490.204L1092.79 494.234ZM1100.8 512.258H1093.8V529.148H1100.8H1107.8V512.258H1100.8ZM1096.97 500.166L1091.25 504.197C1092.91 506.556 1093.8 509.372 1093.8 512.258H1100.8H1107.8C1107.8 506.486 1106.02 500.855 1102.69 496.136L1096.97 500.166Z" fill="#228C49"/>
<path d="M1071.77 473.414C1068.91 473.414 1066.69 475.636 1066.69 478.493V483.573C1066.69 497.54 1077.8 508.969 1092.08 508.969H1097.16C1099.7 508.969 1102.24 506.429 1102.24 503.89V498.81C1102.24 484.525 1090.81 473.414 1076.85 473.414H1071.77Z" fill="#28A656"/>
<path d="M1102.24 498.811V503.89C1102.24 505.171 1101.6 506.451 1100.63 507.406L1068.25 474.79C1069.16 473.933 1070.39 473.414 1071.77 473.414H1076.85C1090.81 473.414 1102.24 484.525 1102.24 498.811Z" fill="black" fill-opacity="0.08"/>
<g clip-path="url(#clip6_813_6572)">
<path d="M1085.31 525.867C1085.83 526.842 1087.04 527.211 1088.01 526.692C1088.99 526.173 1089.36 524.962 1088.84 523.987L1087.07 524.927L1085.31 525.867ZM1069.67 487.986L1068.73 486.22L1065.2 488.1L1066.14 489.865L1067.9 488.926L1069.67 487.986ZM1087.07 524.927L1088.84 523.987L1069.67 487.986L1067.9 488.926L1066.14 489.865L1085.31 525.867L1087.07 524.927Z" fill="#E4C837"/>
<path d="M1068.76 488.571C1068.55 489.275 1067.83 489.656 1067.13 489.441L1065.88 489.059C1062.43 488.008 1060.45 484.409 1061.53 480.888L1061.91 479.636C1062.1 479.009 1062.92 478.574 1063.54 478.765L1064.8 479.148C1068.32 480.222 1070.2 483.875 1069.15 487.319L1068.76 488.571Z" fill="#E4C837"/>
<path d="M1074.06 496.599C1073.41 496.945 1072.63 496.708 1072.29 496.058L1071.67 494.903C1069.98 491.725 1071.12 487.779 1074.37 486.049L1075.53 485.434C1076.11 485.126 1076.99 485.396 1077.3 485.974L1077.91 487.13C1079.64 490.38 1078.39 494.292 1075.21 495.984L1074.06 496.599Z" fill="#E4C837"/>
<path d="M1077.91 487.129L1077.3 485.974C1077.14 485.682 1076.84 485.469 1076.51 485.369L1073.09 496.711C1073.4 496.797 1073.74 496.766 1074.06 496.599L1075.21 495.983C1078.39 494.291 1079.64 490.379 1077.91 487.129Z" fill="black" fill-opacity="0.08"/>
<path d="M1071.4 496.528C1071.75 497.178 1071.51 497.953 1070.86 498.299L1069.71 498.914C1066.53 500.606 1062.58 499.462 1060.85 496.212L1060.24 495.057C1059.93 494.479 1060.2 493.594 1060.78 493.286L1061.93 492.671C1065.18 490.94 1069.1 492.195 1070.79 495.372L1071.4 496.528Z" fill="#E4C837"/>
<path d="M1061.93 492.671L1060.78 493.286C1060.49 493.441 1060.27 493.743 1060.17 494.079L1071.52 497.495C1071.6 497.185 1071.57 496.842 1071.4 496.528L1070.79 495.372C1069.1 492.195 1065.18 490.94 1061.93 492.671Z" fill="black" fill-opacity="0.08"/>
<path d="M1078.83 505.571C1078.18 505.917 1077.41 505.68 1077.06 505.03L1076.45 503.875C1074.76 500.697 1075.9 496.751 1079.15 495.021L1080.31 494.405C1080.88 494.098 1081.77 494.368 1082.08 494.946L1082.69 496.101C1084.42 499.351 1083.17 503.263 1079.99 504.955L1078.83 505.571Z" fill="#E4C837"/>
<path d="M1082.69 496.101L1082.08 494.945C1081.92 494.654 1081.62 494.441 1081.28 494.341L1077.87 505.683C1078.18 505.769 1078.52 505.737 1078.83 505.57L1079.99 504.955C1083.17 503.263 1084.42 499.351 1082.69 496.101Z" fill="black" fill-opacity="0.08"/>
<path d="M1076.18 505.501C1076.53 506.151 1076.29 506.925 1075.64 507.271L1074.48 507.887C1071.31 509.579 1067.36 508.435 1065.63 505.185L1065.01 504.029C1064.71 503.452 1064.98 502.566 1065.55 502.259L1066.71 501.643C1069.96 499.913 1073.87 501.167 1075.56 504.345L1076.18 505.501Z" fill="#E4C837"/>
<path d="M1066.71 501.643L1065.56 502.259C1065.26 502.414 1065.05 502.716 1064.95 503.051L1076.29 506.467C1076.38 506.158 1076.35 505.815 1076.18 505.501L1075.56 504.345C1073.87 501.167 1069.96 499.913 1066.71 501.643Z" fill="black" fill-opacity="0.08"/>
<path d="M1083.85 514.991C1083.2 515.337 1082.42 515.101 1082.08 514.451L1081.46 513.295C1079.77 510.118 1080.92 506.172 1084.17 504.441L1085.32 503.826C1085.9 503.519 1086.78 503.789 1087.09 504.367L1087.71 505.522C1089.44 508.772 1088.18 512.684 1085.01 514.376L1083.85 514.991Z" fill="#E4C837"/>
<path d="M1087.71 505.522L1087.09 504.366C1086.94 504.075 1086.63 503.862 1086.3 503.761L1082.88 515.104C1083.19 515.19 1083.54 515.158 1083.85 514.991L1085.01 514.376C1088.18 512.684 1089.44 508.772 1087.71 505.522Z" fill="black" fill-opacity="0.08"/>
<path d="M1081.2 514.922C1081.54 515.572 1081.31 516.346 1080.66 516.692L1079.5 517.308C1076.32 519 1072.38 517.856 1070.65 514.606L1070.03 513.45C1069.72 512.873 1069.99 511.987 1070.57 511.679L1071.73 511.064C1074.98 509.334 1078.89 510.588 1080.58 513.766L1081.2 514.922Z" fill="#E4C837"/>
<path d="M1071.73 511.064L1070.57 511.679C1070.28 511.835 1070.07 512.137 1069.97 512.472L1081.31 515.888C1081.39 515.578 1081.36 515.235 1081.2 514.922L1080.58 513.766C1078.89 510.588 1074.98 509.334 1071.73 511.064Z" fill="black" fill-opacity="0.08"/>
<path d="M1062.56 478.897C1062.86 478.731 1063.23 478.669 1063.54 478.765L1064.8 479.147C1068.32 480.222 1070.2 483.875 1069.15 487.318L1068.91 488.104L1088.13 524.217C1088.25 524.442 1088.39 524.767 1088.33 525.122C1088.24 525.566 1087.92 525.843 1087.92 525.843L1087.47 524.86L1068.2 489.307C1068.19 489.316 1068.18 489.326 1068.16 489.334L1062.56 478.897Z" fill="black" fill-opacity="0.08"/>
</g>
</g>
<g clip-path="url(#clip7_813_6572)">
<path d="M1068.31 519.867C1068.83 520.842 1070.04 521.211 1071.01 520.692C1071.99 520.173 1072.36 518.962 1071.84 517.987L1070.07 518.927L1068.31 519.867ZM1052.67 481.986L1051.73 480.22L1048.2 482.1L1049.14 483.865L1050.9 482.926L1052.67 481.986ZM1070.07 518.927L1071.84 517.987L1052.67 481.986L1050.9 482.926L1049.14 483.865L1068.31 519.867L1070.07 518.927Z" fill="#E4C837"/>
<path d="M1051.76 482.571C1051.55 483.275 1050.83 483.656 1050.13 483.441L1048.88 483.059C1045.43 482.008 1043.45 478.409 1044.53 474.888L1044.91 473.636C1045.1 473.009 1045.92 472.574 1046.54 472.765L1047.8 473.148C1051.32 474.222 1053.2 477.875 1052.15 481.319L1051.76 482.571Z" fill="#E4C837"/>
<path d="M1057.06 490.599C1056.41 490.945 1055.63 490.708 1055.29 490.058L1054.67 488.903C1052.98 485.725 1054.12 481.779 1057.37 480.049L1058.53 479.434C1059.11 479.126 1059.99 479.396 1060.3 479.974L1060.91 481.13C1062.64 484.38 1061.39 488.292 1058.21 489.984L1057.06 490.599Z" fill="#E4C837"/>
<path d="M1060.91 481.129L1060.3 479.974C1060.14 479.682 1059.84 479.469 1059.51 479.369L1056.09 490.711C1056.4 490.797 1056.74 490.766 1057.06 490.599L1058.21 489.983C1061.39 488.291 1062.64 484.379 1060.91 481.129Z" fill="black" fill-opacity="0.08"/>
<path d="M1054.4 490.528C1054.75 491.178 1054.51 491.953 1053.86 492.299L1052.71 492.914C1049.53 494.606 1045.58 493.462 1043.85 490.212L1043.24 489.057C1042.93 488.479 1043.2 487.594 1043.78 487.286L1044.93 486.671C1048.18 484.94 1052.1 486.195 1053.79 489.372L1054.4 490.528Z" fill="#E4C837"/>
<path d="M1044.93 486.671L1043.78 487.286C1043.49 487.441 1043.27 487.743 1043.17 488.079L1054.52 491.495C1054.6 491.185 1054.57 490.842 1054.4 490.528L1053.79 489.372C1052.1 486.195 1048.18 484.94 1044.93 486.671Z" fill="black" fill-opacity="0.08"/>
<path d="M1061.83 499.571C1061.18 499.918 1060.41 499.681 1060.06 499.031L1059.45 497.876C1057.76 494.698 1058.9 490.752 1062.15 489.021L1063.31 488.406C1063.88 488.099 1064.77 488.369 1065.08 488.947L1065.69 490.102C1067.42 493.352 1066.17 497.264 1062.99 498.956L1061.83 499.571Z" fill="#E4C837"/>
<path d="M1065.69 490.102L1065.08 488.946C1064.92 488.655 1064.62 488.442 1064.28 488.342L1060.87 499.684C1061.18 499.77 1061.52 499.738 1061.83 499.571L1062.99 498.956C1066.17 497.264 1067.42 493.352 1065.69 490.102Z" fill="black" fill-opacity="0.08"/>
<path d="M1059.18 499.501C1059.53 500.151 1059.29 500.925 1058.64 501.271L1057.48 501.887C1054.31 503.579 1050.36 502.435 1048.63 499.185L1048.01 498.029C1047.71 497.452 1047.98 496.566 1048.55 496.259L1049.71 495.643C1052.96 493.913 1056.87 495.167 1058.56 498.345L1059.18 499.501Z" fill="#E4C837"/>
<path d="M1049.71 495.643L1048.56 496.259C1048.26 496.414 1048.05 496.716 1047.95 497.051L1059.29 500.467C1059.38 500.158 1059.35 499.815 1059.18 499.501L1058.56 498.345C1056.87 495.167 1052.96 493.913 1049.71 495.643Z" fill="black" fill-opacity="0.08"/>
<path d="M1066.85 508.992C1066.2 509.338 1065.42 509.102 1065.08 508.452L1064.46 507.296C1062.77 504.119 1063.92 500.173 1067.17 498.442L1068.32 497.827C1068.9 497.52 1069.78 497.79 1070.09 498.367L1070.71 499.523C1072.44 502.773 1071.18 506.685 1068.01 508.377L1066.85 508.992Z" fill="#E4C837"/>
<path d="M1070.71 499.523L1070.09 498.367C1069.94 498.076 1069.63 497.863 1069.3 497.762L1065.88 509.105C1066.19 509.191 1066.54 509.159 1066.85 508.992L1068.01 508.377C1071.18 506.685 1072.44 502.773 1070.71 499.523Z" fill="black" fill-opacity="0.08"/>
<path d="M1064.2 508.922C1064.54 509.572 1064.31 510.346 1063.66 510.692L1062.5 511.308C1059.32 513 1055.38 511.856 1053.65 508.606L1053.03 507.45C1052.72 506.873 1052.99 505.987 1053.57 505.679L1054.73 505.064C1057.98 503.334 1061.89 504.588 1063.58 507.766L1064.2 508.922Z" fill="#E4C837"/>
<path d="M1054.73 505.064L1053.57 505.679C1053.28 505.835 1053.07 506.137 1052.97 506.472L1064.31 509.888C1064.39 509.578 1064.36 509.235 1064.2 508.922L1063.58 507.766C1061.89 504.588 1057.98 503.334 1054.73 505.064Z" fill="black" fill-opacity="0.08"/>
<path d="M1045.56 472.897C1045.86 472.731 1046.23 472.669 1046.54 472.765L1047.8 473.147C1051.32 474.222 1053.2 477.875 1052.15 481.318L1051.91 482.104L1071.13 518.217C1071.25 518.442 1071.39 518.767 1071.33 519.122C1071.24 519.566 1070.92 519.843 1070.92 519.843L1070.47 518.86L1051.2 483.307C1051.19 483.316 1051.18 483.326 1051.16 483.334L1045.56 472.897Z" fill="black" fill-opacity="0.08"/>
</g>
<path d="M1126.98 492.12C1127.24 490 1127.79 485.421 1122.87 484.829" stroke="#186635" stroke-width="5.66406" stroke-linecap="round"/>
<path d="M1110.62 498.667C1111.25 493.431 1114.36 487.934 1119.67 488.572C1121.53 488.796 1123.64 489.819 1125.15 490.63C1126.4 491.27 1127.85 491.444 1129.21 491.119C1130.87 490.69 1133.17 490.197 1135.1 490.429C1140.33 491.059 1142.12 497.145 1141.49 502.381C1140.43 511.2 1134.12 517.151 1128.61 516.488C1127.44 516.347 1126.04 515.759 1125.12 515.299C1124.59 515.026 1123.97 514.951 1123.39 515.092C1122.46 515.328 1120.89 515.559 1119.79 515.427C1114.28 514.763 1109.56 507.486 1110.62 498.667Z" fill="#F20B0B"/>
<path d="M1135.1 490.429C1133.17 490.197 1130.87 490.689 1129.21 491.119C1128.51 491.285 1127.79 491.321 1127.09 491.23L1124.22 515.034C1124.53 515.065 1124.84 515.154 1125.12 515.299C1126.04 515.759 1127.44 516.347 1128.61 516.488C1134.12 517.151 1140.43 511.2 1141.49 502.381C1142.12 497.145 1140.33 491.059 1135.1 490.429Z" fill="black" fill-opacity="0.08"/>
<path d="M1127.51 488.399C1126.89 488.324 1126.47 487.784 1126.54 487.164L1126.68 486.062C1127.04 483.03 1129.75 480.84 1132.85 481.213L1133.95 481.346C1134.51 481.412 1134.99 482.03 1134.92 482.581L1134.79 483.683C1134.42 486.783 1131.65 488.896 1128.62 488.532L1127.51 488.399Z" fill="#28A656"/>
<path d="M1134.79 483.683L1134.92 482.581C1134.96 482.303 1134.85 482.008 1134.67 481.775L1126.79 488.008C1126.96 488.218 1127.21 488.363 1127.51 488.399L1128.62 488.531C1131.65 488.896 1134.42 486.783 1134.79 483.683Z" fill="black" fill-opacity="0.08"/>
<circle cx="1130.24" cy="611.915" r="7.1078" fill="#ADADAD" stroke="#858585" stroke-width="10"/>
<path d="M1130.57 624.067C1137.26 624.067 1142.68 618.646 1142.68 611.959C1142.68 607.683 1140.46 603.925 1137.11 601.771L1124.68 622.54C1126.42 623.512 1128.43 624.067 1130.57 624.067Z" fill="black" fill-opacity="0.08"/>
<circle cx="1056.94" cy="611.915" r="7.1078" fill="#ADADAD" stroke="#858585" stroke-width="10"/>
<path d="M1056.94 624.023C1063.63 624.023 1069.05 618.602 1069.05 611.915C1069.05 607.639 1066.83 603.881 1063.49 601.727L1051.05 622.496C1052.79 623.468 1054.8 624.023 1056.94 624.023Z" fill="black" fill-opacity="0.08"/>
<path d="M1018 500H1026.34C1032.09 500 1037.04 504.087 1038.12 509.74L1049.75 570.39C1051.38 578.869 1058.79 585 1067.43 585H1136" stroke="#ADADAD" stroke-width="14" stroke-linecap="round"/>
<path d="M1018 491C1013.03 491 1009 495.029 1009 500C1009 504.971 1013.03 509 1018 509V500V491ZM1030.18 512.806L1031.99 521.623L1049.62 518.011L1047.82 509.194L1039 511L1030.18 512.806ZM1018 500V509H1026.96V500V491H1018V500ZM1038.71 509.592L1029.89 511.398L1030.18 512.806L1039 511L1047.82 509.194L1047.53 507.786L1038.71 509.592ZM1026.96 500V509C1028.38 509 1029.61 510.002 1029.89 511.398L1038.71 509.592L1047.53 507.786C1045.53 498.015 1036.93 491 1026.96 491V500Z" fill="#858585"/>
<path d="M1139.81 506.637C1147.11 506.637 1152.39 513.626 1150.38 520.651L1143.33 545.389C1140.52 555.27 1131.49 562.084 1121.22 562.084H1062.74L1052.48 506.637H1139.81Z" fill="#858585" stroke="#ADADAD" stroke-width="10" stroke-linecap="round"/>
<path d="M1052.03 523.234H1151.51" stroke="#ADADAD" stroke-width="10"/>
<path d="M1055.96 544.832H1147.27" stroke="#ADADAD" stroke-width="10"/>
<path d="M1071.01 504.909L1081.48 563.485" stroke="#ADADAD" stroke-width="10"/>
<path d="M1122.72 504.582V563.485" stroke="#ADADAD" stroke-width="10"/>
<path d="M1099.15 503.601L1101.12 562.503" stroke="#ADADAD" stroke-width="10"/>
<path d="M1155.19 522.022L1148.14 546.759C1144.71 558.788 1133.72 567.084 1121.22 567.084H1116.17V501.637H1139.81C1150.43 501.637 1158.11 511.803 1155.19 522.022Z" fill="black" fill-opacity="0.08"/>
<path d="M920.981 545.12C921.236 543 921.787 538.421 916.868 537.829" stroke="#186635" stroke-width="5.66406" stroke-linecap="round"/>
<path d="M904.622 551.667C905.252 546.431 908.36 540.934 913.665 541.572C915.525 541.796 917.639 542.819 919.149 543.63C920.4 544.27 921.847 544.444 923.214 544.119C924.873 543.69 927.169 543.197 929.098 543.429C934.334 544.059 936.118 550.145 935.488 555.381C934.427 564.2 928.119 570.151 922.608 569.488C921.436 569.347 920.039 568.759 919.116 568.299C918.59 568.026 917.97 567.951 917.394 568.092C916.457 568.328 914.891 568.559 913.789 568.427C908.277 567.763 903.561 560.486 904.622 551.667Z" fill="#F20B0B"/>
<path d="M929.098 543.429C927.169 543.197 924.873 543.689 923.214 544.119C922.514 544.285 921.793 544.321 921.088 544.23L918.223 568.034C918.533 568.065 918.838 568.154 919.116 568.299C920.039 568.759 921.436 569.347 922.607 569.488C928.119 570.151 934.427 564.2 935.488 555.381C936.118 550.145 934.334 544.059 929.098 543.429Z" fill="black" fill-opacity="0.08"/>
<path d="M921.514 541.399C920.894 541.324 920.47 540.784 920.544 540.164L920.677 539.062C921.042 536.03 923.752 533.84 926.852 534.213L927.954 534.346C928.506 534.412 928.991 535.03 928.924 535.581L928.792 536.683C928.418 539.783 925.648 541.896 922.616 541.532L921.514 541.399Z" fill="#28A656"/>
<path d="M928.792 536.683L928.924 535.581C928.958 535.303 928.851 535.008 928.666 534.775L920.787 541.008C920.961 541.218 921.215 541.363 921.514 541.399L922.616 541.531C925.648 541.896 928.418 539.783 928.792 536.683Z" fill="black" fill-opacity="0.08"/>
<path d="M894.212 544.714C894.002 542.589 893.548 537.999 888.618 538.487" stroke="#186635" stroke-width="5.66406" stroke-linecap="round"/>
<path d="M879.66 554.65C879.141 549.401 880.984 543.362 886.301 542.836C888.166 542.651 890.451 543.192 892.101 543.657C893.461 544.01 894.911 543.867 896.175 543.254C897.702 542.475 899.837 541.497 901.77 541.306C907.019 540.787 910.078 546.342 910.597 551.59C911.472 560.429 906.603 567.605 901.078 568.152C899.904 568.268 898.413 567.997 897.412 567.747C896.839 567.595 896.218 567.656 895.686 567.918C894.822 568.352 893.344 568.917 892.239 569.026C886.714 569.572 880.534 563.489 879.66 554.65Z" fill="#F20B0B"/>
<path d="M901.77 541.306C899.837 541.497 897.702 542.475 896.175 543.254C895.527 543.568 894.831 543.759 894.123 543.823L896.483 567.683C896.793 567.646 897.109 567.667 897.412 567.747C898.413 567.997 899.904 568.268 901.078 568.152C906.603 567.605 911.472 560.429 910.597 551.59C910.078 546.342 907.018 540.787 901.77 541.306Z" fill="black" fill-opacity="0.08"/>
<path d="M893.927 540.966C893.305 541.027 892.774 540.592 892.713 539.97L892.604 538.865C892.303 535.827 894.474 533.102 897.582 532.794L898.687 532.685C899.239 532.631 899.846 533.128 899.901 533.681L900.01 534.786C900.317 537.893 898.07 540.556 895.032 540.857L893.927 540.966Z" fill="#28A656"/>
<path d="M900.01 534.786L899.901 533.681C899.873 533.402 899.705 533.138 899.474 532.951L893.132 540.743C893.348 540.91 893.627 540.996 893.927 540.966L895.032 540.857C898.07 540.556 900.317 537.894 900.01 534.786Z" fill="black" fill-opacity="0.08"/>
<path d="M939.336 576.603C938.236 585.28 930.832 591.994 921.854 592.004L894.411 592.034C885.434 592.044 878.015 585.347 876.895 576.673L939.336 576.603ZM921.815 556.718C930.896 556.708 938.382 563.561 939.367 572.382L876.855 572.451C877.82 563.629 885.29 556.759 894.372 556.749L921.815 556.718Z" fill="#76E49E"/>
<path d="M921.815 556.718L915.331 556.726L915.37 592.01L921.854 592.003C931.598 591.992 939.488 584.085 939.477 574.341C939.466 564.598 931.559 556.708 921.815 556.718Z" fill="black" fill-opacity="0.08"/>
<rect x="933.745" y="572.388" width="5.73002" height="4.22212" transform="rotate(-0.0637727 933.745 572.388)" fill="#28A656"/>
<rect x="882.476" y="572.444" width="51.2686" height="4.22212" transform="rotate(-0.0637727 882.476 572.444)" fill="#228C49"/>
<rect x="876.746" y="572.451" width="5.73002" height="4.22212" transform="rotate(-0.0637727 876.746 572.451)" fill="#28A656"/>
<path d="M884.382 592.045L932.032 591.992C933.903 591.99 935.614 591.307 936.93 590.177L879.48 590.241C880.799 591.368 882.512 592.047 884.382 592.045Z" fill="#39C76D"/>
<rect x="876.744" y="570.642" width="62.7287" height="1.80948" transform="rotate(-0.0637727 876.744 570.642)" fill="#39C76D"/>
<circle cx="884.73" cy="564.752" r="2.26185" transform="rotate(-0.0637727 884.73 564.752)" fill="#39C76D"/>
<path d="M884.732 567.013C885.981 567.012 886.993 565.998 886.992 564.749C886.991 564.009 886.635 563.352 886.085 562.94L883.375 566.562C883.753 566.846 884.223 567.014 884.732 567.013Z" fill="black" fill-opacity="0.08"/>
<circle cx="931.475" cy="564.7" r="2.26185" transform="rotate(-0.0637727 931.475 564.7)" fill="#39C76D"/>
<path d="M931.477 566.961C932.727 566.96 933.738 565.946 933.737 564.697C933.736 563.957 933.38 563.301 932.83 562.889L930.12 566.511C930.498 566.794 930.968 566.962 931.477 566.961Z" fill="black" fill-opacity="0.08"/>
<circle cx="884.751" cy="584.053" r="2.26185" transform="rotate(-0.0637727 884.751 584.053)" fill="#39C76D"/>
<path d="M884.754 586.315C886.003 586.314 887.014 585.3 887.013 584.051C887.012 583.311 886.656 582.654 886.107 582.242L883.396 585.864C883.774 586.148 884.245 586.316 884.754 586.315Z" fill="black" fill-opacity="0.08"/>
<circle cx="931.496" cy="584.002" r="2.26185" transform="rotate(-0.0637727 931.496 584.002)" fill="#39C76D"/>
<path d="M931.499 586.263C932.748 586.262 933.76 585.248 933.758 583.999C933.757 583.259 933.401 582.602 932.852 582.19L930.141 585.812C930.52 586.096 930.99 586.264 931.499 586.263Z" fill="black" fill-opacity="0.08"/>
<rect opacity="0.8" x="-3" y="626" width="1646" height="275" fill="#28A656"/>
<g style="mix-blend-mode:color-burn">
<rect x="-3" y="629" width="1645" height="274" fill="url(#paint0_linear_813_6572)" fill-opacity="0.2"/>
</g>
<g style="mix-blend-mode:color-burn">
<rect x="-2" y="711" width="1645" height="274" fill="url(#paint1_linear_813_6572)" fill-opacity="0.5"/>
</g>
<g style="mix-blend-mode:color-burn">
<rect x="-2" y="806" width="1645" height="274" fill="url(#paint2_linear_813_6572)" fill-opacity="0.5"/>
</g>
</g>
<defs>
<linearGradient id="paint0_linear_813_6572" x1="951.688" y1="662.381" x2="951.688" y2="890.83" gradientUnits="userSpaceOnUse">
<stop stop-color="#D9D9D9"/>
<stop offset="1" stop-color="#737373"/>
</linearGradient>
<linearGradient id="paint1_linear_813_6572" x1="952.688" y1="744.381" x2="952.688" y2="972.83" gradientUnits="userSpaceOnUse">
<stop stop-color="#D9D9D9"/>
<stop offset="1" stop-color="#737373"/>
</linearGradient>
<linearGradient id="paint2_linear_813_6572" x1="952.688" y1="839.381" x2="952.688" y2="1067.83" gradientUnits="userSpaceOnUse">
<stop stop-color="#D9D9D9"/>
<stop offset="1" stop-color="#737373"/>
</linearGradient>
<clipPath id="clip0_813_6572">
<rect width="1600" height="900" rx="32" fill="white"/>
</clipPath>
<clipPath id="clip1_813_6572">
<rect width="574" height="574" fill="white" transform="translate(404 105)"/>
</clipPath>
<clipPath id="clip2_813_6572">
<rect width="46" height="46" fill="white" transform="translate(806 449.424) rotate(-19.5912)"/>
</clipPath>
<clipPath id="clip3_813_6572">
<rect width="46" height="46" fill="white" transform="translate(788 462.904) rotate(-45.6693)"/>
</clipPath>
<clipPath id="clip4_813_6572">
<rect width="46" height="46" fill="white" transform="translate(780 479.997) rotate(-73.031)"/>
</clipPath>
<clipPath id="clip5_813_6572">
<rect width="82" height="82" fill="white" transform="translate(1059 459)"/>
</clipPath>
<clipPath id="clip6_813_6572">
<rect width="46" height="46" fill="white" transform="translate(1046 516.997) rotate(-73.031)"/>
</clipPath>
<clipPath id="clip7_813_6572">
<rect width="46" height="46" fill="white" transform="translate(1029 510.997) rotate(-73.031)"/>
</clipPath>
</defs>
</svg>
