<svg xmlns="http://www.w3.org/2000/svg" width="188" height="44" fill="none"><path fill="#16B2D4" fill-rule="evenodd" d="M179.297 15.402c2.442 1.245 4.358 3.017 5.747 5.268s2.107 4.837 2.107 7.71c0 2.922-.718 5.509-2.107 7.76q-2.084 3.376-5.747 5.316c-2.443 1.245-5.221 1.867-8.381 1.867s-5.939-.622-8.382-1.867q-3.663-1.94-5.747-5.316c-1.389-2.251-2.107-4.838-2.107-7.76 0-2.873.718-5.459 2.107-7.71 1.389-2.25 3.305-4.023 5.747-5.268 2.443-1.293 5.221-1.916 8.382-1.916s5.938.623 8.381 1.916m-8.116 20.47c4.495 0 8.14-3.629 8.14-8.103 0-4.477-3.004-9.618-11.889-9.618 2.583 1.968 1.406 2.735-.376 3.898-1.688 1.1-3.919 2.556-4.015 5.72-.136 4.472 3.645 8.102 8.14 8.102" clip-rule="evenodd"/><path fill="#16B2D4" d="M144.958 34.847c-1.054.622-2.203.91-3.448.91a7.1 7.1 0 0 1-3.449-.863c-1.053-.574-1.868-1.389-2.49-2.49q-.862-1.653-.862-4.023c0-1.532.287-2.826.862-3.927.622-1.102 1.437-1.964 2.49-2.538a7.1 7.1 0 0 1 3.449-.863 6.7 6.7 0 0 1 3.448.958c1.053.623 1.963 1.58 2.682 2.97l7.279-3.832c-1.005-2.49-2.682-4.358-5.028-5.699-2.347-1.341-5.077-2.06-8.334-2.06-3.16 0-5.986.623-8.477 1.916-2.49 1.246-4.406 3.018-5.842 5.269-1.389 2.25-2.108 4.837-2.108 7.71 0 2.922.719 5.508 2.108 7.759 1.436 2.25 3.4 4.023 5.842 5.316q3.737 1.868 8.477 1.868c3.209 0 5.987-.67 8.334-1.964 2.346-1.34 4.023-3.257 5.028-5.7l-7.279-3.878c-.719 1.532-1.629 2.538-2.682 3.16M122.209 13.918h-9.435V42.94h9.435zM117.515 10.421c1.772 0 3.161-.479 4.215-1.484 1.053-1.006 1.628-2.251 1.628-3.832 0-1.436-.527-2.634-1.628-3.544-1.054-.91-2.491-1.389-4.215-1.389-1.772 0-3.161.48-4.214 1.485-1.054.958-1.629 2.155-1.629 3.592 0 1.485.527 2.682 1.629 3.688 1.053 1.005 2.442 1.484 4.214 1.484M105.015 36.044c-1.006 0-1.82-.288-2.394-.91s-.862-1.533-.862-2.634V22.01h6.8v-7.136h-6.8V7.5h-9.435v7.423h-4.358v7.136h4.358v10.584c0 3.592 1.005 6.322 2.969 8.094 2.011 1.772 4.789 2.682 8.429 2.682 1.341 0 2.586-.143 3.832-.43q1.796-.36 3.16-1.294l-2.394-6.61c-.958.624-2.012.959-3.305.959M80.542 14.875c-1.772-.91-3.831-1.389-6.13-1.389-2.49 0-4.646.527-6.61 1.629-1.053.574-1.963 1.245-2.73 2.107v-3.257H56.07V42.94h9.435V28.812c0-1.724.287-3.113.814-4.119.527-1.053 1.293-1.868 2.203-2.347a7.2 7.2 0 0 1 3.209-.766c1.628 0 2.921.48 3.831 1.485s1.39 2.586 1.39 4.79V42.94h9.434V26.37c0-2.97-.527-5.412-1.532-7.28-1.054-1.916-2.49-3.305-4.31-4.215M45.293 15.402c-2.442-1.293-5.22-1.916-8.381-1.916s-5.939.623-8.381 1.916c-2.443 1.245-4.359 3.017-5.747 5.268-1.39 2.251-2.108 4.837-2.108 7.71 0 2.922.719 5.509 2.108 7.76q2.082 3.376 5.747 5.316c2.442 1.245 5.22 1.867 8.38 1.867 3.162 0 5.94-.622 8.382-1.867q3.664-1.94 5.747-5.316c1.39-2.251 2.108-4.838 2.108-7.76 0-2.873-.719-5.459-2.108-7.71-1.389-2.25-3.304-3.975-5.747-5.268M42.66 32.356c-.575 1.102-1.341 1.964-2.347 2.538-1.005.575-2.107.862-3.4.862-1.245 0-2.395-.287-3.4-.862a6.05 6.05 0 0 1-2.347-2.538c-.575-1.102-.862-2.443-.862-3.975s.287-2.826.862-3.927c.622-1.102 1.389-1.964 2.346-2.539 1.006-.574 2.108-.862 3.4-.862 1.246 0 2.395.288 3.401.862s1.772 1.39 2.347 2.539c.575 1.053.862 2.394.862 3.927 0 1.58-.287 2.874-.862 3.975M21.203 14.876h-7.088v-.91c0-1.341.287-2.347.91-3.018.623-.622 1.533-.958 2.634-.958q.935 0 1.724.288c.527.191 1.054.383 1.485.622l2.347-6.705q-1.221-.79-3.017-1.149c-1.198-.24-2.395-.383-3.593-.383-3.735 0-6.657 1.006-8.668 3.065C5.925 7.739 4.92 10.469 4.92 13.87v.958H.61v7.136h4.358V42.94h9.435V22.01h6.8z"/></svg>