<svg xmlns="http://www.w3.org/2000/svg" width="1674" height="975" fill="none"><g filter="url(#a)"><g clip-path="url(#b)"><rect width="1600" height="900" x="42" y="35" fill="#16B2D4" rx="32"/><path fill="url(#c)" fill-opacity=".2" d="M1641 935h1599v900H1641z" style="mix-blend-mode:color-burn" transform="rotate(180 1641 935)"/><path fill="#16B2D4" d="M440 413h181v216H440zm255-137h280v236H695zm348 317h171v163h-171z"/><path fill="#fff" fill-opacity=".8" d="M1021.07 783C972.7 783 934 744.286 934 695.893c0-37.505 24.188-70.17 58.05-81.663v-5.444c0-53.232 42.93-96.786 96.75-96.786 35.68 0 67.12 19.962 83.45 48.998 9.07-6.654 20.56-10.284 32.65-10.284 32.05 0 58.05 26.011 58.05 58.072 0 7.864-1.81 14.518-4.23 21.172 35.67 7.259 62.28 38.714 62.28 75.613 0 42.949-35.07 77.429-77.4 77.429zm47.78-131.266c-6.05 6.049-6.05 15.123 0 20.567 5.44 6.049 14.51 6.049 19.95 0l23.58-23.591.61 81.058c0 8.469 6.04 14.518 14.51 14.518 7.86 0 14.51-6.049 14.51-14.518V648.71l23.59 23.591c5.44 6.049 14.51 6.049 19.95 0 6.05-5.444 6.05-14.518 0-20.567l-48.38-48.392c-5.44-5.445-14.51-5.445-19.95 0zM697.925 528C636.3 528 587 478.714 587 417.107c0-47.745 30.812-89.33 73.95-103.962v-6.931C660.95 238.446 715.642 183 784.2 183c45.448 0 85.505 25.413 106.303 62.377 11.555-8.471 26.191-13.091 41.597-13.091 40.827 0 73.95 33.114 73.95 73.928 0 10.011-2.31 18.482-5.39 26.953 45.45 9.241 79.34 49.286 79.34 96.262 0 54.676-44.68 98.571-98.6 98.571zm12.325-215.625v24.643c0 17.712 13.095 30.803 30.812 30.803h12.325c16.947 0 30.813-13.091 30.813-30.803v-24.643c0-16.942-13.866-30.804-30.813-30.804h-12.325c-17.717 0-30.812 13.862-30.812 30.804m30.812-6.161h12.325c3.082 0 6.163 3.081 6.163 6.161v24.643c0 3.85-3.081 6.161-6.163 6.161h-12.325c-3.851 0-6.162-2.311-6.162-6.161v-24.643c0-3.08 2.311-6.161 6.162-6.161m67.788-12.321c0 6.931 5.392 12.321 12.325 12.321V355.5c0 6.931 5.392 12.321 12.325 12.321 6.163 0 12.325-5.39 12.325-12.321v-61.607c0-6.161-6.162-12.322-12.325-12.322h-12.325c-6.933 0-12.325 6.161-12.325 12.322m104.762-12.322c-17.717 0-30.812 13.862-30.812 30.804v24.643c0 17.712 13.095 30.803 30.812 30.803h12.326c16.946 0 30.812-13.091 30.812-30.803v-24.643c0-16.942-13.866-30.804-30.812-30.804zm-6.162 30.804c0-3.08 2.311-6.161 6.162-6.161h12.326c3.081 0 6.162 3.081 6.162 6.161v24.643c0 3.85-3.081 6.161-6.162 6.161h-12.326c-3.851 0-6.162-2.311-6.162-6.161zm-184.875 92.411c0 6.931 5.392 12.321 12.325 12.321v49.286c0 6.931 5.392 12.321 12.325 12.321 6.162 0 12.325-5.39 12.325-12.321v-61.607c0-6.161-6.163-12.322-12.325-12.322H734.9c-6.933 0-12.325 6.161-12.325 12.322m73.95 18.482v24.643c0 17.712 13.095 30.803 30.812 30.803h12.325c16.947 0 30.813-13.091 30.813-30.803v-24.643c0-16.942-13.866-30.804-30.813-30.804h-12.325c-17.717 0-30.812 13.862-30.812 30.804m30.812-6.161h12.325c3.082 0 6.163 3.081 6.163 6.161v24.643c0 3.85-3.081 6.16-6.163 6.16h-12.325c-3.851 0-6.162-2.31-6.162-6.16v-24.643c0-3.08 2.311-6.161 6.162-6.161m80.113-24.643c-6.933 0-12.325 6.161-12.325 12.322 0 6.931 5.392 12.321 12.325 12.321v49.286c0 6.931 5.392 12.321 12.325 12.321 6.163 0 12.325-5.39 12.325-12.321v-61.607c0-6.161-6.162-12.322-12.325-12.322z"/><path fill="#fff" fill-opacity=".8" d="M489.4 339c42.499 0 79.954 23.793 99.403 58.399 10.804-7.93 24.491-12.256 38.897-12.256 38.177 0 69.15 31.002 69.15 69.214 0 9.373-2.161 17.304-5.042 25.235C734.306 488.244 766 525.734 766 569.714c0 51.19-41.778 92.286-92.2 92.286H408.725C351.1 662 305 615.857 305 558.179c0-44.701 28.813-83.635 69.15-97.333v-6.489C374.15 390.911 425.293 339 489.4 339m33.1 107c-4.641 0-8.25 3.867-8.25 8.25v16.5h-30.938c-10.312 0-18.562 8.508-18.562 18.562v70.126A18.485 18.485 0 0 0 483.312 578h78.376c10.054 0 18.562-8.25 18.562-18.562v-70.126c0-10.054-8.508-18.562-18.562-18.562H530.75v-16.5c0-4.383-3.867-8.25-8.25-8.25m-70.125 57.75c-6.961 0-12.375 5.672-12.375 12.375v24.75c0 6.961 5.414 12.375 12.375 12.375h4.125v-49.5zm49.5 41.25c2.063 0 4.125 2.062 4.125 4.125 0 2.32-2.062 4.125-4.125 4.125h-8.25c-2.32 0-4.125-1.805-4.125-4.125 0-2.063 1.805-4.125 4.125-4.125zm24.75 0c2.063 0 4.125 2.062 4.125 4.125 0 2.32-2.062 4.125-4.125 4.125h-8.25c-2.32 0-4.125-1.805-4.125-4.125 0-2.063 1.805-4.125 4.125-4.125zm24.75 0c2.063 0 4.125 2.062 4.125 4.125 0 2.32-2.062 4.125-4.125 4.125h-8.25c-2.32 0-4.125-1.805-4.125-4.125 0-2.063 1.805-4.125 4.125-4.125zm37.125-41.25v49.5h4.125c6.703 0 12.375-5.414 12.375-12.375v-24.75c0-6.703-5.672-12.375-12.375-12.375zm-95.906-.516c3.094-1.804 6.961-1.804 10.312 0 3.094 1.805 5.156 5.157 5.156 8.766 0 3.867-2.062 7.219-5.156 9.023-3.351 1.805-7.218 1.805-10.312 0-3.352-1.804-5.156-5.156-5.156-9.023 0-3.609 1.804-6.961 5.156-8.766m54.656-1.546c3.609 0 6.961 2.062 8.766 5.156 1.804 3.351 1.804 7.218 0 10.312-1.805 3.352-5.157 5.156-8.766 5.156-3.867 0-7.219-1.804-9.023-5.156-1.805-3.094-1.805-6.961 0-10.312a10.4 10.4 0 0 1 9.023-5.156"/></g></g><defs><linearGradient id="c" x1="2568.99" x2="2568.99" y1="1044.64" y2="1795.03" gradientUnits="userSpaceOnUse"><stop stop-color="#fff"/><stop offset="1" stop-color="#A0A0A0"/></linearGradient><clipPath id="b"><rect width="1600" height="900" x="42" y="35" fill="#fff" rx="32"/></clipPath><filter id="a" width="1673.44" height="973.44" x=".333" y=".753" color-interpolation-filters="sRGB" filterUnits="userSpaceOnUse"><feFlood flood-opacity="0" result="BackgroundImageFix"/><feColorMatrix in="SourceAlpha" result="hardAlpha" values="0 0 0 0 0 0 0 0 0 0 0 0 0 0 0 0 0 0 127 0"/><feOffset dx="-4.947" dy="2.473"/><feGaussianBlur stdDeviation="18.36"/><feComposite in2="hardAlpha" operator="out"/><feColorMatrix values="0 0 0 0 0 0 0 0 0 0 0 0 0 0 0 0 0 0 0.1 0"/><feBlend in2="BackgroundImageFix" result="effect1_dropShadow_785_2366"/><feBlend in="SourceGraphic" in2="effect1_dropShadow_785_2366" result="shape"/></filter></defs></svg>