<svg width="1674" height="975" viewBox="0 0 1674 975" fill="none" xmlns="http://www.w3.org/2000/svg">
<g filter="url(#filter0_d_785_2294)">
<g clip-path="url(#clip0_785_2294)">
<rect x="42" y="35" width="1600" height="900" rx="32" fill="#16B2D4"/>
<g style="mix-blend-mode:color-burn">
<rect x="1641" y="663" width="1599" height="628" transform="rotate(180 1641 663)" fill="url(#paint0_linear_785_2294)" fill-opacity="0.2"/>
</g>
<rect opacity="0.62" x="42" y="663" width="1600" height="272" fill="#095C6F"/>
<g style="mix-blend-mode:color-burn">
<rect x="41" y="663" width="1599" height="272" fill="url(#paint1_linear_785_2294)" fill-opacity="0.2"/>
</g>
<path d="M472 324.75C472 288.906 495.125 257.688 527.5 246.703C527.5 244.969 527.5 243.234 527.5 241.5C527.5 190.625 568.547 149 620 149C654.109 149 684.172 168.078 699.781 195.828C708.453 189.469 719.438 186 731 186C761.641 186 786.5 210.859 786.5 241.5C786.5 249.016 784.766 255.375 782.453 261.734C816.562 268.672 842 298.734 842 334C842 375.047 808.469 408 768 408H555.25C509 408 472 371 472 324.75Z" fill="white" fill-opacity="0.8"/>
<path d="M1272 462.786C1272 438.152 1287.88 416.696 1310.1 409.147C1310.1 407.955 1310.1 406.763 1310.1 405.571C1310.1 370.607 1338.28 342 1373.6 342C1397.02 342 1417.65 355.112 1428.37 374.183C1434.32 369.812 1441.86 367.429 1449.8 367.429C1470.83 367.429 1487.9 384.513 1487.9 405.571C1487.9 410.737 1486.71 415.107 1485.12 419.478C1508.54 424.246 1526 444.906 1526 469.143C1526 497.353 1502.98 520 1475.2 520H1329.15C1297.4 520 1272 494.571 1272 462.786Z" fill="white" fill-opacity="0.8"/>
<path d="M694 457.607C694 427.299 713.5 400.902 740.8 391.614C740.8 390.147 740.8 388.681 740.8 387.214C740.8 344.196 775.412 309 818.8 309C847.562 309 872.912 325.132 886.075 348.596C893.387 343.219 902.65 340.286 912.4 340.286C938.237 340.286 959.2 361.306 959.2 387.214C959.2 393.569 957.737 398.946 955.787 404.324C984.55 410.19 1006 435.609 1006 465.429C1006 500.136 977.725 528 943.6 528H764.2C725.2 528 694 496.714 694 457.607Z" fill="white" fill-opacity="0.8"/>
<rect x="269.592" y="327.464" width="266.987" height="250.112" fill="#D6D6D6"/>
<g style="mix-blend-mode:overlay">
<path d="M269.592 478.044C269.592 475.153 271.152 472.487 273.672 471.07L524.66 329.996C529.992 326.998 536.579 330.852 536.579 336.97V519.554C536.579 523.973 532.998 527.554 528.579 527.554H277.592C273.174 527.554 269.592 523.973 269.592 519.554V478.044Z" fill="#333333"/>
</g>
<path d="M239 317.781C239 298.941 254.188 283 273.714 283H528.286C547.089 283 563 298.941 563 317.781V549.656C563 569.221 547.089 584.438 528.286 584.438H273.714C254.188 584.438 239 569.221 239 549.656V317.781ZM262.143 630.812V607.625H539.857V630.812C539.857 643.855 529.009 654 516.714 654H285.286C272.268 654 262.143 643.855 262.143 630.812ZM308.429 329.375C295.411 329.375 285.286 340.244 285.286 352.562V445.312C285.286 458.355 295.411 468.5 308.429 468.5H493.571C505.866 468.5 516.714 458.355 516.714 445.312V352.562C516.714 340.244 505.866 329.375 493.571 329.375H308.429ZM296.857 543.859C306.259 543.859 314.214 536.613 314.214 526.469C314.214 517.049 306.259 509.078 296.857 509.078C286.732 509.078 279.5 517.049 279.5 526.469C279.5 536.613 286.732 543.859 296.857 543.859ZM401 526.469C401 532.99 406.062 538.062 412.571 538.062H505.143C510.929 538.062 516.714 532.99 516.714 526.469C516.714 520.672 510.929 514.875 505.143 514.875H412.571C406.062 514.875 401 520.672 401 526.469Z" fill="#F5F5F5"/>
<mask id="mask0_785_2294" style="mask-type:alpha" maskUnits="userSpaceOnUse" x="1156" y="445" width="182" height="208">
<path d="M1182 445H1312C1326.22 445 1338 456.781 1338 471V627C1338 641.625 1326.22 653 1312 653H1182C1167.38 653 1156 641.625 1156 627V471C1156 456.781 1167.38 445 1182 445ZM1227.5 620.5C1223.84 620.5 1221 623.75 1221 627C1221 630.656 1223.84 633.5 1227.5 633.5H1266.5C1269.75 633.5 1273 630.656 1273 627C1273 623.75 1269.75 620.5 1266.5 620.5H1227.5Z" fill="black"/>
</mask>
<g mask="url(#mask0_785_2294)">
<rect x="1156" y="445" width="182" height="152" fill="#ADADAD"/>
<g style="mix-blend-mode:overlay">
<path d="M1338 597V445L1156 597H1338Z" fill="#333333"/>
</g>
<rect x="1133" y="600" width="225" height="53" fill="#D6D6D6"/>
</g>
<mask id="mask1_785_2294" style="mask-type:alpha" maskUnits="userSpaceOnUse" x="1358" y="471" width="125" height="183">
<path d="M1380.73 471H1460.27C1472.7 471 1483 481.365 1483 493.875V631.125C1483 643.992 1472.7 654 1460.27 654H1380.73C1367.94 654 1358 643.992 1358 631.125V493.875C1358 481.365 1367.94 471 1380.73 471ZM1420.5 613.969C1414.11 613.969 1409.14 619.33 1409.14 625.406C1409.14 631.84 1414.11 636.844 1420.5 636.844C1426.54 636.844 1431.86 631.84 1431.86 625.406C1431.86 619.33 1426.54 613.969 1420.5 613.969Z" fill="black"/>
</mask>
<g mask="url(#mask1_785_2294)">
<rect x="1358" y="601" width="125" height="55" fill="#D6D6D6"/>
<rect x="1358" y="471" width="125" height="128" fill="#ADADAD"/>
<g style="mix-blend-mode:overlay">
<path d="M1483 599V471L1358 599H1483Z" fill="#333333"/>
</g>
</g>
<rect x="795" y="455" width="207" height="134" fill="#ADADAD"/>
<g style="mix-blend-mode:overlay">
<path d="M800 544L1001 453L997.229 580.736C997.102 585.061 993.559 588.5 989.233 588.5H800V544Z" fill="#333333"/>
</g>
<path d="M767.7 457.714C767.7 439.824 782.006 425 800.4 425H996.6C1014.48 425 1029.3 439.824 1029.3 457.714V588.571H996.6V457.714H800.4V588.571H767.7V457.714ZM735 615.152C735 609.529 739.088 604.929 744.708 604.929H1051.78C1057.4 604.929 1062 609.529 1062 615.152C1062 636.621 1044.12 654 1022.66 654H773.831C752.372 654 735 636.621 735 615.152ZM837.188 474.071H845.362C856.603 474.071 865.8 483.272 865.8 494.518V510.875C865.8 522.632 856.603 531.321 845.362 531.321H837.188C825.436 531.321 816.75 522.632 816.75 510.875V494.518C816.75 483.272 825.436 474.071 837.188 474.071ZM833.1 494.518V510.875C833.1 513.431 834.633 514.964 837.188 514.964H845.362C847.406 514.964 849.45 513.431 849.45 510.875V494.518C849.45 492.473 847.406 490.429 845.362 490.429H837.188C834.633 490.429 833.1 492.473 833.1 494.518ZM890.325 474.071H898.5C902.587 474.071 906.675 478.161 906.675 482.25V523.143C906.675 527.743 902.587 531.321 898.5 531.321C893.902 531.321 890.325 527.743 890.325 523.143V490.429C885.727 490.429 882.15 486.85 882.15 482.25C882.15 478.161 885.727 474.071 890.325 474.071ZM931.2 494.518C931.2 483.272 939.886 474.071 951.637 474.071H959.812C971.053 474.071 980.25 483.272 980.25 494.518V510.875C980.25 522.632 971.053 531.321 959.812 531.321H951.637C939.886 531.321 931.2 522.632 931.2 510.875V494.518ZM951.637 490.429C949.083 490.429 947.55 492.473 947.55 494.518V510.875C947.55 513.431 949.083 514.964 951.637 514.964H959.812C961.856 514.964 963.9 513.431 963.9 510.875V494.518C963.9 492.473 961.856 490.429 959.812 490.429H951.637ZM833.1 547.679H841.275C845.362 547.679 849.45 551.768 849.45 555.857V588.571H833.1V564.036C828.502 564.036 824.925 560.458 824.925 555.857C824.925 551.768 828.502 547.679 833.1 547.679ZM963.9 555.857V588.571H947.55V564.036C942.952 564.036 939.375 560.458 939.375 555.857C939.375 551.768 942.952 547.679 947.55 547.679H955.725C959.812 547.679 963.9 551.768 963.9 555.857ZM923.025 568.125V588.571H906.675V568.125C906.675 566.08 904.631 564.036 902.587 564.036H894.412C891.858 564.036 890.325 566.08 890.325 568.125V588.571H873.975V568.125C873.975 556.879 882.661 547.679 894.412 547.679H902.587C913.828 547.679 923.025 556.879 923.025 568.125Z" fill="#EBEBEB"/>
</g>
</g>
<defs>
<filter id="filter0_d_785_2294" x="0.333432" y="0.753282" width="1673.44" height="973.44" filterUnits="userSpaceOnUse" color-interpolation-filters="sRGB">
<feFlood flood-opacity="0" result="BackgroundImageFix"/>
<feColorMatrix in="SourceAlpha" type="matrix" values="0 0 0 0 0 0 0 0 0 0 0 0 0 0 0 0 0 0 127 0" result="hardAlpha"/>
<feOffset dx="-4.94657" dy="2.47328"/>
<feGaussianBlur stdDeviation="18.36"/>
<feComposite in2="hardAlpha" operator="out"/>
<feColorMatrix type="matrix" values="0 0 0 0 0 0 0 0 0 0 0 0 0 0 0 0 0 0 0.1 0"/>
<feBlend mode="normal" in2="BackgroundImageFix" result="effect1_dropShadow_785_2294"/>
<feBlend mode="normal" in="SourceGraphic" in2="effect1_dropShadow_785_2294" result="shape"/>
</filter>
<linearGradient id="paint0_linear_785_2294" x1="2568.99" y1="739.508" x2="2568.99" y2="1263.11" gradientUnits="userSpaceOnUse">
<stop stop-color="#D9D9D9"/>
<stop offset="1" stop-color="#737373"/>
</linearGradient>
<linearGradient id="paint1_linear_785_2294" x1="968.991" y1="696.137" x2="968.991" y2="922.919" gradientUnits="userSpaceOnUse">
<stop stop-color="#D9D9D9"/>
<stop offset="1" stop-color="#737373"/>
</linearGradient>
<clipPath id="clip0_785_2294">
<rect x="42" y="35" width="1600" height="900" rx="32" fill="white"/>
</clipPath>
</defs>
</svg>
