<svg width="1674" height="975" viewBox="0 0 1674 975" fill="none" xmlns="http://www.w3.org/2000/svg">
<g filter="url(#filter0_d_813_6153)">
<g clip-path="url(#clip0_813_6153)">
<rect x="42" y="35" width="1600" height="900" rx="32" fill="#16B2D4"/>
<path d="M337 240.75C337 204.906 360.125 173.688 392.5 162.703C392.5 160.969 392.5 159.234 392.5 157.5C392.5 106.625 433.547 65 485 65C519.109 65 549.172 84.0781 564.781 111.828C573.453 105.469 584.438 102 596 102C626.641 102 651.5 126.859 651.5 157.5C651.5 165.016 649.766 171.375 647.453 177.734C681.562 184.672 707 214.734 707 250C707 291.047 673.469 324 633 324H420.25C374 324 337 287 337 240.75Z" fill="white" fill-opacity="0.8"/>
<path d="M1050 381.786C1050 357.152 1065.88 335.696 1088.1 328.147C1088.1 326.955 1088.1 325.763 1088.1 324.571C1088.1 289.607 1116.28 261 1151.6 261C1175.02 261 1195.65 274.112 1206.37 293.183C1212.32 288.813 1219.86 286.429 1227.8 286.429C1248.83 286.429 1265.9 303.513 1265.9 324.571C1265.9 329.737 1264.71 334.107 1263.12 338.478C1286.54 343.246 1304 363.906 1304 388.143C1304 416.353 1280.98 439 1253.2 439H1107.15C1075.4 439 1050 413.571 1050 381.786Z" fill="white" fill-opacity="0.8"/>
<path d="M559 373.607C559 343.299 578.5 316.902 605.8 307.614C605.8 306.147 605.8 304.681 605.8 303.214C605.8 260.196 640.412 225 683.8 225C712.562 225 737.912 241.132 751.075 264.596C758.387 259.219 767.65 256.286 777.4 256.286C803.237 256.286 824.2 277.306 824.2 303.214C824.2 309.569 822.737 314.946 820.787 320.324C849.55 326.19 871 351.609 871 381.429C871 416.136 842.725 444 808.6 444H629.2C590.2 444 559 412.714 559 373.607Z" fill="white" fill-opacity="0.8"/>
<path d="M210 633.669V413.932C210 397.352 219.562 382.047 235.5 375.67L406.35 307.435C410.812 305.522 416.55 305.522 421.012 307.435L591.862 375.67C607.8 382.047 618 397.352 618 413.932V633.669C618 642.597 610.987 630.753 602.7 630.753H572.1C563.175 630.753 556.8 642.597 556.8 633.669V447.093C556.8 436.252 547.237 426.686 536.4 426.686H291.6C280.125 426.686 271.2 436.252 271.2 447.093V633.669C271.2 642.597 264.187 630.753 255.9 630.753H225.3C216.375 630.753 210 642.597 210 633.669Z" fill="#28A656"/>
<path d="M618 414.061C618 397.49 607.831 382.194 591.941 375.82L470 327V426.808H536.645C547.45 426.808 556.984 436.368 556.984 447.202V633.671C556.984 642.593 563.34 630.757 572.238 630.757H602.746C611.009 630.757 618 642.593 618 633.671V414.061Z" fill="black" fill-opacity="0.08"/>
<rect x="196" y="621" width="437" height="37" rx="10" fill="#228C49"/>
<path d="M206 388L414.455 301L622 388" stroke="#228C49" stroke-width="15" stroke-linecap="round"/>
<rect x="259" y="399" width="308" height="40" fill="#76E49E"/>
<rect x="259" y="410" width="308" height="18" fill="#39C76D"/>
<rect x="317.685" y="550.286" width="71.0761" height="71.0761" fill="#F1D33D"/>
<rect x="345.022" y="550.286" width="16.4022" height="20.0471" fill="#C8A802"/>
<rect x="357.779" y="550.286" width="30.9819" height="71.0761" fill="black" fill-opacity="0.08"/>
<rect x="448.902" y="550.286" width="71.0761" height="71.0761" fill="#F1D33D"/>
<rect x="476.239" y="550.286" width="16.4022" height="20.0471" fill="#C8A802"/>
<rect x="488.997" y="550.286" width="30.9819" height="71.0761" fill="black" fill-opacity="0.08"/>
<rect x="448.902" y="479.21" width="71.0761" height="71.0761" fill="#F1D33D"/>
<rect x="476.239" y="479.21" width="16.4022" height="20.0471" fill="#C8A802"/>
<rect x="488.997" y="479.21" width="30.9819" height="71.0761" fill="black" fill-opacity="0.08"/>
<path d="M579.107 616.021C579.107 618.971 576.715 621.362 573.765 621.362H503.45C500.5 621.362 498.108 618.971 498.108 616.021V601.503H579.107V616.021ZM573.765 575.801C576.715 575.801 579.107 578.192 579.107 581.143V596.051H498.108V581.143C498.108 578.192 500.5 575.801 503.45 575.801H573.765Z" fill="#76E49E"/>
<path d="M579.106 616.021V581.143C579.106 578.192 576.714 575.801 573.764 575.801H547.953V621.362H573.764C576.714 621.362 579.106 618.971 579.106 616.021Z" fill="black" fill-opacity="0.08"/>
<rect x="571.708" y="596.051" width="7.39889" height="5.45181" fill="#28A656"/>
<rect x="505.509" y="596.051" width="66.2006" height="5.45181" fill="#228C49"/>
<rect x="498.109" y="596.051" width="7.39889" height="5.45181" fill="#28A656"/>
<path d="M507.943 621.362H569.47C571.886 621.362 574.096 620.482 575.798 619.025H501.615C503.317 620.482 505.527 621.362 507.943 621.362Z" fill="#39C76D"/>
<rect x="498.109" y="593.714" width="80.9984" height="2.33649" fill="#39C76D"/>
<circle cx="508.427" cy="586.121" r="2.92061" fill="#39C76D"/>
<path d="M508.426 589.041C510.039 589.041 511.347 587.734 511.347 586.121C511.347 585.165 510.888 584.317 510.179 583.784L506.674 588.457C507.162 588.824 507.769 589.041 508.426 589.041Z" fill="black" fill-opacity="0.08"/>
<circle cx="568.786" cy="586.121" r="2.92061" fill="#39C76D"/>
<path d="M568.786 589.041C570.399 589.041 571.706 587.734 571.706 586.121C571.706 585.165 571.247 584.317 570.538 583.784L567.033 588.457C567.521 588.824 568.128 589.041 568.786 589.041Z" fill="black" fill-opacity="0.08"/>
<circle cx="508.427" cy="611.044" r="2.92061" fill="#39C76D"/>
<path d="M508.426 613.964C510.039 613.964 511.347 612.657 511.347 611.044C511.347 610.088 510.888 609.24 510.179 608.707L506.674 613.38C507.162 613.747 507.769 613.964 508.426 613.964Z" fill="black" fill-opacity="0.08"/>
<circle cx="568.786" cy="611.044" r="2.92061" fill="#39C76D"/>
<path d="M568.786 613.964C570.399 613.964 571.706 612.657 571.706 611.044C571.706 610.088 571.247 609.24 570.538 608.707L567.033 613.38C567.521 613.747 568.128 613.964 568.786 613.964Z" fill="black" fill-opacity="0.08"/>
<path d="M579.107 570.459C579.107 573.409 576.715 575.801 573.765 575.801H503.45C500.5 575.801 498.108 573.409 498.108 570.459V555.941H579.107V570.459ZM573.765 530.239C576.715 530.239 579.107 532.631 579.107 535.581V550.489H498.108V535.581C498.108 532.631 500.5 530.239 503.45 530.239H573.765Z" fill="#76E49E"/>
<path d="M579.106 570.459V535.581C579.106 532.631 576.714 530.239 573.764 530.239H547.953V575.801H573.764C576.714 575.801 579.106 573.409 579.106 570.459Z" fill="black" fill-opacity="0.08"/>
<rect x="571.708" y="550.489" width="7.39889" height="5.45181" fill="#28A656"/>
<rect x="505.509" y="550.489" width="66.2006" height="5.45181" fill="#228C49"/>
<rect x="498.109" y="550.489" width="7.39889" height="5.45181" fill="#28A656"/>
<path d="M507.943 575.8H569.47C571.886 575.8 574.096 574.921 575.798 573.464H501.615C503.317 574.921 505.527 575.8 507.943 575.8Z" fill="#39C76D"/>
<rect x="498.109" y="548.152" width="80.9984" height="2.33649" fill="#39C76D"/>
<circle cx="508.427" cy="540.558" r="2.92061" fill="#39C76D"/>
<path d="M508.426 543.479C510.039 543.479 511.347 542.171 511.347 540.558C511.347 539.603 510.888 538.755 510.179 538.222L506.674 542.895C507.162 543.262 507.769 543.479 508.426 543.479Z" fill="black" fill-opacity="0.08"/>
<circle cx="568.786" cy="540.558" r="2.92061" fill="#39C76D"/>
<path d="M568.786 543.479C570.399 543.479 571.706 542.171 571.706 540.558C571.706 539.603 571.247 538.755 570.538 538.222L567.033 542.895C567.521 543.262 568.128 543.479 568.786 543.479Z" fill="black" fill-opacity="0.08"/>
<circle cx="508.427" cy="565.482" r="2.92061" fill="#39C76D"/>
<path d="M508.426 568.403C510.039 568.403 511.347 567.095 511.347 565.482C511.347 564.527 510.888 563.678 510.179 563.146L506.674 567.819C507.162 568.185 507.769 568.403 508.426 568.403Z" fill="black" fill-opacity="0.08"/>
<circle cx="568.786" cy="565.482" r="2.92061" fill="#39C76D"/>
<path d="M568.786 568.403C570.399 568.403 571.706 567.095 571.706 565.482C571.706 564.527 571.247 563.678 570.538 563.146L567.033 567.819C567.521 568.185 568.128 568.403 568.786 568.403Z" fill="black" fill-opacity="0.08"/>
<path d="M311.508 557.776C311.835 555.065 312.539 549.21 306.25 548.453" stroke="#186635" stroke-width="5.66406" stroke-linecap="round"/>
<path d="M290.591 566.148C291.397 559.453 295.371 552.424 302.154 553.24C304.533 553.526 307.235 554.835 309.166 555.871C310.766 556.689 312.616 556.912 314.364 556.497C316.486 555.948 319.421 555.318 321.888 555.615C328.583 556.42 330.864 564.202 330.059 570.897C328.702 582.174 320.636 589.783 313.589 588.935C312.091 588.755 310.305 588.003 309.124 587.414C308.451 587.065 307.658 586.97 306.922 587.149C305.724 587.452 303.722 587.747 302.312 587.578C295.265 586.73 289.235 577.424 290.591 566.148Z" fill="#F20B0B"/>
<path d="M321.888 555.614C319.421 555.318 316.485 555.947 314.364 556.496C313.468 556.709 312.546 556.755 311.645 556.638L307.982 587.076C308.379 587.116 308.768 587.23 309.124 587.414C310.304 588.003 312.091 588.754 313.588 588.935C320.636 589.783 328.702 582.173 330.058 570.897C330.864 564.202 328.583 556.42 321.888 555.614Z" fill="black" fill-opacity="0.08"/>
<path d="M312.19 553.018C311.398 552.922 310.855 552.232 310.951 551.439L311.12 550.029C311.587 546.153 315.052 543.352 319.016 543.83L320.426 543.999C321.13 544.084 321.75 544.874 321.665 545.578L321.496 546.988C321.019 550.952 317.476 553.654 313.6 553.187L312.19 553.018Z" fill="#28A656"/>
<path d="M321.496 546.987L321.665 545.578C321.708 545.222 321.572 544.845 321.335 544.548L311.26 552.518C311.483 552.786 311.807 552.971 312.19 553.017L313.6 553.187C317.476 553.653 321.019 550.952 321.496 546.987Z" fill="black" fill-opacity="0.08"/>
<path d="M274.019 560.623C273.75 557.906 273.169 552.037 266.866 552.661" stroke="#186635" stroke-width="5.66406" stroke-linecap="round"/>
<path d="M255.412 573.327C254.749 566.617 257.106 558.894 263.905 558.221C266.289 557.985 269.211 558.677 271.32 559.271C273.059 559.723 274.913 559.54 276.53 558.756C278.482 557.76 281.212 556.509 283.684 556.265C290.395 555.601 294.308 562.704 294.971 569.415C296.089 580.717 289.863 589.893 282.799 590.592C281.298 590.74 279.392 590.394 278.112 590.074C277.379 589.879 276.584 589.958 275.904 590.293C274.8 590.848 272.91 591.57 271.497 591.709C264.433 592.408 256.53 584.63 255.412 573.327Z" fill="#F20B0B"/>
<path d="M283.684 556.265C281.212 556.51 278.482 557.76 276.53 558.756C275.702 559.157 274.812 559.401 273.907 559.483L276.924 589.992C277.32 589.945 277.725 589.972 278.112 590.075C279.392 590.394 281.298 590.74 282.8 590.592C289.864 589.893 296.089 580.718 294.971 569.415C294.308 562.704 290.395 555.601 283.684 556.265Z" fill="black" fill-opacity="0.08"/>
<path d="M273.655 555.83C272.86 555.909 272.181 555.352 272.102 554.557L271.962 553.144C271.578 549.259 274.354 545.774 278.328 545.381L279.741 545.242C280.447 545.172 281.223 545.808 281.293 546.515L281.433 547.928C281.826 551.901 278.953 555.306 275.067 555.69L273.655 555.83Z" fill="#28A656"/>
<path d="M281.433 547.927L281.293 546.515C281.258 546.158 281.043 545.82 280.748 545.581L272.638 555.544C272.914 555.758 273.271 555.868 273.654 555.83L275.067 555.69C278.953 555.306 281.826 551.901 281.433 547.927Z" fill="black" fill-opacity="0.08"/>
<path d="M332.886 601.82C331.479 612.915 322.012 621.499 310.533 621.512L275.442 621.551C263.963 621.564 254.477 613 253.045 601.909L332.886 601.82ZM310.483 576.394C322.094 576.381 331.666 585.144 332.925 596.422L252.994 596.511C254.229 585.23 263.78 576.446 275.392 576.433L310.483 576.394Z" fill="#76E49E"/>
<path d="M310.483 576.394L302.192 576.403L302.243 621.521L310.533 621.511C322.992 621.498 333.081 611.386 333.067 598.928C333.053 586.469 322.942 576.38 310.483 576.394Z" fill="black" fill-opacity="0.08"/>
<rect x="325.737" y="596.43" width="7.32675" height="5.39866" transform="rotate(-0.0637727 325.737 596.43)" fill="#28A656"/>
<rect x="260.182" y="596.502" width="65.5552" height="5.39866" transform="rotate(-0.0637727 260.182 596.502)" fill="#228C49"/>
<rect x="252.855" y="596.511" width="7.32675" height="5.39866" transform="rotate(-0.0637727 252.855 596.511)" fill="#28A656"/>
<path d="M262.62 621.565L323.548 621.497C325.94 621.494 328.127 620.62 329.811 619.176L256.352 619.258C258.038 620.698 260.228 621.567 262.62 621.565Z" fill="#39C76D"/>
<rect x="252.853" y="594.197" width="80.2087" height="2.31371" transform="rotate(-0.0637727 252.853 594.197)" fill="#39C76D"/>
<circle cx="263.064" cy="586.666" r="2.89214" transform="rotate(-0.0637727 263.064 586.666)" fill="#39C76D"/>
<path d="M263.067 589.558C264.664 589.557 265.957 588.26 265.956 586.663C265.955 585.717 265.499 584.878 264.797 584.351L261.331 588.982C261.815 589.345 262.416 589.559 263.067 589.558Z" fill="black" fill-opacity="0.08"/>
<circle cx="322.834" cy="586.6" r="2.89214" transform="rotate(-0.0637727 322.834 586.6)" fill="#39C76D"/>
<path d="M322.838 589.492C324.435 589.49 325.728 588.194 325.727 586.597C325.726 585.651 325.27 584.811 324.568 584.284L321.102 588.916C321.586 589.278 322.187 589.493 322.838 589.492Z" fill="black" fill-opacity="0.08"/>
<circle cx="263.091" cy="611.346" r="2.89214" transform="rotate(-0.0637727 263.091 611.346)" fill="#39C76D"/>
<path d="M263.095 614.238C264.692 614.236 265.985 612.94 265.984 611.343C265.982 610.397 265.527 609.557 264.824 609.03L261.359 613.662C261.842 614.024 262.444 614.239 263.095 614.238Z" fill="black" fill-opacity="0.08"/>
<circle cx="322.862" cy="611.28" r="2.89214" transform="rotate(-0.0637727 322.862 611.28)" fill="#39C76D"/>
<path d="M322.865 614.172C324.462 614.17 325.756 612.874 325.754 611.276C325.753 610.33 325.298 609.491 324.595 608.964L321.129 613.595C321.613 613.958 322.214 614.172 322.865 614.172Z" fill="black" fill-opacity="0.08"/>
<path d="M354.837 510.242C351.98 510.242 349.758 508.02 349.758 505.163V500.084C349.758 486.116 360.869 474.688 375.154 474.688H380.233C382.773 474.688 385.312 477.227 385.312 479.767V484.846C385.312 499.131 373.884 510.242 359.916 510.242H354.837Z" fill="#28A656"/>
<path d="M385.313 484.846V479.766C385.313 478.486 384.667 477.205 383.701 476.25L351.321 508.866C352.226 509.724 353.457 510.242 354.837 510.242H359.916C373.884 510.242 385.313 499.131 385.313 484.846Z" fill="black" fill-opacity="0.08"/>
<path d="M345.801 537.148C345.801 541.014 348.935 544.148 352.801 544.148C356.667 544.148 359.801 541.014 359.801 537.148H352.801H345.801ZM344.793 502.234L339.07 506.265L343.247 512.197L348.971 508.166L354.694 504.136L350.516 498.204L344.793 502.234ZM352.801 520.258H345.801V537.148H352.801H359.801V520.258H352.801ZM348.971 508.166L343.247 512.197C344.909 514.556 345.801 517.372 345.801 520.258H352.801H359.801C359.801 514.486 358.017 508.855 354.694 504.136L348.971 508.166Z" fill="#228C49"/>
<path d="M323.767 481.414C320.91 481.414 318.688 483.636 318.688 486.493V491.573C318.688 505.54 329.798 516.969 344.084 516.969H349.163C351.703 516.969 354.242 514.429 354.242 511.89V506.81C354.242 492.525 342.814 481.414 328.846 481.414H323.767Z" fill="#28A656"/>
<path d="M354.242 506.811V511.89C354.242 513.171 353.596 514.451 352.631 515.406L320.25 482.79C321.155 481.933 322.387 481.414 323.767 481.414H328.846C342.814 481.414 354.242 492.525 354.242 506.811Z" fill="black" fill-opacity="0.08"/>
<path d="M386.965 533.562C385.718 543.397 377.326 551.006 367.15 551.017L336.043 551.052C325.867 551.063 317.458 543.473 316.188 533.64L386.965 533.562ZM316.023 531.15C316.023 531.126 316.022 531.102 316.022 531.077C316.022 531.052 316.023 531.028 316.023 531.003L316.023 531.15ZM367.105 511.022C377.398 511.011 385.881 518.779 386.998 528.775L316.144 528.854C317.238 518.855 325.705 511.068 335.998 511.057L367.105 511.022Z" fill="#76E49E"/>
<path d="M367.106 511.022L359.757 511.03L359.801 551.025L367.151 551.017C378.195 551.005 387.139 542.042 387.126 530.997C387.114 519.953 378.151 511.01 367.106 511.022Z" fill="black" fill-opacity="0.08"/>
<rect x="380.628" y="528.783" width="6.49446" height="4.78539" transform="rotate(-0.0637727 380.628 528.783)" fill="#28A656"/>
<rect x="322.517" y="528.848" width="58.1127" height="4.78575" transform="rotate(-0.0637727 322.517 528.848)" fill="#228C49"/>
<rect x="316.022" y="528.854" width="6.49446" height="4.78539" transform="rotate(-0.0637727 316.022 528.854)" fill="#28A656"/>
<path d="M324.678 551.065L378.688 551.005C380.809 551.003 382.748 550.228 384.241 548.948L319.121 549.021C320.616 550.298 322.557 551.068 324.678 551.065Z" fill="#39C76D"/>
<rect x="316.019" y="526.804" width="71.1026" height="2.05104" transform="rotate(-0.0637727 316.019 526.804)" fill="#39C76D"/>
<circle cx="325.07" cy="520.127" r="2.5636" transform="rotate(-0.0637727 325.07 520.127)" fill="#39C76D"/>
<path d="M325.071 522.691C326.486 522.689 327.633 521.54 327.631 520.124C327.63 519.286 327.227 518.542 326.604 518.075L323.532 522.18C323.961 522.501 324.494 522.692 325.071 522.691Z" fill="black" fill-opacity="0.08"/>
<circle cx="378.052" cy="520.069" r="2.5636" transform="rotate(-0.0637727 378.052 520.069)" fill="#39C76D"/>
<path d="M378.055 522.632C379.471 522.631 380.617 521.482 380.616 520.066C380.615 519.227 380.211 518.483 379.588 518.016L376.516 522.121C376.945 522.443 377.478 522.633 378.055 522.632Z" fill="black" fill-opacity="0.08"/>
<circle cx="325.094" cy="542.006" r="2.5636" transform="rotate(-0.0637727 325.094 542.006)" fill="#39C76D"/>
<path d="M325.097 544.57C326.512 544.568 327.659 543.419 327.657 542.003C327.656 541.165 327.253 540.421 326.63 539.954L323.558 544.059C323.987 544.38 324.519 544.57 325.097 544.57Z" fill="black" fill-opacity="0.08"/>
<circle cx="378.08" cy="541.946" r="2.5636" transform="rotate(-0.0637727 378.08 541.946)" fill="#39C76D"/>
<path d="M378.083 544.51C379.499 544.509 380.645 543.36 380.644 541.944C380.643 541.105 380.239 540.361 379.616 539.894L376.544 543.999C376.973 544.321 377.506 544.511 378.083 544.51Z" fill="black" fill-opacity="0.08"/>
<path d="M992.508 483.776C992.835 481.065 993.539 475.21 987.25 474.453" stroke="#186635" stroke-width="5.66406" stroke-linecap="round"/>
<path d="M971.591 492.148C972.397 485.453 976.371 478.424 983.154 479.24C985.533 479.526 988.235 480.835 990.166 481.871C991.766 482.689 993.616 482.912 995.364 482.497C997.486 481.948 1000.42 481.318 1002.89 481.615C1009.58 482.42 1011.86 490.202 1011.06 496.897C1009.7 508.174 1001.64 515.783 994.589 514.935C993.091 514.755 991.305 514.003 990.124 513.414C989.451 513.065 988.658 512.97 987.922 513.149C986.724 513.452 984.722 513.747 983.312 513.578C976.265 512.73 970.235 503.424 971.591 492.148Z" fill="#F20B0B"/>
<path d="M1002.89 481.614C1000.42 481.318 997.485 481.947 995.364 482.496C994.468 482.709 993.546 482.755 992.645 482.638L988.982 513.076C989.379 513.116 989.768 513.23 990.124 513.414C991.304 514.003 993.091 514.754 994.588 514.935C1001.64 515.783 1009.7 508.173 1011.06 496.897C1011.86 490.202 1009.58 482.42 1002.89 481.614Z" fill="black" fill-opacity="0.08"/>
<path d="M993.19 479.018C992.398 478.922 991.855 478.232 991.951 477.439L992.12 476.029C992.587 472.153 996.052 469.352 1000.02 469.83L1001.43 469.999C1002.13 470.084 1002.75 470.874 1002.67 471.578L1002.5 472.988C1002.02 476.952 998.476 479.654 994.6 479.187L993.19 479.018Z" fill="#28A656"/>
<path d="M1002.5 472.987L1002.67 471.578C1002.71 471.222 1002.57 470.845 1002.34 470.548L992.26 478.518C992.483 478.786 992.807 478.971 993.19 479.017L994.6 479.187C998.476 479.653 1002.02 476.952 1002.5 472.987Z" fill="black" fill-opacity="0.08"/>
<path d="M955.019 486.623C954.75 483.906 954.169 478.037 947.866 478.661" stroke="#186635" stroke-width="5.66406" stroke-linecap="round"/>
<path d="M936.412 499.327C935.749 492.617 938.106 484.894 944.905 484.221C947.289 483.985 950.211 484.677 952.32 485.271C954.059 485.723 955.913 485.54 957.53 484.756C959.482 483.76 962.212 482.509 964.684 482.265C971.395 481.601 975.308 488.704 975.971 495.415C977.089 506.717 970.863 515.893 963.799 516.592C962.298 516.74 960.392 516.394 959.112 516.074C958.379 515.879 957.584 515.958 956.904 516.293C955.8 516.848 953.91 517.57 952.497 517.709C945.433 518.408 937.53 510.63 936.412 499.327Z" fill="#F20B0B"/>
<path d="M964.684 482.265C962.212 482.51 959.482 483.76 957.53 484.756C956.702 485.157 955.812 485.401 954.907 485.483L957.924 515.992C958.32 515.945 958.725 515.972 959.112 516.075C960.392 516.394 962.298 516.74 963.8 516.592C970.864 515.893 977.089 506.718 975.971 495.415C975.308 488.704 971.395 481.601 964.684 482.265Z" fill="black" fill-opacity="0.08"/>
<path d="M954.655 481.83C953.86 481.909 953.181 481.352 953.102 480.557L952.962 479.144C952.578 475.259 955.354 471.774 959.328 471.381L960.741 471.242C961.447 471.172 962.223 471.808 962.293 472.515L962.433 473.928C962.826 477.901 959.953 481.306 956.067 481.69L954.655 481.83Z" fill="#28A656"/>
<path d="M962.433 473.927L962.293 472.515C962.258 472.158 962.043 471.82 961.748 471.581L953.638 481.544C953.914 481.758 954.271 481.868 954.654 481.83L956.067 481.69C959.953 481.306 962.826 477.901 962.433 473.927Z" fill="black" fill-opacity="0.08"/>
<path d="M1013.89 527.82C1012.48 538.915 1003.01 547.499 991.533 547.512L956.442 547.551C944.963 547.564 935.477 539 934.045 527.909L1013.89 527.82ZM991.483 502.394C1003.09 502.381 1012.67 511.144 1013.93 522.422L933.994 522.511C935.229 511.23 944.78 502.446 956.392 502.433L991.483 502.394Z" fill="#76E49E"/>
<path d="M991.483 502.394L983.192 502.403L983.243 547.521L991.533 547.511C1003.99 547.498 1014.08 537.386 1014.07 524.928C1014.05 512.469 1003.94 502.38 991.483 502.394Z" fill="black" fill-opacity="0.08"/>
<rect x="1006.74" y="522.43" width="7.32675" height="5.39866" transform="rotate(-0.0637727 1006.74 522.43)" fill="#28A656"/>
<rect x="941.182" y="522.502" width="65.5552" height="5.39866" transform="rotate(-0.0637727 941.182 522.502)" fill="#228C49"/>
<rect x="933.855" y="522.511" width="7.32675" height="5.39866" transform="rotate(-0.0637727 933.855 522.511)" fill="#28A656"/>
<path d="M943.619 547.565L1004.55 547.497C1006.94 547.494 1009.13 546.62 1010.81 545.176L937.351 545.258C939.038 546.698 941.227 547.567 943.619 547.565Z" fill="#39C76D"/>
<rect x="933.853" y="520.197" width="80.2087" height="2.31371" transform="rotate(-0.0637727 933.853 520.197)" fill="#39C76D"/>
<circle cx="944.063" cy="512.666" r="2.89214" transform="rotate(-0.0637727 944.063 512.666)" fill="#39C76D"/>
<path d="M944.066 515.558C945.664 515.557 946.957 514.26 946.955 512.663C946.954 511.717 946.499 510.878 945.796 510.351L942.33 514.982C942.814 515.345 943.415 515.559 944.066 515.558Z" fill="black" fill-opacity="0.08"/>
<circle cx="1003.83" cy="512.6" r="2.89214" transform="rotate(-0.0637727 1003.83 512.6)" fill="#39C76D"/>
<path d="M1003.84 515.492C1005.43 515.49 1006.73 514.194 1006.73 512.597C1006.73 511.651 1006.27 510.811 1005.57 510.284L1002.1 514.916C1002.59 515.278 1003.19 515.493 1003.84 515.492Z" fill="black" fill-opacity="0.08"/>
<circle cx="944.091" cy="537.346" r="2.89214" transform="rotate(-0.0637727 944.091 537.346)" fill="#39C76D"/>
<path d="M944.094 540.238C945.691 540.236 946.985 538.94 946.983 537.343C946.982 536.397 946.527 535.557 945.824 535.03L942.358 539.662C942.842 540.024 943.443 540.239 944.094 540.238Z" fill="black" fill-opacity="0.08"/>
<circle cx="1003.86" cy="537.28" r="2.89214" transform="rotate(-0.0637727 1003.86 537.28)" fill="#39C76D"/>
<path d="M1003.86 540.172C1005.46 540.17 1006.76 538.874 1006.75 537.276C1006.75 536.33 1006.3 535.491 1005.59 534.964L1002.13 539.595C1002.61 539.958 1003.21 540.172 1003.86 540.172Z" fill="black" fill-opacity="0.08"/>
<path d="M892.508 483.776C892.835 481.065 893.539 475.21 887.25 474.453" stroke="#186635" stroke-width="5.66406" stroke-linecap="round"/>
<path d="M871.591 492.148C872.397 485.453 876.371 478.424 883.154 479.24C885.533 479.526 888.235 480.835 890.166 481.871C891.766 482.689 893.616 482.912 895.364 482.497C897.486 481.948 900.421 481.318 902.888 481.615C909.583 482.42 911.864 490.202 911.059 496.897C909.702 508.174 901.636 515.783 894.589 514.935C893.091 514.755 891.305 514.003 890.124 513.414C889.451 513.065 888.658 512.97 887.922 513.149C886.724 513.452 884.722 513.747 883.312 513.578C876.265 512.73 870.235 503.424 871.591 492.148Z" fill="#F20B0B"/>
<path d="M902.888 481.614C900.421 481.318 897.485 481.947 895.364 482.496C894.468 482.709 893.546 482.755 892.645 482.638L888.982 513.076C889.379 513.116 889.768 513.23 890.124 513.414C891.304 514.003 893.091 514.754 894.588 514.935C901.636 515.783 909.702 508.173 911.058 496.897C911.864 490.202 909.583 482.42 902.888 481.614Z" fill="black" fill-opacity="0.08"/>
<path d="M893.19 479.018C892.398 478.922 891.855 478.232 891.951 477.439L892.12 476.029C892.587 472.153 896.052 469.352 900.016 469.83L901.426 469.999C902.13 470.084 902.75 470.874 902.665 471.578L902.496 472.988C902.019 476.952 898.476 479.654 894.6 479.187L893.19 479.018Z" fill="#28A656"/>
<path d="M902.496 472.987L902.665 471.578C902.708 471.222 902.572 470.845 902.335 470.548L892.26 478.518C892.483 478.786 892.807 478.971 893.19 479.017L894.6 479.187C898.476 479.653 902.019 476.952 902.496 472.987Z" fill="black" fill-opacity="0.08"/>
<path d="M855.019 486.623C854.75 483.906 854.169 478.037 847.866 478.661" stroke="#186635" stroke-width="5.66406" stroke-linecap="round"/>
<path d="M836.412 499.327C835.749 492.617 838.106 484.894 844.905 484.221C847.289 483.985 850.211 484.677 852.32 485.271C854.059 485.723 855.913 485.54 857.53 484.756C859.482 483.76 862.212 482.509 864.684 482.265C871.395 481.601 875.308 488.704 875.971 495.415C877.089 506.717 870.863 515.893 863.799 516.592C862.298 516.74 860.392 516.394 859.112 516.074C858.379 515.879 857.584 515.958 856.904 516.293C855.8 516.848 853.91 517.57 852.497 517.709C845.433 518.408 837.53 510.63 836.412 499.327Z" fill="#F20B0B"/>
<path d="M864.684 482.265C862.212 482.51 859.482 483.76 857.53 484.756C856.702 485.157 855.812 485.401 854.907 485.483L857.924 515.992C858.32 515.945 858.725 515.972 859.112 516.075C860.392 516.394 862.298 516.74 863.8 516.592C870.864 515.893 877.089 506.718 875.971 495.415C875.308 488.704 871.395 481.601 864.684 482.265Z" fill="black" fill-opacity="0.08"/>
<path d="M854.655 481.83C853.86 481.909 853.181 481.352 853.102 480.557L852.962 479.144C852.578 475.259 855.354 471.774 859.328 471.381L860.741 471.242C861.447 471.172 862.223 471.808 862.293 472.515L862.433 473.928C862.826 477.901 859.953 481.306 856.067 481.69L854.655 481.83Z" fill="#28A656"/>
<path d="M862.433 473.927L862.293 472.515C862.258 472.158 862.043 471.82 861.748 471.581L853.638 481.544C853.914 481.758 854.271 481.868 854.654 481.83L856.067 481.69C859.953 481.306 862.826 477.901 862.433 473.927Z" fill="black" fill-opacity="0.08"/>
<path d="M913.886 527.82C912.479 538.915 903.012 547.499 891.533 547.512L856.442 547.551C844.963 547.564 835.477 539 834.045 527.909L913.886 527.82ZM891.483 502.394C903.094 502.381 912.666 511.144 913.925 522.422L833.994 522.511C835.229 511.23 844.78 502.446 856.392 502.433L891.483 502.394Z" fill="#76E49E"/>
<path d="M891.483 502.394L883.192 502.403L883.243 547.521L891.533 547.511C903.992 547.498 914.081 537.386 914.067 524.928C914.053 512.469 903.942 502.38 891.483 502.394Z" fill="black" fill-opacity="0.08"/>
<rect x="906.738" y="522.43" width="7.32675" height="5.39866" transform="rotate(-0.0637727 906.738 522.43)" fill="#28A656"/>
<rect x="841.183" y="522.502" width="65.5552" height="5.39866" transform="rotate(-0.0637727 841.183 522.502)" fill="#228C49"/>
<rect x="833.855" y="522.511" width="7.32675" height="5.39866" transform="rotate(-0.0637727 833.855 522.511)" fill="#28A656"/>
<path d="M843.62 547.565L904.548 547.497C906.94 547.494 909.127 546.62 910.811 545.176L837.352 545.258C839.038 546.698 841.228 547.567 843.62 547.565Z" fill="#39C76D"/>
<rect x="833.853" y="520.197" width="80.2087" height="2.31371" transform="rotate(-0.0637727 833.853 520.197)" fill="#39C76D"/>
<circle cx="844.064" cy="512.666" r="2.89214" transform="rotate(-0.0637727 844.064 512.666)" fill="#39C76D"/>
<path d="M844.067 515.558C845.664 515.557 846.957 514.26 846.956 512.663C846.955 511.717 846.499 510.878 845.797 510.351L842.331 514.982C842.815 515.345 843.416 515.559 844.067 515.558Z" fill="black" fill-opacity="0.08"/>
<circle cx="903.834" cy="512.6" r="2.89214" transform="rotate(-0.0637727 903.834 512.6)" fill="#39C76D"/>
<path d="M903.838 515.492C905.435 515.49 906.728 514.194 906.727 512.597C906.726 511.651 906.27 510.811 905.568 510.284L902.102 514.916C902.586 515.278 903.187 515.493 903.838 515.492Z" fill="black" fill-opacity="0.08"/>
<circle cx="844.091" cy="537.346" r="2.89214" transform="rotate(-0.0637727 844.091 537.346)" fill="#39C76D"/>
<path d="M844.095 540.239C845.692 540.237 846.985 538.941 846.984 537.344C846.982 536.398 846.527 535.558 845.824 535.031L842.359 539.663C842.842 540.025 843.444 540.24 844.095 540.239Z" fill="black" fill-opacity="0.08"/>
<circle cx="903.862" cy="537.28" r="2.89214" transform="rotate(-0.0637727 903.862 537.28)" fill="#39C76D"/>
<path d="M903.865 540.171C905.462 540.169 906.756 538.873 906.754 537.275C906.753 536.329 906.298 535.49 905.595 534.963L902.129 539.594C902.613 539.957 903.214 540.171 903.865 540.171Z" fill="black" fill-opacity="0.08"/>
<g clip-path="url(#clip1_813_6153)">
<path d="M613.619 556.253C613.017 553.59 611.717 547.838 605.539 549.234" stroke="#186635" stroke-width="5.66406" stroke-linecap="round"/>
<path d="M596.723 571.156C595.236 564.579 596.622 556.624 603.286 555.118C605.623 554.589 608.608 554.915 610.774 555.244C612.556 555.478 614.373 555.068 615.881 554.09C617.695 552.861 620.25 551.283 622.673 550.735C629.251 549.249 634.01 555.814 635.497 562.392C638.001 573.47 632.955 583.344 626.031 584.909C624.56 585.242 622.625 585.133 621.315 584.974C620.564 584.871 619.785 585.047 619.152 585.463C618.124 586.15 616.338 587.1 614.953 587.413C608.029 588.978 599.227 582.235 596.723 571.156Z" fill="#F20B0B"/>
<path d="M622.673 550.736C620.25 551.284 617.695 552.862 615.881 554.091C615.109 554.591 614.255 554.943 613.367 555.136L620.126 585.04C620.513 584.944 620.918 584.92 621.315 584.975C622.625 585.134 624.56 585.242 626.031 584.91C632.955 583.345 638.001 573.471 635.497 562.393C634.01 555.815 629.251 549.249 622.673 550.736Z" fill="black" fill-opacity="0.08"/>
<path d="M612.667 551.543C611.888 551.719 611.145 551.25 610.969 550.471L610.656 549.086C609.795 545.278 612.12 541.477 616.015 540.597L617.399 540.284C618.092 540.128 618.941 540.663 619.097 541.356L619.41 542.741C620.291 546.635 617.86 550.369 614.051 551.23L612.667 551.543Z" fill="#28A656"/>
<path d="M619.41 542.741L619.097 541.356C619.018 541.007 618.763 540.698 618.441 540.497L611.623 551.384C611.922 551.562 612.29 551.628 612.666 551.543L614.051 551.23C617.859 550.369 620.29 546.636 619.41 542.741Z" fill="black" fill-opacity="0.08"/>
<g clip-path="url(#clip2_813_6153)">
<path d="M579.257 571.509C578.092 569.04 575.577 563.706 569.848 566.408" stroke="#186635" stroke-width="5.66406" stroke-linecap="round"/>
<path d="M565.989 589.719C563.113 583.619 562.743 575.553 568.923 572.639C571.09 571.617 574.074 571.289 576.261 571.141C578.05 570.984 579.736 570.189 580.996 568.908C582.501 567.315 584.653 565.221 586.9 564.162C593 561.285 599.068 566.664 601.944 572.764C606.788 583.037 604.001 593.769 597.581 596.797C596.216 597.44 594.304 597.753 592.991 597.882C592.235 597.944 591.513 598.284 590.985 598.828C590.131 599.721 588.592 601.035 587.308 601.641C580.887 604.669 570.834 599.992 565.989 589.719Z" fill="#F20B0B"/>
<path d="M586.9 564.162C584.653 565.222 582.501 567.316 580.996 568.908C580.351 569.564 579.594 570.093 578.768 570.473L591.845 598.203C592.202 598.025 592.592 597.915 592.991 597.882C594.304 597.753 596.217 597.44 597.581 596.797C604.001 593.769 606.789 583.037 601.944 572.764C599.068 566.665 593 561.286 586.9 564.162Z" fill="black" fill-opacity="0.08"/>
<path d="M577.307 567.118C576.584 567.458 575.758 567.161 575.417 566.439L574.811 565.155C573.146 561.624 574.593 557.41 578.204 555.707L579.488 555.101C580.13 554.798 581.075 555.138 581.378 555.78L581.983 557.064C583.686 560.675 582.122 564.847 578.591 566.512L577.307 567.118Z" fill="#28A656"/>
<path d="M581.983 557.064L581.378 555.78C581.225 555.456 580.909 555.209 580.551 555.083L576.253 567.189C576.584 567.298 576.957 567.282 577.306 567.118L578.59 566.512C582.122 564.847 583.686 560.676 581.983 557.064Z" fill="black" fill-opacity="0.08"/>
</g>
<path d="M648.533 590.574C650.928 601.498 644.889 612.76 634.08 616.623L601.035 628.43C590.225 632.292 578.417 627.407 573.347 617.438L648.533 590.574ZM618.899 574.135C629.833 570.228 641.789 575.273 646.759 585.475L571.488 612.37C568.867 601.329 574.919 589.85 585.854 585.943L618.899 574.135Z" fill="#76E49E"/>
<path d="M618.899 574.136L611.091 576.926L626.272 619.412L634.08 616.623C645.812 612.431 651.925 599.521 647.732 587.789C643.54 576.057 630.631 569.944 618.899 574.136Z" fill="black" fill-opacity="0.08"/>
<rect x="639.99" y="587.894" width="7.32675" height="5.39866" transform="rotate(-19.6624 639.99 587.894)" fill="#28A656"/>
<rect x="578.257" y="609.951" width="65.5552" height="5.39866" transform="rotate(-19.6624 578.257 609.951)" fill="#228C49"/>
<rect x="571.357" y="612.416" width="7.32675" height="5.39866" transform="rotate(-19.6624 571.357 612.416)" fill="#28A656"/>
<path d="M588.96 632.744L646.335 612.244C648.588 611.439 650.355 609.882 651.457 607.956L582.281 632.674C584.353 633.465 586.707 633.549 588.96 632.744Z" fill="#39C76D"/>
<rect x="570.579" y="610.237" width="80.2087" height="2.31371" transform="rotate(-19.6624 570.579 610.237)" fill="#39C76D"/>
<circle cx="577.672" cy="599.718" r="2.89214" transform="rotate(-19.6624 577.672 599.718)" fill="#39C76D"/>
<path d="M578.645 602.441C580.149 601.904 580.932 600.249 580.395 598.745C580.077 597.854 579.366 597.216 578.527 596.955L576.816 602.481C577.393 602.66 578.031 602.661 578.645 602.441Z" fill="black" fill-opacity="0.08"/>
<circle cx="633.957" cy="579.607" r="2.89214" transform="rotate(-19.6624 633.957 579.607)" fill="#39C76D"/>
<path d="M634.931 582.33C636.435 581.793 637.218 580.138 636.681 578.634C636.363 577.743 635.652 577.104 634.813 576.844L633.102 582.37C633.679 582.549 634.318 582.549 634.931 582.33Z" fill="black" fill-opacity="0.08"/>
<circle cx="585.975" cy="622.958" r="2.89214" transform="rotate(-19.6624 585.975 622.958)" fill="#39C76D"/>
<path d="M586.949 625.682C588.453 625.144 589.237 623.489 588.699 621.985C588.381 621.094 587.67 620.456 586.831 620.195L585.12 625.721C585.697 625.9 586.336 625.901 586.949 625.682Z" fill="black" fill-opacity="0.08"/>
<circle cx="642.262" cy="602.847" r="2.89214" transform="rotate(-19.6624 642.262 602.847)" fill="#39C76D"/>
<path d="M643.234 605.57C644.739 605.033 645.522 603.378 644.985 601.874C644.666 600.983 643.956 600.345 643.117 600.084L641.406 605.61C641.983 605.789 642.621 605.789 643.234 605.57Z" fill="black" fill-opacity="0.08"/>
</g>
<path d="M561.672 649.086L683.489 606.858" stroke="#858585" stroke-width="18" stroke-linecap="round"/>
<rect x="1040" y="586.119" width="98" height="11.4398" transform="rotate(-21.6273 1040 586.119)" fill="#676767"/>
<g clip-path="url(#clip3_813_6153)">
<rect x="732" y="570" width="88" height="88" rx="44" fill="#858585"/>
<circle cx="776" cy="614" r="22" fill="#39C76D"/>
<g style="mix-blend-mode:overlay">
<path d="M820 658V570L732 658H820Z" fill="url(#paint0_linear_813_6153)"/>
<path d="M820 658V570L732 658H820Z" fill="#676767"/>
</g>
</g>
<g clip-path="url(#clip4_813_6153)">
<rect x="915" y="570" width="88" height="88" rx="44" fill="#858585"/>
<circle cx="959" cy="614" r="22" fill="#39C76D"/>
<g style="mix-blend-mode:overlay">
<path d="M1003 658V570L915 658H1003Z" fill="url(#paint1_linear_813_6153)"/>
<path d="M1003 658V570L915 658H1003Z" fill="#676767"/>
</g>
</g>
<path d="M1050 581H1010.99C1002.01 566.805 981.885 556.917 958.5 556.917C935.115 556.917 914.991 566.805 906.006 581H827.994C819.009 566.805 798.885 556.917 775.5 556.917C752.115 556.917 731.991 566.805 723.006 581H675V530H1050V581Z" fill="#858585"/>
<path d="M1050 622H1015.51C1015.83 619.545 1016 617.042 1016 614.5C1016 582.744 990.256 557 958.5 557C926.744 557 901 582.744 901 614.5C901 617.042 901.166 619.545 901.485 622H832.515C832.834 619.545 833 617.042 833 614.5C833 582.744 807.256 557 775.5 557C743.744 557 718 582.744 718 614.5C718 617.042 718.166 619.545 718.485 622H675V550H1050V622Z" fill="#ADADAD"/>
<ellipse cx="14.3958" cy="9.85794" rx="14.3958" ry="9.85794" transform="matrix(0.915999 0.40118 -0.232277 0.97265 1409.63 390)" fill="#858585"/>
<path d="M1407.42 399.328L1433.79 410.879L1424.81 448.474L1398.44 436.967L1407.42 399.328Z" fill="#858585"/>
<path d="M1398.44 436.967L1426.1 436.967L1426.1 472.752L1398.44 472.751L1398.44 436.967Z" fill="#858585"/>
<path d="M1475.56 466.776C1475.7 466.777 1508.12 466.856 1508.12 503.091V542.377L1485.98 558.762C1471.62 543.207 1451.06 533.463 1428.23 533.463C1427.43 533.463 1426.64 533.476 1425.85 533.499C1425.15 533.475 1424.45 533.463 1423.75 533.463C1413.1 533.463 1403.02 536.269 1394.02 541.28C1372.94 551.493 1357.11 570.854 1351.69 594.207H1263.57C1268.78 584.586 1271.74 573.566 1271.74 561.854C1271.74 524.295 1241.3 493.848 1203.74 493.848C1194.62 493.848 1185.93 495.639 1177.99 498.891V466.776H1475.56Z" fill="#28A656"/>
<rect x="1495.81" y="498.119" width="12.545" height="27.7311" fill="#F4DE70"/>
<g style="mix-blend-mode:overlay">
<path d="M1320.01 467.593V593.093H1292.46C1282.66 590.28 1272.41 588.524 1261.84 587.957L1232 467.593H1320.01Z" fill="url(#paint2_linear_813_6153)"/>
<path d="M1320.01 467.593V593.093H1292.46C1282.66 590.28 1272.41 588.524 1261.84 587.957L1232 467.593H1320.01Z" fill="#676767"/>
</g>
<path d="M1238.28 478.165L1249.16 473.011L1291.65 515.497L1286.3 527.013L1298.82 531.482V591.566L1286.6 596.037L1292.35 608.172L1249.86 650.658L1238.19 645.241L1233.78 657.593H1173.7L1169.06 644.923L1156.95 650.657L1114.47 608.172L1120.03 596.191L1108 591.896V531.812L1120.7 527.164L1115.17 515.497L1157.65 473.011L1169.79 478.641L1174.03 466.776H1234.11L1238.28 478.165ZM1203.41 491.866C1164.57 491.866 1133.09 523.349 1133.09 562.185C1133.09 601.02 1164.57 632.503 1203.41 632.503C1242.24 632.503 1273.73 601.02 1273.73 562.185C1273.73 523.349 1242.24 491.866 1203.41 491.866Z" fill="#858585"/>
<path d="M1203.74 490.546C1243.12 490.546 1275.05 522.472 1275.05 561.854C1275.05 601.237 1243.12 633.163 1203.74 633.163C1164.36 633.163 1132.43 601.237 1132.43 561.854C1132.43 522.472 1164.36 490.546 1203.74 490.546ZM1203.74 511.675C1176.02 511.675 1153.56 534.141 1153.56 561.854C1153.56 589.568 1176.02 612.034 1203.74 612.034C1231.45 612.034 1253.92 589.568 1253.92 561.854C1253.92 534.141 1231.45 511.675 1203.74 511.675Z" fill="#39C76D"/>
<g style="mix-blend-mode:overlay">
<path d="M1271.09 495.168L1291.88 515.636L1285.94 527.521L1298.82 531.813V591.593L1286.5 596.093L1292.5 608.093L1250 650.593L1238 645.093L1234 657.593H1173.5L1169 645.093L1157 650.593L1134.5 628.593L1271.09 495.168Z" fill="url(#paint3_linear_813_6153)"/>
<path d="M1271.09 495.168L1291.88 515.636L1285.94 527.521L1298.82 531.813V591.593L1286.5 596.093L1292.5 608.093L1250 650.593L1238 645.093L1234 657.593H1173.5L1169 645.093L1157 650.593L1134.5 628.593L1271.09 495.168Z" fill="#676767"/>
</g>
<path d="M1288.59 375C1297.57 375 1305.99 381.455 1309.36 390.256L1337.11 466.776H1307.82L1284.35 397.887C1283.8 396.266 1282.28 395.177 1280.56 395.177H1211.5C1209.29 395.177 1207.5 396.968 1207.5 399.177V455.228C1207.5 456.256 1207.9 457.245 1208.61 457.989L1216.99 466.776H1177.99V398.47C1177.99 385.561 1187.53 375 1200.44 375H1288.59Z" fill="#39C76D"/>
<g clip-path="url(#clip5_813_6153)">
<rect x="1374.75" y="550.63" width="106.963" height="106.963" rx="53.4814" fill="#858585"/>
<circle cx="1428.23" cy="604.111" r="26.7407" fill="#39C76D"/>
<g style="mix-blend-mode:overlay">
<path d="M1481.71 657.593V550.63L1374.75 657.593H1481.71Z" fill="url(#paint4_linear_813_6153)"/>
<path d="M1481.71 657.593V550.63L1374.75 657.593H1481.71Z" fill="#676767"/>
</g>
</g>
<rect width="88.4754" height="26.4106" transform="matrix(-1 0 0 1 1463.22 481.963)" fill="#D6D6D6"/>
<rect opacity="0.8" x="26" y="658" width="1646" height="275" fill="#28A656"/>
<g style="mix-blend-mode:color-burn">
<rect x="26" y="661" width="1645" height="274" fill="url(#paint5_linear_813_6153)" fill-opacity="0.2"/>
</g>
<g style="mix-blend-mode:color-burn">
<rect x="27" y="743" width="1645" height="274" fill="url(#paint6_linear_813_6153)" fill-opacity="0.5"/>
</g>
</g>
</g>
<defs>
<filter id="filter0_d_813_6153" x="0.333432" y="0.753282" width="1673.44" height="973.44" filterUnits="userSpaceOnUse" color-interpolation-filters="sRGB">
<feFlood flood-opacity="0" result="BackgroundImageFix"/>
<feColorMatrix in="SourceAlpha" type="matrix" values="0 0 0 0 0 0 0 0 0 0 0 0 0 0 0 0 0 0 127 0" result="hardAlpha"/>
<feOffset dx="-4.94657" dy="2.47328"/>
<feGaussianBlur stdDeviation="18.36"/>
<feComposite in2="hardAlpha" operator="out"/>
<feColorMatrix type="matrix" values="0 0 0 0 0 0 0 0 0 0 0 0 0 0 0 0 0 0 0.1 0"/>
<feBlend mode="normal" in2="BackgroundImageFix" result="effect1_dropShadow_813_6153"/>
<feBlend mode="normal" in="SourceGraphic" in2="effect1_dropShadow_813_6153" result="shape"/>
</filter>
<linearGradient id="paint0_linear_813_6153" x1="781.271" y1="550.135" x2="781.271" y2="685.566" gradientUnits="userSpaceOnUse">
<stop stop-color="#D9D9D9"/>
<stop offset="1" stop-color="#737373"/>
</linearGradient>
<linearGradient id="paint1_linear_813_6153" x1="964.271" y1="550.135" x2="964.271" y2="685.566" gradientUnits="userSpaceOnUse">
<stop stop-color="#D9D9D9"/>
<stop offset="1" stop-color="#737373"/>
</linearGradient>
<linearGradient id="paint2_linear_813_6153" x1="1281.27" y1="429.219" x2="1281.27" y2="690.837" gradientUnits="userSpaceOnUse">
<stop stop-color="#D9D9D9"/>
<stop offset="1" stop-color="#737373"/>
</linearGradient>
<linearGradient id="paint3_linear_813_6153" x1="1214.84" y1="423.702" x2="1214.84" y2="717.366" gradientUnits="userSpaceOnUse">
<stop stop-color="#D9D9D9"/>
<stop offset="1" stop-color="#737373"/>
</linearGradient>
<linearGradient id="paint4_linear_813_6153" x1="1434.63" y1="526.484" x2="1434.63" y2="691.099" gradientUnits="userSpaceOnUse">
<stop stop-color="#D9D9D9"/>
<stop offset="1" stop-color="#737373"/>
</linearGradient>
<linearGradient id="paint5_linear_813_6153" x1="980.688" y1="694.381" x2="980.688" y2="922.83" gradientUnits="userSpaceOnUse">
<stop stop-color="#D9D9D9"/>
<stop offset="1" stop-color="#737373"/>
</linearGradient>
<linearGradient id="paint6_linear_813_6153" x1="981.688" y1="776.381" x2="981.688" y2="1004.83" gradientUnits="userSpaceOnUse">
<stop stop-color="#D9D9D9"/>
<stop offset="1" stop-color="#737373"/>
</linearGradient>
<clipPath id="clip0_813_6153">
<rect x="42" y="35" width="1600" height="900" rx="32" fill="white"/>
</clipPath>
<clipPath id="clip1_813_6153">
<rect width="119.156" height="119.156" fill="white" transform="translate(532 558.094) rotate(-19.6624)"/>
</clipPath>
<clipPath id="clip2_813_6153">
<rect width="55.9147" height="55.9147" fill="white" transform="translate(545.545 565.312) rotate(-25.247)"/>
</clipPath>
<clipPath id="clip3_813_6153">
<rect x="732" y="570" width="88" height="88" rx="44" fill="white"/>
</clipPath>
<clipPath id="clip4_813_6153">
<rect x="915" y="570" width="88" height="88" rx="44" fill="white"/>
</clipPath>
<clipPath id="clip5_813_6153">
<rect x="1374.75" y="550.63" width="106.963" height="106.963" rx="53.4814" fill="white"/>
</clipPath>
</defs>
</svg>
