<svg xmlns="http://www.w3.org/2000/svg" width="1284" height="456" fill="none"><g clip-path="url(#a)"><g filter="url(#b)"><path fill="#28A656" d="M1745 419.345V229.293C655.822-73.107 1145.98 412.643 25 53.537v365.808z"/><path fill="url(#c)" fill-opacity=".2" d="M1745 419.345V229.293C655.822-73.107 1145.98 412.643 25 53.537v365.808z" style="mix-blend-mode:multiply"/></g><g filter="url(#d)"><path fill="#228C49" d="M0 344h1454.84v-31.057c-220.06-21.063-296-66.244-368.65-109.467-87.602-52.118-170.416-101.389-495.344-102.095C205.757 100.544 83.096 90.471 0 80z"/><path fill="url(#e)" fill-opacity=".1" d="M0 344h1454.84v-31.057c-220.06-21.063-296-66.244-368.65-109.467-87.602-52.118-170.416-101.389-495.344-102.095C205.757 100.544 83.096 90.471 0 80z" style="mix-blend-mode:multiply"/></g><g filter="url(#f)"><path fill="#186635" d="M1454.84 254.627c-554.842 37.158-692.901-21.066-845.904-85.592C487.439 117.796 356.519 62.583 0 48v408.359l1454.84.001z"/></g></g><defs><filter id="b" width="1768.12" height="413.923" x="3.348" y="27.074" color-interpolation-filters="sRGB" filterUnits="userSpaceOnUse"><feFlood flood-opacity="0" result="BackgroundImageFix"/><feColorMatrix in="SourceAlpha" result="hardAlpha" values="0 0 0 0 0 0 0 0 0 0 0 0 0 0 0 0 0 0 127 0"/><feOffset dx="2.406" dy="-2.406"/><feGaussianBlur stdDeviation="12.029"/><feComposite in2="hardAlpha" operator="out"/><feColorMatrix values="0 0 0 0 0 0 0 0 0 0 0 0 0 0 0 0 0 0 0.25 0"/><feBlend in2="BackgroundImageFix" result="effect1_dropShadow_730_1862"/><feBlend in="SourceGraphic" in2="effect1_dropShadow_730_1862" result="shape"/></filter><filter id="d" width="1528.28" height="337.44" x="-41.667" y="45.753" color-interpolation-filters="sRGB" filterUnits="userSpaceOnUse"><feFlood flood-opacity="0" result="BackgroundImageFix"/><feColorMatrix in="SourceAlpha" result="hardAlpha" values="0 0 0 0 0 0 0 0 0 0 0 0 0 0 0 0 0 0 127 0"/><feOffset dx="-4.947" dy="2.473"/><feGaussianBlur stdDeviation="18.36"/><feComposite in2="hardAlpha" operator="out"/><feColorMatrix values="0 0 0 0 0 0 0 0 0 0 0 0 0 0 0 0 0 0 0.1 0"/><feBlend in2="BackgroundImageFix" result="effect1_dropShadow_730_1862"/><feBlend in="SourceGraphic" in2="effect1_dropShadow_730_1862" result="shape"/></filter><filter id="f" width="1541.93" height="495.451" x="-39.191" y=".1" color-interpolation-filters="sRGB" filterUnits="userSpaceOnUse"><feFlood flood-opacity="0" result="BackgroundImageFix"/><feColorMatrix in="SourceAlpha" result="hardAlpha" values="0 0 0 0 0 0 0 0 0 0 0 0 0 0 0 0 0 0 127 0"/><feOffset dx="4.355" dy="-4.355"/><feGaussianBlur stdDeviation="21.773"/><feComposite in2="hardAlpha" operator="out"/><feColorMatrix values="0 0 0 0 0 0 0 0 0 0 0 0 0 0 0 0 0 0 0.2 0"/><feBlend in2="BackgroundImageFix" result="effect1_dropShadow_730_1862"/><feBlend in="SourceGraphic" in2="effect1_dropShadow_730_1862" result="shape"/></filter><linearGradient id="c" x1="1131" x2="1133.41" y1="131.532" y2="298.502" gradientUnits="userSpaceOnUse"><stop stop-opacity="0"/><stop offset="1"/></linearGradient><linearGradient id="e" x1="623.567" x2="623.567" y1="105" y2="301" gradientUnits="userSpaceOnUse"><stop stop-opacity="0"/><stop offset="1"/></linearGradient><clipPath id="a"><path fill="#fff" d="M0 0h1284v456H0z"/></clipPath></defs></svg>