<svg width="1674" height="975" viewBox="0 0 1674 975" fill="none" xmlns="http://www.w3.org/2000/svg">
<g filter="url(#filter0_d_815_3026)">
<g clip-path="url(#clip0_815_3026)">
<rect x="42" y="35" width="1600" height="900" rx="32" fill="#16B2D4"/>
<path opacity="0.84" d="M314 252.75C314 216.906 337.125 185.688 369.5 174.703C369.5 172.969 369.5 171.234 369.5 169.5C369.5 118.625 410.547 77 462 77C496.109 77 526.172 96.0781 541.781 123.828C550.453 117.469 561.438 114 573 114C603.641 114 628.5 138.859 628.5 169.5C628.5 177.016 626.766 183.375 624.453 189.734C658.563 196.672 684 226.734 684 262C684 303.047 650.469 336 610 336H397.25C351 336 314 299 314 252.75Z" fill="white"/>
<path opacity="0.84" d="M860 354.929C860 328.634 877 305.732 900.8 297.674C900.8 296.402 900.8 295.129 900.8 293.857C900.8 256.536 930.975 226 968.8 226C993.875 226 1015.98 239.996 1027.45 260.353C1033.83 255.688 1041.9 253.143 1050.4 253.143C1072.93 253.143 1091.2 271.379 1091.2 293.857C1091.2 299.371 1089.93 304.036 1088.23 308.701C1113.3 313.79 1132 335.844 1132 361.714C1132 391.826 1107.35 416 1077.6 416H921.2C887.2 416 860 388.857 860 354.929Z" fill="white"/>
<g style="mix-blend-mode:color-burn">
<rect x="1641" y="935" width="1599" height="900" transform="rotate(180 1641 935)" fill="url(#paint0_linear_815_3026)" fill-opacity="0.2"/>
</g>
<g clip-path="url(#clip1_815_3026)">
<path d="M1133.42 489.943C1134.28 482.914 1136.12 467.733 1119.81 465.752" stroke="#186635" stroke-width="5.66406" stroke-linecap="round"/>
<path d="M1079.16 511.595C1081.26 494.234 1091.59 476.018 1109.18 478.154C1115.35 478.903 1122.35 482.304 1127.35 484.998C1131.5 487.124 1136.3 487.707 1140.83 486.635C1146.33 485.217 1153.95 483.592 1160.35 484.369C1177.71 486.478 1183.6 506.664 1181.49 524.024C1177.94 553.263 1157 572.972 1138.73 570.752C1134.84 570.28 1130.21 568.327 1127.15 566.797C1125.41 565.89 1123.35 565.64 1121.44 566.103C1118.34 566.885 1113.14 567.645 1109.49 567.201C1091.22 564.981 1075.6 540.833 1079.16 511.595Z" fill="#F20B0B"/>
<path d="M1160.35 484.369C1153.95 483.592 1146.34 485.217 1140.83 486.635C1138.51 487.184 1136.12 487.299 1133.78 486.995L1124.19 565.917C1125.22 566.021 1126.23 566.317 1127.15 566.797C1130.21 568.327 1134.84 570.28 1138.73 570.752C1157 572.972 1177.94 553.263 1181.49 524.024C1183.6 506.664 1177.71 486.478 1160.35 484.369Z" fill="black" fill-opacity="0.08"/>
<path d="M1135.21 477.607C1133.15 477.357 1131.74 475.564 1131.99 473.508L1132.44 469.853C1133.66 459.803 1142.65 452.551 1152.93 453.799L1156.59 454.243C1158.41 454.465 1160.02 456.514 1159.8 458.342L1159.35 461.997C1158.11 472.276 1148.91 479.272 1138.86 478.051L1135.21 477.607Z" fill="#28A656"/>
<path d="M1159.35 461.997L1159.8 458.342C1159.91 457.42 1159.56 456.442 1158.95 455.671L1132.8 476.31C1133.37 477.006 1134.21 477.486 1135.21 477.607L1138.86 478.051C1148.91 479.272 1158.11 472.276 1159.35 461.997Z" fill="black" fill-opacity="0.08"/>
<path d="M1051.92 489.952C1051.23 482.905 1049.74 467.685 1033.39 469.284" stroke="#186635" stroke-width="5.66406" stroke-linecap="round"/>
<path d="M1003.63 522.844C1001.93 505.44 1008.06 485.419 1025.7 483.695C1031.88 483.09 1039.45 484.893 1044.92 486.439C1049.43 487.616 1054.24 487.146 1058.43 485.118C1063.5 482.541 1070.58 479.306 1076.99 478.679C1094.4 476.977 1104.52 495.408 1106.23 512.812C1109.09 542.126 1092.92 565.902 1074.6 567.694C1070.71 568.074 1065.76 567.17 1062.45 566.339C1060.55 565.831 1058.49 566.033 1056.72 566.899C1053.86 568.335 1048.95 570.202 1045.29 570.56C1026.97 572.351 1006.5 552.158 1003.63 522.844Z" fill="#F20B0B"/>
<path d="M1076.99 478.679C1070.58 479.306 1063.5 482.541 1058.43 485.118C1056.29 486.157 1053.98 486.787 1051.63 486.996L1059.37 566.122C1060.39 566 1061.44 566.07 1062.45 566.339C1065.76 567.171 1070.71 568.074 1074.6 567.694C1092.92 565.902 1109.09 542.126 1106.23 512.813C1104.52 495.408 1094.4 476.977 1076.99 478.679Z" fill="black" fill-opacity="0.08"/>
<path d="M1050.99 477.522C1048.93 477.724 1047.17 476.278 1046.96 474.216L1046.61 470.552C1045.62 460.476 1052.83 451.448 1063.14 450.44L1066.8 450.082C1068.63 449.903 1070.64 451.556 1070.82 453.388L1071.18 457.052C1072.19 467.357 1064.73 476.179 1054.65 477.164L1050.99 477.522Z" fill="#28A656"/>
<path d="M1071.18 457.052L1070.82 453.388C1070.73 452.464 1070.18 451.585 1069.41 450.965L1048.35 476.778C1049.07 477.333 1049.99 477.62 1050.99 477.522L1054.65 477.164C1064.73 476.179 1072.19 467.357 1071.18 457.052Z" fill="black" fill-opacity="0.08"/>
<path d="M1195.71 629C1195.71 642.807 1184.52 654 1170.71 654H1012.71C998.904 654 987.711 642.807 987.711 629V603H1195.71V629ZM1170.71 537C1184.52 537 1195.71 548.193 1195.71 562V589H987.711V562C987.711 548.193 998.904 537 1012.71 537H1170.71Z" fill="#76E49E"/>
<path d="M1195.71 629V562C1195.71 548.193 1184.52 537 1170.71 537H1115.71V654H1170.71C1184.52 654 1195.71 642.807 1195.71 629Z" fill="black" fill-opacity="0.08"/>
<rect x="1176.71" y="589" width="19" height="14" fill="#28A656"/>
<rect x="1006.71" y="589" width="170" height="14" fill="#228C49"/>
<rect x="987.711" y="589" width="19" height="14" fill="#28A656"/>
<path d="M1012.96 654H1170.96C1177.16 654 1182.84 651.741 1187.21 648H996.711C1001.08 651.741 1006.76 654 1012.96 654Z" fill="#39C76D"/>
<rect x="987.711" y="583" width="208" height="6" fill="#39C76D"/>
<circle cx="1014.21" cy="563.5" r="7.5" fill="#39C76D"/>
<path d="M1014.21 571C1018.35 571 1021.71 567.642 1021.71 563.5C1021.71 561.047 1020.53 558.868 1018.71 557.5L1009.71 569.501C1010.96 570.442 1012.52 571 1014.21 571Z" fill="black" fill-opacity="0.08"/>
<circle cx="1169.21" cy="563.5" r="7.5" fill="#39C76D"/>
<path d="M1169.21 571C1173.35 571 1176.71 567.642 1176.71 563.5C1176.71 561.047 1175.53 558.868 1173.71 557.5L1164.71 569.501C1165.96 570.442 1167.52 571 1169.21 571Z" fill="black" fill-opacity="0.08"/>
<circle cx="1014.21" cy="627.5" r="7.5" fill="#39C76D"/>
<path d="M1014.21 635C1018.35 635 1021.71 631.642 1021.71 627.5C1021.71 625.047 1020.53 622.868 1018.71 621.5L1009.71 633.501C1010.96 634.442 1012.52 635 1014.21 635Z" fill="black" fill-opacity="0.08"/>
<circle cx="1169.21" cy="627.5" r="7.5" fill="#39C76D"/>
<path d="M1169.21 635C1173.35 635 1176.71 631.642 1176.71 627.5C1176.71 625.047 1175.53 622.868 1173.71 621.5L1164.71 633.501C1165.96 634.442 1167.52 635 1169.21 635Z" fill="black" fill-opacity="0.08"/>
</g>
<path d="M461.917 500.663C461.228 493.617 459.74 478.396 443.392 479.995" stroke="#186635" stroke-width="5.66406" stroke-linecap="round"/>
<path d="M413.63 533.556C411.928 516.151 418.062 496.13 435.696 494.406C441.879 493.802 449.454 495.604 454.923 497.15C459.431 498.328 464.24 497.857 468.434 495.829C473.5 493.253 480.582 490.017 486.994 489.39C504.399 487.688 514.524 506.119 516.226 523.524C519.093 552.837 502.921 576.614 484.601 578.405C480.707 578.786 475.764 577.882 472.446 577.05C470.546 576.542 468.485 576.744 466.72 577.61C463.855 579.046 458.951 580.913 455.287 581.271C436.966 583.063 416.496 562.869 413.63 533.556Z" fill="#F20B0B"/>
<path d="M486.994 489.39C480.582 490.017 473.5 493.253 468.434 495.829C466.286 496.868 463.977 497.498 461.629 497.708L469.366 576.833C470.393 576.712 471.442 576.782 472.446 577.05C475.764 577.882 480.708 578.786 484.601 578.405C502.922 576.614 519.093 552.837 516.226 523.524C514.525 506.119 504.399 487.688 486.994 489.39Z" fill="black" fill-opacity="0.08"/>
<path d="M460.987 488.234C458.925 488.435 457.166 486.989 456.964 484.928L456.606 481.264C455.621 471.187 462.83 462.159 473.135 461.151L476.799 460.793C478.632 460.614 480.643 462.267 480.822 464.099L481.18 467.763C482.188 478.069 474.727 486.89 464.651 487.875L460.987 488.234Z" fill="#28A656"/>
<path d="M481.18 467.763L480.822 464.099C480.732 463.175 480.175 462.297 479.411 461.676L458.353 487.489C459.066 488.044 459.991 488.331 460.987 488.234L464.651 487.875C474.727 486.89 482.188 478.069 481.18 467.763Z" fill="black" fill-opacity="0.08"/>
<path d="M896.917 387.663C896.228 380.617 894.74 365.396 878.392 366.995" stroke="#186635" stroke-width="5.66406" stroke-linecap="round"/>
<path d="M848.63 420.556C846.928 403.151 853.062 383.13 870.696 381.406C876.879 380.802 884.454 382.604 889.923 384.15C894.431 385.328 899.24 384.857 903.434 382.829C908.5 380.253 915.582 377.017 921.994 376.39C939.399 374.688 949.524 393.119 951.226 410.524C954.093 439.837 937.921 463.614 919.601 465.405C915.707 465.786 910.764 464.882 907.446 464.05C905.546 463.542 903.485 463.744 901.72 464.61C898.855 466.046 893.951 467.913 890.287 468.271C871.966 470.063 851.496 449.869 848.63 420.556Z" fill="#F20B0B"/>
<path d="M921.994 376.39C915.582 377.017 908.5 380.253 903.434 382.829C901.286 383.868 898.977 384.498 896.629 384.708L904.366 463.833C905.393 463.712 906.442 463.782 907.446 464.05C910.764 464.882 915.708 465.786 919.601 465.405C937.922 463.614 954.093 439.837 951.226 410.524C949.525 393.119 939.399 374.688 921.994 376.39Z" fill="black" fill-opacity="0.08"/>
<path d="M895.987 375.234C893.925 375.435 892.166 373.989 891.964 371.928L891.606 368.264C890.621 358.187 897.83 349.159 908.135 348.151L911.799 347.793C913.632 347.614 915.643 349.267 915.822 351.099L916.18 354.763C917.188 365.069 909.727 373.89 899.651 374.875L895.987 375.234Z" fill="#28A656"/>
<path d="M916.18 354.763L915.822 351.099C915.732 350.175 915.175 349.297 914.411 348.676L893.353 374.489C894.066 375.044 894.991 375.331 895.987 375.234L899.651 374.875C909.727 373.89 917.188 365.069 916.18 354.763Z" fill="black" fill-opacity="0.08"/>
<path d="M692.5 356C697.68 356 702.25 360.57 702.25 365.75V385.25H738.812C750.695 385.25 760.75 395.305 760.75 407.188V490.062C760.75 502.25 750.695 512 738.812 512H646.188C634 512 624.25 502.25 624.25 490.062V407.188C624.25 395.305 634 385.25 646.188 385.25H682.75V365.75C682.75 360.57 687.016 356 692.5 356ZM658.375 473C655.633 473 653.5 475.438 653.5 477.875C653.5 480.617 655.633 482.75 658.375 482.75H668.125C670.562 482.75 673 480.617 673 477.875C673 475.438 670.562 473 668.125 473H658.375ZM687.625 473C684.883 473 682.75 475.438 682.75 477.875C682.75 480.617 684.883 482.75 687.625 482.75H697.375C699.812 482.75 702.25 480.617 702.25 477.875C702.25 475.438 699.812 473 697.375 473H687.625ZM716.875 473C714.133 473 712 475.438 712 477.875C712 480.617 714.133 482.75 716.875 482.75H726.625C729.062 482.75 731.5 480.617 731.5 477.875C731.5 475.438 729.062 473 726.625 473H716.875ZM675.438 434C675.438 429.734 673 425.773 669.344 423.641C665.383 421.508 660.812 421.508 657.156 423.641C653.195 425.773 651.062 429.734 651.062 434C651.062 438.57 653.195 442.531 657.156 444.664C660.812 446.797 665.383 446.797 669.344 444.664C673 442.531 675.438 438.57 675.438 434ZM721.75 446.188C726.016 446.188 729.977 444.055 732.109 440.094C734.242 436.438 734.242 431.867 732.109 427.906C729.977 424.25 726.016 421.812 721.75 421.812C717.18 421.812 713.219 424.25 711.086 427.906C708.953 431.867 708.953 436.438 711.086 440.094C713.219 444.055 717.18 446.188 721.75 446.188ZM609.625 424.25H614.5V482.75H609.625C601.398 482.75 595 476.352 595 468.125V438.875C595 430.953 601.398 424.25 609.625 424.25ZM775.375 424.25C783.297 424.25 790 430.953 790 438.875V468.125C790 476.352 783.297 482.75 775.375 482.75H770.5V424.25H775.375Z" fill="white"/>
<path d="M755.562 527H703H683.5H630.938C618.75 527 609 537.055 609 548.938V631.812C609 644 618.75 653.75 630.938 653.75H755.562C767.445 653.75 777.5 644 777.5 631.812V548.938C777.5 537.055 767.445 527 755.562 527Z" fill="white"/>
<path d="M582.5 543C590.625 543 597.5 549.563 597.5 558V563H537.5V558C537.5 549.562 544.062 543 552.5 543H582.5Z" fill="white"/>
<path d="M583 563C591.125 563 598 569.563 598 578V583H538V578C538 569.562 544.562 563 553 563H583Z" fill="white"/>
<path d="M835 499C843.125 499 850 505.563 850 514V519H790V514C790 505.562 796.562 499 805 499H835Z" fill="white"/>
<path d="M835.5 519C843.625 519 850.5 525.563 850.5 534V539H790.5V534C790.5 525.562 797.062 519 805.5 519H835.5Z" fill="white"/>
<path d="M586.037 314.516C586.037 291.859 567.725 273.547 545.068 273.547C533.904 273.547 523.494 278.315 515.867 286.045C514.156 287.78 512.775 289.801 511.51 291.883L508.133 297.446L469.957 379.695C468.715 382.489 469.026 385.903 471.509 388.075C473.681 390.558 476.785 390.869 479.889 389.627L531.101 365.728L562.138 351.451C576.726 344.933 586.037 330.346 586.037 314.516Z" fill="#F37132"/>
<path d="M514.085 290.548L513.944 290.41C513.624 290.115 513.265 289.884 512.884 289.718C511.775 291.344 509.828 294.748 508.928 296.201L526.581 314.229L526.722 314.366C528.207 315.736 530.522 315.715 531.982 314.285C533.443 312.855 533.512 310.541 532.173 309.028L532.039 308.884L514.085 290.548Z" fill="#BA4309"/>
<path d="M511.652 347.71C510.167 346.34 507.852 346.361 506.392 347.791C504.931 349.221 504.862 351.535 506.201 353.049L506.335 353.193L522.54 369.743L529.855 366.299L529.747 366.184L511.793 347.848L511.652 347.71Z" fill="#BA4309"/>
<path d="M562.138 351.451C576.726 344.933 586.037 330.346 586.037 314.517C586.037 305.262 582.982 296.733 577.824 289.88L474.302 389.987C476.013 390.573 477.951 390.402 479.889 389.627L531.1 365.728L562.138 351.451Z" fill="black" fill-opacity="0.08"/>
<path d="M578.504 283.949C576.274 281.719 576.274 278.25 578.504 276.02L582.468 272.056C593.37 261.154 610.962 260.906 622.112 272.056L626.077 276.02C628.059 278.003 628.059 281.967 626.077 283.949L622.112 287.914C610.962 299.064 593.37 298.816 582.468 287.914L578.504 283.949Z" fill="#28A656"/>
<path d="M622.112 287.914L626.077 283.95C627.076 282.95 627.572 281.446 627.563 279.947L576.833 280.131C576.87 281.507 577.427 282.873 578.504 283.95L582.468 287.914C593.37 298.816 610.962 299.064 622.112 287.914Z" fill="black" fill-opacity="0.08"/>
<path d="M582.909 281.354C580.674 283.579 577.205 283.571 574.98 281.336L571.025 277.362C560.149 266.434 559.943 248.841 571.12 237.718L575.093 233.763C577.08 231.785 581.045 231.795 583.022 233.781L586.977 237.755C598.101 248.932 597.811 266.523 586.883 277.399L582.909 281.354Z" fill="#28A656"/>
<path d="M586.977 237.755L583.022 233.781C582.025 232.779 580.522 232.28 579.023 232.285L579.087 283.015C580.462 282.982 581.83 282.428 582.909 281.354L586.883 277.399C597.811 266.523 598.1 248.931 586.977 237.755Z" fill="black" fill-opacity="0.08"/>
<ellipse cx="764.882" cy="269.005" rx="48.2308" ry="48.2866" transform="rotate(2.59287 764.882 269.005)" fill="white" fill-opacity="0.6"/>
<path d="M712.133 274.142C714.189 228.761 740.034 205.127 764.759 206.247C772.989 206.878 781.348 210.357 787.495 217.095L818.966 251.592C825.113 258.33 828.076 266.99 827.702 275.242C826.581 299.995 800.735 323.628 755.407 321.576C722.441 320.083 710.639 307.146 712.133 274.142ZM758.335 234.119C761.566 231.165 762.525 227.074 761.05 225.457C759.575 223.84 755.419 224.427 752.188 227.381C748.958 230.336 747.998 234.426 749.473 236.043C750.949 237.66 755.104 237.073 758.335 234.119ZM776.786 242.706C775.311 241.089 771.155 241.676 767.924 244.63C764.693 247.584 763.734 251.675 765.209 253.292C766.684 254.909 770.84 254.322 774.071 251.368C777.302 248.413 778.261 244.323 776.786 242.706ZM767.423 267.086C765.948 265.469 761.792 266.056 758.562 269.01C755.331 271.964 754.371 276.055 755.847 277.672C757.322 279.289 761.478 278.702 764.708 275.748C767.939 272.794 768.899 268.703 767.423 267.086ZM758.061 291.466C756.586 289.849 752.43 290.436 749.199 293.39C745.968 296.344 745.009 300.435 746.484 302.052C747.959 303.669 752.115 303.082 755.346 300.128C758.577 297.174 759.536 293.083 758.061 291.466ZM780.444 292.996C783.675 290.042 784.634 285.952 783.159 284.335C781.684 282.718 777.528 283.304 774.297 286.259C771.067 289.213 770.107 293.303 771.582 294.92C773.058 296.538 777.214 295.951 780.444 292.996ZM789.807 268.616C793.037 265.662 793.997 261.572 792.522 259.955C791.046 258.337 786.891 258.924 783.66 261.879C780.429 264.833 779.47 268.923 780.945 270.54C782.42 272.157 786.576 271.571 789.807 268.616ZM808.257 277.203C806.782 275.586 802.626 276.173 799.396 279.127C796.165 282.081 795.206 286.172 796.681 287.789C798.156 289.406 802.312 288.819 805.543 285.865C808.773 282.911 809.733 278.82 808.257 277.203ZM751.688 249.837C750.212 248.22 746.057 248.807 742.826 251.761C739.595 254.716 738.636 258.806 740.111 260.423C741.586 262.04 745.742 261.453 748.973 258.499C752.203 255.545 753.163 251.454 751.688 249.837ZM739.61 282.879C742.841 279.925 743.8 275.834 742.325 274.217C740.85 272.6 736.694 273.187 733.463 276.141C730.233 279.096 729.273 283.186 730.748 284.803C732.224 286.42 736.379 285.833 739.61 282.879Z" fill="#B00000"/>
<path d="M842.889 202.034C844.317 198.998 842.935 195.318 839.914 193.631C836.882 192.202 833.206 193.586 831.521 196.61C828.665 202.682 823.503 208.391 818.646 213.08C818.388 213.068 818.119 213.314 818.107 213.572L818.142 212.798C818.551 203.774 814.23 196.602 812.052 193.403C811.326 192.337 810.062 191.763 808.774 191.704C807.229 191.634 806.175 192.103 805.099 193.088C802.652 195.819 797.97 202.325 797.632 209.803C797.165 220.117 800.841 224.417 806.999 230.897C812.889 237.623 816.834 241.677 827.136 242.144C834.605 242.482 841.5 238.402 844.438 236.21C845.515 235.225 846.088 233.959 846.147 232.67C846.205 231.38 845.749 230.068 844.753 229.248C842.014 227.057 835.774 222.382 827.286 221.739C832.671 216.815 838.921 209.864 842.889 202.034Z" fill="#228C49"/>
<path d="M843.11 201.832C844.538 198.796 843.156 195.116 840.135 193.429C837.103 192 833.427 193.384 831.742 196.408C828.886 202.48 823.724 208.189 818.866 212.878C818.609 212.866 818.34 213.112 818.328 213.37L818.363 212.596C818.772 203.572 814.451 196.4 812.273 193.201C811.547 192.135 810.283 191.561 808.995 191.502C807.45 191.432 806.396 191.901 805.319 192.886C802.873 195.617 798.191 202.123 797.853 209.601C797.385 219.915 801.062 224.215 807.22 230.695C813.11 237.421 817.055 241.475 827.357 241.942C834.826 242.28 841.721 238.2 844.659 236.008C845.736 235.023 846.309 233.757 846.368 232.468C846.426 231.178 845.969 229.866 844.974 229.046C842.235 226.855 835.994 222.18 827.507 221.537C832.891 216.613 839.142 209.662 843.11 201.832Z" fill="#228C49"/>
<mask id="mask0_815_3026" style="mask-type:alpha" maskUnits="userSpaceOnUse" x="710" y="187" width="138" height="133">
<path d="M716.076 187.083L847.941 193.054L710.098 319.1L716.076 187.083Z" fill="#F20B0B"/>
</mask>
<g mask="url(#mask0_815_3026)">
<path d="M842.889 202.034C844.317 198.998 842.935 195.318 839.914 193.631C836.882 192.202 833.206 193.586 831.521 196.61C828.665 202.682 823.503 208.391 818.646 213.08C818.388 213.068 818.119 213.314 818.107 213.572L818.142 212.799C818.551 203.774 814.23 196.602 812.052 193.403C811.326 192.337 810.062 191.763 808.774 191.704C807.229 191.634 806.175 192.104 805.099 193.088C802.652 195.82 797.97 202.325 797.632 209.803C797.165 220.117 800.841 224.417 806.999 230.897C812.889 237.623 816.834 241.678 827.136 242.144C834.605 242.482 841.5 238.402 844.438 236.21C845.515 235.225 846.088 233.959 846.147 232.67C846.205 231.381 845.748 230.068 844.753 229.248C842.014 227.057 835.774 222.382 827.286 221.739C832.671 216.816 838.921 209.864 842.889 202.034Z" fill="#28A656"/>
<path d="M843.11 201.832C844.538 198.796 843.156 195.116 840.135 193.429C837.103 192 833.427 193.384 831.742 196.408C828.886 202.48 823.724 208.189 818.866 212.878C818.609 212.866 818.34 213.112 818.328 213.37L818.363 212.597C818.772 203.572 814.451 196.4 812.273 193.201C811.547 192.135 810.283 191.561 808.995 191.502C807.45 191.432 806.396 191.902 805.319 192.886C802.873 195.618 798.191 202.123 797.853 209.601C797.385 219.915 801.062 224.215 807.22 230.695C813.11 237.421 817.055 241.476 827.357 241.942C834.826 242.28 841.721 238.2 844.659 236.008C845.736 235.023 846.309 233.757 846.368 232.468C846.426 231.179 845.969 229.866 844.974 229.046C842.235 226.855 835.994 222.18 827.507 221.537C832.891 216.614 839.142 209.662 843.11 201.832Z" fill="#28A656"/>
<path d="M712.134 274.142C714.189 228.761 740.034 205.127 764.759 206.247C772.989 206.878 781.348 210.357 787.495 217.095L818.966 251.592C825.113 258.33 828.076 266.991 827.702 275.242C826.581 299.995 800.736 323.629 755.407 321.576C722.441 320.083 710.639 307.147 712.134 274.142ZM758.335 234.119C761.566 231.165 762.525 227.074 761.05 225.457C759.575 223.84 755.419 224.427 752.188 227.381C748.958 230.336 747.998 234.426 749.473 236.043C750.949 237.66 755.104 237.073 758.335 234.119ZM776.786 242.706C775.311 241.089 771.155 241.676 767.924 244.63C764.693 247.584 763.734 251.675 765.209 253.292C766.684 254.909 770.84 254.322 774.071 251.368C777.302 248.414 778.261 244.323 776.786 242.706ZM767.423 267.086C765.948 265.469 761.792 266.056 758.562 269.01C755.331 271.964 754.372 276.055 755.847 277.672C757.322 279.289 761.478 278.702 764.708 275.748C767.939 272.794 768.899 268.703 767.423 267.086ZM758.061 291.466C756.586 289.849 752.43 290.436 749.199 293.39C745.968 296.344 745.009 300.435 746.484 302.052C747.959 303.669 752.115 303.082 755.346 300.128C758.577 297.174 759.536 293.083 758.061 291.466ZM780.444 292.997C783.675 290.042 784.634 285.952 783.159 284.335C781.684 282.718 777.528 283.305 774.297 286.259C771.067 289.213 770.107 293.304 771.583 294.921C773.058 296.538 777.214 295.951 780.444 292.997ZM789.807 268.616C793.037 265.662 793.997 261.572 792.522 259.955C791.046 258.338 786.891 258.924 783.66 261.879C780.429 264.833 779.47 268.923 780.945 270.541C782.42 272.158 786.576 271.571 789.807 268.616ZM808.258 277.203C806.782 275.586 802.626 276.173 799.396 279.127C796.165 282.082 795.206 286.172 796.681 287.789C798.156 289.406 802.312 288.819 805.543 285.865C808.773 282.911 809.733 278.82 808.258 277.203ZM751.688 249.837C750.212 248.22 746.057 248.807 742.826 251.761C739.595 254.716 738.636 258.806 740.111 260.423C741.586 262.04 745.742 261.453 748.973 258.499C752.203 255.545 753.163 251.454 751.688 249.837ZM739.61 282.879C742.841 279.925 743.8 275.835 742.325 274.217C740.85 272.6 736.694 273.187 733.463 276.142C730.233 279.096 729.273 283.186 730.748 284.803C732.224 286.42 736.379 285.834 739.61 282.879Z" fill="#DD0000"/>
</g>
<rect x="43" y="663" width="1599" height="275" fill="#28A656"/>
<circle cx="1362.5" cy="237.5" r="72.5" fill="white" fill-opacity="0.4"/>
<path d="M1426.38 237.5C1426.38 214.953 1414.19 194.234 1394.69 182.656C1374.88 171.383 1350.81 171.383 1331.31 182.656C1311.51 194.234 1299.62 214.953 1299.62 237.5C1299.62 260.352 1311.51 281.07 1331.31 292.648C1350.81 303.922 1374.88 303.922 1394.69 292.648C1414.19 281.07 1426.38 260.352 1426.38 237.5ZM1285 237.5C1285 209.773 1299.62 184.18 1324 170.164C1348.07 156.148 1377.62 156.148 1402 170.164C1426.07 184.18 1441 209.773 1441 237.5C1441 265.531 1426.07 291.125 1402 305.141C1377.62 319.156 1348.07 319.156 1324 305.141C1299.62 291.125 1285 265.531 1285 237.5ZM1355.69 196.062C1355.69 192.102 1358.73 188.75 1363 188.75C1366.96 188.75 1370.31 192.102 1370.31 196.062V233.844L1396.21 250.906C1399.56 253.344 1400.48 257.914 1398.34 261.266C1395.91 264.617 1391.34 265.531 1387.98 263.094L1358.73 243.594C1356.91 242.375 1355.69 239.938 1355.69 237.5V196.062Z" fill="white"/>
<g style="mix-blend-mode:color-burn">
<rect x="43" y="664" width="1645" height="274" fill="url(#paint1_linear_815_3026)" fill-opacity="0.2"/>
</g>
<g style="mix-blend-mode:color-burn">
<rect x="43" y="754" width="1645" height="274" fill="url(#paint2_linear_815_3026)" fill-opacity="0.5"/>
</g>
<g style="mix-blend-mode:color-burn">
<rect x="43" y="849" width="1645" height="274" fill="url(#paint3_linear_815_3026)" fill-opacity="0.5"/>
</g>
<g style="mix-blend-mode:color-burn">
<rect x="1641" y="663" width="1599" height="628" transform="rotate(180 1641 663)" fill="url(#paint4_linear_815_3026)" fill-opacity="0.2"/>
</g>
</g>
</g>
<defs>
<filter id="filter0_d_815_3026" x="0.333432" y="0.753282" width="1673.44" height="973.44" filterUnits="userSpaceOnUse" color-interpolation-filters="sRGB">
<feFlood flood-opacity="0" result="BackgroundImageFix"/>
<feColorMatrix in="SourceAlpha" type="matrix" values="0 0 0 0 0 0 0 0 0 0 0 0 0 0 0 0 0 0 127 0" result="hardAlpha"/>
<feOffset dx="-4.94657" dy="2.47328"/>
<feGaussianBlur stdDeviation="18.36"/>
<feComposite in2="hardAlpha" operator="out"/>
<feColorMatrix type="matrix" values="0 0 0 0 0 0 0 0 0 0 0 0 0 0 0 0 0 0 0.1 0"/>
<feBlend mode="normal" in2="BackgroundImageFix" result="effect1_dropShadow_815_3026"/>
<feBlend mode="normal" in="SourceGraphic" in2="effect1_dropShadow_815_3026" result="shape"/>
</filter>
<linearGradient id="paint0_linear_815_3026" x1="2568.99" y1="1044.64" x2="2568.99" y2="1795.03" gradientUnits="userSpaceOnUse">
<stop stop-color="#D9D9D9"/>
<stop offset="1" stop-color="#737373"/>
</linearGradient>
<linearGradient id="paint1_linear_815_3026" x1="997.688" y1="697.381" x2="997.688" y2="925.83" gradientUnits="userSpaceOnUse">
<stop stop-color="#D9D9D9"/>
<stop offset="1" stop-color="#737373"/>
</linearGradient>
<linearGradient id="paint2_linear_815_3026" x1="997.688" y1="787.381" x2="997.688" y2="1015.83" gradientUnits="userSpaceOnUse">
<stop stop-color="#D9D9D9"/>
<stop offset="1" stop-color="#737373"/>
</linearGradient>
<linearGradient id="paint3_linear_815_3026" x1="997.688" y1="882.381" x2="997.688" y2="1110.83" gradientUnits="userSpaceOnUse">
<stop stop-color="#D9D9D9"/>
<stop offset="1" stop-color="#737373"/>
</linearGradient>
<linearGradient id="paint4_linear_815_3026" x1="2568.99" y1="739.508" x2="2568.99" y2="1263.11" gradientUnits="userSpaceOnUse">
<stop stop-color="white"/>
<stop offset="1" stop-color="#A0A0A0"/>
</linearGradient>
<clipPath id="clip0_815_3026">
<rect x="42" y="35" width="1600" height="900" rx="32" fill="white"/>
</clipPath>
<clipPath id="clip1_815_3026">
<rect width="256" height="256" fill="white" transform="translate(939 422)"/>
</clipPath>
</defs>
</svg>
