<svg xmlns="http://www.w3.org/2000/svg" width="1674" height="975" fill="none"><g filter="url(#a)"><g clip-path="url(#b)"><rect width="1600" height="900" x="42" y="35" fill="#16B2D4" rx="32"/><path fill="#fff" d="M314 252.75c0-35.844 23.125-67.062 55.5-78.047V169.5c0-50.875 41.047-92.5 92.5-92.5 34.109 0 64.172 19.078 79.781 46.828C550.453 117.469 561.438 114 573 114c30.641 0 55.5 24.859 55.5 55.5 0 7.516-1.734 13.875-4.047 20.234 34.11 6.938 59.547 37 59.547 72.266 0 41.047-33.531 74-74 74H397.25C351 336 314 299 314 252.75M860 354.929c0-26.295 17-49.197 40.8-57.255v-3.817c0-37.321 30.175-67.857 68-67.857 25.075 0 47.18 13.996 58.65 34.353 6.38-4.665 14.45-7.21 22.95-7.21 22.53 0 40.8 18.236 40.8 40.714 0 5.514-1.27 10.179-2.97 14.844 25.07 5.089 43.77 27.143 43.77 53.013 0 30.112-24.65 54.286-54.4 54.286H921.2c-34 0-61.2-27.143-61.2-61.071" opacity=".84"/><path fill="url(#c)" fill-opacity=".2" d="M1641 935h1599v900H1641z" style="mix-blend-mode:color-burn" transform="rotate(180 1641 935)"/><g clip-path="url(#d)"><path stroke="#186635" stroke-linecap="round" stroke-width="5.664" d="M1133.42 489.943c.86-7.029 2.7-22.21-13.61-24.191"/><path fill="#F20B0B" d="M1079.16 511.595c2.1-17.361 12.43-35.577 30.02-33.441 6.17.749 13.17 4.15 18.17 6.844a19.7 19.7 0 0 0 13.48 1.637c5.5-1.418 13.12-3.043 19.52-2.266 17.36 2.109 23.25 22.295 21.14 39.655-3.55 29.239-24.49 48.948-42.76 46.728-3.89-.472-8.52-2.425-11.58-3.955a8.25 8.25 0 0 0-5.71-.694c-3.1.782-8.3 1.542-11.95 1.098-18.27-2.22-33.89-26.368-30.33-55.606"/><path fill="#000" fill-opacity=".08" d="M1160.35 484.369c-6.4-.777-14.01.848-19.52 2.266-2.32.549-4.71.664-7.05.36l-9.59 78.922c1.03.104 2.04.4 2.96.88 3.06 1.53 7.69 3.483 11.58 3.955 18.27 2.22 39.21-17.489 42.76-46.728 2.11-17.36-3.78-37.546-21.14-39.655"/><path fill="#28A656" d="M1135.21 477.607c-2.06-.25-3.47-2.043-3.22-4.099l.45-3.655c1.22-10.05 10.21-17.302 20.49-16.054l3.66.444c1.82.222 3.43 2.271 3.21 4.099l-.45 3.655c-1.24 10.279-10.44 17.275-20.49 16.054z"/><path fill="#000" fill-opacity=".08" d="m1159.35 461.997.45-3.655c.11-.922-.24-1.9-.85-2.671l-26.15 20.639c.57.696 1.41 1.176 2.41 1.297l3.65.444c10.05 1.221 19.25-5.775 20.49-16.054"/><path stroke="#186635" stroke-linecap="round" stroke-width="5.664" d="M1051.92 489.952c-.69-7.047-2.18-22.267-18.53-20.668"/><path fill="#F20B0B" d="M1003.63 522.844c-1.7-17.404 4.43-37.425 22.07-39.149 6.18-.605 13.75 1.198 19.22 2.744 4.51 1.177 9.32.707 13.51-1.321 5.07-2.577 12.15-5.812 18.56-6.439 17.41-1.702 27.53 16.729 29.24 34.133 2.86 29.314-13.31 53.09-31.63 54.882-3.89.38-8.84-.524-12.15-1.355a8.26 8.26 0 0 0-5.73.56c-2.86 1.436-7.77 3.303-11.43 3.661-18.32 1.791-38.79-18.402-41.66-47.716"/><path fill="#000" fill-opacity=".08" d="M1076.99 478.679c-6.41.627-13.49 3.862-18.56 6.439a19.5 19.5 0 0 1-6.8 1.878l7.74 79.126a8.2 8.2 0 0 1 3.08.217c3.31.832 8.26 1.735 12.15 1.355 18.32-1.792 34.49-25.568 31.63-54.881-1.71-17.405-11.83-35.836-29.24-34.134"/><path fill="#28A656" d="M1050.99 477.522c-2.06.202-3.82-1.244-4.03-3.306l-.35-3.664c-.99-10.076 6.22-19.104 16.53-20.112l3.66-.358c1.83-.179 3.84 1.474 4.02 3.306l.36 3.664c1.01 10.305-6.45 19.127-16.53 20.112z"/><path fill="#000" fill-opacity=".08" d="m1071.18 457.052-.36-3.664c-.09-.924-.64-1.803-1.41-2.423l-21.06 25.813a3.7 3.7 0 0 0 2.64.744l3.66-.358c10.08-.985 17.54-9.807 16.53-20.112"/><path fill="#76E49E" d="M1195.71 629c0 13.807-11.19 25-25 25h-158c-13.806 0-24.999-11.193-24.999-25v-26h207.999zm-25-92c13.81 0 25 11.193 25 25v27H987.711v-27c0-13.807 11.193-25 24.999-25z"/><path fill="#000" fill-opacity=".08" d="M1195.71 629v-67c0-13.807-11.19-25-25-25h-55v117h55c13.81 0 25-11.193 25-25"/><path fill="#28A656" d="M1176.71 589h19v14h-19z"/><path fill="#228C49" d="M1006.71 589h170v14h-170z"/><path fill="#28A656" d="M987.711 589h19v14h-19z"/><path fill="#39C76D" d="M1012.96 654h158c6.2 0 11.88-2.259 16.25-6H996.711a24.9 24.9 0 0 0 16.249 6M987.711 583h208v6h-208z"/><circle cx="1014.21" cy="563.5" r="7.5" fill="#39C76D"/><path fill="#000" fill-opacity=".08" d="M1014.21 571a7.501 7.501 0 0 0 4.5-13.5l-9 12.001a7.46 7.46 0 0 0 4.5 1.499"/><circle cx="1169.21" cy="563.5" r="7.5" fill="#39C76D"/><path fill="#000" fill-opacity=".08" d="M1169.21 571a7.501 7.501 0 0 0 4.5-13.5l-9 12.001a7.46 7.46 0 0 0 4.5 1.499"/><circle cx="1014.21" cy="627.5" r="7.5" fill="#39C76D"/><path fill="#000" fill-opacity=".08" d="M1014.21 635a7.501 7.501 0 0 0 4.5-13.5l-9 12.001a7.46 7.46 0 0 0 4.5 1.499"/><circle cx="1169.21" cy="627.5" r="7.5" fill="#39C76D"/><path fill="#000" fill-opacity=".08" d="M1169.21 635a7.501 7.501 0 0 0 4.5-13.5l-9 12.001a7.46 7.46 0 0 0 4.5 1.499"/></g><path stroke="#186635" stroke-linecap="round" stroke-width="5.664" d="M461.917 500.663c-.689-7.046-2.177-22.267-18.525-20.668"/><path fill="#F20B0B" d="M413.63 533.556c-1.702-17.405 4.432-37.426 22.066-39.15 6.183-.604 13.758 1.198 19.227 2.744a19.67 19.67 0 0 0 13.511-1.321c5.066-2.576 12.148-5.812 18.56-6.439 17.405-1.702 27.53 16.729 29.232 34.134 2.867 29.313-13.305 53.09-31.625 54.881-3.894.381-8.837-.523-12.155-1.355a8.25 8.25 0 0 0-5.726.56c-2.865 1.436-7.769 3.303-11.433 3.661-18.321 1.792-38.791-18.402-41.657-47.715"/><path fill="#000" fill-opacity=".08" d="M486.994 489.39c-6.412.627-13.494 3.863-18.56 6.439a19.7 19.7 0 0 1-6.805 1.879l7.737 79.125a8.2 8.2 0 0 1 3.08.217c3.318.832 8.262 1.736 12.155 1.355 18.321-1.791 34.492-25.568 31.625-54.881-1.701-17.405-11.827-35.836-29.232-34.134"/><path fill="#28A656" d="M460.987 488.234c-2.062.201-3.821-1.245-4.023-3.306l-.358-3.664c-.985-10.077 6.224-19.105 16.529-20.113l3.664-.358c1.833-.179 3.844 1.474 4.023 3.306l.358 3.664c1.008 10.306-6.453 19.127-16.529 20.112z"/><path fill="#000" fill-opacity=".08" d="m481.18 467.763-.358-3.664c-.09-.924-.647-1.802-1.411-2.423l-21.058 25.813a3.68 3.68 0 0 0 2.634.745l3.664-.359c10.076-.985 17.537-9.806 16.529-20.112"/><path stroke="#186635" stroke-linecap="round" stroke-width="5.664" d="M896.917 387.663c-.689-7.046-2.177-22.267-18.525-20.668"/><path fill="#F20B0B" d="M848.63 420.556c-1.702-17.405 4.432-37.426 22.066-39.15 6.183-.604 13.758 1.198 19.227 2.744a19.67 19.67 0 0 0 13.511-1.321c5.066-2.576 12.148-5.812 18.56-6.439 17.405-1.702 27.53 16.729 29.232 34.134 2.867 29.313-13.305 53.09-31.625 54.881-3.894.381-8.837-.523-12.155-1.355a8.25 8.25 0 0 0-5.726.56c-2.865 1.436-7.769 3.303-11.433 3.661-18.321 1.792-38.791-18.402-41.657-47.715"/><path fill="#000" fill-opacity=".08" d="M921.994 376.39c-6.412.627-13.494 3.863-18.56 6.439a19.7 19.7 0 0 1-6.805 1.879l7.737 79.125a8.2 8.2 0 0 1 3.08.217c3.318.832 8.262 1.736 12.155 1.355 18.321-1.791 34.492-25.568 31.625-54.881-1.701-17.405-11.827-35.836-29.232-34.134"/><path fill="#28A656" d="M895.987 375.234c-2.062.201-3.821-1.245-4.023-3.306l-.358-3.664c-.985-10.077 6.224-19.105 16.529-20.113l3.664-.358c1.833-.179 3.844 1.474 4.023 3.306l.358 3.664c1.008 10.306-6.453 19.127-16.529 20.112z"/><path fill="#000" fill-opacity=".08" d="m916.18 354.763-.358-3.664c-.09-.924-.647-1.802-1.411-2.423l-21.058 25.813a3.68 3.68 0 0 0 2.634.745l3.664-.359c10.076-.985 17.537-9.806 16.529-20.112"/><path fill="#fff" d="M692.5 356c5.18 0 9.75 4.57 9.75 9.75v19.5h36.562c11.883 0 21.938 10.055 21.938 21.938v82.874c0 12.188-10.055 21.938-21.938 21.938h-92.624a21.847 21.847 0 0 1-21.938-21.938v-82.874c0-11.883 9.75-21.938 21.938-21.938h36.562v-19.5c0-5.18 4.266-9.75 9.75-9.75m-34.125 117c-2.742 0-4.875 2.438-4.875 4.875 0 2.742 2.133 4.875 4.875 4.875h9.75c2.437 0 4.875-2.133 4.875-4.875 0-2.437-2.438-4.875-4.875-4.875zm29.25 0c-2.742 0-4.875 2.438-4.875 4.875 0 2.742 2.133 4.875 4.875 4.875h9.75c2.437 0 4.875-2.133 4.875-4.875 0-2.437-2.438-4.875-4.875-4.875zm29.25 0c-2.742 0-4.875 2.438-4.875 4.875 0 2.742 2.133 4.875 4.875 4.875h9.75c2.437 0 4.875-2.133 4.875-4.875 0-2.437-2.438-4.875-4.875-4.875zm-41.437-39c0-4.266-2.438-8.227-6.094-10.359-3.961-2.133-8.532-2.133-12.188 0-3.961 2.132-6.094 6.093-6.094 10.359 0 4.57 2.133 8.531 6.094 10.664 3.656 2.133 8.227 2.133 12.188 0A12.29 12.29 0 0 0 675.438 434m46.312 12.188c4.266 0 8.227-2.133 10.359-6.094 2.133-3.656 2.133-8.227 0-12.188-2.132-3.656-6.093-6.094-10.359-6.094a12.29 12.29 0 0 0-10.664 6.094c-2.133 3.961-2.133 8.532 0 12.188 2.133 3.961 6.094 6.094 10.664 6.094M609.625 424.25h4.875v58.5h-4.875c-8.227 0-14.625-6.398-14.625-14.625v-29.25c0-7.922 6.398-14.625 14.625-14.625m165.75 0c7.922 0 14.625 6.703 14.625 14.625v29.25c0 8.227-6.703 14.625-14.625 14.625H770.5v-58.5zM755.562 527H630.938C618.75 527 609 537.055 609 548.938v82.874a21.847 21.847 0 0 0 21.938 21.938h124.624c11.883 0 21.938-9.75 21.938-21.938v-82.874c0-11.883-10.055-21.938-21.938-21.938M582.5 543c8.125 0 15 6.563 15 15v5h-60v-5c0-8.438 6.562-15 15-15zM583 563c8.125 0 15 6.563 15 15v5h-60v-5c0-8.438 6.562-15 15-15zM835 499c8.125 0 15 6.563 15 15v5h-60v-5c0-8.438 6.562-15 15-15zM835.5 519c8.125 0 15 6.563 15 15v5h-60v-5c0-8.438 6.562-15 15-15z"/><path fill="#F37132" d="M586.037 314.516c0-22.657-18.312-40.969-40.969-40.969-11.164 0-21.574 4.768-29.201 12.498-1.711 1.735-3.092 3.756-4.357 5.838l-3.377 5.563-38.176 82.249c-1.242 2.794-.931 6.208 1.552 8.38 2.172 2.483 5.276 2.794 8.38 1.552l51.212-23.899 31.037-14.277c14.588-6.518 23.899-21.105 23.899-36.935"/><path fill="#BA4309" d="m514.085 290.548-.141-.138a3.8 3.8 0 0 0-1.06-.692c-1.109 1.626-3.056 5.03-3.956 6.483l17.653 18.028.141.137a3.82 3.82 0 0 0 5.451-5.338l-.134-.144zM511.652 347.71a3.82 3.82 0 0 0-5.451 5.339l.134.144 16.205 16.55 7.315-3.444-.108-.115-17.954-18.336z"/><path fill="#000" fill-opacity=".08" d="M562.138 351.451c14.588-6.518 23.899-21.105 23.899-36.934 0-9.255-3.055-17.784-8.213-24.637L474.302 389.987c1.711.586 3.649.415 5.587-.36l51.211-23.899z"/><path fill="#28A656" d="M578.504 283.949c-2.23-2.23-2.23-5.699 0-7.929l3.964-3.964c10.902-10.902 28.494-11.15 39.644 0l3.965 3.964c1.982 1.983 1.982 5.947 0 7.929l-3.965 3.965c-11.15 11.15-28.742 10.902-39.644 0z"/><path fill="#000" fill-opacity=".08" d="m622.112 287.914 3.965-3.964c.999-1 1.495-2.504 1.486-4.003l-50.73.184c.037 1.376.594 2.742 1.671 3.819l3.964 3.964c10.902 10.902 28.494 11.15 39.644 0"/><path fill="#28A656" d="M582.909 281.354c-2.235 2.225-5.704 2.217-7.929-.018l-3.955-3.974c-10.876-10.928-11.082-28.521.095-39.644l3.973-3.955c1.987-1.978 5.952-1.968 7.929.018l3.955 3.974c11.124 11.177 10.834 28.768-.094 39.644z"/><path fill="#000" fill-opacity=".08" d="m586.977 237.755-3.955-3.974c-.997-1.002-2.5-1.501-3.999-1.496l.064 50.73c1.375-.033 2.743-.587 3.822-1.661l3.974-3.955c10.928-10.876 11.217-28.468.094-39.644"/><ellipse cx="764.882" cy="269.005" fill="#fff" fill-opacity=".6" rx="48.231" ry="48.287" transform="rotate(2.593 764.882 269.005)"/><path fill="#B00000" d="M712.133 274.142c2.056-45.381 27.901-69.015 52.626-67.895 8.23.631 16.589 4.11 22.736 10.848l31.471 34.497c6.147 6.738 9.11 15.398 8.736 23.65-1.121 24.753-26.967 48.386-72.295 46.334-32.966-1.493-44.768-14.43-43.274-47.434m46.202-40.023c3.231-2.954 4.19-7.045 2.715-8.662s-5.631-1.03-8.862 1.924c-3.23 2.955-4.19 7.045-2.715 8.662s5.631 1.03 8.862-1.924m18.451 8.587c-1.475-1.617-5.631-1.03-8.862 1.924s-4.19 7.045-2.715 8.662 5.631 1.03 8.862-1.924c3.231-2.955 4.19-7.045 2.715-8.662m-9.363 24.38c-1.475-1.617-5.631-1.03-8.861 1.924s-4.191 7.045-2.715 8.662 5.631 1.03 8.861-1.924 4.191-7.045 2.715-8.662m-9.362 24.38c-1.475-1.617-5.631-1.03-8.862 1.924s-4.19 7.045-2.715 8.662 5.631 1.03 8.862-1.924 4.19-7.045 2.715-8.662m22.383 1.53c3.231-2.954 4.19-7.044 2.715-8.661s-5.631-1.031-8.862 1.924-4.19 7.044-2.715 8.661c1.476 1.618 5.632 1.031 8.862-1.924m9.363-24.38c3.23-2.954 4.19-7.044 2.715-8.661-1.476-1.618-5.631-1.031-8.862 1.924s-4.19 7.044-2.715 8.661 5.631 1.031 8.862-1.924m18.45 8.587c-1.475-1.617-5.631-1.03-8.861 1.924s-4.19 7.045-2.715 8.662 5.631 1.03 8.862-1.924 4.19-7.045 2.714-8.662m-56.569-27.366c-1.476-1.617-5.631-1.03-8.862 1.924-3.231 2.955-4.19 7.045-2.715 8.662s5.631 1.03 8.862-1.924 4.19-7.045 2.715-8.662m-12.078 33.042c3.231-2.954 4.19-7.045 2.715-8.662s-5.631-1.03-8.862 1.924c-3.23 2.955-4.19 7.045-2.715 8.662s5.631 1.03 8.862-1.924"/><path fill="#228C49" d="M842.889 202.034c1.428-3.036.046-6.716-2.975-8.403-3.032-1.429-6.708-.045-8.393 2.979-2.856 6.072-8.018 11.781-12.875 16.47-.258-.012-.527.234-.539.492l.035-.774c.409-9.024-3.912-16.196-6.09-19.395-.726-1.066-1.99-1.64-3.278-1.699-1.545-.07-2.599.399-3.675 1.384-2.447 2.731-7.129 9.237-7.467 16.715-.467 10.314 3.209 14.614 9.367 21.094 5.89 6.726 9.835 10.78 20.137 11.247 7.469.338 14.364-3.742 17.302-5.934 1.077-.985 1.65-2.251 1.709-3.54.058-1.29-.398-2.602-1.394-3.422-2.739-2.191-8.979-6.866-17.467-7.509 5.385-4.924 11.635-11.875 15.603-19.705"/><path fill="#228C49" d="M843.11 201.832c1.428-3.036.046-6.716-2.975-8.403-3.032-1.429-6.708-.045-8.393 2.979-2.856 6.072-8.018 11.781-12.876 16.47-.257-.012-.526.234-.538.492l.035-.774c.409-9.024-3.912-16.196-6.09-19.395-.726-1.066-1.99-1.64-3.278-1.699-1.545-.07-2.599.399-3.676 1.384-2.446 2.731-7.128 9.237-7.466 16.715-.468 10.314 3.209 14.614 9.367 21.094 5.89 6.726 9.835 10.78 20.137 11.247 7.469.338 14.364-3.742 17.302-5.934 1.077-.985 1.65-2.251 1.709-3.54.058-1.29-.399-2.602-1.394-3.422-2.739-2.191-8.98-6.866-17.467-7.509 5.384-4.924 11.635-11.875 15.603-19.705"/><mask id="e" width="138" height="133" x="710" y="187" maskUnits="userSpaceOnUse" style="mask-type:alpha"><path fill="#F20B0B" d="m716.076 187.083 131.865 5.971L710.098 319.1z"/></mask><g mask="url(#e)"><path fill="#28A656" d="M842.889 202.034c1.428-3.036.046-6.716-2.975-8.403-3.032-1.429-6.708-.045-8.393 2.979-2.856 6.072-8.018 11.781-12.875 16.47-.258-.012-.527.234-.539.492l.035-.773c.409-9.025-3.912-16.197-6.09-19.396-.726-1.066-1.99-1.64-3.278-1.699-1.545-.07-2.599.4-3.675 1.384-2.447 2.732-7.129 9.237-7.467 16.715-.467 10.314 3.209 14.614 9.367 21.094 5.89 6.726 9.835 10.781 20.137 11.247 7.469.338 14.364-3.742 17.302-5.934 1.077-.985 1.65-2.251 1.709-3.54.058-1.289-.399-2.602-1.394-3.422-2.739-2.191-8.979-6.866-17.467-7.509 5.385-4.923 11.635-11.875 15.603-19.705"/><path fill="#28A656" d="M843.11 201.832c1.428-3.036.046-6.716-2.975-8.403-3.032-1.429-6.708-.045-8.393 2.979-2.856 6.072-8.018 11.781-12.876 16.47-.257-.012-.526.234-.538.492l.035-.773c.409-9.025-3.912-16.197-6.09-19.396-.726-1.066-1.99-1.64-3.278-1.699-1.545-.07-2.599.4-3.676 1.384-2.446 2.732-7.128 9.237-7.466 16.715-.468 10.314 3.209 14.614 9.367 21.094 5.89 6.726 9.835 10.781 20.137 11.247 7.469.338 14.364-3.742 17.302-5.934 1.077-.985 1.65-2.251 1.709-3.54.058-1.289-.399-2.602-1.394-3.422-2.739-2.191-8.98-6.866-17.467-7.509 5.384-4.923 11.635-11.875 15.603-19.705"/><path fill="#D00" d="M712.134 274.142c2.055-45.381 27.9-69.015 52.625-67.895 8.23.631 16.589 4.11 22.736 10.848l31.471 34.497c6.147 6.738 9.11 15.399 8.736 23.65-1.121 24.753-26.966 48.387-72.295 46.334-32.966-1.493-44.768-14.429-43.273-47.434m46.201-40.023c3.231-2.954 4.19-7.045 2.715-8.662s-5.631-1.03-8.862 1.924c-3.23 2.955-4.19 7.045-2.715 8.662s5.631 1.03 8.862-1.924m18.451 8.587c-1.475-1.617-5.631-1.03-8.862 1.924s-4.19 7.045-2.715 8.662 5.631 1.03 8.862-1.924 4.19-7.045 2.715-8.662m-9.363 24.38c-1.475-1.617-5.631-1.03-8.861 1.924s-4.19 7.045-2.715 8.662 5.631 1.03 8.861-1.924 4.191-7.045 2.715-8.662m-9.362 24.38c-1.475-1.617-5.631-1.03-8.862 1.924s-4.19 7.045-2.715 8.662 5.631 1.03 8.862-1.924 4.19-7.045 2.715-8.662m22.383 1.531c3.231-2.955 4.19-7.045 2.715-8.662s-5.631-1.03-8.862 1.924-4.19 7.045-2.714 8.662c1.475 1.617 5.631 1.03 8.861-1.924m9.363-24.381c3.23-2.954 4.19-7.044 2.715-8.661s-5.631-1.031-8.862 1.924-4.19 7.044-2.715 8.662c1.475 1.617 5.631 1.03 8.862-1.925m18.451 8.587c-1.476-1.617-5.632-1.03-8.862 1.924-3.231 2.955-4.19 7.045-2.715 8.662s5.631 1.03 8.862-1.924 4.19-7.045 2.715-8.662m-56.57-27.366c-1.476-1.617-5.631-1.03-8.862 1.924-3.231 2.955-4.19 7.045-2.715 8.662s5.631 1.03 8.862-1.924 4.19-7.045 2.715-8.662m-12.078 33.042c3.231-2.954 4.19-7.044 2.715-8.662-1.475-1.617-5.631-1.03-8.862 1.925s-4.19 7.044-2.715 8.661 5.631 1.031 8.862-1.924"/></g><path fill="#28A656" d="M43 663h1599v275H43z"/><circle cx="1362.5" cy="237.5" r="72.5" fill="#fff" fill-opacity=".4"/><path fill="#fff" d="M1426.38 237.5c0-22.547-12.19-43.266-31.69-54.844-19.81-11.273-43.88-11.273-63.38 0-19.8 11.578-31.69 32.297-31.69 54.844 0 22.852 11.89 43.57 31.69 55.148 19.5 11.274 43.57 11.274 63.38 0 19.5-11.578 31.69-32.296 31.69-55.148m-141.38 0c0-27.727 14.62-53.32 39-67.336 24.07-14.016 53.62-14.016 78 0 24.07 14.016 39 39.609 39 67.336 0 28.031-14.93 53.625-39 67.641-24.38 14.015-53.93 14.015-78 0-24.38-14.016-39-39.61-39-67.641m70.69-41.438c0-3.96 3.04-7.312 7.31-7.312 3.96 0 7.31 3.352 7.31 7.312v37.782l25.9 17.062c3.35 2.438 4.27 7.008 2.13 10.36-2.43 3.351-7 4.265-10.36 1.828l-29.25-19.5c-1.82-1.219-3.04-3.656-3.04-6.094z"/><path fill="url(#f)" fill-opacity=".2" d="M43 664h1645v274H43z" style="mix-blend-mode:color-burn"/><path fill="url(#g)" fill-opacity=".5" d="M43 754h1645v274H43z" style="mix-blend-mode:color-burn"/><path fill="url(#h)" fill-opacity=".5" d="M43 849h1645v274H43z" style="mix-blend-mode:color-burn"/><path fill="url(#i)" fill-opacity=".2" d="M1641 663h1599v628H1641z" style="mix-blend-mode:color-burn" transform="rotate(180 1641 663)"/></g></g><defs><linearGradient id="c" x1="2568.99" x2="2568.99" y1="1044.64" y2="1795.03" gradientUnits="userSpaceOnUse"><stop stop-color="#D9D9D9"/><stop offset="1" stop-color="#737373"/></linearGradient><linearGradient id="f" x1="997.688" x2="997.688" y1="697.381" y2="925.83" gradientUnits="userSpaceOnUse"><stop stop-color="#D9D9D9"/><stop offset="1" stop-color="#737373"/></linearGradient><linearGradient id="g" x1="997.688" x2="997.688" y1="787.381" y2="1015.83" gradientUnits="userSpaceOnUse"><stop stop-color="#D9D9D9"/><stop offset="1" stop-color="#737373"/></linearGradient><linearGradient id="h" x1="997.688" x2="997.688" y1="882.381" y2="1110.83" gradientUnits="userSpaceOnUse"><stop stop-color="#D9D9D9"/><stop offset="1" stop-color="#737373"/></linearGradient><linearGradient id="i" x1="2568.99" x2="2568.99" y1="739.508" y2="1263.11" gradientUnits="userSpaceOnUse"><stop stop-color="#fff"/><stop offset="1" stop-color="#A0A0A0"/></linearGradient><clipPath id="b"><rect width="1600" height="900" x="42" y="35" fill="#fff" rx="32"/></clipPath><clipPath id="d"><path fill="#fff" d="M939 422h256v256H939z"/></clipPath><filter id="a" width="1673.44" height="973.44" x=".333" y=".753" color-interpolation-filters="sRGB" filterUnits="userSpaceOnUse"><feFlood flood-opacity="0" result="BackgroundImageFix"/><feColorMatrix in="SourceAlpha" result="hardAlpha" values="0 0 0 0 0 0 0 0 0 0 0 0 0 0 0 0 0 0 127 0"/><feOffset dx="-4.947" dy="2.473"/><feGaussianBlur stdDeviation="18.36"/><feComposite in2="hardAlpha" operator="out"/><feColorMatrix values="0 0 0 0 0 0 0 0 0 0 0 0 0 0 0 0 0 0 0.1 0"/><feBlend in2="BackgroundImageFix" result="effect1_dropShadow_815_3026"/><feBlend in="SourceGraphic" in2="effect1_dropShadow_815_3026" result="shape"/></filter></defs></svg>