<svg width="1674" height="975" viewBox="0 0 1674 975" fill="none" xmlns="http://www.w3.org/2000/svg">
<g filter="url(#filter0_d_813_5875)">
<g clip-path="url(#clip0_813_5875)">
<rect x="42" y="35" width="1600" height="900" rx="32" fill="#16B2D4"/>
<path d="M1000 249.821C1000 224.772 1016.19 202.955 1038.85 195.279C1038.85 194.067 1038.85 192.855 1038.85 191.643C1038.85 156.089 1067.58 127 1103.6 127C1127.48 127 1148.52 140.333 1159.45 159.725C1165.52 155.281 1173.21 152.857 1181.3 152.857C1202.75 152.857 1220.15 170.23 1220.15 191.643C1220.15 196.895 1218.94 201.339 1217.32 205.783C1241.19 210.632 1259 231.641 1259 256.286C1259 284.971 1235.53 308 1207.2 308H1058.28C1025.9 308 1000 282.143 1000 249.821Z" fill="white" fill-opacity="0.8"/>
<path d="M507 335.786C507 311.152 491.125 289.696 468.9 282.147C468.9 280.955 468.9 279.763 468.9 278.571C468.9 243.607 440.722 215 405.4 215C381.984 215 361.347 228.112 350.631 247.183C344.678 242.812 337.137 240.429 329.2 240.429C308.166 240.429 291.1 257.513 291.1 278.571C291.1 283.737 292.291 288.107 293.878 292.478C270.462 297.246 253 317.906 253 342.143C253 370.353 276.019 393 303.8 393H449.85C481.6 393 507 367.571 507 335.786Z" fill="white" fill-opacity="0.8"/>
<path d="M1155 343.5C1155 322.188 1168.69 303.625 1187.85 297.094C1187.85 296.062 1187.85 295.031 1187.85 294C1187.85 263.75 1212.15 239 1242.6 239C1262.79 239 1280.58 250.344 1289.82 266.844C1294.95 263.062 1301.46 261 1308.3 261C1326.44 261 1341.15 275.781 1341.15 294C1341.15 298.469 1340.12 302.25 1338.75 306.031C1358.94 310.156 1374 328.031 1374 349C1374 373.406 1354.15 393 1330.2 393H1204.28C1176.9 393 1155 371 1155 343.5Z" fill="white" fill-opacity="0.8"/>
<rect x="530.922" y="187.711" width="218.156" height="244.727" rx="25" fill="#858585"/>
<path d="M749.078 407.438V212.711C749.078 198.904 737.885 187.711 724.078 187.711H656.082V432.438H724.078C737.885 432.438 749.078 421.245 749.078 407.438Z" fill="black" fill-opacity="0.08"/>
<rect x="553.297" y="211.484" width="173.406" height="198.578" fill="#EBEBEB"/>
<rect x="649.789" y="211.484" width="76.9141" height="198.578" fill="black" fill-opacity="0.08"/>
<path d="M639.301 141.562C658.857 141.562 675.433 153.295 681.186 169.531H689.117C702.924 169.531 714.117 180.724 714.117 194.531V222.461C714.117 227.984 709.64 232.461 704.117 232.461H575.883C570.36 232.461 565.883 227.984 565.883 222.461V194.531C565.883 180.724 577.076 169.531 590.883 169.531H597.416C603.168 153.295 619.745 141.562 639.301 141.562ZM640 173.727C632.277 173.727 626.016 179.988 626.016 187.711C626.016 195.434 632.277 201.695 640 201.695C647.723 201.695 653.984 195.434 653.984 187.711C653.984 179.988 647.723 173.727 640 173.727Z" fill="#D6D6D6"/>
<path d="M714.117 218.477V204.492H565.883V218.477C565.883 226.2 572.144 232.461 579.867 232.461H700.133C707.856 232.461 714.117 226.2 714.117 218.477Z" fill="#ADADAD"/>
<path d="M714.117 218.477V204.492H565.883V218.477H714.117Z" fill="#858585"/>
<path d="M714.117 204.492C714.117 185.872 699.56 170.652 681.206 169.591C678.214 161.1 672.263 153.837 664.473 148.833V232.461H700.133C707.856 232.461 714.117 226.2 714.117 218.476V204.492Z" fill="black" fill-opacity="0.08"/>
<rect x="565.883" y="240.852" width="18.1797" height="9.78906" fill="black"/>
<rect x="628.812" y="240.852" width="41.9531" height="9.78906" fill="black"/>
<rect x="596.648" y="240.852" width="23.7734" height="9.78906" fill="black"/>
<rect x="565.883" y="259.031" width="18.1797" height="9.78906" fill="black"/>
<rect x="596.648" y="259.031" width="74.1172" height="9.78906" fill="black"/>
<rect x="565.883" y="277.211" width="18.1797" height="9.78906" fill="black"/>
<rect x="596.648" y="277.211" width="37.7578" height="9.78906" fill="black"/>
<rect x="642.797" y="277.211" width="27.9688" height="9.78906" fill="black"/>
<rect x="565.883" y="295.391" width="18.1797" height="9.78906" fill="black"/>
<rect x="596.648" y="295.391" width="13.9844" height="9.78906" fill="black"/>
<rect x="624.617" y="295.391" width="46.1484" height="9.78906" fill="black"/>
<rect x="565.883" y="313.57" width="18.1797" height="9.78906" fill="black"/>
<rect x="596.648" y="313.57" width="27.9688" height="9.78906" fill="black"/>
<rect x="634.406" y="313.57" width="27.9688" height="9.78906" fill="black"/>
<path d="M223 633.669V413.932C223 397.352 232.562 382.047 248.5 375.67L419.35 307.435C423.812 305.522 429.55 305.522 434.012 307.435L604.862 375.67C620.8 382.047 631 397.352 631 413.932V633.669C631 642.597 623.987 630.753 615.7 630.753H585.1C576.175 630.753 569.8 642.597 569.8 633.669V447.093C569.8 436.252 560.237 426.686 549.4 426.686H304.6C293.125 426.686 284.2 436.252 284.2 447.093V633.669C284.2 642.597 277.187 630.753 268.9 630.753H238.3C229.375 630.753 223 642.597 223 633.669Z" fill="#28A656"/>
<path d="M631 414.061C631 397.49 620.831 382.194 604.941 375.82L483 327V426.808H549.645C560.45 426.808 569.984 436.368 569.984 447.202V633.671C569.984 642.593 576.34 630.757 585.238 630.757H615.746C624.009 630.757 631 642.593 631 633.671V414.061Z" fill="black" fill-opacity="0.08"/>
<rect x="209" y="621" width="437" height="37" rx="10" fill="#228C49"/>
<path d="M219 398L427.455 311L635 398" stroke="#228C49" stroke-width="10" stroke-linecap="round"/>
<rect x="272" y="399" width="308" height="40" fill="#76E49E"/>
<rect x="272" y="410" width="308" height="18" fill="#39C76D"/>
<rect x="330.685" y="550.286" width="71.0761" height="71.0761" fill="#F1D33D"/>
<rect x="358.022" y="550.286" width="16.4022" height="20.0471" fill="#C8A802"/>
<rect x="370.779" y="550.286" width="30.9819" height="71.0761" fill="black" fill-opacity="0.08"/>
<rect x="330.685" y="479.21" width="71.0761" height="71.0761" fill="#F1D33D"/>
<rect x="358.022" y="479.21" width="16.4022" height="20.0471" fill="#C8A802"/>
<rect x="370.779" y="479.21" width="30.9819" height="71.0761" fill="black" fill-opacity="0.08"/>
<rect x="461.902" y="550.286" width="71.0761" height="71.0761" fill="#F1D33D"/>
<rect x="489.239" y="550.286" width="16.4022" height="20.0471" fill="#C8A802"/>
<rect x="501.996" y="550.286" width="30.9819" height="71.0761" fill="black" fill-opacity="0.08"/>
<rect x="461.902" y="479.21" width="71.0761" height="71.0761" fill="#F1D33D"/>
<rect x="489.239" y="479.21" width="16.4022" height="20.0471" fill="#C8A802"/>
<rect x="501.996" y="479.21" width="30.9819" height="71.0761" fill="black" fill-opacity="0.08"/>
<rect x="259.609" y="550.286" width="71.0761" height="71.0761" fill="#F1D33D"/>
<rect x="286.946" y="550.286" width="16.4022" height="20.0471" fill="#C8A802"/>
<rect x="299.703" y="550.286" width="30.9819" height="71.0761" fill="black" fill-opacity="0.08"/>
<path d="M592.107 616.021C592.107 618.971 589.715 621.362 586.765 621.362H516.449C513.499 621.362 511.108 618.971 511.108 616.021V601.503H592.107V616.021ZM586.765 575.801C589.715 575.801 592.107 578.192 592.107 581.143V596.051H511.108V581.143C511.108 578.192 513.499 575.801 516.449 575.801H586.765Z" fill="#76E49E"/>
<path d="M592.106 616.021V581.143C592.106 578.192 589.714 575.801 586.764 575.801H560.952V621.362H586.764C589.714 621.362 592.106 618.971 592.106 616.021Z" fill="black" fill-opacity="0.08"/>
<rect x="584.708" y="596.051" width="7.39889" height="5.45181" fill="#28A656"/>
<rect x="518.509" y="596.051" width="66.2006" height="5.45181" fill="#228C49"/>
<rect x="511.109" y="596.051" width="7.39889" height="5.45181" fill="#28A656"/>
<path d="M520.942 621.362H582.47C584.886 621.362 587.096 620.482 588.797 619.025H514.615C516.316 620.482 518.527 621.362 520.942 621.362Z" fill="#39C76D"/>
<rect x="511.109" y="593.714" width="80.9984" height="2.33649" fill="#39C76D"/>
<circle cx="521.426" cy="586.121" r="2.92061" fill="#39C76D"/>
<path d="M521.426 589.041C523.039 589.041 524.347 587.734 524.347 586.121C524.347 585.165 523.888 584.317 523.179 583.784L519.674 588.457C520.162 588.824 520.768 589.041 521.426 589.041Z" fill="black" fill-opacity="0.08"/>
<circle cx="581.786" cy="586.121" r="2.92061" fill="#39C76D"/>
<path d="M581.786 589.041C583.399 589.041 584.706 587.734 584.706 586.121C584.706 585.165 584.247 584.317 583.538 583.784L580.033 588.457C580.521 588.824 581.128 589.041 581.786 589.041Z" fill="black" fill-opacity="0.08"/>
<circle cx="521.426" cy="611.044" r="2.92061" fill="#39C76D"/>
<path d="M521.426 613.964C523.039 613.964 524.347 612.657 524.347 611.044C524.347 610.088 523.888 609.24 523.179 608.707L519.674 613.38C520.162 613.747 520.768 613.964 521.426 613.964Z" fill="black" fill-opacity="0.08"/>
<circle cx="581.786" cy="611.044" r="2.92061" fill="#39C76D"/>
<path d="M581.786 613.964C583.399 613.964 584.706 612.657 584.706 611.044C584.706 610.088 584.247 609.24 583.538 608.707L580.033 613.38C580.521 613.747 581.128 613.964 581.786 613.964Z" fill="black" fill-opacity="0.08"/>
<path d="M592.107 570.459C592.107 573.409 589.715 575.801 586.765 575.801H516.449C513.499 575.801 511.108 573.409 511.108 570.459V555.941H592.107V570.459ZM586.765 530.239C589.715 530.239 592.107 532.631 592.107 535.581V550.489H511.108V535.581C511.108 532.631 513.499 530.239 516.449 530.239H586.765Z" fill="#76E49E"/>
<path d="M592.106 570.459V535.581C592.106 532.631 589.714 530.239 586.764 530.239H560.952V575.801H586.764C589.714 575.801 592.106 573.409 592.106 570.459Z" fill="black" fill-opacity="0.08"/>
<rect x="584.708" y="550.489" width="7.39889" height="5.45181" fill="#28A656"/>
<rect x="518.509" y="550.489" width="66.2006" height="5.45181" fill="#228C49"/>
<rect x="511.109" y="550.489" width="7.39889" height="5.45181" fill="#28A656"/>
<path d="M520.942 575.8H582.47C584.886 575.8 587.096 574.921 588.797 573.464H514.615C516.316 574.921 518.527 575.8 520.942 575.8Z" fill="#39C76D"/>
<rect x="511.109" y="548.152" width="80.9984" height="2.33649" fill="#39C76D"/>
<circle cx="521.426" cy="540.558" r="2.92061" fill="#39C76D"/>
<path d="M521.426 543.479C523.039 543.479 524.347 542.171 524.347 540.558C524.347 539.603 523.888 538.755 523.179 538.222L519.674 542.895C520.162 543.262 520.768 543.479 521.426 543.479Z" fill="black" fill-opacity="0.08"/>
<circle cx="581.786" cy="540.558" r="2.92061" fill="#39C76D"/>
<path d="M581.786 543.479C583.399 543.479 584.706 542.171 584.706 540.558C584.706 539.603 584.247 538.755 583.538 538.222L580.033 542.895C580.521 543.262 581.128 543.479 581.786 543.479Z" fill="black" fill-opacity="0.08"/>
<circle cx="521.426" cy="565.482" r="2.92061" fill="#39C76D"/>
<path d="M521.426 568.403C523.039 568.403 524.347 567.095 524.347 565.482C524.347 564.527 523.888 563.678 523.179 563.146L519.674 567.819C520.162 568.185 520.768 568.403 521.426 568.403Z" fill="black" fill-opacity="0.08"/>
<circle cx="581.786" cy="565.482" r="2.92061" fill="#39C76D"/>
<path d="M581.786 568.403C583.399 568.403 584.706 567.095 584.706 565.482C584.706 564.527 584.247 563.678 583.538 563.146L580.033 567.819C580.521 568.185 581.128 568.403 581.786 568.403Z" fill="black" fill-opacity="0.08"/>
<path d="M863.331 452.215C869.847 452.215 875.957 456.679 878.4 462.767L912.204 551.644C913.019 553.673 913.426 555.296 913.426 557.325V590.114C904.81 580.24 892.134 574 878 574C856.584 574 838.515 588.324 832.848 607.913C826.863 588.838 809.049 575 788 575C767.868 575 750.695 587.658 744 605.449V549.614C744 531.758 758.255 517.147 776.582 517.147H783.099V468.448C783.099 459.52 790.022 452.215 799.389 452.215H863.331ZM808.509 466.171C806.3 466.171 804.509 467.962 804.509 470.171V507.156C804.509 508.217 804.931 509.235 805.682 509.985L847.556 551.836C848.306 552.586 849.323 553.006 850.384 553.006H884.941C887.708 553.006 889.639 550.265 888.708 547.66L860.536 468.825C859.967 467.234 858.46 466.171 856.77 466.171H808.509Z" fill="#28A656"/>
<rect x="921.631" y="635.189" width="220.19" height="18.6182" rx="8" transform="rotate(-90 921.631 635.189)" fill="#D6D6D6"/>
<path d="M935.352 570.063C939.77 570.064 943.352 573.645 943.352 578.063V627H1032.53C1034.74 627 1036.53 628.791 1036.53 631C1036.53 633.209 1034.74 635 1032.53 635H937.083C936.525 635.123 935.946 635.189 935.352 635.189H926.527C925.933 635.189 925.354 635.123 924.796 635H922.527C920.318 635 918.527 633.209 918.527 631C918.527 630.443 918.641 629.912 918.847 629.43C918.64 628.719 918.527 627.967 918.527 627.189V578.063C918.527 573.645 922.109 570.063 926.527 570.063H935.352Z" fill="#858585"/>
<g clip-path="url(#clip1_813_5875)">
<rect x="842" y="586" width="72" height="72" rx="36" fill="#858585"/>
<circle cx="878" cy="622" r="18" fill="#39C76D"/>
<g style="mix-blend-mode:overlay">
<path d="M914 658V586L842 658H914Z" fill="url(#paint0_linear_813_5875)"/>
<path d="M914 658V586L842 658H914Z" fill="#676767"/>
</g>
</g>
<g clip-path="url(#clip2_813_5875)">
<rect x="752" y="586" width="72" height="72" rx="36" fill="#858585"/>
<circle cx="788" cy="622" r="18" fill="#39C76D"/>
<g style="mix-blend-mode:overlay">
<path d="M824 658V586L752 658H824Z" fill="url(#paint1_linear_813_5875)"/>
<path d="M824 658V586L752 658H824Z" fill="#676767"/>
</g>
</g>
<path d="M863.331 452.215C869.847 452.215 875.957 456.679 878.4 462.767L912.204 551.644C913.019 553.673 913.426 555.296 913.426 557.325V569.288H839.418L783.099 517.147V468.448C783.099 459.52 790.022 452.215 799.39 452.215H863.331ZM808.509 466.171C806.3 466.171 804.509 467.962 804.509 470.171V507.156C804.509 508.217 804.931 509.235 805.682 509.985L847.556 551.836C848.306 552.586 849.323 553.006 850.384 553.006H884.941C887.708 553.006 889.639 550.265 888.708 547.66L860.536 468.825C859.967 467.234 858.46 466.171 856.77 466.171H808.509Z" fill="#186635"/>
<rect x="951" y="515" width="104" height="104" fill="#F1D33D"/>
<rect x="991" y="515" width="24" height="29.3333" fill="#C8A802"/>
<g style="mix-blend-mode:overlay">
<rect x="1005" y="515" width="50" height="104" fill="url(#paint2_linear_813_5875)"/>
<rect x="1005" y="515" width="50" height="104" fill="#676767"/>
</g>
<path d="M1154.2 474.2C1160.15 474.2 1165.4 479.45 1165.4 485.4V530.2H1344.6V485.4C1344.6 479.45 1349.5 474.2 1355.8 474.2C1361.75 474.2 1367 479.45 1367 485.4V541.4V631V642.2C1367 648.5 1361.75 653.4 1355.8 653.4C1349.5 653.4 1344.6 648.5 1344.6 642.2H1165.4C1165.4 648.5 1160.15 653.4 1154.2 653.4C1147.9 653.4 1143 648.5 1143 642.2V631V541.4V485.4C1143 479.45 1147.9 474.2 1154.2 474.2ZM1165.4 619.8H1344.6V552.6H1165.4V619.8Z" fill="#186635"/>
<rect x="1220.5" y="571" width="49" height="49" fill="#F1D33D"/>
<rect x="1239.35" y="571" width="11.3077" height="13.8205" fill="#C8A802"/>
<rect x="1245.94" y="571" width="23.5577" height="49" fill="black" fill-opacity="0.08"/>
<rect x="1163" y="571" width="49" height="49" fill="#F1D33D"/>
<rect x="1181.85" y="571" width="11.3077" height="13.8205" fill="#C8A802"/>
<rect x="1188.44" y="571" width="23.5577" height="49" fill="black" fill-opacity="0.08"/>
<rect x="1258" y="481" width="49" height="49" fill="#F1D33D"/>
<rect x="1276.85" y="481" width="11.3077" height="13.8205" fill="#C8A802"/>
<rect x="1283.44" y="481" width="23.5577" height="49" fill="black" fill-opacity="0.08"/>
<rect opacity="0.8" x="19" y="658" width="1646" height="275" fill="#28A656"/>
<g style="mix-blend-mode:color-burn">
<rect x="19" y="661" width="1645" height="274" fill="url(#paint3_linear_813_5875)" fill-opacity="0.2"/>
</g>
<g style="mix-blend-mode:color-burn">
<rect x="20" y="743" width="1645" height="274" fill="url(#paint4_linear_813_5875)" fill-opacity="0.5"/>
</g>
<g style="mix-blend-mode:color-burn">
<rect x="20" y="838" width="1645" height="274" fill="url(#paint5_linear_813_5875)" fill-opacity="0.5"/>
</g>
</g>
</g>
<defs>
<filter id="filter0_d_813_5875" x="0.333432" y="0.753282" width="1673.44" height="973.44" filterUnits="userSpaceOnUse" color-interpolation-filters="sRGB">
<feFlood flood-opacity="0" result="BackgroundImageFix"/>
<feColorMatrix in="SourceAlpha" type="matrix" values="0 0 0 0 0 0 0 0 0 0 0 0 0 0 0 0 0 0 127 0" result="hardAlpha"/>
<feOffset dx="-4.94657" dy="2.47328"/>
<feGaussianBlur stdDeviation="18.36"/>
<feComposite in2="hardAlpha" operator="out"/>
<feColorMatrix type="matrix" values="0 0 0 0 0 0 0 0 0 0 0 0 0 0 0 0 0 0 0.1 0"/>
<feBlend mode="normal" in2="BackgroundImageFix" result="effect1_dropShadow_813_5875"/>
<feBlend mode="normal" in="SourceGraphic" in2="effect1_dropShadow_813_5875" result="shape"/>
</filter>
<linearGradient id="paint0_linear_813_5875" x1="882.313" y1="569.747" x2="882.313" y2="680.554" gradientUnits="userSpaceOnUse">
<stop stop-color="#D9D9D9"/>
<stop offset="1" stop-color="#737373"/>
</linearGradient>
<linearGradient id="paint1_linear_813_5875" x1="792.313" y1="569.747" x2="792.313" y2="680.554" gradientUnits="userSpaceOnUse">
<stop stop-color="#D9D9D9"/>
<stop offset="1" stop-color="#737373"/>
</linearGradient>
<linearGradient id="paint2_linear_813_5875" x1="1032.99" y1="491.523" x2="1032.99" y2="651.578" gradientUnits="userSpaceOnUse">
<stop stop-color="#D9D9D9"/>
<stop offset="1" stop-color="#737373"/>
</linearGradient>
<linearGradient id="paint3_linear_813_5875" x1="973.688" y1="694.381" x2="973.688" y2="922.83" gradientUnits="userSpaceOnUse">
<stop stop-color="#D9D9D9"/>
<stop offset="1" stop-color="#737373"/>
</linearGradient>
<linearGradient id="paint4_linear_813_5875" x1="974.688" y1="776.381" x2="974.688" y2="1004.83" gradientUnits="userSpaceOnUse">
<stop stop-color="#D9D9D9"/>
<stop offset="1" stop-color="#737373"/>
</linearGradient>
<linearGradient id="paint5_linear_813_5875" x1="974.688" y1="871.381" x2="974.688" y2="1099.83" gradientUnits="userSpaceOnUse">
<stop stop-color="#D9D9D9"/>
<stop offset="1" stop-color="#737373"/>
</linearGradient>
<clipPath id="clip0_813_5875">
<rect x="42" y="35" width="1600" height="900" rx="32" fill="white"/>
</clipPath>
<clipPath id="clip1_813_5875">
<rect x="842" y="586" width="72" height="72" rx="36" fill="white"/>
</clipPath>
<clipPath id="clip2_813_5875">
<rect x="752" y="586" width="72" height="72" rx="36" fill="white"/>
</clipPath>
</defs>
</svg>
