<svg xmlns="http://www.w3.org/2000/svg" width="1674" height="975" fill="none"><g filter="url(#a)"><g clip-path="url(#b)"><rect width="1600" height="900" x="42" y="35" fill="#16B2D4" rx="32"/><path fill="#fff" fill-opacity=".8" d="M1000 249.821c0-25.049 16.19-46.866 38.85-54.542v-3.636c0-35.554 28.73-64.643 64.75-64.643 23.88 0 44.92 13.333 55.85 32.725 6.07-4.444 13.76-6.868 21.85-6.868 21.45 0 38.85 17.373 38.85 38.786 0 5.252-1.21 9.696-2.83 14.14 23.87 4.849 41.68 25.858 41.68 50.503 0 28.685-23.47 51.714-51.8 51.714h-148.92c-32.38 0-58.28-25.857-58.28-58.179M507 335.786c0-24.634-15.875-46.09-38.1-53.639v-3.576c0-34.964-28.178-63.571-63.5-63.571-23.416 0-44.053 13.112-54.769 32.183-5.953-4.371-13.494-6.754-21.431-6.754-21.034 0-38.1 17.084-38.1 38.142 0 5.166 1.191 9.536 2.778 13.907C270.462 297.246 253 317.906 253 342.143c0 28.21 23.019 50.857 50.8 50.857h146.05c31.75 0 57.15-25.429 57.15-57.214"/><path fill="#fff" fill-opacity=".8" d="M1155 343.5c0-21.312 13.69-39.875 32.85-46.406V294c0-30.25 24.3-55 54.75-55 20.19 0 37.98 11.344 47.22 27.844 5.13-3.782 11.64-5.844 18.48-5.844 18.14 0 32.85 14.781 32.85 33 0 4.469-1.03 8.25-2.4 12.031 20.19 4.125 35.25 22 35.25 42.969 0 24.406-19.85 44-43.8 44h-125.92c-27.38 0-49.28-22-49.28-49.5"/><rect width="218.156" height="244.727" x="530.922" y="187.711" fill="#858585" rx="25"/><path fill="#000" fill-opacity=".08" d="M749.078 407.438V212.711c0-13.807-11.193-25-25-25h-67.996v244.727h67.996c13.807 0 25-11.193 25-25"/><path fill="#EBEBEB" d="M553.297 211.484h173.406v198.578H553.297z"/><path fill="#000" fill-opacity=".08" d="M649.789 211.484h76.914v198.578h-76.914z"/><path fill="#D6D6D6" d="M639.301 141.562c19.556 0 36.132 11.733 41.885 27.969h7.931c13.807 0 25 11.193 25 25v27.93c0 5.523-4.477 10-10 10H575.883c-5.523 0-10-4.477-10-10v-27.93c0-13.807 11.193-25 25-25h6.533c5.752-16.236 22.329-27.969 41.885-27.969m.699 32.165c-7.723 0-13.984 6.261-13.984 13.984s6.261 13.984 13.984 13.984 13.984-6.261 13.984-13.984-6.261-13.984-13.984-13.984"/><path fill="#ADADAD" d="M714.117 218.477v-13.985H565.883v13.985c0 7.723 6.261 13.984 13.984 13.984h120.266c7.723 0 13.984-6.261 13.984-13.984"/><path fill="#858585" d="M714.117 218.477v-13.985H565.883v13.985z"/><path fill="#000" fill-opacity=".08" d="M714.117 204.492c0-18.62-14.557-33.84-32.911-34.901-2.992-8.491-8.943-15.754-16.733-20.758v83.628h35.66c7.723 0 13.984-6.261 13.984-13.985z"/><path fill="#000" d="M565.883 240.852h18.18v9.789h-18.18zM628.812 240.852h41.953v9.789h-41.953zM596.648 240.852h23.773v9.789h-23.773zM565.883 259.031h18.18v9.789h-18.18zM596.648 259.031h74.117v9.789h-74.117zM565.883 277.211h18.18V287h-18.18zM596.648 277.211h37.758V287h-37.758zM642.797 277.211h27.969V287h-27.969zM565.883 295.391h18.18v9.789h-18.18zM596.648 295.391h13.984v9.789h-13.984zM624.617 295.391h46.148v9.789h-46.148zM565.883 313.57h18.18v9.789h-18.18zM596.648 313.57h27.969v9.789h-27.969zM634.406 313.57h27.969v9.789h-27.969z"/><path fill="#28A656" d="M223 633.669V413.932c0-16.58 9.562-31.885 25.5-38.262l170.85-68.235c4.462-1.913 10.2-1.913 14.662 0l170.85 68.235C620.8 382.047 631 397.352 631 413.932v219.737c0 8.928-7.013-2.916-15.3-2.916h-30.6c-8.925 0-15.3 11.844-15.3 2.916V447.093c0-10.841-9.563-20.407-20.4-20.407H304.6c-11.475 0-20.4 9.566-20.4 20.407v186.576c0 8.928-7.013-2.916-15.3-2.916h-30.6c-8.925 0-15.3 11.844-15.3 2.916"/><path fill="#000" fill-opacity=".08" d="M631 414.061c0-16.571-10.169-31.867-26.059-38.241L483 327v99.808h66.645c10.805 0 20.339 9.56 20.339 20.394v186.469c0 8.922 6.356-2.914 15.254-2.914h30.508c8.263 0 15.254 11.836 15.254 2.914z"/><rect width="437" height="37" x="209" y="621" fill="#228C49" rx="10"/><path stroke="#228C49" stroke-linecap="round" stroke-width="10" d="m219 398 208.455-87L635 398"/><path fill="#76E49E" d="M272 399h308v40H272z"/><path fill="#39C76D" d="M272 410h308v18H272z"/><path fill="#F1D33D" d="M330.685 550.286h71.076v71.076h-71.076z"/><path fill="#C8A802" d="M358.022 550.286h16.402v20.047h-16.402z"/><path fill="#000" fill-opacity=".08" d="M370.779 550.286h30.982v71.076h-30.982z"/><path fill="#F1D33D" d="M330.685 479.21h71.076v71.076h-71.076z"/><path fill="#C8A802" d="M358.022 479.21h16.402v20.047h-16.402z"/><path fill="#000" fill-opacity=".08" d="M370.779 479.21h30.982v71.076h-30.982z"/><path fill="#F1D33D" d="M461.902 550.286h71.076v71.076h-71.076z"/><path fill="#C8A802" d="M489.239 550.286h16.402v20.047h-16.402z"/><path fill="#000" fill-opacity=".08" d="M501.996 550.286h30.982v71.076h-30.982z"/><path fill="#F1D33D" d="M461.902 479.21h71.076v71.076h-71.076z"/><path fill="#C8A802" d="M489.239 479.21h16.402v20.047h-16.402z"/><path fill="#000" fill-opacity=".08" d="M501.996 479.21h30.982v71.076h-30.982z"/><path fill="#F1D33D" d="M259.609 550.286h71.076v71.076h-71.076z"/><path fill="#C8A802" d="M286.946 550.286h16.402v20.047h-16.402z"/><path fill="#000" fill-opacity=".08" d="M299.703 550.286h30.982v71.076h-30.982z"/><path fill="#76E49E" d="M592.107 616.021a5.34 5.34 0 0 1-5.342 5.341h-70.316a5.34 5.34 0 0 1-5.341-5.341v-14.518h80.999zm-5.342-40.22a5.34 5.34 0 0 1 5.342 5.342v14.908h-80.999v-14.908a5.34 5.34 0 0 1 5.341-5.342z"/><path fill="#000" fill-opacity=".08" d="M592.106 616.021v-34.878a5.34 5.34 0 0 0-5.342-5.342h-25.812v45.561h25.812a5.34 5.34 0 0 0 5.342-5.341"/><path fill="#28A656" d="M584.708 596.051h7.399v5.452h-7.399z"/><path fill="#228C49" d="M518.509 596.051h66.201v5.452h-66.201z"/><path fill="#28A656" d="M511.109 596.051h7.399v5.452h-7.399z"/><path fill="#39C76D" d="M520.942 621.362h61.528c2.416 0 4.626-.88 6.327-2.337h-74.182a9.7 9.7 0 0 0 6.327 2.337M511.109 593.714h80.998v2.336h-80.998z"/><circle cx="521.426" cy="586.121" r="2.921" fill="#39C76D"/><path fill="#000" fill-opacity=".08" d="M521.426 589.041a2.92 2.92 0 0 0 1.753-5.257l-3.505 4.673a2.9 2.9 0 0 0 1.752.584"/><circle cx="581.786" cy="586.121" r="2.921" fill="#39C76D"/><path fill="#000" fill-opacity=".08" d="M581.786 589.041a2.92 2.92 0 0 0 1.752-5.257l-3.505 4.673a2.9 2.9 0 0 0 1.753.584"/><circle cx="521.426" cy="611.044" r="2.921" fill="#39C76D"/><path fill="#000" fill-opacity=".08" d="M521.426 613.964a2.92 2.92 0 0 0 1.753-5.257l-3.505 4.673a2.9 2.9 0 0 0 1.752.584"/><circle cx="581.786" cy="611.044" r="2.921" fill="#39C76D"/><path fill="#000" fill-opacity=".08" d="M581.786 613.964a2.92 2.92 0 0 0 1.752-5.257l-3.505 4.673a2.9 2.9 0 0 0 1.753.584"/><path fill="#76E49E" d="M592.107 570.459a5.34 5.34 0 0 1-5.342 5.342h-70.316a5.34 5.34 0 0 1-5.341-5.342v-14.518h80.999zm-5.342-40.22a5.34 5.34 0 0 1 5.342 5.342v14.908h-80.999v-14.908a5.34 5.34 0 0 1 5.341-5.342z"/><path fill="#000" fill-opacity=".08" d="M592.106 570.459v-34.878a5.34 5.34 0 0 0-5.342-5.342h-25.812v45.562h25.812a5.34 5.34 0 0 0 5.342-5.342"/><path fill="#28A656" d="M584.708 550.489h7.399v5.452h-7.399z"/><path fill="#228C49" d="M518.509 550.489h66.201v5.452h-66.201z"/><path fill="#28A656" d="M511.109 550.489h7.399v5.452h-7.399z"/><path fill="#39C76D" d="M520.942 575.8h61.528a9.7 9.7 0 0 0 6.327-2.336h-74.182a9.7 9.7 0 0 0 6.327 2.336M511.109 548.152h80.998v2.336h-80.998z"/><circle cx="521.426" cy="540.558" r="2.921" fill="#39C76D"/><path fill="#000" fill-opacity=".08" d="M521.426 543.479a2.921 2.921 0 0 0 1.753-5.257l-3.505 4.673a2.9 2.9 0 0 0 1.752.584"/><circle cx="581.786" cy="540.558" r="2.921" fill="#39C76D"/><path fill="#000" fill-opacity=".08" d="M581.786 543.479a2.92 2.92 0 0 0 1.752-5.257l-3.505 4.673a2.9 2.9 0 0 0 1.753.584"/><circle cx="521.426" cy="565.482" r="2.921" fill="#39C76D"/><path fill="#000" fill-opacity=".08" d="M521.426 568.403a2.921 2.921 0 0 0 1.753-5.257l-3.505 4.673a2.9 2.9 0 0 0 1.752.584"/><circle cx="581.786" cy="565.482" r="2.921" fill="#39C76D"/><path fill="#000" fill-opacity=".08" d="M581.786 568.403a2.92 2.92 0 0 0 1.752-5.257l-3.505 4.673a2.9 2.9 0 0 0 1.753.584"/><path fill="#28A656" d="M863.331 452.215c6.516 0 12.626 4.464 15.069 10.552l33.804 88.877c.815 2.029 1.222 3.652 1.222 5.681v32.789C904.81 580.24 892.134 574 878 574c-21.416 0-39.485 14.324-45.152 33.913C826.863 588.838 809.049 575 788 575c-20.132 0-37.305 12.658-44 30.449v-55.835c0-17.856 14.255-32.467 32.582-32.467h6.517v-48.699c0-8.928 6.923-16.233 16.29-16.233zm-54.822 13.956a4 4 0 0 0-4 4v36.985c0 1.061.422 2.079 1.173 2.829l41.874 41.851c.75.75 1.767 1.17 2.828 1.17h34.557c2.767 0 4.698-2.741 3.767-5.346l-28.172-78.835a4 4 0 0 0-3.766-2.654z"/><rect width="220.19" height="18.618" x="921.631" y="635.189" fill="#D6D6D6" rx="8" transform="rotate(-90 921.631 635.189)"/><path fill="#858585" d="M935.352 570.063c4.418.001 8 3.582 8 8V627h89.178a4 4 0 1 1 0 8h-95.447a8 8 0 0 1-1.731.189h-8.825a8 8 0 0 1-1.731-.189h-2.269a4 4 0 0 1-3.68-5.57 8 8 0 0 1-.32-2.241v-49.126a8 8 0 0 1 8-8z"/><g clip-path="url(#c)"><rect width="72" height="72" x="842" y="586" fill="#858585" rx="36"/><circle cx="878" cy="622" r="18" fill="#39C76D"/><g style="mix-blend-mode:overlay"><path fill="url(#d)" d="M914 658v-72l-72 72z"/><path fill="#676767" d="M914 658v-72l-72 72z"/></g></g><g clip-path="url(#e)"><rect width="72" height="72" x="752" y="586" fill="#858585" rx="36"/><circle cx="788" cy="622" r="18" fill="#39C76D"/><g style="mix-blend-mode:overlay"><path fill="url(#f)" d="M824 658v-72l-72 72z"/><path fill="#676767" d="M824 658v-72l-72 72z"/></g></g><path fill="#186635" d="M863.331 452.215c6.516 0 12.626 4.464 15.069 10.552l33.804 88.877c.815 2.029 1.222 3.652 1.222 5.681v11.963h-74.008l-56.319-52.141v-48.699c0-8.928 6.923-16.233 16.291-16.233zm-54.822 13.956a4 4 0 0 0-4 4v36.985c0 1.061.422 2.079 1.173 2.829l41.874 41.851c.75.75 1.767 1.17 2.828 1.17h34.557c2.767 0 4.698-2.741 3.767-5.346l-28.172-78.835a4 4 0 0 0-3.766-2.654z"/><path fill="#F1D33D" d="M951 515h104v104H951z"/><path fill="#C8A802" d="M991 515h24v29.333h-24z"/><g style="mix-blend-mode:overlay"><path fill="url(#g)" d="M1005 515h50v104h-50z"/><path fill="#676767" d="M1005 515h50v104h-50z"/></g><path fill="#186635" d="M1154.2 474.2c5.95 0 11.2 5.25 11.2 11.2v44.8h179.2v-44.8c0-5.95 4.9-11.2 11.2-11.2 5.95 0 11.2 5.25 11.2 11.2v156.8c0 6.3-5.25 11.2-11.2 11.2-6.3 0-11.2-4.9-11.2-11.2h-179.2c0 6.3-5.25 11.2-11.2 11.2-6.3 0-11.2-4.9-11.2-11.2V485.4c0-5.95 4.9-11.2 11.2-11.2m11.2 145.6h179.2v-67.2h-179.2z"/><path fill="#F1D33D" d="M1220.5 571h49v49h-49z"/><path fill="#C8A802" d="M1239.35 571h11.308v13.82h-11.308z"/><path fill="#000" fill-opacity=".08" d="M1245.94 571h23.558v49h-23.558z"/><path fill="#F1D33D" d="M1163 571h49v49h-49z"/><path fill="#C8A802" d="M1181.85 571h11.308v13.82h-11.308z"/><path fill="#000" fill-opacity=".08" d="M1188.44 571h23.558v49h-23.558z"/><path fill="#F1D33D" d="M1258 481h49v49h-49z"/><path fill="#C8A802" d="M1276.85 481h11.308v13.82h-11.308z"/><path fill="#000" fill-opacity=".08" d="M1283.44 481h23.558v49h-23.558z"/><path fill="#28A656" d="M19 658h1646v275H19z" opacity=".8"/><path fill="url(#h)" fill-opacity=".2" d="M19 661h1645v274H19z" style="mix-blend-mode:color-burn"/><path fill="url(#i)" fill-opacity=".5" d="M20 743h1645v274H20z" style="mix-blend-mode:color-burn"/><path fill="url(#j)" fill-opacity=".5" d="M20 838h1645v274H20z" style="mix-blend-mode:color-burn"/></g></g><defs><linearGradient id="d" x1="882.313" x2="882.313" y1="569.747" y2="680.554" gradientUnits="userSpaceOnUse"><stop stop-color="#D9D9D9"/><stop offset="1" stop-color="#737373"/></linearGradient><linearGradient id="f" x1="792.313" x2="792.313" y1="569.747" y2="680.554" gradientUnits="userSpaceOnUse"><stop stop-color="#D9D9D9"/><stop offset="1" stop-color="#737373"/></linearGradient><linearGradient id="g" x1="1032.99" x2="1032.99" y1="491.523" y2="651.578" gradientUnits="userSpaceOnUse"><stop stop-color="#D9D9D9"/><stop offset="1" stop-color="#737373"/></linearGradient><linearGradient id="h" x1="973.688" x2="973.688" y1="694.381" y2="922.83" gradientUnits="userSpaceOnUse"><stop stop-color="#D9D9D9"/><stop offset="1" stop-color="#737373"/></linearGradient><linearGradient id="i" x1="974.688" x2="974.688" y1="776.381" y2="1004.83" gradientUnits="userSpaceOnUse"><stop stop-color="#D9D9D9"/><stop offset="1" stop-color="#737373"/></linearGradient><linearGradient id="j" x1="974.688" x2="974.688" y1="871.381" y2="1099.83" gradientUnits="userSpaceOnUse"><stop stop-color="#D9D9D9"/><stop offset="1" stop-color="#737373"/></linearGradient><clipPath id="b"><rect width="1600" height="900" x="42" y="35" fill="#fff" rx="32"/></clipPath><clipPath id="c"><rect width="72" height="72" x="842" y="586" fill="#fff" rx="36"/></clipPath><clipPath id="e"><rect width="72" height="72" x="752" y="586" fill="#fff" rx="36"/></clipPath><filter id="a" width="1673.44" height="973.44" x=".333" y=".753" color-interpolation-filters="sRGB" filterUnits="userSpaceOnUse"><feFlood flood-opacity="0" result="BackgroundImageFix"/><feColorMatrix in="SourceAlpha" result="hardAlpha" values="0 0 0 0 0 0 0 0 0 0 0 0 0 0 0 0 0 0 127 0"/><feOffset dx="-4.947" dy="2.473"/><feGaussianBlur stdDeviation="18.36"/><feComposite in2="hardAlpha" operator="out"/><feColorMatrix values="0 0 0 0 0 0 0 0 0 0 0 0 0 0 0 0 0 0 0.1 0"/><feBlend in2="BackgroundImageFix" result="effect1_dropShadow_813_5875"/><feBlend in="SourceGraphic" in2="effect1_dropShadow_813_5875" result="shape"/></filter></defs></svg>