<svg xmlns="http://www.w3.org/2000/svg" width="1674" height="975" fill="none"><g filter="url(#a)"><g clip-path="url(#b)"><rect width="1600" height="900" x="42" y="35" fill="#16B2D4" rx="32"/><path fill="#fff" d="M443 311.75c0-35.844 23.125-67.062 55.5-78.047V228.5c0-50.875 41.047-92.5 92.5-92.5 34.109 0 64.172 19.078 79.781 46.828C679.453 176.469 690.438 173 702 173c30.641 0 55.5 24.859 55.5 55.5 0 7.516-1.734 13.875-4.047 20.234C787.562 255.672 813 285.734 813 321c0 41.047-33.531 74-74 74H526.25C480 395 443 358 443 311.75M885 333.929c0-26.295 17-49.197 40.8-57.255v-3.817c0-37.321 30.175-67.857 68-67.857 25.08 0 47.18 13.996 58.65 34.353 6.38-4.665 14.45-7.21 22.95-7.21 22.53 0 40.8 18.236 40.8 40.714 0 5.514-1.27 10.179-2.97 14.844 25.07 5.089 43.77 27.143 43.77 53.013 0 30.112-24.65 54.286-54.4 54.286H946.2c-34 0-61.2-27.143-61.2-61.071" opacity=".84"/><path fill="#28A656" d="M906.331 454.215c6.516 0 12.626 4.464 15.069 10.552l33.804 88.877c.815 2.029 1.222 3.652 1.222 5.681v32.789C947.81 582.24 935.134 576 921 576c-21.416 0-39.485 14.324-45.152 33.913C869.863 590.838 852.049 577 831 577c-20.132 0-37.305 12.658-44 30.449v-55.835c0-17.856 14.255-32.467 32.582-32.467h6.517v-48.699c0-8.928 6.923-16.233 16.29-16.233zm-54.822 13.956a4 4 0 0 0-4 4v36.985c0 1.061.422 2.079 1.173 2.829l41.874 41.851c.75.75 1.767 1.17 2.828 1.17h34.557c2.767 0 4.698-2.741 3.767-5.346l-28.172-78.835a4 4 0 0 0-3.766-2.654z"/><rect width="220.19" height="18.618" x="964.631" y="637.19" fill="#D6D6D6" rx="8" transform="rotate(-90 964.631 637.19)"/><path fill="#858585" d="M978.352 572.063c4.418.001 8 3.582 8 8V629h89.178a4 4 0 1 1 0 8h-95.447a8 8 0 0 1-1.731.189h-8.825a8 8 0 0 1-1.731-.189h-2.269a4 4 0 0 1-3.68-5.57 8 8 0 0 1-.32-2.241v-49.126a8 8 0 0 1 8-8z"/><g clip-path="url(#c)"><rect width="72" height="72" x="885" y="588" fill="#858585" rx="36"/><circle cx="921" cy="624" r="18" fill="#39C76D"/><g style="mix-blend-mode:overlay"><path fill="url(#d)" d="M957 660v-72l-72 72z"/><path fill="#676767" d="M957 660v-72l-72 72z"/></g></g><g clip-path="url(#e)"><rect width="72" height="72" x="795" y="588" fill="#858585" rx="36"/><circle cx="831" cy="624" r="18" fill="#39C76D"/><g style="mix-blend-mode:overlay"><path fill="url(#f)" d="M867 660v-72l-72 72z"/><path fill="#676767" d="M867 660v-72l-72 72z"/></g></g><path fill="#186635" d="M906.331 454.215c6.516 0 12.626 4.464 15.069 10.552l33.804 88.877c.815 2.029 1.222 3.652 1.222 5.681v11.963h-74.008l-56.319-52.141v-48.699c0-8.928 6.923-16.233 16.291-16.233zm-54.822 13.956a4 4 0 0 0-4 4v36.985c0 1.061.422 2.079 1.173 2.829l41.874 41.851c.75.75 1.767 1.17 2.828 1.17h34.557c2.767 0 4.698-2.741 3.767-5.346l-28.172-78.835a4 4 0 0 0-3.766-2.654z"/><path fill="#F1D33D" d="M994 517h104v104H994z"/><path fill="#C8A802" d="M1034 517h24v29.333h-24z"/><g style="mix-blend-mode:overlay"><path fill="url(#g)" d="M1048 517h50v104h-50z"/><path fill="#676767" d="M1048 517h50v104h-50z"/></g><path fill="#ADADAD" d="M348 380c0-13.807 11.193-25 25-25h322c13.807 0 25 11.193 25 25v168H348z"/><path fill="#ADADAD" d="M349 561.883c10.235 6.753 18.28 16.557 22.838 28.117h84.324c8.775-22.253 30.467-38 55.838-38 24.598 0 45.739 14.802 55.001 35.984C576.263 566.802 597.402 552 622 552c25.371 0 47.063 15.747 55.838 38H720V384H349z"/><path fill="#39C76D" d="M320.268 431.249c-9.699 0-19.398 3.994-26.244 10.841l-43.928 43.934c-6.846 6.847-10.84 16.547-10.84 26.247v65.045c-9.699.001-18.256 8.559-18.256 18.258 0 10.27 8.557 18.259 18.256 18.259h16.772A62 62 0 0 1 256 612c0-33.137 26.863-60 60-60 12.102 0 23.367 3.584 32.793 9.747V431.249z"/><path fill="#89E1F5" d="M249.519 486.037a33.48 33.48 0 0 0-10.263 24.12v22.274h26.121a53.5 53.5 0 0 1 4.073-5.274c9.742-12.092 24.669-19.832 41.406-19.832h19.681v-50.21h-50.965z"/><path fill="#F4DE70" d="M251.427 557.536h-12.171v19.78h12.171z"/><g clip-path="url(#h)"><rect width="96" height="96" fill="#858585" rx="48" transform="matrix(0 1 1 0 464 564)"/><circle cx="24" cy="24" r="24" fill="#39C76D" transform="matrix(0 1 1 0 488 588)"/><g style="mix-blend-mode:overlay"><path fill="url(#i)" d="M560 660h-96l96-96z"/><path fill="#676767" d="M560 660h-96l96-96z"/></g></g><g clip-path="url(#j)"><rect width="96" height="96" fill="#858585" rx="48" transform="matrix(0 1 1 0 574 564)"/><circle cx="24" cy="24" r="24" fill="#39C76D" transform="matrix(0 1 1 0 598 588)"/><g style="mix-blend-mode:overlay"><path fill="url(#k)" d="M670 660h-96l96-96z"/><path fill="#676767" d="M670 660h-96l96-96z"/></g></g><g clip-path="url(#l)"><rect width="96" height="96" fill="#858585" rx="48" transform="matrix(0 1 1 0 272 564)"/><circle cx="24" cy="24" r="24" fill="#39C76D" transform="matrix(0 1 1 0 296 588)"/><g style="mix-blend-mode:overlay"><path fill="url(#m)" d="M368 660h-96l96-96z"/><path fill="#676767" d="M368 660h-96l96-96z"/></g></g><path fill="#D6D6D6" d="M671 413H471v64h200z"/><g style="mix-blend-mode:overlay"><path fill="url(#n)" d="M635 553.412c19.427 4.292 35.317 17.999 42.64 36.092L720 591V355h-85z"/><path fill="#676767" d="M635 553.412c19.427 4.292 35.317 17.999 42.64 36.092L720 591V355h-85z"/></g><path fill="#D6D6D6" d="M677.633 589.488a59.85 59.85 0 0 1 4.339 24.345H708c6.627 0 12-5.373 12-12v-12.345zm-306 0a59.85 59.85 0 0 1 4.339 24.345h76.056a59.847 59.847 0 0 1 4.339-24.345z"/><g style="mix-blend-mode:overlay"><path fill="url(#o)" d="M301.677 472.953C294.302 479.491 290 488.754 290 498.017v59.893c7.866-3.788 16.685-5.91 26-5.91 12.191 0 23.533 3.636 33 9.883V431z"/><path fill="#676767" d="M301.677 472.953C294.302 479.491 290 488.754 290 498.017v59.893c7.866-3.788 16.685-5.91 26-5.91 12.191 0 23.533 3.636 33 9.883V431z"/></g><path fill="#39C76D" d="M1433.4 448.465c9.04 0 18.09 3.73 24.48 10.123l40.98 41.024c6.38 6.394 10.11 15.451 10.11 24.508v60.738c9.05.001 17.03 7.992 17.03 17.049 0 9.59-7.98 17.05-17.03 17.05h-22.05c.05-.979.08-1.965.08-2.957 0-30.928-25.07-56-56-56-8.67 0-16.89 1.972-24.22 5.492V448.465z"/><path fill="#ADADAD" d="M1157 442c0-13.807 11.19-25 25-25h200c13.81 0 25 11.193 25 25v74h-250z"/><path fill="#89E1F5" d="M1499.4 499.625a31.3 31.3 0 0 1 9.57 22.522v20.799h-24.37a49 49 0 0 0-3.8-4.925c-9.09-11.291-23.01-18.518-38.62-18.518h-18.36v-46.885h47.54z"/><path fill="#F4DE70" d="M1497.62 566.388h11.354v18.47h-11.354z"/><path fill="#D6D6D6" d="M1382 447h-134v61h134z"/><g clip-path="url(#p)"><rect width="88" height="88" x="1204" y="572" fill="#858585" rx="44"/><circle cx="1248" cy="616" r="22" fill="#39C76D"/><g style="mix-blend-mode:overlay"><path fill="url(#q)" d="M1292 660v-88l-88 88z"/><path fill="#676767" d="M1292 660v-88l-88 88z"/></g></g><g clip-path="url(#r)"><rect width="88" height="88" x="1387" y="572" fill="#858585" rx="44"/><circle cx="1431" cy="616" r="22" fill="#39C76D"/><g style="mix-blend-mode:overlay"><path fill="url(#s)" d="M1475 660v-88l-88 88z"/><path fill="#676767" d="M1475 660v-88l-88 88z"/></g></g><path fill="#ADADAD" d="M1407 565.39c-17.5 8.311-30 25.427-31.78 45.622-7.15-8.528-19.82-14.196-34.26-14.196-16.5 0-30.69 7.406-36.97 18.022-.62-30.392-25.45-54.838-55.99-54.838-30.93 0-56 25.072-56 56h-23.26c-2.58-4.423-6.65-8.247-11.74-11.11V512h250z"/><path fill="#D6D6D6" d="M1195.59 596.224a55.9 55.9 0 0 0-3.51 22.732H1169c-6.63 0-12-5.373-12-12v-10.732zm183 0a55.9 55.9 0 0 0-3.51 22.732h-71.16a55.907 55.907 0 0 0-3.51-22.732z"/><g style="mix-blend-mode:overlay"><path fill="url(#t)" d="M1447.76 489.489c6.39 6.394 10.12 15.452 10.12 24.509v52.861c-7.98-4.372-17.14-6.859-26.88-6.859-8.67 0-16.89 1.972-24.22 5.492V448.465z"/><path fill="#676767" d="M1447.76 489.489c6.39 6.394 10.12 15.452 10.12 24.509v52.861c-7.98-4.372-17.14-6.859-26.88-6.859-8.67 0-16.89 1.972-24.22 5.492V448.465z"/></g><g style="mix-blend-mode:overlay"><path fill="url(#u)" d="M1387.03 417a27.5 27.5 0 0 1 7.82 4.414c5.81 3.761 10.17 9.359 12.15 15.902v128.496c-9.07 2.504-16.85 9.28-21.93 18.556a42.5 42.5 0 0 0-5.52 11.632H1341V417z"/><path fill="#676767" d="M1387.03 417a27.5 27.5 0 0 1 7.82 4.414c5.81 3.761 10.17 9.359 12.15 15.902v128.496c-9.07 2.504-16.85 9.28-21.93 18.556a42.5 42.5 0 0 0-5.52 11.632H1341V417z"/></g><path fill="#28A656" d="M8 661h1646v275H8z" opacity=".8"/><path fill="url(#v)" fill-opacity=".2" d="M8 664h1645v274H8z" style="mix-blend-mode:color-burn"/><path fill="url(#w)" fill-opacity=".5" d="M9 746h1645v274H9z" style="mix-blend-mode:color-burn"/><path fill="url(#x)" fill-opacity=".5" d="M9 841h1645v274H9z" style="mix-blend-mode:color-burn"/></g></g><defs><linearGradient id="d" x1="925.313" x2="925.313" y1="571.747" y2="682.554" gradientUnits="userSpaceOnUse"><stop stop-color="#D9D9D9"/><stop offset="1" stop-color="#737373"/></linearGradient><linearGradient id="f" x1="835.313" x2="835.313" y1="571.747" y2="682.554" gradientUnits="userSpaceOnUse"><stop stop-color="#D9D9D9"/><stop offset="1" stop-color="#737373"/></linearGradient><linearGradient id="g" x1="1075.99" x2="1075.99" y1="493.523" y2="653.578" gradientUnits="userSpaceOnUse"><stop stop-color="#D9D9D9"/><stop offset="1" stop-color="#737373"/></linearGradient><linearGradient id="i" x1="442.329" x2="590.072" y1="617.75" y2="617.75" gradientUnits="userSpaceOnUse"><stop stop-color="#D9D9D9"/><stop offset="1" stop-color="#737373"/></linearGradient><linearGradient id="k" x1="552.329" x2="700.072" y1="617.75" y2="617.75" gradientUnits="userSpaceOnUse"><stop stop-color="#D9D9D9"/><stop offset="1" stop-color="#737373"/></linearGradient><linearGradient id="m" x1="250.329" x2="398.072" y1="617.75" y2="617.75" gradientUnits="userSpaceOnUse"><stop stop-color="#D9D9D9"/><stop offset="1" stop-color="#737373"/></linearGradient><linearGradient id="n" x1="682.591" x2="682.591" y1="301.726" y2="664.927" gradientUnits="userSpaceOnUse"><stop stop-color="#D9D9D9"/><stop offset="1" stop-color="#737373"/></linearGradient><linearGradient id="o" x1="315.966" x2="315.966" y1="393.979" y2="646.373" gradientUnits="userSpaceOnUse"><stop stop-color="#D9D9D9"/><stop offset="1" stop-color="#737373"/></linearGradient><linearGradient id="q" x1="1253.27" x2="1253.27" y1="552.135" y2="687.566" gradientUnits="userSpaceOnUse"><stop stop-color="#D9D9D9"/><stop offset="1" stop-color="#737373"/></linearGradient><linearGradient id="s" x1="1436.27" x2="1436.27" y1="552.135" y2="687.566" gradientUnits="userSpaceOnUse"><stop stop-color="#D9D9D9"/><stop offset="1" stop-color="#737373"/></linearGradient><linearGradient id="t" x1="1435.39" x2="1435.39" y1="412.264" y2="659.069" gradientUnits="userSpaceOnUse"><stop stop-color="#D9D9D9"/><stop offset="1" stop-color="#737373"/></linearGradient><linearGradient id="u" x1="1378.45" x2="1378.45" y1="377.044" y2="649.445" gradientUnits="userSpaceOnUse"><stop stop-color="#D9D9D9"/><stop offset="1" stop-color="#737373"/></linearGradient><linearGradient id="v" x1="962.688" x2="962.688" y1="697.381" y2="925.83" gradientUnits="userSpaceOnUse"><stop stop-color="#D9D9D9"/><stop offset="1" stop-color="#737373"/></linearGradient><linearGradient id="w" x1="963.688" x2="963.688" y1="779.381" y2="1007.83" gradientUnits="userSpaceOnUse"><stop stop-color="#D9D9D9"/><stop offset="1" stop-color="#737373"/></linearGradient><linearGradient id="x" x1="963.688" x2="963.688" y1="874.381" y2="1102.83" gradientUnits="userSpaceOnUse"><stop stop-color="#D9D9D9"/><stop offset="1" stop-color="#737373"/></linearGradient><clipPath id="b"><rect width="1600" height="900" x="42" y="35" fill="#fff" rx="32"/></clipPath><clipPath id="c"><rect width="72" height="72" x="885" y="588" fill="#fff" rx="36"/></clipPath><clipPath id="e"><rect width="72" height="72" x="795" y="588" fill="#fff" rx="36"/></clipPath><clipPath id="h"><rect width="96" height="96" fill="#fff" rx="48" transform="matrix(0 1 1 0 464 564)"/></clipPath><clipPath id="j"><rect width="96" height="96" fill="#fff" rx="48" transform="matrix(0 1 1 0 574 564)"/></clipPath><clipPath id="l"><rect width="96" height="96" fill="#fff" rx="48" transform="matrix(0 1 1 0 272 564)"/></clipPath><clipPath id="p"><rect width="88" height="88" x="1204" y="572" fill="#fff" rx="44"/></clipPath><clipPath id="r"><rect width="88" height="88" x="1387" y="572" fill="#fff" rx="44"/></clipPath><filter id="a" width="1673.44" height="973.44" x=".333" y=".753" color-interpolation-filters="sRGB" filterUnits="userSpaceOnUse"><feFlood flood-opacity="0" result="BackgroundImageFix"/><feColorMatrix in="SourceAlpha" result="hardAlpha" values="0 0 0 0 0 0 0 0 0 0 0 0 0 0 0 0 0 0 127 0"/><feOffset dx="-4.947" dy="2.473"/><feGaussianBlur stdDeviation="18.36"/><feComposite in2="hardAlpha" operator="out"/><feColorMatrix values="0 0 0 0 0 0 0 0 0 0 0 0 0 0 0 0 0 0 0.1 0"/><feBlend in2="BackgroundImageFix" result="effect1_dropShadow_785_2319"/><feBlend in="SourceGraphic" in2="effect1_dropShadow_785_2319" result="shape"/></filter></defs></svg>