<svg xmlns="http://www.w3.org/2000/svg" width="1674" height="975" fill="none"><g filter="url(#a)"><g clip-path="url(#b)"><rect width="1600" height="900" x="42" y="35" fill="#16B2D4" rx="32"/><path fill="#fff" fill-opacity=".8" d="M235 291.75c0-35.844 23.125-67.062 55.5-78.047V208.5c0-50.875 41.047-92.5 92.5-92.5 34.109 0 64.172 19.078 79.781 46.828C471.453 156.469 482.438 153 494 153c30.641 0 55.5 24.859 55.5 55.5 0 7.516-1.734 13.875-4.047 20.234C579.562 235.672 605 265.734 605 301c0 41.047-33.531 74-74 74H318.25C272 375 235 338 235 291.75"/><path fill="#fff" fill-opacity=".8" d="M457 424.607c0-30.308 19.5-56.705 46.8-65.993v-4.4c0-43.018 34.612-78.214 78-78.214 28.762 0 54.112 16.132 67.275 39.596 7.312-5.377 16.575-8.31 26.325-8.31 25.837 0 46.8 21.02 46.8 46.928 0 6.355-1.463 11.732-3.413 17.11C747.55 377.19 769 402.609 769 432.429 769 467.136 740.725 495 706.6 495H527.2c-39 0-70.2-31.286-70.2-70.393"/><path fill="url(#c)" fill-opacity=".84" d="M44 658h1599v274H44z" style="mix-blend-mode:color-burn"/><path fill="#186635" d="M829 611.8c0-18.55 15.05-33.6 33.6-33.6h156.8c18.55 0 33.6 15.05 33.6 33.6s-15.05 33.6-33.6 33.6H862.6c-18.55 0-33.6-15.05-33.6-33.6"/><circle cx="941" cy="612" r="10" fill="#EBEBEB"/><circle cx="874" cy="612" r="10" fill="#D6D6D6"/><path stroke="#228C49" stroke-width="11" d="M862.6 583.7h156.8c15.51 0 28.1 12.587 28.1 28.1 0 15.512-12.59 28.1-28.1 28.1H862.6c-15.513 0-28.1-12.588-28.1-28.1s12.587-28.1 28.1-28.1Z"/><path fill="#333" d="M874 591c11.598 0 21 9.402 21 21s-9.402 21-21 21-21-9.402-21-21 9.402-21 21-21m0 11c-5.523 0-10 4.477-10 10s4.477 10 10 10 10-4.477 10-10-4.477-10-10-10m67-11c11.598 0 21 9.402 21 21s-9.402 21-21 21-21-9.402-21-21 9.402-21 21-21m67 0c11.6 0 21 9.402 21 21s-9.4 21-21 21c-11.598 0-21-9.402-21-21s9.402-21 21-21m0 11c-5.52 0-10 4.477-10 10s4.48 10 10 10 10-4.477 10-10-4.48-10-10-10"/><circle cx="1008" cy="612" r="10" fill="#D6D6D6"/><circle cx="941" cy="612" r="10" fill="#D6D6D6"/><path fill="#F1D33D" d="M862 495h83v83h-83z"/><path fill="#C8A802" d="M893.924 495h19.154v23.41h-19.154z"/><path fill="#000" fill-opacity=".08" d="M905.096 495H945v83h-39.904z"/><path fill="#F1D33D" d="M957 515h63v63h-63z"/><path fill="#C8A802" d="M981.23 515h14.539v17.769H981.23z"/><path fill="#000" fill-opacity=".08" d="M989.711 515h30.288v63h-30.288z"/><path fill="#39C76D" d="M350.604 451.465c-9.048 0-18.095 3.73-24.482 10.123l-40.98 41.024c-6.387 6.394-10.113 15.451-10.113 24.508v60.738c-9.047.001-17.03 7.992-17.03 17.049 0 9.59 7.983 17.05 17.03 17.05h22.047a57 57 0 0 1-.077-2.957c0-30.928 25.072-56 56-56 8.674 0 16.886 1.972 24.215 5.492V451.465z"/><path fill="#ADADAD" d="M627 445c0-13.807-11.193-25-25-25H402c-13.807 0-25 11.193-25 25v74h250z"/><path fill="#89E1F5" d="M284.606 502.624a31.28 31.28 0 0 0-9.574 22.523v20.798H299.4a50 50 0 0 1 3.799-4.924c9.088-11.291 23.013-18.518 38.627-18.518h18.36v-46.886h-47.545z"/><path fill="#F4DE70" d="M286.385 569.388h-11.354v18.47h11.354z"/><path fill="#D6D6D6" d="M402 450h134v61H402z"/><g clip-path="url(#d)"><rect width="88" height="88" fill="#858585" rx="44" transform="matrix(-1 0 0 1 580 575)"/><circle cx="22" cy="22" r="22" fill="#39C76D" transform="matrix(-1 0 0 1 558 597)"/><g style="mix-blend-mode:overlay"><path fill="url(#e)" d="M492 663v-88l88 88z"/><path fill="#676767" d="M492 663v-88l88 88z"/></g></g><g clip-path="url(#f)"><rect width="88" height="88" fill="#858585" rx="44" transform="matrix(-1 0 0 1 397 575)"/><circle cx="22" cy="22" r="22" fill="#39C76D" transform="matrix(-1 0 0 1 375 597)"/><g style="mix-blend-mode:overlay"><path fill="url(#g)" d="M309 663v-88l88 88z"/><path fill="#676767" d="M309 663v-88l88 88z"/></g></g><path fill="#ADADAD" d="M377 568.39c17.496 8.311 29.999 25.427 31.781 45.622 7.153-8.528 19.822-14.196 34.257-14.196 16.5 0 30.69 7.406 36.976 18.022C480.632 587.446 505.46 563 536 563c30.928 0 56 25.072 56 56h23.262c2.579-4.423 6.649-8.247 11.738-11.11V515H377z"/><path fill="#D6D6D6" d="M588.407 599.224A55.9 55.9 0 0 1 592 619a57 57 0 0 1-.077 2.956H615c6.627 0 12-5.373 12-12v-10.732zm-183 0A55.9 55.9 0 0 1 409 619a57 57 0 0 1-.077 2.956h71.154A57 57 0 0 1 480 619a55.9 55.9 0 0 1 3.593-19.776z"/><g style="mix-blend-mode:overlay"><path fill="url(#h)" d="M336.234 492.489c-6.386 6.394-10.112 15.452-10.112 24.509v52.861c7.978-4.372 17.137-6.859 26.877-6.859 8.674 0 16.886 1.972 24.215 5.492V451.465z"/><path fill="#676767" d="M336.234 492.489c-6.386 6.394-10.112 15.452-10.112 24.509v52.861c7.978-4.372 17.137-6.859 26.877-6.859 8.674 0 16.886 1.972 24.215 5.492V451.465z"/></g><g style="mix-blend-mode:overlay"><path fill="url(#i)" d="M396.973 420a27.4 27.4 0 0 0-7.821 4.414c-5.808 3.761-10.17 9.359-12.152 15.902v128.496c9.068 2.504 16.852 9.28 21.93 18.556A42.7 42.7 0 0 1 404.454 599H443V420z"/><path fill="#676767" d="M396.973 420a27.4 27.4 0 0 0-7.821 4.414c-5.808 3.761-10.17 9.359-12.152 15.902v128.496c9.068 2.504 16.852 9.28 21.93 18.556A42.7 42.7 0 0 1 404.454 599H443V420z"/></g><path fill="#F1D33D" d="m764 541.918-82.504-22.107-22.106 82.504 82.503 22.107z"/><path fill="#C8A802" d="m732.268 533.416-19.04-5.102-6.235 23.27 19.04 5.102z"/><path fill="#000" fill-opacity=".08" d="m721.162 530.44-39.666-10.628-22.107 82.503 39.666 10.629z"/><path stroke="#858585" stroke-linecap="round" stroke-width="18" d="M754.5 637 630 603.5"/><path fill="#fff" fill-opacity=".8" d="M1482 283.179c0-29.201-18.88-54.634-45.3-63.583v-4.239c0-41.446-33.5-75.357-75.5-75.357-27.84 0-52.38 15.542-65.12 38.15-7.08-5.181-16.04-8.007-25.48-8.007-25.01 0-45.3 20.252-45.3 45.214 0 6.123 1.42 11.304 3.3 16.485-27.84 5.651-48.6 30.142-48.6 58.872 0 33.44 27.37 60.286 60.4 60.286h173.65c37.75 0 67.95-30.143 67.95-67.821"/><path fill="#186635" d="M1151.2 470.2c5.95 0 11.2 5.25 11.2 11.2v44.8h179.2v-44.8c0-5.95 4.9-11.2 11.2-11.2 5.95 0 11.2 5.25 11.2 11.2v156.8c0 6.3-5.25 11.2-11.2 11.2-6.3 0-11.2-4.9-11.2-11.2h-179.2c0 6.3-5.25 11.2-11.2 11.2-6.3 0-11.2-4.9-11.2-11.2V481.4c0-5.95 4.9-11.2 11.2-11.2m11.2 145.6h179.2v-67.2h-179.2z"/><path fill="#F1D33D" d="M1217.5 567h49v49h-49z"/><path fill="#C8A802" d="M1236.35 567h11.308v13.82h-11.308z"/><path fill="#000" fill-opacity=".08" d="M1242.94 567h23.558v49h-23.558z"/><path fill="#F1D33D" d="M1160 567h49v49h-49z"/><path fill="#C8A802" d="M1178.85 567h11.308v13.82h-11.308z"/><path fill="#000" fill-opacity=".08" d="M1185.44 567h23.558v49h-23.558z"/><path fill="#F1D33D" d="M1255 477h49v49h-49z"/><path fill="#C8A802" d="M1273.85 477h11.308v13.82h-11.308z"/><path fill="#000" fill-opacity=".08" d="M1280.44 477h23.558v49h-23.558z"/></g></g><defs><linearGradient id="c" x1="971.991" x2="971.991" y1="691.381" y2="919.83" gradientUnits="userSpaceOnUse"><stop stop-color="#D9D9D9"/><stop offset="1" stop-color="#737373"/></linearGradient><linearGradient id="e" x1="530.729" x2="530.729" y1="555.135" y2="690.566" gradientUnits="userSpaceOnUse"><stop stop-color="#D9D9D9"/><stop offset="1" stop-color="#737373"/></linearGradient><linearGradient id="g" x1="347.729" x2="347.729" y1="555.135" y2="690.566" gradientUnits="userSpaceOnUse"><stop stop-color="#D9D9D9"/><stop offset="1" stop-color="#737373"/></linearGradient><linearGradient id="h" x1="348.608" x2="348.608" y1="415.264" y2="662.069" gradientUnits="userSpaceOnUse"><stop stop-color="#D9D9D9"/><stop offset="1" stop-color="#737373"/></linearGradient><linearGradient id="i" x1="405.555" x2="405.555" y1="380.044" y2="652.445" gradientUnits="userSpaceOnUse"><stop stop-color="#D9D9D9"/><stop offset="1" stop-color="#737373"/></linearGradient><clipPath id="b"><rect width="1600" height="900" x="42" y="35" fill="#fff" rx="32"/></clipPath><clipPath id="d"><rect width="88" height="88" fill="#fff" rx="44" transform="matrix(-1 0 0 1 580 575)"/></clipPath><clipPath id="f"><rect width="88" height="88" fill="#fff" rx="44" transform="matrix(-1 0 0 1 397 575)"/></clipPath><filter id="a" width="1673.44" height="973.44" x=".333" y=".753" color-interpolation-filters="sRGB" filterUnits="userSpaceOnUse"><feFlood flood-opacity="0" result="BackgroundImageFix"/><feColorMatrix in="SourceAlpha" result="hardAlpha" values="0 0 0 0 0 0 0 0 0 0 0 0 0 0 0 0 0 0 127 0"/><feOffset dx="-4.947" dy="2.473"/><feGaussianBlur stdDeviation="18.36"/><feComposite in2="hardAlpha" operator="out"/><feColorMatrix values="0 0 0 0 0 0 0 0 0 0 0 0 0 0 0 0 0 0 0.1 0"/><feBlend in2="BackgroundImageFix" result="effect1_dropShadow_794_3823"/><feBlend in="SourceGraphic" in2="effect1_dropShadow_794_3823" result="shape"/></filter></defs></svg>