<svg width="1674" height="975" viewBox="0 0 1674 975" fill="none" xmlns="http://www.w3.org/2000/svg">
<g filter="url(#filter0_d_794_3823)">
<g clip-path="url(#clip0_794_3823)">
<rect x="42" y="35" width="1600" height="900" rx="32" fill="#16B2D4"/>
<path d="M235 291.75C235 255.906 258.125 224.688 290.5 213.703C290.5 211.969 290.5 210.234 290.5 208.5C290.5 157.625 331.547 116 383 116C417.109 116 447.172 135.078 462.781 162.828C471.453 156.469 482.438 153 494 153C524.641 153 549.5 177.859 549.5 208.5C549.5 216.016 547.766 222.375 545.453 228.734C579.562 235.672 605 265.734 605 301C605 342.047 571.469 375 531 375H318.25C272 375 235 338 235 291.75Z" fill="white" fill-opacity="0.8"/>
<path d="M457 424.607C457 394.299 476.5 367.902 503.8 358.614C503.8 357.147 503.8 355.681 503.8 354.214C503.8 311.196 538.412 276 581.8 276C610.562 276 635.912 292.132 649.075 315.596C656.387 310.219 665.65 307.286 675.4 307.286C701.237 307.286 722.2 328.306 722.2 354.214C722.2 360.569 720.737 365.946 718.787 371.324C747.55 377.19 769 402.609 769 432.429C769 467.136 740.725 495 706.6 495H527.2C488.2 495 457 463.714 457 424.607Z" fill="white" fill-opacity="0.8"/>
<g style="mix-blend-mode:color-burn">
<rect x="44" y="658" width="1599" height="274" fill="url(#paint0_linear_794_3823)" fill-opacity="0.84"/>
</g>
<path d="M829 611.8C829 593.25 844.05 578.2 862.6 578.2H1019.4C1037.95 578.2 1053 593.25 1053 611.8C1053 630.35 1037.95 645.4 1019.4 645.4H862.6C844.05 645.4 829 630.35 829 611.8Z" fill="#186635"/>
<circle cx="941" cy="612" r="10" fill="#EBEBEB"/>
<circle cx="874" cy="612" r="10" fill="#D6D6D6"/>
<path d="M862.6 583.7H1019.4C1034.91 583.7 1047.5 596.287 1047.5 611.8C1047.5 627.312 1034.91 639.9 1019.4 639.9H862.6C847.087 639.9 834.5 627.312 834.5 611.8C834.5 596.287 847.087 583.7 862.6 583.7Z" stroke="#228C49" stroke-width="11"/>
<path d="M874 591C885.598 591 895 600.402 895 612C895 623.598 885.598 633 874 633C862.402 633 853 623.598 853 612C853 600.402 862.402 591 874 591ZM874 602C868.477 602 864 606.477 864 612C864 617.523 868.477 622 874 622C879.523 622 884 617.523 884 612C884 606.477 879.523 602 874 602Z" fill="#333333"/>
<path d="M941 591C952.598 591 962 600.402 962 612C962 623.598 952.598 633 941 633C929.402 633 920 623.598 920 612C920 600.402 929.402 591 941 591Z" fill="#333333"/>
<path d="M1008 591C1019.6 591 1029 600.402 1029 612C1029 623.598 1019.6 633 1008 633C996.402 633 987 623.598 987 612C987 600.402 996.402 591 1008 591ZM1008 602C1002.48 602 998 606.477 998 612C998 617.523 1002.48 622 1008 622C1013.52 622 1018 617.523 1018 612C1018 606.477 1013.52 602 1008 602Z" fill="#333333"/>
<circle cx="1008" cy="612" r="10" fill="#D6D6D6"/>
<circle cx="941" cy="612" r="10" fill="#D6D6D6"/>
<rect x="862" y="495" width="83" height="83" fill="#F1D33D"/>
<rect x="893.924" y="495" width="19.1538" height="23.4103" fill="#C8A802"/>
<rect x="905.096" y="495" width="39.9038" height="83" fill="black" fill-opacity="0.08"/>
<rect x="957" y="515" width="63" height="63" fill="#F1D33D"/>
<rect x="981.23" y="515" width="14.5385" height="17.7692" fill="#C8A802"/>
<rect x="989.711" y="515" width="30.2885" height="63" fill="black" fill-opacity="0.08"/>
<path d="M350.604 451.465C341.556 451.465 332.509 455.195 326.122 461.588L285.142 502.612C278.755 509.006 275.029 518.063 275.029 527.12V587.858C265.982 587.859 257.999 595.85 257.999 604.907C257.999 614.497 265.982 621.957 275.029 621.957H297.076C297.025 620.978 296.999 619.992 296.999 619C296.999 588.072 322.071 563 352.999 563C361.673 563 369.885 564.972 377.214 568.492V451.465H350.604Z" fill="#39C76D"/>
<path d="M627 445C627 431.193 615.807 420 602 420H402C388.193 420 377 431.193 377 445V519H627V445Z" fill="#ADADAD"/>
<path d="M284.606 502.624C278.489 508.517 275.032 516.649 275.032 525.147V545.945H299.4C300.564 544.224 301.833 542.579 303.199 541.021C312.287 529.73 326.212 522.503 341.826 522.503C348.312 522.503 360.186 522.503 360.186 522.503V475.617H312.641L284.606 502.624Z" fill="#89E1F5"/>
<rect width="11.3538" height="18.4699" transform="matrix(-1 0 0 1 286.385 569.388)" fill="#F4DE70"/>
<rect x="402" y="450" width="134" height="61" fill="#D6D6D6"/>
<g clip-path="url(#clip1_794_3823)">
<rect width="88" height="88" rx="44" transform="matrix(-1 0 0 1 580 575)" fill="#858585"/>
<circle cx="22" cy="22" r="22" transform="matrix(-1 0 0 1 558 597)" fill="#39C76D"/>
<g style="mix-blend-mode:overlay">
<path d="M492 663V575L580 663H492Z" fill="url(#paint1_linear_794_3823)"/>
<path d="M492 663V575L580 663H492Z" fill="#676767"/>
</g>
</g>
<g clip-path="url(#clip2_794_3823)">
<rect width="88" height="88" rx="44" transform="matrix(-1 0 0 1 397 575)" fill="#858585"/>
<circle cx="22" cy="22" r="22" transform="matrix(-1 0 0 1 375 597)" fill="#39C76D"/>
<g style="mix-blend-mode:overlay">
<path d="M309 663V575L397 663H309Z" fill="url(#paint2_linear_794_3823)"/>
<path d="M309 663V575L397 663H309Z" fill="#676767"/>
</g>
</g>
<path d="M377 568.39C394.496 576.701 406.999 593.817 408.781 614.012C415.934 605.484 428.603 599.816 443.038 599.816C459.538 599.816 473.728 607.222 480.014 617.838C480.632 587.446 505.46 563 536 563C566.928 563 592 588.072 592 619H615.262C617.841 614.577 621.911 610.753 627 607.89V515H377V568.39Z" fill="#ADADAD"/>
<path d="M588.407 599.224C590.729 605.373 592 612.038 592 619C592 619.992 591.974 620.977 591.923 621.956H615C621.627 621.956 627 616.583 627 609.956V599.224H588.407ZM405.407 599.224C407.729 605.373 409 612.038 409 619C409 619.992 408.974 620.977 408.923 621.956H480.077C480.026 620.977 480 619.992 480 619C480 612.038 481.271 605.373 483.593 599.224H405.407Z" fill="#D6D6D6"/>
<g style="mix-blend-mode:overlay">
<path d="M336.234 492.489C329.848 498.883 326.122 507.941 326.122 516.998V569.859C334.1 565.487 343.259 563 352.999 563C361.673 563 369.885 564.972 377.214 568.492V451.465L336.234 492.489Z" fill="url(#paint3_linear_794_3823)"/>
<path d="M336.234 492.489C329.848 498.883 326.122 507.941 326.122 516.998V569.859C334.1 565.487 343.259 563 352.999 563C361.673 563 369.885 564.972 377.214 568.492V451.465L336.234 492.489Z" fill="#676767"/>
</g>
<g style="mix-blend-mode:overlay">
<path d="M396.973 420C394.135 421.028 391.502 422.528 389.152 424.414C383.344 428.175 378.982 433.773 377 440.316V568.812C386.068 571.316 393.852 578.092 398.93 587.368C401.3 590.86 403.179 594.779 404.454 599H443V420H396.973Z" fill="url(#paint4_linear_794_3823)"/>
<path d="M396.973 420C394.135 421.028 391.502 422.528 389.152 424.414C383.344 428.175 378.982 433.773 377 440.316V568.812C386.068 571.316 393.852 578.092 398.93 587.368C401.3 590.86 403.179 594.779 404.454 599H443V420H396.973Z" fill="#676767"/>
</g>
<rect width="85.4144" height="85.4144" transform="matrix(-0.965926 -0.258819 -0.258819 0.965926 764 541.918)" fill="#F1D33D"/>
<rect width="19.711" height="24.0912" transform="matrix(-0.965926 -0.258819 -0.258819 0.965926 732.268 533.416)" fill="#C8A802"/>
<rect width="41.0646" height="85.4144" transform="matrix(-0.965926 -0.258819 -0.258819 0.965926 721.162 530.44)" fill="black" fill-opacity="0.08"/>
<path d="M754.5 637L630 603.5" stroke="#858585" stroke-width="18" stroke-linecap="round"/>
<path d="M1482 283.179C1482 253.978 1463.12 228.545 1436.7 219.596C1436.7 218.183 1436.7 216.77 1436.7 215.357C1436.7 173.911 1403.2 140 1361.2 140C1333.36 140 1308.82 155.542 1296.08 178.15C1289 172.969 1280.04 170.143 1270.6 170.143C1245.59 170.143 1225.3 190.395 1225.3 215.357C1225.3 221.48 1226.72 226.661 1228.6 231.842C1200.76 237.493 1180 261.984 1180 290.714C1180 324.154 1207.37 351 1240.4 351H1414.05C1451.8 351 1482 320.857 1482 283.179Z" fill="white" fill-opacity="0.8"/>
<path d="M1151.2 470.2C1157.15 470.2 1162.4 475.45 1162.4 481.4V526.2H1341.6V481.4C1341.6 475.45 1346.5 470.2 1352.8 470.2C1358.75 470.2 1364 475.45 1364 481.4V537.4V627V638.2C1364 644.5 1358.75 649.4 1352.8 649.4C1346.5 649.4 1341.6 644.5 1341.6 638.2H1162.4C1162.4 644.5 1157.15 649.4 1151.2 649.4C1144.9 649.4 1140 644.5 1140 638.2V627V537.4V481.4C1140 475.45 1144.9 470.2 1151.2 470.2ZM1162.4 615.8H1341.6V548.6H1162.4V615.8Z" fill="#186635"/>
<rect x="1217.5" y="567" width="49" height="49" fill="#F1D33D"/>
<rect x="1236.35" y="567" width="11.3077" height="13.8205" fill="#C8A802"/>
<rect x="1242.94" y="567" width="23.5577" height="49" fill="black" fill-opacity="0.08"/>
<rect x="1160" y="567" width="49" height="49" fill="#F1D33D"/>
<rect x="1178.85" y="567" width="11.3077" height="13.8205" fill="#C8A802"/>
<rect x="1185.44" y="567" width="23.5577" height="49" fill="black" fill-opacity="0.08"/>
<rect x="1255" y="477" width="49" height="49" fill="#F1D33D"/>
<rect x="1273.85" y="477" width="11.3077" height="13.8205" fill="#C8A802"/>
<rect x="1280.44" y="477" width="23.5577" height="49" fill="black" fill-opacity="0.08"/>
</g>
</g>
<defs>
<filter id="filter0_d_794_3823" x="0.333432" y="0.753282" width="1673.44" height="973.44" filterUnits="userSpaceOnUse" color-interpolation-filters="sRGB">
<feFlood flood-opacity="0" result="BackgroundImageFix"/>
<feColorMatrix in="SourceAlpha" type="matrix" values="0 0 0 0 0 0 0 0 0 0 0 0 0 0 0 0 0 0 127 0" result="hardAlpha"/>
<feOffset dx="-4.94657" dy="2.47328"/>
<feGaussianBlur stdDeviation="18.36"/>
<feComposite in2="hardAlpha" operator="out"/>
<feColorMatrix type="matrix" values="0 0 0 0 0 0 0 0 0 0 0 0 0 0 0 0 0 0 0.1 0"/>
<feBlend mode="normal" in2="BackgroundImageFix" result="effect1_dropShadow_794_3823"/>
<feBlend mode="normal" in="SourceGraphic" in2="effect1_dropShadow_794_3823" result="shape"/>
</filter>
<linearGradient id="paint0_linear_794_3823" x1="971.991" y1="691.381" x2="971.991" y2="919.83" gradientUnits="userSpaceOnUse">
<stop stop-color="#D9D9D9"/>
<stop offset="1" stop-color="#737373"/>
</linearGradient>
<linearGradient id="paint1_linear_794_3823" x1="530.729" y1="555.135" x2="530.729" y2="690.566" gradientUnits="userSpaceOnUse">
<stop stop-color="#D9D9D9"/>
<stop offset="1" stop-color="#737373"/>
</linearGradient>
<linearGradient id="paint2_linear_794_3823" x1="347.729" y1="555.135" x2="347.729" y2="690.566" gradientUnits="userSpaceOnUse">
<stop stop-color="#D9D9D9"/>
<stop offset="1" stop-color="#737373"/>
</linearGradient>
<linearGradient id="paint3_linear_794_3823" x1="348.608" y1="415.264" x2="348.608" y2="662.069" gradientUnits="userSpaceOnUse">
<stop stop-color="#D9D9D9"/>
<stop offset="1" stop-color="#737373"/>
</linearGradient>
<linearGradient id="paint4_linear_794_3823" x1="405.555" y1="380.044" x2="405.555" y2="652.445" gradientUnits="userSpaceOnUse">
<stop stop-color="#D9D9D9"/>
<stop offset="1" stop-color="#737373"/>
</linearGradient>
<clipPath id="clip0_794_3823">
<rect x="42" y="35" width="1600" height="900" rx="32" fill="white"/>
</clipPath>
<clipPath id="clip1_794_3823">
<rect width="88" height="88" rx="44" transform="matrix(-1 0 0 1 580 575)" fill="white"/>
</clipPath>
<clipPath id="clip2_794_3823">
<rect width="88" height="88" rx="44" transform="matrix(-1 0 0 1 397 575)" fill="white"/>
</clipPath>
</defs>
</svg>
