<svg width="1674" height="975" viewBox="0 0 1674 975" fill="none" xmlns="http://www.w3.org/2000/svg">
<g filter="url(#filter0_d_813_5422)">
<g clip-path="url(#clip0_813_5422)">
<rect x="42" y="35" width="1600" height="900" rx="32" fill="#16B2D4"/>
<path d="M1537 238.75C1537 202.906 1513.88 171.688 1481.5 160.703C1481.5 158.969 1481.5 157.234 1481.5 155.5C1481.5 104.625 1440.45 63 1389 63C1354.89 63 1324.83 82.0781 1309.22 109.828C1300.55 103.469 1289.56 100 1278 100C1247.36 100 1222.5 124.859 1222.5 155.5C1222.5 163.016 1224.23 169.375 1226.55 175.734C1192.44 182.672 1167 212.734 1167 248C1167 289.047 1200.53 322 1241 322H1453.75C1500 322 1537 285 1537 238.75Z" fill="white" fill-opacity="0.8"/>
<path d="M1315 371.607C1315 341.299 1295.5 314.902 1268.2 305.614C1268.2 304.147 1268.2 302.681 1268.2 301.214C1268.2 258.196 1233.59 223 1190.2 223C1161.44 223 1136.09 239.132 1122.93 262.596C1115.61 257.219 1106.35 254.286 1096.6 254.286C1070.76 254.286 1049.8 275.306 1049.8 301.214C1049.8 307.569 1051.26 312.946 1053.21 318.324C1024.45 324.19 1003 349.609 1003 379.429C1003 414.136 1031.28 442 1065.4 442H1244.8C1283.8 442 1315 410.714 1315 371.607Z" fill="white" fill-opacity="0.8"/>
<path d="M290 230.179C290 200.978 308.875 175.545 335.3 166.596C335.3 165.183 335.3 163.77 335.3 162.357C335.3 120.911 368.803 87 410.8 87C438.641 87 463.178 102.542 475.919 125.15C482.997 119.969 491.962 117.143 501.4 117.143C526.409 117.143 546.7 137.395 546.7 162.357C546.7 168.48 545.284 173.661 543.397 178.842C571.237 184.493 592 208.984 592 237.714C592 271.154 564.631 298 531.6 298H357.95C320.2 298 290 267.857 290 230.179Z" fill="white" fill-opacity="0.8"/>
<path d="M1168.69 230.619L1150.89 246C1151.7 251.667 1151.7 257.333 1151.7 263C1151.7 268.667 1151.7 274.333 1150.89 280L1168.69 296.19C1174.36 301.048 1176.79 309.143 1173.55 316.429C1171.93 320.476 1169.5 325.333 1167.07 329.381L1164.65 333.429C1162.22 337.476 1159.79 341.524 1157.36 345.571C1152.51 351.238 1144.41 353.667 1137.13 351.238L1114.46 343.143C1105.56 350.429 1095.85 356.095 1084.52 360.143L1079.66 383.619C1078.04 391.714 1072.38 397.381 1065.09 398.19C1059.43 399 1053.76 399 1048.1 399C1043.24 399 1037.57 399 1031.91 398.19C1024.62 397.381 1018.15 391.714 1017.34 383.619L1011.67 360.143C1001.15 356.095 991.438 350.429 982.535 343.143L959.872 351.238C952.588 353.667 944.494 351.238 939.638 345.571C937.21 341.524 933.972 337.476 931.544 333.429L929.116 329.381C927.497 325.333 925.069 320.476 923.45 316.429C920.213 309.143 922.641 301.048 928.306 296.19L946.113 280C945.303 275.143 945.303 269.476 945.303 263C945.303 257.333 945.303 251.667 946.113 246.81L928.306 230.619C922.641 224.952 920.213 217.667 923.45 210.381C925.069 205.524 927.497 201.476 929.116 197.429L931.544 193.381C934.781 189.333 937.21 185.286 939.638 181.238C944.494 175.571 952.588 173.143 959.872 175.571L982.535 182.857C991.438 176.381 1001.15 170.714 1012.48 166.667L1017.34 142.381C1018.96 135.095 1024.62 129.429 1031.91 128.619C1037.57 127.81 1042.43 127 1048.1 127H1048.9C1054.57 127 1059.43 127.81 1065.09 128.619C1072.38 129.429 1078.85 135.095 1080.47 143.19L1085.33 166.667C1095.85 169.905 1105.56 176.381 1114.46 182.857L1137.13 175.571C1144.41 173.143 1152.51 175.571 1157.36 181.238C1159.79 185.286 1163.03 189.333 1165.46 193.381L1167.88 197.429C1169.5 201.476 1171.93 205.524 1173.55 210.381C1176.79 217.667 1174.36 224.952 1168.69 230.619ZM1010.05 263C1010.05 277.571 1017.34 289.714 1029.48 297C1040.81 304.286 1056.19 304.286 1068.33 297C1079.66 289.714 1087.76 277.571 1087.76 263C1087.76 249.238 1079.66 237.095 1068.33 229.81C1056.19 222.524 1040.81 222.524 1029.48 229.81C1017.34 237.095 1010.05 249.238 1010.05 263Z" fill="#ADADAD"/>
<path d="M1151.04 245.891L1168.73 230.524C1174.36 224.862 1176.78 217.583 1173.56 210.304C1171.95 205.451 1169.54 201.407 1167.93 197.363L1165.52 193.319C1163.1 189.275 1159.89 185.231 1157.47 181.188C1152.65 175.526 1144.6 173.1 1137.37 175.526L1114.85 182.805C1106 176.335 1096.35 169.864 1085.89 166.629L1081.06 143.174C1080.35 139.559 1078.66 136.429 1076.37 134V235.64C1083.61 242.813 1088.3 252.372 1088.3 262.875C1088.3 273.996 1083.61 283.701 1076.37 290.909V392C1078.24 389.657 1079.6 386.729 1080.26 383.385L1085.09 359.93C1096.35 355.886 1106 350.225 1114.85 342.946L1137.37 351.034C1144.6 353.46 1152.65 351.034 1157.47 345.372L1164.71 333.24L1167.12 329.196C1169.54 325.152 1171.95 320.3 1173.56 316.256C1176.78 308.976 1174.36 300.889 1168.73 296.036L1151.04 279.86C1151.84 274.198 1151.84 268.537 1151.84 262.875C1151.84 257.214 1151.84 251.552 1151.04 245.891Z" fill="black" fill-opacity="0.08"/>
<path d="M1416.02 436.41L1392.89 440.865C1390.78 446.18 1387.96 451.091 1385.15 456.002C1382.33 460.913 1379.51 465.824 1375.99 470.332L1383.42 493.24C1385.93 500.273 1384.02 508.5 1377.59 513.2C1374.17 515.902 1369.64 518.901 1365.52 521.198L1361.4 523.496C1357.28 525.794 1353.15 528.092 1349.03 530.389C1341.99 532.88 1333.75 530.95 1328.63 525.215L1312.95 506.902C1301.6 508.779 1290.34 508.849 1278.48 506.709L1262.59 524.634C1257.16 530.844 1249.42 532.931 1242.68 530.001C1237.36 527.879 1232.43 525.055 1227.51 522.231C1223.29 519.81 1218.36 516.986 1213.84 513.461C1207.91 509.128 1205.1 500.989 1208.42 493.57L1215.17 470.399C1208.03 461.647 1202.41 451.894 1198.29 441.142L1174.57 436.862C1167.03 435.336 1161.2 429.197 1159.8 421.865C1159.7 417.147 1158.9 412.025 1158.8 407.307L1158.7 402.588C1159.31 398.273 1159.61 392.853 1160.22 388.539C1161.02 380.61 1167.16 374.805 1174.5 373.419L1198.02 368.263C1199.73 363.65 1202.55 358.739 1205.77 353.126C1208.58 348.215 1211.4 343.303 1214.52 339.497L1207.09 316.59C1204.98 308.854 1206.49 301.33 1212.93 296.629C1216.75 293.226 1220.87 290.929 1224.29 288.228L1228.41 285.93C1233.24 284.036 1237.36 281.738 1241.48 279.44C1248.52 276.95 1256.76 278.879 1261.88 284.615L1277.96 302.226C1288.92 301.051 1300.17 300.981 1312.04 303.121L1328.33 284.493C1333.36 278.986 1341.1 276.899 1347.83 279.828C1353.16 281.951 1357.78 283.67 1362.7 286.494L1363.41 286.897C1368.33 289.721 1372.15 292.843 1376.67 296.369C1382.6 300.701 1385.41 308.84 1382.79 316.663L1375.35 339.43C1382.88 347.481 1388.1 357.935 1392.62 367.986L1415.94 372.968C1423.48 374.494 1429.31 380.633 1430.71 387.965C1430.81 392.683 1431.61 397.805 1431.71 402.523L1431.81 407.241C1431.2 411.556 1431.3 416.274 1430.3 421.291C1429.49 429.219 1423.76 434.323 1416.02 436.41ZM1262.04 385.401C1254.8 398.03 1255.1 412.184 1262.03 424.55C1268.25 436.513 1281.62 444.178 1295.79 443.915C1309.26 443.249 1322.33 436.759 1329.57 424.131C1336.42 412.203 1335.42 397.645 1329.19 385.683C1322.26 373.317 1308.89 365.651 1295.42 366.318C1281.25 366.58 1268.88 373.474 1262.04 385.401Z" fill="#ADADAD"/>
<circle cx="1295.5" cy="404.5" r="54.8962" stroke="#858585" stroke-width="6.79245"/>
<circle cx="1295" cy="404" r="42.5" stroke="#333333" stroke-width="5"/>
<path d="M1392.57 440.882L1415.69 436.397C1423.43 434.299 1429.16 429.184 1429.98 421.249C1430.99 416.227 1430.9 411.505 1431.5 407.186L1431.41 402.464C1431.32 397.742 1430.52 392.617 1430.43 387.895C1429.03 380.559 1423.22 374.421 1415.68 372.902L1392.38 367.943C1387.88 357.89 1382.67 347.433 1375.15 339.384L1382.62 316.59C1385.24 308.758 1382.44 300.616 1376.52 296.286C1372.01 292.763 1368.19 289.643 1363.28 286.822L1362.57 286.419C1357.65 283.598 1353.04 281.883 1347.71 279.765C1340.99 276.841 1333.25 278.939 1328.22 284.456L1320.06 293.787L1320.06 375.002C1323.6 377.955 1326.64 381.575 1328.96 385.727C1335.17 397.692 1336.15 412.261 1329.3 424.206C1326.83 428.521 1323.68 432.121 1320.06 435.02L1320.42 516.219L1328.24 525.373C1333.36 531.108 1341.59 533.03 1348.63 530.529L1361 523.616L1365.12 521.312C1369.24 519.008 1373.77 516.001 1377.19 513.294C1383.62 508.582 1385.55 500.346 1383.05 493.31L1375.65 470.392C1379.17 465.877 1381.99 460.958 1384.81 456.04C1387.63 451.122 1390.45 446.203 1392.57 440.882Z" fill="black" fill-opacity="0.08"/>
<circle cx="1048.5" cy="260.5" r="54.8962" stroke="#858585" stroke-width="6.79245"/>
<circle cx="1049" cy="261" r="42.5" stroke="#333333" stroke-width="5"/>
<path d="M840 635.669V415.932C840 399.352 849.562 384.047 865.5 377.67L1036.35 309.435C1040.81 307.522 1046.55 307.522 1051.01 309.435L1221.86 377.67C1237.8 384.047 1248 399.352 1248 415.932V635.669C1248 644.597 1240.99 632.753 1232.7 632.753H1202.1C1193.17 632.753 1186.8 644.597 1186.8 635.669V449.093C1186.8 438.252 1177.24 428.686 1166.4 428.686H921.6C910.125 428.686 901.2 438.252 901.2 449.093V635.669C901.2 644.597 894.187 632.753 885.9 632.753H855.3C846.375 632.753 840 644.597 840 635.669Z" fill="#28A656"/>
<path d="M1248 416.061C1248 399.49 1237.83 384.194 1221.94 377.82L1100 329V428.808H1166.65C1177.45 428.808 1186.98 438.368 1186.98 449.202V635.671C1186.98 644.593 1193.34 632.757 1202.24 632.757H1232.75C1241.01 632.757 1248 644.593 1248 635.671V416.061Z" fill="black" fill-opacity="0.08"/>
<rect x="826" y="623" width="437" height="37" rx="10" fill="#228C49"/>
<path d="M836 400L1044.46 313L1252 400" stroke="#228C49" stroke-width="10" stroke-linecap="round"/>
<rect x="889" y="401" width="308" height="40" fill="#76E49E"/>
<rect x="889" y="412" width="308" height="18" fill="#39C76D"/>
<rect x="947.685" y="552.286" width="71.0761" height="71.0761" fill="#F1D33D"/>
<rect x="975.022" y="552.286" width="16.4022" height="20.0471" fill="#C8A802"/>
<rect x="987.779" y="552.286" width="30.9819" height="71.0761" fill="black" fill-opacity="0.08"/>
<rect x="947.685" y="481.21" width="71.0761" height="71.0761" fill="#F1D33D"/>
<rect x="975.022" y="481.21" width="16.4022" height="20.0471" fill="#C8A802"/>
<rect x="987.779" y="481.21" width="30.9819" height="71.0761" fill="black" fill-opacity="0.08"/>
<rect x="1078.9" y="552.286" width="71.0761" height="71.0761" fill="#F1D33D"/>
<rect x="1106.24" y="552.286" width="16.4022" height="20.0471" fill="#C8A802"/>
<rect x="1119" y="552.286" width="30.9819" height="71.0761" fill="black" fill-opacity="0.08"/>
<rect x="1078.9" y="481.21" width="71.0761" height="71.0761" fill="#F1D33D"/>
<rect x="1106.24" y="481.21" width="16.4022" height="20.0471" fill="#C8A802"/>
<rect x="1119" y="481.21" width="30.9819" height="71.0761" fill="black" fill-opacity="0.08"/>
<rect x="876.609" y="552.286" width="71.0761" height="71.0761" fill="#F1D33D"/>
<rect x="903.946" y="552.286" width="16.4022" height="20.0471" fill="#C8A802"/>
<rect x="916.703" y="552.286" width="30.9819" height="71.0761" fill="black" fill-opacity="0.08"/>
<path d="M1209.11 618.021C1209.11 620.971 1206.71 623.362 1203.76 623.362H1133.45C1130.5 623.362 1128.11 620.971 1128.11 618.021V603.503H1209.11V618.021ZM1203.76 577.801C1206.71 577.801 1209.11 580.192 1209.11 583.143V598.051H1128.11V583.143C1128.11 580.192 1130.5 577.801 1133.45 577.801H1203.76Z" fill="#76E49E"/>
<path d="M1209.11 618.021V583.143C1209.11 580.192 1206.71 577.801 1203.76 577.801H1177.95V623.362H1203.76C1206.71 623.362 1209.11 620.971 1209.11 618.021Z" fill="black" fill-opacity="0.08"/>
<rect x="1201.71" y="598.051" width="7.39889" height="5.45181" fill="#28A656"/>
<rect x="1135.51" y="598.051" width="66.2006" height="5.45181" fill="#228C49"/>
<rect x="1128.11" y="598.051" width="7.39889" height="5.45181" fill="#28A656"/>
<path d="M1137.94 623.362H1199.47C1201.89 623.362 1204.1 622.482 1205.8 621.025H1131.61C1133.32 622.482 1135.53 623.362 1137.94 623.362Z" fill="#39C76D"/>
<rect x="1128.11" y="595.714" width="80.9984" height="2.33649" fill="#39C76D"/>
<circle cx="1138.43" cy="588.121" r="2.92061" fill="#39C76D"/>
<path d="M1138.43 591.041C1140.04 591.041 1141.35 589.734 1141.35 588.121C1141.35 587.165 1140.89 586.317 1140.18 585.784L1136.67 590.457C1137.16 590.824 1137.77 591.041 1138.43 591.041Z" fill="black" fill-opacity="0.08"/>
<circle cx="1198.79" cy="588.121" r="2.92061" fill="#39C76D"/>
<path d="M1198.79 591.041C1200.4 591.041 1201.71 589.734 1201.71 588.121C1201.71 587.165 1201.25 586.317 1200.54 585.784L1197.03 590.457C1197.52 590.824 1198.13 591.041 1198.79 591.041Z" fill="black" fill-opacity="0.08"/>
<circle cx="1138.43" cy="613.044" r="2.92061" fill="#39C76D"/>
<path d="M1138.43 615.964C1140.04 615.964 1141.35 614.657 1141.35 613.044C1141.35 612.088 1140.89 611.24 1140.18 610.707L1136.67 615.38C1137.16 615.747 1137.77 615.964 1138.43 615.964Z" fill="black" fill-opacity="0.08"/>
<circle cx="1198.79" cy="613.044" r="2.92061" fill="#39C76D"/>
<path d="M1198.79 615.964C1200.4 615.964 1201.71 614.657 1201.71 613.044C1201.71 612.088 1201.25 611.24 1200.54 610.707L1197.03 615.38C1197.52 615.747 1198.13 615.964 1198.79 615.964Z" fill="black" fill-opacity="0.08"/>
<path d="M1209.11 572.459C1209.11 575.409 1206.71 577.801 1203.76 577.801H1133.45C1130.5 577.801 1128.11 575.409 1128.11 572.459V557.941H1209.11V572.459ZM1203.76 532.239C1206.71 532.239 1209.11 534.631 1209.11 537.581V552.489H1128.11V537.581C1128.11 534.631 1130.5 532.239 1133.45 532.239H1203.76Z" fill="#76E49E"/>
<path d="M1209.11 572.459V537.581C1209.11 534.631 1206.71 532.239 1203.76 532.239H1177.95V577.801H1203.76C1206.71 577.801 1209.11 575.409 1209.11 572.459Z" fill="black" fill-opacity="0.08"/>
<rect x="1201.71" y="552.489" width="7.39889" height="5.45181" fill="#28A656"/>
<rect x="1135.51" y="552.489" width="66.2006" height="5.45181" fill="#228C49"/>
<rect x="1128.11" y="552.489" width="7.39889" height="5.45181" fill="#28A656"/>
<path d="M1137.94 577.8H1199.47C1201.89 577.8 1204.1 576.921 1205.8 575.464H1131.61C1133.32 576.921 1135.53 577.8 1137.94 577.8Z" fill="#39C76D"/>
<rect x="1128.11" y="550.152" width="80.9984" height="2.33649" fill="#39C76D"/>
<circle cx="1138.43" cy="542.558" r="2.92061" fill="#39C76D"/>
<path d="M1138.43 545.479C1140.04 545.479 1141.35 544.171 1141.35 542.558C1141.35 541.603 1140.89 540.755 1140.18 540.222L1136.67 544.895C1137.16 545.262 1137.77 545.479 1138.43 545.479Z" fill="black" fill-opacity="0.08"/>
<circle cx="1198.79" cy="542.558" r="2.92061" fill="#39C76D"/>
<path d="M1198.79 545.479C1200.4 545.479 1201.71 544.171 1201.71 542.558C1201.71 541.603 1201.25 540.755 1200.54 540.222L1197.03 544.895C1197.52 545.262 1198.13 545.479 1198.79 545.479Z" fill="black" fill-opacity="0.08"/>
<circle cx="1138.43" cy="567.482" r="2.92061" fill="#39C76D"/>
<path d="M1138.43 570.403C1140.04 570.403 1141.35 569.095 1141.35 567.482C1141.35 566.527 1140.89 565.678 1140.18 565.146L1136.67 569.819C1137.16 570.185 1137.77 570.403 1138.43 570.403Z" fill="black" fill-opacity="0.08"/>
<circle cx="1198.79" cy="567.482" r="2.92061" fill="#39C76D"/>
<path d="M1198.79 570.403C1200.4 570.403 1201.71 569.095 1201.71 567.482C1201.71 566.527 1201.25 565.678 1200.54 565.146L1197.03 569.819C1197.52 570.185 1198.13 570.403 1198.79 570.403Z" fill="black" fill-opacity="0.08"/>
<g clip-path="url(#clip1_813_5422)">
<path d="M278 381C278 367.193 289.193 356 303 356H625C638.807 356 650 367.193 650 381V549H278V381Z" fill="#ADADAD"/>
<path d="M279 562.883C289.235 569.636 297.28 579.44 301.838 591H386.162C394.937 568.747 416.629 553 442 553C466.598 553 487.739 567.802 497.001 588.984C506.263 567.802 527.402 553 552 553C577.371 553 599.063 568.747 607.838 591H650V385H279V562.883Z" fill="#ADADAD"/>
<path d="M250.268 432.249C240.569 432.249 230.87 436.243 224.024 443.09L180.096 487.024C173.25 493.871 169.256 503.571 169.256 513.271V578.316C159.557 578.317 151 586.875 151 596.574C151 606.844 159.557 614.833 169.256 614.833H186.028C186.01 614.224 186 613.613 186 613C186 579.863 212.863 553 246 553C258.102 553 269.367 556.584 278.793 562.747V432.249H250.268Z" fill="#39C76D"/>
<path d="M179.519 487.038C172.962 493.348 169.256 502.057 169.256 511.158V533.431H195.377C196.626 531.587 197.986 529.826 199.45 528.158C209.192 516.065 224.119 508.326 240.856 508.326C247.809 508.326 260.537 508.326 260.537 508.326V458.115H209.572L179.519 487.038Z" fill="#89E1F5"/>
<rect width="12.1707" height="19.7799" transform="matrix(-1 0 0 1 181.427 558.536)" fill="#F4DE70"/>
<g clip-path="url(#clip2_813_5422)">
<rect width="96" height="96" rx="48" transform="matrix(0 1 1 0 394 565)" fill="#858585"/>
<circle cx="24" cy="24" r="24" transform="matrix(0 1 1 0 418 589)" fill="#39C76D"/>
<g style="mix-blend-mode:overlay">
<path d="M490 661H394L490 565V661Z" fill="url(#paint0_linear_813_5422)"/>
<path d="M490 661H394L490 565V661Z" fill="#676767"/>
</g>
</g>
<g clip-path="url(#clip3_813_5422)">
<rect width="96" height="96" rx="48" transform="matrix(0 1 1 0 504 565)" fill="#858585"/>
<circle cx="24" cy="24" r="24" transform="matrix(0 1 1 0 528 589)" fill="#39C76D"/>
<g style="mix-blend-mode:overlay">
<path d="M600 661H504L600 565V661Z" fill="url(#paint1_linear_813_5422)"/>
<path d="M600 661H504L600 565V661Z" fill="#676767"/>
</g>
</g>
<g clip-path="url(#clip4_813_5422)">
<rect width="96" height="96" rx="48" transform="matrix(0 1 1 0 202 565)" fill="#858585"/>
<circle cx="24" cy="24" r="24" transform="matrix(0 1 1 0 226 589)" fill="#39C76D"/>
<g style="mix-blend-mode:overlay">
<path d="M298 661H202L298 565V661Z" fill="url(#paint2_linear_813_5422)"/>
<path d="M298 661H202L298 565V661Z" fill="#676767"/>
</g>
</g>
<rect width="200" height="64" transform="matrix(-1 0 0 1 601 414)" fill="#D6D6D6"/>
<g style="mix-blend-mode:overlay">
<path d="M646 367.5C639.018 352.039 611.139 355.98 611 356H565V554.412C585.178 558.869 601.54 573.485 608.45 592.62L763 605.5C763 605.5 653.003 383.005 646 367.5Z" fill="url(#paint3_linear_813_5422)"/>
<path d="M646 367.5C639.018 352.039 611.139 355.98 611 356H565V554.412C585.178 558.869 601.54 573.485 608.45 592.62L763 605.5C763 605.5 653.003 383.005 646 367.5Z" fill="#676767"/>
</g>
<path d="M607.633 590.488C610.448 597.44 612 605.039 612 613C612 613.613 611.99 614.224 611.972 614.833H638C644.627 614.833 650 609.46 650 602.833V590.488H607.633ZM301.633 590.488C304.448 597.44 306 605.039 306 613C306 613.613 305.99 614.224 305.972 614.833H382.028C382.01 614.224 382 613.613 382 613C382 605.039 383.552 597.44 386.367 590.488H301.633Z" fill="#D6D6D6"/>
<g style="mix-blend-mode:overlay">
<path d="M231.677 473.953C224.302 480.491 220 489.754 220 499.017V558.91C227.866 555.122 236.685 553 246 553C258.191 553 269.533 556.636 279 562.883V432L231.677 473.953Z" fill="url(#paint4_linear_813_5422)"/>
<path d="M231.677 473.953C224.302 480.491 220 489.754 220 499.017V558.91C227.866 555.122 236.685 553 246 553C258.191 553 269.533 556.636 279 562.883V432L231.677 473.953Z" fill="#676767"/>
</g>
</g>
<rect width="85.4144" height="85.4144" transform="matrix(-0.917357 -0.398065 -0.398065 0.917357 791.706 559.533)" fill="#F1D33D"/>
<rect width="19.711" height="24.0912" transform="matrix(-0.917357 -0.398065 -0.398065 0.917357 761.57 546.456)" fill="#C8A802"/>
<rect width="41.0646" height="85.4144" transform="matrix(-0.917357 -0.398065 -0.398065 0.917357 751.022 541.879)" fill="black" fill-opacity="0.08"/>
<path d="M768.326 652.184L650.107 600.737" stroke="#858585" stroke-width="18" stroke-linecap="round"/>
<rect opacity="0.8" x="19" y="661" width="1646" height="275" fill="#28A656"/>
<g style="mix-blend-mode:color-burn">
<rect x="19" y="664" width="1645" height="274" fill="url(#paint5_linear_813_5422)" fill-opacity="0.2"/>
</g>
<g style="mix-blend-mode:color-burn">
<rect x="20" y="746" width="1645" height="274" fill="url(#paint6_linear_813_5422)" fill-opacity="0.5"/>
</g>
<g style="mix-blend-mode:color-burn">
<rect x="20" y="841" width="1645" height="274" fill="url(#paint7_linear_813_5422)" fill-opacity="0.5"/>
</g>
</g>
</g>
<defs>
<filter id="filter0_d_813_5422" x="0.333432" y="0.753282" width="1673.44" height="973.44" filterUnits="userSpaceOnUse" color-interpolation-filters="sRGB">
<feFlood flood-opacity="0" result="BackgroundImageFix"/>
<feColorMatrix in="SourceAlpha" type="matrix" values="0 0 0 0 0 0 0 0 0 0 0 0 0 0 0 0 0 0 127 0" result="hardAlpha"/>
<feOffset dx="-4.94657" dy="2.47328"/>
<feGaussianBlur stdDeviation="18.36"/>
<feComposite in2="hardAlpha" operator="out"/>
<feColorMatrix type="matrix" values="0 0 0 0 0 0 0 0 0 0 0 0 0 0 0 0 0 0 0.1 0"/>
<feBlend mode="normal" in2="BackgroundImageFix" result="effect1_dropShadow_813_5422"/>
<feBlend mode="normal" in="SourceGraphic" in2="effect1_dropShadow_813_5422" result="shape"/>
</filter>
<linearGradient id="paint0_linear_813_5422" x1="372.329" y1="618.75" x2="520.072" y2="618.75" gradientUnits="userSpaceOnUse">
<stop stop-color="#D9D9D9"/>
<stop offset="1" stop-color="#737373"/>
</linearGradient>
<linearGradient id="paint1_linear_813_5422" x1="482.329" y1="618.75" x2="630.072" y2="618.75" gradientUnits="userSpaceOnUse">
<stop stop-color="#D9D9D9"/>
<stop offset="1" stop-color="#737373"/>
</linearGradient>
<linearGradient id="paint2_linear_813_5422" x1="180.329" y1="618.75" x2="328.072" y2="618.75" gradientUnits="userSpaceOnUse">
<stop stop-color="#D9D9D9"/>
<stop offset="1" stop-color="#737373"/>
</linearGradient>
<linearGradient id="paint3_linear_813_5422" x1="675.86" y1="299.11" x2="675.86" y2="683.801" gradientUnits="userSpaceOnUse">
<stop stop-color="#D9D9D9"/>
<stop offset="1" stop-color="#737373"/>
</linearGradient>
<linearGradient id="paint4_linear_813_5422" x1="245.966" y1="394.979" x2="245.966" y2="647.373" gradientUnits="userSpaceOnUse">
<stop stop-color="#D9D9D9"/>
<stop offset="1" stop-color="#737373"/>
</linearGradient>
<linearGradient id="paint5_linear_813_5422" x1="973.688" y1="697.381" x2="973.688" y2="925.83" gradientUnits="userSpaceOnUse">
<stop stop-color="#D9D9D9"/>
<stop offset="1" stop-color="#737373"/>
</linearGradient>
<linearGradient id="paint6_linear_813_5422" x1="974.688" y1="779.381" x2="974.688" y2="1007.83" gradientUnits="userSpaceOnUse">
<stop stop-color="#D9D9D9"/>
<stop offset="1" stop-color="#737373"/>
</linearGradient>
<linearGradient id="paint7_linear_813_5422" x1="974.688" y1="874.381" x2="974.688" y2="1102.83" gradientUnits="userSpaceOnUse">
<stop stop-color="#D9D9D9"/>
<stop offset="1" stop-color="#737373"/>
</linearGradient>
<clipPath id="clip0_813_5422">
<rect x="42" y="35" width="1600" height="900" rx="32" fill="white"/>
</clipPath>
<clipPath id="clip1_813_5422">
<rect width="499" height="318" fill="white" transform="matrix(-1 0 0 1 650 344)"/>
</clipPath>
<clipPath id="clip2_813_5422">
<rect width="96" height="96" rx="48" transform="matrix(0 1 1 0 394 565)" fill="white"/>
</clipPath>
<clipPath id="clip3_813_5422">
<rect width="96" height="96" rx="48" transform="matrix(0 1 1 0 504 565)" fill="white"/>
</clipPath>
<clipPath id="clip4_813_5422">
<rect width="96" height="96" rx="48" transform="matrix(0 1 1 0 202 565)" fill="white"/>
</clipPath>
</defs>
</svg>
