<svg width="1674" height="975" viewBox="0 0 1674 975" fill="none" xmlns="http://www.w3.org/2000/svg">
<g filter="url(#filter0_d_813_6043)">
<g clip-path="url(#clip0_813_6043)">
<rect x="42" y="35" width="1600" height="900" rx="32" fill="#16B2D4"/>
<path d="M350 325.75C350 289.906 373.125 258.688 405.5 247.703C405.5 245.969 405.5 244.234 405.5 242.5C405.5 191.625 446.547 150 498 150C532.109 150 562.172 169.078 577.781 196.828C586.453 190.469 597.438 187 609 187C639.641 187 664.5 211.859 664.5 242.5C664.5 250.016 662.766 256.375 660.453 262.734C694.562 269.672 720 299.734 720 335C720 376.047 686.469 409 646 409H433.25C387 409 350 372 350 325.75Z" fill="white" fill-opacity="0.8"/>
<path d="M1150 463.786C1150 439.152 1165.88 417.696 1188.1 410.147C1188.1 408.955 1188.1 407.763 1188.1 406.571C1188.1 371.607 1216.28 343 1251.6 343C1275.02 343 1295.65 356.112 1306.37 375.183C1312.32 370.812 1319.86 368.429 1327.8 368.429C1348.83 368.429 1365.9 385.513 1365.9 406.571C1365.9 411.737 1364.71 416.107 1363.12 420.478C1386.54 425.246 1404 445.906 1404 470.143C1404 498.353 1380.98 521 1353.2 521H1207.15C1175.4 521 1150 495.571 1150 463.786Z" fill="white" fill-opacity="0.8"/>
<path d="M572 458.607C572 428.299 591.5 401.902 618.8 392.614C618.8 391.147 618.8 389.681 618.8 388.214C618.8 345.196 653.412 310 696.8 310C725.562 310 750.912 326.132 764.075 349.596C771.387 344.219 780.65 341.286 790.4 341.286C816.237 341.286 837.2 362.306 837.2 388.214C837.2 394.569 835.737 399.946 833.787 405.324C862.55 411.19 884 436.609 884 466.429C884 501.136 855.725 529 821.6 529H642.2C603.2 529 572 497.714 572 458.607Z" fill="white" fill-opacity="0.8"/>
<rect x="733.922" y="385.711" width="218.156" height="244.727" rx="25" fill="#858585"/>
<path d="M952.078 605.438V410.711C952.078 396.904 940.885 385.711 927.078 385.711H859.082V630.438H927.078C940.885 630.438 952.078 619.245 952.078 605.438Z" fill="black" fill-opacity="0.08"/>
<rect x="756.297" y="409.484" width="173.406" height="198.578" fill="#EBEBEB"/>
<rect x="852.789" y="409.484" width="76.9141" height="198.578" fill="black" fill-opacity="0.08"/>
<path d="M842.301 339.562C861.857 339.562 878.433 351.295 884.186 367.531H892.117C905.924 367.531 917.117 378.724 917.117 392.531V420.461C917.117 425.984 912.64 430.461 907.117 430.461H778.883C773.36 430.461 768.883 425.984 768.883 420.461V392.531C768.883 378.724 780.076 367.531 793.883 367.531H800.416C806.168 351.295 822.745 339.562 842.301 339.562ZM843 371.727C835.277 371.727 829.016 377.988 829.016 385.711C829.016 393.434 835.277 399.695 843 399.695C850.723 399.695 856.984 393.434 856.984 385.711C856.984 377.988 850.723 371.727 843 371.727Z" fill="#D6D6D6"/>
<path d="M917.117 416.477V402.492H768.883V416.477C768.883 424.2 775.144 430.461 782.867 430.461H903.133C910.856 430.461 917.117 424.2 917.117 416.477Z" fill="#ADADAD"/>
<path d="M917.117 416.477V402.492H768.883V416.477H917.117Z" fill="#858585"/>
<path d="M917.117 402.492C917.117 383.872 902.56 368.652 884.206 367.591C881.214 359.1 875.263 351.837 867.473 346.833V430.461H903.133C910.856 430.461 917.117 424.2 917.117 416.476V402.492Z" fill="black" fill-opacity="0.08"/>
<rect x="768.883" y="438.852" width="18.1797" height="9.78906" fill="black"/>
<rect x="831.812" y="438.852" width="41.9531" height="9.78906" fill="black"/>
<rect x="799.648" y="438.852" width="23.7734" height="9.78906" fill="black"/>
<rect x="768.883" y="457.031" width="18.1797" height="9.78906" fill="black"/>
<rect x="799.648" y="457.031" width="74.1172" height="9.78906" fill="black"/>
<rect x="768.883" y="475.211" width="18.1797" height="9.78906" fill="black"/>
<rect x="799.648" y="475.211" width="37.7578" height="9.78906" fill="black"/>
<rect x="845.797" y="475.211" width="27.9688" height="9.78906" fill="black"/>
<rect x="768.883" y="493.391" width="18.1797" height="9.78906" fill="black"/>
<rect x="799.648" y="493.391" width="13.9844" height="9.78906" fill="black"/>
<rect x="827.617" y="493.391" width="46.1484" height="9.78906" fill="black"/>
<rect x="768.883" y="511.57" width="18.1797" height="9.78906" fill="black"/>
<rect x="799.648" y="511.57" width="27.9688" height="9.78906" fill="black"/>
<rect x="837.406" y="511.57" width="27.9688" height="9.78906" fill="black"/>
<path d="M843 566.027L864.914 585L912 507" stroke="#228C49" stroke-width="12"/>
<rect x="262.898" y="415.078" width="36.3594" height="138.445" rx="18.1797" fill="black"/>
<rect x="401.344" y="415.078" width="36.3594" height="138.445" rx="18.1797" fill="black"/>
<rect x="316.039" y="415.078" width="18.1797" height="138.445" rx="9.08984" fill="black"/>
<rect x="351" y="415.078" width="36.3594" height="138.445" rx="18.1797" fill="black"/>
<path d="M495.389 424.518V366.148C495.389 358.416 489.121 352.148 481.389 352.148H416.727" stroke="#0068A1" stroke-width="18" stroke-linecap="round"/>
<path d="M206.961 424.518V366.148C206.961 358.416 213.229 352.148 220.961 352.148H285.623" stroke="#0068A1" stroke-width="18" stroke-linecap="round"/>
<path d="M495.389 545.133V603.502C495.389 611.234 489.121 617.502 481.389 617.502H416.727" stroke="#0068A1" stroke-width="18" stroke-linecap="round"/>
<path d="M206.961 545.133V603.502C206.961 611.234 213.229 617.502 220.961 617.502H285.623" stroke="#0068A1" stroke-width="18" stroke-linecap="round"/>
<path d="M1348.07 623.62C1341.25 632.142 1328.18 632.142 1321.37 623.62C1292.39 586.693 1225.92 498.635 1225.92 448.641C1225.92 388.42 1274.78 339.562 1335 339.562C1395.22 339.562 1444.08 388.42 1444.08 448.641C1444.08 498.635 1377.61 586.693 1348.07 623.62ZM1335 412.281C1321.93 412.281 1310 419.667 1303.19 430.461C1296.94 441.823 1296.94 456.026 1303.19 466.82C1310 478.183 1321.93 485 1335 485C1347.5 485 1359.43 478.183 1366.25 466.82C1372.5 456.026 1372.5 441.823 1366.25 430.461C1359.43 419.667 1347.5 412.281 1335 412.281Z" fill="#B31950"/>
<path d="M1366.25 430.461C1372.5 441.823 1372.5 456.026 1366.25 466.82C1364.35 469.979 1362.06 472.787 1359.47 475.194V609.109C1391.92 567.086 1444.08 492.928 1444.08 448.641C1444.08 396.834 1407.92 353.436 1359.47 342.321V422.334C1362.06 424.723 1364.35 427.46 1366.25 430.461Z" fill="#870332"/>
</g>
</g>
<defs>
<filter id="filter0_d_813_6043" x="0.333432" y="0.753282" width="1673.44" height="973.44" filterUnits="userSpaceOnUse" color-interpolation-filters="sRGB">
<feFlood flood-opacity="0" result="BackgroundImageFix"/>
<feColorMatrix in="SourceAlpha" type="matrix" values="0 0 0 0 0 0 0 0 0 0 0 0 0 0 0 0 0 0 127 0" result="hardAlpha"/>
<feOffset dx="-4.94657" dy="2.47328"/>
<feGaussianBlur stdDeviation="18.36"/>
<feComposite in2="hardAlpha" operator="out"/>
<feColorMatrix type="matrix" values="0 0 0 0 0 0 0 0 0 0 0 0 0 0 0 0 0 0 0.1 0"/>
<feBlend mode="normal" in2="BackgroundImageFix" result="effect1_dropShadow_813_6043"/>
<feBlend mode="normal" in="SourceGraphic" in2="effect1_dropShadow_813_6043" result="shape"/>
</filter>
<clipPath id="clip0_813_6043">
<rect x="42" y="35" width="1600" height="900" rx="32" fill="white"/>
</clipPath>
</defs>
</svg>
