<svg xmlns="http://www.w3.org/2000/svg" width="1674" height="975" fill="none"><g filter="url(#a)"><g clip-path="url(#b)"><rect width="1600" height="900" x="42" y="35" fill="#16B2D4" rx="32"/><path fill="#fff" fill-opacity=".8" d="M350 325.75c0-35.844 23.125-67.062 55.5-78.047V242.5c0-50.875 41.047-92.5 92.5-92.5 34.109 0 64.172 19.078 79.781 46.828C586.453 190.469 597.438 187 609 187c30.641 0 55.5 24.859 55.5 55.5 0 7.516-1.734 13.875-4.047 20.234C694.562 269.672 720 299.734 720 335c0 41.047-33.531 74-74 74H433.25C387 409 350 372 350 325.75M1150 463.786c0-24.634 15.88-46.09 38.1-53.639v-3.576c0-34.964 28.18-63.571 63.5-63.571 23.42 0 44.05 13.112 54.77 32.183 5.95-4.371 13.49-6.754 21.43-6.754 21.03 0 38.1 17.084 38.1 38.142 0 5.166-1.19 9.536-2.78 13.907 23.42 4.768 40.88 25.428 40.88 49.665 0 28.21-23.02 50.857-50.8 50.857h-146.05c-31.75 0-57.15-25.429-57.15-57.214"/><path fill="#fff" fill-opacity=".8" d="M572 458.607c0-30.308 19.5-56.705 46.8-65.993v-4.4c0-43.018 34.612-78.214 78-78.214 28.762 0 54.112 16.132 67.275 39.596 7.312-5.377 16.575-8.31 26.325-8.31 25.837 0 46.8 21.02 46.8 46.928 0 6.355-1.463 11.732-3.413 17.11C862.55 411.19 884 436.609 884 466.429 884 501.136 855.725 529 821.6 529H642.2c-39 0-70.2-31.286-70.2-70.393"/><rect width="218.156" height="244.727" x="733.922" y="385.711" fill="#858585" rx="25"/><path fill="#000" fill-opacity=".08" d="M952.078 605.438V410.711c0-13.807-11.193-25-25-25h-67.996v244.727h67.996c13.807 0 25-11.193 25-25"/><path fill="#EBEBEB" d="M756.297 409.484h173.406v198.578H756.297z"/><path fill="#000" fill-opacity=".08" d="M852.789 409.484h76.914v198.578h-76.914z"/><path fill="#D6D6D6" d="M842.301 339.562c19.556 0 36.132 11.733 41.885 27.969h7.931c13.807 0 25 11.193 25 25v27.93c0 5.523-4.477 10-10 10H778.883c-5.523 0-10-4.477-10-10v-27.93c0-13.807 11.193-25 25-25h6.533c5.752-16.236 22.329-27.969 41.885-27.969m.699 32.165c-7.723 0-13.984 6.261-13.984 13.984s6.261 13.984 13.984 13.984 13.984-6.261 13.984-13.984-6.261-13.984-13.984-13.984"/><path fill="#ADADAD" d="M917.117 416.477v-13.985H768.883v13.985c0 7.723 6.261 13.984 13.984 13.984h120.266c7.723 0 13.984-6.261 13.984-13.984"/><path fill="#858585" d="M917.117 416.477v-13.985H768.883v13.985z"/><path fill="#000" fill-opacity=".08" d="M917.117 402.492c0-18.62-14.557-33.84-32.911-34.901-2.992-8.491-8.943-15.754-16.733-20.758v83.628h35.66c7.723 0 13.984-6.261 13.984-13.985z"/><path fill="#000" d="M768.883 438.852h18.18v9.789h-18.18zM831.812 438.852h41.953v9.789h-41.953zM799.648 438.852h23.773v9.789h-23.773zM768.883 457.031h18.18v9.789h-18.18zM799.648 457.031h74.117v9.789h-74.117zM768.883 475.211h18.18V485h-18.18zM799.648 475.211h37.758V485h-37.758zM845.797 475.211h27.969V485h-27.969zM768.883 493.391h18.18v9.789h-18.18zM799.648 493.391h13.984v9.789h-13.984zM827.617 493.391h46.148v9.789h-46.148zM768.883 511.57h18.18v9.789h-18.18zM799.648 511.57h27.969v9.789h-27.969zM837.406 511.57h27.969v9.789h-27.969z"/><path stroke="#228C49" stroke-width="12" d="M843 566.027 864.914 585 912 507"/><rect width="36.359" height="138.445" x="262.898" y="415.078" fill="#000" rx="18.18"/><rect width="36.359" height="138.445" x="401.344" y="415.078" fill="#000" rx="18.18"/><rect width="18.18" height="138.445" x="316.039" y="415.078" fill="#000" rx="9.09"/><rect width="36.359" height="138.445" x="351" y="415.078" fill="#000" rx="18.18"/><path stroke="#0068A1" stroke-linecap="round" stroke-width="18" d="M495.389 424.518v-58.37c0-7.732-6.268-14-14-14h-64.662M206.961 424.518v-58.37c0-7.732 6.268-14 14-14h64.662M495.389 545.133v58.369c0 7.732-6.268 14-14 14h-64.662M206.961 545.133v58.369c0 7.732 6.268 14 14 14h64.662"/><path fill="#B31950" d="M1348.07 623.62c-6.82 8.522-19.89 8.522-26.7 0-28.98-36.927-95.45-124.985-95.45-174.979 0-60.221 48.86-109.079 109.08-109.079s109.08 48.858 109.08 109.079c0 49.994-66.47 138.052-96.01 174.979M1335 412.281c-13.07 0-25 7.386-31.81 18.18-6.25 11.362-6.25 25.565 0 36.359C1310 478.183 1321.93 485 1335 485c12.5 0 24.43-6.817 31.25-18.18 6.25-10.794 6.25-24.997 0-36.359-6.82-10.794-18.75-18.18-31.25-18.18"/><path fill="#870332" d="M1366.25 430.461c6.25 11.362 6.25 25.565 0 36.359a38.5 38.5 0 0 1-6.78 8.374v133.915c32.45-42.023 84.61-116.181 84.61-160.468 0-51.807-36.16-95.205-84.61-106.32v80.013a40.7 40.7 0 0 1 6.78 8.127"/></g></g><defs><clipPath id="b"><rect width="1600" height="900" x="42" y="35" fill="#fff" rx="32"/></clipPath><filter id="a" width="1673.44" height="973.44" x=".333" y=".753" color-interpolation-filters="sRGB" filterUnits="userSpaceOnUse"><feFlood flood-opacity="0" result="BackgroundImageFix"/><feColorMatrix in="SourceAlpha" result="hardAlpha" values="0 0 0 0 0 0 0 0 0 0 0 0 0 0 0 0 0 0 127 0"/><feOffset dx="-4.947" dy="2.473"/><feGaussianBlur stdDeviation="18.36"/><feComposite in2="hardAlpha" operator="out"/><feColorMatrix values="0 0 0 0 0 0 0 0 0 0 0 0 0 0 0 0 0 0 0.1 0"/><feBlend in2="BackgroundImageFix" result="effect1_dropShadow_813_6043"/><feBlend in="SourceGraphic" in2="effect1_dropShadow_813_6043" result="shape"/></filter></defs></svg>