<svg xmlns="http://www.w3.org/2000/svg" width="1674" height="975" fill="none"><g filter="url(#a)"><g clip-path="url(#b)"><rect width="1600" height="900" x="42" y="35" fill="#16B2D4" rx="32"/><path fill="#fff" fill-opacity=".8" d="M237 239.75c0-35.844 23.125-67.062 55.5-78.047V156.5c0-50.875 41.047-92.5 92.5-92.5 34.109 0 64.172 19.078 79.781 46.828C473.453 104.469 484.438 101 496 101c30.641 0 55.5 24.859 55.5 55.5 0 7.516-1.734 13.875-4.047 20.234C581.562 183.672 607 213.734 607 249c0 41.047-33.531 74-74 74H320.25C274 323 237 286 237 239.75M1199 269.786c0-24.634 15.88-46.09 38.1-53.639v-3.576c0-34.964 28.18-63.571 63.5-63.571 23.42 0 44.05 13.112 54.77 32.183 5.95-4.371 13.49-6.754 21.43-6.754 21.03 0 38.1 17.084 38.1 38.142 0 5.166-1.19 9.536-2.78 13.907 23.42 4.768 40.88 25.428 40.88 49.665 0 28.21-23.02 50.857-50.8 50.857h-146.05c-31.75 0-57.15-25.429-57.15-57.214"/><path fill="#fff" fill-opacity=".8" d="M454 327.607c0-30.308 19.5-56.705 46.8-65.993v-4.4c0-43.018 34.612-78.214 78-78.214 28.762 0 54.112 16.132 67.275 39.596 7.312-5.377 16.575-8.31 26.325-8.31 25.837 0 46.8 21.02 46.8 46.928 0 6.355-1.463 11.732-3.413 17.11C744.55 280.19 766 305.609 766 335.429 766 370.136 737.725 398 703.6 398H524.2c-39 0-70.2-31.286-70.2-70.393"/><path fill="#28A656" d="M223 633.669V413.932c0-16.58 9.562-31.885 25.5-38.262l170.85-68.235c4.462-1.913 10.2-1.913 14.662 0l170.85 68.235C620.8 382.047 631 397.352 631 413.932v219.737c0 8.928-7.013-2.916-15.3-2.916h-30.6c-8.925 0-15.3 11.844-15.3 2.916V447.093c0-10.841-9.563-20.407-20.4-20.407H304.6c-11.475 0-20.4 9.566-20.4 20.407v186.576c0 8.928-7.013-2.916-15.3-2.916h-30.6c-8.925 0-15.3 11.844-15.3 2.916"/><path fill="#000" fill-opacity=".08" d="M631 414.061c0-16.571-10.169-31.867-26.059-38.241L483 327v99.808h66.645c10.805 0 20.339 9.56 20.339 20.394v186.469c0 8.922 6.356-2.914 15.254-2.914h30.508c8.263 0 15.254 11.836 15.254 2.914z"/><rect width="437" height="37" x="209" y="621" fill="#228C49" rx="10"/><path stroke="#228C49" stroke-linecap="round" stroke-width="10" d="m219 398 208.455-87L635 398"/><path fill="#76E49E" d="M272 399h308v40H272z"/><path fill="#39C76D" d="M272 410h308v18H272z"/><path fill="#F1D33D" d="M330.685 550.286h71.076v71.076h-71.076z"/><path fill="#C8A802" d="M358.022 550.286h16.402v20.047h-16.402z"/><path fill="#000" fill-opacity=".08" d="M370.779 550.286h30.982v71.076h-30.982z"/><path fill="#F1D33D" d="M330.685 479.21h71.076v71.076h-71.076z"/><path fill="#C8A802" d="M358.022 479.21h16.402v20.047h-16.402z"/><path fill="#000" fill-opacity=".08" d="M370.779 479.21h30.982v71.076h-30.982z"/><path fill="#F1D33D" d="M461.902 550.286h71.076v71.076h-71.076z"/><path fill="#C8A802" d="M489.239 550.286h16.402v20.047h-16.402z"/><path fill="#000" fill-opacity=".08" d="M501.996 550.286h30.982v71.076h-30.982z"/><path fill="#F1D33D" d="M461.902 479.21h71.076v71.076h-71.076z"/><path fill="#C8A802" d="M489.239 479.21h16.402v20.047h-16.402z"/><path fill="#000" fill-opacity=".08" d="M501.996 479.21h30.982v71.076h-30.982z"/><path fill="#F1D33D" d="M259.609 550.286h71.076v71.076h-71.076z"/><path fill="#C8A802" d="M286.946 550.286h16.402v20.047h-16.402z"/><path fill="#000" fill-opacity=".08" d="M299.703 550.286h30.982v71.076h-30.982z"/><path fill="#76E49E" d="M592.107 616.021a5.34 5.34 0 0 1-5.342 5.341h-70.316a5.34 5.34 0 0 1-5.341-5.341v-14.518h80.999zm-5.342-40.22a5.34 5.34 0 0 1 5.342 5.342v14.908h-80.999v-14.908a5.34 5.34 0 0 1 5.341-5.342z"/><path fill="#000" fill-opacity=".08" d="M592.105 616.021v-34.878a5.34 5.34 0 0 0-5.341-5.342h-25.812v45.561h25.812a5.34 5.34 0 0 0 5.341-5.341"/><path fill="#28A656" d="M584.708 596.051h7.399v5.452h-7.399z"/><path fill="#228C49" d="M518.509 596.051h66.201v5.452h-66.201z"/><path fill="#28A656" d="M511.109 596.051h7.399v5.452h-7.399z"/><path fill="#39C76D" d="M520.942 621.362h61.528c2.416 0 4.626-.88 6.327-2.337h-74.182a9.7 9.7 0 0 0 6.327 2.337M511.109 593.714h80.998v2.336h-80.998z"/><circle cx="521.427" cy="586.121" r="2.921" fill="#39C76D"/><path fill="#000" fill-opacity=".08" d="M521.426 589.041a2.92 2.92 0 0 0 1.753-5.257l-3.505 4.673a2.9 2.9 0 0 0 1.752.584"/><circle cx="581.786" cy="586.121" r="2.921" fill="#39C76D"/><path fill="#000" fill-opacity=".08" d="M581.785 589.041a2.92 2.92 0 0 0 1.753-5.257l-3.505 4.673a2.9 2.9 0 0 0 1.752.584"/><circle cx="521.427" cy="611.044" r="2.921" fill="#39C76D"/><path fill="#000" fill-opacity=".08" d="M521.426 613.964a2.92 2.92 0 0 0 1.753-5.257l-3.505 4.673a2.9 2.9 0 0 0 1.752.584"/><circle cx="581.786" cy="611.044" r="2.921" fill="#39C76D"/><path fill="#000" fill-opacity=".08" d="M581.785 613.964a2.92 2.92 0 0 0 1.753-5.257l-3.505 4.673a2.9 2.9 0 0 0 1.752.584"/><path fill="#76E49E" d="M592.107 570.459a5.34 5.34 0 0 1-5.342 5.342h-70.316a5.34 5.34 0 0 1-5.341-5.342v-14.518h80.999zm-5.342-40.22a5.34 5.34 0 0 1 5.342 5.342v14.908h-80.999v-14.908a5.34 5.34 0 0 1 5.341-5.342z"/><path fill="#000" fill-opacity=".08" d="M592.105 570.459v-34.878a5.34 5.34 0 0 0-5.341-5.342h-25.812v45.562h25.812a5.34 5.34 0 0 0 5.341-5.342"/><path fill="#28A656" d="M584.708 550.489h7.399v5.452h-7.399z"/><path fill="#228C49" d="M518.509 550.489h66.201v5.452h-66.201z"/><path fill="#28A656" d="M511.109 550.489h7.399v5.452h-7.399z"/><path fill="#39C76D" d="M520.942 575.8h61.528a9.7 9.7 0 0 0 6.327-2.336h-74.182a9.7 9.7 0 0 0 6.327 2.336M511.109 548.152h80.998v2.336h-80.998z"/><circle cx="521.427" cy="540.559" r="2.921" fill="#39C76D"/><path fill="#000" fill-opacity=".08" d="M521.426 543.48a2.921 2.921 0 0 0 1.753-5.257l-3.505 4.673a2.9 2.9 0 0 0 1.752.584"/><circle cx="581.786" cy="540.559" r="2.921" fill="#39C76D"/><path fill="#000" fill-opacity=".08" d="M581.785 543.48a2.921 2.921 0 0 0 1.753-5.257l-3.505 4.673a2.9 2.9 0 0 0 1.752.584"/><circle cx="521.427" cy="565.482" r="2.921" fill="#39C76D"/><path fill="#000" fill-opacity=".08" d="M521.426 568.403a2.921 2.921 0 0 0 1.753-5.257l-3.505 4.673a2.9 2.9 0 0 0 1.752.584"/><circle cx="581.786" cy="565.482" r="2.921" fill="#39C76D"/><path fill="#000" fill-opacity=".08" d="M581.785 568.403a2.921 2.921 0 0 0 1.753-5.257l-3.505 4.673a2.9 2.9 0 0 0 1.752.584"/><g clip-path="url(#c)"><path fill="#E4C837" d="M295.289 533.279a2 2 0 0 0 3.613 1.716l-1.806-.858zm21.113-35.124.858-1.807-3.613-1.716-.858 1.806 1.807.859zm-19.306 35.982 1.806.858 17.5-36.84-1.806-.858-1.807-.859-17.5 36.841z"/><path fill="#E4C837" d="M315.393 497.776a1.293 1.293 0 0 1-1.673-.795l-.438-1.233a6.513 6.513 0 0 1 3.971-8.362l1.234-.439c.617-.219 1.453.178 1.672.795l.439 1.233a6.51 6.51 0 0 1-3.972 8.362zM312.098 506.81a1.29 1.29 0 0 1-.621-1.744l.561-1.183a6.513 6.513 0 0 1 8.722-3.104l1.182.562c.591.281.902 1.153.621 1.744l-.562 1.183a6.51 6.51 0 0 1-8.721 3.104z"/><path fill="#000" fill-opacity=".08" d="m322.001 504.268.562-1.182c.142-.298.133-.668.014-.997l-11.146 4.012c.116.3.345.557.667.709l1.182.562a6.51 6.51 0 0 0 8.721-3.104"/><path fill="#E4C837" d="M310.573 504.636a1.29 1.29 0 0 1-1.744.621l-1.183-.562a6.51 6.51 0 0 1-3.104-8.721l.562-1.182c.281-.592 1.153-.902 1.744-.621l1.183.562c3.325 1.579 4.648 5.469 3.104 8.721z"/><path fill="#000" fill-opacity=".08" d="m308.031 494.732-1.183-.562c-.298-.141-.668-.132-.997-.013l4.013 11.145c.299-.115.556-.345.709-.666l.562-1.183a6.514 6.514 0 0 0-3.104-8.721"/><path fill="#E4C837" d="M307.736 515.991a1.293 1.293 0 0 1-.621-1.745l.562-1.182a6.51 6.51 0 0 1 8.721-3.104l1.183.562c.591.281.901 1.153.621 1.744l-.562 1.182a6.51 6.51 0 0 1-8.721 3.104z"/><path fill="#000" fill-opacity=".08" d="m317.64 513.449.562-1.183c.141-.298.133-.667.013-.997l-11.145 4.013c.116.3.345.557.666.709l1.183.562a6.51 6.51 0 0 0 8.721-3.104"/><path fill="#E4C837" d="M306.212 513.817a1.294 1.294 0 0 1-1.745.621l-1.182-.562a6.51 6.51 0 0 1-3.104-8.721l.562-1.183c.28-.591 1.153-.901 1.744-.621l1.182.562a6.51 6.51 0 0 1 3.104 8.721z"/><path fill="#000" fill-opacity=".08" d="m303.669 503.913-1.182-.562c-.298-.142-.668-.133-.997-.014l4.012 11.146c.3-.116.557-.345.71-.666l.561-1.183a6.51 6.51 0 0 0-3.104-8.721"/><path fill="#E4C837" d="M303.157 525.631a1.29 1.29 0 0 1-.621-1.744l.562-1.182a6.51 6.51 0 0 1 8.721-3.104l1.182.561c.592.281.902 1.153.621 1.745l-.561 1.182a6.513 6.513 0 0 1-8.722 3.104z"/><path fill="#000" fill-opacity=".08" d="m313.061 523.09.561-1.183c.142-.298.133-.668.014-.997l-11.146 4.012c.116.3.346.557.667.71l1.182.561a6.514 6.514 0 0 0 8.722-3.103"/><path fill="#E4C837" d="M301.632 523.458a1.29 1.29 0 0 1-1.744.62l-1.183-.561a6.515 6.515 0 0 1-3.104-8.722l.562-1.182c.281-.591 1.153-.902 1.744-.621l1.183.562a6.51 6.51 0 0 1 3.104 8.721z"/><path fill="#000" fill-opacity=".08" d="m299.09 513.553-1.183-.561c-.298-.142-.667-.133-.996-.014l4.012 11.146c.3-.116.557-.346.709-.667l.562-1.182a6.513 6.513 0 0 0-3.104-8.722M319.464 487.027c.317.148.585.404.695.715l.439 1.233a6.51 6.51 0 0 1-3.972 8.362l-.774.275-17.554 36.956c-.109.229-.286.537-.612.694-.406.197-.822.102-.822.102l.521-.948 17.082-36.652q-.023-.008-.047-.018z"/></g><g clip-path="url(#d)"><path fill="#E4C837" d="M291.832 535.847a2 2 0 0 0 4-.047l-2 .023zm3.523-40.83-.023-2-4 .047.024 2 2-.024zm-1.523 40.806 2-.023-.477-40.783-1.999.023-2 .024.476 40.783z"/><path fill="#E4C837" d="M294.282 495.121a1.29 1.29 0 0 1-1.851.021l-.937-.915a6.51 6.51 0 0 1-.108-9.256l.915-.936c.458-.469 1.383-.479 1.851-.022l.937.915a6.51 6.51 0 0 1 .108 9.256zM295.294 504.683a1.29 1.29 0 0 1-1.325-1.293l-.015-1.31a6.513 6.513 0 0 1 6.469-6.621l1.309-.016c.654-.007 1.317.64 1.324 1.294l.016 1.309a6.513 6.513 0 0 1-6.469 6.622z"/><path fill="#000" fill-opacity=".08" d="m303.072 498.046-.016-1.309c-.004-.331-.174-.659-.426-.902l-8.247 8.504c.236.218.555.348.911.344l1.309-.016a6.513 6.513 0 0 0 6.469-6.621"/><path fill="#E4C837" d="M292.969 503.401a1.294 1.294 0 0 1-1.294 1.325l-1.309.015a6.513 6.513 0 0 1-6.622-6.469l-.015-1.309c-.008-.655.639-1.317 1.294-1.324l1.309-.016a6.513 6.513 0 0 1 6.621 6.469z"/><path fill="#000" fill-opacity=".08" d="m286.332 495.624-1.309.015c-.331.004-.659.174-.902.426l8.504 8.247a1.3 1.3 0 0 0 .344-.91l-.016-1.31a6.51 6.51 0 0 0-6.621-6.468"/><path fill="#E4C837" d="M295.412 514.846a1.29 1.29 0 0 1-1.324-1.293l-.015-1.309a6.513 6.513 0 0 1 6.469-6.622l1.309-.016c.654-.007 1.316.64 1.324 1.294l.015 1.309a6.513 6.513 0 0 1-6.468 6.622z"/><path fill="#000" fill-opacity=".08" d="m303.19 508.21-.015-1.309c-.004-.33-.174-.659-.426-.902l-8.247 8.504c.236.218.555.348.91.344l1.309-.016a6.513 6.513 0 0 0 6.469-6.621"/><path fill="#E4C837" d="M293.087 513.565a1.29 1.29 0 0 1-1.293 1.325l-1.309.015a6.513 6.513 0 0 1-6.622-6.469l-.015-1.309c-.008-.654.639-1.317 1.293-1.324l1.309-.016a6.513 6.513 0 0 1 6.622 6.469z"/><path fill="#000" fill-opacity=".08" d="m286.45 505.788-1.309.015c-.33.004-.658.174-.901.426l8.503 8.247a1.3 1.3 0 0 0 .344-.91l-.015-1.309a6.513 6.513 0 0 0-6.622-6.469"/><path fill="#E4C837" d="M295.537 525.518a1.29 1.29 0 0 1-1.324-1.294l-.016-1.309a6.513 6.513 0 0 1 6.469-6.621l1.309-.016c.655-.007 1.317.64 1.325 1.294l.015 1.309a6.513 6.513 0 0 1-6.469 6.622z"/><path fill="#000" fill-opacity=".08" d="m303.315 518.882-.015-1.31c-.004-.33-.174-.658-.426-.901l-8.247 8.504c.235.218.554.348.91.344l1.309-.016a6.513 6.513 0 0 0 6.469-6.621"/><path fill="#E4C837" d="M293.212 524.237a1.29 1.29 0 0 1-1.294 1.325l-1.309.015a6.51 6.51 0 0 1-6.621-6.469l-.016-1.309c-.007-.655.639-1.317 1.294-1.324l1.309-.016a6.513 6.513 0 0 1 6.622 6.469z"/><path fill="#000" fill-opacity=".08" d="m286.575 516.46-1.309.015c-.33.004-.658.174-.901.426l8.503 8.247a1.3 1.3 0 0 0 .344-.911l-.015-1.309a6.513 6.513 0 0 0-6.622-6.468M293.214 483.676c.35-.006.703.107.939.337l.936.915a6.51 6.51 0 0 1 .108 9.256l-.574.588.478 40.91c.003.254-.021.608-.244.892a1.37 1.37 0 0 1-.693.453l.051-1.081-.769-40.429-.051.005z"/></g><g clip-path="url(#e)"><path fill="#E4C837" d="M292.306 535.867a2 2 0 0 0 3.531-1.88l-1.766.94zm-15.636-37.881-.94-1.766-3.531 1.88.94 1.765 1.765-.939zm17.401 36.941 1.766-.94-19.167-36.001-1.766.94-1.765.939 19.167 36.002z"/><path fill="#E4C837" d="M275.764 498.571a1.29 1.29 0 0 1-1.634.87l-1.252-.382a6.513 6.513 0 0 1-4.351-8.171l.382-1.252c.191-.627 1.008-1.062 1.635-.871l1.252.383a6.51 6.51 0 0 1 4.35 8.171zM281.057 506.599a1.293 1.293 0 0 1-1.771-.541l-.615-1.155a6.513 6.513 0 0 1 2.702-8.854l1.156-.615c.577-.308 1.463-.038 1.77.54l.616 1.156a6.513 6.513 0 0 1-2.702 8.854z"/><path fill="#000" fill-opacity=".08" d="m284.915 497.129-.616-1.155c-.155-.292-.457-.505-.792-.605l-3.416 11.342c.309.086.652.055.966-.112l1.156-.616a6.513 6.513 0 0 0 2.702-8.854"/><path fill="#E4C837" d="M278.403 506.528c.346.65.11 1.425-.54 1.771l-1.156.615a6.513 6.513 0 0 1-8.854-2.702l-.615-1.155c-.308-.578-.038-1.463.54-1.771l1.156-.615c3.25-1.731 7.162-.476 8.854 2.701z"/><path fill="#000" fill-opacity=".08" d="m268.934 502.671-1.156.615c-.291.155-.504.457-.605.793l11.343 3.416c.086-.31.054-.653-.113-.967l-.615-1.156c-1.692-3.177-5.604-4.432-8.854-2.701"/><path fill="#E4C837" d="M285.834 515.571c-.65.347-1.425.11-1.771-.54l-.615-1.155a6.514 6.514 0 0 1 2.702-8.855l1.155-.615c.578-.307 1.464-.037 1.771.541l.615 1.155a6.51 6.51 0 0 1-2.701 8.854z"/><path fill="#000" fill-opacity=".08" d="m289.691 506.102-.615-1.156c-.155-.291-.457-.504-.792-.604l-3.417 11.342c.31.086.653.054.967-.113l1.156-.615a6.51 6.51 0 0 0 2.701-8.854"/><path fill="#E4C837" d="M283.18 515.501c.346.65.11 1.424-.54 1.77l-1.156.616a6.513 6.513 0 0 1-8.854-2.702l-.615-1.156c-.308-.577-.038-1.463.54-1.77l1.156-.616a6.513 6.513 0 0 1 8.854 2.702z"/><path fill="#000" fill-opacity=".08" d="m273.711 511.643-1.156.616c-.291.155-.504.457-.605.792l11.343 3.416a1.3 1.3 0 0 0-.113-.966l-.615-1.156a6.513 6.513 0 0 0-8.854-2.702"/><path fill="#E4C837" d="M290.85 524.992c-.65.346-1.425.11-1.771-.54l-.615-1.156a6.513 6.513 0 0 1 2.701-8.854l1.156-.615c.578-.307 1.463-.037 1.771.54l.615 1.156a6.513 6.513 0 0 1-2.702 8.854z"/><path fill="#000" fill-opacity=".08" d="m294.707 515.523-.615-1.156c-.155-.291-.457-.504-.793-.605l-3.416 11.343c.31.086.653.054.967-.113l1.155-.615a6.513 6.513 0 0 0 2.702-8.854"/><path fill="#E4C837" d="M288.196 524.922c.346.65.109 1.424-.541 1.77l-1.155.616a6.513 6.513 0 0 1-8.854-2.702l-.616-1.156c-.307-.577-.037-1.463.541-1.771l1.155-.615a6.513 6.513 0 0 1 8.854 2.702z"/><path fill="#000" fill-opacity=".08" d="m278.726 521.064-1.155.615c-.292.156-.505.458-.605.793l11.342 3.416c.086-.31.055-.653-.112-.966l-.616-1.156a6.513 6.513 0 0 0-8.854-2.702M269.555 488.897c.308-.166.673-.228.989-.132l1.252.382a6.513 6.513 0 0 1 4.35 8.171l-.24.786 19.227 36.113c.12.225.261.55.194.905-.084.444-.408.721-.408.721l-.451-.983-19.265-35.553q-.02.014-.043.027z"/></g><path fill="#76E49E" d="M329.965 532.562c-1.247 9.835-9.639 17.444-19.815 17.455l-31.107.035c-10.176.011-18.585-7.579-19.855-17.412zm-70.942-2.412-.001-.073.001-.074zm51.082-20.128c10.293-.011 18.776 7.757 19.893 17.753l-70.854.079c1.094-9.999 9.561-17.786 19.854-17.797z"/><path fill="#000" fill-opacity=".08" d="m310.107 510.022-7.35.008.044 39.995 7.35-.008c11.044-.012 19.988-8.975 19.975-20.02s-8.975-19.987-20.019-19.975"/><path fill="#28A656" d="m323.628 527.783 6.494-.007.005 4.785-6.494.007z"/><path fill="#228C49" d="m265.517 527.848 58.113-.065.005 4.786-58.113.065z"/><path fill="#28A656" d="m259.022 527.854 6.494-.007.005 4.785-6.494.007z"/><path fill="#39C76D" d="m267.678 550.065 54.01-.06a8.52 8.52 0 0 0 5.553-2.057l-65.12.073a8.5 8.5 0 0 0 5.557 2.044M259.018 525.804l71.103-.08.002 2.052-71.103.079z"/><circle cx="268.07" cy="519.127" r="2.564" fill="#39C76D" transform="rotate(-.064 268.07 519.127)"/><path fill="#000" fill-opacity=".08" d="M268.071 521.691a2.565 2.565 0 0 0 1.533-4.616l-3.072 4.105c.429.321.962.512 1.539.511"/><circle cx="321.052" cy="519.069" r="2.564" fill="#39C76D" transform="rotate(-.064 321.052 519.069)"/><path fill="#000" fill-opacity=".08" d="M321.055 521.632a2.563 2.563 0 0 0 1.534-4.616l-3.072 4.105c.428.322.961.512 1.538.511"/><circle cx="268.094" cy="541.006" r="2.564" fill="#39C76D" transform="rotate(-.064 268.094 541.006)"/><path fill="#000" fill-opacity=".08" d="M268.096 543.57a2.564 2.564 0 0 0 1.534-4.616l-3.072 4.105c.428.321.961.511 1.538.511"/><circle cx="321.08" cy="540.946" r="2.564" fill="#39C76D" transform="rotate(-.064 321.08 540.946)"/><path fill="#000" fill-opacity=".08" d="M321.083 543.51a2.562 2.562 0 0 0 1.533-4.616l-3.072 4.105c.429.322.961.512 1.539.511"/><path fill="#28A656" d="M847.331 453.215c6.516 0 12.626 4.464 15.069 10.552l33.804 88.877c.815 2.029 1.222 3.652 1.222 5.681v32.789C888.81 581.24 876.134 575 862 575c-21.416 0-39.485 14.324-45.152 33.913C810.863 589.838 793.049 576 772 576c-20.132 0-37.305 12.658-44 30.449v-55.835c0-17.856 14.255-32.467 32.582-32.467h6.517v-48.699c0-8.928 6.923-16.233 16.29-16.233zm-54.822 13.956a4 4 0 0 0-4 4v36.985c0 1.061.422 2.079 1.173 2.829l41.874 41.851c.75.75 1.767 1.17 2.828 1.17h34.557c2.767 0 4.698-2.741 3.767-5.346l-28.172-78.835a4 4 0 0 0-3.766-2.654z"/><rect width="220.19" height="18.618" x="905.631" y="636.189" fill="#D6D6D6" rx="8" transform="rotate(-90 905.631 636.189)"/><path fill="#858585" d="M919.352 571.063c4.418.001 8 3.582 8 8V628h89.178a4 4 0 1 1 0 8h-95.447a8 8 0 0 1-1.731.189h-8.825a8 8 0 0 1-1.731-.189h-2.269a4 4 0 0 1-3.68-5.57 8 8 0 0 1-.32-2.241v-49.126a8 8 0 0 1 8-8z"/><g clip-path="url(#f)"><rect width="72" height="72" x="826" y="587" fill="#858585" rx="36"/><circle cx="862" cy="623" r="18" fill="#39C76D"/><g style="mix-blend-mode:overlay"><path fill="url(#g)" d="M898 659v-72l-72 72z"/><path fill="#676767" d="M898 659v-72l-72 72z"/></g></g><g clip-path="url(#h)"><rect width="72" height="72" x="736" y="587" fill="#858585" rx="36"/><circle cx="772" cy="623" r="18" fill="#39C76D"/><g style="mix-blend-mode:overlay"><path fill="url(#i)" d="M808 659v-72l-72 72z"/><path fill="#676767" d="M808 659v-72l-72 72z"/></g></g><path fill="#186635" d="M847.331 453.215c6.516 0 12.626 4.464 15.069 10.552l33.804 88.877c.815 2.029 1.222 3.652 1.222 5.681v11.963h-74.008l-56.319-52.141v-48.699c0-8.928 6.923-16.233 16.291-16.233zm-54.822 13.956a4 4 0 0 0-4 4v36.985c0 1.061.422 2.079 1.173 2.829l41.874 41.851c.75.75 1.767 1.17 2.828 1.17h34.557c2.767 0 4.698-2.741 3.767-5.346l-28.172-78.835a4 4 0 0 0-3.766-2.654z"/><path fill="#F1D33D" d="M935 516h104v104H935z"/><path fill="#C8A802" d="M975 516h24v29.333h-24z"/><g style="mix-blend-mode:overlay"><path fill="url(#j)" d="M989 516h50v104h-50z"/><path fill="#676767" d="M989 516h50v104h-50z"/></g><path fill="#39C76D" d="M1385.4 446.465c9.04 0 18.09 3.73 24.48 10.123l40.98 41.024c6.38 6.394 10.11 15.451 10.11 24.508v60.738c9.05.001 17.03 7.992 17.03 17.049 0 9.59-7.98 17.05-17.03 17.05h-22.05c.05-.979.08-1.965.08-2.957 0-30.928-25.07-56-56-56-8.67 0-16.89 1.972-24.22 5.492V446.465z"/><path fill="#ADADAD" d="M1109 440c0-13.807 11.19-25 25-25h200c13.81 0 25 11.193 25 25v74h-250z"/><path fill="#89E1F5" d="M1451.4 497.624a31.3 31.3 0 0 1 9.57 22.523v20.798h-24.37a49 49 0 0 0-3.8-4.924c-9.09-11.292-23.01-18.519-38.62-18.519-6.49.001-18.36 0-18.36 0v-46.885h47.54z"/><path fill="#F4DE70" d="M1449.62 564.388h11.354v18.47h-11.354z"/><path fill="#D6D6D6" d="M1334 445h-134v61h134z"/><g clip-path="url(#k)"><rect width="88" height="88" x="1156" y="570" fill="#858585" rx="44"/><circle cx="1200" cy="614" r="22" fill="#39C76D"/><g style="mix-blend-mode:overlay"><path fill="url(#l)" d="M1244 658v-88l-88 88z"/><path fill="#676767" d="M1244 658v-88l-88 88z"/></g></g><g clip-path="url(#m)"><rect width="88" height="88" x="1339" y="570" fill="#858585" rx="44"/><circle cx="1383" cy="614" r="22" fill="#39C76D"/><g style="mix-blend-mode:overlay"><path fill="url(#n)" d="M1427 658v-88l-88 88z"/><path fill="#676767" d="M1427 658v-88l-88 88z"/></g></g><path fill="#ADADAD" d="M1359 563.39c-17.5 8.311-30 25.427-31.78 45.622-7.15-8.528-19.82-14.196-34.26-14.196-16.5 0-30.69 7.406-36.97 18.022-.62-30.392-25.45-54.838-55.99-54.838-30.93 0-56 25.072-56 56h-23.26c-2.58-4.423-6.65-8.247-11.74-11.11V510h250z"/><path fill="#D6D6D6" d="M1147.59 594.224a55.9 55.9 0 0 0-3.51 22.732H1121c-6.63 0-12-5.373-12-12v-10.732zm183 0a55.9 55.9 0 0 0-3.51 22.732h-71.16a55.907 55.907 0 0 0-3.51-22.732z"/><g style="mix-blend-mode:overlay"><path fill="url(#o)" d="M1399.76 487.489c6.39 6.394 10.12 15.452 10.12 24.509v52.861c-7.98-4.372-17.14-6.859-26.88-6.859-8.67 0-16.89 1.972-24.22 5.492V446.465z"/><path fill="#676767" d="M1399.76 487.489c6.39 6.394 10.12 15.452 10.12 24.509v52.861c-7.98-4.372-17.14-6.859-26.88-6.859-8.67 0-16.89 1.972-24.22 5.492V446.465z"/></g><g style="mix-blend-mode:overlay"><path fill="url(#p)" d="M1339.03 415a27.5 27.5 0 0 1 7.82 4.414c5.81 3.761 10.17 9.359 12.15 15.902v128.496c-9.07 2.504-16.85 9.28-21.93 18.556a42.5 42.5 0 0 0-5.52 11.632H1293V415z"/><path fill="#676767" d="M1339.03 415a27.5 27.5 0 0 1 7.82 4.414c5.81 3.761 10.17 9.359 12.15 15.902v128.496c-9.07 2.504-16.85 9.28-21.93 18.556a42.5 42.5 0 0 0-5.52 11.632H1293V415z"/></g><path fill="#28A656" d="M3 658h1646v275H3z" opacity=".8"/><path fill="url(#q)" fill-opacity=".2" d="M3 661h1645v274H3z" style="mix-blend-mode:color-burn"/><path fill="url(#r)" fill-opacity=".5" d="M4 743h1645v274H4z" style="mix-blend-mode:color-burn"/><path fill="url(#s)" fill-opacity=".5" d="M4 838h1645v274H4z" style="mix-blend-mode:color-burn"/></g></g><defs><linearGradient id="g" x1="866.313" x2="866.313" y1="570.747" y2="681.554" gradientUnits="userSpaceOnUse"><stop stop-color="#D9D9D9"/><stop offset="1" stop-color="#737373"/></linearGradient><linearGradient id="i" x1="776.313" x2="776.313" y1="570.747" y2="681.554" gradientUnits="userSpaceOnUse"><stop stop-color="#D9D9D9"/><stop offset="1" stop-color="#737373"/></linearGradient><linearGradient id="j" x1="1016.99" x2="1016.99" y1="492.523" y2="652.578" gradientUnits="userSpaceOnUse"><stop stop-color="#D9D9D9"/><stop offset="1" stop-color="#737373"/></linearGradient><linearGradient id="l" x1="1205.27" x2="1205.27" y1="550.135" y2="685.566" gradientUnits="userSpaceOnUse"><stop stop-color="#D9D9D9"/><stop offset="1" stop-color="#737373"/></linearGradient><linearGradient id="n" x1="1388.27" x2="1388.27" y1="550.135" y2="685.566" gradientUnits="userSpaceOnUse"><stop stop-color="#D9D9D9"/><stop offset="1" stop-color="#737373"/></linearGradient><linearGradient id="o" x1="1387.39" x2="1387.39" y1="410.264" y2="657.069" gradientUnits="userSpaceOnUse"><stop stop-color="#D9D9D9"/><stop offset="1" stop-color="#737373"/></linearGradient><linearGradient id="p" x1="1330.45" x2="1330.45" y1="375.044" y2="647.445" gradientUnits="userSpaceOnUse"><stop stop-color="#D9D9D9"/><stop offset="1" stop-color="#737373"/></linearGradient><linearGradient id="q" x1="957.688" x2="957.688" y1="694.381" y2="922.83" gradientUnits="userSpaceOnUse"><stop stop-color="#D9D9D9"/><stop offset="1" stop-color="#737373"/></linearGradient><linearGradient id="r" x1="958.688" x2="958.688" y1="776.381" y2="1004.83" gradientUnits="userSpaceOnUse"><stop stop-color="#D9D9D9"/><stop offset="1" stop-color="#737373"/></linearGradient><linearGradient id="s" x1="958.688" x2="958.688" y1="871.381" y2="1099.83" gradientUnits="userSpaceOnUse"><stop stop-color="#D9D9D9"/><stop offset="1" stop-color="#737373"/></linearGradient><clipPath id="b"><rect width="1600" height="900" x="42" y="35" fill="#fff" rx="32"/></clipPath><clipPath id="c"><path fill="#fff" d="M279 496.424 322.337 481l15.424 43.337-43.337 15.424z"/></clipPath><clipPath id="d"><path fill="#fff" d="m261 509.904 32.145-32.905 32.904 32.145-32.144 32.905z"/></clipPath><clipPath id="e"><path fill="#fff" d="M253 526.997 266.425 483l43.998 13.425-13.426 43.997z"/></clipPath><clipPath id="f"><rect width="72" height="72" x="826" y="587" fill="#fff" rx="36"/></clipPath><clipPath id="h"><rect width="72" height="72" x="736" y="587" fill="#fff" rx="36"/></clipPath><clipPath id="k"><rect width="88" height="88" x="1156" y="570" fill="#fff" rx="44"/></clipPath><clipPath id="m"><rect width="88" height="88" x="1339" y="570" fill="#fff" rx="44"/></clipPath><filter id="a" width="1673.44" height="973.44" x=".333" y=".753" color-interpolation-filters="sRGB" filterUnits="userSpaceOnUse"><feFlood flood-opacity="0" result="BackgroundImageFix"/><feColorMatrix in="SourceAlpha" result="hardAlpha" values="0 0 0 0 0 0 0 0 0 0 0 0 0 0 0 0 0 0 127 0"/><feOffset dx="-4.947" dy="2.473"/><feGaussianBlur stdDeviation="18.36"/><feComposite in2="hardAlpha" operator="out"/><feColorMatrix values="0 0 0 0 0 0 0 0 0 0 0 0 0 0 0 0 0 0 0.1 0"/><feBlend in2="BackgroundImageFix" result="effect1_dropShadow_813_5589"/><feBlend in="SourceGraphic" in2="effect1_dropShadow_813_5589" result="shape"/></filter></defs></svg>