<svg width="1674" height="975" viewBox="0 0 1674 975" fill="none" xmlns="http://www.w3.org/2000/svg">
<g filter="url(#filter0_d_813_5589)">
<g clip-path="url(#clip0_813_5589)">
<rect x="42" y="35" width="1600" height="900" rx="32" fill="#16B2D4"/>
<path d="M237 239.75C237 203.906 260.125 172.688 292.5 161.703C292.5 159.969 292.5 158.234 292.5 156.5C292.5 105.625 333.547 64 385 64C419.109 64 449.172 83.0781 464.781 110.828C473.453 104.469 484.438 101 496 101C526.641 101 551.5 125.859 551.5 156.5C551.5 164.016 549.766 170.375 547.453 176.734C581.562 183.672 607 213.734 607 249C607 290.047 573.469 323 533 323H320.25C274 323 237 286 237 239.75Z" fill="white" fill-opacity="0.8"/>
<path d="M1199 269.786C1199 245.152 1214.88 223.696 1237.1 216.147C1237.1 214.955 1237.1 213.763 1237.1 212.571C1237.1 177.607 1265.28 149 1300.6 149C1324.02 149 1344.65 162.112 1355.37 181.183C1361.32 176.812 1368.86 174.429 1376.8 174.429C1397.83 174.429 1414.9 191.513 1414.9 212.571C1414.9 217.737 1413.71 222.107 1412.12 226.478C1435.54 231.246 1453 251.906 1453 276.143C1453 304.353 1429.98 327 1402.2 327H1256.15C1224.4 327 1199 301.571 1199 269.786Z" fill="white" fill-opacity="0.8"/>
<path d="M454 327.607C454 297.299 473.5 270.902 500.8 261.614C500.8 260.147 500.8 258.681 500.8 257.214C500.8 214.196 535.412 179 578.8 179C607.562 179 632.912 195.132 646.075 218.596C653.387 213.219 662.65 210.286 672.4 210.286C698.237 210.286 719.2 231.306 719.2 257.214C719.2 263.569 717.737 268.946 715.787 274.324C744.55 280.19 766 305.609 766 335.429C766 370.136 737.725 398 703.6 398H524.2C485.2 398 454 366.714 454 327.607Z" fill="white" fill-opacity="0.8"/>
<path d="M223 633.669V413.932C223 397.352 232.562 382.047 248.5 375.67L419.35 307.435C423.812 305.522 429.55 305.522 434.012 307.435L604.862 375.67C620.8 382.047 631 397.352 631 413.932V633.669C631 642.597 623.987 630.753 615.7 630.753H585.1C576.175 630.753 569.8 642.597 569.8 633.669V447.093C569.8 436.252 560.237 426.686 549.4 426.686H304.6C293.125 426.686 284.2 436.252 284.2 447.093V633.669C284.2 642.597 277.187 630.753 268.9 630.753H238.3C229.375 630.753 223 642.597 223 633.669Z" fill="#28A656"/>
<path d="M631 414.061C631 397.49 620.831 382.194 604.941 375.82L483 327V426.808H549.645C560.45 426.808 569.984 436.368 569.984 447.202V633.671C569.984 642.593 576.34 630.757 585.238 630.757H615.746C624.009 630.757 631 642.593 631 633.671V414.061Z" fill="black" fill-opacity="0.08"/>
<rect x="209" y="621" width="437" height="37" rx="10" fill="#228C49"/>
<path d="M219 398L427.455 311L635 398" stroke="#228C49" stroke-width="10" stroke-linecap="round"/>
<rect x="272" y="399" width="308" height="40" fill="#76E49E"/>
<rect x="272" y="410" width="308" height="18" fill="#39C76D"/>
<rect x="330.685" y="550.286" width="71.0761" height="71.0761" fill="#F1D33D"/>
<rect x="358.022" y="550.286" width="16.4022" height="20.0471" fill="#C8A802"/>
<rect x="370.779" y="550.286" width="30.9819" height="71.0761" fill="black" fill-opacity="0.08"/>
<rect x="330.685" y="479.21" width="71.0761" height="71.0761" fill="#F1D33D"/>
<rect x="358.022" y="479.21" width="16.4022" height="20.0471" fill="#C8A802"/>
<rect x="370.779" y="479.21" width="30.9819" height="71.0761" fill="black" fill-opacity="0.08"/>
<rect x="461.902" y="550.286" width="71.0761" height="71.0761" fill="#F1D33D"/>
<rect x="489.239" y="550.286" width="16.4022" height="20.0471" fill="#C8A802"/>
<rect x="501.996" y="550.286" width="30.9819" height="71.0761" fill="black" fill-opacity="0.08"/>
<rect x="461.902" y="479.21" width="71.0761" height="71.0761" fill="#F1D33D"/>
<rect x="489.239" y="479.21" width="16.4022" height="20.0471" fill="#C8A802"/>
<rect x="501.996" y="479.21" width="30.9819" height="71.0761" fill="black" fill-opacity="0.08"/>
<rect x="259.609" y="550.286" width="71.0761" height="71.0761" fill="#F1D33D"/>
<rect x="286.946" y="550.286" width="16.4022" height="20.0471" fill="#C8A802"/>
<rect x="299.703" y="550.286" width="30.9819" height="71.0761" fill="black" fill-opacity="0.08"/>
<path d="M592.107 616.021C592.107 618.971 589.715 621.362 586.765 621.362H516.449C513.499 621.362 511.108 618.971 511.108 616.021V601.503H592.107V616.021ZM586.765 575.801C589.715 575.801 592.107 578.192 592.107 581.143V596.051H511.108V581.143C511.108 578.192 513.499 575.801 516.449 575.801H586.765Z" fill="#76E49E"/>
<path d="M592.105 616.021V581.143C592.105 578.192 589.714 575.801 586.764 575.801H560.952V621.362H586.764C589.714 621.362 592.105 618.971 592.105 616.021Z" fill="black" fill-opacity="0.08"/>
<rect x="584.708" y="596.051" width="7.39889" height="5.45181" fill="#28A656"/>
<rect x="518.509" y="596.051" width="66.2006" height="5.45181" fill="#228C49"/>
<rect x="511.109" y="596.051" width="7.39889" height="5.45181" fill="#28A656"/>
<path d="M520.942 621.362H582.47C584.886 621.362 587.096 620.482 588.797 619.025H514.615C516.316 620.482 518.527 621.362 520.942 621.362Z" fill="#39C76D"/>
<rect x="511.109" y="593.714" width="80.9984" height="2.33649" fill="#39C76D"/>
<circle cx="521.427" cy="586.121" r="2.92061" fill="#39C76D"/>
<path d="M521.426 589.041C523.039 589.041 524.347 587.734 524.347 586.121C524.347 585.165 523.888 584.317 523.179 583.784L519.674 588.457C520.162 588.824 520.769 589.041 521.426 589.041Z" fill="black" fill-opacity="0.08"/>
<circle cx="581.786" cy="586.121" r="2.92061" fill="#39C76D"/>
<path d="M581.785 589.041C583.398 589.041 584.706 587.734 584.706 586.121C584.706 585.165 584.247 584.317 583.538 583.784L580.033 588.457C580.521 588.824 581.128 589.041 581.785 589.041Z" fill="black" fill-opacity="0.08"/>
<circle cx="521.427" cy="611.044" r="2.92061" fill="#39C76D"/>
<path d="M521.426 613.964C523.039 613.964 524.347 612.657 524.347 611.044C524.347 610.088 523.888 609.24 523.179 608.707L519.674 613.38C520.162 613.747 520.769 613.964 521.426 613.964Z" fill="black" fill-opacity="0.08"/>
<circle cx="581.786" cy="611.044" r="2.92061" fill="#39C76D"/>
<path d="M581.785 613.964C583.398 613.964 584.706 612.657 584.706 611.044C584.706 610.088 584.247 609.24 583.538 608.707L580.033 613.38C580.521 613.747 581.128 613.964 581.785 613.964Z" fill="black" fill-opacity="0.08"/>
<path d="M592.107 570.459C592.107 573.409 589.715 575.801 586.765 575.801H516.449C513.499 575.801 511.108 573.409 511.108 570.459V555.941H592.107V570.459ZM586.765 530.239C589.715 530.239 592.107 532.631 592.107 535.581V550.489H511.108V535.581C511.108 532.631 513.499 530.239 516.449 530.239H586.765Z" fill="#76E49E"/>
<path d="M592.105 570.459V535.581C592.105 532.631 589.714 530.239 586.764 530.239H560.952V575.801H586.764C589.714 575.801 592.105 573.409 592.105 570.459Z" fill="black" fill-opacity="0.08"/>
<rect x="584.708" y="550.489" width="7.39889" height="5.45181" fill="#28A656"/>
<rect x="518.509" y="550.489" width="66.2006" height="5.45181" fill="#228C49"/>
<rect x="511.109" y="550.489" width="7.39889" height="5.45181" fill="#28A656"/>
<path d="M520.942 575.8H582.47C584.886 575.8 587.096 574.921 588.797 573.464H514.615C516.316 574.921 518.527 575.8 520.942 575.8Z" fill="#39C76D"/>
<rect x="511.109" y="548.152" width="80.9984" height="2.33649" fill="#39C76D"/>
<circle cx="521.427" cy="540.559" r="2.92061" fill="#39C76D"/>
<path d="M521.426 543.48C523.039 543.48 524.347 542.172 524.347 540.559C524.347 539.604 523.888 538.756 523.179 538.223L519.674 542.896C520.162 543.263 520.769 543.48 521.426 543.48Z" fill="black" fill-opacity="0.08"/>
<circle cx="581.786" cy="540.559" r="2.92061" fill="#39C76D"/>
<path d="M581.785 543.48C583.398 543.48 584.706 542.172 584.706 540.559C584.706 539.604 584.247 538.756 583.538 538.223L580.033 542.896C580.521 543.263 581.128 543.48 581.785 543.48Z" fill="black" fill-opacity="0.08"/>
<circle cx="521.427" cy="565.482" r="2.92061" fill="#39C76D"/>
<path d="M521.426 568.403C523.039 568.403 524.347 567.095 524.347 565.482C524.347 564.527 523.888 563.678 523.179 563.146L519.674 567.819C520.162 568.185 520.769 568.403 521.426 568.403Z" fill="black" fill-opacity="0.08"/>
<circle cx="581.786" cy="565.482" r="2.92061" fill="#39C76D"/>
<path d="M581.785 568.403C583.398 568.403 584.706 567.095 584.706 565.482C584.706 564.527 584.247 563.678 583.538 563.146L580.033 567.819C580.521 568.185 581.128 568.403 581.785 568.403Z" fill="black" fill-opacity="0.08"/>
<g clip-path="url(#clip1_813_5589)">
<path d="M295.289 533.279C294.815 534.277 295.24 535.47 296.237 535.944C297.235 536.418 298.428 535.993 298.902 534.995L297.096 534.137L295.289 533.279ZM316.402 498.155L317.26 496.348L313.647 494.632L312.789 496.438L314.596 497.297L316.402 498.155ZM297.096 534.137L298.902 534.995L316.402 498.155L314.596 497.297L312.789 496.438L295.289 533.279L297.096 534.137Z" fill="#E4C837"/>
<path d="M315.393 497.776C314.699 498.023 313.967 497.675 313.72 496.981L313.282 495.748C312.074 492.356 313.785 488.621 317.253 487.386L318.487 486.947C319.104 486.728 319.94 487.125 320.159 487.742L320.598 488.975C321.833 492.444 320.018 496.13 316.626 497.337L315.393 497.776Z" fill="#E4C837"/>
<path d="M312.098 506.81C311.432 506.494 311.161 505.731 311.477 505.066L312.038 503.883C313.583 500.631 317.434 499.199 320.76 500.779L321.942 501.341C322.533 501.622 322.844 502.494 322.563 503.085L322.001 504.268C320.421 507.594 316.532 508.917 313.28 507.372L312.098 506.81Z" fill="#E4C837"/>
<path d="M322.001 504.268L322.563 503.086C322.705 502.788 322.696 502.418 322.577 502.089L311.431 506.101C311.547 506.401 311.776 506.658 312.098 506.81L313.28 507.372C316.532 508.917 320.421 507.594 322.001 504.268Z" fill="black" fill-opacity="0.08"/>
<path d="M310.573 504.636C310.257 505.301 309.494 505.573 308.829 505.257L307.646 504.695C304.394 503.151 302.962 499.3 304.542 495.974L305.104 494.792C305.385 494.2 306.257 493.89 306.848 494.171L308.031 494.733C311.356 496.312 312.679 500.202 311.135 503.454L310.573 504.636Z" fill="#E4C837"/>
<path d="M308.031 494.732L306.848 494.17C306.55 494.029 306.18 494.038 305.851 494.157L309.864 505.302C310.163 505.187 310.42 504.957 310.573 504.636L311.135 503.453C312.679 500.201 311.356 496.312 308.031 494.732Z" fill="black" fill-opacity="0.08"/>
<path d="M307.736 515.991C307.071 515.675 306.799 514.912 307.115 514.246L307.677 513.064C309.222 509.812 313.072 508.38 316.398 509.96L317.581 510.522C318.172 510.803 318.482 511.675 318.202 512.266L317.64 513.448C316.06 516.774 312.171 518.097 308.919 516.552L307.736 515.991Z" fill="#E4C837"/>
<path d="M317.64 513.449L318.202 512.266C318.343 511.968 318.335 511.599 318.215 511.269L307.07 515.282C307.186 515.582 307.415 515.839 307.736 515.991L308.919 516.553C312.171 518.098 316.06 516.775 317.64 513.449Z" fill="black" fill-opacity="0.08"/>
<path d="M306.212 513.817C305.896 514.482 305.132 514.754 304.467 514.438L303.285 513.876C300.033 512.331 298.601 508.481 300.181 505.155L300.743 503.972C301.023 503.381 301.896 503.071 302.487 503.351L303.669 503.913C306.995 505.493 308.318 509.382 306.773 512.634L306.212 513.817Z" fill="#E4C837"/>
<path d="M303.669 503.913L302.487 503.351C302.189 503.209 301.819 503.218 301.49 503.337L305.502 514.483C305.802 514.367 306.059 514.138 306.212 513.817L306.773 512.634C308.318 509.382 306.995 505.493 303.669 503.913Z" fill="black" fill-opacity="0.08"/>
<path d="M303.157 525.631C302.492 525.315 302.22 524.552 302.536 523.887L303.098 522.705C304.642 519.453 308.493 518.021 311.819 519.601L313.001 520.162C313.593 520.443 313.903 521.315 313.622 521.907L313.061 523.089C311.481 526.415 307.591 527.738 304.339 526.193L303.157 525.631Z" fill="#E4C837"/>
<path d="M313.061 523.09L313.622 521.907C313.764 521.609 313.755 521.239 313.636 520.91L302.49 524.922C302.606 525.222 302.836 525.479 303.157 525.632L304.339 526.193C307.591 527.738 311.481 526.415 313.061 523.09Z" fill="black" fill-opacity="0.08"/>
<path d="M301.632 523.458C301.316 524.123 300.553 524.394 299.888 524.078L298.705 523.517C295.454 521.972 294.022 518.121 295.601 514.795L296.163 513.613C296.444 513.022 297.316 512.711 297.907 512.992L299.09 513.554C302.416 515.134 303.739 519.023 302.194 522.275L301.632 523.458Z" fill="#E4C837"/>
<path d="M299.09 513.553L297.907 512.992C297.609 512.85 297.24 512.859 296.911 512.978L300.923 524.124C301.223 524.008 301.48 523.778 301.632 523.457L302.194 522.275C303.739 519.023 302.416 515.133 299.09 513.553Z" fill="black" fill-opacity="0.08"/>
<path d="M319.464 487.027C319.781 487.175 320.049 487.431 320.159 487.742L320.598 488.975C321.833 492.444 320.018 496.13 316.626 497.337L315.852 497.612L298.298 534.568C298.189 534.797 298.012 535.105 297.686 535.262C297.28 535.459 296.864 535.364 296.864 535.364L297.385 534.416L314.467 497.764C314.452 497.758 314.435 497.753 314.42 497.746L319.464 487.027Z" fill="black" fill-opacity="0.08"/>
</g>
<g clip-path="url(#clip2_813_5589)">
<path d="M291.832 535.847C291.845 536.951 292.751 537.836 293.855 537.823C294.96 537.81 295.845 536.904 295.832 535.8L293.832 535.823L291.832 535.847ZM295.355 495.017L295.332 493.017L291.332 493.064L291.356 495.064L293.356 495.04L295.355 495.017ZM293.832 535.823L295.832 535.8L295.355 495.017L293.356 495.04L291.356 495.064L291.832 535.847L293.832 535.823Z" fill="#E4C837"/>
<path d="M294.282 495.121C293.768 495.647 292.958 495.657 292.431 495.142L291.494 494.227C288.919 491.712 288.813 487.605 291.386 484.971L292.301 484.035C292.759 483.566 293.684 483.556 294.152 484.013L295.089 484.928C297.723 487.501 297.713 491.609 295.197 494.184L294.282 495.121Z" fill="#E4C837"/>
<path d="M295.294 504.683C294.557 504.692 293.978 504.126 293.969 503.39L293.954 502.08C293.912 498.481 296.741 495.502 300.423 495.459L301.732 495.443C302.386 495.436 303.049 496.083 303.056 496.737L303.072 498.046C303.115 501.728 300.203 504.626 296.603 504.668L295.294 504.683Z" fill="#E4C837"/>
<path d="M303.072 498.046L303.056 496.737C303.052 496.406 302.882 496.078 302.63 495.835L294.383 504.339C294.619 504.557 294.938 504.687 295.294 504.683L296.603 504.667C300.203 504.625 303.115 501.727 303.072 498.046Z" fill="black" fill-opacity="0.08"/>
<path d="M292.969 503.401C292.977 504.138 292.411 504.717 291.675 504.726L290.366 504.741C286.766 504.783 283.787 501.954 283.744 498.272L283.729 496.963C283.721 496.308 284.368 495.646 285.023 495.639L286.332 495.623C290.013 495.58 292.911 498.492 292.953 502.092L292.969 503.401Z" fill="#E4C837"/>
<path d="M286.332 495.624L285.023 495.639C284.692 495.643 284.364 495.813 284.121 496.065L292.625 504.312C292.843 504.076 292.973 503.757 292.969 503.402L292.953 502.092C292.911 498.493 290.013 495.581 286.332 495.624Z" fill="black" fill-opacity="0.08"/>
<path d="M295.412 514.846C294.676 514.855 294.097 514.289 294.088 513.553L294.073 512.244C294.031 508.644 296.86 505.665 300.542 505.622L301.851 505.606C302.505 505.599 303.167 506.246 303.175 506.9L303.19 508.209C303.233 511.891 300.321 514.789 296.722 514.831L295.412 514.846Z" fill="#E4C837"/>
<path d="M303.19 508.21L303.175 506.901C303.171 506.571 303.001 506.242 302.749 505.999L294.502 514.503C294.738 514.721 295.057 514.851 295.412 514.847L296.721 514.831C300.321 514.789 303.233 511.891 303.19 508.21Z" fill="black" fill-opacity="0.08"/>
<path d="M293.087 513.565C293.096 514.302 292.53 514.881 291.794 514.89L290.485 514.905C286.885 514.947 283.906 512.118 283.863 508.436L283.848 507.127C283.84 506.473 284.487 505.81 285.141 505.803L286.45 505.787C290.132 505.744 293.03 508.656 293.072 512.256L293.087 513.565Z" fill="#E4C837"/>
<path d="M286.45 505.788L285.141 505.803C284.811 505.807 284.483 505.977 284.24 506.229L292.743 514.476C292.962 514.24 293.092 513.921 293.087 513.566L293.072 512.257C293.03 508.657 290.132 505.745 286.45 505.788Z" fill="black" fill-opacity="0.08"/>
<path d="M295.537 525.518C294.801 525.527 294.221 524.961 294.213 524.224L294.197 522.915C294.155 519.316 296.985 516.337 300.666 516.294L301.975 516.278C302.63 516.271 303.292 516.918 303.3 517.572L303.315 518.881C303.358 522.563 300.446 525.461 296.846 525.503L295.537 525.518Z" fill="#E4C837"/>
<path d="M303.315 518.882L303.3 517.572C303.296 517.242 303.126 516.914 302.874 516.671L294.627 525.175C294.862 525.393 295.181 525.523 295.537 525.519L296.846 525.503C300.446 525.461 303.358 522.563 303.315 518.882Z" fill="black" fill-opacity="0.08"/>
<path d="M293.212 524.237C293.221 524.974 292.655 525.553 291.918 525.562L290.609 525.577C287.009 525.619 284.031 522.79 283.988 519.108L283.972 517.799C283.965 517.144 284.611 516.482 285.266 516.475L286.575 516.459C290.257 516.416 293.155 519.328 293.197 522.928L293.212 524.237Z" fill="#E4C837"/>
<path d="M286.575 516.46L285.266 516.475C284.936 516.479 284.608 516.649 284.365 516.901L292.868 525.148C293.086 524.912 293.216 524.593 293.212 524.237L293.197 522.928C293.155 519.329 290.257 516.417 286.575 516.46Z" fill="black" fill-opacity="0.08"/>
<path d="M293.214 483.676C293.564 483.67 293.917 483.783 294.153 484.013L295.089 484.928C297.723 487.501 297.713 491.609 295.197 494.184L294.623 494.772L295.101 535.682C295.104 535.936 295.08 536.29 294.857 536.574C294.578 536.93 294.164 537.027 294.164 537.027L294.215 535.946L293.446 495.517C293.429 495.518 293.412 495.521 293.395 495.522L293.214 483.676Z" fill="black" fill-opacity="0.08"/>
</g>
<g clip-path="url(#clip3_813_5589)">
<path d="M292.306 535.867C292.825 536.842 294.036 537.211 295.011 536.692C295.986 536.173 296.356 534.962 295.837 533.987L294.071 534.927L292.306 535.867ZM276.67 497.986L275.73 496.22L272.199 498.1L273.139 499.865L274.904 498.926L276.67 497.986ZM294.071 534.927L295.837 533.987L276.67 497.986L274.904 498.926L273.139 499.865L292.306 535.867L294.071 534.927Z" fill="#E4C837"/>
<path d="M275.764 498.571C275.549 499.275 274.834 499.656 274.13 499.441L272.878 499.059C269.434 498.008 267.453 494.409 268.527 490.888L268.909 489.636C269.1 489.009 269.917 488.574 270.544 488.765L271.796 489.148C275.317 490.222 277.197 493.875 276.146 497.319L275.764 498.571Z" fill="#E4C837"/>
<path d="M281.057 506.599C280.407 506.945 279.633 506.708 279.286 506.058L278.671 504.903C276.979 501.725 278.123 497.779 281.373 496.049L282.529 495.434C283.106 495.126 283.992 495.396 284.299 495.974L284.915 497.13C286.645 500.38 285.391 504.292 282.213 505.984L281.057 506.599Z" fill="#E4C837"/>
<path d="M284.915 497.129L284.299 495.974C284.144 495.682 283.842 495.469 283.507 495.369L280.091 506.711C280.4 506.797 280.743 506.766 281.057 506.599L282.213 505.983C285.391 504.291 286.645 500.379 284.915 497.129Z" fill="black" fill-opacity="0.08"/>
<path d="M278.403 506.528C278.749 507.178 278.513 507.953 277.863 508.299L276.707 508.914C273.529 510.606 269.583 509.462 267.853 506.212L267.238 505.057C266.93 504.479 267.2 503.594 267.778 503.286L268.934 502.671C272.184 500.94 276.096 502.195 277.788 505.372L278.403 506.528Z" fill="#E4C837"/>
<path d="M268.934 502.671L267.778 503.286C267.487 503.441 267.274 503.743 267.173 504.079L278.516 507.495C278.602 507.185 278.57 506.842 278.403 506.528L277.788 505.372C276.096 502.195 272.184 500.94 268.934 502.671Z" fill="black" fill-opacity="0.08"/>
<path d="M285.834 515.571C285.184 515.918 284.409 515.681 284.063 515.031L283.448 513.876C281.756 510.698 282.9 506.752 286.15 505.021L287.305 504.406C287.883 504.099 288.769 504.369 289.076 504.947L289.691 506.102C291.422 509.352 290.168 513.264 286.99 514.956L285.834 515.571Z" fill="#E4C837"/>
<path d="M289.691 506.102L289.076 504.946C288.921 504.655 288.619 504.442 288.284 504.342L284.867 515.684C285.177 515.77 285.52 515.738 285.834 515.571L286.99 514.956C290.168 513.264 291.422 509.352 289.691 506.102Z" fill="black" fill-opacity="0.08"/>
<path d="M283.18 515.501C283.526 516.151 283.29 516.925 282.64 517.271L281.484 517.887C278.306 519.579 274.36 518.435 272.63 515.185L272.015 514.029C271.707 513.452 271.977 512.566 272.555 512.259L273.711 511.643C276.961 509.913 280.873 511.167 282.565 514.345L283.18 515.501Z" fill="#E4C837"/>
<path d="M273.711 511.643L272.555 512.259C272.264 512.414 272.051 512.716 271.95 513.051L283.293 516.467C283.378 516.158 283.347 515.815 283.18 515.501L282.565 514.345C280.873 511.167 276.961 509.913 273.711 511.643Z" fill="black" fill-opacity="0.08"/>
<path d="M290.85 524.992C290.2 525.338 289.425 525.102 289.079 524.452L288.464 523.296C286.772 520.119 287.915 516.173 291.165 514.442L292.321 513.827C292.899 513.52 293.784 513.79 294.092 514.367L294.707 515.523C296.437 518.773 295.183 522.685 292.005 524.377L290.85 524.992Z" fill="#E4C837"/>
<path d="M294.707 515.523L294.092 514.367C293.937 514.076 293.635 513.863 293.299 513.762L289.883 525.105C290.193 525.191 290.536 525.159 290.85 524.992L292.005 524.377C295.183 522.685 296.437 518.773 294.707 515.523Z" fill="black" fill-opacity="0.08"/>
<path d="M288.196 524.922C288.542 525.572 288.305 526.346 287.655 526.692L286.5 527.308C283.322 529 279.376 527.856 277.646 524.606L277.03 523.45C276.723 522.873 276.993 521.987 277.571 521.679L278.726 521.064C281.976 519.334 285.888 520.588 287.58 523.766L288.196 524.922Z" fill="#E4C837"/>
<path d="M278.726 521.064L277.571 521.679C277.279 521.835 277.066 522.137 276.966 522.472L288.308 525.888C288.394 525.578 288.363 525.235 288.196 524.922L287.58 523.766C285.888 520.588 281.976 519.334 278.726 521.064Z" fill="black" fill-opacity="0.08"/>
<path d="M269.555 488.897C269.863 488.731 270.228 488.669 270.544 488.765L271.796 489.147C275.317 490.222 277.197 493.875 276.146 497.318L275.906 498.104L295.133 534.217C295.253 534.442 295.394 534.767 295.327 535.122C295.243 535.566 294.919 535.843 294.919 535.843L294.468 534.86L275.203 499.307C275.189 499.316 275.175 499.326 275.16 499.334L269.555 488.897Z" fill="black" fill-opacity="0.08"/>
</g>
<path d="M329.965 532.562C328.718 542.397 320.326 550.006 310.15 550.017L279.043 550.052C268.867 550.063 260.458 542.473 259.188 532.64L329.965 532.562ZM259.023 530.15C259.023 530.126 259.022 530.102 259.022 530.077C259.022 530.052 259.023 530.028 259.023 530.003L259.023 530.15ZM310.105 510.022C320.398 510.011 328.881 517.779 329.998 527.775L259.144 527.854C260.238 517.855 268.705 510.068 278.998 510.057L310.105 510.022Z" fill="#76E49E"/>
<path d="M310.107 510.022L302.757 510.03L302.801 550.025L310.151 550.017C321.195 550.005 330.139 541.042 330.126 529.997C330.114 518.953 321.151 510.01 310.107 510.022Z" fill="black" fill-opacity="0.08"/>
<rect x="323.628" y="527.783" width="6.49446" height="4.78539" transform="rotate(-0.0637727 323.628 527.783)" fill="#28A656"/>
<rect x="265.517" y="527.848" width="58.1127" height="4.78575" transform="rotate(-0.0637727 265.517 527.848)" fill="#228C49"/>
<rect x="259.022" y="527.854" width="6.49446" height="4.78539" transform="rotate(-0.0637727 259.022 527.854)" fill="#28A656"/>
<path d="M267.678 550.065L321.688 550.005C323.809 550.003 325.748 549.228 327.241 547.948L262.121 548.021C263.616 549.298 265.557 550.068 267.678 550.065Z" fill="#39C76D"/>
<rect x="259.018" y="525.804" width="71.1026" height="2.05104" transform="rotate(-0.0637727 259.018 525.804)" fill="#39C76D"/>
<circle cx="268.07" cy="519.127" r="2.5636" transform="rotate(-0.0637727 268.07 519.127)" fill="#39C76D"/>
<path d="M268.071 521.691C269.487 521.689 270.633 520.54 270.632 519.124C270.631 518.286 270.227 517.542 269.604 517.075L266.532 521.18C266.961 521.501 267.494 521.692 268.071 521.691Z" fill="black" fill-opacity="0.08"/>
<circle cx="321.052" cy="519.069" r="2.5636" transform="rotate(-0.0637727 321.052 519.069)" fill="#39C76D"/>
<path d="M321.055 521.632C322.471 521.631 323.618 520.482 323.616 519.066C323.615 518.227 323.212 517.483 322.589 517.016L319.517 521.121C319.945 521.443 320.478 521.633 321.055 521.632Z" fill="black" fill-opacity="0.08"/>
<circle cx="268.094" cy="541.006" r="2.5636" transform="rotate(-0.0637727 268.094 541.006)" fill="#39C76D"/>
<path d="M268.096 543.57C269.512 543.568 270.659 542.419 270.657 541.003C270.656 540.165 270.253 539.421 269.63 538.954L266.558 543.059C266.986 543.38 267.519 543.57 268.096 543.57Z" fill="black" fill-opacity="0.08"/>
<circle cx="321.08" cy="540.946" r="2.5636" transform="rotate(-0.0637727 321.08 540.946)" fill="#39C76D"/>
<path d="M321.083 543.51C322.498 543.509 323.645 542.36 323.643 540.944C323.642 540.105 323.239 539.361 322.616 538.894L319.544 542.999C319.973 543.321 320.505 543.511 321.083 543.51Z" fill="black" fill-opacity="0.08"/>
<path d="M847.331 453.215C853.847 453.215 859.957 457.679 862.4 463.767L896.204 552.644C897.019 554.673 897.426 556.296 897.426 558.325V591.114C888.81 581.24 876.134 575 862 575C840.584 575 822.515 589.324 816.848 608.913C810.863 589.838 793.049 576 772 576C751.868 576 734.695 588.658 728 606.449V550.614C728 532.758 742.255 518.147 760.582 518.147H767.099V469.448C767.099 460.52 774.022 453.215 783.389 453.215H847.331ZM792.509 467.171C790.3 467.171 788.509 468.962 788.509 471.171V508.156C788.509 509.217 788.931 510.235 789.682 510.985L831.556 552.836C832.306 553.586 833.323 554.006 834.384 554.006H868.941C871.708 554.006 873.639 551.265 872.708 548.66L844.536 469.825C843.967 468.234 842.46 467.171 840.77 467.171H792.509Z" fill="#28A656"/>
<rect x="905.631" y="636.189" width="220.19" height="18.6182" rx="8" transform="rotate(-90 905.631 636.189)" fill="#D6D6D6"/>
<path d="M919.352 571.063C923.77 571.064 927.352 574.645 927.352 579.063V628H1016.53C1018.74 628 1020.53 629.791 1020.53 632C1020.53 634.209 1018.74 636 1016.53 636H921.083C920.525 636.123 919.946 636.189 919.352 636.189H910.527C909.933 636.189 909.354 636.123 908.796 636H906.527C904.318 636 902.527 634.209 902.527 632C902.527 631.443 902.641 630.912 902.847 630.43C902.64 629.719 902.527 628.967 902.527 628.189V579.063C902.527 574.645 906.109 571.063 910.527 571.063H919.352Z" fill="#858585"/>
<g clip-path="url(#clip4_813_5589)">
<rect x="826" y="587" width="72" height="72" rx="36" fill="#858585"/>
<circle cx="862" cy="623" r="18" fill="#39C76D"/>
<g style="mix-blend-mode:overlay">
<path d="M898 659V587L826 659H898Z" fill="url(#paint0_linear_813_5589)"/>
<path d="M898 659V587L826 659H898Z" fill="#676767"/>
</g>
</g>
<g clip-path="url(#clip5_813_5589)">
<rect x="736" y="587" width="72" height="72" rx="36" fill="#858585"/>
<circle cx="772" cy="623" r="18" fill="#39C76D"/>
<g style="mix-blend-mode:overlay">
<path d="M808 659V587L736 659H808Z" fill="url(#paint1_linear_813_5589)"/>
<path d="M808 659V587L736 659H808Z" fill="#676767"/>
</g>
</g>
<path d="M847.331 453.215C853.847 453.215 859.957 457.679 862.4 463.767L896.204 552.644C897.019 554.673 897.426 556.296 897.426 558.325V570.288H823.418L767.099 518.147V469.448C767.099 460.52 774.022 453.215 783.39 453.215H847.331ZM792.509 467.171C790.3 467.171 788.509 468.962 788.509 471.171V508.156C788.509 509.217 788.931 510.235 789.682 510.985L831.556 552.836C832.306 553.586 833.323 554.006 834.384 554.006H868.941C871.708 554.006 873.639 551.265 872.708 548.66L844.536 469.825C843.967 468.234 842.46 467.171 840.77 467.171H792.509Z" fill="#186635"/>
<rect x="935" y="516" width="104" height="104" fill="#F1D33D"/>
<rect x="975" y="516" width="24" height="29.3333" fill="#C8A802"/>
<g style="mix-blend-mode:overlay">
<rect x="989" y="516" width="50" height="104" fill="url(#paint2_linear_813_5589)"/>
<rect x="989" y="516" width="50" height="104" fill="#676767"/>
</g>
<path d="M1385.4 446.465C1394.44 446.465 1403.49 450.195 1409.88 456.588L1450.86 497.612C1457.24 504.006 1460.97 513.063 1460.97 522.12V582.858C1470.02 582.859 1478 590.85 1478 599.907C1478 609.497 1470.02 616.957 1460.97 616.957H1438.92C1438.97 615.978 1439 614.992 1439 614C1439 583.072 1413.93 558 1383 558C1374.33 558 1366.11 559.972 1358.78 563.492V446.465H1385.4Z" fill="#39C76D"/>
<path d="M1109 440C1109 426.193 1120.19 415 1134 415H1334C1347.81 415 1359 426.193 1359 440V514H1109V440Z" fill="#ADADAD"/>
<path d="M1451.4 497.624C1457.51 503.517 1460.97 511.649 1460.97 520.147V540.945H1436.6C1435.44 539.224 1434.17 537.579 1432.8 536.021C1423.71 524.729 1409.79 517.502 1394.18 517.502C1387.69 517.503 1375.82 517.502 1375.82 517.502V470.617H1423.36L1451.4 497.624Z" fill="#89E1F5"/>
<rect x="1449.62" y="564.388" width="11.3538" height="18.4699" fill="#F4DE70"/>
<rect width="134" height="61" transform="matrix(-1 0 0 1 1334 445)" fill="#D6D6D6"/>
<g clip-path="url(#clip6_813_5589)">
<rect x="1156" y="570" width="88" height="88" rx="44" fill="#858585"/>
<circle cx="1200" cy="614" r="22" fill="#39C76D"/>
<g style="mix-blend-mode:overlay">
<path d="M1244 658V570L1156 658H1244Z" fill="url(#paint3_linear_813_5589)"/>
<path d="M1244 658V570L1156 658H1244Z" fill="#676767"/>
</g>
</g>
<g clip-path="url(#clip7_813_5589)">
<rect x="1339" y="570" width="88" height="88" rx="44" fill="#858585"/>
<circle cx="1383" cy="614" r="22" fill="#39C76D"/>
<g style="mix-blend-mode:overlay">
<path d="M1427 658V570L1339 658H1427Z" fill="url(#paint4_linear_813_5589)"/>
<path d="M1427 658V570L1339 658H1427Z" fill="#676767"/>
</g>
</g>
<path d="M1359 563.39C1341.5 571.701 1329 588.817 1327.22 609.012C1320.07 600.484 1307.4 594.816 1292.96 594.816C1276.46 594.816 1262.27 602.222 1255.99 612.838C1255.37 582.446 1230.54 558 1200 558C1169.07 558 1144 583.072 1144 614H1120.74C1118.16 609.577 1114.09 605.753 1109 602.89V510H1359V563.39Z" fill="#ADADAD"/>
<path d="M1147.59 594.224C1145.27 600.373 1144 607.038 1144 614C1144 614.992 1144.03 615.977 1144.08 616.956H1121C1114.37 616.956 1109 611.583 1109 604.956V594.224H1147.59ZM1330.59 594.224C1328.27 600.373 1327 607.038 1327 614C1327 614.992 1327.03 615.977 1327.08 616.956H1255.92C1255.97 615.977 1256 614.992 1256 614C1256 607.038 1254.73 600.373 1252.41 594.224H1330.59Z" fill="#D6D6D6"/>
<g style="mix-blend-mode:overlay">
<path d="M1399.76 487.489C1406.15 493.883 1409.88 502.941 1409.88 511.998V564.859C1401.9 560.487 1392.74 558 1383 558C1374.33 558 1366.11 559.972 1358.78 563.492V446.465L1399.76 487.489Z" fill="url(#paint5_linear_813_5589)"/>
<path d="M1399.76 487.489C1406.15 493.883 1409.88 502.941 1409.88 511.998V564.859C1401.9 560.487 1392.74 558 1383 558C1374.33 558 1366.11 559.972 1358.78 563.492V446.465L1399.76 487.489Z" fill="#676767"/>
</g>
<g style="mix-blend-mode:overlay">
<path d="M1339.03 415C1341.86 416.028 1344.5 417.528 1346.85 419.414C1352.66 423.175 1357.02 428.773 1359 435.316V563.812C1349.93 566.316 1342.15 573.092 1337.07 582.368C1334.7 585.86 1332.82 589.779 1331.55 594H1293V415H1339.03Z" fill="url(#paint6_linear_813_5589)"/>
<path d="M1339.03 415C1341.86 416.028 1344.5 417.528 1346.85 419.414C1352.66 423.175 1357.02 428.773 1359 435.316V563.812C1349.93 566.316 1342.15 573.092 1337.07 582.368C1334.7 585.86 1332.82 589.779 1331.55 594H1293V415H1339.03Z" fill="#676767"/>
</g>
<rect opacity="0.8" x="3" y="658" width="1646" height="275" fill="#28A656"/>
<g style="mix-blend-mode:color-burn">
<rect x="3" y="661" width="1645" height="274" fill="url(#paint7_linear_813_5589)" fill-opacity="0.2"/>
</g>
<g style="mix-blend-mode:color-burn">
<rect x="4" y="743" width="1645" height="274" fill="url(#paint8_linear_813_5589)" fill-opacity="0.5"/>
</g>
<g style="mix-blend-mode:color-burn">
<rect x="4" y="838" width="1645" height="274" fill="url(#paint9_linear_813_5589)" fill-opacity="0.5"/>
</g>
</g>
</g>
<defs>
<filter id="filter0_d_813_5589" x="0.333432" y="0.753282" width="1673.44" height="973.44" filterUnits="userSpaceOnUse" color-interpolation-filters="sRGB">
<feFlood flood-opacity="0" result="BackgroundImageFix"/>
<feColorMatrix in="SourceAlpha" type="matrix" values="0 0 0 0 0 0 0 0 0 0 0 0 0 0 0 0 0 0 127 0" result="hardAlpha"/>
<feOffset dx="-4.94657" dy="2.47328"/>
<feGaussianBlur stdDeviation="18.36"/>
<feComposite in2="hardAlpha" operator="out"/>
<feColorMatrix type="matrix" values="0 0 0 0 0 0 0 0 0 0 0 0 0 0 0 0 0 0 0.1 0"/>
<feBlend mode="normal" in2="BackgroundImageFix" result="effect1_dropShadow_813_5589"/>
<feBlend mode="normal" in="SourceGraphic" in2="effect1_dropShadow_813_5589" result="shape"/>
</filter>
<linearGradient id="paint0_linear_813_5589" x1="866.313" y1="570.747" x2="866.313" y2="681.554" gradientUnits="userSpaceOnUse">
<stop stop-color="#D9D9D9"/>
<stop offset="1" stop-color="#737373"/>
</linearGradient>
<linearGradient id="paint1_linear_813_5589" x1="776.313" y1="570.747" x2="776.313" y2="681.554" gradientUnits="userSpaceOnUse">
<stop stop-color="#D9D9D9"/>
<stop offset="1" stop-color="#737373"/>
</linearGradient>
<linearGradient id="paint2_linear_813_5589" x1="1016.99" y1="492.523" x2="1016.99" y2="652.578" gradientUnits="userSpaceOnUse">
<stop stop-color="#D9D9D9"/>
<stop offset="1" stop-color="#737373"/>
</linearGradient>
<linearGradient id="paint3_linear_813_5589" x1="1205.27" y1="550.135" x2="1205.27" y2="685.566" gradientUnits="userSpaceOnUse">
<stop stop-color="#D9D9D9"/>
<stop offset="1" stop-color="#737373"/>
</linearGradient>
<linearGradient id="paint4_linear_813_5589" x1="1388.27" y1="550.135" x2="1388.27" y2="685.566" gradientUnits="userSpaceOnUse">
<stop stop-color="#D9D9D9"/>
<stop offset="1" stop-color="#737373"/>
</linearGradient>
<linearGradient id="paint5_linear_813_5589" x1="1387.39" y1="410.264" x2="1387.39" y2="657.069" gradientUnits="userSpaceOnUse">
<stop stop-color="#D9D9D9"/>
<stop offset="1" stop-color="#737373"/>
</linearGradient>
<linearGradient id="paint6_linear_813_5589" x1="1330.45" y1="375.044" x2="1330.45" y2="647.445" gradientUnits="userSpaceOnUse">
<stop stop-color="#D9D9D9"/>
<stop offset="1" stop-color="#737373"/>
</linearGradient>
<linearGradient id="paint7_linear_813_5589" x1="957.688" y1="694.381" x2="957.688" y2="922.83" gradientUnits="userSpaceOnUse">
<stop stop-color="#D9D9D9"/>
<stop offset="1" stop-color="#737373"/>
</linearGradient>
<linearGradient id="paint8_linear_813_5589" x1="958.688" y1="776.381" x2="958.688" y2="1004.83" gradientUnits="userSpaceOnUse">
<stop stop-color="#D9D9D9"/>
<stop offset="1" stop-color="#737373"/>
</linearGradient>
<linearGradient id="paint9_linear_813_5589" x1="958.688" y1="871.381" x2="958.688" y2="1099.83" gradientUnits="userSpaceOnUse">
<stop stop-color="#D9D9D9"/>
<stop offset="1" stop-color="#737373"/>
</linearGradient>
<clipPath id="clip0_813_5589">
<rect x="42" y="35" width="1600" height="900" rx="32" fill="white"/>
</clipPath>
<clipPath id="clip1_813_5589">
<rect width="46" height="46" fill="white" transform="translate(279 496.424) rotate(-19.5912)"/>
</clipPath>
<clipPath id="clip2_813_5589">
<rect width="46" height="46" fill="white" transform="translate(261 509.904) rotate(-45.6693)"/>
</clipPath>
<clipPath id="clip3_813_5589">
<rect width="46" height="46" fill="white" transform="translate(253 526.997) rotate(-73.031)"/>
</clipPath>
<clipPath id="clip4_813_5589">
<rect x="826" y="587" width="72" height="72" rx="36" fill="white"/>
</clipPath>
<clipPath id="clip5_813_5589">
<rect x="736" y="587" width="72" height="72" rx="36" fill="white"/>
</clipPath>
<clipPath id="clip6_813_5589">
<rect x="1156" y="570" width="88" height="88" rx="44" fill="white"/>
</clipPath>
<clipPath id="clip7_813_5589">
<rect x="1339" y="570" width="88" height="88" rx="44" fill="white"/>
</clipPath>
</defs>
</svg>
