<svg xmlns="http://www.w3.org/2000/svg" width="1674" height="975" fill="none"><g filter="url(#a)"><g clip-path="url(#b)"><rect width="1600" height="900" x="42" y="35" fill="#16B2D4" rx="32"/><g clip-path="url(#c)"><rect width="439" height="403" x="510" y="256" fill="#28A656" rx="25"/><path fill="#000" fill-opacity=".08" d="M949 634V336c0-13.807-11.193-25-25-25H819c-13.807 0-25 11.193-25 25v323h130c13.807 0 25-11.193 25-25"/><path fill="#76E49E" d="M571.778 458.536H712.58V659H571.778z"/><path fill="#000" fill-opacity=".08" d="M652.918 458.536h59.662V659h-59.662z"/><rect width="14.319" height="26.251" x="674.396" y="544.449" fill="#186635" rx="7.159"/><path fill="#228C49" d="M904.623 165c9.823 0 18.663 4.913 23.574 13.753l55.991 88.404c29.472 46.167 3.928 110.015-51.078 117.874h-11.788c-25.539 0-48.134-10.805-63.85-28.486-15.717 17.68-38.309 28.486-63.848 28.486s-49.114-10.805-64.831-28.486c-14.734 17.68-38.308 28.486-63.847 28.486s-48.131-10.806-63.848-28.486c-15.716 17.681-38.31 28.486-63.849 28.486h-11.786c-55.007-7.859-80.548-71.707-51.081-117.874l55.992-88.404c4.911-8.841 13.753-13.753 23.575-13.753z"/><path fill="#228C49" d="M664.943 385.031c25.539 0 49.114-10.806 63.848-28.486L729.284 165H627.857l-26.761 191.545c15.716 17.68 38.309 28.486 63.847 28.486"/><path fill="#186635" d="M664.943 385.031c25.539 0 49.114-10.806 63.848-28.486l.18-69.835H610.853l-9.757 69.835c15.716 17.68 38.309 28.486 63.847 28.486"/><path fill="#228C49" d="M792.433 385.031c-25.539 0-49.113-10.806-63.847-28.486L728.093 165h101.426l26.762 191.545c-15.717 17.68-38.309 28.486-63.848 28.486"/><path fill="#28A656" d="M537.249 385.031c25.539 0 48.133-10.805 63.849-28.486L627.86 165h-73.911c-9.822 0-18.664 4.912-23.575 13.753l-55.992 88.404c-29.467 46.167-3.926 110.015 51.081 117.874z"/><path fill="#228C49" d="M537.249 385.031c25.539 0 48.133-10.805 63.849-28.486l9.757-69.835H465.371c-12.995 42.886 12.537 91.527 60.092 98.321z"/><path fill="#28A656" d="M920.128 385.031c-25.539 0-48.133-10.805-63.849-28.486L829.517 165h73.911c9.822 0 18.664 4.912 23.575 13.753l55.992 88.404c29.465 46.167 3.926 110.015-51.081 117.874z"/><path fill="#186635" d="M792.131 385.031c-25.539 0-49.114-10.806-63.848-28.486l-.18-69.835h118.118l9.757 69.835c-15.716 17.68-38.309 28.486-63.847 28.486"/><path fill="#228C49" d="M919.918 385.031c-25.539 0-48.133-10.806-63.849-28.486l-9.757-69.835h145.484c12.994 42.885-12.537 91.527-60.092 98.321z"/><path stroke="#186635" stroke-linecap="round" stroke-width="5.664" d="M769.981 612.12c.255-2.12.806-6.699-4.113-7.291"/><path fill="#F20B0B" d="M753.622 618.667c.63-5.236 3.738-10.733 9.043-10.095 1.86.224 3.974 1.247 5.484 2.058a5.93 5.93 0 0 0 4.065.489c1.659-.429 3.955-.922 5.884-.69 5.236.63 7.02 6.716 6.39 11.952-1.061 8.819-7.369 14.77-12.881 14.107-1.171-.141-2.568-.729-3.491-1.189a2.49 2.49 0 0 0-1.723-.207c-.937.236-2.502.467-3.605.335-5.511-.664-10.227-7.941-9.166-16.76"/><path fill="#000" fill-opacity=".08" d="M778.098 610.429c-1.929-.232-4.225.26-5.884.69-.7.166-1.421.202-2.126.111l-2.865 23.804c.31.031.615.12.893.265.923.46 2.32 1.048 3.491 1.189 5.512.663 11.82-5.288 12.881-14.107.63-5.236-1.154-11.322-6.39-11.952"/><path fill="#28A656" d="M770.514 608.399a1.097 1.097 0 0 1-.97-1.235l.133-1.102a5.524 5.524 0 0 1 6.175-4.849l1.102.133c.552.066 1.037.684.97 1.235l-.132 1.102a5.526 5.526 0 0 1-6.176 4.849z"/><path fill="#000" fill-opacity=".08" d="m777.792 603.683.132-1.102c.034-.278-.073-.573-.258-.806l-7.879 6.233c.174.21.428.355.727.391l1.103.132a5.523 5.523 0 0 0 6.175-4.848"/><path stroke="#186635" stroke-linecap="round" stroke-width="5.664" d="M743.212 611.714c-.21-2.125-.664-6.715-5.594-6.227"/><path fill="#F20B0B" d="M728.66 621.65c-.519-5.249 1.324-11.288 6.642-11.814 1.864-.185 4.149.356 5.799.821a5.94 5.94 0 0 0 4.075-.403c1.526-.779 3.661-1.757 5.595-1.948 5.248-.519 8.308 5.036 8.827 10.284.874 8.839-3.995 16.015-9.519 16.562-1.174.116-2.666-.155-3.666-.405a2.5 2.5 0 0 0-1.727.171c-.864.434-2.342.999-3.447 1.108-5.524.546-11.705-5.537-12.579-14.376"/><path fill="#000" fill-opacity=".08" d="M750.771 608.306c-1.934.191-4.069 1.169-5.596 1.948a5.9 5.9 0 0 1-2.051.569l2.359 23.86c.31-.037.627-.016.929.064 1.001.25 2.493.521 3.667.405 5.524-.547 10.393-7.723 9.519-16.562-.519-5.248-3.579-10.803-8.827-10.284"/><path fill="#28A656" d="M742.927 607.966a1.096 1.096 0 0 1-1.214-.996l-.11-1.105a5.525 5.525 0 0 1 4.978-6.071l1.105-.109c.553-.054 1.16.443 1.215.996l.109 1.105a5.525 5.525 0 0 1-4.978 6.071z"/><path fill="#000" fill-opacity=".08" d="m749.01 601.786-.109-1.105c-.028-.279-.196-.543-.427-.73l-6.342 7.792c.215.167.495.253.795.223l1.105-.109a5.524 5.524 0 0 0 4.978-6.071"/><path fill="#76E49E" d="M788.336 643.603c-1.101 8.677-8.505 15.391-17.482 15.401l-27.444.03c-8.977.01-16.396-6.687-17.516-15.361zm-17.522-19.885c9.082-.01 16.567 6.843 17.552 15.664l-62.512.069c.966-8.822 8.436-15.692 17.517-15.702z"/><path fill="#000" fill-opacity=".08" d="m770.815 623.718-6.484.008.039 35.284 6.484-.007c9.743-.011 17.633-7.918 17.623-17.662-.011-9.743-7.919-17.633-17.662-17.623"/><path fill="#28A656" d="m782.744 639.388 5.73-.006.005 4.222-5.73.006z"/><path fill="#228C49" d="m731.476 639.444 51.269-.057.005 4.222-51.27.057z"/><path fill="#28A656" d="m725.746 639.451 5.73-.006.005 4.222-5.73.006z"/><path fill="#39C76D" d="m733.382 659.045 47.65-.053a7.5 7.5 0 0 0 4.898-1.815l-57.45.064a7.5 7.5 0 0 0 4.902 1.804M725.744 637.642l62.729-.07.002 1.81-62.729.069z"/><circle cx="733.729" cy="631.752" r="2.262" fill="#39C76D" transform="rotate(-.064 733.729 631.752)"/><path fill="#000" fill-opacity=".08" d="M733.732 634.013a2.261 2.261 0 0 0 1.352-4.073l-2.71 3.622c.378.284.848.452 1.358.451"/><circle cx="780.474" cy="631.7" r="2.262" fill="#39C76D" transform="rotate(-.064 780.474 631.7)"/><path fill="#000" fill-opacity=".08" d="M780.476 633.961a2.262 2.262 0 0 0 1.353-4.072l-2.71 3.622a2.25 2.25 0 0 0 1.357.45"/><circle cx="733.75" cy="651.053" r="2.262" fill="#39C76D" transform="rotate(-.064 733.75 651.053)"/><path fill="#000" fill-opacity=".08" d="M733.753 653.315a2.26 2.26 0 0 0 1.353-4.073l-2.711 3.622a2.25 2.25 0 0 0 1.358.451"/><circle cx="780.495" cy="651.002" r="2.262" fill="#39C76D" transform="rotate(-.064 780.495 651.002)"/><path fill="#000" fill-opacity=".08" d="M780.498 653.263a2.26 2.26 0 0 0 1.353-4.073l-2.711 3.622a2.25 2.25 0 0 0 1.358.451"/><path fill="#186635" d="M806.2 482.2c5.95 0 11.2 5.25 11.2 11.2v44.8h179.2v-44.8c0-5.95 4.9-11.2 11.2-11.2 5.95 0 11.2 5.25 11.2 11.2v156.8c0 6.3-5.25 11.2-11.2 11.2-6.3 0-11.2-4.9-11.2-11.2H817.4c0 6.3-5.25 11.2-11.2 11.2-6.3 0-11.2-4.9-11.2-11.2V493.4c0-5.95 4.9-11.2 11.2-11.2m11.2 145.6h179.2v-67.2H817.4z"/><g clip-path="url(#d)"><path fill="#E4C837" d="M864.289 521.279a2 2 0 0 0 3.613 1.716l-1.806-.858zm21.113-35.124.858-1.807-3.613-1.716-.858 1.806 1.807.859zm-19.306 35.982 1.806.858 17.5-36.84-1.806-.858-1.807-.859-17.5 36.841z"/><path fill="#E4C837" d="M884.393 485.776a1.293 1.293 0 0 1-1.673-.795l-.439-1.233a6.513 6.513 0 0 1 3.972-8.362l1.234-.439c.616-.219 1.452.178 1.672.795l.439 1.233a6.51 6.51 0 0 1-3.972 8.362zM881.098 494.81a1.29 1.29 0 0 1-.621-1.744l.562-1.183a6.51 6.51 0 0 1 8.721-3.104l1.182.562c.592.281.902 1.153.621 1.744l-.562 1.183a6.51 6.51 0 0 1-8.721 3.104z"/><path fill="#000" fill-opacity=".08" d="m891.001 492.268.562-1.182c.142-.298.133-.668.014-.997l-11.146 4.012c.116.3.345.557.667.709l1.182.562a6.51 6.51 0 0 0 8.721-3.104"/><path fill="#E4C837" d="M879.573 492.636a1.29 1.29 0 0 1-1.744.621l-1.183-.562a6.514 6.514 0 0 1-3.104-8.721l.562-1.182c.281-.592 1.153-.902 1.744-.621l1.183.562a6.51 6.51 0 0 1 3.104 8.721z"/><path fill="#000" fill-opacity=".08" d="m877.031 482.732-1.183-.562c-.298-.141-.667-.132-.997-.013l4.013 11.145a1.3 1.3 0 0 0 .709-.666l.562-1.183a6.51 6.51 0 0 0-3.104-8.721"/><path fill="#E4C837" d="M876.736 503.991a1.293 1.293 0 0 1-.62-1.745l.561-1.182a6.513 6.513 0 0 1 8.721-3.104l1.183.562c.591.281.902 1.153.621 1.744l-.562 1.182a6.51 6.51 0 0 1-8.721 3.104z"/><path fill="#000" fill-opacity=".08" d="m886.64 501.449.562-1.183c.141-.298.133-.667.013-.997l-11.145 4.013c.116.3.345.557.666.709l1.183.562a6.51 6.51 0 0 0 8.721-3.104"/><path fill="#E4C837" d="M875.212 501.817a1.29 1.29 0 0 1-1.744.621l-1.183-.562a6.51 6.51 0 0 1-3.104-8.721l.562-1.183c.281-.591 1.153-.901 1.744-.621l1.183.562a6.514 6.514 0 0 1 3.104 8.721z"/><path fill="#000" fill-opacity=".08" d="m872.67 491.913-1.183-.562c-.298-.142-.668-.133-.997-.014l4.013 11.146a1.3 1.3 0 0 0 .709-.666l.562-1.183a6.514 6.514 0 0 0-3.104-8.721"/><path fill="#E4C837" d="M872.157 513.631a1.29 1.29 0 0 1-.621-1.744l.562-1.182a6.51 6.51 0 0 1 8.721-3.104l1.182.561c.592.281.902 1.153.621 1.745l-.562 1.182a6.51 6.51 0 0 1-8.721 3.104z"/><path fill="#000" fill-opacity=".08" d="m882.06 511.09.562-1.183c.142-.298.133-.668.014-.997l-11.146 4.012c.116.3.345.557.667.71l1.182.561a6.513 6.513 0 0 0 8.721-3.103"/><path fill="#E4C837" d="M870.632 511.458a1.29 1.29 0 0 1-1.744.62l-1.182-.561a6.513 6.513 0 0 1-3.104-8.722l.561-1.182c.281-.591 1.153-.902 1.745-.621l1.182.562a6.51 6.51 0 0 1 3.104 8.721z"/><path fill="#000" fill-opacity=".08" d="m868.09 501.553-1.183-.561c-.298-.142-.667-.133-.996-.014l4.012 11.146c.3-.116.557-.346.709-.667l.562-1.182a6.513 6.513 0 0 0-3.104-8.722M888.464 475.027c.317.148.584.404.695.715l.439 1.233a6.513 6.513 0 0 1-3.972 8.362l-.774.275-17.554 36.956c-.11.229-.286.537-.612.694-.406.197-.822.102-.822.102l.521-.948 17.082-36.652-.048-.018z"/></g><g clip-path="url(#e)"><path fill="#E4C837" d="M860.832 523.847a2 2 0 0 0 4-.047l-2 .023zm3.523-40.83-.023-2-4 .047.024 2 1.999-.024zm-1.523 40.806 2-.023-.477-40.783-2 .023-1.999.024.476 40.783z"/><path fill="#E4C837" d="M863.282 483.121a1.29 1.29 0 0 1-1.851.021l-.937-.915a6.51 6.51 0 0 1-.108-9.256l.915-.936c.457-.469 1.383-.479 1.851-.022l.937.915a6.51 6.51 0 0 1 .108 9.256zM864.294 492.683a1.29 1.29 0 0 1-1.325-1.293l-.015-1.31a6.513 6.513 0 0 1 6.469-6.621l1.309-.016c.654-.007 1.317.64 1.324 1.294l.015 1.309a6.51 6.51 0 0 1-6.468 6.622z"/><path fill="#000" fill-opacity=".08" d="m872.072 486.046-.016-1.309c-.003-.331-.174-.659-.426-.902l-8.247 8.504c.236.218.555.348.911.344l1.309-.016a6.513 6.513 0 0 0 6.469-6.621"/><path fill="#E4C837" d="M861.969 491.401a1.29 1.29 0 0 1-1.294 1.325l-1.309.015a6.513 6.513 0 0 1-6.622-6.469l-.015-1.309c-.008-.655.639-1.317 1.294-1.324l1.309-.016a6.513 6.513 0 0 1 6.622 6.469z"/><path fill="#000" fill-opacity=".08" d="m855.332 483.624-1.309.015c-.33.004-.659.174-.902.426l8.504 8.247a1.3 1.3 0 0 0 .344-.91l-.015-1.31a6.514 6.514 0 0 0-6.622-6.468"/><path fill="#E4C837" d="M864.412 502.847a1.29 1.29 0 0 1-1.324-1.293l-.015-1.309a6.51 6.51 0 0 1 6.468-6.622l1.309-.016c.655-.007 1.317.64 1.325 1.294l.015 1.309a6.513 6.513 0 0 1-6.469 6.622z"/><path fill="#000" fill-opacity=".08" d="m872.19 496.21-.015-1.309c-.004-.33-.174-.659-.426-.902l-8.247 8.504c.236.218.555.348.91.344l1.309-.016a6.513 6.513 0 0 0 6.469-6.621"/><path fill="#E4C837" d="M862.088 501.565a1.294 1.294 0 0 1-1.294 1.325l-1.309.015a6.513 6.513 0 0 1-6.622-6.469l-.015-1.309c-.008-.654.639-1.317 1.293-1.324l1.31-.016a6.513 6.513 0 0 1 6.621 6.469z"/><path fill="#000" fill-opacity=".08" d="m855.45 493.788-1.309.015c-.33.004-.658.174-.901.426l8.503 8.247a1.3 1.3 0 0 0 .344-.91l-.015-1.309a6.513 6.513 0 0 0-6.622-6.469"/><path fill="#E4C837" d="M864.537 513.519a1.29 1.29 0 0 1-1.325-1.294l-.015-1.309a6.51 6.51 0 0 1 6.469-6.621l1.309-.016c.655-.007 1.317.64 1.324 1.294l.016 1.309a6.513 6.513 0 0 1-6.469 6.622z"/><path fill="#000" fill-opacity=".08" d="m872.315 506.882-.015-1.31c-.004-.33-.175-.658-.426-.901l-8.247 8.504c.235.218.554.348.91.344l1.309-.016a6.513 6.513 0 0 0 6.469-6.621"/><path fill="#E4C837" d="M862.212 512.237a1.29 1.29 0 0 1-1.294 1.325l-1.309.015a6.51 6.51 0 0 1-6.621-6.469l-.016-1.309c-.007-.655.639-1.317 1.294-1.324l1.309-.016a6.513 6.513 0 0 1 6.622 6.469z"/><path fill="#000" fill-opacity=".08" d="m855.575 504.46-1.309.015c-.33.004-.658.174-.902.426l8.504 8.247a1.3 1.3 0 0 0 .344-.911l-.015-1.309a6.513 6.513 0 0 0-6.622-6.468M862.214 471.676c.35-.006.702.107.939.337l.936.915a6.513 6.513 0 0 1 .108 9.256l-.574.588.478 40.91c.003.254-.021.608-.244.892-.279.356-.694.453-.694.453l.051-1.081-.768-40.429-.051.005z"/></g><g clip-path="url(#f)"><path fill="#E4C837" d="M861.306 523.867a2 2 0 0 0 3.531-1.88l-1.765.94zm-15.636-37.881-.94-1.766-3.531 1.88.94 1.765 1.765-.939zm17.402 36.941 1.765-.94-19.167-36.001-1.766.94-1.765.939 19.167 36.002z"/><path fill="#E4C837" d="M844.764 486.571a1.29 1.29 0 0 1-1.634.87l-1.253-.382a6.514 6.514 0 0 1-4.35-8.171l.382-1.252c.191-.627 1.008-1.062 1.634-.871l1.253.383a6.51 6.51 0 0 1 4.35 8.171zM850.057 494.599a1.293 1.293 0 0 1-1.771-.541l-.615-1.155a6.513 6.513 0 0 1 2.702-8.854l1.155-.615c.578-.308 1.463-.038 1.771.54l.615 1.156c1.731 3.25.476 7.162-2.701 8.854z"/><path fill="#000" fill-opacity=".08" d="m853.914 485.129-.615-1.155c-.155-.292-.457-.505-.793-.605l-3.416 11.342c.31.086.653.055.967-.112l1.156-.616c3.177-1.692 4.432-5.604 2.701-8.854"/><path fill="#E4C837" d="M847.403 494.528c.346.65.11 1.425-.54 1.771l-1.156.615a6.513 6.513 0 0 1-8.854-2.702l-.615-1.155c-.308-.578-.038-1.463.54-1.771l1.156-.615c3.25-1.731 7.162-.476 8.854 2.701z"/><path fill="#000" fill-opacity=".08" d="m837.934 490.671-1.156.615c-.291.155-.504.457-.604.793l11.342 3.416c.086-.31.054-.653-.113-.967l-.615-1.156c-1.692-3.177-5.604-4.432-8.854-2.701"/><path fill="#E4C837" d="M854.834 503.571c-.65.347-1.425.11-1.771-.54l-.615-1.155a6.514 6.514 0 0 1 2.701-8.855l1.156-.615c.578-.307 1.463-.037 1.771.541l.615 1.155a6.513 6.513 0 0 1-2.702 8.854z"/><path fill="#000" fill-opacity=".08" d="m858.691 494.102-.615-1.156c-.155-.291-.457-.504-.793-.604l-3.416 11.342c.31.086.653.054.967-.113l1.155-.615c3.178-1.692 4.433-5.604 2.702-8.854"/><path fill="#E4C837" d="M852.18 503.501c.346.65.11 1.424-.54 1.77l-1.156.616a6.513 6.513 0 0 1-8.854-2.702l-.615-1.156c-.308-.577-.038-1.463.54-1.77l1.156-.616a6.513 6.513 0 0 1 8.854 2.702z"/><path fill="#000" fill-opacity=".08" d="m842.711 499.643-1.156.616c-.291.155-.504.457-.605.792l11.343 3.416a1.3 1.3 0 0 0-.113-.966l-.615-1.156a6.513 6.513 0 0 0-8.854-2.702"/><path fill="#E4C837" d="M859.849 512.992c-.65.346-1.424.11-1.77-.54l-.616-1.156a6.513 6.513 0 0 1 2.702-8.854l1.156-.615c.577-.307 1.463-.037 1.771.54l.615 1.156a6.513 6.513 0 0 1-2.702 8.854z"/><path fill="#000" fill-opacity=".08" d="m863.707 503.523-.615-1.156c-.156-.291-.458-.504-.793-.605l-3.416 11.343c.31.086.653.054.966-.113l1.156-.615a6.513 6.513 0 0 0 2.702-8.854"/><path fill="#E4C837" d="M857.196 512.922c.346.65.109 1.424-.541 1.77l-1.155.616a6.513 6.513 0 0 1-8.854-2.702l-.616-1.156c-.307-.577-.037-1.463.541-1.771l1.155-.615a6.513 6.513 0 0 1 8.854 2.702z"/><path fill="#000" fill-opacity=".08" d="m847.726 509.064-1.155.615c-.292.156-.505.458-.605.793l11.343 3.416c.085-.31.054-.653-.113-.966l-.615-1.156a6.514 6.514 0 0 0-8.855-2.702M838.555 476.897c.308-.166.673-.228.989-.132l1.252.382a6.513 6.513 0 0 1 4.35 8.171l-.24.786 19.227 36.113c.12.225.261.55.194.905a1.37 1.37 0 0 1-.408.721l-.451-.983-19.265-35.553q-.02.014-.043.027z"/></g><path fill="#76E49E" d="M898.965 520.562c-1.247 9.835-9.639 17.444-19.815 17.455l-31.107.035c-10.176.011-18.585-7.579-19.855-17.412zm-70.942-2.412-.001-.073.001-.074zm51.082-20.128c10.293-.011 18.776 7.757 19.893 17.753l-70.854.079c1.094-9.999 9.561-17.786 19.854-17.797z"/><path fill="#000" fill-opacity=".08" d="m879.106 498.022-7.349.008.044 39.995 7.35-.008c11.044-.012 19.988-8.975 19.975-20.02s-8.975-19.987-20.02-19.975"/><path fill="#28A656" d="m892.628 515.783 6.494-.007.005 4.785-6.494.007z"/><path fill="#228C49" d="m834.517 515.848 58.113-.065.005 4.786-58.113.065z"/><path fill="#28A656" d="m828.022 515.854 6.494-.007.005 4.785-6.494.007z"/><path fill="#39C76D" d="m836.678 538.065 54.01-.06a8.52 8.52 0 0 0 5.553-2.057l-65.12.073a8.5 8.5 0 0 0 5.557 2.044M828.019 513.804l71.103-.08.002 2.052-71.103.079z"/><circle cx="837.07" cy="507.127" r="2.564" fill="#39C76D" transform="rotate(-.064 837.07 507.127)"/><path fill="#000" fill-opacity=".08" d="M837.071 509.691a2.564 2.564 0 0 0 1.533-4.616l-3.072 4.105c.429.321.962.512 1.539.511"/><circle cx="890.052" cy="507.069" r="2.564" fill="#39C76D" transform="rotate(-.064 890.052 507.069)"/><path fill="#000" fill-opacity=".08" d="M890.055 509.632a2.563 2.563 0 0 0 1.533-4.616l-3.072 4.105c.429.322.962.512 1.539.511"/><circle cx="837.094" cy="529.006" r="2.564" fill="#39C76D" transform="rotate(-.064 837.094 529.006)"/><path fill="#000" fill-opacity=".08" d="M837.097 531.57a2.564 2.564 0 0 0 1.533-4.616l-3.072 4.105c.429.321.961.511 1.539.511"/><circle cx="890.08" cy="528.946" r="2.564" fill="#39C76D" transform="rotate(-.064 890.08 528.946)"/><path fill="#000" fill-opacity=".08" d="M890.083 531.51a2.563 2.563 0 0 0 1.533-4.616l-3.072 4.105c.429.322.962.512 1.539.511"/><path stroke="#186635" stroke-linecap="round" stroke-width="5.664" d="M875.981 580.12c.255-2.12.806-6.699-4.113-7.291"/><path fill="#39C76D" d="M859.622 586.667c.63-5.236 3.738-10.733 9.043-10.095 1.86.224 3.974 1.247 5.484 2.058a5.93 5.93 0 0 0 4.065.489c1.659-.429 3.955-.922 5.884-.69 5.236.63 7.02 6.716 6.39 11.952-1.061 8.819-7.369 14.77-12.88 14.107-1.172-.141-2.569-.729-3.492-1.189a2.48 2.48 0 0 0-1.722-.207c-.937.236-2.503.467-3.605.335-5.512-.664-10.228-7.941-9.167-16.76"/><path fill="#000" fill-opacity=".08" d="M884.098 578.429c-1.929-.232-4.225.26-5.884.69-.7.166-1.421.202-2.126.111l-2.865 23.804c.31.031.615.12.893.265.923.46 2.32 1.048 3.491 1.189 5.512.663 11.82-5.288 12.881-14.107.63-5.236-1.154-11.322-6.39-11.952"/><path fill="#28A656" d="M876.514 576.399a1.097 1.097 0 0 1-.97-1.235l.133-1.102a5.524 5.524 0 0 1 6.175-4.849l1.102.133c.552.066 1.037.684.97 1.235l-.132 1.102a5.526 5.526 0 0 1-6.176 4.849z"/><path fill="#000" fill-opacity=".08" d="m883.792 571.683.132-1.102c.034-.278-.073-.573-.258-.806l-7.879 6.233c.174.21.428.355.727.391l1.102.132a5.524 5.524 0 0 0 6.176-4.848"/><path stroke="#186635" stroke-linecap="round" stroke-width="5.664" d="M849.212 579.714c-.21-2.125-.664-6.715-5.594-6.227"/><path fill="#39C76D" d="M834.66 589.65c-.519-5.249 1.324-11.288 6.641-11.814 1.865-.185 4.15.356 5.8.821 1.36.353 2.81.21 4.074-.403 1.527-.779 3.662-1.757 5.595-1.948 5.249-.519 8.308 5.036 8.827 10.284.875 8.839-3.994 16.015-9.519 16.562-1.174.116-2.665-.155-3.666-.405a2.5 2.5 0 0 0-1.726.171c-.864.434-2.342.999-3.447 1.108-5.525.546-11.705-5.537-12.579-14.376"/><path fill="#000" fill-opacity=".08" d="M856.77 576.306c-1.933.191-4.068 1.169-5.595 1.948a5.9 5.9 0 0 1-2.052.569l2.36 23.86c.31-.037.626-.016.929.064 1.001.25 2.492.521 3.666.405 5.525-.547 10.394-7.723 9.519-16.562-.519-5.248-3.579-10.803-8.827-10.284"/><path fill="#28A656" d="M848.927 575.966a1.096 1.096 0 0 1-1.214-.996l-.109-1.105a5.523 5.523 0 0 1 4.978-6.071l1.105-.109c.552-.054 1.159.443 1.214.996l.109 1.105a5.525 5.525 0 0 1-4.978 6.071z"/><path fill="#000" fill-opacity=".08" d="m855.01 569.786-.109-1.105c-.028-.279-.196-.543-.427-.73l-6.342 7.792c.216.167.495.253.795.223l1.105-.109a5.524 5.524 0 0 0 4.978-6.071"/><path fill="#76E49E" d="M894.336 611.603c-1.101 8.677-8.505 15.391-17.482 15.401l-27.444.03c-8.977.01-16.396-6.687-17.516-15.361zm-17.522-19.885c9.082-.01 16.567 6.843 17.552 15.664l-62.512.069c.966-8.822 8.436-15.692 17.517-15.702z"/><path fill="#000" fill-opacity=".08" d="m876.815 591.718-6.484.008.039 35.284 6.484-.007c9.743-.011 17.633-7.918 17.623-17.662-.011-9.743-7.919-17.633-17.662-17.623"/><path fill="#28A656" d="m888.744 607.388 5.73-.006.005 4.222-5.73.006z"/><path fill="#228C49" d="m837.476 607.444 51.269-.057.005 4.222-51.27.057z"/><path fill="#28A656" d="m831.746 607.451 5.73-.006.005 4.222-5.73.006z"/><path fill="#39C76D" d="m839.382 627.045 47.649-.053a7.5 7.5 0 0 0 4.899-1.815l-57.451.064a7.5 7.5 0 0 0 4.903 1.804M831.744 605.642l62.729-.07.002 1.81-62.729.069z"/><circle cx="839.729" cy="599.752" r="2.262" fill="#39C76D" transform="rotate(-.064 839.729 599.752)"/><path fill="#000" fill-opacity=".08" d="M839.732 602.013a2.261 2.261 0 0 0 1.353-4.073l-2.711 3.622c.378.284.849.452 1.358.451"/><circle cx="886.474" cy="599.7" r="2.262" fill="#39C76D" transform="rotate(-.064 886.474 599.7)"/><path fill="#000" fill-opacity=".08" d="M886.477 601.961a2.26 2.26 0 0 0 1.353-4.072l-2.711 3.622c.379.283.849.451 1.358.45"/><circle cx="839.751" cy="619.053" r="2.262" fill="#39C76D" transform="rotate(-.064 839.751 619.053)"/><path fill="#000" fill-opacity=".08" d="M839.753 621.315a2.262 2.262 0 0 0 1.353-4.073l-2.71 3.622c.378.284.848.452 1.357.451"/><circle cx="886.496" cy="619.002" r="2.262" fill="#39C76D" transform="rotate(-.064 886.496 619.002)"/><path fill="#000" fill-opacity=".08" d="M886.498 621.263a2.262 2.262 0 0 0 1.353-4.073l-2.71 3.622c.378.284.848.452 1.357.451"/><path fill="#28A656" d="M953.837 497.242c-2.857 0-5.079-2.222-5.079-5.079v-5.079c0-13.968 11.111-25.396 25.396-25.396h5.079c2.54 0 5.079 2.539 5.079 5.079v5.079c0 14.285-11.428 25.396-25.396 25.396z"/><path fill="#000" fill-opacity=".08" d="M984.313 471.846v-5.08c0-1.28-.646-2.561-1.612-3.516l-32.38 32.616c.905.858 2.136 1.376 3.516 1.376h5.079c13.968 0 25.397-11.111 25.397-25.396"/><path fill="#228C49" d="M944.801 524.148a7 7 0 1 0 14 0h-14m-1.008-34.914-5.723 4.031 4.177 5.932 5.724-4.031 5.723-4.03-4.178-5.932zm8.008 18.024h-7v16.89h14v-16.89zm-3.83-12.092-5.724 4.031a14 14 0 0 1 2.554 8.061h14a28 28 0 0 0-5.107-16.122z"/><path fill="#28A656" d="M922.767 468.414c-2.857 0-5.079 2.222-5.079 5.079v5.08c0 13.967 11.11 25.396 25.396 25.396h5.079c2.54 0 5.079-2.54 5.079-5.079v-5.08c0-14.285-11.428-25.396-25.396-25.396z"/><path fill="#000" fill-opacity=".08" d="M953.242 493.811v5.079c0 1.281-.646 2.561-1.611 3.516L919.25 469.79c.905-.857 2.137-1.376 3.517-1.376h5.079c13.968 0 25.396 11.111 25.396 25.397"/><path fill="#76E49E" d="M985.965 520.562c-1.247 9.835-9.639 17.444-19.815 17.455l-31.107.035c-10.176.011-18.585-7.579-19.855-17.412zm-70.942-2.412-.001-.073.001-.074zm51.082-20.128c10.293-.011 18.776 7.757 19.893 17.753l-70.854.079c1.094-9.999 9.561-17.786 19.854-17.797z"/><path fill="#000" fill-opacity=".08" d="m966.106 498.022-7.349.008.044 39.995 7.35-.008c11.044-.012 19.988-8.975 19.975-20.02s-8.975-19.987-20.02-19.975"/><path fill="#28A656" d="m979.628 515.783 6.494-.007.005 4.785-6.494.007z"/><path fill="#228C49" d="m921.517 515.848 58.113-.065.005 4.786-58.113.065z"/><path fill="#28A656" d="m915.022 515.854 6.494-.007.005 4.785-6.494.007z"/><path fill="#39C76D" d="m923.678 538.065 54.01-.06a8.52 8.52 0 0 0 5.553-2.057l-65.12.073a8.5 8.5 0 0 0 5.557 2.044M915.019 513.804l71.103-.08.002 2.052-71.103.079z"/><circle cx="924.07" cy="507.127" r="2.564" fill="#39C76D" transform="rotate(-.064 924.07 507.127)"/><path fill="#000" fill-opacity=".08" d="M924.071 509.691a2.564 2.564 0 0 0 1.533-4.616l-3.072 4.105c.429.321.962.512 1.539.511"/><circle cx="977.052" cy="507.069" r="2.564" fill="#39C76D" transform="rotate(-.064 977.052 507.069)"/><path fill="#000" fill-opacity=".08" d="M977.055 509.632a2.563 2.563 0 0 0 1.533-4.616l-3.072 4.105c.429.322.962.512 1.539.511"/><circle cx="924.094" cy="529.006" r="2.564" fill="#39C76D" transform="rotate(-.064 924.094 529.006)"/><path fill="#000" fill-opacity=".08" d="M924.097 531.57a2.564 2.564 0 0 0 1.533-4.616l-3.072 4.105c.429.321.961.511 1.539.511"/><circle cx="977.08" cy="528.946" r="2.564" fill="#39C76D" transform="rotate(-.064 977.08 528.946)"/><path fill="#000" fill-opacity=".08" d="M977.083 531.51a2.563 2.563 0 0 0 1.533-4.616l-3.072 4.105c.429.322.962.512 1.539.511"/></g><path fill="#C8A802" d="m539.671 650.439 9.985-39.939h-98.312l9.793 39.939c1.536 5.377 6.336 9.217 12.097 9.217h54.532c5.569 0 10.561-3.84 11.905-9.217"/><path fill="#000" fill-opacity=".08" d="m539.671 650.439 9.985-39.939h-38.285v49.156h16.395c5.569 0 10.561-3.84 11.905-9.217"/><rect width="110.602" height="12.289" x="445.199" y="598.211" fill="#AB8F00" rx="6.145"/><path fill="#000" fill-opacity=".08" d="M549.656 598.211h-43.957V610.5h43.957a6.145 6.145 0 1 0 0-12.289"/><path fill="#ADADAD" d="m478.034 598.211 15.745-29.955c1.152-2.304.192-5.184-1.92-6.336-2.304-1.152-5.184-.192-6.336 1.92l-17.858 34.371zM522.661 598.211l-15.745-29.955c-1.152-2.304-.192-5.184 1.92-6.336 2.304-1.152 5.184-.192 6.336 1.92l17.858 34.371z"/><rect width="4.727" height="24.578" x="476.867" y="616.645" fill="#AB8F00" rx="2.363"/><rect width="4.727" height="24.578" x="498.137" y="616.645" fill="#AB8F00" rx="2.363"/><rect width="4.727" height="24.578" x="519.406" y="616.645" fill="#AB8F00" rx="2.363"/><path fill="#fff" fill-opacity=".8" d="M1030 243.893c0-29.755 19.25-55.67 46.2-64.788v-4.319c0-42.232 34.17-76.786 77-76.786 28.39 0 53.42 15.837 66.41 38.873 7.22-5.279 16.36-8.159 25.99-8.159 25.51 0 46.2 20.636 46.2 46.072 0 6.239-1.44 11.518-3.37 16.797 28.39 5.759 49.57 30.714 49.57 59.988 0 34.074-27.91 61.429-61.6 61.429h-177.1c-38.5 0-69.3-30.714-69.3-69.107M445 346.179c0-29.201-18.875-54.634-45.3-63.583v-4.239c0-41.446-33.503-75.357-75.5-75.357-27.841 0-52.378 15.542-65.119 38.15-7.078-5.181-16.043-8.007-25.481-8.007-25.009 0-45.3 20.252-45.3 45.214 0 6.123 1.416 11.304 3.303 16.485-27.84 5.651-48.603 30.142-48.603 58.872 0 33.44 27.369 60.286 60.4 60.286h173.65c37.75 0 67.95-30.143 67.95-67.821"/><path fill="#fff" fill-opacity=".8" d="M1215 355.179c0-25.326 16.25-47.384 39-55.146v-3.676c0-35.946 28.84-65.357 65-65.357 23.97 0 45.09 13.48 56.06 33.087 6.1-4.493 13.82-6.944 21.94-6.944 21.53 0 39 17.565 39 39.214 0 5.31-1.22 9.804-2.84 14.297 23.96 4.902 41.84 26.143 41.84 51.06 0 29.003-23.56 52.286-52 52.286h-149.5c-32.5 0-58.5-26.143-58.5-58.821"/><g clip-path="url(#g)"><path fill="#28A656" d="M1144.84 537.242c-2.86 0-5.08-2.222-5.08-5.079v-5.079c0-13.968 11.11-25.396 25.39-25.396h5.08c2.54 0 5.08 2.539 5.08 5.079v5.079c0 14.285-11.43 25.396-25.39 25.396z"/><path fill="#000" fill-opacity=".08" d="M1175.31 511.846v-5.08c0-1.28-.64-2.561-1.61-3.516l-32.38 32.616a5.09 5.09 0 0 0 3.52 1.376h5.08c13.96 0 25.39-11.111 25.39-25.396"/><path fill="#228C49" d="M1135.8 564.148c0 3.866 3.13 7 7 7s7-3.134 7-7h-14m-1.01-34.914-5.72 4.031 4.18 5.932 5.72-4.031 5.72-4.03-4.17-5.932zm8.01 18.024h-7v16.89h14v-16.89zm-3.83-12.092-5.72 4.031a14 14 0 0 1 2.55 8.061h14c0-5.772-1.78-11.403-5.11-16.122z"/><path fill="#28A656" d="M1113.77 508.414c-2.86 0-5.08 2.222-5.08 5.079v5.08c0 13.967 11.11 25.396 25.39 25.396h5.08c2.54 0 5.08-2.54 5.08-5.079v-5.08c0-14.285-11.43-25.396-25.39-25.396z"/><path fill="#000" fill-opacity=".08" d="M1144.24 533.811v5.079c0 1.281-.64 2.561-1.61 3.516l-32.38-32.616a5.1 5.1 0 0 1 3.52-1.376h5.08c13.96 0 25.39 11.111 25.39 25.397"/><g clip-path="url(#h)"><path fill="#E4C837" d="M1127.31 560.867a1.995 1.995 0 0 0 2.7.825c.98-.519 1.35-1.73.83-2.705l-1.77.94zm-15.64-37.881-.94-1.766-3.53 1.88.94 1.765 1.76-.939zm17.4 36.941 1.77-.94-19.17-36.001-1.77.94-1.76.939 19.17 36.002z"/><path fill="#E4C837" d="M1110.76 523.571a1.29 1.29 0 0 1-1.63.87l-1.25-.382c-3.45-1.051-5.43-4.65-4.35-8.171l.38-1.252c.19-.627 1.01-1.062 1.63-.871l1.26.383c3.52 1.074 5.4 4.727 4.35 8.171zM1116.06 531.599a1.29 1.29 0 0 1-1.77-.541l-.62-1.155c-1.69-3.178-.55-7.124 2.7-8.854l1.16-.615c.58-.308 1.46-.038 1.77.54l.61 1.156a6.51 6.51 0 0 1-2.7 8.854z"/><path fill="#000" fill-opacity=".08" d="m1119.91 522.129-.61-1.155c-.16-.292-.46-.505-.79-.605l-3.42 11.342c.31.086.65.055.97-.112l1.15-.616a6.51 6.51 0 0 0 2.7-8.854"/><path fill="#E4C837" d="M1113.4 531.528c.35.65.11 1.425-.54 1.771l-1.15.615c-3.18 1.692-7.13.548-8.86-2.702l-.61-1.155c-.31-.578-.04-1.463.54-1.771l1.15-.615a6.52 6.52 0 0 1 8.86 2.701z"/><path fill="#000" fill-opacity=".08" d="m1103.93 527.671-1.15.615c-.29.155-.51.457-.61.793l11.35 3.416c.08-.31.05-.653-.12-.967l-.61-1.156a6.52 6.52 0 0 0-8.86-2.701"/><path fill="#E4C837" d="M1120.83 540.571c-.65.346-1.42.109-1.77-.541l-.61-1.155c-1.69-3.178-.55-7.124 2.7-8.854l1.16-.616c.57-.307 1.46-.037 1.77.541l.61 1.155a6.51 6.51 0 0 1-2.7 8.854z"/><path fill="#000" fill-opacity=".08" d="m1124.69 531.101-.61-1.156c-.16-.291-.46-.504-.8-.604l-3.41 11.342c.31.086.65.054.96-.113l1.16-.615a6.51 6.51 0 0 0 2.7-8.854"/><path fill="#E4C837" d="M1118.18 540.501c.35.65.11 1.424-.54 1.77l-1.16.616a6.51 6.51 0 0 1-8.85-2.702l-.62-1.156c-.3-.577-.03-1.463.54-1.77l1.16-.616a6.51 6.51 0 0 1 8.85 2.702z"/><path fill="#000" fill-opacity=".08" d="m1108.71 536.643-1.15.616c-.3.155-.51.457-.61.792l11.34 3.416a1.27 1.27 0 0 0-.11-.966l-.62-1.156a6.51 6.51 0 0 0-8.85-2.702"/><path fill="#E4C837" d="M1125.85 549.991a1.29 1.29 0 0 1-1.77-.54l-.62-1.156a6.52 6.52 0 0 1 2.71-8.854l1.15-.615c.58-.307 1.46-.037 1.77.541l.62 1.155c1.73 3.25.47 7.162-2.7 8.854z"/><path fill="#000" fill-opacity=".08" d="m1129.71 540.522-.62-1.156c-.15-.291-.46-.504-.79-.605l-3.42 11.343c.31.086.66.054.97-.113l1.16-.615c3.17-1.692 4.43-5.604 2.7-8.854"/><path fill="#E4C837" d="M1123.2 549.922c.34.65.11 1.424-.54 1.77l-1.16.616c-3.18 1.692-7.12.548-8.85-2.702l-.62-1.156c-.31-.577-.04-1.463.54-1.771l1.16-.615a6.51 6.51 0 0 1 8.85 2.702z"/><path fill="#000" fill-opacity=".08" d="m1113.73 546.064-1.16.615c-.29.156-.5.458-.6.793l11.34 3.416c.08-.31.05-.653-.11-.966l-.62-1.156a6.51 6.51 0 0 0-8.85-2.702M1104.56 513.897c.3-.166.67-.228.98-.132l1.26.382a6.515 6.515 0 0 1 4.35 8.171l-.24.786 19.22 36.113c.12.225.26.55.2.905-.09.444-.41.721-.41.721l-.45-.983-19.27-35.553c-.01.009-.02.019-.04.027z"/></g></g><g clip-path="url(#i)"><path fill="#E4C837" d="M1110.31 554.867a1.995 1.995 0 0 0 2.7.825c.98-.519 1.35-1.73.83-2.705l-1.77.94zm-15.64-37.881-.94-1.766-3.53 1.88.94 1.765 1.76-.939zm17.4 36.941 1.77-.94-19.17-36.001-1.77.94-1.76.939 19.17 36.002z"/><path fill="#E4C837" d="M1093.76 517.571a1.29 1.29 0 0 1-1.63.87l-1.25-.382c-3.45-1.051-5.43-4.65-4.35-8.171l.38-1.252c.19-.627 1.01-1.062 1.63-.871l1.26.383c3.52 1.074 5.4 4.727 4.35 8.171zM1099.06 525.599a1.29 1.29 0 0 1-1.77-.541l-.62-1.155c-1.69-3.178-.55-7.124 2.7-8.854l1.16-.615c.58-.308 1.46-.038 1.77.54l.61 1.156a6.51 6.51 0 0 1-2.7 8.854z"/><path fill="#000" fill-opacity=".08" d="m1102.91 516.129-.61-1.155c-.16-.292-.46-.505-.79-.605l-3.42 11.342c.31.086.65.055.97-.112l1.15-.616a6.51 6.51 0 0 0 2.7-8.854"/><path fill="#E4C837" d="M1096.4 525.528c.35.65.11 1.425-.54 1.771l-1.15.615c-3.18 1.692-7.13.548-8.86-2.702l-.61-1.155c-.31-.578-.04-1.463.54-1.771l1.15-.615a6.52 6.52 0 0 1 8.86 2.701z"/><path fill="#000" fill-opacity=".08" d="m1086.93 521.671-1.15.615c-.29.155-.51.457-.61.793l11.35 3.416c.08-.31.05-.653-.12-.967l-.61-1.156a6.52 6.52 0 0 0-8.86-2.701"/><path fill="#E4C837" d="M1103.83 534.571c-.65.347-1.42.11-1.77-.54l-.61-1.155c-1.69-3.178-.55-7.124 2.7-8.855l1.16-.615c.57-.307 1.46-.037 1.77.541l.61 1.155a6.51 6.51 0 0 1-2.7 8.854z"/><path fill="#000" fill-opacity=".08" d="m1107.69 525.102-.61-1.156c-.16-.291-.46-.504-.8-.604l-3.41 11.342c.31.086.65.054.96-.113l1.16-.615a6.51 6.51 0 0 0 2.7-8.854"/><path fill="#E4C837" d="M1101.18 534.501c.35.65.11 1.424-.54 1.77l-1.16.616a6.51 6.51 0 0 1-8.85-2.702l-.62-1.156c-.3-.577-.03-1.463.54-1.77l1.16-.616a6.51 6.51 0 0 1 8.85 2.702z"/><path fill="#000" fill-opacity=".08" d="m1091.71 530.643-1.15.616c-.3.155-.51.457-.61.792l11.34 3.416a1.27 1.27 0 0 0-.11-.966l-.62-1.156a6.51 6.51 0 0 0-8.85-2.702"/><path fill="#E4C837" d="M1108.85 543.992a1.29 1.29 0 0 1-1.77-.54l-.62-1.156a6.52 6.52 0 0 1 2.71-8.854l1.15-.615c.58-.307 1.46-.037 1.77.54l.62 1.156c1.73 3.25.47 7.162-2.7 8.854z"/><path fill="#000" fill-opacity=".08" d="m1112.71 534.523-.62-1.156c-.15-.291-.46-.504-.79-.605l-3.42 11.343c.31.086.66.054.97-.113l1.16-.615c3.17-1.692 4.43-5.604 2.7-8.854"/><path fill="#E4C837" d="M1106.2 543.922c.34.65.11 1.424-.54 1.77l-1.16.616c-3.18 1.692-7.12.548-8.85-2.702l-.62-1.156c-.31-.577-.04-1.463.54-1.771l1.16-.615a6.51 6.51 0 0 1 8.85 2.702z"/><path fill="#000" fill-opacity=".08" d="m1096.73 540.064-1.16.615c-.29.156-.5.458-.6.793l11.34 3.416c.08-.31.05-.653-.11-.966l-.62-1.156a6.51 6.51 0 0 0-8.85-2.702M1087.56 507.897c.3-.166.67-.228.98-.132l1.26.382a6.515 6.515 0 0 1 4.35 8.171l-.24.786 19.22 36.113c.12.225.26.55.2.905-.09.444-.41.721-.41.721l-.45-.983-19.27-35.553c-.01.009-.02.019-.04.027z"/></g><path stroke="#186635" stroke-linecap="round" stroke-width="5.664" d="M1168.98 527.12c.26-2.12.81-6.699-4.11-7.291"/><path fill="#F20B0B" d="M1152.62 533.667c.63-5.236 3.74-10.733 9.05-10.095 1.86.224 3.97 1.247 5.48 2.058 1.25.64 2.7.814 4.06.489 1.66-.429 3.96-.922 5.89-.69 5.23.63 7.02 6.716 6.39 11.952-1.06 8.819-7.37 14.77-12.88 14.107-1.17-.141-2.57-.729-3.49-1.189a2.5 2.5 0 0 0-1.73-.207c-.93.236-2.5.467-3.6.335-5.51-.664-10.23-7.941-9.17-16.76"/><path fill="#000" fill-opacity=".08" d="M1177.1 525.429c-1.93-.232-4.23.26-5.89.69-.7.166-1.42.202-2.12.111l-2.87 23.804c.31.031.62.12.9.265.92.46 2.32 1.048 3.49 1.189 5.51.663 11.82-5.288 12.88-14.107.63-5.236-1.16-11.322-6.39-11.952"/><path fill="#28A656" d="M1169.51 523.399a1.1 1.1 0 0 1-.97-1.235l.14-1.102a5.516 5.516 0 0 1 6.17-4.849l1.1.133c.56.066 1.04.684.97 1.235l-.13 1.102a5.52 5.52 0 0 1-6.17 4.849z"/><path fill="#000" fill-opacity=".08" d="m1176.79 518.683.13-1.102c.04-.278-.07-.573-.25-.806l-7.88 6.233c.17.21.42.355.72.391l1.11.132a5.52 5.52 0 0 0 6.17-4.848"/><circle cx="1172.24" cy="646.915" r="7.108" fill="#ADADAD" stroke="#858585" stroke-width="10"/><path fill="#000" fill-opacity=".08" d="M1172.57 659.067c6.69 0 12.11-5.421 12.11-12.108 0-4.276-2.22-8.034-5.57-10.188l-12.43 20.769c1.74.972 3.75 1.527 5.89 1.527"/><circle cx="1098.94" cy="646.915" r="7.108" fill="#ADADAD" stroke="#858585" stroke-width="10"/><path fill="#000" fill-opacity=".08" d="M1098.94 659.023c6.69 0 12.11-5.421 12.11-12.108a12.11 12.11 0 0 0-5.56-10.188l-12.44 20.769c1.74.972 3.75 1.527 5.89 1.527"/><path stroke="#ADADAD" stroke-linecap="round" stroke-width="14" d="M1060 535h8.34c5.75 0 10.7 4.087 11.78 9.74l11.63 60.65a18 18 0 0 0 17.68 14.61H1178"/><path fill="#858585" d="M1060 526a9 9 0 0 0 0 18v-18m12.18 21.806 1.81 8.817 17.63-3.612-1.8-8.817L1081 546zM1060 535v9h8.96v-18H1060zm20.71 9.592-8.82 1.806.29 1.408L1081 546l8.82-1.806-.29-1.408zM1068.96 535v9a2.99 2.99 0 0 1 2.93 2.398l8.82-1.806 8.82-1.806c-2-9.771-10.6-16.786-20.57-16.786z"/><path fill="#858585" stroke="#ADADAD" stroke-linecap="round" stroke-width="10" d="M1181.81 541.637c7.3 0 12.58 6.989 10.57 14.014l-7.05 24.738a22.99 22.99 0 0 1-22.11 16.695h-58.48l-10.26-55.447z"/><path stroke="#ADADAD" stroke-width="10" d="M1094.03 558.234h99.48M1097.96 579.832h91.31M1113.01 539.909l10.47 58.576M1164.72 539.582v58.903M1141.15 538.601l1.97 58.902"/><path fill="#000" fill-opacity=".08" d="m1197.19 557.022-7.05 24.737c-3.43 12.029-14.42 20.325-26.92 20.325h-5.05v-65.447h23.64c10.62 0 18.3 10.166 15.38 20.385"/><path stroke="#186635" stroke-linecap="round" stroke-width="5.664" d="M962.981 580.12c.255-2.12.806-6.699-4.113-7.291"/><path fill="#F20B0B" d="M946.622 586.667c.63-5.236 3.738-10.733 9.043-10.095 1.86.224 3.974 1.247 5.484 2.058a5.93 5.93 0 0 0 4.065.489c1.659-.429 3.955-.922 5.884-.69 5.236.63 7.02 6.716 6.39 11.952-1.061 8.819-7.369 14.77-12.88 14.107-1.172-.141-2.569-.729-3.492-1.189a2.48 2.48 0 0 0-1.722-.207c-.937.236-2.503.467-3.605.335-5.512-.664-10.228-7.941-9.167-16.76"/><path fill="#000" fill-opacity=".08" d="M971.098 578.429c-1.929-.232-4.225.26-5.884.69-.7.166-1.421.202-2.126.111l-2.865 23.804c.31.031.615.12.893.265.923.46 2.32 1.048 3.491 1.189 5.512.663 11.82-5.288 12.881-14.107.63-5.236-1.154-11.322-6.39-11.952"/><path fill="#28A656" d="M963.514 576.399a1.097 1.097 0 0 1-.97-1.235l.133-1.102a5.524 5.524 0 0 1 6.175-4.849l1.102.133c.552.066 1.037.684.97 1.235l-.132 1.102a5.526 5.526 0 0 1-6.176 4.849z"/><path fill="#000" fill-opacity=".08" d="m970.792 571.683.132-1.102c.034-.278-.073-.573-.258-.806l-7.879 6.233c.174.21.428.355.727.391l1.102.132a5.524 5.524 0 0 0 6.176-4.848"/><path stroke="#186635" stroke-linecap="round" stroke-width="5.664" d="M936.212 579.714c-.21-2.125-.664-6.715-5.594-6.227"/><path fill="#F20B0B" d="M921.66 589.65c-.519-5.249 1.324-11.288 6.641-11.814 1.865-.185 4.15.356 5.8.821 1.36.353 2.81.21 4.074-.403 1.527-.779 3.662-1.757 5.595-1.948 5.249-.519 8.308 5.036 8.827 10.284.875 8.839-3.994 16.015-9.519 16.562-1.174.116-2.665-.155-3.666-.405a2.5 2.5 0 0 0-1.726.171c-.864.434-2.342.999-3.447 1.108-5.525.546-11.705-5.537-12.579-14.376"/><path fill="#000" fill-opacity=".08" d="M943.77 576.306c-1.933.191-4.068 1.169-5.595 1.948a5.9 5.9 0 0 1-2.052.569l2.36 23.86c.31-.037.626-.016.929.064 1.001.25 2.492.521 3.666.405 5.525-.547 10.394-7.723 9.519-16.562-.519-5.248-3.579-10.803-8.827-10.284"/><path fill="#28A656" d="M935.927 575.966a1.096 1.096 0 0 1-1.214-.996l-.109-1.105a5.523 5.523 0 0 1 4.978-6.071l1.105-.109c.552-.054 1.159.443 1.214.996l.109 1.105a5.525 5.525 0 0 1-4.978 6.071z"/><path fill="#000" fill-opacity=".08" d="m942.01 569.786-.109-1.105c-.028-.279-.196-.543-.427-.73l-6.342 7.792c.216.167.495.253.795.223l1.105-.109a5.524 5.524 0 0 0 4.978-6.071"/><path fill="#76E49E" d="M981.336 611.603c-1.1 8.677-8.504 15.391-17.482 15.401l-27.443.03c-8.977.01-16.396-6.687-17.516-15.361zm-17.521-19.885c9.081-.01 16.567 6.843 17.552 15.664l-62.512.069c.965-8.822 8.435-15.692 17.517-15.702z"/><path fill="#000" fill-opacity=".08" d="m963.815 591.718-6.484.008.039 35.284 6.484-.007c9.744-.011 17.634-7.918 17.623-17.662s-7.918-17.633-17.662-17.623"/><path fill="#28A656" d="m975.745 607.388 5.73-.006.005 4.222-5.73.006z"/><path fill="#228C49" d="m924.476 607.444 51.269-.057.005 4.222-51.27.057z"/><path fill="#28A656" d="m918.746 607.451 5.73-.006.005 4.222-5.73.006z"/><path fill="#39C76D" d="m926.382 627.045 47.65-.053a7.5 7.5 0 0 0 4.898-1.815l-57.45.064a7.5 7.5 0 0 0 4.902 1.804M918.744 605.642l62.729-.07.002 1.81-62.729.069z"/><circle cx="926.73" cy="599.752" r="2.262" fill="#39C76D" transform="rotate(-.064 926.73 599.752)"/><path fill="#000" fill-opacity=".08" d="M926.732 602.013a2.262 2.262 0 0 0 1.353-4.073l-2.71 3.622c.378.284.848.452 1.357.451"/><circle cx="973.475" cy="599.7" r="2.262" fill="#39C76D" transform="rotate(-.064 973.475 599.7)"/><path fill="#000" fill-opacity=".08" d="M973.477 601.961a2.262 2.262 0 0 0 1.353-4.072l-2.71 3.622a2.25 2.25 0 0 0 1.357.45"/><circle cx="926.751" cy="619.053" r="2.262" fill="#39C76D" transform="rotate(-.064 926.751 619.053)"/><path fill="#000" fill-opacity=".08" d="M926.754 621.315a2.261 2.261 0 0 0 1.353-4.073l-2.711 3.622c.378.284.849.452 1.358.451"/><circle cx="973.496" cy="619.002" r="2.262" fill="#39C76D" transform="rotate(-.064 973.496 619.002)"/><path fill="#000" fill-opacity=".08" d="M973.499 621.263a2.26 2.26 0 0 0 1.353-4.073l-2.711 3.622a2.25 2.25 0 0 0 1.358.451"/><path fill="#28A656" d="M39 661h1646v275H39z" opacity=".8"/><path fill="url(#j)" fill-opacity=".2" d="M39 664h1645v274H39z" style="mix-blend-mode:color-burn"/><path fill="url(#k)" fill-opacity=".5" d="M40 746h1645v274H40z" style="mix-blend-mode:color-burn"/><path fill="url(#l)" fill-opacity=".5" d="M40 841h1645v274H40z" style="mix-blend-mode:color-burn"/></g></g><defs><clipPath id="b"><rect width="1600" height="900" x="42" y="35" fill="#fff" rx="32"/></clipPath><clipPath id="c"><path fill="#fff" d="M446 140h574v574H446z"/></clipPath><clipPath id="d"><path fill="#fff" d="M848 484.424 891.337 469l15.424 43.337-43.337 15.424z"/></clipPath><clipPath id="e"><path fill="#fff" d="m830 497.904 32.145-32.905 32.904 32.145-32.144 32.905z"/></clipPath><clipPath id="f"><path fill="#fff" d="M822 514.997 835.425 471l43.998 13.425-13.426 43.997z"/></clipPath><clipPath id="g"><path fill="#fff" d="M1101 494h82v82h-82z"/></clipPath><clipPath id="h"><path fill="#fff" d="M1088 551.997 1101.425 508l43.998 13.425-13.426 43.997z"/></clipPath><clipPath id="i"><path fill="#fff" d="M1071 545.997 1084.425 502l43.998 13.425-13.426 43.997z"/></clipPath><linearGradient id="j" x1="993.688" x2="993.688" y1="697.381" y2="925.83" gradientUnits="userSpaceOnUse"><stop stop-color="#D9D9D9"/><stop offset="1" stop-color="#737373"/></linearGradient><linearGradient id="k" x1="994.688" x2="994.688" y1="779.381" y2="1007.83" gradientUnits="userSpaceOnUse"><stop stop-color="#D9D9D9"/><stop offset="1" stop-color="#737373"/></linearGradient><linearGradient id="l" x1="994.688" x2="994.688" y1="874.381" y2="1102.83" gradientUnits="userSpaceOnUse"><stop stop-color="#D9D9D9"/><stop offset="1" stop-color="#737373"/></linearGradient><filter id="a" width="1673.44" height="973.44" x=".333" y=".753" color-interpolation-filters="sRGB" filterUnits="userSpaceOnUse"><feFlood flood-opacity="0" result="BackgroundImageFix"/><feColorMatrix in="SourceAlpha" result="hardAlpha" values="0 0 0 0 0 0 0 0 0 0 0 0 0 0 0 0 0 0 127 0"/><feOffset dx="-4.947" dy="2.473"/><feGaussianBlur stdDeviation="18.36"/><feComposite in2="hardAlpha" operator="out"/><feColorMatrix values="0 0 0 0 0 0 0 0 0 0 0 0 0 0 0 0 0 0 0.1 0"/><feBlend in2="BackgroundImageFix" result="effect1_dropShadow_813_6572"/><feBlend in="SourceGraphic" in2="effect1_dropShadow_813_6572" result="shape"/></filter></defs></svg>