<svg width="1674" height="975" viewBox="0 0 1674 975" fill="none" xmlns="http://www.w3.org/2000/svg">
<g filter="url(#filter0_d_813_6572)">
<g clip-path="url(#clip0_813_6572)">
<rect x="42" y="35" width="1600" height="900" rx="32" fill="#16B2D4"/>
<g clip-path="url(#clip1_813_6572)">
<rect x="510" y="256" width="439" height="403" rx="25" fill="#28A656"/>
<path d="M949 634V336C949 322.193 937.807 311 924 311H819C805.193 311 794 322.193 794 336V659H924C937.807 659 949 647.807 949 634Z" fill="black" fill-opacity="0.08"/>
<rect x="571.778" y="458.536" width="140.802" height="200.464" fill="#76E49E"/>
<rect x="652.918" y="458.536" width="59.6618" height="200.464" fill="black" fill-opacity="0.08"/>
<rect x="674.396" y="544.449" width="14.3188" height="26.2512" rx="7.15942" fill="#186635"/>
<path d="M904.623 165C914.446 165 923.286 169.913 928.197 178.753L984.188 267.157C1013.66 313.324 988.116 377.172 933.11 385.031H921.322C895.783 385.031 873.188 374.226 857.472 356.545C841.755 374.225 819.163 385.031 793.624 385.031C768.085 385.031 744.51 374.226 728.793 356.545C714.059 374.225 690.485 385.031 664.946 385.031C639.407 385.031 616.815 374.225 601.098 356.545C585.382 374.226 562.788 385.031 537.249 385.031H525.463C470.456 377.172 444.915 313.324 474.382 267.157L530.374 178.753C535.285 169.912 544.127 165 553.949 165H904.623Z" fill="#228C49"/>
<path d="M664.943 385.031C690.482 385.031 714.057 374.225 728.791 356.545L729.284 165H627.857L601.096 356.545C616.812 374.225 639.405 385.031 664.943 385.031Z" fill="#228C49"/>
<path d="M664.943 385.031C690.482 385.031 714.057 374.225 728.791 356.545L728.971 286.71H610.853L601.096 356.545C616.812 374.225 639.405 385.031 664.943 385.031Z" fill="#186635"/>
<path d="M792.433 385.031C766.894 385.031 743.32 374.225 728.586 356.545L728.093 165H829.519L856.281 356.545C840.564 374.225 817.972 385.031 792.433 385.031Z" fill="#228C49"/>
<path d="M537.249 385.031C562.788 385.031 585.382 374.226 601.098 356.545L627.86 165H553.949C544.127 165 535.285 169.912 530.374 178.753L474.382 267.157C444.915 313.324 470.456 377.172 525.463 385.031H537.249Z" fill="#28A656"/>
<path d="M537.249 385.031C562.788 385.031 585.382 374.226 601.098 356.545L610.855 286.71H465.371C452.376 329.596 477.908 378.237 525.463 385.031H537.249Z" fill="#228C49"/>
<path d="M920.128 385.031C894.589 385.031 871.995 374.226 856.279 356.545L829.517 165H903.428C913.25 165 922.092 169.912 927.003 178.753L982.995 267.157C1012.46 313.324 986.921 377.172 931.914 385.031H920.128Z" fill="#28A656"/>
<path d="M792.131 385.031C766.592 385.031 743.017 374.225 728.283 356.545L728.103 286.71H846.221L855.978 356.545C840.262 374.225 817.669 385.031 792.131 385.031Z" fill="#186635"/>
<path d="M919.918 385.031C894.379 385.031 871.785 374.225 856.069 356.545L846.312 286.71H991.796C1004.79 329.595 979.259 378.237 931.704 385.031H919.918Z" fill="#228C49"/>
<path d="M769.981 612.12C770.236 610 770.787 605.421 765.868 604.829" stroke="#186635" stroke-width="5.66406" stroke-linecap="round"/>
<path d="M753.622 618.667C754.252 613.431 757.36 607.934 762.665 608.572C764.525 608.796 766.639 609.819 768.149 610.63C769.4 611.27 770.847 611.444 772.214 611.119C773.873 610.69 776.169 610.197 778.098 610.429C783.334 611.059 785.118 617.145 784.488 622.381C783.427 631.2 777.119 637.151 771.607 636.488C770.436 636.347 769.039 635.759 768.116 635.299C767.59 635.026 766.969 634.951 766.393 635.092C765.456 635.328 763.891 635.559 762.788 635.427C757.277 634.763 752.561 627.486 753.622 618.667Z" fill="#F20B0B"/>
<path d="M778.098 610.429C776.169 610.197 773.873 610.689 772.214 611.119C771.514 611.285 770.793 611.321 770.088 611.23L767.223 635.034C767.533 635.065 767.838 635.154 768.116 635.299C769.039 635.759 770.436 636.347 771.607 636.488C777.119 637.151 783.427 631.2 784.488 622.381C785.118 617.145 783.334 611.059 778.098 610.429Z" fill="black" fill-opacity="0.08"/>
<path d="M770.514 608.399C769.894 608.324 769.47 607.784 769.544 607.164L769.677 606.062C770.042 603.03 772.752 600.84 775.852 601.213L776.954 601.346C777.506 601.412 777.991 602.03 777.924 602.581L777.792 603.683C777.418 606.783 774.648 608.896 771.616 608.532L770.514 608.399Z" fill="#28A656"/>
<path d="M777.792 603.683L777.924 602.581C777.958 602.303 777.851 602.008 777.666 601.775L769.787 608.008C769.961 608.218 770.215 608.363 770.514 608.399L771.617 608.531C774.648 608.896 777.419 606.783 777.792 603.683Z" fill="black" fill-opacity="0.08"/>
<path d="M743.212 611.714C743.002 609.589 742.548 604.999 737.618 605.487" stroke="#186635" stroke-width="5.66406" stroke-linecap="round"/>
<path d="M728.66 621.65C728.141 616.401 729.984 610.362 735.302 609.836C737.166 609.651 739.451 610.192 741.101 610.657C742.461 611.01 743.911 610.867 745.176 610.254C746.702 609.475 748.837 608.497 750.771 608.306C756.019 607.787 759.079 613.342 759.598 618.59C760.472 627.429 755.603 634.605 750.079 635.152C748.905 635.268 747.413 634.997 746.413 634.747C745.84 634.595 745.218 634.656 744.686 634.918C743.822 635.352 742.344 635.917 741.239 636.026C735.715 636.572 729.534 630.489 728.66 621.65Z" fill="#F20B0B"/>
<path d="M750.771 608.306C748.837 608.497 746.702 609.475 745.175 610.254C744.528 610.568 743.832 610.759 743.124 610.823L745.483 634.683C745.793 634.646 746.11 634.667 746.412 634.747C747.413 634.997 748.905 635.268 750.079 635.152C755.603 634.605 760.472 627.429 759.598 618.59C759.079 613.342 756.019 607.787 750.771 608.306Z" fill="black" fill-opacity="0.08"/>
<path d="M742.927 607.966C742.305 608.027 741.774 607.592 741.713 606.97L741.603 605.865C741.303 602.827 743.474 600.102 746.581 599.794L747.686 599.685C748.239 599.631 748.846 600.128 748.901 600.681L749.01 601.786C749.317 604.893 747.07 607.556 744.032 607.857L742.927 607.966Z" fill="#28A656"/>
<path d="M749.01 601.786L748.901 600.681C748.873 600.402 748.705 600.138 748.474 599.951L742.132 607.743C742.347 607.91 742.627 607.996 742.927 607.966L744.032 607.857C747.07 607.556 749.317 604.894 749.01 601.786Z" fill="black" fill-opacity="0.08"/>
<path d="M788.336 643.603C787.235 652.28 779.831 658.994 770.854 659.004L743.41 659.034C734.433 659.044 727.014 652.347 725.894 643.673L788.336 643.603ZM770.814 623.718C779.896 623.708 787.381 630.561 788.366 639.382L725.854 639.451C726.82 630.629 734.29 623.759 743.371 623.749L770.814 623.718Z" fill="#76E49E"/>
<path d="M770.815 623.718L764.331 623.726L764.37 659.01L770.854 659.003C780.597 658.992 788.487 651.085 788.477 641.341C788.466 631.598 780.558 623.708 770.815 623.718Z" fill="black" fill-opacity="0.08"/>
<rect x="782.744" y="639.388" width="5.73002" height="4.22212" transform="rotate(-0.0637727 782.744 639.388)" fill="#28A656"/>
<rect x="731.476" y="639.444" width="51.2686" height="4.22212" transform="rotate(-0.0637727 731.476 639.444)" fill="#228C49"/>
<rect x="725.746" y="639.451" width="5.73002" height="4.22212" transform="rotate(-0.0637727 725.746 639.451)" fill="#28A656"/>
<path d="M733.382 659.045L781.032 658.992C782.902 658.99 784.613 658.307 785.93 657.177L728.48 657.241C729.799 658.368 731.511 659.047 733.382 659.045Z" fill="#39C76D"/>
<rect x="725.744" y="637.642" width="62.7287" height="1.80948" transform="rotate(-0.0637727 725.744 637.642)" fill="#39C76D"/>
<circle cx="733.729" cy="631.752" r="2.26185" transform="rotate(-0.0637727 733.729 631.752)" fill="#39C76D"/>
<path d="M733.732 634.013C734.981 634.012 735.992 632.998 735.991 631.749C735.99 631.009 735.634 630.352 735.084 629.94L732.374 633.562C732.752 633.846 733.222 634.014 733.732 634.013Z" fill="black" fill-opacity="0.08"/>
<circle cx="780.474" cy="631.7" r="2.26185" transform="rotate(-0.0637727 780.474 631.7)" fill="#39C76D"/>
<path d="M780.476 633.961C781.726 633.96 782.737 632.946 782.736 631.697C782.735 630.957 782.379 630.301 781.829 629.889L779.119 633.511C779.497 633.794 779.967 633.962 780.476 633.961Z" fill="black" fill-opacity="0.08"/>
<circle cx="733.75" cy="651.053" r="2.26185" transform="rotate(-0.0637727 733.75 651.053)" fill="#39C76D"/>
<path d="M733.753 653.315C735.002 653.314 736.014 652.3 736.012 651.051C736.012 650.311 735.656 649.654 735.106 649.242L732.395 652.864C732.774 653.148 733.244 653.316 733.753 653.315Z" fill="black" fill-opacity="0.08"/>
<circle cx="780.495" cy="651.002" r="2.26185" transform="rotate(-0.0637727 780.495 651.002)" fill="#39C76D"/>
<path d="M780.498 653.263C781.747 653.262 782.759 652.248 782.757 650.999C782.756 650.259 782.4 649.602 781.851 649.19L779.14 652.812C779.519 653.096 779.989 653.264 780.498 653.263Z" fill="black" fill-opacity="0.08"/>
<path d="M806.2 482.2C812.15 482.2 817.4 487.45 817.4 493.4V538.2H996.6V493.4C996.6 487.45 1001.5 482.2 1007.8 482.2C1013.75 482.2 1019 487.45 1019 493.4V549.4V639V650.2C1019 656.5 1013.75 661.4 1007.8 661.4C1001.5 661.4 996.6 656.5 996.6 650.2H817.4C817.4 656.5 812.15 661.4 806.2 661.4C799.9 661.4 795 656.5 795 650.2V639V549.4V493.4C795 487.45 799.9 482.2 806.2 482.2ZM817.4 627.8H996.6V560.6H817.4V627.8Z" fill="#186635"/>
<g clip-path="url(#clip2_813_6572)">
<path d="M864.289 521.279C863.815 522.277 864.24 523.47 865.237 523.944C866.235 524.418 867.428 523.993 867.902 522.995L866.096 522.137L864.289 521.279ZM885.402 486.155L886.26 484.348L882.647 482.632L881.789 484.438L883.596 485.297L885.402 486.155ZM866.096 522.137L867.902 522.995L885.402 486.155L883.596 485.297L881.789 484.438L864.289 521.279L866.096 522.137Z" fill="#E4C837"/>
<path d="M884.393 485.776C883.699 486.023 882.967 485.675 882.72 484.981L882.281 483.748C881.074 480.356 882.784 476.621 886.253 475.386L887.487 474.947C888.103 474.728 888.939 475.125 889.159 475.742L889.598 476.975C890.833 480.444 889.018 484.13 885.626 485.337L884.393 485.776Z" fill="#E4C837"/>
<path d="M881.098 494.81C880.432 494.494 880.161 493.731 880.477 493.066L881.039 491.883C882.583 488.631 886.434 487.199 889.76 488.779L890.942 489.341C891.534 489.622 891.844 490.494 891.563 491.085L891.001 492.268C889.421 495.594 885.532 496.917 882.28 495.372L881.098 494.81Z" fill="#E4C837"/>
<path d="M891.001 492.268L891.563 491.086C891.705 490.788 891.696 490.418 891.577 490.089L880.431 494.101C880.547 494.401 880.776 494.658 881.098 494.81L882.28 495.372C885.532 496.917 889.421 495.594 891.001 492.268Z" fill="black" fill-opacity="0.08"/>
<path d="M879.573 492.636C879.257 493.301 878.494 493.573 877.829 493.257L876.646 492.695C873.395 491.151 871.963 487.3 873.542 483.974L874.104 482.792C874.385 482.2 875.257 481.89 875.848 482.171L877.031 482.733C880.357 484.312 881.68 488.202 880.135 491.454L879.573 492.636Z" fill="#E4C837"/>
<path d="M877.031 482.732L875.848 482.17C875.55 482.029 875.181 482.038 874.851 482.157L878.864 493.302C879.164 493.187 879.421 492.957 879.573 492.636L880.135 491.453C881.68 488.201 880.357 484.312 877.031 482.732Z" fill="black" fill-opacity="0.08"/>
<path d="M876.736 503.991C876.071 503.675 875.8 502.912 876.116 502.246L876.677 501.064C878.222 497.812 882.073 496.38 885.398 497.96L886.581 498.522C887.172 498.803 887.483 499.675 887.202 500.266L886.64 501.448C885.06 504.774 881.171 506.097 877.919 504.552L876.736 503.991Z" fill="#E4C837"/>
<path d="M886.64 501.449L887.202 500.266C887.343 499.968 887.335 499.599 887.215 499.269L876.07 503.282C876.186 503.582 876.415 503.839 876.736 503.991L877.919 504.553C881.171 506.098 885.06 504.775 886.64 501.449Z" fill="black" fill-opacity="0.08"/>
<path d="M875.212 501.817C874.896 502.482 874.133 502.754 873.468 502.438L872.285 501.876C869.033 500.331 867.601 496.481 869.181 493.155L869.743 491.972C870.024 491.381 870.896 491.071 871.487 491.351L872.67 491.913C875.995 493.493 877.318 497.382 875.774 500.634L875.212 501.817Z" fill="#E4C837"/>
<path d="M872.67 491.913L871.487 491.351C871.189 491.209 870.819 491.218 870.49 491.337L874.503 502.483C874.802 502.367 875.059 502.138 875.212 501.817L875.774 500.634C877.318 497.382 875.995 493.493 872.67 491.913Z" fill="black" fill-opacity="0.08"/>
<path d="M872.157 513.631C871.492 513.315 871.22 512.552 871.536 511.887L872.098 510.705C873.642 507.453 877.493 506.021 880.819 507.601L882.001 508.162C882.593 508.443 882.903 509.315 882.622 509.907L882.06 511.089C880.481 514.415 876.591 515.738 873.339 514.193L872.157 513.631Z" fill="#E4C837"/>
<path d="M882.06 511.09L882.622 509.907C882.764 509.609 882.755 509.239 882.636 508.91L871.49 512.922C871.606 513.222 871.835 513.479 872.157 513.632L873.339 514.193C876.591 515.738 880.48 514.415 882.06 511.09Z" fill="black" fill-opacity="0.08"/>
<path d="M870.632 511.458C870.316 512.123 869.553 512.394 868.888 512.078L867.706 511.517C864.454 509.972 863.022 506.121 864.602 502.795L865.163 501.613C865.444 501.022 866.316 500.711 866.908 500.992L868.09 501.554C871.416 503.134 872.739 507.023 871.194 510.275L870.632 511.458Z" fill="#E4C837"/>
<path d="M868.09 501.553L866.907 500.992C866.609 500.85 866.24 500.859 865.911 500.978L869.923 512.124C870.223 512.008 870.48 511.778 870.632 511.457L871.194 510.275C872.739 507.023 871.416 503.133 868.09 501.553Z" fill="black" fill-opacity="0.08"/>
<path d="M888.464 475.027C888.781 475.175 889.048 475.431 889.159 475.742L889.598 476.975C890.832 480.444 889.018 484.13 885.626 485.337L884.852 485.612L867.298 522.568C867.188 522.797 867.012 523.105 866.686 523.262C866.28 523.459 865.864 523.364 865.864 523.364L866.385 522.416L883.467 485.764C883.452 485.758 883.435 485.753 883.419 485.746L888.464 475.027Z" fill="black" fill-opacity="0.08"/>
</g>
<g clip-path="url(#clip3_813_6572)">
<path d="M860.832 523.847C860.845 524.951 861.751 525.836 862.855 525.823C863.96 525.81 864.845 524.904 864.832 523.8L862.832 523.823L860.832 523.847ZM864.355 483.017L864.332 481.017L860.332 481.064L860.356 483.064L862.355 483.04L864.355 483.017ZM862.832 523.823L864.832 523.8L864.355 483.017L862.355 483.04L860.356 483.064L860.832 523.847L862.832 523.823Z" fill="#E4C837"/>
<path d="M863.282 483.121C862.767 483.647 861.958 483.657 861.431 483.142L860.494 482.227C857.919 479.712 857.813 475.605 860.386 472.971L861.301 472.035C861.758 471.566 862.684 471.556 863.152 472.013L864.089 472.928C866.723 475.501 866.713 479.609 864.197 482.184L863.282 483.121Z" fill="#E4C837"/>
<path d="M864.294 492.683C863.557 492.692 862.978 492.126 862.969 491.39L862.954 490.08C862.912 486.481 865.741 483.502 869.423 483.459L870.732 483.443C871.386 483.436 872.049 484.083 872.056 484.737L872.071 486.046C872.114 489.728 869.203 492.626 865.603 492.668L864.294 492.683Z" fill="#E4C837"/>
<path d="M872.072 486.046L872.056 484.737C872.053 484.406 871.882 484.078 871.63 483.835L863.383 492.339C863.619 492.557 863.938 492.687 864.294 492.683L865.603 492.667C869.203 492.625 872.115 489.727 872.072 486.046Z" fill="black" fill-opacity="0.08"/>
<path d="M861.969 491.401C861.978 492.138 861.412 492.717 860.675 492.726L859.366 492.741C855.766 492.783 852.787 489.954 852.744 486.272L852.729 484.963C852.721 484.308 853.368 483.646 854.023 483.639L855.332 483.623C859.014 483.58 861.912 486.492 861.954 490.092L861.969 491.401Z" fill="#E4C837"/>
<path d="M855.332 483.624L854.023 483.639C853.693 483.643 853.364 483.813 853.121 484.065L861.625 492.312C861.843 492.076 861.973 491.757 861.969 491.402L861.954 490.092C861.911 486.493 859.013 483.581 855.332 483.624Z" fill="black" fill-opacity="0.08"/>
<path d="M864.412 502.847C863.676 502.856 863.096 502.29 863.088 501.554L863.073 500.245C863.03 496.645 865.86 493.666 869.541 493.623L870.85 493.607C871.505 493.6 872.167 494.247 872.175 494.901L872.19 496.21C872.233 499.892 869.321 502.79 865.721 502.832L864.412 502.847Z" fill="#E4C837"/>
<path d="M872.19 496.21L872.175 494.901C872.171 494.571 872.001 494.242 871.749 493.999L863.502 502.503C863.738 502.721 864.057 502.851 864.412 502.847L865.721 502.831C869.321 502.789 872.233 499.891 872.19 496.21Z" fill="black" fill-opacity="0.08"/>
<path d="M862.088 501.565C862.096 502.302 861.53 502.881 860.794 502.89L859.485 502.905C855.885 502.947 852.906 500.118 852.863 496.436L852.848 495.127C852.84 494.473 853.487 493.81 854.141 493.803L855.451 493.787C859.132 493.744 862.03 496.656 862.072 500.256L862.088 501.565Z" fill="#E4C837"/>
<path d="M855.45 493.788L854.141 493.803C853.811 493.807 853.483 493.977 853.24 494.229L861.743 502.476C861.962 502.24 862.092 501.921 862.087 501.566L862.072 500.257C862.03 496.657 859.132 493.745 855.45 493.788Z" fill="black" fill-opacity="0.08"/>
<path d="M864.537 513.519C863.8 513.528 863.221 512.962 863.212 512.225L863.197 510.916C863.155 507.316 865.984 504.338 869.666 504.295L870.975 504.279C871.63 504.272 872.292 504.919 872.299 505.573L872.315 506.882C872.358 510.564 869.446 513.462 865.846 513.504L864.537 513.519Z" fill="#E4C837"/>
<path d="M872.315 506.882L872.3 505.572C872.296 505.242 872.125 504.914 871.874 504.671L863.627 513.175C863.862 513.393 864.181 513.523 864.537 513.519L865.846 513.503C869.446 513.461 872.358 510.563 872.315 506.882Z" fill="black" fill-opacity="0.08"/>
<path d="M862.212 512.237C862.221 512.974 861.655 513.553 860.918 513.562L859.609 513.577C856.009 513.619 853.031 510.79 852.988 507.108L852.972 505.799C852.965 505.144 853.611 504.482 854.266 504.475L855.575 504.459C859.257 504.416 862.155 507.328 862.197 510.928L862.212 512.237Z" fill="#E4C837"/>
<path d="M855.575 504.46L854.266 504.475C853.936 504.479 853.608 504.649 853.364 504.901L861.868 513.148C862.086 512.912 862.216 512.593 862.212 512.237L862.197 510.928C862.155 507.329 859.257 504.417 855.575 504.46Z" fill="black" fill-opacity="0.08"/>
<path d="M862.214 471.676C862.564 471.67 862.916 471.783 863.153 472.013L864.089 472.928C866.722 475.501 866.713 479.609 864.197 482.184L863.623 482.772L864.101 523.682C864.104 523.936 864.08 524.29 863.857 524.574C863.578 524.93 863.163 525.027 863.163 525.027L863.214 523.946L862.446 483.517C862.429 483.518 862.412 483.521 862.395 483.522L862.214 471.676Z" fill="black" fill-opacity="0.08"/>
</g>
<g clip-path="url(#clip4_813_6572)">
<path d="M861.306 523.867C861.825 524.842 863.036 525.211 864.011 524.692C864.986 524.173 865.356 522.962 864.837 521.987L863.072 522.927L861.306 523.867ZM845.67 485.986L844.73 484.22L841.199 486.1L842.139 487.865L843.904 486.926L845.67 485.986ZM863.072 522.927L864.837 521.987L845.67 485.986L843.904 486.926L842.139 487.865L861.306 523.867L863.072 522.927Z" fill="#E4C837"/>
<path d="M844.764 486.571C844.549 487.275 843.834 487.656 843.13 487.441L841.877 487.059C838.434 486.008 836.453 482.409 837.527 478.888L837.909 477.636C838.1 477.009 838.917 476.574 839.543 476.765L840.796 477.148C844.317 478.222 846.197 481.875 845.146 485.319L844.764 486.571Z" fill="#E4C837"/>
<path d="M850.057 494.599C849.407 494.945 848.632 494.708 848.286 494.058L847.671 492.903C845.979 489.725 847.123 485.779 850.373 484.049L851.528 483.434C852.106 483.126 852.991 483.396 853.299 483.974L853.914 485.13C855.645 488.38 854.39 492.292 851.213 493.984L850.057 494.599Z" fill="#E4C837"/>
<path d="M853.914 485.129L853.299 483.974C853.144 483.682 852.842 483.469 852.506 483.369L849.09 494.711C849.4 494.797 849.743 494.766 850.057 494.599L851.213 493.983C854.39 492.291 855.645 488.379 853.914 485.129Z" fill="black" fill-opacity="0.08"/>
<path d="M847.403 494.528C847.749 495.178 847.513 495.953 846.863 496.299L845.707 496.914C842.529 498.606 838.583 497.462 836.853 494.212L836.238 493.057C835.93 492.479 836.2 491.594 836.778 491.286L837.934 490.671C841.184 488.94 845.096 490.195 846.788 493.372L847.403 494.528Z" fill="#E4C837"/>
<path d="M837.934 490.671L836.778 491.286C836.487 491.441 836.274 491.743 836.174 492.079L847.516 495.495C847.602 495.185 847.57 494.842 847.403 494.528L846.788 493.372C845.096 490.195 841.184 488.94 837.934 490.671Z" fill="black" fill-opacity="0.08"/>
<path d="M854.834 503.571C854.184 503.918 853.409 503.681 853.063 503.031L852.448 501.876C850.756 498.698 851.899 494.752 855.149 493.021L856.305 492.406C856.883 492.099 857.768 492.369 858.076 492.947L858.691 494.102C860.421 497.352 859.167 501.264 855.989 502.956L854.834 503.571Z" fill="#E4C837"/>
<path d="M858.691 494.102L858.076 492.946C857.921 492.655 857.619 492.442 857.283 492.342L853.867 503.684C854.177 503.77 854.52 503.738 854.834 503.571L855.989 502.956C859.167 501.264 860.422 497.352 858.691 494.102Z" fill="black" fill-opacity="0.08"/>
<path d="M852.18 503.501C852.526 504.151 852.29 504.925 851.64 505.271L850.484 505.887C847.306 507.579 843.36 506.435 841.63 503.185L841.015 502.029C840.707 501.452 840.977 500.566 841.555 500.259L842.711 499.643C845.961 497.913 849.873 499.167 851.565 502.345L852.18 503.501Z" fill="#E4C837"/>
<path d="M842.711 499.643L841.555 500.259C841.264 500.414 841.051 500.716 840.95 501.051L852.293 504.467C852.379 504.158 852.347 503.815 852.18 503.501L851.565 502.345C849.873 499.167 845.961 497.913 842.711 499.643Z" fill="black" fill-opacity="0.08"/>
<path d="M859.849 512.992C859.199 513.338 858.425 513.102 858.079 512.452L857.463 511.296C855.771 508.119 856.915 504.173 860.165 502.442L861.321 501.827C861.898 501.52 862.784 501.79 863.092 502.367L863.707 503.523C865.437 506.773 864.183 510.685 861.005 512.377L859.849 512.992Z" fill="#E4C837"/>
<path d="M863.707 503.523L863.092 502.367C862.936 502.076 862.634 501.863 862.299 501.762L858.883 513.105C859.193 513.191 859.536 513.159 859.849 512.992L861.005 512.377C864.183 510.685 865.437 506.773 863.707 503.523Z" fill="black" fill-opacity="0.08"/>
<path d="M857.196 512.922C857.542 513.572 857.305 514.346 856.655 514.692L855.5 515.308C852.322 517 848.376 515.856 846.646 512.606L846.03 511.45C845.723 510.873 845.993 509.987 846.571 509.679L847.726 509.064C850.976 507.334 854.888 508.588 856.58 511.766L857.196 512.922Z" fill="#E4C837"/>
<path d="M847.726 509.064L846.571 509.679C846.279 509.835 846.066 510.137 845.966 510.472L857.309 513.888C857.394 513.578 857.363 513.235 857.196 512.922L856.581 511.766C854.889 508.588 850.977 507.334 847.726 509.064Z" fill="black" fill-opacity="0.08"/>
<path d="M838.555 476.897C838.863 476.731 839.228 476.669 839.544 476.765L840.796 477.147C844.317 478.222 846.197 481.875 845.146 485.318L844.906 486.104L864.133 522.217C864.253 522.442 864.394 522.767 864.327 523.122C864.243 523.566 863.919 523.843 863.919 523.843L863.468 522.86L844.203 487.307C844.189 487.316 844.175 487.326 844.16 487.334L838.555 476.897Z" fill="black" fill-opacity="0.08"/>
</g>
<path d="M898.965 520.562C897.718 530.397 889.326 538.006 879.15 538.017L848.043 538.052C837.867 538.063 829.458 530.473 828.188 520.64L898.965 520.562ZM828.023 518.15C828.023 518.126 828.022 518.102 828.022 518.077C828.022 518.052 828.023 518.028 828.023 518.003L828.023 518.15ZM879.105 498.022C889.398 498.011 897.881 505.779 898.998 515.775L828.144 515.854C829.238 505.855 837.705 498.068 847.998 498.057L879.105 498.022Z" fill="#76E49E"/>
<path d="M879.106 498.022L871.757 498.03L871.801 538.025L879.151 538.017C890.195 538.005 899.139 529.042 899.126 517.997C899.114 506.953 890.151 498.01 879.106 498.022Z" fill="black" fill-opacity="0.08"/>
<rect x="892.628" y="515.783" width="6.49446" height="4.78539" transform="rotate(-0.0637727 892.628 515.783)" fill="#28A656"/>
<rect x="834.517" y="515.848" width="58.1127" height="4.78575" transform="rotate(-0.0637727 834.517 515.848)" fill="#228C49"/>
<rect x="828.022" y="515.854" width="6.49446" height="4.78539" transform="rotate(-0.0637727 828.022 515.854)" fill="#28A656"/>
<path d="M836.678 538.065L890.688 538.005C892.809 538.003 894.748 537.228 896.241 535.948L831.121 536.021C832.616 537.298 834.557 538.068 836.678 538.065Z" fill="#39C76D"/>
<rect x="828.019" y="513.804" width="71.1026" height="2.05104" transform="rotate(-0.0637727 828.019 513.804)" fill="#39C76D"/>
<circle cx="837.07" cy="507.127" r="2.5636" transform="rotate(-0.0637727 837.07 507.127)" fill="#39C76D"/>
<path d="M837.071 509.691C838.486 509.689 839.633 508.54 839.631 507.124C839.63 506.286 839.227 505.542 838.604 505.075L835.532 509.18C835.961 509.501 836.494 509.692 837.071 509.691Z" fill="black" fill-opacity="0.08"/>
<circle cx="890.052" cy="507.069" r="2.5636" transform="rotate(-0.0637727 890.052 507.069)" fill="#39C76D"/>
<path d="M890.055 509.632C891.471 509.631 892.617 508.482 892.616 507.066C892.615 506.227 892.211 505.483 891.588 505.016L888.516 509.121C888.945 509.443 889.478 509.633 890.055 509.632Z" fill="black" fill-opacity="0.08"/>
<circle cx="837.094" cy="529.006" r="2.5636" transform="rotate(-0.0637727 837.094 529.006)" fill="#39C76D"/>
<path d="M837.097 531.57C838.512 531.568 839.659 530.419 839.657 529.003C839.656 528.165 839.253 527.421 838.63 526.954L835.558 531.059C835.987 531.38 836.519 531.57 837.097 531.57Z" fill="black" fill-opacity="0.08"/>
<circle cx="890.08" cy="528.946" r="2.5636" transform="rotate(-0.0637727 890.08 528.946)" fill="#39C76D"/>
<path d="M890.083 531.51C891.499 531.509 892.645 530.36 892.644 528.944C892.643 528.105 892.239 527.361 891.616 526.894L888.544 530.999C888.973 531.321 889.506 531.511 890.083 531.51Z" fill="black" fill-opacity="0.08"/>
<path d="M875.981 580.12C876.236 578 876.787 573.421 871.868 572.829" stroke="#186635" stroke-width="5.66406" stroke-linecap="round"/>
<path d="M859.622 586.667C860.252 581.431 863.36 575.934 868.665 576.572C870.525 576.796 872.639 577.819 874.149 578.63C875.4 579.27 876.847 579.444 878.214 579.119C879.873 578.69 882.169 578.197 884.098 578.429C889.334 579.059 891.118 585.145 890.488 590.381C889.427 599.2 883.119 605.151 877.608 604.488C876.436 604.347 875.039 603.759 874.116 603.299C873.59 603.026 872.97 602.951 872.394 603.092C871.457 603.328 869.891 603.559 868.789 603.427C863.277 602.763 858.561 595.486 859.622 586.667Z" fill="#39C76D"/>
<path d="M884.098 578.429C882.169 578.197 879.873 578.689 878.214 579.119C877.514 579.285 876.793 579.321 876.088 579.23L873.223 603.034C873.533 603.065 873.838 603.154 874.116 603.299C875.039 603.759 876.436 604.347 877.607 604.488C883.119 605.151 889.427 599.2 890.488 590.381C891.118 585.145 889.334 579.059 884.098 578.429Z" fill="black" fill-opacity="0.08"/>
<path d="M876.514 576.399C875.894 576.324 875.47 575.784 875.544 575.164L875.677 574.062C876.042 571.03 878.752 568.84 881.852 569.213L882.954 569.346C883.506 569.412 883.991 570.03 883.924 570.581L883.792 571.683C883.418 574.783 880.648 576.896 877.616 576.532L876.514 576.399Z" fill="#28A656"/>
<path d="M883.792 571.683L883.924 570.581C883.958 570.303 883.851 570.008 883.666 569.775L875.787 576.008C875.961 576.218 876.215 576.363 876.514 576.399L877.616 576.531C880.648 576.896 883.418 574.783 883.792 571.683Z" fill="black" fill-opacity="0.08"/>
<path d="M849.212 579.714C849.002 577.589 848.548 572.999 843.618 573.487" stroke="#186635" stroke-width="5.66406" stroke-linecap="round"/>
<path d="M834.66 589.65C834.141 584.401 835.984 578.362 841.301 577.836C843.166 577.651 845.451 578.192 847.101 578.657C848.461 579.01 849.911 578.867 851.175 578.254C852.702 577.475 854.837 576.497 856.77 576.306C862.019 575.787 865.078 581.342 865.597 586.59C866.472 595.429 861.603 602.605 856.078 603.152C854.904 603.268 853.413 602.997 852.412 602.747C851.839 602.595 851.218 602.656 850.686 602.918C849.822 603.352 848.344 603.917 847.239 604.026C841.714 604.572 835.534 598.489 834.66 589.65Z" fill="#39C76D"/>
<path d="M856.77 576.306C854.837 576.497 852.702 577.475 851.175 578.254C850.527 578.568 849.831 578.759 849.123 578.823L851.483 602.683C851.793 602.646 852.109 602.667 852.412 602.747C853.413 602.997 854.904 603.268 856.078 603.152C861.603 602.605 866.472 595.429 865.597 586.59C865.078 581.342 862.018 575.787 856.77 576.306Z" fill="black" fill-opacity="0.08"/>
<path d="M848.927 575.966C848.305 576.027 847.774 575.592 847.713 574.97L847.604 573.865C847.303 570.827 849.474 568.102 852.582 567.794L853.687 567.685C854.239 567.631 854.846 568.128 854.901 568.681L855.01 569.786C855.317 572.893 853.07 575.556 850.032 575.857L848.927 575.966Z" fill="#28A656"/>
<path d="M855.01 569.786L854.901 568.681C854.873 568.402 854.705 568.138 854.474 567.951L848.132 575.743C848.348 575.91 848.627 575.996 848.927 575.966L850.032 575.857C853.07 575.556 855.317 572.894 855.01 569.786Z" fill="black" fill-opacity="0.08"/>
<path d="M894.336 611.603C893.235 620.28 885.831 626.994 876.854 627.004L849.41 627.034C840.433 627.044 833.014 620.347 831.894 611.673L894.336 611.603ZM876.814 591.718C885.896 591.708 893.381 598.561 894.366 607.382L831.854 607.451C832.82 598.629 840.29 591.759 849.371 591.749L876.814 591.718Z" fill="#76E49E"/>
<path d="M876.815 591.718L870.331 591.726L870.37 627.01L876.854 627.003C886.597 626.992 894.487 619.085 894.477 609.341C894.466 599.598 886.558 591.708 876.815 591.718Z" fill="black" fill-opacity="0.08"/>
<rect x="888.744" y="607.388" width="5.73002" height="4.22212" transform="rotate(-0.0637727 888.744 607.388)" fill="#28A656"/>
<rect x="837.476" y="607.444" width="51.2686" height="4.22212" transform="rotate(-0.0637727 837.476 607.444)" fill="#228C49"/>
<rect x="831.746" y="607.451" width="5.73002" height="4.22212" transform="rotate(-0.0637727 831.746 607.451)" fill="#28A656"/>
<path d="M839.382 627.045L887.031 626.992C888.902 626.99 890.613 626.307 891.93 625.177L834.479 625.241C835.799 626.368 837.511 627.047 839.382 627.045Z" fill="#39C76D"/>
<rect x="831.744" y="605.642" width="62.7287" height="1.80948" transform="rotate(-0.0637727 831.744 605.642)" fill="#39C76D"/>
<circle cx="839.729" cy="599.752" r="2.26185" transform="rotate(-0.0637727 839.729 599.752)" fill="#39C76D"/>
<path d="M839.732 602.013C840.981 602.012 841.992 600.998 841.991 599.749C841.99 599.009 841.634 598.352 841.085 597.94L838.374 601.562C838.752 601.846 839.223 602.014 839.732 602.013Z" fill="black" fill-opacity="0.08"/>
<circle cx="886.474" cy="599.7" r="2.26185" transform="rotate(-0.0637727 886.474 599.7)" fill="#39C76D"/>
<path d="M886.477 601.961C887.726 601.96 888.738 600.946 888.736 599.697C888.735 598.957 888.379 598.301 887.83 597.889L885.119 601.511C885.498 601.794 885.968 601.962 886.477 601.961Z" fill="black" fill-opacity="0.08"/>
<circle cx="839.751" cy="619.053" r="2.26185" transform="rotate(-0.0637727 839.751 619.053)" fill="#39C76D"/>
<path d="M839.753 621.315C841.002 621.314 842.014 620.3 842.013 619.051C842.012 618.311 841.656 617.654 841.106 617.242L838.396 620.864C838.774 621.148 839.244 621.316 839.753 621.315Z" fill="black" fill-opacity="0.08"/>
<circle cx="886.496" cy="619.002" r="2.26185" transform="rotate(-0.0637727 886.496 619.002)" fill="#39C76D"/>
<path d="M886.498 621.263C887.748 621.262 888.759 620.248 888.758 618.999C888.757 618.259 888.401 617.602 887.851 617.19L885.141 620.812C885.519 621.096 885.989 621.264 886.498 621.263Z" fill="black" fill-opacity="0.08"/>
<path d="M953.837 497.242C950.98 497.242 948.758 495.02 948.758 492.163V487.084C948.758 473.116 959.869 461.688 974.154 461.688H979.233C981.773 461.688 984.312 464.227 984.312 466.767V471.846C984.312 486.131 972.884 497.242 958.916 497.242H953.837Z" fill="#28A656"/>
<path d="M984.313 471.846V466.766C984.313 465.486 983.667 464.205 982.701 463.25L950.321 495.866C951.226 496.724 952.457 497.242 953.837 497.242H958.916C972.884 497.242 984.313 486.131 984.313 471.846Z" fill="black" fill-opacity="0.08"/>
<path d="M944.801 524.148C944.801 528.014 947.935 531.148 951.801 531.148C955.667 531.148 958.801 528.014 958.801 524.148H951.801H944.801ZM943.793 489.234L938.07 493.265L942.247 499.197L947.971 495.166L953.694 491.136L949.516 485.204L943.793 489.234ZM951.801 507.258H944.801V524.148H951.801H958.801V507.258H951.801ZM947.971 495.166L942.247 499.197C943.909 501.556 944.801 504.372 944.801 507.258H951.801H958.801C958.801 501.486 957.017 495.855 953.694 491.136L947.971 495.166Z" fill="#228C49"/>
<path d="M922.767 468.414C919.91 468.414 917.688 470.636 917.688 473.493V478.573C917.688 492.54 928.798 503.969 943.084 503.969H948.163C950.703 503.969 953.242 501.429 953.242 498.89V493.81C953.242 479.525 941.814 468.414 927.846 468.414H922.767Z" fill="#28A656"/>
<path d="M953.242 493.811V498.89C953.242 500.171 952.596 501.451 951.631 502.406L919.25 469.79C920.155 468.933 921.387 468.414 922.767 468.414H927.846C941.814 468.414 953.242 479.525 953.242 493.811Z" fill="black" fill-opacity="0.08"/>
<path d="M985.965 520.562C984.718 530.397 976.326 538.006 966.15 538.017L935.043 538.052C924.867 538.063 916.458 530.473 915.188 520.64L985.965 520.562ZM915.023 518.15C915.023 518.126 915.022 518.102 915.022 518.077C915.022 518.052 915.023 518.028 915.023 518.003L915.023 518.15ZM966.105 498.022C976.398 498.011 984.881 505.779 985.998 515.775L915.144 515.854C916.238 505.855 924.705 498.068 934.998 498.057L966.105 498.022Z" fill="#76E49E"/>
<path d="M966.106 498.022L958.757 498.03L958.801 538.025L966.151 538.017C977.195 538.005 986.139 529.042 986.126 517.997C986.114 506.953 977.151 498.01 966.106 498.022Z" fill="black" fill-opacity="0.08"/>
<rect x="979.628" y="515.783" width="6.49446" height="4.78539" transform="rotate(-0.0637727 979.628 515.783)" fill="#28A656"/>
<rect x="921.517" y="515.848" width="58.1127" height="4.78575" transform="rotate(-0.0637727 921.517 515.848)" fill="#228C49"/>
<rect x="915.022" y="515.854" width="6.49446" height="4.78539" transform="rotate(-0.0637727 915.022 515.854)" fill="#28A656"/>
<path d="M923.678 538.065L977.688 538.005C979.809 538.003 981.748 537.228 983.241 535.948L918.121 536.021C919.616 537.298 921.557 538.068 923.678 538.065Z" fill="#39C76D"/>
<rect x="915.019" y="513.804" width="71.1026" height="2.05104" transform="rotate(-0.0637727 915.019 513.804)" fill="#39C76D"/>
<circle cx="924.07" cy="507.127" r="2.5636" transform="rotate(-0.0637727 924.07 507.127)" fill="#39C76D"/>
<path d="M924.071 509.691C925.486 509.689 926.633 508.54 926.631 507.124C926.63 506.286 926.227 505.542 925.604 505.075L922.532 509.18C922.961 509.501 923.494 509.692 924.071 509.691Z" fill="black" fill-opacity="0.08"/>
<circle cx="977.052" cy="507.069" r="2.5636" transform="rotate(-0.0637727 977.052 507.069)" fill="#39C76D"/>
<path d="M977.055 509.632C978.471 509.631 979.617 508.482 979.616 507.066C979.615 506.227 979.211 505.483 978.588 505.016L975.516 509.121C975.945 509.443 976.478 509.633 977.055 509.632Z" fill="black" fill-opacity="0.08"/>
<circle cx="924.094" cy="529.006" r="2.5636" transform="rotate(-0.0637727 924.094 529.006)" fill="#39C76D"/>
<path d="M924.097 531.57C925.512 531.568 926.659 530.419 926.657 529.003C926.656 528.165 926.253 527.421 925.63 526.954L922.558 531.059C922.987 531.38 923.519 531.57 924.097 531.57Z" fill="black" fill-opacity="0.08"/>
<circle cx="977.08" cy="528.946" r="2.5636" transform="rotate(-0.0637727 977.08 528.946)" fill="#39C76D"/>
<path d="M977.083 531.51C978.499 531.509 979.645 530.36 979.644 528.944C979.643 528.105 979.239 527.361 978.616 526.894L975.544 530.999C975.973 531.321 976.506 531.511 977.083 531.51Z" fill="black" fill-opacity="0.08"/>
</g>
<path d="M539.671 650.439L549.656 610.5H451.344L461.137 650.439C462.673 655.816 467.473 659.656 473.234 659.656H527.766C533.335 659.656 538.327 655.816 539.671 650.439Z" fill="#C8A802"/>
<path d="M539.671 650.439L549.656 610.5H511.371V659.656H527.766C533.335 659.656 538.327 655.816 539.671 650.439Z" fill="black" fill-opacity="0.08"/>
<rect x="445.199" y="598.211" width="110.602" height="12.2891" rx="6.14453" fill="#AB8F00"/>
<path d="M549.656 598.211H505.699V610.5H549.656C553.05 610.5 555.801 607.749 555.801 604.355C555.801 600.962 553.05 598.211 549.656 598.211Z" fill="black" fill-opacity="0.08"/>
<path d="M478.034 598.211L493.779 568.256C494.931 565.952 493.971 563.072 491.859 561.92C489.555 560.768 486.675 561.728 485.523 563.84L467.665 598.211H478.034Z" fill="#ADADAD"/>
<path d="M522.661 598.211L506.916 568.256C505.764 565.952 506.724 563.072 508.836 561.92C511.14 560.768 514.02 561.728 515.172 563.84L533.03 598.211H522.661Z" fill="#ADADAD"/>
<rect x="476.867" y="616.645" width="4.72656" height="24.5781" rx="2.36328" fill="#AB8F00"/>
<rect x="498.137" y="616.645" width="4.72656" height="24.5781" rx="2.36328" fill="#AB8F00"/>
<rect x="519.406" y="616.645" width="4.72656" height="24.5781" rx="2.36328" fill="#AB8F00"/>
<path d="M1030 243.893C1030 214.138 1049.25 188.223 1076.2 179.105C1076.2 177.665 1076.2 176.225 1076.2 174.786C1076.2 132.554 1110.37 98 1153.2 98C1181.59 98 1206.62 113.837 1219.61 136.873C1226.83 131.594 1235.97 128.714 1245.6 128.714C1271.11 128.714 1291.8 149.35 1291.8 174.786C1291.8 181.025 1290.36 186.304 1288.43 191.583C1316.82 197.342 1338 222.297 1338 251.571C1338 285.645 1310.09 313 1276.4 313H1099.3C1060.8 313 1030 282.286 1030 243.893Z" fill="white" fill-opacity="0.8"/>
<path d="M445 346.179C445 316.978 426.125 291.545 399.7 282.596C399.7 281.183 399.7 279.77 399.7 278.357C399.7 236.911 366.197 203 324.2 203C296.359 203 271.822 218.542 259.081 241.15C252.003 235.969 243.038 233.143 233.6 233.143C208.591 233.143 188.3 253.395 188.3 278.357C188.3 284.48 189.716 289.661 191.603 294.842C163.763 300.493 143 324.984 143 353.714C143 387.154 170.369 414 203.4 414H377.05C414.8 414 445 383.857 445 346.179Z" fill="white" fill-opacity="0.8"/>
<path d="M1215 355.179C1215 329.853 1231.25 307.795 1254 300.033C1254 298.808 1254 297.583 1254 296.357C1254 260.411 1282.84 231 1319 231C1342.97 231 1364.09 244.48 1375.06 264.087C1381.16 259.594 1388.88 257.143 1397 257.143C1418.53 257.143 1436 274.708 1436 296.357C1436 301.667 1434.78 306.161 1433.16 310.654C1457.12 315.556 1475 336.797 1475 361.714C1475 390.717 1451.44 414 1423 414H1273.5C1241 414 1215 387.857 1215 355.179Z" fill="white" fill-opacity="0.8"/>
<g clip-path="url(#clip5_813_6572)">
<path d="M1144.84 537.242C1141.98 537.242 1139.76 535.02 1139.76 532.163V527.084C1139.76 513.116 1150.87 501.688 1165.15 501.688H1170.23C1172.77 501.688 1175.31 504.227 1175.31 506.767V511.846C1175.31 526.131 1163.88 537.242 1149.92 537.242H1144.84Z" fill="#28A656"/>
<path d="M1175.31 511.846V506.766C1175.31 505.486 1174.67 504.205 1173.7 503.25L1141.32 535.866C1142.23 536.724 1143.46 537.242 1144.84 537.242H1149.92C1163.88 537.242 1175.31 526.131 1175.31 511.846Z" fill="black" fill-opacity="0.08"/>
<path d="M1135.8 564.148C1135.8 568.014 1138.93 571.148 1142.8 571.148C1146.67 571.148 1149.8 568.014 1149.8 564.148H1142.8H1135.8ZM1134.79 529.234L1129.07 533.265L1133.25 539.197L1138.97 535.166L1144.69 531.136L1140.52 525.204L1134.79 529.234ZM1142.8 547.258H1135.8V564.148H1142.8H1149.8V547.258H1142.8ZM1138.97 535.166L1133.25 539.197C1134.91 541.556 1135.8 544.372 1135.8 547.258H1142.8H1149.8C1149.8 541.486 1148.02 535.855 1144.69 531.136L1138.97 535.166Z" fill="#228C49"/>
<path d="M1113.77 508.414C1110.91 508.414 1108.69 510.636 1108.69 513.493V518.573C1108.69 532.54 1119.8 543.969 1134.08 543.969H1139.16C1141.7 543.969 1144.24 541.429 1144.24 538.89V533.81C1144.24 519.525 1132.81 508.414 1118.85 508.414H1113.77Z" fill="#28A656"/>
<path d="M1144.24 533.811V538.89C1144.24 540.171 1143.6 541.451 1142.63 542.406L1110.25 509.79C1111.16 508.933 1112.39 508.414 1113.77 508.414H1118.85C1132.81 508.414 1144.24 519.525 1144.24 533.811Z" fill="black" fill-opacity="0.08"/>
<g clip-path="url(#clip6_813_6572)">
<path d="M1127.31 560.867C1127.83 561.842 1129.04 562.211 1130.01 561.692C1130.99 561.173 1131.36 559.962 1130.84 558.987L1129.07 559.927L1127.31 560.867ZM1111.67 522.986L1110.73 521.22L1107.2 523.1L1108.14 524.865L1109.9 523.926L1111.67 522.986ZM1129.07 559.927L1130.84 558.987L1111.67 522.986L1109.9 523.926L1108.14 524.865L1127.31 560.867L1129.07 559.927Z" fill="#E4C837"/>
<path d="M1110.76 523.571C1110.55 524.275 1109.83 524.656 1109.13 524.441L1107.88 524.059C1104.43 523.008 1102.45 519.409 1103.53 515.888L1103.91 514.636C1104.1 514.009 1104.92 513.574 1105.54 513.765L1106.8 514.148C1110.32 515.222 1112.2 518.875 1111.15 522.319L1110.76 523.571Z" fill="#E4C837"/>
<path d="M1116.06 531.599C1115.41 531.945 1114.63 531.708 1114.29 531.058L1113.67 529.903C1111.98 526.725 1113.12 522.779 1116.37 521.049L1117.53 520.434C1118.11 520.126 1118.99 520.396 1119.3 520.974L1119.91 522.13C1121.64 525.38 1120.39 529.292 1117.21 530.984L1116.06 531.599Z" fill="#E4C837"/>
<path d="M1119.91 522.129L1119.3 520.974C1119.14 520.682 1118.84 520.469 1118.51 520.369L1115.09 531.711C1115.4 531.797 1115.74 531.766 1116.06 531.599L1117.21 530.983C1120.39 529.291 1121.64 525.379 1119.91 522.129Z" fill="black" fill-opacity="0.08"/>
<path d="M1113.4 531.528C1113.75 532.178 1113.51 532.953 1112.86 533.299L1111.71 533.914C1108.53 535.606 1104.58 534.462 1102.85 531.212L1102.24 530.057C1101.93 529.479 1102.2 528.594 1102.78 528.286L1103.93 527.671C1107.18 525.94 1111.1 527.195 1112.79 530.372L1113.4 531.528Z" fill="#E4C837"/>
<path d="M1103.93 527.671L1102.78 528.286C1102.49 528.441 1102.27 528.743 1102.17 529.079L1113.52 532.495C1113.6 532.185 1113.57 531.842 1113.4 531.528L1112.79 530.372C1111.1 527.195 1107.18 525.94 1103.93 527.671Z" fill="black" fill-opacity="0.08"/>
<path d="M1120.83 540.571C1120.18 540.917 1119.41 540.68 1119.06 540.03L1118.45 538.875C1116.76 535.697 1117.9 531.751 1121.15 530.021L1122.31 529.405C1122.88 529.098 1123.77 529.368 1124.08 529.946L1124.69 531.101C1126.42 534.351 1125.17 538.263 1121.99 539.955L1120.83 540.571Z" fill="#E4C837"/>
<path d="M1124.69 531.101L1124.08 529.945C1123.92 529.654 1123.62 529.441 1123.28 529.341L1119.87 540.683C1120.18 540.769 1120.52 540.737 1120.83 540.57L1121.99 539.955C1125.17 538.263 1126.42 534.351 1124.69 531.101Z" fill="black" fill-opacity="0.08"/>
<path d="M1118.18 540.501C1118.53 541.151 1118.29 541.925 1117.64 542.271L1116.48 542.887C1113.31 544.579 1109.36 543.435 1107.63 540.185L1107.01 539.029C1106.71 538.452 1106.98 537.566 1107.55 537.259L1108.71 536.643C1111.96 534.913 1115.87 536.167 1117.56 539.345L1118.18 540.501Z" fill="#E4C837"/>
<path d="M1108.71 536.643L1107.56 537.259C1107.26 537.414 1107.05 537.716 1106.95 538.051L1118.29 541.467C1118.38 541.158 1118.35 540.815 1118.18 540.501L1117.56 539.345C1115.87 536.167 1111.96 534.913 1108.71 536.643Z" fill="black" fill-opacity="0.08"/>
<path d="M1125.85 549.991C1125.2 550.337 1124.42 550.101 1124.08 549.451L1123.46 548.295C1121.77 545.118 1122.92 541.172 1126.17 539.441L1127.32 538.826C1127.9 538.519 1128.78 538.789 1129.09 539.367L1129.71 540.522C1131.44 543.772 1130.18 547.684 1127.01 549.376L1125.85 549.991Z" fill="#E4C837"/>
<path d="M1129.71 540.522L1129.09 539.366C1128.94 539.075 1128.63 538.862 1128.3 538.761L1124.88 550.104C1125.19 550.19 1125.54 550.158 1125.85 549.991L1127.01 549.376C1130.18 547.684 1131.44 543.772 1129.71 540.522Z" fill="black" fill-opacity="0.08"/>
<path d="M1123.2 549.922C1123.54 550.572 1123.31 551.346 1122.66 551.692L1121.5 552.308C1118.32 554 1114.38 552.856 1112.65 549.606L1112.03 548.45C1111.72 547.873 1111.99 546.987 1112.57 546.679L1113.73 546.064C1116.98 544.334 1120.89 545.588 1122.58 548.766L1123.2 549.922Z" fill="#E4C837"/>
<path d="M1113.73 546.064L1112.57 546.679C1112.28 546.835 1112.07 547.137 1111.97 547.472L1123.31 550.888C1123.39 550.578 1123.36 550.235 1123.2 549.922L1122.58 548.766C1120.89 545.588 1116.98 544.334 1113.73 546.064Z" fill="black" fill-opacity="0.08"/>
<path d="M1104.56 513.897C1104.86 513.731 1105.23 513.669 1105.54 513.765L1106.8 514.147C1110.32 515.222 1112.2 518.875 1111.15 522.318L1110.91 523.104L1130.13 559.217C1130.25 559.442 1130.39 559.767 1130.33 560.122C1130.24 560.566 1129.92 560.843 1129.92 560.843L1129.47 559.86L1110.2 524.307C1110.19 524.316 1110.18 524.326 1110.16 524.334L1104.56 513.897Z" fill="black" fill-opacity="0.08"/>
</g>
</g>
<g clip-path="url(#clip7_813_6572)">
<path d="M1110.31 554.867C1110.83 555.842 1112.04 556.211 1113.01 555.692C1113.99 555.173 1114.36 553.962 1113.84 552.987L1112.07 553.927L1110.31 554.867ZM1094.67 516.986L1093.73 515.22L1090.2 517.1L1091.14 518.865L1092.9 517.926L1094.67 516.986ZM1112.07 553.927L1113.84 552.987L1094.67 516.986L1092.9 517.926L1091.14 518.865L1110.31 554.867L1112.07 553.927Z" fill="#E4C837"/>
<path d="M1093.76 517.571C1093.55 518.275 1092.83 518.656 1092.13 518.441L1090.88 518.059C1087.43 517.008 1085.45 513.409 1086.53 509.888L1086.91 508.636C1087.1 508.009 1087.92 507.574 1088.54 507.765L1089.8 508.148C1093.32 509.222 1095.2 512.875 1094.15 516.319L1093.76 517.571Z" fill="#E4C837"/>
<path d="M1099.06 525.599C1098.41 525.945 1097.63 525.708 1097.29 525.058L1096.67 523.903C1094.98 520.725 1096.12 516.779 1099.37 515.049L1100.53 514.434C1101.11 514.126 1101.99 514.396 1102.3 514.974L1102.91 516.13C1104.64 519.38 1103.39 523.292 1100.21 524.984L1099.06 525.599Z" fill="#E4C837"/>
<path d="M1102.91 516.129L1102.3 514.974C1102.14 514.682 1101.84 514.469 1101.51 514.369L1098.09 525.711C1098.4 525.797 1098.74 525.766 1099.06 525.599L1100.21 524.983C1103.39 523.291 1104.64 519.379 1102.91 516.129Z" fill="black" fill-opacity="0.08"/>
<path d="M1096.4 525.528C1096.75 526.178 1096.51 526.953 1095.86 527.299L1094.71 527.914C1091.53 529.606 1087.58 528.462 1085.85 525.212L1085.24 524.057C1084.93 523.479 1085.2 522.594 1085.78 522.286L1086.93 521.671C1090.18 519.94 1094.1 521.195 1095.79 524.372L1096.4 525.528Z" fill="#E4C837"/>
<path d="M1086.93 521.671L1085.78 522.286C1085.49 522.441 1085.27 522.743 1085.17 523.079L1096.52 526.495C1096.6 526.185 1096.57 525.842 1096.4 525.528L1095.79 524.372C1094.1 521.195 1090.18 519.94 1086.93 521.671Z" fill="black" fill-opacity="0.08"/>
<path d="M1103.83 534.571C1103.18 534.918 1102.41 534.681 1102.06 534.031L1101.45 532.876C1099.76 529.698 1100.9 525.752 1104.15 524.021L1105.31 523.406C1105.88 523.099 1106.77 523.369 1107.08 523.947L1107.69 525.102C1109.42 528.352 1108.17 532.264 1104.99 533.956L1103.83 534.571Z" fill="#E4C837"/>
<path d="M1107.69 525.102L1107.08 523.946C1106.92 523.655 1106.62 523.442 1106.28 523.342L1102.87 534.684C1103.18 534.77 1103.52 534.738 1103.83 534.571L1104.99 533.956C1108.17 532.264 1109.42 528.352 1107.69 525.102Z" fill="black" fill-opacity="0.08"/>
<path d="M1101.18 534.501C1101.53 535.151 1101.29 535.925 1100.64 536.271L1099.48 536.887C1096.31 538.579 1092.36 537.435 1090.63 534.185L1090.01 533.029C1089.71 532.452 1089.98 531.566 1090.55 531.259L1091.71 530.643C1094.96 528.913 1098.87 530.167 1100.56 533.345L1101.18 534.501Z" fill="#E4C837"/>
<path d="M1091.71 530.643L1090.56 531.259C1090.26 531.414 1090.05 531.716 1089.95 532.051L1101.29 535.467C1101.38 535.158 1101.35 534.815 1101.18 534.501L1100.56 533.345C1098.87 530.167 1094.96 528.913 1091.71 530.643Z" fill="black" fill-opacity="0.08"/>
<path d="M1108.85 543.992C1108.2 544.338 1107.42 544.102 1107.08 543.452L1106.46 542.296C1104.77 539.119 1105.92 535.173 1109.17 533.442L1110.32 532.827C1110.9 532.52 1111.78 532.79 1112.09 533.367L1112.71 534.523C1114.44 537.773 1113.18 541.685 1110.01 543.377L1108.85 543.992Z" fill="#E4C837"/>
<path d="M1112.71 534.523L1112.09 533.367C1111.94 533.076 1111.63 532.863 1111.3 532.762L1107.88 544.105C1108.19 544.191 1108.54 544.159 1108.85 543.992L1110.01 543.377C1113.18 541.685 1114.44 537.773 1112.71 534.523Z" fill="black" fill-opacity="0.08"/>
<path d="M1106.2 543.922C1106.54 544.572 1106.31 545.346 1105.66 545.692L1104.5 546.308C1101.32 548 1097.38 546.856 1095.65 543.606L1095.03 542.45C1094.72 541.873 1094.99 540.987 1095.57 540.679L1096.73 540.064C1099.98 538.334 1103.89 539.588 1105.58 542.766L1106.2 543.922Z" fill="#E4C837"/>
<path d="M1096.73 540.064L1095.57 540.679C1095.28 540.835 1095.07 541.137 1094.97 541.472L1106.31 544.888C1106.39 544.578 1106.36 544.235 1106.2 543.922L1105.58 542.766C1103.89 539.588 1099.98 538.334 1096.73 540.064Z" fill="black" fill-opacity="0.08"/>
<path d="M1087.56 507.897C1087.86 507.731 1088.23 507.669 1088.54 507.765L1089.8 508.147C1093.32 509.222 1095.2 512.875 1094.15 516.318L1093.91 517.104L1113.13 553.217C1113.25 553.442 1113.39 553.767 1113.33 554.122C1113.24 554.566 1112.92 554.843 1112.92 554.843L1112.47 553.86L1093.2 518.307C1093.19 518.316 1093.18 518.326 1093.16 518.334L1087.56 507.897Z" fill="black" fill-opacity="0.08"/>
</g>
<path d="M1168.98 527.12C1169.24 525 1169.79 520.421 1164.87 519.829" stroke="#186635" stroke-width="5.66406" stroke-linecap="round"/>
<path d="M1152.62 533.667C1153.25 528.431 1156.36 522.934 1161.67 523.572C1163.53 523.796 1165.64 524.819 1167.15 525.63C1168.4 526.27 1169.85 526.444 1171.21 526.119C1172.87 525.69 1175.17 525.197 1177.1 525.429C1182.33 526.059 1184.12 532.145 1183.49 537.381C1182.43 546.2 1176.12 552.151 1170.61 551.488C1169.44 551.347 1168.04 550.759 1167.12 550.299C1166.59 550.026 1165.97 549.951 1165.39 550.092C1164.46 550.328 1162.89 550.559 1161.79 550.427C1156.28 549.763 1151.56 542.486 1152.62 533.667Z" fill="#F20B0B"/>
<path d="M1177.1 525.429C1175.17 525.197 1172.87 525.689 1171.21 526.119C1170.51 526.285 1169.79 526.321 1169.09 526.23L1166.22 550.034C1166.53 550.065 1166.84 550.154 1167.12 550.299C1168.04 550.759 1169.44 551.347 1170.61 551.488C1176.12 552.151 1182.43 546.2 1183.49 537.381C1184.12 532.145 1182.33 526.059 1177.1 525.429Z" fill="black" fill-opacity="0.08"/>
<path d="M1169.51 523.399C1168.89 523.324 1168.47 522.784 1168.54 522.164L1168.68 521.062C1169.04 518.03 1171.75 515.84 1174.85 516.213L1175.95 516.346C1176.51 516.412 1176.99 517.03 1176.92 517.581L1176.79 518.683C1176.42 521.783 1173.65 523.896 1170.62 523.532L1169.51 523.399Z" fill="#28A656"/>
<path d="M1176.79 518.683L1176.92 517.581C1176.96 517.303 1176.85 517.008 1176.67 516.775L1168.79 523.008C1168.96 523.218 1169.21 523.363 1169.51 523.399L1170.62 523.531C1173.65 523.896 1176.42 521.783 1176.79 518.683Z" fill="black" fill-opacity="0.08"/>
<circle cx="1172.24" cy="646.915" r="7.1078" fill="#ADADAD" stroke="#858585" stroke-width="10"/>
<path d="M1172.57 659.067C1179.26 659.067 1184.68 653.646 1184.68 646.959C1184.68 642.683 1182.46 638.925 1179.11 636.771L1166.68 657.54C1168.42 658.512 1170.43 659.067 1172.57 659.067Z" fill="black" fill-opacity="0.08"/>
<circle cx="1098.94" cy="646.915" r="7.1078" fill="#ADADAD" stroke="#858585" stroke-width="10"/>
<path d="M1098.94 659.023C1105.63 659.023 1111.05 653.602 1111.05 646.915C1111.05 642.639 1108.83 638.881 1105.49 636.727L1093.05 657.496C1094.79 658.468 1096.8 659.023 1098.94 659.023Z" fill="black" fill-opacity="0.08"/>
<path d="M1060 535H1068.34C1074.09 535 1079.04 539.087 1080.12 544.74L1091.75 605.39C1093.38 613.869 1100.79 620 1109.43 620H1178" stroke="#ADADAD" stroke-width="14" stroke-linecap="round"/>
<path d="M1060 526C1055.03 526 1051 530.029 1051 535C1051 539.971 1055.03 544 1060 544V535V526ZM1072.18 547.806L1073.99 556.623L1091.62 553.011L1089.82 544.194L1081 546L1072.18 547.806ZM1060 535V544H1068.96V535V526H1060V535ZM1080.71 544.592L1071.89 546.398L1072.18 547.806L1081 546L1089.82 544.194L1089.53 542.786L1080.71 544.592ZM1068.96 535V544C1070.38 544 1071.61 545.002 1071.89 546.398L1080.71 544.592L1089.53 542.786C1087.53 533.015 1078.93 526 1068.96 526V535Z" fill="#858585"/>
<path d="M1181.81 541.637C1189.11 541.637 1194.39 548.626 1192.38 555.651L1185.33 580.389C1182.52 590.27 1173.49 597.084 1163.22 597.084H1104.74L1094.48 541.637H1181.81Z" fill="#858585" stroke="#ADADAD" stroke-width="10" stroke-linecap="round"/>
<path d="M1094.03 558.234H1193.51" stroke="#ADADAD" stroke-width="10"/>
<path d="M1097.96 579.832H1189.27" stroke="#ADADAD" stroke-width="10"/>
<path d="M1113.01 539.909L1123.48 598.485" stroke="#ADADAD" stroke-width="10"/>
<path d="M1164.72 539.582V598.485" stroke="#ADADAD" stroke-width="10"/>
<path d="M1141.15 538.601L1143.12 597.503" stroke="#ADADAD" stroke-width="10"/>
<path d="M1197.19 557.022L1190.14 581.759C1186.71 593.788 1175.72 602.084 1163.22 602.084H1158.17V536.637H1181.81C1192.43 536.637 1200.11 546.803 1197.19 557.022Z" fill="black" fill-opacity="0.08"/>
<path d="M962.981 580.12C963.236 578 963.787 573.421 958.868 572.829" stroke="#186635" stroke-width="5.66406" stroke-linecap="round"/>
<path d="M946.622 586.667C947.252 581.431 950.36 575.934 955.665 576.572C957.525 576.796 959.639 577.819 961.149 578.63C962.4 579.27 963.847 579.444 965.214 579.119C966.873 578.69 969.169 578.197 971.098 578.429C976.334 579.059 978.118 585.145 977.488 590.381C976.427 599.2 970.119 605.151 964.608 604.488C963.436 604.347 962.039 603.759 961.116 603.299C960.59 603.026 959.97 602.951 959.394 603.092C958.457 603.328 956.891 603.559 955.789 603.427C950.277 602.763 945.561 595.486 946.622 586.667Z" fill="#F20B0B"/>
<path d="M971.098 578.429C969.169 578.197 966.873 578.689 965.214 579.119C964.514 579.285 963.793 579.321 963.088 579.23L960.223 603.034C960.533 603.065 960.838 603.154 961.116 603.299C962.039 603.759 963.436 604.347 964.607 604.488C970.119 605.151 976.427 599.2 977.488 590.381C978.118 585.145 976.334 579.059 971.098 578.429Z" fill="black" fill-opacity="0.08"/>
<path d="M963.514 576.399C962.894 576.324 962.47 575.784 962.544 575.164L962.677 574.062C963.042 571.03 965.752 568.84 968.852 569.213L969.954 569.346C970.506 569.412 970.991 570.03 970.924 570.581L970.792 571.683C970.418 574.783 967.648 576.896 964.616 576.532L963.514 576.399Z" fill="#28A656"/>
<path d="M970.792 571.683L970.924 570.581C970.958 570.303 970.851 570.008 970.666 569.775L962.787 576.008C962.961 576.218 963.215 576.363 963.514 576.399L964.616 576.531C967.648 576.896 970.418 574.783 970.792 571.683Z" fill="black" fill-opacity="0.08"/>
<path d="M936.212 579.714C936.002 577.589 935.548 572.999 930.618 573.487" stroke="#186635" stroke-width="5.66406" stroke-linecap="round"/>
<path d="M921.66 589.65C921.141 584.401 922.984 578.362 928.301 577.836C930.166 577.651 932.451 578.192 934.101 578.657C935.461 579.01 936.911 578.867 938.175 578.254C939.702 577.475 941.837 576.497 943.77 576.306C949.019 575.787 952.078 581.342 952.597 586.59C953.472 595.429 948.603 602.605 943.078 603.152C941.904 603.268 940.413 602.997 939.412 602.747C938.839 602.595 938.218 602.656 937.686 602.918C936.822 603.352 935.344 603.917 934.239 604.026C928.714 604.572 922.534 598.489 921.66 589.65Z" fill="#F20B0B"/>
<path d="M943.77 576.306C941.837 576.497 939.702 577.475 938.175 578.254C937.527 578.568 936.831 578.759 936.123 578.823L938.483 602.683C938.793 602.646 939.109 602.667 939.412 602.747C940.413 602.997 941.904 603.268 943.078 603.152C948.603 602.605 953.472 595.429 952.597 586.59C952.078 581.342 949.018 575.787 943.77 576.306Z" fill="black" fill-opacity="0.08"/>
<path d="M935.927 575.966C935.305 576.027 934.774 575.592 934.713 574.97L934.604 573.865C934.303 570.827 936.474 568.102 939.582 567.794L940.687 567.685C941.239 567.631 941.846 568.128 941.901 568.681L942.01 569.786C942.317 572.893 940.07 575.556 937.032 575.857L935.927 575.966Z" fill="#28A656"/>
<path d="M942.01 569.786L941.901 568.681C941.873 568.402 941.705 568.138 941.474 567.951L935.132 575.743C935.348 575.91 935.627 575.996 935.927 575.966L937.032 575.857C940.07 575.556 942.317 572.894 942.01 569.786Z" fill="black" fill-opacity="0.08"/>
<path d="M981.336 611.603C980.236 620.28 972.832 626.994 963.854 627.004L936.411 627.034C927.434 627.044 920.015 620.347 918.895 611.673L981.336 611.603ZM963.815 591.718C972.896 591.708 980.382 598.561 981.367 607.382L918.855 607.451C919.82 598.629 927.29 591.759 936.372 591.749L963.815 591.718Z" fill="#76E49E"/>
<path d="M963.815 591.718L957.331 591.726L957.37 627.01L963.854 627.003C973.598 626.992 981.488 619.085 981.477 609.341C981.466 599.598 973.559 591.708 963.815 591.718Z" fill="black" fill-opacity="0.08"/>
<rect x="975.745" y="607.388" width="5.73002" height="4.22212" transform="rotate(-0.0637727 975.745 607.388)" fill="#28A656"/>
<rect x="924.476" y="607.444" width="51.2686" height="4.22212" transform="rotate(-0.0637727 924.476 607.444)" fill="#228C49"/>
<rect x="918.746" y="607.451" width="5.73002" height="4.22212" transform="rotate(-0.0637727 918.746 607.451)" fill="#28A656"/>
<path d="M926.382 627.045L974.032 626.992C975.903 626.99 977.614 626.307 978.93 625.177L921.48 625.241C922.799 626.368 924.512 627.047 926.382 627.045Z" fill="#39C76D"/>
<rect x="918.744" y="605.642" width="62.7287" height="1.80948" transform="rotate(-0.0637727 918.744 605.642)" fill="#39C76D"/>
<circle cx="926.73" cy="599.752" r="2.26185" transform="rotate(-0.0637727 926.73 599.752)" fill="#39C76D"/>
<path d="M926.732 602.013C927.981 602.012 928.993 600.998 928.992 599.749C928.991 599.009 928.635 598.352 928.085 597.94L925.375 601.562C925.753 601.846 926.223 602.014 926.732 602.013Z" fill="black" fill-opacity="0.08"/>
<circle cx="973.475" cy="599.7" r="2.26185" transform="rotate(-0.0637727 973.475 599.7)" fill="#39C76D"/>
<path d="M973.477 601.961C974.727 601.96 975.738 600.946 975.737 599.697C975.736 598.957 975.38 598.301 974.83 597.889L972.12 601.511C972.498 601.794 972.968 601.962 973.477 601.961Z" fill="black" fill-opacity="0.08"/>
<circle cx="926.751" cy="619.053" r="2.26185" transform="rotate(-0.0637727 926.751 619.053)" fill="#39C76D"/>
<path d="M926.754 621.315C928.003 621.314 929.014 620.3 929.013 619.051C929.012 618.311 928.656 617.654 928.107 617.242L925.396 620.864C925.774 621.148 926.245 621.316 926.754 621.315Z" fill="black" fill-opacity="0.08"/>
<circle cx="973.496" cy="619.002" r="2.26185" transform="rotate(-0.0637727 973.496 619.002)" fill="#39C76D"/>
<path d="M973.499 621.263C974.748 621.262 975.76 620.248 975.758 618.999C975.757 618.259 975.401 617.602 974.852 617.19L972.141 620.812C972.52 621.096 972.99 621.264 973.499 621.263Z" fill="black" fill-opacity="0.08"/>
<rect opacity="0.8" x="39" y="661" width="1646" height="275" fill="#28A656"/>
<g style="mix-blend-mode:color-burn">
<rect x="39" y="664" width="1645" height="274" fill="url(#paint0_linear_813_6572)" fill-opacity="0.2"/>
</g>
<g style="mix-blend-mode:color-burn">
<rect x="40" y="746" width="1645" height="274" fill="url(#paint1_linear_813_6572)" fill-opacity="0.5"/>
</g>
<g style="mix-blend-mode:color-burn">
<rect x="40" y="841" width="1645" height="274" fill="url(#paint2_linear_813_6572)" fill-opacity="0.5"/>
</g>
</g>
</g>
<defs>
<filter id="filter0_d_813_6572" x="0.333432" y="0.753282" width="1673.44" height="973.44" filterUnits="userSpaceOnUse" color-interpolation-filters="sRGB">
<feFlood flood-opacity="0" result="BackgroundImageFix"/>
<feColorMatrix in="SourceAlpha" type="matrix" values="0 0 0 0 0 0 0 0 0 0 0 0 0 0 0 0 0 0 127 0" result="hardAlpha"/>
<feOffset dx="-4.94657" dy="2.47328"/>
<feGaussianBlur stdDeviation="18.36"/>
<feComposite in2="hardAlpha" operator="out"/>
<feColorMatrix type="matrix" values="0 0 0 0 0 0 0 0 0 0 0 0 0 0 0 0 0 0 0.1 0"/>
<feBlend mode="normal" in2="BackgroundImageFix" result="effect1_dropShadow_813_6572"/>
<feBlend mode="normal" in="SourceGraphic" in2="effect1_dropShadow_813_6572" result="shape"/>
</filter>
<linearGradient id="paint0_linear_813_6572" x1="993.688" y1="697.381" x2="993.688" y2="925.83" gradientUnits="userSpaceOnUse">
<stop stop-color="#D9D9D9"/>
<stop offset="1" stop-color="#737373"/>
</linearGradient>
<linearGradient id="paint1_linear_813_6572" x1="994.688" y1="779.381" x2="994.688" y2="1007.83" gradientUnits="userSpaceOnUse">
<stop stop-color="#D9D9D9"/>
<stop offset="1" stop-color="#737373"/>
</linearGradient>
<linearGradient id="paint2_linear_813_6572" x1="994.688" y1="874.381" x2="994.688" y2="1102.83" gradientUnits="userSpaceOnUse">
<stop stop-color="#D9D9D9"/>
<stop offset="1" stop-color="#737373"/>
</linearGradient>
<clipPath id="clip0_813_6572">
<rect x="42" y="35" width="1600" height="900" rx="32" fill="white"/>
</clipPath>
<clipPath id="clip1_813_6572">
<rect width="574" height="574" fill="white" transform="translate(446 140)"/>
</clipPath>
<clipPath id="clip2_813_6572">
<rect width="46" height="46" fill="white" transform="translate(848 484.424) rotate(-19.5912)"/>
</clipPath>
<clipPath id="clip3_813_6572">
<rect width="46" height="46" fill="white" transform="translate(830 497.904) rotate(-45.6693)"/>
</clipPath>
<clipPath id="clip4_813_6572">
<rect width="46" height="46" fill="white" transform="translate(822 514.997) rotate(-73.031)"/>
</clipPath>
<clipPath id="clip5_813_6572">
<rect width="82" height="82" fill="white" transform="translate(1101 494)"/>
</clipPath>
<clipPath id="clip6_813_6572">
<rect width="46" height="46" fill="white" transform="translate(1088 551.997) rotate(-73.031)"/>
</clipPath>
<clipPath id="clip7_813_6572">
<rect width="46" height="46" fill="white" transform="translate(1071 545.997) rotate(-73.031)"/>
</clipPath>
</defs>
</svg>
