<svg xmlns="http://www.w3.org/2000/svg" width="1390" height="304" fill="none" preserveAspectRatio="none"><g clip-path="url(#a)"><g filter="url(#b)"><path fill="#28A656" d="M.998 55.855C984.182 345.605 835.834 76.32 1390 132.517V304H.998z"/><path fill="url(#c)" fill-opacity=".2" d="M.998 55.855C984.182 345.605 835.834 76.32 1390 132.517V304H.998z" style="mix-blend-mode:multiply"/></g><g filter="url(#d)"><path fill="#186635" d="M1 80c83.097 10.47 257.757 20.544 642.846 21.381 324.928.706 407.744 49.977 495.344 102.096 57.98 34.494 118.05 70.235 251.81 93.969V304H1z"/><path fill="url(#e)" fill-opacity=".1" d="M1 80c83.097 10.47 257.757 20.544 642.846 21.381 324.928.706 407.744 49.977 495.344 102.096 57.98 34.494 118.05 70.235 251.81 93.969V304H1z" style="mix-blend-mode:multiply"/></g><g filter="url(#f)"><path fill="#fff" d="M.998 33.802c385.197 14.64 526.795 69.802 658.208 120.997C806.35 212.121 940.726 264.467 1390 249.39V304H.998z"/></g></g><defs><filter id="b" width="1437.12" height="296.261" x="-20.654" y="29.391" color-interpolation-filters="sRGB" filterUnits="userSpaceOnUse"><feFlood flood-opacity="0" result="BackgroundImageFix"/><feColorMatrix in="SourceAlpha" result="hardAlpha" values="0 0 0 0 0 0 0 0 0 0 0 0 0 0 0 0 0 0 127 0"/><feOffset dx="2.406" dy="-2.406"/><feGaussianBlur stdDeviation="12.029"/><feComposite in2="hardAlpha" operator="out"/><feColorMatrix values="0 0 0 0 0 0 0 0 0 0 0 0 0 0 0 0 0 0 0.25 0"/><feBlend in2="BackgroundImageFix" result="effect1_dropShadow_752_1910"/><feBlend in="SourceGraphic" in2="effect1_dropShadow_752_1910" result="shape"/></filter><filter id="d" width="1463.44" height="297.44" x="-40.667" y="45.753" color-interpolation-filters="sRGB" filterUnits="userSpaceOnUse"><feFlood flood-opacity="0" result="BackgroundImageFix"/><feColorMatrix in="SourceAlpha" result="hardAlpha" values="0 0 0 0 0 0 0 0 0 0 0 0 0 0 0 0 0 0 127 0"/><feOffset dx="-4.947" dy="2.473"/><feGaussianBlur stdDeviation="18.36"/><feComposite in2="hardAlpha" operator="out"/><feColorMatrix values="0 0 0 0 0 0 0 0 0 0 0 0 0 0 0 0 0 0 0.1 0"/><feBlend in2="BackgroundImageFix" result="effect1_dropShadow_752_1910"/><feBlend in="SourceGraphic" in2="effect1_dropShadow_752_1910" result="shape"/></filter><filter id="f" width="1476.09" height="357.289" x="-38.193" y="-14.098" color-interpolation-filters="sRGB" filterUnits="userSpaceOnUse"><feFlood flood-opacity="0" result="BackgroundImageFix"/><feColorMatrix in="SourceAlpha" result="hardAlpha" values="0 0 0 0 0 0 0 0 0 0 0 0 0 0 0 0 0 0 127 0"/><feOffset dx="4.355" dy="-4.355"/><feGaussianBlur stdDeviation="21.773"/><feComposite in2="hardAlpha" operator="out"/><feColorMatrix values="0 0 0 0 0 0 0 0 0 0 0 0 0 0 0 0 0 0 0.2 0"/><feBlend in2="BackgroundImageFix" result="effect1_dropShadow_752_1910"/><feBlend in="SourceGraphic" in2="effect1_dropShadow_752_1910" result="shape"/></filter><linearGradient id="c" x1="1221.2" x2="1223.35" y1="133.128" y2="298.559" gradientUnits="userSpaceOnUse"><stop stop-opacity="0"/><stop offset="1"/></linearGradient><linearGradient id="e" x1="648.801" x2="648.802" y1="105" y2="301" gradientUnits="userSpaceOnUse"><stop stop-opacity="0"/><stop offset="1"/></linearGradient><clipPath id="a"><path fill="#fff" d="M0 0h1390v304H0z"/></clipPath></defs></svg>