<svg xmlns="http://www.w3.org/2000/svg" width="205" height="44" fill="none"><path fill="#DB699B" fill-rule="evenodd" d="M180.42 41.798c2.373 1.238 5.044 1.909 8.11 1.909s5.736-.62 8.11-1.909 4.203-3.095 5.538-5.364c1.336-2.27 2.028-4.9 2.028-7.84s-.692-5.52-2.028-7.79c-1.335-2.269-3.214-4.022-5.538-5.312-2.374-1.29-5.044-1.96-8.11-1.96s-5.737.67-8.11 1.96c-2.374 1.238-4.204 3.043-5.539 5.313s-2.027 4.848-2.027 7.788.692 5.571 2.027 7.84 3.214 4.076 5.539 5.365m11.275-19.24c-.198-.257-.347-.773.296-1.289-1.73-1.238-3.758-1.65-6.626 1.186a2 2 0 0 0-.791-.154c-1.088 0-1.979.928-1.979 2.063 0 .31.05.619.198.877-1.187.206-2.126 1.34-2.126 2.63 0 .98.494 1.806 1.236 2.27l.989 5.313c.099.67.693 1.135 1.335 1.135h8.852c.643 0 1.187-.465 1.335-1.135l.989-5.365c.693-.464 1.138-1.29 1.138-2.218 0-1.34-.89-2.424-2.127-2.63.099-.258.198-.568.198-.877 0-1.135-.89-2.063-1.978-2.063-.346 0-.643.103-.939.258" clip-rule="evenodd"/><path fill="#DB699B" d="M160.046 43.655c-3.066 0-5.786-.619-8.209-1.909a14.77 14.77 0 0 1-5.638-5.364c-1.335-2.27-2.027-4.9-2.027-7.84s.692-5.52 2.027-7.789c1.385-2.27 3.264-4.023 5.638-5.313 2.423-1.29 5.143-1.96 8.209-1.96 3.115 0 5.786.67 8.06 2.063q3.413 2.013 4.896 5.726l-7.071 3.817c-.693-1.393-1.533-2.373-2.572-2.992-.989-.67-2.126-.98-3.313-.98s-2.324.31-3.313.877-1.781 1.444-2.374 2.527c-.544 1.084-.841 2.425-.841 3.972 0 1.6.297 2.94.841 4.075q.89 1.625 2.374 2.476a6.65 6.65 0 0 0 3.313.877c1.187 0 2.324-.31 3.313-.929 1.039-.619 1.879-1.599 2.572-3.043l7.071 3.92c-.989 2.476-2.571 4.385-4.896 5.726-2.274 1.392-4.945 2.063-8.06 2.063M132.402 43.243V13.996h9.149v29.247zm4.55-32.806c-1.681 0-3.066-.464-4.105-1.444-1.038-1.032-1.533-2.27-1.533-3.714s.495-2.63 1.533-3.61c1.039-1.032 2.424-1.497 4.105-1.497s3.066.465 4.104 1.393c1.039.929 1.533 2.115 1.533 3.56 0 1.547-.494 2.836-1.533 3.816s-2.423 1.496-4.104 1.496M128.001 35.3c-.841.67-1.879.98-3.116.98-.989 0-1.73-.31-2.324-.93-.544-.67-.841-1.547-.841-2.63V22.146h6.627v-7.221h-6.577V7.497h-9.149v7.48h-4.203v7.17h4.203v10.676c0 3.663.94 6.345 2.869 8.15 1.928 1.806 4.648 2.682 8.159 2.682 1.286 0 2.522-.154 3.659-.412 1.187-.258 2.176-.67 3.066-1.29zM95.412 43.655c-2.374 0-4.698-.31-6.973-.877q-3.337-.851-5.34-2.166l2.868-6.654c1.286.825 2.819 1.496 4.55 2.012q2.67.773 5.192.773c1.73 0 2.917-.206 3.61-.619.742-.412 1.088-.98 1.088-1.702 0-.619-.297-1.083-.94-1.34-.593-.31-1.385-.568-2.374-.723s-2.077-.361-3.263-.464a22 22 0 0 1-3.56-.774 11.7 11.7 0 0 1-3.265-1.393c-.989-.619-1.83-1.444-2.423-2.476q-.89-1.625-.89-4.178c0-1.857.495-3.456 1.533-4.9 1.088-1.444 2.572-2.579 4.55-3.404q3.04-1.238 7.269-1.238c1.978 0 3.956.206 5.934.67 2.028.413 3.709 1.032 5.094 1.857l-2.868 6.603q-2.078-1.238-4.154-1.703a17.6 17.6 0 0 0-3.957-.464c-1.68 0-2.917.258-3.659.722-.742.413-1.088.98-1.088 1.6 0 .67.297 1.134.89 1.444q.964.465 2.374.773c.989.155 2.077.361 3.264.516s2.423.361 3.56.722c1.187.31 2.226.774 3.215 1.393a6.97 6.97 0 0 1 2.373 2.476c.643 1.032.94 2.424.94 4.127 0 1.753-.495 3.352-1.533 4.797-1.039 1.392-2.572 2.527-4.599 3.352q-3.041 1.238-7.418 1.238M71.626 13.996v14.288c0 1.65-.248 3.043-.792 4.126-.494 1.084-1.187 1.909-2.077 2.425-.84.515-1.83.773-2.917.773-1.583 0-2.819-.515-3.759-1.547q-1.335-1.548-1.335-5.107V13.997h-9.148V30.45c0 3.044.494 5.52 1.483 7.531 1.039 1.96 2.473 3.456 4.253 4.385 1.78.876 3.857 1.34 6.182 1.34q3.189 0 5.934-1.547c.989-.567 1.83-1.238 2.522-2.115v3.25h8.703V13.996zM42.548 15.183c-1.088.618-1.978 1.444-2.72 2.475v-3.662h-8.703v29.247h9.149V29.677c0-2.63.642-4.54 1.928-5.777 1.335-1.238 3.017-1.857 5.094-1.857.346 0 .692 0 .989.051.296.052.692.052 1.088.104v-8.666c-2.72 0-4.945.567-6.825 1.65M16.142 43.655c-3.066 0-5.786-.619-8.21-1.909a14.76 14.76 0 0 1-5.637-5.364c-1.335-2.27-2.027-4.9-2.027-7.84s.692-5.52 2.027-7.789c1.385-2.27 3.264-4.023 5.638-5.313 2.423-1.29 5.143-1.96 8.209-1.96 3.115 0 5.785.67 8.06 2.063q3.412 2.013 4.896 5.726l-7.072 3.92c-.692-1.393-1.533-2.373-2.571-2.992-.99-.67-2.127-.98-3.313-.98s-2.325.31-3.314.877-1.78 1.444-2.373 2.528c-.544 1.083-.841 2.424-.841 3.971 0 1.6.297 2.94.84 4.075q.89 1.626 2.374 2.476a6.65 6.65 0 0 0 3.314.877 6.2 6.2 0 0 0 3.313-.928c1.038-.62 1.879-1.6 2.571-3.044l7.072 3.92c-.99 2.476-2.572 4.385-4.896 5.726-2.275 1.29-4.945 1.96-8.06 1.96"/></svg>