<svg xmlns="http://www.w3.org/2000/svg" width="164" height="44" fill="none"><path fill="#0068A1" d="M37.636 16.695c-2.538-2.155-6.082-3.209-10.68-3.209-2.299 0-4.597.288-6.848.91-2.251.575-4.167 1.39-5.795 2.539l3.208 6.513c1.054-.814 2.251-1.437 3.688-1.868 1.485-.479 2.922-.718 4.406-.718 2.203 0 3.784.479 4.79 1.389.957.814 1.484 2.011 1.532 3.592h-6.13c-2.97 0-5.412.383-7.28 1.15-1.868.717-3.257 1.723-4.119 3.016s-1.293 2.826-1.293 4.55c0 1.676.431 3.209 1.293 4.55s2.108 2.395 3.688 3.16c1.628.767 3.544 1.15 5.843 1.15q3.807 0 6.178-1.436c1.054-.671 1.868-1.581 2.49-2.682v3.687h8.86V26.753c0-4.646-1.292-7.95-3.83-10.058m-5.699 17.002c-.431 1.197-1.15 2.06-2.155 2.682-1.006.623-2.107.91-3.305.91-1.34 0-2.346-.287-3.113-.862-.718-.623-1.053-1.389-1.053-2.299s.335-1.676 1.005-2.25c.719-.576 1.964-.863 3.688-.863h4.933zM161.056 20.67c-1.389-2.25-3.305-4.023-5.748-5.268-2.442-1.293-5.22-1.916-8.381-1.916s-5.938.623-8.381 1.916c-2.442 1.245-4.358 3.017-5.747 5.268s-2.107 4.837-2.107 7.71c0 2.922.718 5.509 2.107 7.76q2.084 3.376 5.747 5.316c2.443 1.245 5.22 1.867 8.381 1.867s5.939-.622 8.381-1.867q3.665-1.94 5.748-5.316c1.388-2.251 2.107-4.838 2.107-7.76-.048-2.873-.719-5.459-2.107-7.71m-16.811-1.963c0-.096.144-.192.383-.192h4.694c.191 0 .383.096.383.192v1.915h-5.412v-1.915zm5.7 18.486h-6.083c-.958 0-1.724-.67-1.724-1.532v-9.148c.048-1.676 1.245-3.209 2.011-3.975q.288-.287.288-.575v-.766h5.124v.814c0 .192.096.335.24.48 1.58 1.675 1.916 3.352 1.916 4.022v9.148c0 .862-.815 1.532-1.772 1.532M10.002 3.142H.567V42.94h9.435zM81.027 35.996c-1.006 0-1.82-.287-2.395-.91-.574-.622-.862-1.532-.862-2.634v-10.44h6.801v-7.136h-6.8V7.452h-9.436v7.424H56.747V7.452H47.31v7.424h-4.359v7.136h4.359v10.584c0 3.592 1.005 6.322 2.969 8.094 2.011 1.772 4.79 2.682 8.43 2.682 1.34 0 2.585-.144 3.83-.431q1.797-.359 3.161-1.294l-2.394-6.609c-.91.623-1.964.958-3.209.958-1.006 0-1.82-.287-2.395-.91-.574-.622-.862-1.532-.862-2.634v-10.44h11.59v10.584c0 3.592 1.006 6.322 2.97 8.094 2.011 1.772 4.789 2.682 8.429 2.682 1.34 0 2.586-.144 3.831-.431q1.796-.359 3.161-1.294l-2.395-6.609c-1.101.623-2.155.958-3.4.958M97.742 1.561C96.688.651 95.252.172 93.527.172s-3.16.48-4.215 1.485c-1.053.958-1.628 2.155-1.628 3.592 0 1.485.527 2.682 1.628 3.688 1.054.958 2.49 1.437 4.215 1.437s3.16-.48 4.215-1.485c1.053-1.006 1.628-2.251 1.628-3.832-.048-1.388-.575-2.586-1.629-3.496"/><path fill="#0068A1" d="M120.922 34.799c-1.054.622-2.204.91-3.449.91a7.1 7.1 0 0 1-3.448-.862c-1.054-.575-1.868-1.39-2.49-2.49q-.862-1.653-.862-4.024c0-1.532.287-2.825.862-3.927.622-1.102 1.436-1.964 2.49-2.538a7.1 7.1 0 0 1 3.448-.862c1.245 0 2.395.335 3.449.957 1.053.623 1.963 1.58 2.682 2.97l7.279-3.832c-1.006-2.49-2.682-4.358-5.029-5.699-2.346-1.34-5.076-2.06-8.333-2.06-3.161 0-5.986.623-8.477 1.916-2.49 1.246-4.406 3.018-5.843 5.269-1.389 2.25-2.107 4.837-2.107 7.71 0 2.922.718 5.508 2.107 7.759 1.437 2.251 3.401 4.023 5.843 5.316q3.736 1.868 8.477 1.868c3.209 0 5.987-.67 8.333-1.964 2.347-1.34 4.023-3.256 5.029-5.699l-7.279-3.88c-.719 1.581-1.581 2.587-2.682 3.162M98.22 13.918h-9.434V42.94h9.435z"/></svg>