<svg xmlns="http://www.w3.org/2000/svg" width="214" height="44" fill="none"><path fill="#B31950" d="M44.142 15.151c-1.772-.91-3.736-1.389-5.986-1.389-2.73 0-5.173.67-7.28 2.06-1.15.718-2.107 1.58-2.97 2.586-.67-1.054-1.484-1.916-2.538-2.586-1.963-1.341-4.262-2.06-6.848-2.06-2.347 0-4.454.527-6.322 1.533-.958.527-1.772 1.197-2.539 2.011v-3.16H.656v29.07h9.435V28.801c0-1.629.239-2.922.718-3.927.479-1.054 1.15-1.772 1.964-2.251a5.95 5.95 0 0 1 2.969-.767c1.532 0 2.73.48 3.544 1.485.862 1.006 1.293 2.586 1.293 4.79v15.085h9.435V28.801c0-1.629.24-2.922.718-3.927.48-1.054 1.15-1.772 1.964-2.251.862-.48 1.82-.767 2.873-.767 1.485 0 2.682.48 3.544 1.485s1.294 2.586 1.294 4.79v15.085h9.482v-16.57c0-2.97-.527-5.412-1.532-7.28-1.006-1.916-2.395-3.305-4.215-4.215M76.422 15.535c-2.347-1.198-4.933-1.773-7.759-1.773-2.97 0-5.651.623-8.046 1.916-2.394 1.245-4.262 3.017-5.651 5.268-1.341 2.251-2.06 4.837-2.06 7.711s.719 5.46 2.108 7.71c1.389 2.252 3.352 4.024 5.843 5.317 2.538 1.293 5.507 1.916 8.908 1.916 2.73 0 5.076-.384 7.088-1.198a12.4 12.4 0 0 0 5.076-3.496l-4.98-5.268c-1.006.862-2.06 1.532-3.113 1.964-1.054.43-2.347.622-3.832.622q-2.442 0-4.166-.862c-1.15-.623-2.06-1.485-2.682-2.586a9.3 9.3 0 0 1-.719-1.724h21.408c.048-.336.048-.767.048-1.198.048-.479.048-.862.048-1.245 0-3.16-.67-5.89-2.06-8.094a13.76 13.76 0 0 0-5.46-4.98M62.342 26.07c.143-.766.335-1.485.67-2.155.527-1.054 1.293-1.82 2.25-2.395 1.007-.575 2.156-.862 3.497-.862 1.293 0 2.395.287 3.4.862a6 6 0 0 1 2.251 2.395c.336.622.623 1.34.719 2.155zM108.941 16.971c-2.538-2.155-6.083-3.209-10.68-3.209-2.3 0-4.598.288-6.849.91-2.25.575-4.166 1.39-5.795 2.539l3.209 6.513c1.054-.814 2.25-1.437 3.688-1.868 1.484-.479 2.921-.718 4.406-.718 2.203 0 3.783.479 4.789 1.389.958.814 1.485 2.011 1.533 3.592h-6.13c-2.97 0-5.412.383-7.28 1.15-1.868.718-3.257 1.723-4.12 3.016-.861 1.293-1.292 2.826-1.292 4.55 0 1.676.43 3.209 1.293 4.55.862 1.341 2.107 2.395 3.688 3.16 1.628.767 3.544 1.15 5.843 1.15q3.807 0 6.178-1.436c1.053-.67 1.868-1.58 2.49-2.682v3.64h8.86V26.98c0-4.55-1.293-7.903-3.831-10.01m-5.699 17.002c-.431 1.197-1.15 2.06-2.156 2.682-1.005.623-2.107.91-3.304.91-1.341 0-2.347-.287-3.113-.862-.719-.623-1.054-1.389-1.054-2.299s.335-1.676 1.006-2.25c.718-.576 1.964-.863 3.688-.863h4.933zM134.516 35.314c-.91.623-1.964.958-3.209.958-1.006 0-1.82-.287-2.395-.91s-.862-1.532-.862-2.634v-10.44h6.801V15.15h-6.801V7.776h-9.435v7.423h-4.358v7.136h4.358V32.92c0 3.593 1.006 6.322 2.97 8.094 2.011 1.772 4.789 2.682 8.429 2.682 1.341 0 2.586-.143 3.831-.43q1.796-.36 3.161-1.294zM148.5 14.193h-9.435v29.023h9.435zM143.759 10.697c1.772 0 3.161-.479 4.214-1.484 1.054-1.006 1.629-2.251 1.629-3.832 0-1.437-.527-2.634-1.629-3.544s-2.49-1.389-4.214-1.389c-1.772 0-3.161.48-4.215 1.485-1.053.958-1.628 2.155-1.628 3.592 0 1.485.527 2.682 1.628 3.688 1.054 1.005 2.491 1.484 4.215 1.484M171.201 35.123c-1.053.622-2.203.91-3.448.91a7.1 7.1 0 0 1-3.448-.863c-1.054-.574-1.868-1.388-2.491-2.49q-.862-1.651-.862-4.023c0-1.532.288-2.826.862-3.927.623-1.102 1.437-1.964 2.491-2.538a7.1 7.1 0 0 1 3.448-.862c1.245 0 2.395.335 3.448.957 1.054.623 1.964 1.58 2.682 2.97l7.28-3.832c-1.006-2.49-2.682-4.358-5.029-5.699-2.346-1.34-5.076-2.06-8.333-2.06-3.161 0-5.987.623-8.477 1.916-2.49 1.246-4.406 3.018-5.843 5.269-1.389 2.25-2.107 4.837-2.107 7.71 0 2.922.718 5.508 2.107 7.759 1.437 2.25 3.4 4.023 5.843 5.316q3.735 1.868 8.477 1.868c3.209 0 5.987-.67 8.333-1.964 2.347-1.34 4.023-3.256 5.029-5.699l-7.28-3.88c-.718 1.533-1.58 2.54-2.682 3.162"/><path fill="#B31950" fill-rule="evenodd" d="M205.588 15.678c2.443 1.245 4.358 3.017 5.747 5.268s2.108 4.837 2.108 7.711c0 2.921-.719 5.508-2.108 7.759q-2.083 3.376-5.747 5.316c-2.442 1.245-5.22 1.868-8.381 1.868s-5.939-.623-8.381-1.868q-3.664-1.94-5.747-5.316c-1.389-2.251-2.108-4.837-2.108-7.759 0-2.873.719-5.46 2.108-7.71 1.389-2.252 3.304-4.024 5.747-5.269 2.442-1.293 5.22-1.916 8.381-1.916s5.939.623 8.381 1.916m-12.582 5.735q-.105.076-.215.127l.599.823q.08-.063.163-.119c2.093-1.399 7.72.236 10.135 3.43 2.418 3.194.229 7.694-1.823 9.192s-6.555 1.719-9.118-1.883c-2.008-2.822-1.66-6.956-.408-9.286l-.669-.92-.046.037c-.594.439-1.45.28-1.912-.355-.463-.635-.355-1.506.239-1.945.437-.323 1.014-.323 1.474-.048.068-.235.218-.458.441-.623.489-.362 1.143-.304 1.458.13s.174 1.079-.315 1.441z" clip-rule="evenodd"/></svg>